%TF.GenerationSoftware,KiCad,Pcbnew,(6.0.0)*%
%TF.CreationDate,2022-03-10T17:49:04+08:00*%
%TF.ProjectId,st_usbAudioV1_demo,73745f75-7362-4417-9564-696f56315f64,rev?*%
%TF.SameCoordinates,Original*%
%TF.FileFunction,Copper,L2,Inr*%
%TF.FilePolarity,Positive*%
%FSLAX46Y46*%
G04 Gerber Fmt 4.6, Leading zero omitted, Abs format (unit mm)*
G04 Created by KiCad (PCBNEW (6.0.0)) date 2022-03-10 17:49:04*
%MOMM*%
%LPD*%
G01*
G04 APERTURE LIST*
%TA.AperFunction,ComponentPad*%
%ADD10O,2.300000X1.400000*%
%TD*%
%TA.AperFunction,ViaPad*%
%ADD11C,0.800000*%
%TD*%
%TA.AperFunction,ViaPad*%
%ADD12C,3.600000*%
%TD*%
%TA.AperFunction,Conductor*%
%ADD13C,0.500000*%
%TD*%
%TA.AperFunction,Conductor*%
%ADD14C,0.150000*%
%TD*%
%TA.AperFunction,Conductor*%
%ADD15C,0.250000*%
%TD*%
G04 APERTURE END LIST*
D10*
%TO.N,GND*%
%TO.C,U8*%
X122088350Y-79074000D03*
X118811750Y-79074000D03*
X122088350Y-69422000D03*
X118811750Y-69422000D03*
%TD*%
D11*
%TO.N,GNDA*%
X173228000Y-84328000D03*
X180594000Y-86360000D03*
X183642000Y-75438000D03*
X184150000Y-76962000D03*
X184150000Y-79248000D03*
X184150000Y-81788000D03*
X182880000Y-84074000D03*
X178816000Y-87630000D03*
X176530000Y-88138000D03*
X173228000Y-88138000D03*
X173228000Y-86360000D03*
X168656000Y-81026000D03*
%TO.N,GND*%
X129286000Y-81788000D03*
%TO.N,+5V*%
X127106000Y-66882000D03*
X129632000Y-66476000D03*
X173228000Y-67564000D03*
X156316000Y-84916000D03*
X125582000Y-66882000D03*
%TO.N,GND*%
X152252000Y-79328000D03*
D12*
X120000000Y-87500000D03*
D11*
X146918000Y-73232000D03*
X146664000Y-71708000D03*
X145394000Y-72978000D03*
X140822000Y-81360000D03*
D12*
X120000000Y-60500000D03*
D11*
X157332000Y-62056000D03*
X157078000Y-78058000D03*
X151744000Y-65612000D03*
X158856000Y-62056000D03*
X148188000Y-72216000D03*
X150220000Y-65612000D03*
X139298000Y-75518000D03*
X159766000Y-70612000D03*
X132694000Y-79074000D03*
X154792000Y-71200000D03*
X159618000Y-68660000D03*
X145648000Y-74248000D03*
%TO.N,/BOOT0*%
X142600000Y-80344000D03*
%TO.N,/NRST*%
X146410000Y-86440000D03*
X155046000Y-76534000D03*
%TO.N,+3V3*%
X132008000Y-60100000D03*
X148442000Y-65612000D03*
X153997000Y-75485000D03*
X125074000Y-77296000D03*
X158602000Y-74314000D03*
X141330000Y-83392000D03*
X132948000Y-60024000D03*
X131932000Y-66374000D03*
X149966000Y-60786000D03*
X131424000Y-80090000D03*
X139552000Y-73232000D03*
X130916000Y-60024000D03*
X147680000Y-79836000D03*
%TO.N,Net-(C10-Pad1)*%
X150435852Y-80128148D03*
%TO.N,Net-(C11-Pad1)*%
X153014000Y-77550000D03*
%TO.N,+3.3VA*%
X167492000Y-83138000D03*
X160888000Y-65104000D03*
X166951000Y-79615000D03*
X172826000Y-77169000D03*
X164444000Y-78236000D03*
%TO.N,/USR*%
X144632000Y-61294000D03*
%TO.N,Net-(C21-Pad2)*%
X149966000Y-62056000D03*
D12*
%TO.N,GNDA*%
X184000000Y-60500000D03*
D11*
X166984000Y-68279000D03*
X176509000Y-77550000D03*
D12*
X184000000Y-87500000D03*
D11*
X171810000Y-67898000D03*
X181970000Y-78058000D03*
X175874000Y-80598000D03*
X169016000Y-70692000D03*
X165714000Y-72978000D03*
X180446000Y-81360000D03*
X172318000Y-62818000D03*
X164444000Y-63326000D03*
%TO.N,Net-(C24-Pad2)*%
X173588000Y-81868000D03*
X171429000Y-71073000D03*
%TO.N,Net-(C27-Pad2)*%
X164952000Y-68279000D03*
%TO.N,Net-(C31-Pad2)*%
X178414000Y-77423000D03*
%TO.N,Net-(C33-Pad1)*%
X176382000Y-75518000D03*
%TO.N,/SWDIO*%
X141076000Y-72216000D03*
%TO.N,/SWCLK*%
X141330000Y-73994000D03*
%TO.N,/TX1*%
X144378000Y-67390000D03*
%TO.N,/LCD_CS*%
X132948000Y-82376000D03*
%TO.N,/LCD_CLK*%
X152252000Y-71581000D03*
%TO.N,/LCD_MOSI*%
X151236000Y-71200000D03*
%TO.N,/LCD_RS*%
X134853000Y-79963000D03*
%TO.N,/LCD_RST*%
X134091000Y-81233000D03*
%TO.N,Net-(C33-Pad2)*%
X178414000Y-75518000D03*
%TO.N,/USB1_D+*%
X129392000Y-71962000D03*
%TO.N,/USB1_D-*%
X129392000Y-70692000D03*
%TO.N,/SCL*%
X146410000Y-80217000D03*
X143933000Y-79392000D03*
%TO.N,/UVP*%
X170794000Y-83407200D03*
X177398000Y-81233000D03*
%TO.N,Net-(R22-Pad1)*%
X178287000Y-80344000D03*
%TO.N,/SDIN*%
X153268000Y-70438000D03*
X144378000Y-69803000D03*
%TO.N,/SDOUT*%
X144378000Y-68533000D03*
X154157000Y-69295000D03*
%TO.N,/BCLK*%
X155554000Y-68406000D03*
X145521000Y-67390000D03*
%TO.N,/LRCK*%
X154284000Y-67390000D03*
X146664000Y-67898000D03*
%TO.N,Net-(C8-Pad1)*%
X164698000Y-85678000D03*
X164698000Y-83900000D03*
%TO.N,Net-(R3-Pad2)*%
X124820000Y-74502000D03*
%TO.N,Net-(R4-Pad2)*%
X124820000Y-73232000D03*
%TO.N,Net-(U4-Pad11)*%
X156316000Y-71835000D03*
%TD*%
D13*
%TO.N,+3.3VA*%
X161802000Y-78236000D02*
X160888000Y-77322000D01*
X164444000Y-78236000D02*
X161802000Y-78236000D01*
X160888000Y-77322000D02*
X160888000Y-65104000D01*
%TO.N,+5V*%
X155300000Y-84916000D02*
X156316000Y-84916000D01*
D14*
X169418000Y-84582000D02*
X166878000Y-87122000D01*
X169418000Y-80518000D02*
X169418000Y-84582000D01*
D13*
X129138000Y-84916000D02*
X155300000Y-84916000D01*
X127106000Y-82884000D02*
X129138000Y-84916000D01*
D14*
X169672000Y-80264000D02*
X169418000Y-80518000D01*
X157734000Y-87122000D02*
X156316000Y-85704000D01*
X173482000Y-80264000D02*
X169672000Y-80264000D01*
D13*
X127106000Y-66882000D02*
X127106000Y-82884000D01*
D14*
X173228000Y-74930000D02*
X174752000Y-76454000D01*
X156316000Y-85704000D02*
X156316000Y-84916000D01*
X174752000Y-78994000D02*
X173482000Y-80264000D01*
X174752000Y-76454000D02*
X174752000Y-78994000D01*
X173228000Y-67564000D02*
X173228000Y-74930000D01*
X166878000Y-87122000D02*
X157734000Y-87122000D01*
D15*
%TO.N,+3V3*%
X147680000Y-79836000D02*
X147680000Y-78058000D01*
D13*
X139552000Y-73232000D02*
X132694000Y-66374000D01*
D15*
X148442000Y-60024000D02*
X149204000Y-60024000D01*
X157431000Y-75485000D02*
X153997000Y-75485000D01*
X132948000Y-60024000D02*
X148442000Y-60024000D01*
X154284000Y-60786000D02*
X149966000Y-60786000D01*
X147680000Y-78058000D02*
X142854000Y-73232000D01*
X158602000Y-74314000D02*
X158602000Y-65104000D01*
X148442000Y-65612000D02*
X148442000Y-60024000D01*
X141330000Y-83392000D02*
X131678000Y-83392000D01*
X158602000Y-74314000D02*
X157431000Y-75485000D01*
X131170000Y-80344000D02*
X131424000Y-80090000D01*
X131170000Y-82884000D02*
X131170000Y-80344000D01*
D13*
X132694000Y-66374000D02*
X131932000Y-66374000D01*
X131424000Y-66882000D02*
X131932000Y-66374000D01*
D15*
X131678000Y-83392000D02*
X131170000Y-82884000D01*
X158602000Y-65104000D02*
X154284000Y-60786000D01*
X131932000Y-60176000D02*
X132008000Y-60100000D01*
D13*
X131932000Y-66374000D02*
X131932000Y-60176000D01*
D15*
X142854000Y-73232000D02*
X139552000Y-73232000D01*
X149204000Y-60024000D02*
X149966000Y-60786000D01*
D13*
X131424000Y-80090000D02*
X131424000Y-66882000D01*
D15*
%TO.N,+3.3VA*%
X167492000Y-80156000D02*
X166951000Y-79615000D01*
X167492000Y-83138000D02*
X167492000Y-80156000D01*
D13*
X164444000Y-78236000D02*
X171759000Y-78236000D01*
X171759000Y-78236000D02*
X172826000Y-77169000D01*
%TD*%
%TA.AperFunction,Conductor*%
%TO.N,GND*%
G36*
X170482121Y-58078002D02*
G01*
X170528614Y-58131658D01*
X170540000Y-58184000D01*
X170540000Y-62184000D01*
X170519998Y-62252121D01*
X170466342Y-62298614D01*
X170414000Y-62310000D01*
X163174000Y-62310000D01*
X163174000Y-77351500D01*
X163153998Y-77419621D01*
X163100342Y-77466114D01*
X163048000Y-77477500D01*
X162168371Y-77477500D01*
X162100250Y-77457498D01*
X162079276Y-77440595D01*
X161683405Y-77044724D01*
X161649379Y-76982412D01*
X161646500Y-76955629D01*
X161646500Y-65640999D01*
X161663381Y-65577999D01*
X161719223Y-65481279D01*
X161719224Y-65481278D01*
X161722527Y-65475556D01*
X161781542Y-65293928D01*
X161801504Y-65104000D01*
X161791005Y-65004110D01*
X161782232Y-64920635D01*
X161782232Y-64920633D01*
X161781542Y-64914072D01*
X161722527Y-64732444D01*
X161711092Y-64712637D01*
X161630341Y-64572774D01*
X161627040Y-64567056D01*
X161499253Y-64425134D01*
X161344752Y-64312882D01*
X161338724Y-64310198D01*
X161338722Y-64310197D01*
X161176319Y-64237891D01*
X161176318Y-64237891D01*
X161170288Y-64235206D01*
X161076888Y-64215353D01*
X160989944Y-64196872D01*
X160989939Y-64196872D01*
X160983487Y-64195500D01*
X160792513Y-64195500D01*
X160786061Y-64196872D01*
X160786056Y-64196872D01*
X160699112Y-64215353D01*
X160605712Y-64235206D01*
X160599682Y-64237891D01*
X160599681Y-64237891D01*
X160437278Y-64310197D01*
X160437276Y-64310198D01*
X160431248Y-64312882D01*
X160276747Y-64425134D01*
X160148960Y-64567056D01*
X160145659Y-64572774D01*
X160064909Y-64712637D01*
X160053473Y-64732444D01*
X159994458Y-64914072D01*
X159993768Y-64920633D01*
X159993768Y-64920635D01*
X159984995Y-65004110D01*
X159974496Y-65104000D01*
X159994458Y-65293928D01*
X160053473Y-65475556D01*
X160056776Y-65481278D01*
X160056777Y-65481279D01*
X160112619Y-65577999D01*
X160129500Y-65640999D01*
X160129500Y-77254930D01*
X160128067Y-77273880D01*
X160124801Y-77295349D01*
X160125394Y-77302641D01*
X160125394Y-77302644D01*
X160129085Y-77348018D01*
X160129500Y-77358233D01*
X160129500Y-77366293D01*
X160129925Y-77369937D01*
X160132789Y-77394507D01*
X160133222Y-77398882D01*
X160136964Y-77444882D01*
X160139140Y-77471637D01*
X160141396Y-77478601D01*
X160142587Y-77484560D01*
X160143971Y-77490415D01*
X160144818Y-77497681D01*
X160169735Y-77566327D01*
X160171152Y-77570455D01*
X160185856Y-77615842D01*
X160193649Y-77639899D01*
X160197445Y-77646154D01*
X160199951Y-77651628D01*
X160202670Y-77657058D01*
X160205167Y-77663937D01*
X160209180Y-77670057D01*
X160209180Y-77670058D01*
X160245186Y-77724976D01*
X160247523Y-77728680D01*
X160285405Y-77791107D01*
X160289121Y-77795315D01*
X160289122Y-77795316D01*
X160292803Y-77799484D01*
X160292776Y-77799508D01*
X160295429Y-77802500D01*
X160298132Y-77805733D01*
X160302144Y-77811852D01*
X160345136Y-77852579D01*
X160358383Y-77865128D01*
X160360825Y-77867506D01*
X161218230Y-78724911D01*
X161230616Y-78739323D01*
X161239149Y-78750918D01*
X161239154Y-78750923D01*
X161243492Y-78756818D01*
X161249070Y-78761557D01*
X161249073Y-78761560D01*
X161283768Y-78791035D01*
X161291284Y-78797965D01*
X161296979Y-78803660D01*
X161299861Y-78805940D01*
X161319251Y-78821281D01*
X161322655Y-78824072D01*
X161365856Y-78860774D01*
X161378285Y-78871333D01*
X161384801Y-78874661D01*
X161389850Y-78878028D01*
X161394979Y-78881195D01*
X161400716Y-78885734D01*
X161466875Y-78916655D01*
X161470769Y-78918558D01*
X161535808Y-78951769D01*
X161542916Y-78953508D01*
X161548559Y-78955607D01*
X161554322Y-78957524D01*
X161560950Y-78960622D01*
X161568112Y-78962112D01*
X161568113Y-78962112D01*
X161632412Y-78975486D01*
X161636696Y-78976456D01*
X161707610Y-78993808D01*
X161713212Y-78994156D01*
X161713215Y-78994156D01*
X161718764Y-78994500D01*
X161718762Y-78994536D01*
X161722755Y-78994775D01*
X161726947Y-78995149D01*
X161734115Y-78996640D01*
X161811520Y-78994546D01*
X161814928Y-78994500D01*
X163048000Y-78994500D01*
X163116121Y-79014502D01*
X163162614Y-79068158D01*
X163174000Y-79120500D01*
X163174000Y-86412500D01*
X163153998Y-86480621D01*
X163100342Y-86527114D01*
X163048000Y-86538500D01*
X158027884Y-86538500D01*
X157959763Y-86518498D01*
X157938794Y-86501600D01*
X157061247Y-85624054D01*
X157027223Y-85561743D01*
X157032287Y-85490928D01*
X157048407Y-85460899D01*
X157050620Y-85457853D01*
X157055040Y-85452944D01*
X157150527Y-85287556D01*
X157209542Y-85105928D01*
X157229504Y-84916000D01*
X157218280Y-84809206D01*
X157210232Y-84732635D01*
X157210232Y-84732633D01*
X157209542Y-84726072D01*
X157150527Y-84544444D01*
X157055040Y-84379056D01*
X157020150Y-84340306D01*
X156931675Y-84242045D01*
X156931674Y-84242044D01*
X156927253Y-84237134D01*
X156814287Y-84155059D01*
X156778094Y-84128763D01*
X156778093Y-84128762D01*
X156772752Y-84124882D01*
X156766724Y-84122198D01*
X156766722Y-84122197D01*
X156604319Y-84049891D01*
X156604318Y-84049891D01*
X156598288Y-84047206D01*
X156496170Y-84025500D01*
X156417944Y-84008872D01*
X156417939Y-84008872D01*
X156411487Y-84007500D01*
X156220513Y-84007500D01*
X156214061Y-84008872D01*
X156214056Y-84008872D01*
X156135830Y-84025500D01*
X156033712Y-84047206D01*
X156027682Y-84049891D01*
X156027681Y-84049891D01*
X155865278Y-84122197D01*
X155865276Y-84122198D01*
X155859248Y-84124882D01*
X155853909Y-84128761D01*
X155853902Y-84128765D01*
X155847472Y-84133437D01*
X155773413Y-84157500D01*
X142146247Y-84157500D01*
X142078126Y-84137498D01*
X142031633Y-84083842D01*
X142021529Y-84013568D01*
X142052610Y-83947192D01*
X142069040Y-83928944D01*
X142144053Y-83799018D01*
X142161223Y-83769279D01*
X142161224Y-83769278D01*
X142164527Y-83763556D01*
X142223542Y-83581928D01*
X142243504Y-83392000D01*
X142231245Y-83275362D01*
X142224232Y-83208635D01*
X142224232Y-83208633D01*
X142223542Y-83202072D01*
X142164527Y-83020444D01*
X142154652Y-83003339D01*
X142091500Y-82893958D01*
X142069040Y-82855056D01*
X141989254Y-82766444D01*
X141945675Y-82718045D01*
X141945674Y-82718044D01*
X141941253Y-82713134D01*
X141786752Y-82600882D01*
X141780724Y-82598198D01*
X141780722Y-82598197D01*
X141618319Y-82525891D01*
X141618318Y-82525891D01*
X141612288Y-82523206D01*
X141518888Y-82503353D01*
X141431944Y-82484872D01*
X141431939Y-82484872D01*
X141425487Y-82483500D01*
X141234513Y-82483500D01*
X141228061Y-82484872D01*
X141228056Y-82484872D01*
X141141112Y-82503353D01*
X141047712Y-82523206D01*
X141041682Y-82525891D01*
X141041681Y-82525891D01*
X140879278Y-82598197D01*
X140879276Y-82598198D01*
X140873248Y-82600882D01*
X140718747Y-82713134D01*
X140714332Y-82718037D01*
X140709420Y-82722460D01*
X140708295Y-82721211D01*
X140654986Y-82754051D01*
X140621800Y-82758500D01*
X133952395Y-82758500D01*
X133884274Y-82738498D01*
X133837781Y-82684842D01*
X133827677Y-82614568D01*
X133832563Y-82593562D01*
X133839502Y-82572208D01*
X133839503Y-82572203D01*
X133841542Y-82565928D01*
X133843804Y-82544412D01*
X133860814Y-82382565D01*
X133861504Y-82376000D01*
X133851275Y-82278680D01*
X133864047Y-82208844D01*
X133912549Y-82156997D01*
X133981381Y-82139602D01*
X133989223Y-82140163D01*
X133995513Y-82141500D01*
X134186487Y-82141500D01*
X134192939Y-82140128D01*
X134192944Y-82140128D01*
X134279888Y-82121647D01*
X134373288Y-82101794D01*
X134379319Y-82099109D01*
X134541722Y-82026803D01*
X134541724Y-82026802D01*
X134547752Y-82024118D01*
X134566181Y-82010729D01*
X134695386Y-81916855D01*
X134702253Y-81911866D01*
X134772231Y-81834148D01*
X134825621Y-81774852D01*
X134825622Y-81774851D01*
X134830040Y-81769944D01*
X134925527Y-81604556D01*
X134984542Y-81422928D01*
X134986936Y-81400156D01*
X135003814Y-81239565D01*
X135003814Y-81239564D01*
X135004504Y-81233000D01*
X135003814Y-81226435D01*
X134985233Y-81049642D01*
X134985232Y-81049635D01*
X134984542Y-81043072D01*
X134973310Y-81008504D01*
X134971282Y-80937538D01*
X135007944Y-80876740D01*
X135066945Y-80846322D01*
X135128824Y-80833169D01*
X135128833Y-80833166D01*
X135135288Y-80831794D01*
X135182224Y-80810897D01*
X135303722Y-80756803D01*
X135303724Y-80756802D01*
X135309752Y-80754118D01*
X135317858Y-80748229D01*
X135411550Y-80680157D01*
X135464253Y-80641866D01*
X135482837Y-80621226D01*
X135587621Y-80504852D01*
X135587622Y-80504851D01*
X135592040Y-80499944D01*
X135670409Y-80364206D01*
X135682075Y-80344000D01*
X141686496Y-80344000D01*
X141687186Y-80350565D01*
X141704863Y-80518749D01*
X141706458Y-80533928D01*
X141765473Y-80715556D01*
X141860960Y-80880944D01*
X141988747Y-81022866D01*
X142025601Y-81049642D01*
X142128122Y-81124128D01*
X142143248Y-81135118D01*
X142149276Y-81137802D01*
X142149278Y-81137803D01*
X142311681Y-81210109D01*
X142317712Y-81212794D01*
X142381888Y-81226435D01*
X142498056Y-81251128D01*
X142498061Y-81251128D01*
X142504513Y-81252500D01*
X142695487Y-81252500D01*
X142701939Y-81251128D01*
X142701944Y-81251128D01*
X142818112Y-81226435D01*
X142882288Y-81212794D01*
X142888319Y-81210109D01*
X143050722Y-81137803D01*
X143050724Y-81137802D01*
X143056752Y-81135118D01*
X143071879Y-81124128D01*
X143174399Y-81049642D01*
X143211253Y-81022866D01*
X143339040Y-80880944D01*
X143434527Y-80715556D01*
X143493542Y-80533928D01*
X143495138Y-80518749D01*
X143510429Y-80373257D01*
X143537442Y-80307600D01*
X143595664Y-80266970D01*
X143661936Y-80263180D01*
X143831056Y-80299128D01*
X143831061Y-80299128D01*
X143837513Y-80300500D01*
X144028487Y-80300500D01*
X144034939Y-80299128D01*
X144034944Y-80299128D01*
X144125270Y-80279928D01*
X144215288Y-80260794D01*
X144293565Y-80225943D01*
X144383722Y-80185803D01*
X144383724Y-80185802D01*
X144389752Y-80183118D01*
X144544253Y-80070866D01*
X144548997Y-80065597D01*
X144667621Y-79933852D01*
X144667622Y-79933851D01*
X144672040Y-79928944D01*
X144767527Y-79763556D01*
X144826542Y-79581928D01*
X144840484Y-79449282D01*
X144845814Y-79398565D01*
X144846504Y-79392000D01*
X144841134Y-79340911D01*
X144827232Y-79208635D01*
X144827232Y-79208633D01*
X144826542Y-79202072D01*
X144767527Y-79020444D01*
X144764097Y-79014502D01*
X144708705Y-78918561D01*
X144672040Y-78855056D01*
X144650728Y-78831386D01*
X144548675Y-78718045D01*
X144548674Y-78718044D01*
X144544253Y-78713134D01*
X144417559Y-78621085D01*
X144395094Y-78604763D01*
X144395093Y-78604762D01*
X144389752Y-78600882D01*
X144383724Y-78598198D01*
X144383722Y-78598197D01*
X144221319Y-78525891D01*
X144221318Y-78525891D01*
X144215288Y-78523206D01*
X144121888Y-78503353D01*
X144034944Y-78484872D01*
X144034939Y-78484872D01*
X144028487Y-78483500D01*
X143837513Y-78483500D01*
X143831061Y-78484872D01*
X143831056Y-78484872D01*
X143744112Y-78503353D01*
X143650712Y-78523206D01*
X143644682Y-78525891D01*
X143644681Y-78525891D01*
X143482278Y-78598197D01*
X143482276Y-78598198D01*
X143476248Y-78600882D01*
X143470907Y-78604762D01*
X143470906Y-78604763D01*
X143448441Y-78621085D01*
X143321747Y-78713134D01*
X143317326Y-78718044D01*
X143317325Y-78718045D01*
X143215273Y-78831386D01*
X143193960Y-78855056D01*
X143157295Y-78918561D01*
X143101904Y-79014502D01*
X143098473Y-79020444D01*
X143039458Y-79202072D01*
X143038768Y-79208633D01*
X143038768Y-79208635D01*
X143022571Y-79362743D01*
X142995558Y-79428400D01*
X142937336Y-79469030D01*
X142871064Y-79472820D01*
X142701944Y-79436872D01*
X142701939Y-79436872D01*
X142695487Y-79435500D01*
X142504513Y-79435500D01*
X142498061Y-79436872D01*
X142498056Y-79436872D01*
X142416570Y-79454193D01*
X142317712Y-79475206D01*
X142311682Y-79477891D01*
X142311681Y-79477891D01*
X142149278Y-79550197D01*
X142149276Y-79550198D01*
X142143248Y-79552882D01*
X142137907Y-79556762D01*
X142137906Y-79556763D01*
X142090172Y-79591444D01*
X141988747Y-79665134D01*
X141984326Y-79670044D01*
X141984325Y-79670045D01*
X141894975Y-79769279D01*
X141860960Y-79807056D01*
X141846190Y-79832638D01*
X141770926Y-79963000D01*
X141765473Y-79972444D01*
X141706458Y-80154072D01*
X141705768Y-80160633D01*
X141705768Y-80160635D01*
X141688149Y-80328271D01*
X141686496Y-80344000D01*
X135682075Y-80344000D01*
X135684223Y-80340279D01*
X135684224Y-80340278D01*
X135687527Y-80334556D01*
X135746542Y-80152928D01*
X135748457Y-80134713D01*
X135765814Y-79969565D01*
X135766504Y-79963000D01*
X135760580Y-79906635D01*
X135747232Y-79779635D01*
X135747232Y-79779633D01*
X135746542Y-79773072D01*
X135687527Y-79591444D01*
X135667647Y-79557010D01*
X135608285Y-79454193D01*
X135592040Y-79426056D01*
X135559943Y-79390408D01*
X135468675Y-79289045D01*
X135468674Y-79289044D01*
X135464253Y-79284134D01*
X135309752Y-79171882D01*
X135303724Y-79169198D01*
X135303722Y-79169197D01*
X135141319Y-79096891D01*
X135141318Y-79096891D01*
X135135288Y-79094206D01*
X135041888Y-79074353D01*
X134954944Y-79055872D01*
X134954939Y-79055872D01*
X134948487Y-79054500D01*
X134757513Y-79054500D01*
X134751061Y-79055872D01*
X134751056Y-79055872D01*
X134664112Y-79074353D01*
X134570712Y-79094206D01*
X134564682Y-79096891D01*
X134564681Y-79096891D01*
X134402278Y-79169197D01*
X134402276Y-79169198D01*
X134396248Y-79171882D01*
X134241747Y-79284134D01*
X134237326Y-79289044D01*
X134237325Y-79289045D01*
X134146058Y-79390408D01*
X134113960Y-79426056D01*
X134097715Y-79454193D01*
X134038354Y-79557010D01*
X134018473Y-79591444D01*
X133959458Y-79773072D01*
X133958768Y-79779633D01*
X133958768Y-79779635D01*
X133945420Y-79906635D01*
X133939496Y-79963000D01*
X133940186Y-79969565D01*
X133958733Y-80146029D01*
X133959458Y-80152928D01*
X133970690Y-80187496D01*
X133972718Y-80258462D01*
X133936056Y-80319260D01*
X133877055Y-80349678D01*
X133815176Y-80362831D01*
X133815167Y-80362834D01*
X133808712Y-80364206D01*
X133802682Y-80366891D01*
X133802681Y-80366891D01*
X133640278Y-80439197D01*
X133640276Y-80439198D01*
X133634248Y-80441882D01*
X133628907Y-80445762D01*
X133628906Y-80445763D01*
X133607169Y-80461556D01*
X133479747Y-80554134D01*
X133475326Y-80559044D01*
X133475325Y-80559045D01*
X133366276Y-80680157D01*
X133351960Y-80696056D01*
X133309923Y-80768866D01*
X133264524Y-80847500D01*
X133256473Y-80861444D01*
X133197458Y-81043072D01*
X133196768Y-81049633D01*
X133196768Y-81049635D01*
X133178186Y-81226435D01*
X133177496Y-81233000D01*
X133187725Y-81330320D01*
X133174953Y-81400156D01*
X133126451Y-81452003D01*
X133057619Y-81469398D01*
X133049777Y-81468837D01*
X133043487Y-81467500D01*
X132852513Y-81467500D01*
X132846061Y-81468872D01*
X132846056Y-81468872D01*
X132759112Y-81487353D01*
X132665712Y-81507206D01*
X132659682Y-81509891D01*
X132659681Y-81509891D01*
X132497278Y-81582197D01*
X132497276Y-81582198D01*
X132491248Y-81584882D01*
X132485907Y-81588762D01*
X132485906Y-81588763D01*
X132464169Y-81604556D01*
X132336747Y-81697134D01*
X132332326Y-81702044D01*
X132332325Y-81702045D01*
X132276958Y-81763537D01*
X132208960Y-81839056D01*
X132113473Y-82004444D01*
X132054458Y-82186072D01*
X132053768Y-82192636D01*
X132052746Y-82197444D01*
X132019018Y-82259917D01*
X131956868Y-82294238D01*
X131886029Y-82289509D01*
X131828992Y-82247233D01*
X131803865Y-82180832D01*
X131803500Y-82171246D01*
X131803500Y-80997339D01*
X131823502Y-80929218D01*
X131870180Y-80889153D01*
X131868999Y-80887107D01*
X131874722Y-80883803D01*
X131880752Y-80881118D01*
X131899181Y-80867729D01*
X131952336Y-80829109D01*
X132035253Y-80768866D01*
X132074732Y-80725020D01*
X132158621Y-80631852D01*
X132158622Y-80631851D01*
X132163040Y-80626944D01*
X132258527Y-80461556D01*
X132317542Y-80279928D01*
X132318982Y-80266232D01*
X132336814Y-80096565D01*
X132337504Y-80090000D01*
X132336814Y-80083435D01*
X132318232Y-79906635D01*
X132318232Y-79906633D01*
X132317542Y-79900072D01*
X132258527Y-79718444D01*
X132199381Y-79616000D01*
X132182500Y-79553001D01*
X132182500Y-67338773D01*
X132202502Y-67270652D01*
X132257250Y-67223667D01*
X132326029Y-67193044D01*
X132396396Y-67183609D01*
X132460694Y-67213715D01*
X132466374Y-67219055D01*
X138631875Y-73384556D01*
X138662613Y-73434714D01*
X138717473Y-73603556D01*
X138720776Y-73609278D01*
X138720777Y-73609279D01*
X138748252Y-73656866D01*
X138812960Y-73768944D01*
X138817375Y-73773847D01*
X138817379Y-73773852D01*
X138856095Y-73816850D01*
X138940747Y-73910866D01*
X139015333Y-73965056D01*
X139064207Y-74000565D01*
X139095248Y-74023118D01*
X139101276Y-74025802D01*
X139101278Y-74025803D01*
X139263681Y-74098109D01*
X139269712Y-74100794D01*
X139363112Y-74120647D01*
X139450056Y-74139128D01*
X139450061Y-74139128D01*
X139456513Y-74140500D01*
X139647487Y-74140500D01*
X139653939Y-74139128D01*
X139653944Y-74139128D01*
X139740888Y-74120647D01*
X139834288Y-74100794D01*
X139840319Y-74098109D01*
X140002722Y-74025803D01*
X140002724Y-74025802D01*
X140008752Y-74023118D01*
X140039794Y-74000565D01*
X140154604Y-73917150D01*
X140163253Y-73910866D01*
X140167668Y-73905963D01*
X140172580Y-73901540D01*
X140173705Y-73902789D01*
X140227014Y-73869949D01*
X140260200Y-73865500D01*
X140291186Y-73865500D01*
X140359307Y-73885502D01*
X140405800Y-73939158D01*
X140416898Y-73990176D01*
X140416496Y-73994000D01*
X140417186Y-74000565D01*
X140431894Y-74140500D01*
X140436458Y-74183928D01*
X140495473Y-74365556D01*
X140590960Y-74530944D01*
X140718747Y-74672866D01*
X140873248Y-74785118D01*
X140879276Y-74787802D01*
X140879278Y-74787803D01*
X141021096Y-74850944D01*
X141047712Y-74862794D01*
X141141113Y-74882647D01*
X141228056Y-74901128D01*
X141228061Y-74901128D01*
X141234513Y-74902500D01*
X141425487Y-74902500D01*
X141431939Y-74901128D01*
X141431944Y-74901128D01*
X141518887Y-74882647D01*
X141612288Y-74862794D01*
X141638904Y-74850944D01*
X141780722Y-74787803D01*
X141780724Y-74787802D01*
X141786752Y-74785118D01*
X141941253Y-74672866D01*
X142069040Y-74530944D01*
X142164527Y-74365556D01*
X142223542Y-74183928D01*
X142228107Y-74140500D01*
X142242814Y-74000565D01*
X142243504Y-73994000D01*
X142243129Y-73990429D01*
X142262816Y-73923379D01*
X142316472Y-73876886D01*
X142368814Y-73865500D01*
X142539406Y-73865500D01*
X142607527Y-73885502D01*
X142628501Y-73902405D01*
X147009595Y-78283499D01*
X147043621Y-78345811D01*
X147046500Y-78372594D01*
X147046500Y-79133476D01*
X147026498Y-79201597D01*
X147014142Y-79217779D01*
X146940960Y-79299056D01*
X146924261Y-79327980D01*
X146872878Y-79376973D01*
X146803164Y-79390408D01*
X146763894Y-79380086D01*
X146698323Y-79350892D01*
X146698315Y-79350889D01*
X146692288Y-79348206D01*
X146594324Y-79327383D01*
X146511944Y-79309872D01*
X146511939Y-79309872D01*
X146505487Y-79308500D01*
X146314513Y-79308500D01*
X146308061Y-79309872D01*
X146308056Y-79309872D01*
X146225676Y-79327383D01*
X146127712Y-79348206D01*
X146121682Y-79350891D01*
X146121681Y-79350891D01*
X145959278Y-79423197D01*
X145959276Y-79423198D01*
X145953248Y-79425882D01*
X145947907Y-79429762D01*
X145947906Y-79429763D01*
X145926385Y-79445399D01*
X145798747Y-79538134D01*
X145794326Y-79543044D01*
X145794325Y-79543045D01*
X145695175Y-79653163D01*
X145670960Y-79680056D01*
X145620882Y-79766794D01*
X145580926Y-79836000D01*
X145575473Y-79845444D01*
X145516458Y-80027072D01*
X145515768Y-80033633D01*
X145515768Y-80033635D01*
X145500465Y-80179237D01*
X145496496Y-80217000D01*
X145497186Y-80223565D01*
X145507795Y-80324500D01*
X145516458Y-80406928D01*
X145575473Y-80588556D01*
X145670960Y-80753944D01*
X145675378Y-80758851D01*
X145675379Y-80758852D01*
X145794325Y-80890955D01*
X145798747Y-80895866D01*
X145897843Y-80967864D01*
X145937866Y-80996942D01*
X145953248Y-81008118D01*
X145959276Y-81010802D01*
X145959278Y-81010803D01*
X146121681Y-81083109D01*
X146127712Y-81085794D01*
X146221113Y-81105647D01*
X146308056Y-81124128D01*
X146308061Y-81124128D01*
X146314513Y-81125500D01*
X146505487Y-81125500D01*
X146511939Y-81124128D01*
X146511944Y-81124128D01*
X146598887Y-81105647D01*
X146692288Y-81085794D01*
X146698319Y-81083109D01*
X146860722Y-81010803D01*
X146860724Y-81010802D01*
X146866752Y-81008118D01*
X146882135Y-80996942D01*
X146922157Y-80967864D01*
X147021253Y-80895866D01*
X147025675Y-80890955D01*
X147144621Y-80758852D01*
X147144622Y-80758851D01*
X147149040Y-80753944D01*
X147165740Y-80725019D01*
X147217122Y-80676027D01*
X147286836Y-80662592D01*
X147326106Y-80672914D01*
X147391677Y-80702108D01*
X147391685Y-80702111D01*
X147397712Y-80704794D01*
X147491113Y-80724647D01*
X147578056Y-80743128D01*
X147578061Y-80743128D01*
X147584513Y-80744500D01*
X147775487Y-80744500D01*
X147781939Y-80743128D01*
X147781944Y-80743128D01*
X147868887Y-80724647D01*
X147962288Y-80704794D01*
X148017624Y-80680157D01*
X148130722Y-80629803D01*
X148130724Y-80629802D01*
X148136752Y-80627118D01*
X148291253Y-80514866D01*
X148319230Y-80483794D01*
X148414621Y-80377852D01*
X148414622Y-80377851D01*
X148419040Y-80372944D01*
X148505284Y-80223565D01*
X148511223Y-80213279D01*
X148511224Y-80213278D01*
X148514527Y-80207556D01*
X148540328Y-80128148D01*
X149522348Y-80128148D01*
X149523038Y-80134713D01*
X149540319Y-80299128D01*
X149542310Y-80318076D01*
X149601325Y-80499704D01*
X149696812Y-80665092D01*
X149701230Y-80669999D01*
X149701231Y-80670000D01*
X149790250Y-80768866D01*
X149824599Y-80807014D01*
X149860598Y-80833169D01*
X149926355Y-80880944D01*
X149979100Y-80919266D01*
X149985128Y-80921950D01*
X149985130Y-80921951D01*
X150147533Y-80994257D01*
X150153564Y-80996942D01*
X150218775Y-81010803D01*
X150333908Y-81035276D01*
X150333913Y-81035276D01*
X150340365Y-81036648D01*
X150531339Y-81036648D01*
X150537791Y-81035276D01*
X150537796Y-81035276D01*
X150652929Y-81010803D01*
X150718140Y-80996942D01*
X150724171Y-80994257D01*
X150886574Y-80921951D01*
X150886576Y-80921950D01*
X150892604Y-80919266D01*
X150945350Y-80880944D01*
X151011106Y-80833169D01*
X151047105Y-80807014D01*
X151081454Y-80768866D01*
X151170473Y-80670000D01*
X151170474Y-80669999D01*
X151174892Y-80665092D01*
X151270379Y-80499704D01*
X151329394Y-80318076D01*
X151331386Y-80299128D01*
X151348666Y-80134713D01*
X151349356Y-80128148D01*
X151343744Y-80074749D01*
X151330084Y-79944783D01*
X151330084Y-79944781D01*
X151329394Y-79938220D01*
X151270379Y-79756592D01*
X151254070Y-79728343D01*
X151206570Y-79646072D01*
X151174892Y-79591204D01*
X151131530Y-79543045D01*
X151051527Y-79454193D01*
X151051526Y-79454192D01*
X151047105Y-79449282D01*
X150927995Y-79362743D01*
X150897946Y-79340911D01*
X150897945Y-79340910D01*
X150892604Y-79337030D01*
X150886576Y-79334346D01*
X150886574Y-79334345D01*
X150724171Y-79262039D01*
X150724170Y-79262039D01*
X150718140Y-79259354D01*
X150624740Y-79239501D01*
X150537796Y-79221020D01*
X150537791Y-79221020D01*
X150531339Y-79219648D01*
X150340365Y-79219648D01*
X150333913Y-79221020D01*
X150333908Y-79221020D01*
X150246964Y-79239501D01*
X150153564Y-79259354D01*
X150147534Y-79262039D01*
X150147533Y-79262039D01*
X149985130Y-79334345D01*
X149985128Y-79334346D01*
X149979100Y-79337030D01*
X149973759Y-79340910D01*
X149973758Y-79340911D01*
X149943709Y-79362743D01*
X149824599Y-79449282D01*
X149820178Y-79454192D01*
X149820177Y-79454193D01*
X149740175Y-79543045D01*
X149696812Y-79591204D01*
X149665134Y-79646072D01*
X149617635Y-79728343D01*
X149601325Y-79756592D01*
X149542310Y-79938220D01*
X149541620Y-79944781D01*
X149541620Y-79944783D01*
X149527960Y-80074749D01*
X149522348Y-80128148D01*
X148540328Y-80128148D01*
X148573542Y-80025928D01*
X148581462Y-79950579D01*
X148592814Y-79842565D01*
X148593504Y-79836000D01*
X148584919Y-79754314D01*
X148574232Y-79652635D01*
X148574232Y-79652633D01*
X148573542Y-79646072D01*
X148514527Y-79464444D01*
X148419040Y-79299056D01*
X148345863Y-79217785D01*
X148315147Y-79153779D01*
X148313500Y-79133476D01*
X148313500Y-78136768D01*
X148314027Y-78125585D01*
X148315702Y-78118092D01*
X148315098Y-78098856D01*
X148313562Y-78050002D01*
X148313500Y-78046044D01*
X148313500Y-78018144D01*
X148312996Y-78014153D01*
X148312063Y-78002311D01*
X148311715Y-77991218D01*
X148310674Y-77958111D01*
X148308461Y-77950493D01*
X148305021Y-77938652D01*
X148301012Y-77919293D01*
X148300504Y-77915271D01*
X148298474Y-77899203D01*
X148295558Y-77891837D01*
X148295556Y-77891831D01*
X148282200Y-77858098D01*
X148278355Y-77846868D01*
X148268230Y-77812017D01*
X148268230Y-77812016D01*
X148266019Y-77804407D01*
X148255705Y-77786966D01*
X148247008Y-77769213D01*
X148242472Y-77757758D01*
X148239552Y-77750383D01*
X148213563Y-77714612D01*
X148207047Y-77704692D01*
X148188578Y-77673463D01*
X148184542Y-77666638D01*
X148170221Y-77652317D01*
X148157380Y-77637283D01*
X148150131Y-77627306D01*
X148145472Y-77620893D01*
X148111395Y-77592702D01*
X148102616Y-77584712D01*
X148067904Y-77550000D01*
X152100496Y-77550000D01*
X152101186Y-77556565D01*
X152118887Y-77724976D01*
X152120458Y-77739928D01*
X152179473Y-77921556D01*
X152182776Y-77927278D01*
X152182777Y-77927279D01*
X152189343Y-77938652D01*
X152274960Y-78086944D01*
X152279378Y-78091851D01*
X152279379Y-78091852D01*
X152379572Y-78203128D01*
X152402747Y-78228866D01*
X152557248Y-78341118D01*
X152563276Y-78343802D01*
X152563278Y-78343803D01*
X152679125Y-78395381D01*
X152731712Y-78418794D01*
X152825113Y-78438647D01*
X152912056Y-78457128D01*
X152912061Y-78457128D01*
X152918513Y-78458500D01*
X153109487Y-78458500D01*
X153115939Y-78457128D01*
X153115944Y-78457128D01*
X153202887Y-78438647D01*
X153296288Y-78418794D01*
X153348875Y-78395381D01*
X153464722Y-78343803D01*
X153464724Y-78343802D01*
X153470752Y-78341118D01*
X153625253Y-78228866D01*
X153648428Y-78203128D01*
X153748621Y-78091852D01*
X153748622Y-78091851D01*
X153753040Y-78086944D01*
X153838657Y-77938652D01*
X153845223Y-77927279D01*
X153845224Y-77927278D01*
X153848527Y-77921556D01*
X153907542Y-77739928D01*
X153909114Y-77724976D01*
X153926814Y-77556565D01*
X153927504Y-77550000D01*
X153916456Y-77444882D01*
X153908232Y-77366635D01*
X153908232Y-77366633D01*
X153907542Y-77360072D01*
X153848527Y-77178444D01*
X153753040Y-77013056D01*
X153673254Y-76924444D01*
X153629675Y-76876045D01*
X153629674Y-76876044D01*
X153625253Y-76871134D01*
X153470752Y-76758882D01*
X153464724Y-76756198D01*
X153464722Y-76756197D01*
X153302319Y-76683891D01*
X153302318Y-76683891D01*
X153296288Y-76681206D01*
X153202888Y-76661353D01*
X153115944Y-76642872D01*
X153115939Y-76642872D01*
X153109487Y-76641500D01*
X152918513Y-76641500D01*
X152912061Y-76642872D01*
X152912056Y-76642872D01*
X152825112Y-76661353D01*
X152731712Y-76681206D01*
X152725682Y-76683891D01*
X152725681Y-76683891D01*
X152563278Y-76756197D01*
X152563276Y-76756198D01*
X152557248Y-76758882D01*
X152402747Y-76871134D01*
X152398326Y-76876044D01*
X152398325Y-76876045D01*
X152354747Y-76924444D01*
X152274960Y-77013056D01*
X152179473Y-77178444D01*
X152120458Y-77360072D01*
X152119768Y-77366633D01*
X152119768Y-77366635D01*
X152111544Y-77444882D01*
X152100496Y-77550000D01*
X148067904Y-77550000D01*
X143357652Y-72839747D01*
X143350112Y-72831461D01*
X143346000Y-72824982D01*
X143296348Y-72778356D01*
X143293507Y-72775602D01*
X143273770Y-72755865D01*
X143270573Y-72753385D01*
X143261551Y-72745680D01*
X143259230Y-72743500D01*
X143229321Y-72715414D01*
X143222375Y-72711595D01*
X143222372Y-72711593D01*
X143211566Y-72705652D01*
X143195047Y-72694801D01*
X143189048Y-72690148D01*
X143179041Y-72682386D01*
X143171772Y-72679241D01*
X143171768Y-72679238D01*
X143138463Y-72664826D01*
X143127813Y-72659609D01*
X143089060Y-72638305D01*
X143079908Y-72635955D01*
X143069438Y-72633267D01*
X143050734Y-72626863D01*
X143039420Y-72621967D01*
X143039419Y-72621967D01*
X143032145Y-72618819D01*
X143024322Y-72617580D01*
X143024312Y-72617577D01*
X142988476Y-72611901D01*
X142976856Y-72609495D01*
X142941711Y-72600472D01*
X142941710Y-72600472D01*
X142934030Y-72598500D01*
X142913776Y-72598500D01*
X142894065Y-72596949D01*
X142881886Y-72595020D01*
X142874057Y-72593780D01*
X142866165Y-72594526D01*
X142830039Y-72597941D01*
X142818181Y-72598500D01*
X142080395Y-72598500D01*
X142012274Y-72578498D01*
X141965781Y-72524842D01*
X141955677Y-72454568D01*
X141960563Y-72433562D01*
X141967502Y-72412208D01*
X141967503Y-72412203D01*
X141969542Y-72405928D01*
X141972814Y-72374803D01*
X141988814Y-72222565D01*
X141988814Y-72222564D01*
X141989504Y-72216000D01*
X141978280Y-72109206D01*
X141970232Y-72032635D01*
X141970232Y-72032633D01*
X141969542Y-72026072D01*
X141910527Y-71844444D01*
X141905075Y-71835000D01*
X141818341Y-71684774D01*
X141815040Y-71679056D01*
X141735254Y-71590444D01*
X141691675Y-71542045D01*
X141691674Y-71542044D01*
X141687253Y-71537134D01*
X141532752Y-71424882D01*
X141526724Y-71422198D01*
X141526722Y-71422197D01*
X141364319Y-71349891D01*
X141364318Y-71349891D01*
X141358288Y-71347206D01*
X141263227Y-71327000D01*
X141177944Y-71308872D01*
X141177939Y-71308872D01*
X141171487Y-71307500D01*
X140980513Y-71307500D01*
X140974061Y-71308872D01*
X140974056Y-71308872D01*
X140888773Y-71327000D01*
X140793712Y-71347206D01*
X140787682Y-71349891D01*
X140787681Y-71349891D01*
X140625278Y-71422197D01*
X140625276Y-71422198D01*
X140619248Y-71424882D01*
X140464747Y-71537134D01*
X140460326Y-71542044D01*
X140460325Y-71542045D01*
X140416747Y-71590444D01*
X140336960Y-71679056D01*
X140333659Y-71684774D01*
X140246926Y-71835000D01*
X140241473Y-71844444D01*
X140182458Y-72026072D01*
X140181768Y-72032633D01*
X140181768Y-72032635D01*
X140173720Y-72109206D01*
X140162496Y-72216000D01*
X140167107Y-72259866D01*
X140172028Y-72306690D01*
X140159256Y-72376529D01*
X140110754Y-72428376D01*
X140041921Y-72445770D01*
X139995469Y-72434968D01*
X139840319Y-72365891D01*
X139840318Y-72365891D01*
X139834288Y-72363206D01*
X139827833Y-72361834D01*
X139827824Y-72361831D01*
X139771228Y-72349801D01*
X139708331Y-72315650D01*
X138592681Y-71200000D01*
X150322496Y-71200000D01*
X150323186Y-71206565D01*
X150340455Y-71370866D01*
X150342458Y-71389928D01*
X150401473Y-71571556D01*
X150404776Y-71577278D01*
X150404777Y-71577279D01*
X150409074Y-71584721D01*
X150496960Y-71736944D01*
X150501378Y-71741851D01*
X150501379Y-71741852D01*
X150527559Y-71770928D01*
X150624747Y-71878866D01*
X150711360Y-71941794D01*
X150748207Y-71968565D01*
X150779248Y-71991118D01*
X150785276Y-71993802D01*
X150785278Y-71993803D01*
X150872497Y-72032635D01*
X150953712Y-72068794D01*
X151047113Y-72088647D01*
X151134056Y-72107128D01*
X151134061Y-72107128D01*
X151140513Y-72108500D01*
X151331487Y-72108500D01*
X151337939Y-72107128D01*
X151337944Y-72107128D01*
X151405515Y-72092765D01*
X151476306Y-72098167D01*
X151525347Y-72131702D01*
X151640747Y-72259866D01*
X151717527Y-72315650D01*
X151782982Y-72363206D01*
X151795248Y-72372118D01*
X151801276Y-72374802D01*
X151801278Y-72374803D01*
X151949695Y-72440882D01*
X151969712Y-72449794D01*
X152063113Y-72469647D01*
X152150056Y-72488128D01*
X152150061Y-72488128D01*
X152156513Y-72489500D01*
X152347487Y-72489500D01*
X152353939Y-72488128D01*
X152353944Y-72488128D01*
X152440887Y-72469647D01*
X152534288Y-72449794D01*
X152554305Y-72440882D01*
X152702722Y-72374803D01*
X152702724Y-72374802D01*
X152708752Y-72372118D01*
X152721019Y-72363206D01*
X152786473Y-72315650D01*
X152863253Y-72259866D01*
X152902750Y-72216000D01*
X152986621Y-72122852D01*
X152986622Y-72122851D01*
X152991040Y-72117944D01*
X153077284Y-71968565D01*
X153083223Y-71958279D01*
X153083224Y-71958278D01*
X153086527Y-71952556D01*
X153124724Y-71835000D01*
X155402496Y-71835000D01*
X155403186Y-71841565D01*
X155419187Y-71993803D01*
X155422458Y-72024928D01*
X155481473Y-72206556D01*
X155484776Y-72212278D01*
X155484777Y-72212279D01*
X155490715Y-72222564D01*
X155576960Y-72371944D01*
X155581378Y-72376851D01*
X155581379Y-72376852D01*
X155632441Y-72433562D01*
X155704747Y-72513866D01*
X155753450Y-72549251D01*
X155853535Y-72621967D01*
X155859248Y-72626118D01*
X155865276Y-72628802D01*
X155865278Y-72628803D01*
X156027681Y-72701109D01*
X156033712Y-72703794D01*
X156127112Y-72723647D01*
X156214056Y-72742128D01*
X156214061Y-72742128D01*
X156220513Y-72743500D01*
X156411487Y-72743500D01*
X156417939Y-72742128D01*
X156417944Y-72742128D01*
X156504888Y-72723647D01*
X156598288Y-72703794D01*
X156604319Y-72701109D01*
X156766722Y-72628803D01*
X156766724Y-72628802D01*
X156772752Y-72626118D01*
X156778466Y-72621967D01*
X156878550Y-72549251D01*
X156927253Y-72513866D01*
X156999559Y-72433562D01*
X157050621Y-72376852D01*
X157050622Y-72376851D01*
X157055040Y-72371944D01*
X157141285Y-72222564D01*
X157147223Y-72212279D01*
X157147224Y-72212278D01*
X157150527Y-72206556D01*
X157209542Y-72024928D01*
X157212814Y-71993803D01*
X157228814Y-71841565D01*
X157229504Y-71835000D01*
X157209542Y-71645072D01*
X157150527Y-71463444D01*
X157055040Y-71298056D01*
X157005188Y-71242689D01*
X156931675Y-71161045D01*
X156931674Y-71161044D01*
X156927253Y-71156134D01*
X156799831Y-71063556D01*
X156778094Y-71047763D01*
X156778093Y-71047762D01*
X156772752Y-71043882D01*
X156766724Y-71041198D01*
X156766722Y-71041197D01*
X156604319Y-70968891D01*
X156604318Y-70968891D01*
X156598288Y-70966206D01*
X156501284Y-70945587D01*
X156417944Y-70927872D01*
X156417939Y-70927872D01*
X156411487Y-70926500D01*
X156220513Y-70926500D01*
X156214061Y-70927872D01*
X156214056Y-70927872D01*
X156130716Y-70945587D01*
X156033712Y-70966206D01*
X156027682Y-70968891D01*
X156027681Y-70968891D01*
X155865278Y-71041197D01*
X155865276Y-71041198D01*
X155859248Y-71043882D01*
X155853907Y-71047762D01*
X155853906Y-71047763D01*
X155832169Y-71063556D01*
X155704747Y-71156134D01*
X155700326Y-71161044D01*
X155700325Y-71161045D01*
X155626813Y-71242689D01*
X155576960Y-71298056D01*
X155481473Y-71463444D01*
X155422458Y-71645072D01*
X155402496Y-71835000D01*
X153124724Y-71835000D01*
X153145542Y-71770928D01*
X153147546Y-71751866D01*
X153164814Y-71587565D01*
X153165504Y-71581000D01*
X153160894Y-71537134D01*
X153155485Y-71485670D01*
X153168258Y-71415832D01*
X153216760Y-71363985D01*
X153280795Y-71346500D01*
X153363487Y-71346500D01*
X153369939Y-71345128D01*
X153369944Y-71345128D01*
X153456888Y-71326647D01*
X153550288Y-71306794D01*
X153617544Y-71276850D01*
X153718722Y-71231803D01*
X153718724Y-71231802D01*
X153724752Y-71229118D01*
X153755794Y-71206565D01*
X153830550Y-71152251D01*
X153879253Y-71116866D01*
X153918750Y-71073000D01*
X154002621Y-70979852D01*
X154002622Y-70979851D01*
X154007040Y-70974944D01*
X154091622Y-70828444D01*
X154099223Y-70815279D01*
X154099224Y-70815278D01*
X154102527Y-70809556D01*
X154161542Y-70627928D01*
X154164145Y-70603168D01*
X154180814Y-70444565D01*
X154181504Y-70438000D01*
X154176894Y-70394134D01*
X154170806Y-70336212D01*
X154183578Y-70266374D01*
X154232080Y-70214527D01*
X154269919Y-70199795D01*
X154332996Y-70186387D01*
X154439288Y-70163794D01*
X154469938Y-70150148D01*
X154607722Y-70088803D01*
X154607724Y-70088802D01*
X154613752Y-70086118D01*
X154632181Y-70072729D01*
X154730682Y-70001163D01*
X154768253Y-69973866D01*
X154896040Y-69831944D01*
X154954314Y-69731010D01*
X154988223Y-69672279D01*
X154988224Y-69672278D01*
X154991527Y-69666556D01*
X155050542Y-69484928D01*
X155055503Y-69437729D01*
X155063400Y-69362593D01*
X155090413Y-69296936D01*
X155148635Y-69256307D01*
X155219580Y-69253604D01*
X155239958Y-69260657D01*
X155265677Y-69272108D01*
X155265685Y-69272111D01*
X155271712Y-69274794D01*
X155335888Y-69288435D01*
X155452056Y-69313128D01*
X155452061Y-69313128D01*
X155458513Y-69314500D01*
X155649487Y-69314500D01*
X155655939Y-69313128D01*
X155655944Y-69313128D01*
X155772112Y-69288435D01*
X155836288Y-69274794D01*
X155855914Y-69266056D01*
X156004722Y-69199803D01*
X156004724Y-69199802D01*
X156010752Y-69197118D01*
X156165253Y-69084866D01*
X156293040Y-68942944D01*
X156388527Y-68777556D01*
X156447542Y-68595928D01*
X156449138Y-68580749D01*
X156466814Y-68412565D01*
X156467504Y-68406000D01*
X156466209Y-68393676D01*
X156448232Y-68222635D01*
X156448232Y-68222633D01*
X156447542Y-68216072D01*
X156388527Y-68034444D01*
X156293040Y-67869056D01*
X156205651Y-67772000D01*
X156169675Y-67732045D01*
X156169674Y-67732044D01*
X156165253Y-67727134D01*
X156010752Y-67614882D01*
X156004724Y-67612198D01*
X156004722Y-67612197D01*
X155842319Y-67539891D01*
X155842318Y-67539891D01*
X155836288Y-67537206D01*
X155742888Y-67517353D01*
X155655944Y-67498872D01*
X155655939Y-67498872D01*
X155649487Y-67497500D01*
X155458513Y-67497500D01*
X155452053Y-67498873D01*
X155452054Y-67498873D01*
X155349010Y-67520775D01*
X155278220Y-67515373D01*
X155221587Y-67472556D01*
X155197094Y-67405918D01*
X155196814Y-67397528D01*
X155196814Y-67396565D01*
X155197504Y-67390000D01*
X155196814Y-67383435D01*
X155178232Y-67206635D01*
X155178232Y-67206633D01*
X155177542Y-67200072D01*
X155118527Y-67018444D01*
X155023040Y-66853056D01*
X154895253Y-66711134D01*
X154740752Y-66598882D01*
X154734724Y-66596198D01*
X154734722Y-66596197D01*
X154572319Y-66523891D01*
X154572318Y-66523891D01*
X154566288Y-66521206D01*
X154472887Y-66501353D01*
X154385944Y-66482872D01*
X154385939Y-66482872D01*
X154379487Y-66481500D01*
X154188513Y-66481500D01*
X154182061Y-66482872D01*
X154182056Y-66482872D01*
X154095113Y-66501353D01*
X154001712Y-66521206D01*
X153995682Y-66523891D01*
X153995681Y-66523891D01*
X153833278Y-66596197D01*
X153833276Y-66596198D01*
X153827248Y-66598882D01*
X153672747Y-66711134D01*
X153544960Y-66853056D01*
X153449473Y-67018444D01*
X153390458Y-67200072D01*
X153389768Y-67206633D01*
X153389768Y-67206635D01*
X153371186Y-67383435D01*
X153370496Y-67390000D01*
X153371186Y-67396565D01*
X153385824Y-67535834D01*
X153390458Y-67579928D01*
X153449473Y-67761556D01*
X153544960Y-67926944D01*
X153672747Y-68068866D01*
X153771843Y-68140864D01*
X153808820Y-68167729D01*
X153827248Y-68181118D01*
X153833274Y-68183801D01*
X153833281Y-68183805D01*
X153867683Y-68199121D01*
X153921779Y-68245101D01*
X153942429Y-68313028D01*
X153923077Y-68381336D01*
X153867684Y-68429335D01*
X153706278Y-68501197D01*
X153706276Y-68501198D01*
X153700248Y-68503882D01*
X153694907Y-68507762D01*
X153694906Y-68507763D01*
X153669205Y-68526436D01*
X153545747Y-68616134D01*
X153541326Y-68621044D01*
X153541325Y-68621045D01*
X153443937Y-68729206D01*
X153417960Y-68758056D01*
X153322473Y-68923444D01*
X153263458Y-69105072D01*
X153262768Y-69111633D01*
X153262768Y-69111635D01*
X153244186Y-69288435D01*
X153243496Y-69295000D01*
X153244186Y-69301565D01*
X153254194Y-69396788D01*
X153241422Y-69466626D01*
X153192920Y-69518473D01*
X153155081Y-69533205D01*
X153092004Y-69546613D01*
X152985712Y-69569206D01*
X152979682Y-69571891D01*
X152979681Y-69571891D01*
X152817278Y-69644197D01*
X152817276Y-69644198D01*
X152811248Y-69646882D01*
X152805907Y-69650762D01*
X152805906Y-69650763D01*
X152784169Y-69666556D01*
X152656747Y-69759134D01*
X152652326Y-69764044D01*
X152652325Y-69764045D01*
X152607345Y-69814001D01*
X152528960Y-69901056D01*
X152487939Y-69972107D01*
X152442244Y-70051253D01*
X152433473Y-70066444D01*
X152374458Y-70248072D01*
X152373768Y-70254633D01*
X152373768Y-70254635D01*
X152365720Y-70331206D01*
X152354496Y-70438000D01*
X152355186Y-70444565D01*
X152364515Y-70533330D01*
X152351742Y-70603168D01*
X152303240Y-70655015D01*
X152239205Y-70672500D01*
X152156513Y-70672500D01*
X152150061Y-70673872D01*
X152150056Y-70673872D01*
X152082485Y-70688235D01*
X152011694Y-70682833D01*
X151962652Y-70649298D01*
X151949071Y-70634214D01*
X151847253Y-70521134D01*
X151732829Y-70438000D01*
X151698094Y-70412763D01*
X151698093Y-70412762D01*
X151692752Y-70408882D01*
X151686724Y-70406198D01*
X151686722Y-70406197D01*
X151524319Y-70333891D01*
X151524318Y-70333891D01*
X151518288Y-70331206D01*
X151424887Y-70311353D01*
X151337944Y-70292872D01*
X151337939Y-70292872D01*
X151331487Y-70291500D01*
X151140513Y-70291500D01*
X151134061Y-70292872D01*
X151134056Y-70292872D01*
X151047113Y-70311353D01*
X150953712Y-70331206D01*
X150947682Y-70333891D01*
X150947681Y-70333891D01*
X150785278Y-70406197D01*
X150785276Y-70406198D01*
X150779248Y-70408882D01*
X150773907Y-70412762D01*
X150773906Y-70412763D01*
X150739171Y-70438000D01*
X150624747Y-70521134D01*
X150620326Y-70526044D01*
X150620325Y-70526045D01*
X150522937Y-70634206D01*
X150496960Y-70663056D01*
X150401473Y-70828444D01*
X150342458Y-71010072D01*
X150341768Y-71016633D01*
X150341768Y-71016635D01*
X150327515Y-71152251D01*
X150322496Y-71200000D01*
X138592681Y-71200000D01*
X137195681Y-69803000D01*
X143464496Y-69803000D01*
X143465186Y-69809565D01*
X143482863Y-69977749D01*
X143484458Y-69992928D01*
X143543473Y-70174556D01*
X143638960Y-70339944D01*
X143643378Y-70344851D01*
X143643379Y-70344852D01*
X143762325Y-70476955D01*
X143766747Y-70481866D01*
X143921248Y-70594118D01*
X143927276Y-70596802D01*
X143927278Y-70596803D01*
X144065062Y-70658148D01*
X144095712Y-70671794D01*
X144189112Y-70691647D01*
X144276056Y-70710128D01*
X144276061Y-70710128D01*
X144282513Y-70711500D01*
X144473487Y-70711500D01*
X144479939Y-70710128D01*
X144479944Y-70710128D01*
X144566888Y-70691647D01*
X144660288Y-70671794D01*
X144690938Y-70658148D01*
X144828722Y-70596803D01*
X144828724Y-70596802D01*
X144834752Y-70594118D01*
X144989253Y-70481866D01*
X144993675Y-70476955D01*
X145112621Y-70344852D01*
X145112622Y-70344851D01*
X145117040Y-70339944D01*
X145212527Y-70174556D01*
X145271542Y-69992928D01*
X145273138Y-69977749D01*
X145290814Y-69809565D01*
X145291504Y-69803000D01*
X145289599Y-69784872D01*
X145272232Y-69619635D01*
X145272232Y-69619633D01*
X145271542Y-69613072D01*
X145212527Y-69431444D01*
X145117040Y-69266056D01*
X145104662Y-69252309D01*
X145073946Y-69188303D01*
X145082710Y-69117850D01*
X145104661Y-69083693D01*
X145117040Y-69069944D01*
X145190364Y-68942944D01*
X145209223Y-68910279D01*
X145209224Y-68910278D01*
X145212527Y-68904556D01*
X145271542Y-68722928D01*
X145274814Y-68691803D01*
X145290814Y-68539565D01*
X145291504Y-68533000D01*
X145281275Y-68435680D01*
X145294047Y-68365844D01*
X145342549Y-68313997D01*
X145411381Y-68296602D01*
X145419223Y-68297163D01*
X145425513Y-68298500D01*
X145616487Y-68298500D01*
X145622939Y-68297128D01*
X145622944Y-68297128D01*
X145715962Y-68277356D01*
X145731533Y-68274046D01*
X145802324Y-68279448D01*
X145858956Y-68322265D01*
X145866849Y-68334293D01*
X145924960Y-68434944D01*
X145929378Y-68439851D01*
X145929379Y-68439852D01*
X146013250Y-68533000D01*
X146052747Y-68576866D01*
X146207248Y-68689118D01*
X146213276Y-68691802D01*
X146213278Y-68691803D01*
X146351062Y-68753148D01*
X146381712Y-68766794D01*
X146475112Y-68786647D01*
X146562056Y-68805128D01*
X146562061Y-68805128D01*
X146568513Y-68806500D01*
X146759487Y-68806500D01*
X146765939Y-68805128D01*
X146765944Y-68805128D01*
X146852888Y-68786647D01*
X146946288Y-68766794D01*
X146976938Y-68753148D01*
X147114722Y-68691803D01*
X147114724Y-68691802D01*
X147120752Y-68689118D01*
X147275253Y-68576866D01*
X147314750Y-68533000D01*
X147398621Y-68439852D01*
X147398622Y-68439851D01*
X147403040Y-68434944D01*
X147492816Y-68279448D01*
X147495223Y-68275279D01*
X147495224Y-68275278D01*
X147498527Y-68269556D01*
X147557542Y-68087928D01*
X147559138Y-68072749D01*
X147576814Y-67904565D01*
X147577504Y-67898000D01*
X147560062Y-67732045D01*
X147558232Y-67714635D01*
X147558232Y-67714633D01*
X147557542Y-67708072D01*
X147498527Y-67526444D01*
X147403040Y-67361056D01*
X147275253Y-67219134D01*
X147120752Y-67106882D01*
X147114724Y-67104198D01*
X147114722Y-67104197D01*
X146952319Y-67031891D01*
X146952318Y-67031891D01*
X146946288Y-67029206D01*
X146849119Y-67008552D01*
X146765944Y-66990872D01*
X146765939Y-66990872D01*
X146759487Y-66989500D01*
X146568513Y-66989500D01*
X146562061Y-66990872D01*
X146562056Y-66990872D01*
X146478881Y-67008552D01*
X146459268Y-67012721D01*
X146453467Y-67013954D01*
X146382676Y-67008552D01*
X146326044Y-66965735D01*
X146318151Y-66953707D01*
X146263341Y-66858774D01*
X146260040Y-66853056D01*
X146132253Y-66711134D01*
X145977752Y-66598882D01*
X145971724Y-66596198D01*
X145971722Y-66596197D01*
X145809319Y-66523891D01*
X145809318Y-66523891D01*
X145803288Y-66521206D01*
X145709887Y-66501353D01*
X145622944Y-66482872D01*
X145622939Y-66482872D01*
X145616487Y-66481500D01*
X145425513Y-66481500D01*
X145419061Y-66482872D01*
X145419056Y-66482872D01*
X145332113Y-66501353D01*
X145238712Y-66521206D01*
X145232682Y-66523891D01*
X145232681Y-66523891D01*
X145070278Y-66596197D01*
X145070276Y-66596198D01*
X145064248Y-66598882D01*
X145058907Y-66602762D01*
X145058906Y-66602763D01*
X145023561Y-66628443D01*
X144956694Y-66652301D01*
X144887542Y-66636221D01*
X144875439Y-66628443D01*
X144840094Y-66602763D01*
X144840093Y-66602762D01*
X144834752Y-66598882D01*
X144828724Y-66596198D01*
X144828722Y-66596197D01*
X144666319Y-66523891D01*
X144666318Y-66523891D01*
X144660288Y-66521206D01*
X144566887Y-66501353D01*
X144479944Y-66482872D01*
X144479939Y-66482872D01*
X144473487Y-66481500D01*
X144282513Y-66481500D01*
X144276061Y-66482872D01*
X144276056Y-66482872D01*
X144189113Y-66501353D01*
X144095712Y-66521206D01*
X144089682Y-66523891D01*
X144089681Y-66523891D01*
X143927278Y-66596197D01*
X143927276Y-66596198D01*
X143921248Y-66598882D01*
X143766747Y-66711134D01*
X143638960Y-66853056D01*
X143543473Y-67018444D01*
X143484458Y-67200072D01*
X143483768Y-67206633D01*
X143483768Y-67206635D01*
X143465186Y-67383435D01*
X143464496Y-67390000D01*
X143465186Y-67396565D01*
X143479824Y-67535834D01*
X143484458Y-67579928D01*
X143543473Y-67761556D01*
X143546776Y-67767278D01*
X143546777Y-67767279D01*
X143622538Y-67898500D01*
X143639276Y-67967495D01*
X143622538Y-68024499D01*
X143599758Y-68063955D01*
X143548217Y-68153228D01*
X143543473Y-68161444D01*
X143484458Y-68343072D01*
X143483768Y-68349633D01*
X143483768Y-68349635D01*
X143474802Y-68434944D01*
X143464496Y-68533000D01*
X143465186Y-68539565D01*
X143481187Y-68691803D01*
X143484458Y-68722928D01*
X143543473Y-68904556D01*
X143546776Y-68910278D01*
X143546777Y-68910279D01*
X143565636Y-68942944D01*
X143638960Y-69069944D01*
X143651338Y-69083691D01*
X143682054Y-69147697D01*
X143673290Y-69218150D01*
X143651339Y-69252307D01*
X143638960Y-69266056D01*
X143543473Y-69431444D01*
X143484458Y-69613072D01*
X143483768Y-69619633D01*
X143483768Y-69619635D01*
X143466401Y-69784872D01*
X143464496Y-69803000D01*
X137195681Y-69803000D01*
X133277770Y-65885089D01*
X133265384Y-65870677D01*
X133256851Y-65859082D01*
X133256846Y-65859077D01*
X133252508Y-65853182D01*
X133246930Y-65848443D01*
X133246927Y-65848440D01*
X133212232Y-65818965D01*
X133204716Y-65812035D01*
X133199021Y-65806340D01*
X133185149Y-65795365D01*
X133176749Y-65788719D01*
X133173345Y-65785928D01*
X133123297Y-65743409D01*
X133123295Y-65743408D01*
X133117715Y-65738667D01*
X133111199Y-65735339D01*
X133106150Y-65731972D01*
X133101021Y-65728805D01*
X133095284Y-65724266D01*
X133029125Y-65693345D01*
X133025225Y-65691439D01*
X132960192Y-65658231D01*
X132953084Y-65656492D01*
X132947441Y-65654393D01*
X132941678Y-65652476D01*
X132935050Y-65649378D01*
X132863583Y-65634513D01*
X132859299Y-65633543D01*
X132788390Y-65616192D01*
X132788911Y-65614065D01*
X132733193Y-65588053D01*
X132695311Y-65528007D01*
X132690500Y-65493523D01*
X132690500Y-61674000D01*
X132710502Y-61605879D01*
X132764158Y-61559386D01*
X132816500Y-61548000D01*
X133584000Y-61548000D01*
X133691980Y-61536391D01*
X133695264Y-61535677D01*
X133695268Y-61535676D01*
X133720339Y-61530222D01*
X133744322Y-61525005D01*
X133847372Y-61490707D01*
X133969010Y-61412535D01*
X134022666Y-61366042D01*
X134034257Y-61352666D01*
X134111453Y-61263577D01*
X134117355Y-61256766D01*
X134177421Y-61125240D01*
X134197423Y-61057119D01*
X134198064Y-61052664D01*
X134217361Y-60918448D01*
X134217362Y-60918441D01*
X134218000Y-60914000D01*
X134218000Y-60783500D01*
X134238002Y-60715379D01*
X134291658Y-60668886D01*
X134344000Y-60657500D01*
X143732200Y-60657500D01*
X143800321Y-60677502D01*
X143846814Y-60731158D01*
X143856918Y-60801432D01*
X143841319Y-60846500D01*
X143797473Y-60922444D01*
X143738458Y-61104072D01*
X143718496Y-61294000D01*
X143719186Y-61300565D01*
X143735008Y-61451099D01*
X143738458Y-61483928D01*
X143797473Y-61665556D01*
X143892960Y-61830944D01*
X143897378Y-61835851D01*
X143897379Y-61835852D01*
X143924589Y-61866072D01*
X144020747Y-61972866D01*
X144119843Y-62044864D01*
X144144207Y-62062565D01*
X144175248Y-62085118D01*
X144181276Y-62087802D01*
X144181278Y-62087803D01*
X144343681Y-62160109D01*
X144349712Y-62162794D01*
X144443112Y-62182647D01*
X144530056Y-62201128D01*
X144530061Y-62201128D01*
X144536513Y-62202500D01*
X144727487Y-62202500D01*
X144733939Y-62201128D01*
X144733944Y-62201128D01*
X144820888Y-62182647D01*
X144914288Y-62162794D01*
X144920319Y-62160109D01*
X145082722Y-62087803D01*
X145082724Y-62087802D01*
X145088752Y-62085118D01*
X145119794Y-62062565D01*
X145144157Y-62044864D01*
X145243253Y-61972866D01*
X145339411Y-61866072D01*
X145366621Y-61835852D01*
X145366622Y-61835851D01*
X145371040Y-61830944D01*
X145466527Y-61665556D01*
X145525542Y-61483928D01*
X145528993Y-61451099D01*
X145544814Y-61300565D01*
X145545504Y-61294000D01*
X145525542Y-61104072D01*
X145466527Y-60922444D01*
X145422681Y-60846500D01*
X145405943Y-60777504D01*
X145429164Y-60710413D01*
X145484971Y-60666526D01*
X145531800Y-60657500D01*
X147682500Y-60657500D01*
X147750621Y-60677502D01*
X147797114Y-60731158D01*
X147808500Y-60783500D01*
X147808500Y-64909476D01*
X147788498Y-64977597D01*
X147776142Y-64993779D01*
X147702960Y-65075056D01*
X147664752Y-65141234D01*
X147614595Y-65228109D01*
X147607473Y-65240444D01*
X147548458Y-65422072D01*
X147528496Y-65612000D01*
X147529186Y-65618565D01*
X147547070Y-65788719D01*
X147548458Y-65801928D01*
X147607473Y-65983556D01*
X147702960Y-66148944D01*
X147707378Y-66153851D01*
X147707379Y-66153852D01*
X147826325Y-66285955D01*
X147830747Y-66290866D01*
X147985248Y-66403118D01*
X147991276Y-66405802D01*
X147991278Y-66405803D01*
X148153681Y-66478109D01*
X148159712Y-66480794D01*
X148253113Y-66500647D01*
X148340056Y-66519128D01*
X148340061Y-66519128D01*
X148346513Y-66520500D01*
X148537487Y-66520500D01*
X148543939Y-66519128D01*
X148543944Y-66519128D01*
X148630887Y-66500647D01*
X148724288Y-66480794D01*
X148730319Y-66478109D01*
X148892722Y-66405803D01*
X148892724Y-66405802D01*
X148898752Y-66403118D01*
X149053253Y-66290866D01*
X149057675Y-66285955D01*
X149176621Y-66153852D01*
X149176622Y-66153851D01*
X149181040Y-66148944D01*
X149276527Y-65983556D01*
X149335542Y-65801928D01*
X149336931Y-65788719D01*
X149354814Y-65618565D01*
X149355504Y-65612000D01*
X149335542Y-65422072D01*
X149276527Y-65240444D01*
X149269406Y-65228109D01*
X149219248Y-65141234D01*
X149181040Y-65075056D01*
X149107863Y-64993785D01*
X149077147Y-64929779D01*
X149075500Y-64909476D01*
X149075500Y-62752971D01*
X149095502Y-62684850D01*
X149149158Y-62638357D01*
X149219432Y-62628253D01*
X149284012Y-62657747D01*
X149295134Y-62668659D01*
X149354747Y-62734866D01*
X149509248Y-62847118D01*
X149515276Y-62849802D01*
X149515278Y-62849803D01*
X149677681Y-62922109D01*
X149683712Y-62924794D01*
X149777113Y-62944647D01*
X149864056Y-62963128D01*
X149864061Y-62963128D01*
X149870513Y-62964500D01*
X150061487Y-62964500D01*
X150067939Y-62963128D01*
X150067944Y-62963128D01*
X150154887Y-62944647D01*
X150248288Y-62924794D01*
X150254319Y-62922109D01*
X150416722Y-62849803D01*
X150416724Y-62849802D01*
X150422752Y-62847118D01*
X150577253Y-62734866D01*
X150705040Y-62592944D01*
X150800527Y-62427556D01*
X150859542Y-62245928D01*
X150864107Y-62202500D01*
X150878814Y-62062565D01*
X150879504Y-62056000D01*
X150878814Y-62049435D01*
X150860232Y-61872635D01*
X150860232Y-61872633D01*
X150859542Y-61866072D01*
X150800527Y-61684444D01*
X150789622Y-61665556D01*
X150756681Y-61608500D01*
X150739943Y-61539504D01*
X150763164Y-61472413D01*
X150818971Y-61428526D01*
X150865800Y-61419500D01*
X153969406Y-61419500D01*
X154037527Y-61439502D01*
X154058501Y-61456405D01*
X157931595Y-65329499D01*
X157965621Y-65391811D01*
X157968500Y-65418594D01*
X157968500Y-73611476D01*
X157948498Y-73679597D01*
X157936142Y-73695779D01*
X157862960Y-73777056D01*
X157859659Y-73782774D01*
X157782077Y-73917150D01*
X157767473Y-73942444D01*
X157708458Y-74124072D01*
X157707768Y-74130633D01*
X157707768Y-74130635D01*
X157691093Y-74289292D01*
X157664080Y-74354949D01*
X157654878Y-74365218D01*
X157205499Y-74814596D01*
X157143187Y-74848621D01*
X157116404Y-74851500D01*
X154705200Y-74851500D01*
X154637079Y-74831498D01*
X154617853Y-74815157D01*
X154617580Y-74815460D01*
X154612668Y-74811037D01*
X154608253Y-74806134D01*
X154573985Y-74781237D01*
X154459094Y-74697763D01*
X154459093Y-74697762D01*
X154453752Y-74693882D01*
X154447724Y-74691198D01*
X154447722Y-74691197D01*
X154285319Y-74618891D01*
X154285318Y-74618891D01*
X154279288Y-74616206D01*
X154185888Y-74596353D01*
X154098944Y-74577872D01*
X154098939Y-74577872D01*
X154092487Y-74576500D01*
X153901513Y-74576500D01*
X153895061Y-74577872D01*
X153895056Y-74577872D01*
X153808112Y-74596353D01*
X153714712Y-74616206D01*
X153708682Y-74618891D01*
X153708681Y-74618891D01*
X153546278Y-74691197D01*
X153546276Y-74691198D01*
X153540248Y-74693882D01*
X153534907Y-74697762D01*
X153534906Y-74697763D01*
X153484843Y-74734136D01*
X153385747Y-74806134D01*
X153381326Y-74811044D01*
X153381325Y-74811045D01*
X153347492Y-74848621D01*
X153257960Y-74948056D01*
X153162473Y-75113444D01*
X153103458Y-75295072D01*
X153102768Y-75301633D01*
X153102768Y-75301635D01*
X153095499Y-75370794D01*
X153083496Y-75485000D01*
X153103458Y-75674928D01*
X153162473Y-75856556D01*
X153257960Y-76021944D01*
X153262378Y-76026851D01*
X153262379Y-76026852D01*
X153381325Y-76158955D01*
X153385747Y-76163866D01*
X153540248Y-76276118D01*
X153546276Y-76278802D01*
X153546278Y-76278803D01*
X153708681Y-76351109D01*
X153714712Y-76353794D01*
X153808113Y-76373647D01*
X153895056Y-76392128D01*
X153895061Y-76392128D01*
X153901513Y-76393500D01*
X154007326Y-76393500D01*
X154075447Y-76413502D01*
X154121940Y-76467158D01*
X154130696Y-76520829D01*
X154133186Y-76520829D01*
X154133186Y-76527435D01*
X154132496Y-76534000D01*
X154133186Y-76540565D01*
X154147824Y-76679834D01*
X154152458Y-76723928D01*
X154211473Y-76905556D01*
X154306960Y-77070944D01*
X154311378Y-77075851D01*
X154311379Y-77075852D01*
X154338589Y-77106072D01*
X154434747Y-77212866D01*
X154492643Y-77254930D01*
X154558207Y-77302565D01*
X154589248Y-77325118D01*
X154595276Y-77327802D01*
X154595278Y-77327803D01*
X154754925Y-77398882D01*
X154763712Y-77402794D01*
X154857113Y-77422647D01*
X154944056Y-77441128D01*
X154944061Y-77441128D01*
X154950513Y-77442500D01*
X155141487Y-77442500D01*
X155147939Y-77441128D01*
X155147944Y-77441128D01*
X155234887Y-77422647D01*
X155328288Y-77402794D01*
X155337075Y-77398882D01*
X155496722Y-77327803D01*
X155496724Y-77327802D01*
X155502752Y-77325118D01*
X155533794Y-77302565D01*
X155599357Y-77254930D01*
X155657253Y-77212866D01*
X155753411Y-77106072D01*
X155780621Y-77075852D01*
X155780622Y-77075851D01*
X155785040Y-77070944D01*
X155880527Y-76905556D01*
X155939542Y-76723928D01*
X155944177Y-76679834D01*
X155958814Y-76540565D01*
X155959504Y-76534000D01*
X155948280Y-76427206D01*
X155940232Y-76350635D01*
X155940232Y-76350633D01*
X155939542Y-76344072D01*
X155919840Y-76283436D01*
X155917812Y-76212469D01*
X155954475Y-76151671D01*
X156018187Y-76120345D01*
X156039673Y-76118500D01*
X157352233Y-76118500D01*
X157363416Y-76119027D01*
X157370909Y-76120702D01*
X157378835Y-76120453D01*
X157378836Y-76120453D01*
X157438986Y-76118562D01*
X157442945Y-76118500D01*
X157470856Y-76118500D01*
X157474791Y-76118003D01*
X157474856Y-76117995D01*
X157486693Y-76117062D01*
X157518951Y-76116048D01*
X157522970Y-76115922D01*
X157530889Y-76115673D01*
X157550343Y-76110021D01*
X157569700Y-76106013D01*
X157581930Y-76104468D01*
X157581931Y-76104468D01*
X157589797Y-76103474D01*
X157597168Y-76100555D01*
X157597170Y-76100555D01*
X157630912Y-76087196D01*
X157642142Y-76083351D01*
X157676983Y-76073229D01*
X157676984Y-76073229D01*
X157684593Y-76071018D01*
X157691412Y-76066985D01*
X157691417Y-76066983D01*
X157702028Y-76060707D01*
X157719776Y-76052012D01*
X157738617Y-76044552D01*
X157774387Y-76018564D01*
X157784307Y-76012048D01*
X157815535Y-75993580D01*
X157815538Y-75993578D01*
X157822362Y-75989542D01*
X157836683Y-75975221D01*
X157851717Y-75962380D01*
X157861694Y-75955131D01*
X157868107Y-75950472D01*
X157873157Y-75944368D01*
X157873162Y-75944363D01*
X157896293Y-75916402D01*
X157904283Y-75907621D01*
X158552501Y-75259404D01*
X158614813Y-75225379D01*
X158641596Y-75222500D01*
X158697487Y-75222500D01*
X158703939Y-75221128D01*
X158703944Y-75221128D01*
X158790887Y-75202647D01*
X158884288Y-75182794D01*
X158899649Y-75175955D01*
X159052722Y-75107803D01*
X159052724Y-75107802D01*
X159058752Y-75105118D01*
X159213253Y-74992866D01*
X159341040Y-74850944D01*
X159436527Y-74685556D01*
X159495542Y-74503928D01*
X159515504Y-74314000D01*
X159497269Y-74140500D01*
X159496232Y-74130635D01*
X159496232Y-74130633D01*
X159495542Y-74124072D01*
X159436527Y-73942444D01*
X159421924Y-73917150D01*
X159344341Y-73782774D01*
X159341040Y-73777056D01*
X159267863Y-73695785D01*
X159237147Y-73631779D01*
X159235500Y-73611476D01*
X159235500Y-65182767D01*
X159236027Y-65171584D01*
X159237702Y-65164091D01*
X159236984Y-65141234D01*
X159235562Y-65096014D01*
X159235500Y-65092055D01*
X159235500Y-65064144D01*
X159234995Y-65060144D01*
X159234062Y-65048301D01*
X159233877Y-65042393D01*
X159232673Y-65004110D01*
X159227022Y-64984658D01*
X159223014Y-64965306D01*
X159221467Y-64953063D01*
X159220474Y-64945203D01*
X159217556Y-64937832D01*
X159204200Y-64904097D01*
X159200355Y-64892870D01*
X159194891Y-64874063D01*
X159188018Y-64850407D01*
X159183984Y-64843585D01*
X159183981Y-64843579D01*
X159177706Y-64832968D01*
X159169010Y-64815218D01*
X159164472Y-64803756D01*
X159164469Y-64803751D01*
X159161552Y-64796383D01*
X159135573Y-64760625D01*
X159129057Y-64750707D01*
X159110575Y-64719457D01*
X159106542Y-64712637D01*
X159092218Y-64698313D01*
X159079376Y-64683278D01*
X159067472Y-64666893D01*
X159033406Y-64638711D01*
X159024627Y-64630722D01*
X154787652Y-60393747D01*
X154780112Y-60385461D01*
X154776000Y-60378982D01*
X154726348Y-60332356D01*
X154723507Y-60329602D01*
X154703770Y-60309865D01*
X154700573Y-60307385D01*
X154691551Y-60299680D01*
X154665100Y-60274841D01*
X154659321Y-60269414D01*
X154652375Y-60265595D01*
X154652372Y-60265593D01*
X154641566Y-60259652D01*
X154625047Y-60248801D01*
X154624583Y-60248441D01*
X154609041Y-60236386D01*
X154601772Y-60233241D01*
X154601768Y-60233238D01*
X154568463Y-60218826D01*
X154557813Y-60213609D01*
X154519060Y-60192305D01*
X154499437Y-60187267D01*
X154480734Y-60180863D01*
X154469420Y-60175967D01*
X154469419Y-60175967D01*
X154462145Y-60172819D01*
X154454322Y-60171580D01*
X154454312Y-60171577D01*
X154418476Y-60165901D01*
X154406856Y-60163495D01*
X154371711Y-60154472D01*
X154371710Y-60154472D01*
X154364030Y-60152500D01*
X154343776Y-60152500D01*
X154324065Y-60150949D01*
X154311886Y-60149020D01*
X154304057Y-60147780D01*
X154296165Y-60148526D01*
X154260039Y-60151941D01*
X154248181Y-60152500D01*
X150674200Y-60152500D01*
X150606079Y-60132498D01*
X150586853Y-60116157D01*
X150586580Y-60116460D01*
X150581668Y-60112037D01*
X150577253Y-60107134D01*
X150422752Y-59994882D01*
X150416724Y-59992198D01*
X150416722Y-59992197D01*
X150254319Y-59919891D01*
X150254318Y-59919891D01*
X150248288Y-59917206D01*
X150154887Y-59897353D01*
X150067944Y-59878872D01*
X150067939Y-59878872D01*
X150061487Y-59877500D01*
X150005595Y-59877500D01*
X149937474Y-59857498D01*
X149916500Y-59840595D01*
X149707652Y-59631747D01*
X149700112Y-59623461D01*
X149696000Y-59616982D01*
X149646348Y-59570356D01*
X149643507Y-59567602D01*
X149623770Y-59547865D01*
X149620573Y-59545385D01*
X149611551Y-59537680D01*
X149585100Y-59512841D01*
X149579321Y-59507414D01*
X149572375Y-59503595D01*
X149572372Y-59503593D01*
X149561566Y-59497652D01*
X149545047Y-59486801D01*
X149544583Y-59486441D01*
X149529041Y-59474386D01*
X149521772Y-59471241D01*
X149521768Y-59471238D01*
X149488463Y-59456826D01*
X149477813Y-59451609D01*
X149439060Y-59430305D01*
X149419437Y-59425267D01*
X149400734Y-59418863D01*
X149389420Y-59413967D01*
X149389419Y-59413967D01*
X149382145Y-59410819D01*
X149374322Y-59409580D01*
X149374312Y-59409577D01*
X149338476Y-59403901D01*
X149326856Y-59401495D01*
X149291711Y-59392472D01*
X149291710Y-59392472D01*
X149284030Y-59390500D01*
X149263776Y-59390500D01*
X149244065Y-59388949D01*
X149239766Y-59388268D01*
X149224057Y-59385780D01*
X149198351Y-59388210D01*
X149180039Y-59389941D01*
X149168181Y-59390500D01*
X148513793Y-59390500D01*
X148490184Y-59388268D01*
X148489881Y-59388210D01*
X148489877Y-59388210D01*
X148482094Y-59386725D01*
X148426049Y-59390251D01*
X148418138Y-59390500D01*
X134331337Y-59390500D01*
X134263216Y-59370498D01*
X134216723Y-59316842D01*
X134206959Y-59284654D01*
X134206752Y-59283375D01*
X134206391Y-59280020D01*
X134195005Y-59227678D01*
X134160707Y-59124628D01*
X134082535Y-59002990D01*
X134036042Y-58949334D01*
X134017213Y-58933018D01*
X134009214Y-58926087D01*
X133926766Y-58854645D01*
X133795240Y-58794579D01*
X133771486Y-58787604D01*
X133731442Y-58775846D01*
X133731438Y-58775845D01*
X133727119Y-58774577D01*
X133722671Y-58773937D01*
X133722664Y-58773936D01*
X133588448Y-58754639D01*
X133588441Y-58754638D01*
X133584000Y-58754000D01*
X130280000Y-58754000D01*
X130172020Y-58765609D01*
X130168736Y-58766323D01*
X130168732Y-58766324D01*
X130143661Y-58771778D01*
X130119678Y-58776995D01*
X130016628Y-58811293D01*
X129894990Y-58889465D01*
X129841334Y-58935958D01*
X129838393Y-58939352D01*
X129826803Y-58952727D01*
X129746645Y-59045234D01*
X129686579Y-59176760D01*
X129666577Y-59244881D01*
X129665937Y-59249329D01*
X129665936Y-59249336D01*
X129646639Y-59383552D01*
X129646638Y-59383559D01*
X129646000Y-59388000D01*
X129646000Y-60914000D01*
X129646360Y-60917348D01*
X129646360Y-60917349D01*
X129649067Y-60942530D01*
X129657609Y-61021980D01*
X129668995Y-61074322D01*
X129703293Y-61177372D01*
X129781465Y-61299010D01*
X129827958Y-61352666D01*
X129831352Y-61355607D01*
X129854786Y-61375913D01*
X129937234Y-61447355D01*
X130068760Y-61507421D01*
X130092514Y-61514396D01*
X130132558Y-61526154D01*
X130132562Y-61526155D01*
X130136881Y-61527423D01*
X130141329Y-61528063D01*
X130141336Y-61528064D01*
X130275552Y-61547361D01*
X130275559Y-61547362D01*
X130280000Y-61548000D01*
X131047500Y-61548000D01*
X131115621Y-61568002D01*
X131162114Y-61621658D01*
X131173500Y-61674000D01*
X131173500Y-65837001D01*
X131156618Y-65900002D01*
X131151118Y-65909528D01*
X131099735Y-65958521D01*
X131030021Y-65971956D01*
X130964111Y-65945569D01*
X130922929Y-65887736D01*
X130916000Y-65846527D01*
X130916000Y-65484000D01*
X130914417Y-65469271D01*
X130904751Y-65379370D01*
X130904391Y-65376020D01*
X130893005Y-65323678D01*
X130858707Y-65220628D01*
X130780535Y-65098990D01*
X130734042Y-65045334D01*
X130715213Y-65029018D01*
X130674554Y-64993787D01*
X130624766Y-64950645D01*
X130596710Y-64937832D01*
X130539171Y-64911555D01*
X130493240Y-64890579D01*
X130469486Y-64883604D01*
X130429442Y-64871846D01*
X130429438Y-64871845D01*
X130425119Y-64870577D01*
X130420671Y-64869937D01*
X130420664Y-64869936D01*
X130286448Y-64850639D01*
X130286441Y-64850638D01*
X130282000Y-64850000D01*
X124946000Y-64850000D01*
X124838020Y-64861609D01*
X124834736Y-64862323D01*
X124834732Y-64862324D01*
X124809661Y-64867778D01*
X124785678Y-64872995D01*
X124736656Y-64889311D01*
X124692231Y-64904097D01*
X124682628Y-64907293D01*
X124560990Y-64985465D01*
X124557595Y-64988407D01*
X124557592Y-64988409D01*
X124548255Y-64996500D01*
X124507334Y-65031958D01*
X124504393Y-65035352D01*
X124493173Y-65048301D01*
X124412645Y-65141234D01*
X124408901Y-65149431D01*
X124408901Y-65149432D01*
X124399094Y-65170907D01*
X124352579Y-65272760D01*
X124332577Y-65340881D01*
X124331937Y-65345329D01*
X124331936Y-65345336D01*
X124312639Y-65479552D01*
X124312638Y-65479559D01*
X124312000Y-65484000D01*
X124312000Y-67772000D01*
X124323609Y-67879980D01*
X124334995Y-67932322D01*
X124369293Y-68035372D01*
X124447465Y-68157010D01*
X124450407Y-68160405D01*
X124450409Y-68160408D01*
X124470683Y-68183805D01*
X124493958Y-68210666D01*
X124497352Y-68213607D01*
X124516003Y-68229768D01*
X124603234Y-68305355D01*
X124611431Y-68309099D01*
X124611432Y-68309099D01*
X124622157Y-68313997D01*
X124734760Y-68365421D01*
X124758514Y-68372396D01*
X124798558Y-68384154D01*
X124798562Y-68384155D01*
X124802881Y-68385423D01*
X124807329Y-68386063D01*
X124807336Y-68386064D01*
X124941552Y-68405361D01*
X124941559Y-68405362D01*
X124946000Y-68406000D01*
X126221500Y-68406000D01*
X126289621Y-68426002D01*
X126336114Y-68479658D01*
X126347500Y-68532000D01*
X126347500Y-82816930D01*
X126346067Y-82835880D01*
X126342801Y-82857349D01*
X126343394Y-82864641D01*
X126343394Y-82864644D01*
X126347085Y-82910018D01*
X126347500Y-82920233D01*
X126347500Y-82928293D01*
X126347925Y-82931937D01*
X126350789Y-82956507D01*
X126351222Y-82960882D01*
X126354676Y-83003339D01*
X126357140Y-83033637D01*
X126359396Y-83040601D01*
X126360587Y-83046560D01*
X126361971Y-83052415D01*
X126362818Y-83059681D01*
X126387735Y-83128327D01*
X126389152Y-83132455D01*
X126390817Y-83137593D01*
X126411649Y-83201899D01*
X126415445Y-83208154D01*
X126417951Y-83213628D01*
X126420670Y-83219058D01*
X126423167Y-83225937D01*
X126427180Y-83232057D01*
X126427180Y-83232058D01*
X126463186Y-83286976D01*
X126465523Y-83290680D01*
X126503405Y-83353107D01*
X126507121Y-83357315D01*
X126507122Y-83357316D01*
X126510803Y-83361484D01*
X126510776Y-83361508D01*
X126513429Y-83364500D01*
X126516132Y-83367733D01*
X126520144Y-83373852D01*
X126555347Y-83407200D01*
X126576383Y-83427128D01*
X126578825Y-83429506D01*
X128554230Y-85404911D01*
X128566616Y-85419323D01*
X128575149Y-85430918D01*
X128575154Y-85430923D01*
X128579492Y-85436818D01*
X128585070Y-85441557D01*
X128585073Y-85441560D01*
X128619768Y-85471035D01*
X128627284Y-85477965D01*
X128632979Y-85483660D01*
X128635861Y-85485940D01*
X128655251Y-85501281D01*
X128658655Y-85504072D01*
X128700612Y-85539717D01*
X128714285Y-85551333D01*
X128720801Y-85554661D01*
X128725850Y-85558028D01*
X128730979Y-85561195D01*
X128736716Y-85565734D01*
X128802875Y-85596655D01*
X128806769Y-85598558D01*
X128871808Y-85631769D01*
X128878916Y-85633508D01*
X128884559Y-85635607D01*
X128890322Y-85637524D01*
X128896950Y-85640622D01*
X128904112Y-85642112D01*
X128904113Y-85642112D01*
X128968412Y-85655486D01*
X128972696Y-85656456D01*
X129043610Y-85673808D01*
X129049212Y-85674156D01*
X129049215Y-85674156D01*
X129054764Y-85674500D01*
X129054762Y-85674536D01*
X129058755Y-85674775D01*
X129062947Y-85675149D01*
X129070115Y-85676640D01*
X129147520Y-85674546D01*
X129150928Y-85674500D01*
X145593753Y-85674500D01*
X145661874Y-85694502D01*
X145708367Y-85748158D01*
X145718471Y-85818432D01*
X145687390Y-85884808D01*
X145670960Y-85903056D01*
X145575473Y-86068444D01*
X145516458Y-86250072D01*
X145496496Y-86440000D01*
X145497186Y-86446565D01*
X145512882Y-86595900D01*
X145516458Y-86629928D01*
X145575473Y-86811556D01*
X145670960Y-86976944D01*
X145798747Y-87118866D01*
X145953248Y-87231118D01*
X145959276Y-87233802D01*
X145959278Y-87233803D01*
X146121681Y-87306109D01*
X146127712Y-87308794D01*
X146221112Y-87328647D01*
X146308056Y-87347128D01*
X146308061Y-87347128D01*
X146314513Y-87348500D01*
X146505487Y-87348500D01*
X146511939Y-87347128D01*
X146511944Y-87347128D01*
X146598888Y-87328647D01*
X146692288Y-87308794D01*
X146698319Y-87306109D01*
X146860722Y-87233803D01*
X146860724Y-87233802D01*
X146866752Y-87231118D01*
X147021253Y-87118866D01*
X147149040Y-86976944D01*
X147244527Y-86811556D01*
X147303542Y-86629928D01*
X147307119Y-86595900D01*
X147322814Y-86446565D01*
X147323504Y-86440000D01*
X147303542Y-86250072D01*
X147244527Y-86068444D01*
X147149040Y-85903056D01*
X147132610Y-85884808D01*
X147101894Y-85820804D01*
X147110657Y-85750350D01*
X147156120Y-85695819D01*
X147226247Y-85674500D01*
X155613082Y-85674500D01*
X155681203Y-85694502D01*
X155727696Y-85748158D01*
X155738004Y-85784053D01*
X155747519Y-85856324D01*
X155806314Y-85998267D01*
X155899843Y-86120157D01*
X155906389Y-86125180D01*
X155923902Y-86138618D01*
X155936293Y-86149486D01*
X157288519Y-87501712D01*
X157299388Y-87514105D01*
X157312815Y-87531605D01*
X157312818Y-87531608D01*
X157317843Y-87538157D01*
X157348443Y-87561637D01*
X157348446Y-87561640D01*
X157439733Y-87631686D01*
X157581676Y-87690481D01*
X157734000Y-87710535D01*
X157742188Y-87709457D01*
X157764056Y-87706578D01*
X157780503Y-87705500D01*
X163048000Y-87705500D01*
X163116121Y-87725502D01*
X163162614Y-87779158D01*
X163174000Y-87831500D01*
X163174000Y-87964000D01*
X165588000Y-87964000D01*
X165656121Y-87984002D01*
X165702614Y-88037658D01*
X165714000Y-88090000D01*
X165714000Y-89551154D01*
X165693998Y-89619275D01*
X165640342Y-89665768D01*
X165588205Y-89677154D01*
X158873550Y-89688102D01*
X141594889Y-89716274D01*
X141526737Y-89696383D01*
X141480157Y-89642803D01*
X141476191Y-89633114D01*
X141469120Y-89613556D01*
X140461353Y-86826114D01*
X140458368Y-86816721D01*
X140447898Y-86778683D01*
X140445516Y-86770029D01*
X140440803Y-86762395D01*
X140440801Y-86762390D01*
X140417950Y-86725375D01*
X140413942Y-86718393D01*
X140393495Y-86679981D01*
X140393490Y-86679974D01*
X140389274Y-86672054D01*
X140383003Y-86665634D01*
X140378580Y-86659586D01*
X140373790Y-86653845D01*
X140369076Y-86646209D01*
X140330077Y-86611081D01*
X140324269Y-86605503D01*
X140314889Y-86595900D01*
X140287596Y-86567958D01*
X140279771Y-86563554D01*
X140273835Y-86558995D01*
X140267626Y-86554829D01*
X140260956Y-86548821D01*
X140252868Y-86544927D01*
X140252864Y-86544924D01*
X140213660Y-86526047D01*
X140206520Y-86522324D01*
X140168615Y-86500989D01*
X140168612Y-86500988D01*
X140160788Y-86496584D01*
X140152038Y-86494552D01*
X140145052Y-86491840D01*
X140137935Y-86489588D01*
X140129847Y-86485693D01*
X140078072Y-86477112D01*
X140070178Y-86475543D01*
X140027789Y-86465700D01*
X140027786Y-86465700D01*
X140019045Y-86463670D01*
X140010085Y-86464175D01*
X140010084Y-86464175D01*
X139966719Y-86466619D01*
X139958396Y-86466813D01*
X127219398Y-86342165D01*
X127214045Y-86341999D01*
X127162865Y-86339320D01*
X127162863Y-86339320D01*
X127153900Y-86338851D01*
X127145165Y-86340917D01*
X127145160Y-86340917D01*
X127113888Y-86348312D01*
X127101555Y-86350587D01*
X127060782Y-86356019D01*
X127047958Y-86361699D01*
X127025941Y-86369107D01*
X127012290Y-86372335D01*
X127004490Y-86376767D01*
X127004489Y-86376767D01*
X126976539Y-86392647D01*
X126965323Y-86398299D01*
X126935944Y-86411311D01*
X126935941Y-86411313D01*
X126927734Y-86414948D01*
X126920874Y-86420743D01*
X126917028Y-86423992D01*
X126897959Y-86437293D01*
X126885771Y-86444218D01*
X126879528Y-86450661D01*
X126857164Y-86473742D01*
X126847983Y-86482317D01*
X126823429Y-86503059D01*
X126823427Y-86503061D01*
X126816573Y-86508851D01*
X126811622Y-86516329D01*
X126811616Y-86516335D01*
X126808830Y-86520543D01*
X126794266Y-86538654D01*
X126790760Y-86542272D01*
X126790758Y-86542275D01*
X126784511Y-86548722D01*
X126765337Y-86585095D01*
X126758933Y-86595900D01*
X126741194Y-86622690D01*
X126741192Y-86622695D01*
X126736236Y-86630179D01*
X126726922Y-86660250D01*
X126717168Y-86691739D01*
X126715993Y-86695342D01*
X125715623Y-89609463D01*
X125674586Y-89667399D01*
X125608742Y-89693952D01*
X125597161Y-89694551D01*
X117631512Y-89739554D01*
X117563279Y-89719937D01*
X117516484Y-89666545D01*
X117504800Y-89613556D01*
X117504800Y-80190315D01*
X117524802Y-80122194D01*
X117578458Y-80075701D01*
X117648732Y-80065597D01*
X117697756Y-80083578D01*
X117806354Y-80151702D01*
X117816324Y-80156782D01*
X118005982Y-80233024D01*
X118016682Y-80236255D01*
X118217821Y-80277908D01*
X118226957Y-80279111D01*
X118275240Y-80281895D01*
X118278887Y-80282000D01*
X118539635Y-80282000D01*
X118554874Y-80277525D01*
X118556079Y-80276135D01*
X118557750Y-80268452D01*
X118557750Y-80263885D01*
X119065750Y-80263885D01*
X119070225Y-80279124D01*
X119071615Y-80280329D01*
X119079298Y-80282000D01*
X119313661Y-80282000D01*
X119319256Y-80281751D01*
X119470938Y-80268213D01*
X119481952Y-80266232D01*
X119679116Y-80212293D01*
X119689589Y-80208399D01*
X119874091Y-80120396D01*
X119883720Y-80114701D01*
X120049713Y-79995423D01*
X120058178Y-79988116D01*
X120200434Y-79841320D01*
X120207464Y-79832638D01*
X120321475Y-79662972D01*
X120326863Y-79653171D01*
X120336003Y-79632349D01*
X120381700Y-79578014D01*
X120449518Y-79557010D01*
X120517927Y-79576005D01*
X120563342Y-79625206D01*
X120611707Y-79718912D01*
X120617692Y-79728343D01*
X120742135Y-79890520D01*
X120749702Y-79898749D01*
X120900889Y-80036319D01*
X120909800Y-80043082D01*
X121082954Y-80151701D01*
X121092924Y-80156782D01*
X121282582Y-80233024D01*
X121293282Y-80236255D01*
X121494421Y-80277908D01*
X121503557Y-80279111D01*
X121551840Y-80281895D01*
X121555487Y-80282000D01*
X121816235Y-80282000D01*
X121831474Y-80277525D01*
X121832679Y-80276135D01*
X121834350Y-80268452D01*
X121834350Y-80263885D01*
X122342350Y-80263885D01*
X122346825Y-80279124D01*
X122348215Y-80280329D01*
X122355898Y-80282000D01*
X122590261Y-80282000D01*
X122595856Y-80281751D01*
X122747538Y-80268213D01*
X122758552Y-80266232D01*
X122955716Y-80212293D01*
X122966189Y-80208399D01*
X123150691Y-80120396D01*
X123160320Y-80114701D01*
X123326313Y-79995423D01*
X123334778Y-79988116D01*
X123477034Y-79841320D01*
X123484064Y-79832638D01*
X123598075Y-79662972D01*
X123603467Y-79653163D01*
X123685625Y-79466001D01*
X123689191Y-79455406D01*
X123715550Y-79345615D01*
X123714845Y-79331530D01*
X123705966Y-79328000D01*
X122360465Y-79328000D01*
X122345226Y-79332475D01*
X122344021Y-79333865D01*
X122342350Y-79341548D01*
X122342350Y-80263885D01*
X121834350Y-80263885D01*
X121834350Y-79346115D01*
X121829875Y-79330876D01*
X121828485Y-79329671D01*
X121820802Y-79328000D01*
X120452533Y-79328000D01*
X120452533Y-79327383D01*
X120445413Y-79328239D01*
X120440265Y-79328000D01*
X119083865Y-79328000D01*
X119068626Y-79332475D01*
X119067421Y-79333865D01*
X119065750Y-79341548D01*
X119065750Y-80263885D01*
X118557750Y-80263885D01*
X118557750Y-78946000D01*
X118577752Y-78877879D01*
X118631408Y-78831386D01*
X118683750Y-78820000D01*
X120447567Y-78820000D01*
X120447567Y-78820617D01*
X120454687Y-78819761D01*
X120459835Y-78820000D01*
X123706052Y-78820000D01*
X123719583Y-78816027D01*
X123720654Y-78808579D01*
X123662972Y-78621085D01*
X123658751Y-78610740D01*
X123564993Y-78429088D01*
X123559008Y-78419657D01*
X123434565Y-78257480D01*
X123426998Y-78249251D01*
X123275811Y-78111681D01*
X123266900Y-78104918D01*
X123093746Y-77996299D01*
X123083776Y-77991218D01*
X122894118Y-77914976D01*
X122878045Y-77910123D01*
X122878793Y-77907646D01*
X122825778Y-77879365D01*
X122791147Y-77817388D01*
X122788000Y-77789405D01*
X122788000Y-77296000D01*
X124160496Y-77296000D01*
X124161186Y-77302565D01*
X124175894Y-77442500D01*
X124180458Y-77485928D01*
X124239473Y-77667556D01*
X124242776Y-77673278D01*
X124242777Y-77673279D01*
X124273685Y-77726812D01*
X124334960Y-77832944D01*
X124339378Y-77837851D01*
X124339379Y-77837852D01*
X124421569Y-77929133D01*
X124462747Y-77974866D01*
X124617248Y-78087118D01*
X124623276Y-78089802D01*
X124623278Y-78089803D01*
X124728764Y-78136768D01*
X124791712Y-78164794D01*
X124885112Y-78184647D01*
X124972056Y-78203128D01*
X124972061Y-78203128D01*
X124978513Y-78204500D01*
X125169487Y-78204500D01*
X125175939Y-78203128D01*
X125175944Y-78203128D01*
X125262888Y-78184647D01*
X125356288Y-78164794D01*
X125419236Y-78136768D01*
X125524722Y-78089803D01*
X125524724Y-78089802D01*
X125530752Y-78087118D01*
X125685253Y-77974866D01*
X125726431Y-77929133D01*
X125808621Y-77837852D01*
X125808622Y-77837851D01*
X125813040Y-77832944D01*
X125874315Y-77726812D01*
X125905223Y-77673279D01*
X125905224Y-77673278D01*
X125908527Y-77667556D01*
X125967542Y-77485928D01*
X125972107Y-77442500D01*
X125986814Y-77302565D01*
X125987504Y-77296000D01*
X125983187Y-77254930D01*
X125968232Y-77112635D01*
X125968232Y-77112633D01*
X125967542Y-77106072D01*
X125908527Y-76924444D01*
X125813040Y-76759056D01*
X125787064Y-76730206D01*
X125689675Y-76622045D01*
X125689674Y-76622044D01*
X125685253Y-76617134D01*
X125570829Y-76534000D01*
X125536094Y-76508763D01*
X125536093Y-76508762D01*
X125530752Y-76504882D01*
X125524724Y-76502198D01*
X125524722Y-76502197D01*
X125362319Y-76429891D01*
X125362318Y-76429891D01*
X125356288Y-76427206D01*
X125262887Y-76407353D01*
X125175944Y-76388872D01*
X125175939Y-76388872D01*
X125169487Y-76387500D01*
X124978513Y-76387500D01*
X124972061Y-76388872D01*
X124972056Y-76388872D01*
X124885113Y-76407353D01*
X124791712Y-76427206D01*
X124785682Y-76429891D01*
X124785681Y-76429891D01*
X124623278Y-76502197D01*
X124623276Y-76502198D01*
X124617248Y-76504882D01*
X124611907Y-76508762D01*
X124611906Y-76508763D01*
X124577171Y-76534000D01*
X124462747Y-76617134D01*
X124458326Y-76622044D01*
X124458325Y-76622045D01*
X124360937Y-76730206D01*
X124334960Y-76759056D01*
X124239473Y-76924444D01*
X124180458Y-77106072D01*
X124179768Y-77112633D01*
X124179768Y-77112635D01*
X124164813Y-77254930D01*
X124160496Y-77296000D01*
X122788000Y-77296000D01*
X122788000Y-74502000D01*
X123906496Y-74502000D01*
X123907186Y-74508565D01*
X123924863Y-74676749D01*
X123926458Y-74691928D01*
X123985473Y-74873556D01*
X124080960Y-75038944D01*
X124208747Y-75180866D01*
X124264163Y-75221128D01*
X124357297Y-75288794D01*
X124363248Y-75293118D01*
X124369276Y-75295802D01*
X124369278Y-75295803D01*
X124531681Y-75368109D01*
X124537712Y-75370794D01*
X124631113Y-75390647D01*
X124718056Y-75409128D01*
X124718061Y-75409128D01*
X124724513Y-75410500D01*
X124915487Y-75410500D01*
X124921939Y-75409128D01*
X124921944Y-75409128D01*
X125008887Y-75390647D01*
X125102288Y-75370794D01*
X125108319Y-75368109D01*
X125270722Y-75295803D01*
X125270724Y-75295802D01*
X125276752Y-75293118D01*
X125282704Y-75288794D01*
X125375837Y-75221128D01*
X125431253Y-75180866D01*
X125559040Y-75038944D01*
X125654527Y-74873556D01*
X125713542Y-74691928D01*
X125715138Y-74676749D01*
X125732814Y-74508565D01*
X125733504Y-74502000D01*
X125713542Y-74312072D01*
X125654527Y-74130444D01*
X125559040Y-73965056D01*
X125546662Y-73951309D01*
X125515946Y-73887303D01*
X125524710Y-73816850D01*
X125546661Y-73782693D01*
X125559040Y-73768944D01*
X125623748Y-73656866D01*
X125651223Y-73609279D01*
X125651224Y-73609278D01*
X125654527Y-73603556D01*
X125713542Y-73421928D01*
X125733504Y-73232000D01*
X125713542Y-73042072D01*
X125654527Y-72860444D01*
X125559040Y-72695056D01*
X125544798Y-72679238D01*
X125435675Y-72558045D01*
X125435674Y-72558044D01*
X125431253Y-72553134D01*
X125290907Y-72451166D01*
X125282094Y-72444763D01*
X125282093Y-72444762D01*
X125276752Y-72440882D01*
X125270724Y-72438198D01*
X125270722Y-72438197D01*
X125108319Y-72365891D01*
X125108318Y-72365891D01*
X125102288Y-72363206D01*
X125008887Y-72343353D01*
X124921944Y-72324872D01*
X124921939Y-72324872D01*
X124915487Y-72323500D01*
X124724513Y-72323500D01*
X124718061Y-72324872D01*
X124718056Y-72324872D01*
X124631113Y-72343353D01*
X124537712Y-72363206D01*
X124531682Y-72365891D01*
X124531681Y-72365891D01*
X124369278Y-72438197D01*
X124369276Y-72438198D01*
X124363248Y-72440882D01*
X124357907Y-72444762D01*
X124357906Y-72444763D01*
X124349093Y-72451166D01*
X124208747Y-72553134D01*
X124204326Y-72558044D01*
X124204325Y-72558045D01*
X124095203Y-72679238D01*
X124080960Y-72695056D01*
X123985473Y-72860444D01*
X123926458Y-73042072D01*
X123906496Y-73232000D01*
X123926458Y-73421928D01*
X123985473Y-73603556D01*
X123988776Y-73609278D01*
X123988777Y-73609279D01*
X124016252Y-73656866D01*
X124080960Y-73768944D01*
X124093338Y-73782691D01*
X124124054Y-73846697D01*
X124115290Y-73917150D01*
X124093339Y-73951307D01*
X124080960Y-73965056D01*
X123985473Y-74130444D01*
X123926458Y-74312072D01*
X123906496Y-74502000D01*
X122788000Y-74502000D01*
X122788000Y-70702335D01*
X122808002Y-70634214D01*
X122861658Y-70587721D01*
X122880752Y-70580801D01*
X122955716Y-70560293D01*
X122966189Y-70556399D01*
X123150691Y-70468396D01*
X123160320Y-70462701D01*
X123326313Y-70343423D01*
X123334778Y-70336116D01*
X123477034Y-70189320D01*
X123484064Y-70180638D01*
X123598075Y-70010972D01*
X123603467Y-70001163D01*
X123685625Y-69814001D01*
X123689191Y-69803406D01*
X123715550Y-69693615D01*
X123714845Y-69679530D01*
X123705966Y-69676000D01*
X120452533Y-69676000D01*
X120452533Y-69675383D01*
X120445413Y-69676239D01*
X120440265Y-69676000D01*
X118683750Y-69676000D01*
X118615629Y-69655998D01*
X118569136Y-69602342D01*
X118557750Y-69550000D01*
X118557750Y-69149885D01*
X119065750Y-69149885D01*
X119070225Y-69165124D01*
X119071615Y-69166329D01*
X119079298Y-69168000D01*
X120447567Y-69168000D01*
X120447567Y-69168617D01*
X120454687Y-69167761D01*
X120459835Y-69168000D01*
X121816235Y-69168000D01*
X121831474Y-69163525D01*
X121832679Y-69162135D01*
X121834350Y-69154452D01*
X121834350Y-69149885D01*
X122342350Y-69149885D01*
X122346825Y-69165124D01*
X122348215Y-69166329D01*
X122355898Y-69168000D01*
X123706052Y-69168000D01*
X123719583Y-69164027D01*
X123720654Y-69156579D01*
X123662972Y-68969085D01*
X123658751Y-68958740D01*
X123564993Y-68777088D01*
X123559008Y-68767657D01*
X123434565Y-68605480D01*
X123426998Y-68597251D01*
X123275811Y-68459681D01*
X123266900Y-68452918D01*
X123093746Y-68344299D01*
X123083776Y-68339218D01*
X122894118Y-68262976D01*
X122883418Y-68259745D01*
X122682279Y-68218092D01*
X122673143Y-68216889D01*
X122624860Y-68214105D01*
X122621213Y-68214000D01*
X122360465Y-68214000D01*
X122345226Y-68218475D01*
X122344021Y-68219865D01*
X122342350Y-68227548D01*
X122342350Y-69149885D01*
X121834350Y-69149885D01*
X121834350Y-68232115D01*
X121829875Y-68216876D01*
X121828485Y-68215671D01*
X121820802Y-68214000D01*
X121586439Y-68214000D01*
X121580844Y-68214249D01*
X121429162Y-68227787D01*
X121418148Y-68229768D01*
X121220984Y-68283707D01*
X121210511Y-68287601D01*
X121026009Y-68375604D01*
X121016380Y-68381299D01*
X120850387Y-68500577D01*
X120841922Y-68507884D01*
X120699666Y-68654680D01*
X120692636Y-68663362D01*
X120578625Y-68833028D01*
X120573237Y-68842829D01*
X120564097Y-68863651D01*
X120518400Y-68917986D01*
X120450582Y-68938990D01*
X120382173Y-68919995D01*
X120336758Y-68870794D01*
X120288393Y-68777088D01*
X120282408Y-68767657D01*
X120157965Y-68605480D01*
X120150398Y-68597251D01*
X119999211Y-68459681D01*
X119990300Y-68452918D01*
X119817146Y-68344299D01*
X119807176Y-68339218D01*
X119617518Y-68262976D01*
X119606818Y-68259745D01*
X119405679Y-68218092D01*
X119396543Y-68216889D01*
X119348260Y-68214105D01*
X119344613Y-68214000D01*
X119083865Y-68214000D01*
X119068626Y-68218475D01*
X119067421Y-68219865D01*
X119065750Y-68227548D01*
X119065750Y-69149885D01*
X118557750Y-69149885D01*
X118557750Y-68232115D01*
X118553275Y-68216876D01*
X118551885Y-68215671D01*
X118544202Y-68214000D01*
X118309839Y-68214000D01*
X118304244Y-68214249D01*
X118152562Y-68227787D01*
X118141548Y-68229768D01*
X117944384Y-68283707D01*
X117933911Y-68287601D01*
X117749409Y-68375604D01*
X117739780Y-68381299D01*
X117653526Y-68443279D01*
X117586535Y-68466787D01*
X117517468Y-68450345D01*
X117468255Y-68399173D01*
X117454000Y-68340957D01*
X117454000Y-58184000D01*
X117474002Y-58115879D01*
X117527658Y-58069386D01*
X117580000Y-58058000D01*
X170414000Y-58058000D01*
X170482121Y-58078002D01*
G37*
%TD.AperFunction*%
%TA.AperFunction,Conductor*%
G36*
X130631719Y-68397599D02*
G01*
X130663498Y-68461086D01*
X130665500Y-68483457D01*
X130665500Y-79553001D01*
X130648619Y-79616000D01*
X130589473Y-79718444D01*
X130530458Y-79900072D01*
X130529768Y-79906633D01*
X130529768Y-79906635D01*
X130511186Y-80083435D01*
X130510496Y-80090000D01*
X130511186Y-80096565D01*
X130529252Y-80268452D01*
X130530458Y-80279928D01*
X130530741Y-80280800D01*
X130531455Y-80308134D01*
X130533270Y-80308191D01*
X130533021Y-80316110D01*
X130531780Y-80323943D01*
X130532526Y-80331835D01*
X130532526Y-80331837D01*
X130535369Y-80361915D01*
X130535872Y-80367226D01*
X130535941Y-80367961D01*
X130536500Y-80379819D01*
X130536500Y-82805233D01*
X130535973Y-82816416D01*
X130534298Y-82823909D01*
X130534547Y-82831835D01*
X130534547Y-82831836D01*
X130536438Y-82891986D01*
X130536500Y-82895945D01*
X130536500Y-82923856D01*
X130536997Y-82927790D01*
X130536997Y-82927791D01*
X130537005Y-82927856D01*
X130537938Y-82939693D01*
X130539327Y-82983889D01*
X130544978Y-83003339D01*
X130548987Y-83022700D01*
X130551526Y-83042797D01*
X130554445Y-83050168D01*
X130554445Y-83050170D01*
X130567804Y-83083912D01*
X130571649Y-83095142D01*
X130583982Y-83137593D01*
X130588015Y-83144412D01*
X130588017Y-83144417D01*
X130594293Y-83155028D01*
X130602988Y-83172776D01*
X130610448Y-83191617D01*
X130615110Y-83198033D01*
X130615110Y-83198034D01*
X130636436Y-83227387D01*
X130642952Y-83237307D01*
X130665458Y-83275362D01*
X130679779Y-83289683D01*
X130692619Y-83304716D01*
X130704528Y-83321107D01*
X130737411Y-83348310D01*
X130738605Y-83349298D01*
X130747384Y-83357288D01*
X131174343Y-83784247D01*
X131181887Y-83792537D01*
X131186000Y-83799018D01*
X131191777Y-83804443D01*
X131235667Y-83845658D01*
X131238509Y-83848413D01*
X131258230Y-83868134D01*
X131261425Y-83870612D01*
X131270447Y-83878318D01*
X131302679Y-83908586D01*
X131309628Y-83912406D01*
X131320432Y-83918346D01*
X131336948Y-83929194D01*
X131340481Y-83931934D01*
X131382052Y-83989487D01*
X131385909Y-84060379D01*
X131350826Y-84122102D01*
X131287943Y-84155059D01*
X131263263Y-84157500D01*
X129504371Y-84157500D01*
X129436250Y-84137498D01*
X129415276Y-84120595D01*
X127901405Y-82606724D01*
X127867379Y-82544412D01*
X127864500Y-82517629D01*
X127864500Y-71962000D01*
X128478496Y-71962000D01*
X128479186Y-71968565D01*
X128493894Y-72108500D01*
X128498458Y-72151928D01*
X128557473Y-72333556D01*
X128560776Y-72339278D01*
X128560777Y-72339279D01*
X128582470Y-72376852D01*
X128652960Y-72498944D01*
X128657378Y-72503851D01*
X128657379Y-72503852D01*
X128760896Y-72618819D01*
X128780747Y-72640866D01*
X128863664Y-72701109D01*
X128925011Y-72745680D01*
X128935248Y-72753118D01*
X128941276Y-72755802D01*
X128941278Y-72755803D01*
X129013756Y-72788072D01*
X129109712Y-72830794D01*
X129203112Y-72850647D01*
X129290056Y-72869128D01*
X129290061Y-72869128D01*
X129296513Y-72870500D01*
X129487487Y-72870500D01*
X129493939Y-72869128D01*
X129493944Y-72869128D01*
X129580888Y-72850647D01*
X129674288Y-72830794D01*
X129770244Y-72788072D01*
X129842722Y-72755803D01*
X129842724Y-72755802D01*
X129848752Y-72753118D01*
X129858990Y-72745680D01*
X129920336Y-72701109D01*
X130003253Y-72640866D01*
X130023104Y-72618819D01*
X130126621Y-72503852D01*
X130126622Y-72503851D01*
X130131040Y-72498944D01*
X130201530Y-72376852D01*
X130223223Y-72339279D01*
X130223224Y-72339278D01*
X130226527Y-72333556D01*
X130285542Y-72151928D01*
X130290107Y-72108500D01*
X130304814Y-71968565D01*
X130305504Y-71962000D01*
X130303380Y-71941794D01*
X130286232Y-71778635D01*
X130286232Y-71778633D01*
X130285542Y-71772072D01*
X130226527Y-71590444D01*
X130221075Y-71581000D01*
X130189314Y-71525990D01*
X130131040Y-71425056D01*
X130118662Y-71411309D01*
X130087946Y-71347303D01*
X130096710Y-71276850D01*
X130118661Y-71242693D01*
X130131040Y-71228944D01*
X130198584Y-71111955D01*
X130223223Y-71069279D01*
X130223224Y-71069278D01*
X130226527Y-71063556D01*
X130285542Y-70881928D01*
X130303455Y-70711500D01*
X130304814Y-70698565D01*
X130305504Y-70692000D01*
X130303599Y-70673872D01*
X130286232Y-70508635D01*
X130286232Y-70508633D01*
X130285542Y-70502072D01*
X130226527Y-70320444D01*
X130131040Y-70155056D01*
X130051254Y-70066444D01*
X130007675Y-70018045D01*
X130007674Y-70018044D01*
X130003253Y-70013134D01*
X129848752Y-69900882D01*
X129842724Y-69898198D01*
X129842722Y-69898197D01*
X129680319Y-69825891D01*
X129680318Y-69825891D01*
X129674288Y-69823206D01*
X129579227Y-69803000D01*
X129493944Y-69784872D01*
X129493939Y-69784872D01*
X129487487Y-69783500D01*
X129296513Y-69783500D01*
X129290061Y-69784872D01*
X129290056Y-69784872D01*
X129204773Y-69803000D01*
X129109712Y-69823206D01*
X129103682Y-69825891D01*
X129103681Y-69825891D01*
X128941278Y-69898197D01*
X128941276Y-69898198D01*
X128935248Y-69900882D01*
X128780747Y-70013134D01*
X128776326Y-70018044D01*
X128776325Y-70018045D01*
X128732747Y-70066444D01*
X128652960Y-70155056D01*
X128557473Y-70320444D01*
X128498458Y-70502072D01*
X128497768Y-70508633D01*
X128497768Y-70508635D01*
X128480401Y-70673872D01*
X128478496Y-70692000D01*
X128479186Y-70698565D01*
X128480546Y-70711500D01*
X128498458Y-70881928D01*
X128557473Y-71063556D01*
X128560776Y-71069278D01*
X128560777Y-71069279D01*
X128585416Y-71111955D01*
X128652960Y-71228944D01*
X128665338Y-71242691D01*
X128696054Y-71306697D01*
X128687290Y-71377150D01*
X128665339Y-71411307D01*
X128652960Y-71425056D01*
X128594686Y-71525990D01*
X128562926Y-71581000D01*
X128557473Y-71590444D01*
X128498458Y-71772072D01*
X128497768Y-71778633D01*
X128497768Y-71778635D01*
X128480620Y-71941794D01*
X128478496Y-71962000D01*
X127864500Y-71962000D01*
X127864500Y-68532000D01*
X127884502Y-68463879D01*
X127938158Y-68417386D01*
X127990500Y-68406000D01*
X130282000Y-68406000D01*
X130389980Y-68394391D01*
X130393264Y-68393677D01*
X130393268Y-68393676D01*
X130426255Y-68386500D01*
X130442322Y-68383005D01*
X130468954Y-68374141D01*
X130499710Y-68363905D01*
X130570662Y-68361371D01*
X130631719Y-68397599D01*
G37*
%TD.AperFunction*%
%TD*%
%TA.AperFunction,Conductor*%
%TO.N,GNDA*%
G36*
X186633147Y-58078002D02*
G01*
X186679640Y-58131658D01*
X186691026Y-58184193D01*
X186670212Y-71755749D01*
X186645744Y-87709457D01*
X186642971Y-89517224D01*
X186622864Y-89585314D01*
X186569137Y-89631725D01*
X186517177Y-89643031D01*
X170360287Y-89669374D01*
X166348205Y-89675915D01*
X166280052Y-89656024D01*
X166233472Y-89602444D01*
X166222000Y-89549915D01*
X166222000Y-87831500D01*
X166242002Y-87763379D01*
X166295658Y-87716886D01*
X166348000Y-87705500D01*
X166831497Y-87705500D01*
X166847944Y-87706578D01*
X166878000Y-87710535D01*
X166886188Y-87709457D01*
X166916244Y-87705500D01*
X167030324Y-87690481D01*
X167172267Y-87631686D01*
X167294157Y-87538157D01*
X167312619Y-87514097D01*
X167323486Y-87501707D01*
X169797711Y-85027483D01*
X169810102Y-85016615D01*
X169827611Y-85003180D01*
X169827612Y-85003179D01*
X169834157Y-84998157D01*
X169860167Y-84964260D01*
X169927686Y-84876268D01*
X169955756Y-84808500D01*
X169986481Y-84734324D01*
X169988811Y-84716631D01*
X170001500Y-84620244D01*
X170005457Y-84590189D01*
X170005457Y-84590188D01*
X170006535Y-84582000D01*
X170002578Y-84551944D01*
X170001500Y-84535497D01*
X170001500Y-84201671D01*
X170021502Y-84133550D01*
X170075158Y-84087057D01*
X170145432Y-84076953D01*
X170201560Y-84099735D01*
X170337248Y-84198318D01*
X170343276Y-84201002D01*
X170343278Y-84201003D01*
X170501744Y-84271556D01*
X170511712Y-84275994D01*
X170605112Y-84295847D01*
X170692056Y-84314328D01*
X170692061Y-84314328D01*
X170698513Y-84315700D01*
X170889487Y-84315700D01*
X170895939Y-84314328D01*
X170895944Y-84314328D01*
X170982888Y-84295847D01*
X171076288Y-84275994D01*
X171086256Y-84271556D01*
X171244722Y-84201003D01*
X171244724Y-84201002D01*
X171250752Y-84198318D01*
X171405253Y-84086066D01*
X171442114Y-84045128D01*
X171528621Y-83949052D01*
X171528622Y-83949051D01*
X171533040Y-83944144D01*
X171628527Y-83778756D01*
X171687542Y-83597128D01*
X171695363Y-83522721D01*
X171706814Y-83413765D01*
X171707504Y-83407200D01*
X171702864Y-83363056D01*
X171688232Y-83223835D01*
X171688232Y-83223833D01*
X171687542Y-83217272D01*
X171628527Y-83035644D01*
X171533040Y-82870256D01*
X171447387Y-82775128D01*
X171409675Y-82733245D01*
X171409674Y-82733244D01*
X171405253Y-82728334D01*
X171250752Y-82616082D01*
X171244724Y-82613398D01*
X171244722Y-82613397D01*
X171082319Y-82541091D01*
X171082318Y-82541091D01*
X171076288Y-82538406D01*
X170982888Y-82518553D01*
X170895944Y-82500072D01*
X170895939Y-82500072D01*
X170889487Y-82498700D01*
X170698513Y-82498700D01*
X170692061Y-82500072D01*
X170692056Y-82500072D01*
X170605113Y-82518553D01*
X170511712Y-82538406D01*
X170505682Y-82541091D01*
X170505681Y-82541091D01*
X170343278Y-82613397D01*
X170343276Y-82613398D01*
X170337248Y-82616082D01*
X170331907Y-82619962D01*
X170331906Y-82619963D01*
X170201561Y-82714665D01*
X170134694Y-82738523D01*
X170065542Y-82722443D01*
X170016062Y-82671529D01*
X170001500Y-82612729D01*
X170001500Y-80973500D01*
X170021502Y-80905379D01*
X170075158Y-80858886D01*
X170127500Y-80847500D01*
X173059691Y-80847500D01*
X173127812Y-80867502D01*
X173174305Y-80921158D01*
X173184409Y-80991432D01*
X173154915Y-81056012D01*
X173130646Y-81076053D01*
X173131248Y-81076882D01*
X172976747Y-81189134D01*
X172848960Y-81331056D01*
X172753473Y-81496444D01*
X172694458Y-81678072D01*
X172674496Y-81868000D01*
X172675186Y-81874565D01*
X172691187Y-82026803D01*
X172694458Y-82057928D01*
X172753473Y-82239556D01*
X172848960Y-82404944D01*
X172853378Y-82409851D01*
X172853379Y-82409852D01*
X172971547Y-82541091D01*
X172976747Y-82546866D01*
X173131248Y-82659118D01*
X173137276Y-82661802D01*
X173137278Y-82661803D01*
X173299681Y-82734109D01*
X173305712Y-82736794D01*
X173399112Y-82756647D01*
X173486056Y-82775128D01*
X173486061Y-82775128D01*
X173492513Y-82776500D01*
X173683487Y-82776500D01*
X173689939Y-82775128D01*
X173689944Y-82775128D01*
X173776888Y-82756647D01*
X173870288Y-82736794D01*
X173876319Y-82734109D01*
X174038722Y-82661803D01*
X174038724Y-82661802D01*
X174044752Y-82659118D01*
X174199253Y-82546866D01*
X174204453Y-82541091D01*
X174322621Y-82409852D01*
X174322622Y-82409851D01*
X174327040Y-82404944D01*
X174422527Y-82239556D01*
X174481542Y-82057928D01*
X174484814Y-82026803D01*
X174500814Y-81874565D01*
X174501504Y-81868000D01*
X174481542Y-81678072D01*
X174422527Y-81496444D01*
X174327040Y-81331056D01*
X174238750Y-81233000D01*
X176484496Y-81233000D01*
X176485186Y-81239565D01*
X176486546Y-81252500D01*
X176504458Y-81422928D01*
X176563473Y-81604556D01*
X176658960Y-81769944D01*
X176786747Y-81911866D01*
X176941248Y-82024118D01*
X176947276Y-82026802D01*
X176947278Y-82026803D01*
X177109681Y-82099109D01*
X177115712Y-82101794D01*
X177209112Y-82121647D01*
X177296056Y-82140128D01*
X177296061Y-82140128D01*
X177302513Y-82141500D01*
X177493487Y-82141500D01*
X177499939Y-82140128D01*
X177499944Y-82140128D01*
X177586888Y-82121647D01*
X177680288Y-82101794D01*
X177686319Y-82099109D01*
X177848722Y-82026803D01*
X177848724Y-82026802D01*
X177854752Y-82024118D01*
X178009253Y-81911866D01*
X178137040Y-81769944D01*
X178232527Y-81604556D01*
X178291542Y-81422928D01*
X178298217Y-81359422D01*
X178325228Y-81293766D01*
X178383449Y-81253135D01*
X178397325Y-81249346D01*
X178569288Y-81212794D01*
X178575319Y-81210109D01*
X178737722Y-81137803D01*
X178737724Y-81137802D01*
X178743752Y-81135118D01*
X178898253Y-81022866D01*
X179026040Y-80880944D01*
X179121527Y-80715556D01*
X179180542Y-80533928D01*
X179181356Y-80526188D01*
X179199814Y-80350565D01*
X179200504Y-80344000D01*
X179198786Y-80327655D01*
X179181232Y-80160635D01*
X179181232Y-80160633D01*
X179180542Y-80154072D01*
X179121527Y-79972444D01*
X179026040Y-79807056D01*
X178982797Y-79759029D01*
X178902675Y-79670045D01*
X178902674Y-79670044D01*
X178898253Y-79665134D01*
X178743752Y-79552882D01*
X178737724Y-79550198D01*
X178737722Y-79550197D01*
X178575319Y-79477891D01*
X178575318Y-79477891D01*
X178569288Y-79475206D01*
X178475887Y-79455353D01*
X178388944Y-79436872D01*
X178388939Y-79436872D01*
X178382487Y-79435500D01*
X178191513Y-79435500D01*
X178185061Y-79436872D01*
X178185056Y-79436872D01*
X178098113Y-79455353D01*
X178004712Y-79475206D01*
X177998682Y-79477891D01*
X177998681Y-79477891D01*
X177836278Y-79550197D01*
X177836276Y-79550198D01*
X177830248Y-79552882D01*
X177675747Y-79665134D01*
X177671326Y-79670044D01*
X177671325Y-79670045D01*
X177591204Y-79759029D01*
X177547960Y-79807056D01*
X177452473Y-79972444D01*
X177393458Y-80154072D01*
X177386826Y-80217182D01*
X177386784Y-80217577D01*
X177359772Y-80283234D01*
X177301551Y-80323865D01*
X177287675Y-80327654D01*
X177115712Y-80364206D01*
X177109682Y-80366891D01*
X177109681Y-80366891D01*
X176947278Y-80439197D01*
X176947276Y-80439198D01*
X176941248Y-80441882D01*
X176786747Y-80554134D01*
X176782326Y-80559044D01*
X176782325Y-80559045D01*
X176673276Y-80680157D01*
X176658960Y-80696056D01*
X176617278Y-80768252D01*
X176568617Y-80852535D01*
X176563473Y-80861444D01*
X176504458Y-81043072D01*
X176503768Y-81049633D01*
X176503768Y-81049635D01*
X176485186Y-81226435D01*
X176484496Y-81233000D01*
X174238750Y-81233000D01*
X174199253Y-81189134D01*
X174044752Y-81076882D01*
X174038724Y-81074198D01*
X174038722Y-81074197D01*
X173876319Y-81001891D01*
X173876318Y-81001891D01*
X173870288Y-80999206D01*
X173863836Y-80997834D01*
X173863831Y-80997833D01*
X173833856Y-80991462D01*
X173771382Y-80957733D01*
X173737061Y-80895584D01*
X173741789Y-80824745D01*
X173783349Y-80768252D01*
X173891611Y-80685180D01*
X173898157Y-80680157D01*
X173916619Y-80656097D01*
X173927486Y-80643707D01*
X175131707Y-79439486D01*
X175144098Y-79428618D01*
X175161611Y-79415180D01*
X175168157Y-79410157D01*
X175215069Y-79349020D01*
X175261686Y-79288268D01*
X175264845Y-79280641D01*
X175264848Y-79280636D01*
X175314967Y-79159635D01*
X175314969Y-79159630D01*
X175317319Y-79153957D01*
X175320481Y-79146324D01*
X175335500Y-79032244D01*
X175335500Y-79032242D01*
X175340535Y-78994000D01*
X175336578Y-78963944D01*
X175335500Y-78947497D01*
X175335500Y-76500501D01*
X175336578Y-76484053D01*
X175338205Y-76471700D01*
X175340535Y-76454000D01*
X175331687Y-76386794D01*
X175320481Y-76301676D01*
X175277067Y-76196866D01*
X175261686Y-76159732D01*
X175191639Y-76068445D01*
X175191637Y-76068443D01*
X175168157Y-76037843D01*
X175144106Y-76019388D01*
X175131715Y-76008521D01*
X174641194Y-75518000D01*
X175468496Y-75518000D01*
X175469186Y-75524565D01*
X175478823Y-75616252D01*
X175488458Y-75707928D01*
X175547473Y-75889556D01*
X175642960Y-76054944D01*
X175647378Y-76059851D01*
X175647379Y-76059852D01*
X175766325Y-76191955D01*
X175770747Y-76196866D01*
X175858331Y-76260500D01*
X175912982Y-76300206D01*
X175925248Y-76309118D01*
X175931276Y-76311802D01*
X175931278Y-76311803D01*
X176079695Y-76377882D01*
X176099712Y-76386794D01*
X176177799Y-76403392D01*
X176280056Y-76425128D01*
X176280061Y-76425128D01*
X176286513Y-76426500D01*
X176477487Y-76426500D01*
X176483939Y-76425128D01*
X176483944Y-76425128D01*
X176586201Y-76403392D01*
X176664288Y-76386794D01*
X176684305Y-76377882D01*
X176832722Y-76311803D01*
X176832724Y-76311802D01*
X176838752Y-76309118D01*
X176851019Y-76300206D01*
X176905669Y-76260500D01*
X176993253Y-76196866D01*
X176997675Y-76191955D01*
X177116621Y-76059852D01*
X177116622Y-76059851D01*
X177121040Y-76054944D01*
X177216527Y-75889556D01*
X177275542Y-75707928D01*
X177275682Y-75706599D01*
X177308482Y-75645844D01*
X177370632Y-75611523D01*
X177441471Y-75616252D01*
X177498508Y-75658528D01*
X177520276Y-75706192D01*
X177520458Y-75707928D01*
X177579473Y-75889556D01*
X177674960Y-76054944D01*
X177679378Y-76059851D01*
X177679379Y-76059852D01*
X177798325Y-76191955D01*
X177802747Y-76196866D01*
X177890331Y-76260500D01*
X177944982Y-76300206D01*
X177957248Y-76309118D01*
X177963276Y-76311802D01*
X177963278Y-76311803D01*
X178061184Y-76355393D01*
X178115279Y-76401373D01*
X178135929Y-76469300D01*
X178116577Y-76537608D01*
X178061184Y-76585607D01*
X177963278Y-76629197D01*
X177963276Y-76629198D01*
X177957248Y-76631882D01*
X177802747Y-76744134D01*
X177798326Y-76749044D01*
X177798325Y-76749045D01*
X177754747Y-76797444D01*
X177674960Y-76886056D01*
X177579473Y-77051444D01*
X177520458Y-77233072D01*
X177519768Y-77239633D01*
X177519768Y-77239635D01*
X177510533Y-77327500D01*
X177500496Y-77423000D01*
X177501186Y-77429565D01*
X177505922Y-77474621D01*
X177520458Y-77612928D01*
X177579473Y-77794556D01*
X177674960Y-77959944D01*
X177679378Y-77964851D01*
X177679379Y-77964852D01*
X177787876Y-78085350D01*
X177802747Y-78101866D01*
X177957248Y-78214118D01*
X177963276Y-78216802D01*
X177963278Y-78216803D01*
X178099153Y-78277298D01*
X178131712Y-78291794D01*
X178225113Y-78311647D01*
X178312056Y-78330128D01*
X178312061Y-78330128D01*
X178318513Y-78331500D01*
X178509487Y-78331500D01*
X178515939Y-78330128D01*
X178515944Y-78330128D01*
X178602888Y-78311647D01*
X178696288Y-78291794D01*
X178728847Y-78277298D01*
X178864722Y-78216803D01*
X178864724Y-78216802D01*
X178870752Y-78214118D01*
X179025253Y-78101866D01*
X179040124Y-78085350D01*
X179148621Y-77964852D01*
X179148622Y-77964851D01*
X179153040Y-77959944D01*
X179248527Y-77794556D01*
X179307542Y-77612928D01*
X179322079Y-77474621D01*
X179326814Y-77429565D01*
X179327504Y-77423000D01*
X179317467Y-77327500D01*
X179308232Y-77239635D01*
X179308232Y-77239633D01*
X179307542Y-77233072D01*
X179248527Y-77051444D01*
X179153040Y-76886056D01*
X179073254Y-76797444D01*
X179029675Y-76749045D01*
X179029674Y-76749044D01*
X179025253Y-76744134D01*
X178870752Y-76631882D01*
X178864724Y-76629198D01*
X178864722Y-76629197D01*
X178766816Y-76585607D01*
X178712721Y-76539627D01*
X178692071Y-76471700D01*
X178711423Y-76403392D01*
X178766816Y-76355393D01*
X178864722Y-76311803D01*
X178864724Y-76311802D01*
X178870752Y-76309118D01*
X178883019Y-76300206D01*
X178937669Y-76260500D01*
X179025253Y-76196866D01*
X179029675Y-76191955D01*
X179148621Y-76059852D01*
X179148622Y-76059851D01*
X179153040Y-76054944D01*
X179248527Y-75889556D01*
X179307542Y-75707928D01*
X179317178Y-75616252D01*
X179326814Y-75524565D01*
X179327504Y-75518000D01*
X179326814Y-75511435D01*
X179308232Y-75334635D01*
X179308232Y-75334633D01*
X179307542Y-75328072D01*
X179248527Y-75146444D01*
X179153040Y-74981056D01*
X179025253Y-74839134D01*
X178870752Y-74726882D01*
X178864724Y-74724198D01*
X178864722Y-74724197D01*
X178702319Y-74651891D01*
X178702318Y-74651891D01*
X178696288Y-74649206D01*
X178602887Y-74629353D01*
X178515944Y-74610872D01*
X178515939Y-74610872D01*
X178509487Y-74609500D01*
X178318513Y-74609500D01*
X178312061Y-74610872D01*
X178312056Y-74610872D01*
X178225113Y-74629353D01*
X178131712Y-74649206D01*
X178125682Y-74651891D01*
X178125681Y-74651891D01*
X177963278Y-74724197D01*
X177963276Y-74724198D01*
X177957248Y-74726882D01*
X177802747Y-74839134D01*
X177674960Y-74981056D01*
X177579473Y-75146444D01*
X177520458Y-75328072D01*
X177520318Y-75329401D01*
X177487518Y-75390156D01*
X177425368Y-75424477D01*
X177354529Y-75419748D01*
X177297492Y-75377472D01*
X177275724Y-75329808D01*
X177275542Y-75328072D01*
X177216527Y-75146444D01*
X177121040Y-74981056D01*
X176993253Y-74839134D01*
X176838752Y-74726882D01*
X176832724Y-74724198D01*
X176832722Y-74724197D01*
X176670319Y-74651891D01*
X176670318Y-74651891D01*
X176664288Y-74649206D01*
X176570887Y-74629353D01*
X176483944Y-74610872D01*
X176483939Y-74610872D01*
X176477487Y-74609500D01*
X176286513Y-74609500D01*
X176280061Y-74610872D01*
X176280056Y-74610872D01*
X176193113Y-74629353D01*
X176099712Y-74649206D01*
X176093682Y-74651891D01*
X176093681Y-74651891D01*
X175931278Y-74724197D01*
X175931276Y-74724198D01*
X175925248Y-74726882D01*
X175770747Y-74839134D01*
X175642960Y-74981056D01*
X175547473Y-75146444D01*
X175488458Y-75328072D01*
X175487768Y-75334633D01*
X175487768Y-75334635D01*
X175469186Y-75511435D01*
X175468496Y-75518000D01*
X174641194Y-75518000D01*
X174492835Y-75369641D01*
X173848405Y-74725212D01*
X173814380Y-74662900D01*
X173811500Y-74636117D01*
X173811500Y-68660000D01*
X176655950Y-68660000D01*
X176675713Y-68885890D01*
X176677137Y-68891203D01*
X176677137Y-68891205D01*
X176725077Y-69070118D01*
X176734401Y-69104917D01*
X176736723Y-69109898D01*
X176736724Y-69109899D01*
X176827905Y-69305438D01*
X176827908Y-69305443D01*
X176830231Y-69310425D01*
X176960291Y-69496170D01*
X177120630Y-69656509D01*
X177125138Y-69659666D01*
X177125141Y-69659668D01*
X177301866Y-69783412D01*
X177306375Y-69786569D01*
X177311357Y-69788892D01*
X177311362Y-69788895D01*
X177506901Y-69880076D01*
X177511883Y-69882399D01*
X177517191Y-69883821D01*
X177517193Y-69883822D01*
X177725595Y-69939663D01*
X177725597Y-69939663D01*
X177730910Y-69941087D01*
X177829691Y-69949729D01*
X177897498Y-69955662D01*
X177897505Y-69955662D01*
X177900222Y-69955900D01*
X178013378Y-69955900D01*
X178016095Y-69955662D01*
X178016102Y-69955662D01*
X178083909Y-69949729D01*
X178182690Y-69941087D01*
X178188003Y-69939663D01*
X178188005Y-69939663D01*
X178396407Y-69883822D01*
X178396409Y-69883821D01*
X178401717Y-69882399D01*
X178406699Y-69880076D01*
X178602238Y-69788895D01*
X178602243Y-69788892D01*
X178607225Y-69786569D01*
X178611734Y-69783412D01*
X178788459Y-69659668D01*
X178788462Y-69659666D01*
X178792970Y-69656509D01*
X178953309Y-69496170D01*
X179083369Y-69310425D01*
X179085692Y-69305443D01*
X179085695Y-69305438D01*
X179176876Y-69109899D01*
X179176877Y-69109898D01*
X179179199Y-69104917D01*
X179188524Y-69070118D01*
X179236463Y-68891205D01*
X179236463Y-68891203D01*
X179237887Y-68885890D01*
X179257650Y-68660000D01*
X182650350Y-68660000D01*
X182670113Y-68885890D01*
X182671537Y-68891203D01*
X182671537Y-68891205D01*
X182719477Y-69070118D01*
X182728801Y-69104917D01*
X182731123Y-69109898D01*
X182731124Y-69109899D01*
X182822305Y-69305438D01*
X182822308Y-69305443D01*
X182824631Y-69310425D01*
X182954691Y-69496170D01*
X183115030Y-69656509D01*
X183119538Y-69659666D01*
X183119541Y-69659668D01*
X183296266Y-69783412D01*
X183300775Y-69786569D01*
X183305757Y-69788892D01*
X183305762Y-69788895D01*
X183501301Y-69880076D01*
X183506283Y-69882399D01*
X183511591Y-69883821D01*
X183511593Y-69883822D01*
X183719995Y-69939663D01*
X183719997Y-69939663D01*
X183725310Y-69941087D01*
X183824091Y-69949729D01*
X183891898Y-69955662D01*
X183891905Y-69955662D01*
X183894622Y-69955900D01*
X184007778Y-69955900D01*
X184010495Y-69955662D01*
X184010502Y-69955662D01*
X184078309Y-69949729D01*
X184177090Y-69941087D01*
X184182403Y-69939663D01*
X184182405Y-69939663D01*
X184390807Y-69883822D01*
X184390809Y-69883821D01*
X184396117Y-69882399D01*
X184401099Y-69880076D01*
X184596638Y-69788895D01*
X184596643Y-69788892D01*
X184601625Y-69786569D01*
X184606134Y-69783412D01*
X184782859Y-69659668D01*
X184782862Y-69659666D01*
X184787370Y-69656509D01*
X184947709Y-69496170D01*
X185077769Y-69310425D01*
X185080092Y-69305443D01*
X185080095Y-69305438D01*
X185171276Y-69109899D01*
X185171277Y-69109898D01*
X185173599Y-69104917D01*
X185182924Y-69070118D01*
X185230863Y-68891205D01*
X185230863Y-68891203D01*
X185232287Y-68885890D01*
X185252050Y-68660000D01*
X185232287Y-68434110D01*
X185192485Y-68285565D01*
X185175022Y-68220393D01*
X185175021Y-68220391D01*
X185173599Y-68215083D01*
X185120375Y-68100944D01*
X185080095Y-68014562D01*
X185080092Y-68014557D01*
X185077769Y-68009575D01*
X185029948Y-67941279D01*
X184950868Y-67828341D01*
X184950866Y-67828338D01*
X184947709Y-67823830D01*
X184787370Y-67663491D01*
X184782862Y-67660334D01*
X184782859Y-67660332D01*
X184606134Y-67536588D01*
X184606132Y-67536587D01*
X184601625Y-67533431D01*
X184596643Y-67531108D01*
X184596638Y-67531105D01*
X184401099Y-67439924D01*
X184401098Y-67439923D01*
X184396117Y-67437601D01*
X184390809Y-67436179D01*
X184390807Y-67436178D01*
X184182405Y-67380337D01*
X184182403Y-67380337D01*
X184177090Y-67378913D01*
X184078309Y-67370271D01*
X184010502Y-67364338D01*
X184010495Y-67364338D01*
X184007778Y-67364100D01*
X183894622Y-67364100D01*
X183891905Y-67364338D01*
X183891898Y-67364338D01*
X183824091Y-67370271D01*
X183725310Y-67378913D01*
X183719997Y-67380337D01*
X183719995Y-67380337D01*
X183511593Y-67436178D01*
X183511591Y-67436179D01*
X183506283Y-67437601D01*
X183501302Y-67439923D01*
X183501301Y-67439924D01*
X183305762Y-67531105D01*
X183305757Y-67531108D01*
X183300775Y-67533431D01*
X183296268Y-67536587D01*
X183296266Y-67536588D01*
X183119541Y-67660332D01*
X183119538Y-67660334D01*
X183115030Y-67663491D01*
X182954691Y-67823830D01*
X182951534Y-67828338D01*
X182951532Y-67828341D01*
X182872452Y-67941279D01*
X182824631Y-68009575D01*
X182822308Y-68014557D01*
X182822305Y-68014562D01*
X182782025Y-68100944D01*
X182728801Y-68215083D01*
X182727379Y-68220391D01*
X182727378Y-68220393D01*
X182709915Y-68285565D01*
X182670113Y-68434110D01*
X182650350Y-68660000D01*
X179257650Y-68660000D01*
X179237887Y-68434110D01*
X179198085Y-68285565D01*
X179180622Y-68220393D01*
X179180621Y-68220391D01*
X179179199Y-68215083D01*
X179125975Y-68100944D01*
X179085695Y-68014562D01*
X179085692Y-68014557D01*
X179083369Y-68009575D01*
X179035548Y-67941279D01*
X178956468Y-67828341D01*
X178956466Y-67828338D01*
X178953309Y-67823830D01*
X178792970Y-67663491D01*
X178788462Y-67660334D01*
X178788459Y-67660332D01*
X178611734Y-67536588D01*
X178611732Y-67536587D01*
X178607225Y-67533431D01*
X178602243Y-67531108D01*
X178602238Y-67531105D01*
X178406699Y-67439924D01*
X178406698Y-67439923D01*
X178401717Y-67437601D01*
X178396409Y-67436179D01*
X178396407Y-67436178D01*
X178188005Y-67380337D01*
X178188003Y-67380337D01*
X178182690Y-67378913D01*
X178083909Y-67370271D01*
X178016102Y-67364338D01*
X178016095Y-67364338D01*
X178013378Y-67364100D01*
X177900222Y-67364100D01*
X177897505Y-67364338D01*
X177897498Y-67364338D01*
X177829691Y-67370271D01*
X177730910Y-67378913D01*
X177725597Y-67380337D01*
X177725595Y-67380337D01*
X177517193Y-67436178D01*
X177517191Y-67436179D01*
X177511883Y-67437601D01*
X177506902Y-67439923D01*
X177506901Y-67439924D01*
X177311362Y-67531105D01*
X177311357Y-67531108D01*
X177306375Y-67533431D01*
X177301868Y-67536587D01*
X177301866Y-67536588D01*
X177125141Y-67660332D01*
X177125138Y-67660334D01*
X177120630Y-67663491D01*
X176960291Y-67823830D01*
X176957134Y-67828338D01*
X176957132Y-67828341D01*
X176878052Y-67941279D01*
X176830231Y-68009575D01*
X176827908Y-68014557D01*
X176827905Y-68014562D01*
X176787625Y-68100944D01*
X176734401Y-68215083D01*
X176732979Y-68220391D01*
X176732978Y-68220393D01*
X176715515Y-68285565D01*
X176675713Y-68434110D01*
X176655950Y-68660000D01*
X173811500Y-68660000D01*
X173811500Y-68322055D01*
X173831502Y-68253934D01*
X173843864Y-68237745D01*
X173962621Y-68105852D01*
X173962622Y-68105851D01*
X173967040Y-68100944D01*
X174062527Y-67935556D01*
X174121542Y-67753928D01*
X174141504Y-67564000D01*
X174121542Y-67374072D01*
X174062527Y-67192444D01*
X173967040Y-67027056D01*
X173839253Y-66885134D01*
X173684752Y-66772882D01*
X173678724Y-66770198D01*
X173678722Y-66770197D01*
X173516319Y-66697891D01*
X173516318Y-66697891D01*
X173510288Y-66695206D01*
X173416887Y-66675353D01*
X173329944Y-66656872D01*
X173329939Y-66656872D01*
X173323487Y-66655500D01*
X173132513Y-66655500D01*
X173126061Y-66656872D01*
X173126056Y-66656872D01*
X173039113Y-66675353D01*
X172945712Y-66695206D01*
X172939682Y-66697891D01*
X172939681Y-66697891D01*
X172777278Y-66770197D01*
X172777276Y-66770198D01*
X172771248Y-66772882D01*
X172616747Y-66885134D01*
X172488960Y-67027056D01*
X172393473Y-67192444D01*
X172334458Y-67374072D01*
X172314496Y-67564000D01*
X172334458Y-67753928D01*
X172393473Y-67935556D01*
X172488960Y-68100944D01*
X172493378Y-68105851D01*
X172493379Y-68105852D01*
X172612136Y-68237745D01*
X172642854Y-68301752D01*
X172644500Y-68322055D01*
X172644500Y-74883497D01*
X172643422Y-74899944D01*
X172639465Y-74930000D01*
X172644500Y-74968244D01*
X172659519Y-75082324D01*
X172718314Y-75224267D01*
X172811843Y-75346157D01*
X172818389Y-75351180D01*
X172835902Y-75364618D01*
X172848293Y-75375486D01*
X174131595Y-76658789D01*
X174165621Y-76721101D01*
X174168500Y-76747884D01*
X174168500Y-78700117D01*
X174148498Y-78768238D01*
X174131595Y-78789212D01*
X173277212Y-79643595D01*
X173214900Y-79677621D01*
X173188117Y-79680500D01*
X169718501Y-79680500D01*
X169702056Y-79679422D01*
X169672000Y-79675465D01*
X169633758Y-79680500D01*
X169633756Y-79680500D01*
X169519676Y-79695519D01*
X169419309Y-79737093D01*
X169419307Y-79737093D01*
X169419307Y-79737094D01*
X169377732Y-79754314D01*
X169371179Y-79759343D01*
X169371178Y-79759343D01*
X169343373Y-79780678D01*
X169262393Y-79842816D01*
X169262389Y-79842820D01*
X169255843Y-79847843D01*
X169250820Y-79854389D01*
X169237382Y-79871902D01*
X169226514Y-79884293D01*
X169038293Y-80072514D01*
X169025903Y-80083381D01*
X169001843Y-80101843D01*
X168940658Y-80181581D01*
X168908314Y-80223733D01*
X168849519Y-80365676D01*
X168829465Y-80518000D01*
X168830543Y-80526188D01*
X168833422Y-80548056D01*
X168834500Y-80564503D01*
X168834500Y-84288116D01*
X168814498Y-84356237D01*
X168797595Y-84377211D01*
X166673212Y-86501595D01*
X166610900Y-86535620D01*
X166584117Y-86538500D01*
X165428709Y-86538500D01*
X165360588Y-86518498D01*
X165314095Y-86464842D01*
X165303991Y-86394568D01*
X165335073Y-86328190D01*
X165432621Y-86219852D01*
X165432622Y-86219851D01*
X165437040Y-86214944D01*
X165532527Y-86049556D01*
X165591542Y-85867928D01*
X165611504Y-85678000D01*
X165591542Y-85488072D01*
X165532527Y-85306444D01*
X165437040Y-85141056D01*
X165309253Y-84999134D01*
X165160332Y-84890936D01*
X165116978Y-84834713D01*
X165110903Y-84763977D01*
X165144035Y-84701186D01*
X165160332Y-84687064D01*
X165252301Y-84620244D01*
X165309253Y-84578866D01*
X165437040Y-84436944D01*
X165532527Y-84271556D01*
X165591542Y-84089928D01*
X165596107Y-84046500D01*
X165610814Y-83906565D01*
X165611504Y-83900000D01*
X165606412Y-83851549D01*
X165592232Y-83716635D01*
X165592232Y-83716633D01*
X165591542Y-83710072D01*
X165532527Y-83528444D01*
X165437040Y-83363056D01*
X165411064Y-83334206D01*
X165313675Y-83226045D01*
X165313674Y-83226044D01*
X165309253Y-83221134D01*
X165194829Y-83138000D01*
X165160094Y-83112763D01*
X165160093Y-83112762D01*
X165154752Y-83108882D01*
X165148724Y-83106198D01*
X165148722Y-83106197D01*
X164986319Y-83033891D01*
X164986318Y-83033891D01*
X164980288Y-83031206D01*
X164886888Y-83011353D01*
X164799944Y-82992872D01*
X164799939Y-82992872D01*
X164793487Y-82991500D01*
X164602513Y-82991500D01*
X164596061Y-82992872D01*
X164596056Y-82992872D01*
X164509113Y-83011353D01*
X164415712Y-83031206D01*
X164409682Y-83033891D01*
X164409681Y-83033891D01*
X164247278Y-83106197D01*
X164247276Y-83106198D01*
X164241248Y-83108882D01*
X164235907Y-83112762D01*
X164235906Y-83112763D01*
X164136061Y-83185305D01*
X164069193Y-83209163D01*
X164000042Y-83193083D01*
X163950562Y-83142169D01*
X163936000Y-83083369D01*
X163936000Y-79198324D01*
X163956002Y-79130203D01*
X164009658Y-79083710D01*
X164079932Y-79073606D01*
X164113249Y-79083217D01*
X164161712Y-79104794D01*
X164255112Y-79124647D01*
X164342056Y-79143128D01*
X164342061Y-79143128D01*
X164348513Y-79144500D01*
X164539487Y-79144500D01*
X164545939Y-79143128D01*
X164545944Y-79143128D01*
X164632888Y-79124647D01*
X164726288Y-79104794D01*
X164796338Y-79073606D01*
X164894722Y-79029803D01*
X164894724Y-79029802D01*
X164900752Y-79027118D01*
X164906091Y-79023239D01*
X164906098Y-79023235D01*
X164912528Y-79018563D01*
X164986587Y-78994500D01*
X166041963Y-78994500D01*
X166110084Y-79014502D01*
X166156577Y-79068158D01*
X166166681Y-79138432D01*
X166151082Y-79183499D01*
X166116473Y-79243444D01*
X166057458Y-79425072D01*
X166056768Y-79431633D01*
X166056768Y-79431635D01*
X166044307Y-79550197D01*
X166037496Y-79615000D01*
X166038186Y-79621565D01*
X166049090Y-79725307D01*
X166057458Y-79804928D01*
X166116473Y-79986556D01*
X166211960Y-80151944D01*
X166216378Y-80156851D01*
X166216379Y-80156852D01*
X166269719Y-80216092D01*
X166339747Y-80293866D01*
X166494248Y-80406118D01*
X166500276Y-80408802D01*
X166500278Y-80408803D01*
X166662681Y-80481109D01*
X166668712Y-80483794D01*
X166758697Y-80502921D01*
X166821170Y-80536650D01*
X166855492Y-80598799D01*
X166858500Y-80626168D01*
X166858500Y-82435476D01*
X166838498Y-82503597D01*
X166826142Y-82519779D01*
X166752960Y-82601056D01*
X166657473Y-82766444D01*
X166598458Y-82948072D01*
X166597768Y-82954633D01*
X166597768Y-82954635D01*
X166589855Y-83029921D01*
X166578496Y-83138000D01*
X166579186Y-83144565D01*
X166587518Y-83223835D01*
X166598458Y-83327928D01*
X166657473Y-83509556D01*
X166752960Y-83674944D01*
X166757378Y-83679851D01*
X166757379Y-83679852D01*
X166846433Y-83778756D01*
X166880747Y-83816866D01*
X166928484Y-83851549D01*
X167004207Y-83906565D01*
X167035248Y-83929118D01*
X167041276Y-83931802D01*
X167041278Y-83931803D01*
X167203681Y-84004109D01*
X167209712Y-84006794D01*
X167303113Y-84026647D01*
X167390056Y-84045128D01*
X167390061Y-84045128D01*
X167396513Y-84046500D01*
X167587487Y-84046500D01*
X167593939Y-84045128D01*
X167593944Y-84045128D01*
X167680887Y-84026647D01*
X167774288Y-84006794D01*
X167780319Y-84004109D01*
X167942722Y-83931803D01*
X167942724Y-83931802D01*
X167948752Y-83929118D01*
X167979794Y-83906565D01*
X168055516Y-83851549D01*
X168103253Y-83816866D01*
X168137567Y-83778756D01*
X168226621Y-83679852D01*
X168226622Y-83679851D01*
X168231040Y-83674944D01*
X168326527Y-83509556D01*
X168385542Y-83327928D01*
X168396483Y-83223835D01*
X168404814Y-83144565D01*
X168405504Y-83138000D01*
X168394145Y-83029921D01*
X168386232Y-82954635D01*
X168386232Y-82954633D01*
X168385542Y-82948072D01*
X168326527Y-82766444D01*
X168231040Y-82601056D01*
X168157863Y-82519785D01*
X168127147Y-82455779D01*
X168125500Y-82435476D01*
X168125500Y-80234768D01*
X168126027Y-80223585D01*
X168127702Y-80216092D01*
X168125562Y-80148001D01*
X168125500Y-80144044D01*
X168125500Y-80116144D01*
X168124996Y-80112153D01*
X168124063Y-80100311D01*
X168123954Y-80096820D01*
X168122674Y-80056111D01*
X168117021Y-80036652D01*
X168113012Y-80017293D01*
X168112846Y-80015983D01*
X168110474Y-79997203D01*
X168107558Y-79989837D01*
X168107556Y-79989831D01*
X168094200Y-79956098D01*
X168090355Y-79944868D01*
X168080230Y-79910017D01*
X168080230Y-79910016D01*
X168078019Y-79902407D01*
X168067705Y-79884966D01*
X168059008Y-79867213D01*
X168054472Y-79855758D01*
X168051552Y-79848383D01*
X168025563Y-79812612D01*
X168019047Y-79802692D01*
X168016488Y-79798365D01*
X167996542Y-79764638D01*
X167982221Y-79750317D01*
X167969380Y-79735283D01*
X167962132Y-79725307D01*
X167957472Y-79718893D01*
X167923401Y-79690707D01*
X167914622Y-79682718D01*
X167898122Y-79666218D01*
X167864096Y-79603906D01*
X167861907Y-79590293D01*
X167845232Y-79431635D01*
X167845232Y-79431633D01*
X167844542Y-79425072D01*
X167785527Y-79243444D01*
X167750918Y-79183499D01*
X167734180Y-79114505D01*
X167757400Y-79047413D01*
X167813207Y-79003526D01*
X167860037Y-78994500D01*
X171691930Y-78994500D01*
X171710880Y-78995933D01*
X171725115Y-78998099D01*
X171725119Y-78998099D01*
X171732349Y-78999199D01*
X171739641Y-78998606D01*
X171739644Y-78998606D01*
X171785018Y-78994915D01*
X171795233Y-78994500D01*
X171803293Y-78994500D01*
X171816583Y-78992951D01*
X171831507Y-78991211D01*
X171835882Y-78990778D01*
X171901339Y-78985454D01*
X171901342Y-78985453D01*
X171908637Y-78984860D01*
X171915601Y-78982604D01*
X171921560Y-78981413D01*
X171927415Y-78980029D01*
X171934681Y-78979182D01*
X172003327Y-78954265D01*
X172007455Y-78952848D01*
X172069936Y-78932607D01*
X172069938Y-78932606D01*
X172076899Y-78930351D01*
X172083154Y-78926555D01*
X172088628Y-78924049D01*
X172094058Y-78921330D01*
X172100937Y-78918833D01*
X172161976Y-78878814D01*
X172165680Y-78876477D01*
X172228107Y-78838595D01*
X172236484Y-78831197D01*
X172236508Y-78831224D01*
X172239500Y-78828571D01*
X172242733Y-78825868D01*
X172248852Y-78821856D01*
X172302128Y-78765617D01*
X172304506Y-78763175D01*
X172982331Y-78085350D01*
X173045228Y-78051199D01*
X173101824Y-78039169D01*
X173101833Y-78039166D01*
X173108288Y-78037794D01*
X173114319Y-78035109D01*
X173276722Y-77962803D01*
X173276724Y-77962802D01*
X173282752Y-77960118D01*
X173437253Y-77847866D01*
X173441675Y-77842955D01*
X173560621Y-77710852D01*
X173560622Y-77710851D01*
X173565040Y-77705944D01*
X173660527Y-77540556D01*
X173719542Y-77358928D01*
X173724893Y-77308022D01*
X173738814Y-77175565D01*
X173739504Y-77169000D01*
X173719542Y-76979072D01*
X173660527Y-76797444D01*
X173631914Y-76747884D01*
X173568341Y-76637774D01*
X173565040Y-76632056D01*
X173446588Y-76500501D01*
X173441675Y-76495045D01*
X173441674Y-76495044D01*
X173437253Y-76490134D01*
X173317863Y-76403392D01*
X173288094Y-76381763D01*
X173288093Y-76381762D01*
X173282752Y-76377882D01*
X173276724Y-76375198D01*
X173276722Y-76375197D01*
X173114319Y-76302891D01*
X173114318Y-76302891D01*
X173108288Y-76300206D01*
X173014888Y-76280353D01*
X172927944Y-76261872D01*
X172927939Y-76261872D01*
X172921487Y-76260500D01*
X172730513Y-76260500D01*
X172724061Y-76261872D01*
X172724056Y-76261872D01*
X172637112Y-76280353D01*
X172543712Y-76300206D01*
X172537682Y-76302891D01*
X172537681Y-76302891D01*
X172375278Y-76375197D01*
X172375276Y-76375198D01*
X172369248Y-76377882D01*
X172363907Y-76381762D01*
X172363906Y-76381763D01*
X172334137Y-76403392D01*
X172214747Y-76490134D01*
X172210326Y-76495044D01*
X172210325Y-76495045D01*
X172205413Y-76500501D01*
X172086960Y-76632056D01*
X172083659Y-76637774D01*
X172020087Y-76747884D01*
X171991473Y-76797444D01*
X171989431Y-76803729D01*
X171936613Y-76966285D01*
X171905875Y-77016444D01*
X171481724Y-77440595D01*
X171419412Y-77474621D01*
X171392629Y-77477500D01*
X164986587Y-77477500D01*
X164912528Y-77453437D01*
X164906098Y-77448765D01*
X164906091Y-77448761D01*
X164900752Y-77444882D01*
X164894724Y-77442198D01*
X164894722Y-77442197D01*
X164732319Y-77369891D01*
X164732318Y-77369891D01*
X164726288Y-77367206D01*
X164632887Y-77347353D01*
X164545944Y-77328872D01*
X164545939Y-77328872D01*
X164539487Y-77327500D01*
X164348513Y-77327500D01*
X164342061Y-77328872D01*
X164342056Y-77328872D01*
X164255113Y-77347353D01*
X164161712Y-77367206D01*
X164155682Y-77369891D01*
X164155681Y-77369891D01*
X164113249Y-77388783D01*
X164042882Y-77398217D01*
X163978585Y-77368110D01*
X163940771Y-77308022D01*
X163936000Y-77273676D01*
X163936000Y-71073000D01*
X170515496Y-71073000D01*
X170535458Y-71262928D01*
X170594473Y-71444556D01*
X170689960Y-71609944D01*
X170817747Y-71751866D01*
X170972248Y-71864118D01*
X170978276Y-71866802D01*
X170978278Y-71866803D01*
X171140681Y-71939109D01*
X171146712Y-71941794D01*
X171240113Y-71961647D01*
X171327056Y-71980128D01*
X171327061Y-71980128D01*
X171333513Y-71981500D01*
X171524487Y-71981500D01*
X171530939Y-71980128D01*
X171530944Y-71980128D01*
X171617887Y-71961647D01*
X171711288Y-71941794D01*
X171717319Y-71939109D01*
X171879722Y-71866803D01*
X171879724Y-71866802D01*
X171885752Y-71864118D01*
X172040253Y-71751866D01*
X172168040Y-71609944D01*
X172263527Y-71444556D01*
X172322542Y-71262928D01*
X172342504Y-71073000D01*
X172322542Y-70883072D01*
X172263527Y-70701444D01*
X172168040Y-70536056D01*
X172040253Y-70394134D01*
X171885752Y-70281882D01*
X171879724Y-70279198D01*
X171879722Y-70279197D01*
X171717319Y-70206891D01*
X171717318Y-70206891D01*
X171711288Y-70204206D01*
X171617888Y-70184353D01*
X171530944Y-70165872D01*
X171530939Y-70165872D01*
X171524487Y-70164500D01*
X171333513Y-70164500D01*
X171327061Y-70165872D01*
X171327056Y-70165872D01*
X171240112Y-70184353D01*
X171146712Y-70204206D01*
X171140682Y-70206891D01*
X171140681Y-70206891D01*
X170978278Y-70279197D01*
X170978276Y-70279198D01*
X170972248Y-70281882D01*
X170817747Y-70394134D01*
X170689960Y-70536056D01*
X170594473Y-70701444D01*
X170535458Y-70883072D01*
X170515496Y-71073000D01*
X163936000Y-71073000D01*
X163936000Y-68806473D01*
X163956002Y-68738352D01*
X164009658Y-68691859D01*
X164079932Y-68681755D01*
X164144512Y-68711249D01*
X164171118Y-68743472D01*
X164212960Y-68815944D01*
X164217378Y-68820851D01*
X164217379Y-68820852D01*
X164280725Y-68891205D01*
X164340747Y-68957866D01*
X164495248Y-69070118D01*
X164501276Y-69072802D01*
X164501278Y-69072803D01*
X164573408Y-69104917D01*
X164669712Y-69147794D01*
X164763112Y-69167647D01*
X164850056Y-69186128D01*
X164850061Y-69186128D01*
X164856513Y-69187500D01*
X165047487Y-69187500D01*
X165053939Y-69186128D01*
X165053944Y-69186128D01*
X165140888Y-69167647D01*
X165234288Y-69147794D01*
X165330592Y-69104917D01*
X165402722Y-69072803D01*
X165402724Y-69072802D01*
X165408752Y-69070118D01*
X165563253Y-68957866D01*
X165623275Y-68891205D01*
X165686621Y-68820852D01*
X165686622Y-68820851D01*
X165691040Y-68815944D01*
X165768514Y-68681755D01*
X165783223Y-68656279D01*
X165783224Y-68656278D01*
X165786527Y-68650556D01*
X165845542Y-68468928D01*
X165849202Y-68434110D01*
X165864814Y-68285565D01*
X165865504Y-68279000D01*
X165863826Y-68263030D01*
X165846232Y-68095635D01*
X165846232Y-68095633D01*
X165845542Y-68089072D01*
X165786527Y-67907444D01*
X165691040Y-67742056D01*
X165617456Y-67660332D01*
X165567675Y-67605045D01*
X165567674Y-67605044D01*
X165563253Y-67600134D01*
X165408752Y-67487882D01*
X165402724Y-67485198D01*
X165402722Y-67485197D01*
X165240319Y-67412891D01*
X165240318Y-67412891D01*
X165234288Y-67410206D01*
X165140887Y-67390353D01*
X165053944Y-67371872D01*
X165053939Y-67371872D01*
X165047487Y-67370500D01*
X164856513Y-67370500D01*
X164850061Y-67371872D01*
X164850056Y-67371872D01*
X164763113Y-67390353D01*
X164669712Y-67410206D01*
X164663682Y-67412891D01*
X164663681Y-67412891D01*
X164501278Y-67485197D01*
X164501276Y-67485198D01*
X164495248Y-67487882D01*
X164340747Y-67600134D01*
X164336326Y-67605044D01*
X164336325Y-67605045D01*
X164286545Y-67660332D01*
X164212960Y-67742056D01*
X164209659Y-67747774D01*
X164171119Y-67814527D01*
X164119737Y-67863520D01*
X164050023Y-67876956D01*
X163984112Y-67850570D01*
X163942930Y-67792738D01*
X163936000Y-67751527D01*
X163936000Y-62944000D01*
X163956002Y-62875879D01*
X164009658Y-62829386D01*
X164062000Y-62818000D01*
X171302000Y-62818000D01*
X171302000Y-58184000D01*
X171322002Y-58115879D01*
X171375658Y-58069386D01*
X171428000Y-58058000D01*
X186565026Y-58058000D01*
X186633147Y-58078002D01*
G37*
%TD.AperFunction*%
%TD*%
%TA.AperFunction,Conductor*%
%TO.N,+3V3*%
G36*
X133652121Y-59282002D02*
G01*
X133698614Y-59335658D01*
X133710000Y-59388000D01*
X133710000Y-60914000D01*
X133689998Y-60982121D01*
X133636342Y-61028614D01*
X133584000Y-61040000D01*
X130280000Y-61040000D01*
X130211879Y-61019998D01*
X130165386Y-60966342D01*
X130154000Y-60914000D01*
X130154000Y-59388000D01*
X130174002Y-59319879D01*
X130227658Y-59273386D01*
X130280000Y-59262000D01*
X133584000Y-59262000D01*
X133652121Y-59282002D01*
G37*
%TD.AperFunction*%
%TD*%
%TA.AperFunction,Conductor*%
%TO.N,+5V*%
G36*
X130350121Y-65378002D02*
G01*
X130396614Y-65431658D01*
X130408000Y-65484000D01*
X130408000Y-67772000D01*
X130387998Y-67840121D01*
X130334342Y-67886614D01*
X130282000Y-67898000D01*
X124946000Y-67898000D01*
X124877879Y-67877998D01*
X124831386Y-67824342D01*
X124820000Y-67772000D01*
X124820000Y-65484000D01*
X124840002Y-65415879D01*
X124893658Y-65369386D01*
X124946000Y-65358000D01*
X130282000Y-65358000D01*
X130350121Y-65378002D01*
G37*
%TD.AperFunction*%
%TD*%
M02*
