%TF.GenerationSoftware,KiCad,Pcbnew,(6.0.0)*%
%TF.CreationDate,2022-03-10T17:49:05+08:00*%
%TF.ProjectId,st_usbAudioV1_demo,73745f75-7362-4417-9564-696f56315f64,rev?*%
%TF.SameCoordinates,Original*%
%TF.FileFunction,Legend,Bot*%
%TF.FilePolarity,Positive*%
%FSLAX46Y46*%
G04 Gerber Fmt 4.6, Leading zero omitted, Abs format (unit mm)*
G04 Created by KiCad (PCBNEW (6.0.0)) date 2022-03-10 17:49:05*
%MOMM*%
%LPD*%
G01*
G04 APERTURE LIST*
%ADD10C,0.150000*%
%ADD11C,0.010000*%
%ADD12C,0.120000*%
G04 APERTURE END LIST*
D10*
X143279714Y-81970571D02*
X143136857Y-82018190D01*
X143089238Y-82065809D01*
X143041619Y-82161047D01*
X143041619Y-82303904D01*
X143089238Y-82399142D01*
X143136857Y-82446761D01*
X143232095Y-82494380D01*
X143613047Y-82494380D01*
X143613047Y-81494380D01*
X143279714Y-81494380D01*
X143184476Y-81542000D01*
X143136857Y-81589619D01*
X143089238Y-81684857D01*
X143089238Y-81780095D01*
X143136857Y-81875333D01*
X143184476Y-81922952D01*
X143279714Y-81970571D01*
X143613047Y-81970571D01*
X142755904Y-81494380D02*
X142184476Y-81494380D01*
X142470190Y-82494380D02*
X142470190Y-81494380D01*
X141660666Y-81494380D02*
X141565428Y-81494380D01*
X141470190Y-81542000D01*
X141422571Y-81589619D01*
X141374952Y-81684857D01*
X141327333Y-81875333D01*
X141327333Y-82113428D01*
X141374952Y-82303904D01*
X141422571Y-82399142D01*
X141470190Y-82446761D01*
X141565428Y-82494380D01*
X141660666Y-82494380D01*
X141755904Y-82446761D01*
X141803523Y-82399142D01*
X141851142Y-82303904D01*
X141898761Y-82113428D01*
X141898761Y-81875333D01*
X141851142Y-81684857D01*
X141803523Y-81589619D01*
X141755904Y-81542000D01*
X141660666Y-81494380D01*
X140406380Y-65524190D02*
X139406380Y-65524190D01*
X139406380Y-65762285D01*
X139454000Y-65905142D01*
X139549238Y-66000380D01*
X139644476Y-66048000D01*
X139834952Y-66095619D01*
X139977809Y-66095619D01*
X140168285Y-66048000D01*
X140263523Y-66000380D01*
X140358761Y-65905142D01*
X140406380Y-65762285D01*
X140406380Y-65524190D01*
X140406380Y-66524190D02*
X139406380Y-66524190D01*
X139406380Y-67190857D02*
X139406380Y-67381333D01*
X139454000Y-67476571D01*
X139549238Y-67571809D01*
X139739714Y-67619428D01*
X140073047Y-67619428D01*
X140263523Y-67571809D01*
X140358761Y-67476571D01*
X140406380Y-67381333D01*
X140406380Y-67190857D01*
X140358761Y-67095619D01*
X140263523Y-67000380D01*
X140073047Y-66952761D01*
X139739714Y-66952761D01*
X139549238Y-67000380D01*
X139454000Y-67095619D01*
X139406380Y-67190857D01*
X141692380Y-58674095D02*
X141692380Y-59245523D01*
X142692380Y-58959809D02*
X141692380Y-58959809D01*
X141692380Y-59483619D02*
X142692380Y-60150285D01*
X141692380Y-60150285D02*
X142692380Y-59483619D01*
X140057142Y-58840761D02*
X140104761Y-58793142D01*
X140152380Y-58650285D01*
X140152380Y-58555047D01*
X140104761Y-58412190D01*
X140009523Y-58316952D01*
X139914285Y-58269333D01*
X139723809Y-58221714D01*
X139580952Y-58221714D01*
X139390476Y-58269333D01*
X139295238Y-58316952D01*
X139200000Y-58412190D01*
X139152380Y-58555047D01*
X139152380Y-58650285D01*
X139200000Y-58793142D01*
X139247619Y-58840761D01*
X140152380Y-59745523D02*
X140152380Y-59269333D01*
X139152380Y-59269333D01*
X140152380Y-60078857D02*
X139152380Y-60078857D01*
X140152380Y-60650285D02*
X139580952Y-60221714D01*
X139152380Y-60650285D02*
X139723809Y-60078857D01*
X137168000Y-58674095D02*
X137120380Y-58578857D01*
X137120380Y-58436000D01*
X137168000Y-58293142D01*
X137263238Y-58197904D01*
X137358476Y-58150285D01*
X137548952Y-58102666D01*
X137691809Y-58102666D01*
X137882285Y-58150285D01*
X137977523Y-58197904D01*
X138072761Y-58293142D01*
X138120380Y-58436000D01*
X138120380Y-58531238D01*
X138072761Y-58674095D01*
X138025142Y-58721714D01*
X137691809Y-58721714D01*
X137691809Y-58531238D01*
X138120380Y-59150285D02*
X137120380Y-59150285D01*
X138120380Y-59721714D01*
X137120380Y-59721714D01*
X138120380Y-60197904D02*
X137120380Y-60197904D01*
X137120380Y-60436000D01*
X137168000Y-60578857D01*
X137263238Y-60674095D01*
X137358476Y-60721714D01*
X137548952Y-60769333D01*
X137691809Y-60769333D01*
X137882285Y-60721714D01*
X137977523Y-60674095D01*
X138072761Y-60578857D01*
X138120380Y-60436000D01*
X138120380Y-60197904D01*
%TO.C,C10*%
X153869106Y-83871969D02*
X153936450Y-83871969D01*
X154071137Y-83804625D01*
X154138480Y-83737282D01*
X154205824Y-83602595D01*
X154205824Y-83467908D01*
X154172152Y-83366893D01*
X154071137Y-83198534D01*
X153970122Y-83097519D01*
X153801763Y-82996503D01*
X153700748Y-82962832D01*
X153566061Y-82962832D01*
X153431374Y-83030175D01*
X153364030Y-83097519D01*
X153296687Y-83232206D01*
X153296687Y-83299549D01*
X153263015Y-84612748D02*
X153667076Y-84208687D01*
X153465045Y-84410717D02*
X152757938Y-83703610D01*
X152926297Y-83737282D01*
X153060984Y-83737282D01*
X153162000Y-83703610D01*
X152118175Y-84343374D02*
X152050832Y-84410717D01*
X152017160Y-84511732D01*
X152017160Y-84579076D01*
X152050832Y-84680091D01*
X152151847Y-84848450D01*
X152320206Y-85016809D01*
X152488564Y-85117824D01*
X152589580Y-85151496D01*
X152656923Y-85151496D01*
X152757938Y-85117824D01*
X152825282Y-85050480D01*
X152858954Y-84949465D01*
X152858954Y-84882122D01*
X152825282Y-84781106D01*
X152724267Y-84612748D01*
X152555908Y-84444389D01*
X152387549Y-84343374D01*
X152286534Y-84309702D01*
X152219190Y-84309702D01*
X152118175Y-84343374D01*
%TO.C,C9*%
X146420389Y-84208687D02*
X146487732Y-84208687D01*
X146622419Y-84141343D01*
X146689763Y-84074000D01*
X146757106Y-83939312D01*
X146757106Y-83804625D01*
X146723435Y-83703610D01*
X146622419Y-83535251D01*
X146521404Y-83434236D01*
X146353045Y-83333221D01*
X146252030Y-83299549D01*
X146117343Y-83299549D01*
X145982656Y-83366893D01*
X145915312Y-83434236D01*
X145847969Y-83568923D01*
X145847969Y-83636267D01*
X146151015Y-84612748D02*
X146016328Y-84747435D01*
X145915312Y-84781106D01*
X145847969Y-84781106D01*
X145679610Y-84747435D01*
X145511251Y-84646419D01*
X145241877Y-84377045D01*
X145208206Y-84276030D01*
X145208206Y-84208687D01*
X145241877Y-84107671D01*
X145376564Y-83972984D01*
X145477580Y-83939312D01*
X145544923Y-83939312D01*
X145645938Y-83972984D01*
X145814297Y-84141343D01*
X145847969Y-84242358D01*
X145847969Y-84309702D01*
X145814297Y-84410717D01*
X145679610Y-84545404D01*
X145578595Y-84579076D01*
X145511251Y-84579076D01*
X145410236Y-84545404D01*
%TO.C,Q1*%
X135223238Y-70143619D02*
X135318476Y-70096000D01*
X135413714Y-70000761D01*
X135556571Y-69857904D01*
X135651809Y-69810285D01*
X135747047Y-69810285D01*
X135699428Y-70048380D02*
X135794666Y-70000761D01*
X135889904Y-69905523D01*
X135937523Y-69715047D01*
X135937523Y-69381714D01*
X135889904Y-69191238D01*
X135794666Y-69096000D01*
X135699428Y-69048380D01*
X135508952Y-69048380D01*
X135413714Y-69096000D01*
X135318476Y-69191238D01*
X135270857Y-69381714D01*
X135270857Y-69715047D01*
X135318476Y-69905523D01*
X135413714Y-70000761D01*
X135508952Y-70048380D01*
X135699428Y-70048380D01*
X134318476Y-70048380D02*
X134889904Y-70048380D01*
X134604190Y-70048380D02*
X134604190Y-69048380D01*
X134699428Y-69191238D01*
X134794666Y-69286476D01*
X134889904Y-69334095D01*
%TO.C,C16*%
X159563969Y-74984893D02*
X159563969Y-74917549D01*
X159496625Y-74782862D01*
X159429282Y-74715519D01*
X159294595Y-74648175D01*
X159159908Y-74648175D01*
X159058893Y-74681847D01*
X158890534Y-74782862D01*
X158789519Y-74883877D01*
X158688503Y-75052236D01*
X158654832Y-75153251D01*
X158654832Y-75287938D01*
X158722175Y-75422625D01*
X158789519Y-75489969D01*
X158924206Y-75557312D01*
X158991549Y-75557312D01*
X160304748Y-75590984D02*
X159900687Y-75186923D01*
X160102717Y-75388954D02*
X159395610Y-76096061D01*
X159429282Y-75927702D01*
X159429282Y-75793015D01*
X159395610Y-75692000D01*
X160203732Y-76904183D02*
X160069045Y-76769496D01*
X160035374Y-76668480D01*
X160035374Y-76601137D01*
X160069045Y-76432778D01*
X160170061Y-76264419D01*
X160439435Y-75995045D01*
X160540450Y-75961374D01*
X160607793Y-75961374D01*
X160708809Y-75995045D01*
X160843496Y-76129732D01*
X160877167Y-76230748D01*
X160877167Y-76298091D01*
X160843496Y-76399106D01*
X160675137Y-76567465D01*
X160574122Y-76601137D01*
X160506778Y-76601137D01*
X160405763Y-76567465D01*
X160271076Y-76432778D01*
X160237404Y-76331763D01*
X160237404Y-76264419D01*
X160271076Y-76163404D01*
%TO.C,C1*%
X125833142Y-65619333D02*
X125880761Y-65571714D01*
X125928380Y-65428857D01*
X125928380Y-65333619D01*
X125880761Y-65190761D01*
X125785523Y-65095523D01*
X125690285Y-65047904D01*
X125499809Y-65000285D01*
X125356952Y-65000285D01*
X125166476Y-65047904D01*
X125071238Y-65095523D01*
X124976000Y-65190761D01*
X124928380Y-65333619D01*
X124928380Y-65428857D01*
X124976000Y-65571714D01*
X125023619Y-65619333D01*
X125928380Y-66571714D02*
X125928380Y-66000285D01*
X125928380Y-66286000D02*
X124928380Y-66286000D01*
X125071238Y-66190761D01*
X125166476Y-66095523D01*
X125214095Y-66000285D01*
%TO.C,C31*%
X181236857Y-78081142D02*
X181284476Y-78128761D01*
X181427333Y-78176380D01*
X181522571Y-78176380D01*
X181665428Y-78128761D01*
X181760666Y-78033523D01*
X181808285Y-77938285D01*
X181855904Y-77747809D01*
X181855904Y-77604952D01*
X181808285Y-77414476D01*
X181760666Y-77319238D01*
X181665428Y-77224000D01*
X181522571Y-77176380D01*
X181427333Y-77176380D01*
X181284476Y-77224000D01*
X181236857Y-77271619D01*
X180903523Y-77176380D02*
X180284476Y-77176380D01*
X180617809Y-77557333D01*
X180474952Y-77557333D01*
X180379714Y-77604952D01*
X180332095Y-77652571D01*
X180284476Y-77747809D01*
X180284476Y-77985904D01*
X180332095Y-78081142D01*
X180379714Y-78128761D01*
X180474952Y-78176380D01*
X180760666Y-78176380D01*
X180855904Y-78128761D01*
X180903523Y-78081142D01*
X179332095Y-78176380D02*
X179903523Y-78176380D01*
X179617809Y-78176380D02*
X179617809Y-77176380D01*
X179713047Y-77319238D01*
X179808285Y-77414476D01*
X179903523Y-77462095D01*
%TO.C,TP2*%
X136643904Y-60060380D02*
X136072476Y-60060380D01*
X136358190Y-61060380D02*
X136358190Y-60060380D01*
X135739142Y-61060380D02*
X135739142Y-60060380D01*
X135358190Y-60060380D01*
X135262952Y-60108000D01*
X135215333Y-60155619D01*
X135167714Y-60250857D01*
X135167714Y-60393714D01*
X135215333Y-60488952D01*
X135262952Y-60536571D01*
X135358190Y-60584190D01*
X135739142Y-60584190D01*
X134786761Y-60155619D02*
X134739142Y-60108000D01*
X134643904Y-60060380D01*
X134405809Y-60060380D01*
X134310571Y-60108000D01*
X134262952Y-60155619D01*
X134215333Y-60250857D01*
X134215333Y-60346095D01*
X134262952Y-60488952D01*
X134834380Y-61060380D01*
X134215333Y-61060380D01*
%TO.C,C6*%
X143168666Y-76049142D02*
X143216285Y-76096761D01*
X143359142Y-76144380D01*
X143454380Y-76144380D01*
X143597238Y-76096761D01*
X143692476Y-76001523D01*
X143740095Y-75906285D01*
X143787714Y-75715809D01*
X143787714Y-75572952D01*
X143740095Y-75382476D01*
X143692476Y-75287238D01*
X143597238Y-75192000D01*
X143454380Y-75144380D01*
X143359142Y-75144380D01*
X143216285Y-75192000D01*
X143168666Y-75239619D01*
X142311523Y-75144380D02*
X142502000Y-75144380D01*
X142597238Y-75192000D01*
X142644857Y-75239619D01*
X142740095Y-75382476D01*
X142787714Y-75572952D01*
X142787714Y-75953904D01*
X142740095Y-76049142D01*
X142692476Y-76096761D01*
X142597238Y-76144380D01*
X142406761Y-76144380D01*
X142311523Y-76096761D01*
X142263904Y-76049142D01*
X142216285Y-75953904D01*
X142216285Y-75715809D01*
X142263904Y-75620571D01*
X142311523Y-75572952D01*
X142406761Y-75525333D01*
X142597238Y-75525333D01*
X142692476Y-75572952D01*
X142740095Y-75620571D01*
X142787714Y-75715809D01*
%TO.C,U3*%
X157225904Y-86828380D02*
X157225904Y-87637904D01*
X157178285Y-87733142D01*
X157130666Y-87780761D01*
X157035428Y-87828380D01*
X156844952Y-87828380D01*
X156749714Y-87780761D01*
X156702095Y-87733142D01*
X156654476Y-87637904D01*
X156654476Y-86828380D01*
X156273523Y-86828380D02*
X155654476Y-86828380D01*
X155987809Y-87209333D01*
X155844952Y-87209333D01*
X155749714Y-87256952D01*
X155702095Y-87304571D01*
X155654476Y-87399809D01*
X155654476Y-87637904D01*
X155702095Y-87733142D01*
X155749714Y-87780761D01*
X155844952Y-87828380D01*
X156130666Y-87828380D01*
X156225904Y-87780761D01*
X156273523Y-87733142D01*
%TO.C,TP1*%
X144009904Y-77938380D02*
X143438476Y-77938380D01*
X143724190Y-78938380D02*
X143724190Y-77938380D01*
X143105142Y-78938380D02*
X143105142Y-77938380D01*
X142724190Y-77938380D01*
X142628952Y-77986000D01*
X142581333Y-78033619D01*
X142533714Y-78128857D01*
X142533714Y-78271714D01*
X142581333Y-78366952D01*
X142628952Y-78414571D01*
X142724190Y-78462190D01*
X143105142Y-78462190D01*
X141581333Y-78938380D02*
X142152761Y-78938380D01*
X141867047Y-78938380D02*
X141867047Y-77938380D01*
X141962285Y-78081238D01*
X142057523Y-78176476D01*
X142152761Y-78224095D01*
%TO.C,X1*%
X157157194Y-69144355D02*
X157392896Y-70322866D01*
X156685790Y-69615759D02*
X157864301Y-69851461D01*
X156753133Y-70962629D02*
X157157194Y-70558568D01*
X156955164Y-70760599D02*
X156248057Y-70053492D01*
X156416416Y-70087164D01*
X156551103Y-70087164D01*
X156652118Y-70053492D01*
%TO.C,U2*%
X126706380Y-59690095D02*
X127515904Y-59690095D01*
X127611142Y-59737714D01*
X127658761Y-59785333D01*
X127706380Y-59880571D01*
X127706380Y-60071047D01*
X127658761Y-60166285D01*
X127611142Y-60213904D01*
X127515904Y-60261523D01*
X126706380Y-60261523D01*
X126801619Y-60690095D02*
X126754000Y-60737714D01*
X126706380Y-60832952D01*
X126706380Y-61071047D01*
X126754000Y-61166285D01*
X126801619Y-61213904D01*
X126896857Y-61261523D01*
X126992095Y-61261523D01*
X127134952Y-61213904D01*
X127706380Y-60642476D01*
X127706380Y-61261523D01*
%TO.C,C32*%
X159392857Y-67413142D02*
X159440476Y-67460761D01*
X159583333Y-67508380D01*
X159678571Y-67508380D01*
X159821428Y-67460761D01*
X159916666Y-67365523D01*
X159964285Y-67270285D01*
X160011904Y-67079809D01*
X160011904Y-66936952D01*
X159964285Y-66746476D01*
X159916666Y-66651238D01*
X159821428Y-66556000D01*
X159678571Y-66508380D01*
X159583333Y-66508380D01*
X159440476Y-66556000D01*
X159392857Y-66603619D01*
X159059523Y-66508380D02*
X158440476Y-66508380D01*
X158773809Y-66889333D01*
X158630952Y-66889333D01*
X158535714Y-66936952D01*
X158488095Y-66984571D01*
X158440476Y-67079809D01*
X158440476Y-67317904D01*
X158488095Y-67413142D01*
X158535714Y-67460761D01*
X158630952Y-67508380D01*
X158916666Y-67508380D01*
X159011904Y-67460761D01*
X159059523Y-67413142D01*
X158059523Y-66603619D02*
X158011904Y-66556000D01*
X157916666Y-66508380D01*
X157678571Y-66508380D01*
X157583333Y-66556000D01*
X157535714Y-66603619D01*
X157488095Y-66698857D01*
X157488095Y-66794095D01*
X157535714Y-66936952D01*
X158107142Y-67508380D01*
X157488095Y-67508380D01*
%TO.C,R3*%
X125134666Y-72588380D02*
X125468000Y-72112190D01*
X125706095Y-72588380D02*
X125706095Y-71588380D01*
X125325142Y-71588380D01*
X125229904Y-71636000D01*
X125182285Y-71683619D01*
X125134666Y-71778857D01*
X125134666Y-71921714D01*
X125182285Y-72016952D01*
X125229904Y-72064571D01*
X125325142Y-72112190D01*
X125706095Y-72112190D01*
X124801333Y-71588380D02*
X124182285Y-71588380D01*
X124515619Y-71969333D01*
X124372761Y-71969333D01*
X124277523Y-72016952D01*
X124229904Y-72064571D01*
X124182285Y-72159809D01*
X124182285Y-72397904D01*
X124229904Y-72493142D01*
X124277523Y-72540761D01*
X124372761Y-72588380D01*
X124658476Y-72588380D01*
X124753714Y-72540761D01*
X124801333Y-72493142D01*
%TO.C,C33*%
X181236857Y-76049142D02*
X181284476Y-76096761D01*
X181427333Y-76144380D01*
X181522571Y-76144380D01*
X181665428Y-76096761D01*
X181760666Y-76001523D01*
X181808285Y-75906285D01*
X181855904Y-75715809D01*
X181855904Y-75572952D01*
X181808285Y-75382476D01*
X181760666Y-75287238D01*
X181665428Y-75192000D01*
X181522571Y-75144380D01*
X181427333Y-75144380D01*
X181284476Y-75192000D01*
X181236857Y-75239619D01*
X180903523Y-75144380D02*
X180284476Y-75144380D01*
X180617809Y-75525333D01*
X180474952Y-75525333D01*
X180379714Y-75572952D01*
X180332095Y-75620571D01*
X180284476Y-75715809D01*
X180284476Y-75953904D01*
X180332095Y-76049142D01*
X180379714Y-76096761D01*
X180474952Y-76144380D01*
X180760666Y-76144380D01*
X180855904Y-76096761D01*
X180903523Y-76049142D01*
X179951142Y-75144380D02*
X179332095Y-75144380D01*
X179665428Y-75525333D01*
X179522571Y-75525333D01*
X179427333Y-75572952D01*
X179379714Y-75620571D01*
X179332095Y-75715809D01*
X179332095Y-75953904D01*
X179379714Y-76049142D01*
X179427333Y-76096761D01*
X179522571Y-76144380D01*
X179808285Y-76144380D01*
X179903523Y-76096761D01*
X179951142Y-76049142D01*
%TO.C,Y1*%
X149925881Y-76862446D02*
X150262599Y-77199164D01*
X149791194Y-76256355D02*
X149925881Y-76862446D01*
X149319790Y-76727759D01*
X149420805Y-78040957D02*
X149824866Y-77636896D01*
X149622835Y-77838927D02*
X148915729Y-77131820D01*
X149084087Y-77165492D01*
X149218774Y-77165492D01*
X149319790Y-77131820D01*
%TO.C,R22*%
X181236857Y-79700380D02*
X181570190Y-79224190D01*
X181808285Y-79700380D02*
X181808285Y-78700380D01*
X181427333Y-78700380D01*
X181332095Y-78748000D01*
X181284476Y-78795619D01*
X181236857Y-78890857D01*
X181236857Y-79033714D01*
X181284476Y-79128952D01*
X181332095Y-79176571D01*
X181427333Y-79224190D01*
X181808285Y-79224190D01*
X180855904Y-78795619D02*
X180808285Y-78748000D01*
X180713047Y-78700380D01*
X180474952Y-78700380D01*
X180379714Y-78748000D01*
X180332095Y-78795619D01*
X180284476Y-78890857D01*
X180284476Y-78986095D01*
X180332095Y-79128952D01*
X180903523Y-79700380D01*
X180284476Y-79700380D01*
X179903523Y-78795619D02*
X179855904Y-78748000D01*
X179760666Y-78700380D01*
X179522571Y-78700380D01*
X179427333Y-78748000D01*
X179379714Y-78795619D01*
X179332095Y-78890857D01*
X179332095Y-78986095D01*
X179379714Y-79128952D01*
X179951142Y-79700380D01*
X179332095Y-79700380D01*
%TO.C,C27*%
X169806857Y-68683142D02*
X169854476Y-68730761D01*
X169997333Y-68778380D01*
X170092571Y-68778380D01*
X170235428Y-68730761D01*
X170330666Y-68635523D01*
X170378285Y-68540285D01*
X170425904Y-68349809D01*
X170425904Y-68206952D01*
X170378285Y-68016476D01*
X170330666Y-67921238D01*
X170235428Y-67826000D01*
X170092571Y-67778380D01*
X169997333Y-67778380D01*
X169854476Y-67826000D01*
X169806857Y-67873619D01*
X169425904Y-67873619D02*
X169378285Y-67826000D01*
X169283047Y-67778380D01*
X169044952Y-67778380D01*
X168949714Y-67826000D01*
X168902095Y-67873619D01*
X168854476Y-67968857D01*
X168854476Y-68064095D01*
X168902095Y-68206952D01*
X169473523Y-68778380D01*
X168854476Y-68778380D01*
X168521142Y-67778380D02*
X167854476Y-67778380D01*
X168283047Y-68778380D01*
%TO.C,TP3*%
X136643904Y-62952380D02*
X136072476Y-62952380D01*
X136358190Y-63952380D02*
X136358190Y-62952380D01*
X135739142Y-63952380D02*
X135739142Y-62952380D01*
X135358190Y-62952380D01*
X135262952Y-63000000D01*
X135215333Y-63047619D01*
X135167714Y-63142857D01*
X135167714Y-63285714D01*
X135215333Y-63380952D01*
X135262952Y-63428571D01*
X135358190Y-63476190D01*
X135739142Y-63476190D01*
X134834380Y-62952380D02*
X134215333Y-62952380D01*
X134548666Y-63333333D01*
X134405809Y-63333333D01*
X134310571Y-63380952D01*
X134262952Y-63428571D01*
X134215333Y-63523809D01*
X134215333Y-63761904D01*
X134262952Y-63857142D01*
X134310571Y-63904761D01*
X134405809Y-63952380D01*
X134691523Y-63952380D01*
X134786761Y-63904761D01*
X134834380Y-63857142D01*
%TO.C,TP6*%
X136643904Y-61428380D02*
X136072476Y-61428380D01*
X136358190Y-62428380D02*
X136358190Y-61428380D01*
X135739142Y-62428380D02*
X135739142Y-61428380D01*
X135358190Y-61428380D01*
X135262952Y-61476000D01*
X135215333Y-61523619D01*
X135167714Y-61618857D01*
X135167714Y-61761714D01*
X135215333Y-61856952D01*
X135262952Y-61904571D01*
X135358190Y-61952190D01*
X135739142Y-61952190D01*
X134310571Y-61428380D02*
X134501047Y-61428380D01*
X134596285Y-61476000D01*
X134643904Y-61523619D01*
X134739142Y-61666476D01*
X134786761Y-61856952D01*
X134786761Y-62237904D01*
X134739142Y-62333142D01*
X134691523Y-62380761D01*
X134596285Y-62428380D01*
X134405809Y-62428380D01*
X134310571Y-62380761D01*
X134262952Y-62333142D01*
X134215333Y-62237904D01*
X134215333Y-61999809D01*
X134262952Y-61904571D01*
X134310571Y-61856952D01*
X134405809Y-61809333D01*
X134596285Y-61809333D01*
X134691523Y-61856952D01*
X134739142Y-61904571D01*
X134786761Y-61999809D01*
%TO.C,C28*%
X159392857Y-65127142D02*
X159440476Y-65174761D01*
X159583333Y-65222380D01*
X159678571Y-65222380D01*
X159821428Y-65174761D01*
X159916666Y-65079523D01*
X159964285Y-64984285D01*
X160011904Y-64793809D01*
X160011904Y-64650952D01*
X159964285Y-64460476D01*
X159916666Y-64365238D01*
X159821428Y-64270000D01*
X159678571Y-64222380D01*
X159583333Y-64222380D01*
X159440476Y-64270000D01*
X159392857Y-64317619D01*
X159011904Y-64317619D02*
X158964285Y-64270000D01*
X158869047Y-64222380D01*
X158630952Y-64222380D01*
X158535714Y-64270000D01*
X158488095Y-64317619D01*
X158440476Y-64412857D01*
X158440476Y-64508095D01*
X158488095Y-64650952D01*
X159059523Y-65222380D01*
X158440476Y-65222380D01*
X157869047Y-64650952D02*
X157964285Y-64603333D01*
X158011904Y-64555714D01*
X158059523Y-64460476D01*
X158059523Y-64412857D01*
X158011904Y-64317619D01*
X157964285Y-64270000D01*
X157869047Y-64222380D01*
X157678571Y-64222380D01*
X157583333Y-64270000D01*
X157535714Y-64317619D01*
X157488095Y-64412857D01*
X157488095Y-64460476D01*
X157535714Y-64555714D01*
X157583333Y-64603333D01*
X157678571Y-64650952D01*
X157869047Y-64650952D01*
X157964285Y-64698571D01*
X158011904Y-64746190D01*
X158059523Y-64841428D01*
X158059523Y-65031904D01*
X158011904Y-65127142D01*
X157964285Y-65174761D01*
X157869047Y-65222380D01*
X157678571Y-65222380D01*
X157583333Y-65174761D01*
X157535714Y-65127142D01*
X157488095Y-65031904D01*
X157488095Y-64841428D01*
X157535714Y-64746190D01*
X157583333Y-64698571D01*
X157678571Y-64650952D01*
%TO.C,R29*%
X139369857Y-72254380D02*
X139703190Y-71778190D01*
X139941285Y-72254380D02*
X139941285Y-71254380D01*
X139560333Y-71254380D01*
X139465095Y-71302000D01*
X139417476Y-71349619D01*
X139369857Y-71444857D01*
X139369857Y-71587714D01*
X139417476Y-71682952D01*
X139465095Y-71730571D01*
X139560333Y-71778190D01*
X139941285Y-71778190D01*
X138988904Y-71349619D02*
X138941285Y-71302000D01*
X138846047Y-71254380D01*
X138607952Y-71254380D01*
X138512714Y-71302000D01*
X138465095Y-71349619D01*
X138417476Y-71444857D01*
X138417476Y-71540095D01*
X138465095Y-71682952D01*
X139036523Y-72254380D01*
X138417476Y-72254380D01*
X137941285Y-72254380D02*
X137750809Y-72254380D01*
X137655571Y-72206761D01*
X137607952Y-72159142D01*
X137512714Y-72016285D01*
X137465095Y-71825809D01*
X137465095Y-71444857D01*
X137512714Y-71349619D01*
X137560333Y-71302000D01*
X137655571Y-71254380D01*
X137846047Y-71254380D01*
X137941285Y-71302000D01*
X137988904Y-71349619D01*
X138036523Y-71444857D01*
X138036523Y-71682952D01*
X137988904Y-71778190D01*
X137941285Y-71825809D01*
X137846047Y-71873428D01*
X137655571Y-71873428D01*
X137560333Y-71825809D01*
X137512714Y-71778190D01*
X137465095Y-71682952D01*
%TO.C,C21*%
X153296857Y-61749142D02*
X153344476Y-61796761D01*
X153487333Y-61844380D01*
X153582571Y-61844380D01*
X153725428Y-61796761D01*
X153820666Y-61701523D01*
X153868285Y-61606285D01*
X153915904Y-61415809D01*
X153915904Y-61272952D01*
X153868285Y-61082476D01*
X153820666Y-60987238D01*
X153725428Y-60892000D01*
X153582571Y-60844380D01*
X153487333Y-60844380D01*
X153344476Y-60892000D01*
X153296857Y-60939619D01*
X152915904Y-60939619D02*
X152868285Y-60892000D01*
X152773047Y-60844380D01*
X152534952Y-60844380D01*
X152439714Y-60892000D01*
X152392095Y-60939619D01*
X152344476Y-61034857D01*
X152344476Y-61130095D01*
X152392095Y-61272952D01*
X152963523Y-61844380D01*
X152344476Y-61844380D01*
X151392095Y-61844380D02*
X151963523Y-61844380D01*
X151677809Y-61844380D02*
X151677809Y-60844380D01*
X151773047Y-60987238D01*
X151868285Y-61082476D01*
X151963523Y-61130095D01*
%TO.C,R6*%
X155377732Y-82244030D02*
X155276717Y-81671610D01*
X155781793Y-81839969D02*
X155074687Y-81132862D01*
X154805312Y-81402236D01*
X154771641Y-81503251D01*
X154771641Y-81570595D01*
X154805312Y-81671610D01*
X154906328Y-81772625D01*
X155007343Y-81806297D01*
X155074687Y-81806297D01*
X155175702Y-81772625D01*
X155445076Y-81503251D01*
X154064534Y-82143015D02*
X154199221Y-82008328D01*
X154300236Y-81974656D01*
X154367580Y-81974656D01*
X154535938Y-82008328D01*
X154704297Y-82109343D01*
X154973671Y-82378717D01*
X155007343Y-82479732D01*
X155007343Y-82547076D01*
X154973671Y-82648091D01*
X154838984Y-82782778D01*
X154737969Y-82816450D01*
X154670625Y-82816450D01*
X154569610Y-82782778D01*
X154401251Y-82614419D01*
X154367580Y-82513404D01*
X154367580Y-82446061D01*
X154401251Y-82345045D01*
X154535938Y-82210358D01*
X154636954Y-82176687D01*
X154704297Y-82176687D01*
X154805312Y-82210358D01*
%TO.C,L2*%
X158933732Y-72592030D02*
X159270450Y-72255312D01*
X158563343Y-71548206D01*
X158091938Y-72154297D02*
X158024595Y-72154297D01*
X157923580Y-72187969D01*
X157755221Y-72356328D01*
X157721549Y-72457343D01*
X157721549Y-72524687D01*
X157755221Y-72625702D01*
X157822564Y-72693045D01*
X157957251Y-72760389D01*
X158765374Y-72760389D01*
X158327641Y-73198122D01*
%TO.C,R19*%
X132193857Y-72127380D02*
X132527190Y-71651190D01*
X132765285Y-72127380D02*
X132765285Y-71127380D01*
X132384333Y-71127380D01*
X132289095Y-71175000D01*
X132241476Y-71222619D01*
X132193857Y-71317857D01*
X132193857Y-71460714D01*
X132241476Y-71555952D01*
X132289095Y-71603571D01*
X132384333Y-71651190D01*
X132765285Y-71651190D01*
X131241476Y-72127380D02*
X131812904Y-72127380D01*
X131527190Y-72127380D02*
X131527190Y-71127380D01*
X131622428Y-71270238D01*
X131717666Y-71365476D01*
X131812904Y-71413095D01*
X130765285Y-72127380D02*
X130574809Y-72127380D01*
X130479571Y-72079761D01*
X130431952Y-72032142D01*
X130336714Y-71889285D01*
X130289095Y-71698809D01*
X130289095Y-71317857D01*
X130336714Y-71222619D01*
X130384333Y-71175000D01*
X130479571Y-71127380D01*
X130670047Y-71127380D01*
X130765285Y-71175000D01*
X130812904Y-71222619D01*
X130860523Y-71317857D01*
X130860523Y-71555952D01*
X130812904Y-71651190D01*
X130765285Y-71698809D01*
X130670047Y-71746428D01*
X130479571Y-71746428D01*
X130384333Y-71698809D01*
X130336714Y-71651190D01*
X130289095Y-71555952D01*
%TO.C,C7*%
X137517142Y-68667333D02*
X137564761Y-68619714D01*
X137612380Y-68476857D01*
X137612380Y-68381619D01*
X137564761Y-68238761D01*
X137469523Y-68143523D01*
X137374285Y-68095904D01*
X137183809Y-68048285D01*
X137040952Y-68048285D01*
X136850476Y-68095904D01*
X136755238Y-68143523D01*
X136660000Y-68238761D01*
X136612380Y-68381619D01*
X136612380Y-68476857D01*
X136660000Y-68619714D01*
X136707619Y-68667333D01*
X136612380Y-69000666D02*
X136612380Y-69667333D01*
X137612380Y-69238761D01*
%TO.C,R4*%
X124880666Y-70810380D02*
X125214000Y-70334190D01*
X125452095Y-70810380D02*
X125452095Y-69810380D01*
X125071142Y-69810380D01*
X124975904Y-69858000D01*
X124928285Y-69905619D01*
X124880666Y-70000857D01*
X124880666Y-70143714D01*
X124928285Y-70238952D01*
X124975904Y-70286571D01*
X125071142Y-70334190D01*
X125452095Y-70334190D01*
X124023523Y-70143714D02*
X124023523Y-70810380D01*
X124261619Y-69762761D02*
X124499714Y-70477047D01*
X123880666Y-70477047D01*
%TO.C,C11*%
X158441106Y-79299969D02*
X158508450Y-79299969D01*
X158643137Y-79232625D01*
X158710480Y-79165282D01*
X158777824Y-79030595D01*
X158777824Y-78895908D01*
X158744152Y-78794893D01*
X158643137Y-78626534D01*
X158542122Y-78525519D01*
X158373763Y-78424503D01*
X158272748Y-78390832D01*
X158138061Y-78390832D01*
X158003374Y-78458175D01*
X157936030Y-78525519D01*
X157868687Y-78660206D01*
X157868687Y-78727549D01*
X157835015Y-80040748D02*
X158239076Y-79636687D01*
X158037045Y-79838717D02*
X157329938Y-79131610D01*
X157498297Y-79165282D01*
X157632984Y-79165282D01*
X157734000Y-79131610D01*
X157161580Y-80714183D02*
X157565641Y-80310122D01*
X157363610Y-80512152D02*
X156656503Y-79805045D01*
X156824862Y-79838717D01*
X156959549Y-79838717D01*
X157060564Y-79805045D01*
%TO.C,TP4*%
X136643904Y-58634380D02*
X136072476Y-58634380D01*
X136358190Y-59634380D02*
X136358190Y-58634380D01*
X135739142Y-59634380D02*
X135739142Y-58634380D01*
X135358190Y-58634380D01*
X135262952Y-58682000D01*
X135215333Y-58729619D01*
X135167714Y-58824857D01*
X135167714Y-58967714D01*
X135215333Y-59062952D01*
X135262952Y-59110571D01*
X135358190Y-59158190D01*
X135739142Y-59158190D01*
X134310571Y-58967714D02*
X134310571Y-59634380D01*
X134548666Y-58586761D02*
X134786761Y-59301047D01*
X134167714Y-59301047D01*
%TO.C,C17*%
X146915142Y-61841142D02*
X146962761Y-61793523D01*
X147010380Y-61650666D01*
X147010380Y-61555428D01*
X146962761Y-61412571D01*
X146867523Y-61317333D01*
X146772285Y-61269714D01*
X146581809Y-61222095D01*
X146438952Y-61222095D01*
X146248476Y-61269714D01*
X146153238Y-61317333D01*
X146058000Y-61412571D01*
X146010380Y-61555428D01*
X146010380Y-61650666D01*
X146058000Y-61793523D01*
X146105619Y-61841142D01*
X147010380Y-62793523D02*
X147010380Y-62222095D01*
X147010380Y-62507809D02*
X146010380Y-62507809D01*
X146153238Y-62412571D01*
X146248476Y-62317333D01*
X146296095Y-62222095D01*
X146010380Y-63126857D02*
X146010380Y-63793523D01*
X147010380Y-63364952D01*
D11*
%TO.C,REF\u002A\u002A*%
X177190400Y-81563054D02*
X177179535Y-81676993D01*
X177179535Y-81676993D02*
X177147918Y-81784616D01*
X177147918Y-81784616D02*
X177097015Y-81883615D01*
X177097015Y-81883615D02*
X177028293Y-81971684D01*
X177028293Y-81971684D02*
X176943219Y-82046516D01*
X176943219Y-82046516D02*
X176846232Y-82104384D01*
X176846232Y-82104384D02*
X176739964Y-82144005D01*
X176739964Y-82144005D02*
X176632950Y-82162573D01*
X176632950Y-82162573D02*
X176527300Y-82161434D01*
X176527300Y-82161434D02*
X176425125Y-82141930D01*
X176425125Y-82141930D02*
X176328534Y-82105406D01*
X176328534Y-82105406D02*
X176239638Y-82053205D01*
X176239638Y-82053205D02*
X176160546Y-81986673D01*
X176160546Y-81986673D02*
X176093369Y-81907152D01*
X176093369Y-81907152D02*
X176040217Y-81815987D01*
X176040217Y-81815987D02*
X176003199Y-81714523D01*
X176003199Y-81714523D02*
X175984427Y-81604102D01*
X175984427Y-81604102D02*
X175982489Y-81554206D01*
X175982489Y-81554206D02*
X175982489Y-81466267D01*
X175982489Y-81466267D02*
X175930560Y-81466267D01*
X175930560Y-81466267D02*
X175894253Y-81469111D01*
X175894253Y-81469111D02*
X175867355Y-81480911D01*
X175867355Y-81480911D02*
X175840249Y-81504649D01*
X175840249Y-81504649D02*
X175801867Y-81543031D01*
X175801867Y-81543031D02*
X175801867Y-83734602D01*
X175801867Y-83734602D02*
X175801876Y-83996739D01*
X175801876Y-83996739D02*
X175801908Y-84237241D01*
X175801908Y-84237241D02*
X175801972Y-84457048D01*
X175801972Y-84457048D02*
X175802076Y-84657101D01*
X175802076Y-84657101D02*
X175802227Y-84838344D01*
X175802227Y-84838344D02*
X175802434Y-85001716D01*
X175802434Y-85001716D02*
X175802706Y-85148160D01*
X175802706Y-85148160D02*
X175803050Y-85278617D01*
X175803050Y-85278617D02*
X175803474Y-85394029D01*
X175803474Y-85394029D02*
X175803987Y-85495338D01*
X175803987Y-85495338D02*
X175804597Y-85583484D01*
X175804597Y-85583484D02*
X175805312Y-85659410D01*
X175805312Y-85659410D02*
X175806140Y-85724057D01*
X175806140Y-85724057D02*
X175807089Y-85778367D01*
X175807089Y-85778367D02*
X175808167Y-85823280D01*
X175808167Y-85823280D02*
X175809383Y-85859740D01*
X175809383Y-85859740D02*
X175810745Y-85888687D01*
X175810745Y-85888687D02*
X175812261Y-85911063D01*
X175812261Y-85911063D02*
X175813938Y-85927809D01*
X175813938Y-85927809D02*
X175815786Y-85939868D01*
X175815786Y-85939868D02*
X175817813Y-85948180D01*
X175817813Y-85948180D02*
X175820025Y-85953687D01*
X175820025Y-85953687D02*
X175821108Y-85955537D01*
X175821108Y-85955537D02*
X175825271Y-85962549D01*
X175825271Y-85962549D02*
X175828805Y-85968996D01*
X175828805Y-85968996D02*
X175832635Y-85974900D01*
X175832635Y-85974900D02*
X175837682Y-85980286D01*
X175837682Y-85980286D02*
X175844871Y-85985178D01*
X175844871Y-85985178D02*
X175855123Y-85989598D01*
X175855123Y-85989598D02*
X175869364Y-85993572D01*
X175869364Y-85993572D02*
X175888514Y-85997121D01*
X175888514Y-85997121D02*
X175913499Y-86000270D01*
X175913499Y-86000270D02*
X175945240Y-86003042D01*
X175945240Y-86003042D02*
X175984662Y-86005461D01*
X175984662Y-86005461D02*
X176032686Y-86007551D01*
X176032686Y-86007551D02*
X176090237Y-86009335D01*
X176090237Y-86009335D02*
X176158237Y-86010837D01*
X176158237Y-86010837D02*
X176237610Y-86012080D01*
X176237610Y-86012080D02*
X176329279Y-86013089D01*
X176329279Y-86013089D02*
X176434166Y-86013885D01*
X176434166Y-86013885D02*
X176553196Y-86014494D01*
X176553196Y-86014494D02*
X176687290Y-86014939D01*
X176687290Y-86014939D02*
X176837373Y-86015243D01*
X176837373Y-86015243D02*
X177004367Y-86015430D01*
X177004367Y-86015430D02*
X177189196Y-86015524D01*
X177189196Y-86015524D02*
X177392783Y-86015548D01*
X177392783Y-86015548D02*
X177616050Y-86015525D01*
X177616050Y-86015525D02*
X177859922Y-86015480D01*
X177859922Y-86015480D02*
X178125321Y-86015437D01*
X178125321Y-86015437D02*
X178163704Y-86015432D01*
X178163704Y-86015432D02*
X178430682Y-86015389D01*
X178430682Y-86015389D02*
X178676002Y-86015318D01*
X178676002Y-86015318D02*
X178900583Y-86015213D01*
X178900583Y-86015213D02*
X179105345Y-86015066D01*
X179105345Y-86015066D02*
X179291206Y-86014869D01*
X179291206Y-86014869D02*
X179459088Y-86014616D01*
X179459088Y-86014616D02*
X179609908Y-86014300D01*
X179609908Y-86014300D02*
X179744587Y-86013913D01*
X179744587Y-86013913D02*
X179864044Y-86013447D01*
X179864044Y-86013447D02*
X179969199Y-86012897D01*
X179969199Y-86012897D02*
X180060971Y-86012253D01*
X180060971Y-86012253D02*
X180140279Y-86011511D01*
X180140279Y-86011511D02*
X180208043Y-86010661D01*
X180208043Y-86010661D02*
X180265182Y-86009697D01*
X180265182Y-86009697D02*
X180312617Y-86008611D01*
X180312617Y-86008611D02*
X180351266Y-86007397D01*
X180351266Y-86007397D02*
X180382049Y-86006047D01*
X180382049Y-86006047D02*
X180405885Y-86004555D01*
X180405885Y-86004555D02*
X180423694Y-86002911D01*
X180423694Y-86002911D02*
X180436395Y-86001111D01*
X180436395Y-86001111D02*
X180444908Y-85999145D01*
X180444908Y-85999145D02*
X180449266Y-85997477D01*
X180449266Y-85997477D02*
X180457728Y-85993906D01*
X180457728Y-85993906D02*
X180465497Y-85991270D01*
X180465497Y-85991270D02*
X180472602Y-85988634D01*
X180472602Y-85988634D02*
X180479073Y-85985062D01*
X180479073Y-85985062D02*
X180484939Y-85979621D01*
X180484939Y-85979621D02*
X180490229Y-85971375D01*
X180490229Y-85971375D02*
X180494974Y-85959390D01*
X180494974Y-85959390D02*
X180499202Y-85942731D01*
X180499202Y-85942731D02*
X180502943Y-85920463D01*
X180502943Y-85920463D02*
X180506227Y-85891652D01*
X180506227Y-85891652D02*
X180509083Y-85855363D01*
X180509083Y-85855363D02*
X180511540Y-85810661D01*
X180511540Y-85810661D02*
X180513629Y-85756611D01*
X180513629Y-85756611D02*
X180515378Y-85692279D01*
X180515378Y-85692279D02*
X180516817Y-85616730D01*
X180516817Y-85616730D02*
X180517976Y-85529030D01*
X180517976Y-85529030D02*
X180518883Y-85428243D01*
X180518883Y-85428243D02*
X180519569Y-85313434D01*
X180519569Y-85313434D02*
X180520063Y-85183670D01*
X180520063Y-85183670D02*
X180520395Y-85038015D01*
X180520395Y-85038015D02*
X180520593Y-84875535D01*
X180520593Y-84875535D02*
X180520687Y-84695295D01*
X180520687Y-84695295D02*
X180520708Y-84496360D01*
X180520708Y-84496360D02*
X180520685Y-84277796D01*
X180520685Y-84277796D02*
X180520646Y-84038668D01*
X180520646Y-84038668D02*
X180520622Y-83778040D01*
X180520622Y-83778040D02*
X180520622Y-83735889D01*
X180520622Y-83735889D02*
X180520636Y-83472992D01*
X180520636Y-83472992D02*
X180520661Y-83231732D01*
X180520661Y-83231732D02*
X180520671Y-83011165D01*
X180520671Y-83011165D02*
X180520642Y-82810352D01*
X180520642Y-82810352D02*
X180520548Y-82628349D01*
X180520548Y-82628349D02*
X180520362Y-82464216D01*
X180520362Y-82464216D02*
X180520059Y-82317011D01*
X180520059Y-82317011D02*
X180519614Y-82185792D01*
X180519614Y-82185792D02*
X180519034Y-82075867D01*
X180519034Y-82075867D02*
X180216197Y-82075867D01*
X180216197Y-82075867D02*
X180176407Y-82133711D01*
X180176407Y-82133711D02*
X180165236Y-82149479D01*
X180165236Y-82149479D02*
X180155166Y-82163441D01*
X180155166Y-82163441D02*
X180146138Y-82176784D01*
X180146138Y-82176784D02*
X180138097Y-82190693D01*
X180138097Y-82190693D02*
X180130986Y-82206356D01*
X180130986Y-82206356D02*
X180124747Y-82224958D01*
X180124747Y-82224958D02*
X180119325Y-82247686D01*
X180119325Y-82247686D02*
X180114662Y-82275727D01*
X180114662Y-82275727D02*
X180110701Y-82310267D01*
X180110701Y-82310267D02*
X180107385Y-82352492D01*
X180107385Y-82352492D02*
X180104659Y-82403589D01*
X180104659Y-82403589D02*
X180102464Y-82464744D01*
X180102464Y-82464744D02*
X180100745Y-82537144D01*
X180100745Y-82537144D02*
X180099444Y-82621975D01*
X180099444Y-82621975D02*
X180098505Y-82720422D01*
X180098505Y-82720422D02*
X180097870Y-82833674D01*
X180097870Y-82833674D02*
X180097484Y-82962916D01*
X180097484Y-82962916D02*
X180097288Y-83109334D01*
X180097288Y-83109334D02*
X180097227Y-83274116D01*
X180097227Y-83274116D02*
X180097243Y-83458447D01*
X180097243Y-83458447D02*
X180097280Y-83663513D01*
X180097280Y-83663513D02*
X180097289Y-83786133D01*
X180097289Y-83786133D02*
X180097265Y-84003082D01*
X180097265Y-84003082D02*
X180097231Y-84198642D01*
X180097231Y-84198642D02*
X180097243Y-84373999D01*
X180097243Y-84373999D02*
X180097358Y-84530341D01*
X180097358Y-84530341D02*
X180097630Y-84668857D01*
X180097630Y-84668857D02*
X180098118Y-84790734D01*
X180098118Y-84790734D02*
X180098876Y-84897160D01*
X180098876Y-84897160D02*
X180099962Y-84989322D01*
X180099962Y-84989322D02*
X180101431Y-85068409D01*
X180101431Y-85068409D02*
X180103340Y-85135608D01*
X180103340Y-85135608D02*
X180105744Y-85192107D01*
X180105744Y-85192107D02*
X180108701Y-85239093D01*
X180108701Y-85239093D02*
X180112266Y-85277755D01*
X180112266Y-85277755D02*
X180116495Y-85309280D01*
X180116495Y-85309280D02*
X180121446Y-85334855D01*
X180121446Y-85334855D02*
X180127173Y-85355670D01*
X180127173Y-85355670D02*
X180133733Y-85372911D01*
X180133733Y-85372911D02*
X180141183Y-85387765D01*
X180141183Y-85387765D02*
X180149579Y-85401422D01*
X180149579Y-85401422D02*
X180158976Y-85415069D01*
X180158976Y-85415069D02*
X180169432Y-85429893D01*
X180169432Y-85429893D02*
X180175523Y-85438783D01*
X180175523Y-85438783D02*
X180214296Y-85496400D01*
X180214296Y-85496400D02*
X179682732Y-85496400D01*
X179682732Y-85496400D02*
X179559483Y-85496365D01*
X179559483Y-85496365D02*
X179456987Y-85496215D01*
X179456987Y-85496215D02*
X179373420Y-85495878D01*
X179373420Y-85495878D02*
X179306956Y-85495286D01*
X179306956Y-85495286D02*
X179255771Y-85494367D01*
X179255771Y-85494367D02*
X179218041Y-85493051D01*
X179218041Y-85493051D02*
X179191940Y-85491269D01*
X179191940Y-85491269D02*
X179175644Y-85488951D01*
X179175644Y-85488951D02*
X179167328Y-85486026D01*
X179167328Y-85486026D02*
X179165168Y-85482424D01*
X179165168Y-85482424D02*
X179167339Y-85478075D01*
X179167339Y-85478075D02*
X179168535Y-85476645D01*
X179168535Y-85476645D02*
X179193685Y-85439573D01*
X179193685Y-85439573D02*
X179219583Y-85386772D01*
X179219583Y-85386772D02*
X179243192Y-85324770D01*
X179243192Y-85324770D02*
X179251461Y-85298357D01*
X179251461Y-85298357D02*
X179256078Y-85280416D01*
X179256078Y-85280416D02*
X179259979Y-85259355D01*
X179259979Y-85259355D02*
X179263248Y-85233089D01*
X179263248Y-85233089D02*
X179265966Y-85199532D01*
X179265966Y-85199532D02*
X179268215Y-85156599D01*
X179268215Y-85156599D02*
X179270077Y-85102204D01*
X179270077Y-85102204D02*
X179271636Y-85034262D01*
X179271636Y-85034262D02*
X179272972Y-84950688D01*
X179272972Y-84950688D02*
X179274169Y-84849395D01*
X179274169Y-84849395D02*
X179275308Y-84728300D01*
X179275308Y-84728300D02*
X179275685Y-84683600D01*
X179275685Y-84683600D02*
X179276702Y-84558449D01*
X179276702Y-84558449D02*
X179277460Y-84454082D01*
X179277460Y-84454082D02*
X179277903Y-84368707D01*
X179277903Y-84368707D02*
X179277970Y-84300533D01*
X179277970Y-84300533D02*
X179277605Y-84247765D01*
X179277605Y-84247765D02*
X179276748Y-84208614D01*
X179276748Y-84208614D02*
X179275341Y-84181285D01*
X179275341Y-84181285D02*
X179273325Y-84163986D01*
X179273325Y-84163986D02*
X179270643Y-84154926D01*
X179270643Y-84154926D02*
X179267236Y-84152312D01*
X179267236Y-84152312D02*
X179263044Y-84154351D01*
X179263044Y-84154351D02*
X179258571Y-84158667D01*
X179258571Y-84158667D02*
X179248216Y-84171602D01*
X179248216Y-84171602D02*
X179226158Y-84200676D01*
X179226158Y-84200676D02*
X179193957Y-84243759D01*
X179193957Y-84243759D02*
X179153174Y-84298718D01*
X179153174Y-84298718D02*
X179105370Y-84363423D01*
X179105370Y-84363423D02*
X179052105Y-84435742D01*
X179052105Y-84435742D02*
X178994940Y-84513544D01*
X178994940Y-84513544D02*
X178935437Y-84594698D01*
X178935437Y-84594698D02*
X178875155Y-84677072D01*
X178875155Y-84677072D02*
X178815655Y-84758536D01*
X178815655Y-84758536D02*
X178758498Y-84836957D01*
X178758498Y-84836957D02*
X178705245Y-84910204D01*
X178705245Y-84910204D02*
X178657457Y-84976147D01*
X178657457Y-84976147D02*
X178616693Y-85032654D01*
X178616693Y-85032654D02*
X178584516Y-85077593D01*
X178584516Y-85077593D02*
X178562485Y-85108834D01*
X178562485Y-85108834D02*
X178557917Y-85115466D01*
X178557917Y-85115466D02*
X178534996Y-85152369D01*
X178534996Y-85152369D02*
X178508188Y-85200359D01*
X178508188Y-85200359D02*
X178482789Y-85249897D01*
X178482789Y-85249897D02*
X178479568Y-85256577D01*
X178479568Y-85256577D02*
X178457890Y-85304772D01*
X178457890Y-85304772D02*
X178445304Y-85342334D01*
X178445304Y-85342334D02*
X178439574Y-85378160D01*
X178439574Y-85378160D02*
X178438456Y-85420200D01*
X178438456Y-85420200D02*
X178439090Y-85496400D01*
X178439090Y-85496400D02*
X177284651Y-85496400D01*
X177284651Y-85496400D02*
X177375815Y-85402669D01*
X177375815Y-85402669D02*
X177422612Y-85352775D01*
X177422612Y-85352775D02*
X177472899Y-85296295D01*
X177472899Y-85296295D02*
X177518944Y-85242026D01*
X177518944Y-85242026D02*
X177539369Y-85216673D01*
X177539369Y-85216673D02*
X177569807Y-85177128D01*
X177569807Y-85177128D02*
X177609862Y-85123916D01*
X177609862Y-85123916D02*
X177658361Y-85058667D01*
X177658361Y-85058667D02*
X177714135Y-84983011D01*
X177714135Y-84983011D02*
X177776011Y-84898577D01*
X177776011Y-84898577D02*
X177842819Y-84806994D01*
X177842819Y-84806994D02*
X177913387Y-84709892D01*
X177913387Y-84709892D02*
X177986545Y-84608901D01*
X177986545Y-84608901D02*
X178061121Y-84505650D01*
X178061121Y-84505650D02*
X178135944Y-84401768D01*
X178135944Y-84401768D02*
X178209843Y-84298885D01*
X178209843Y-84298885D02*
X178281646Y-84198631D01*
X178281646Y-84198631D02*
X178350184Y-84102636D01*
X178350184Y-84102636D02*
X178414284Y-84012527D01*
X178414284Y-84012527D02*
X178472775Y-83929936D01*
X178472775Y-83929936D02*
X178524486Y-83856492D01*
X178524486Y-83856492D02*
X178568247Y-83793824D01*
X178568247Y-83793824D02*
X178602885Y-83743561D01*
X178602885Y-83743561D02*
X178627230Y-83707334D01*
X178627230Y-83707334D02*
X178640111Y-83686771D01*
X178640111Y-83686771D02*
X178641869Y-83682668D01*
X178641869Y-83682668D02*
X178633910Y-83671342D01*
X178633910Y-83671342D02*
X178613115Y-83644162D01*
X178613115Y-83644162D02*
X178580847Y-83602829D01*
X178580847Y-83602829D02*
X178538470Y-83549044D01*
X178538470Y-83549044D02*
X178487347Y-83484506D01*
X178487347Y-83484506D02*
X178428841Y-83410918D01*
X178428841Y-83410918D02*
X178364314Y-83329978D01*
X178364314Y-83329978D02*
X178295131Y-83243388D01*
X178295131Y-83243388D02*
X178222653Y-83152848D01*
X178222653Y-83152848D02*
X178148246Y-83060060D01*
X178148246Y-83060060D02*
X178088517Y-82985702D01*
X178088517Y-82985702D02*
X177077511Y-82985702D01*
X177077511Y-82985702D02*
X177071602Y-82998659D01*
X177071602Y-82998659D02*
X177057272Y-83020908D01*
X177057272Y-83020908D02*
X177056225Y-83022391D01*
X177056225Y-83022391D02*
X177037438Y-83052544D01*
X177037438Y-83052544D02*
X177017791Y-83089375D01*
X177017791Y-83089375D02*
X177013892Y-83097511D01*
X177013892Y-83097511D02*
X177010356Y-83105940D01*
X177010356Y-83105940D02*
X177007230Y-83116059D01*
X177007230Y-83116059D02*
X177004486Y-83129260D01*
X177004486Y-83129260D02*
X177002092Y-83146938D01*
X177002092Y-83146938D02*
X177000019Y-83170484D01*
X177000019Y-83170484D02*
X176998235Y-83201293D01*
X176998235Y-83201293D02*
X176996712Y-83240757D01*
X176996712Y-83240757D02*
X176995419Y-83290269D01*
X176995419Y-83290269D02*
X176994326Y-83351223D01*
X176994326Y-83351223D02*
X176993403Y-83425011D01*
X176993403Y-83425011D02*
X176992619Y-83513028D01*
X176992619Y-83513028D02*
X176991945Y-83616665D01*
X176991945Y-83616665D02*
X176991350Y-83737316D01*
X176991350Y-83737316D02*
X176990805Y-83876374D01*
X176990805Y-83876374D02*
X176990279Y-84035232D01*
X176990279Y-84035232D02*
X176989745Y-84214089D01*
X176989745Y-84214089D02*
X176989206Y-84399207D01*
X176989206Y-84399207D02*
X176988772Y-84563145D01*
X176988772Y-84563145D02*
X176988509Y-84707303D01*
X176988509Y-84707303D02*
X176988484Y-84833079D01*
X176988484Y-84833079D02*
X176988765Y-84941871D01*
X176988765Y-84941871D02*
X176989419Y-85035077D01*
X176989419Y-85035077D02*
X176990514Y-85114097D01*
X176990514Y-85114097D02*
X176992118Y-85180328D01*
X176992118Y-85180328D02*
X176994297Y-85235170D01*
X176994297Y-85235170D02*
X176997119Y-85280021D01*
X176997119Y-85280021D02*
X177000651Y-85316278D01*
X177000651Y-85316278D02*
X177004961Y-85345341D01*
X177004961Y-85345341D02*
X177010117Y-85368609D01*
X177010117Y-85368609D02*
X177016185Y-85387479D01*
X177016185Y-85387479D02*
X177023233Y-85403351D01*
X177023233Y-85403351D02*
X177031329Y-85417622D01*
X177031329Y-85417622D02*
X177040540Y-85431691D01*
X177040540Y-85431691D02*
X177049040Y-85444158D01*
X177049040Y-85444158D02*
X177066176Y-85470452D01*
X177066176Y-85470452D02*
X177076322Y-85488037D01*
X177076322Y-85488037D02*
X177077511Y-85491257D01*
X177077511Y-85491257D02*
X177066604Y-85492334D01*
X177066604Y-85492334D02*
X177035411Y-85493335D01*
X177035411Y-85493335D02*
X176986223Y-85494235D01*
X176986223Y-85494235D02*
X176921333Y-85495010D01*
X176921333Y-85495010D02*
X176843030Y-85495637D01*
X176843030Y-85495637D02*
X176753607Y-85496091D01*
X176753607Y-85496091D02*
X176655356Y-85496349D01*
X176655356Y-85496349D02*
X176586445Y-85496400D01*
X176586445Y-85496400D02*
X176481452Y-85496180D01*
X176481452Y-85496180D02*
X176384610Y-85495548D01*
X176384610Y-85495548D02*
X176298107Y-85494549D01*
X176298107Y-85494549D02*
X176224132Y-85493227D01*
X176224132Y-85493227D02*
X176164874Y-85491626D01*
X176164874Y-85491626D02*
X176122520Y-85489791D01*
X176122520Y-85489791D02*
X176099260Y-85487765D01*
X176099260Y-85487765D02*
X176095378Y-85486493D01*
X176095378Y-85486493D02*
X176103076Y-85471591D01*
X176103076Y-85471591D02*
X176111074Y-85463560D01*
X176111074Y-85463560D02*
X176124246Y-85446434D01*
X176124246Y-85446434D02*
X176141485Y-85416183D01*
X176141485Y-85416183D02*
X176153407Y-85391622D01*
X176153407Y-85391622D02*
X176180045Y-85332711D01*
X176180045Y-85332711D02*
X176183120Y-84155845D01*
X176183120Y-84155845D02*
X176186195Y-82978978D01*
X176186195Y-82978978D02*
X176631853Y-82978978D01*
X176631853Y-82978978D02*
X176729670Y-82979142D01*
X176729670Y-82979142D02*
X176820064Y-82979611D01*
X176820064Y-82979611D02*
X176900630Y-82980347D01*
X176900630Y-82980347D02*
X176968962Y-82981316D01*
X176968962Y-82981316D02*
X177022656Y-82982480D01*
X177022656Y-82982480D02*
X177059305Y-82983803D01*
X177059305Y-82983803D02*
X177076504Y-82985249D01*
X177076504Y-82985249D02*
X177077511Y-82985702D01*
X177077511Y-82985702D02*
X178088517Y-82985702D01*
X178088517Y-82985702D02*
X178073270Y-82966722D01*
X178073270Y-82966722D02*
X177999090Y-82874537D01*
X177999090Y-82874537D02*
X177927069Y-82785204D01*
X177927069Y-82785204D02*
X177858569Y-82700424D01*
X177858569Y-82700424D02*
X177794955Y-82621898D01*
X177794955Y-82621898D02*
X177737588Y-82551326D01*
X177737588Y-82551326D02*
X177687833Y-82490409D01*
X177687833Y-82490409D02*
X177647052Y-82440847D01*
X177647052Y-82440847D02*
X177629888Y-82420178D01*
X177629888Y-82420178D02*
X177543596Y-82319516D01*
X177543596Y-82319516D02*
X177466997Y-82236259D01*
X177466997Y-82236259D02*
X177398183Y-82168438D01*
X177398183Y-82168438D02*
X177335248Y-82114089D01*
X177335248Y-82114089D02*
X177325867Y-82106722D01*
X177325867Y-82106722D02*
X177286356Y-82076117D01*
X177286356Y-82076117D02*
X178418116Y-82075867D01*
X178418116Y-82075867D02*
X178412827Y-82123844D01*
X178412827Y-82123844D02*
X178416130Y-82181188D01*
X178416130Y-82181188D02*
X178437661Y-82249463D01*
X178437661Y-82249463D02*
X178477635Y-82329212D01*
X178477635Y-82329212D02*
X178522943Y-82401495D01*
X178522943Y-82401495D02*
X178539161Y-82424140D01*
X178539161Y-82424140D02*
X178567214Y-82461696D01*
X178567214Y-82461696D02*
X178605430Y-82512021D01*
X178605430Y-82512021D02*
X178652137Y-82572973D01*
X178652137Y-82572973D02*
X178705661Y-82642411D01*
X178705661Y-82642411D02*
X178764331Y-82718194D01*
X178764331Y-82718194D02*
X178826475Y-82798180D01*
X178826475Y-82798180D02*
X178890421Y-82880228D01*
X178890421Y-82880228D02*
X178954495Y-82962196D01*
X178954495Y-82962196D02*
X179017027Y-83041943D01*
X179017027Y-83041943D02*
X179076343Y-83117327D01*
X179076343Y-83117327D02*
X179130771Y-83186207D01*
X179130771Y-83186207D02*
X179178639Y-83246442D01*
X179178639Y-83246442D02*
X179218275Y-83295889D01*
X179218275Y-83295889D02*
X179248006Y-83332408D01*
X179248006Y-83332408D02*
X179266161Y-83353858D01*
X179266161Y-83353858D02*
X179269220Y-83357156D01*
X179269220Y-83357156D02*
X179272079Y-83349149D01*
X179272079Y-83349149D02*
X179274293Y-83318855D01*
X179274293Y-83318855D02*
X179275857Y-83266556D01*
X179275857Y-83266556D02*
X179276767Y-83192531D01*
X179276767Y-83192531D02*
X179277020Y-83097063D01*
X179277020Y-83097063D02*
X179276613Y-82980434D01*
X179276613Y-82980434D02*
X179275704Y-82860445D01*
X179275704Y-82860445D02*
X179274382Y-82728333D01*
X179274382Y-82728333D02*
X179272857Y-82616594D01*
X179272857Y-82616594D02*
X179270881Y-82523025D01*
X179270881Y-82523025D02*
X179268206Y-82445419D01*
X179268206Y-82445419D02*
X179264582Y-82381574D01*
X179264582Y-82381574D02*
X179259761Y-82329283D01*
X179259761Y-82329283D02*
X179253494Y-82286344D01*
X179253494Y-82286344D02*
X179245532Y-82250551D01*
X179245532Y-82250551D02*
X179235627Y-82219700D01*
X179235627Y-82219700D02*
X179223531Y-82191586D01*
X179223531Y-82191586D02*
X179208993Y-82164005D01*
X179208993Y-82164005D02*
X179194311Y-82138966D01*
X179194311Y-82138966D02*
X179156314Y-82075867D01*
X179156314Y-82075867D02*
X180216197Y-82075867D01*
X180216197Y-82075867D02*
X180519034Y-82075867D01*
X180519034Y-82075867D02*
X180519001Y-82069617D01*
X180519001Y-82069617D02*
X180518195Y-81967544D01*
X180518195Y-81967544D02*
X180517170Y-81878633D01*
X180517170Y-81878633D02*
X180515900Y-81801941D01*
X180515900Y-81801941D02*
X180514360Y-81736527D01*
X180514360Y-81736527D02*
X180512524Y-81681449D01*
X180512524Y-81681449D02*
X180510367Y-81635765D01*
X180510367Y-81635765D02*
X180507863Y-81598534D01*
X180507863Y-81598534D02*
X180504987Y-81568813D01*
X180504987Y-81568813D02*
X180501713Y-81545662D01*
X180501713Y-81545662D02*
X180498015Y-81528139D01*
X180498015Y-81528139D02*
X180493869Y-81515301D01*
X180493869Y-81515301D02*
X180489247Y-81506208D01*
X180489247Y-81506208D02*
X180484126Y-81499918D01*
X180484126Y-81499918D02*
X180478478Y-81495488D01*
X180478478Y-81495488D02*
X180472279Y-81491978D01*
X180472279Y-81491978D02*
X180465504Y-81488445D01*
X180465504Y-81488445D02*
X180459508Y-81484876D01*
X180459508Y-81484876D02*
X180454275Y-81482300D01*
X180454275Y-81482300D02*
X180446099Y-81479972D01*
X180446099Y-81479972D02*
X180433886Y-81477878D01*
X180433886Y-81477878D02*
X180416541Y-81476007D01*
X180416541Y-81476007D02*
X180392969Y-81474347D01*
X180392969Y-81474347D02*
X180362077Y-81472884D01*
X180362077Y-81472884D02*
X180322768Y-81471608D01*
X180322768Y-81471608D02*
X180273950Y-81470504D01*
X180273950Y-81470504D02*
X180214527Y-81469561D01*
X180214527Y-81469561D02*
X180143404Y-81468767D01*
X180143404Y-81468767D02*
X180059488Y-81468109D01*
X180059488Y-81468109D02*
X179961683Y-81467575D01*
X179961683Y-81467575D02*
X179848894Y-81467153D01*
X179848894Y-81467153D02*
X179720029Y-81466829D01*
X179720029Y-81466829D02*
X179573991Y-81466592D01*
X179573991Y-81466592D02*
X179409686Y-81466430D01*
X179409686Y-81466430D02*
X179226020Y-81466330D01*
X179226020Y-81466330D02*
X179021897Y-81466280D01*
X179021897Y-81466280D02*
X178810753Y-81466267D01*
X178810753Y-81466267D02*
X177190400Y-81466267D01*
X177190400Y-81466267D02*
X177190400Y-81563054D01*
X177190400Y-81563054D02*
X177190400Y-81563054D01*
G36*
X180520059Y-82317011D02*
G01*
X180520362Y-82464216D01*
X180520548Y-82628349D01*
X180520642Y-82810352D01*
X180520671Y-83011165D01*
X180520661Y-83231732D01*
X180520636Y-83472992D01*
X180520622Y-83735889D01*
X180520622Y-83778040D01*
X180520646Y-84038668D01*
X180520685Y-84277796D01*
X180520708Y-84496360D01*
X180520687Y-84695295D01*
X180520593Y-84875535D01*
X180520395Y-85038015D01*
X180520063Y-85183670D01*
X180519569Y-85313434D01*
X180518883Y-85428243D01*
X180517976Y-85529030D01*
X180516817Y-85616730D01*
X180515378Y-85692279D01*
X180513629Y-85756611D01*
X180511540Y-85810661D01*
X180509083Y-85855363D01*
X180506227Y-85891652D01*
X180502943Y-85920463D01*
X180499202Y-85942731D01*
X180494974Y-85959390D01*
X180490229Y-85971375D01*
X180484939Y-85979621D01*
X180479073Y-85985062D01*
X180472602Y-85988634D01*
X180465497Y-85991270D01*
X180457728Y-85993906D01*
X180449266Y-85997477D01*
X180444908Y-85999145D01*
X180436395Y-86001111D01*
X180423694Y-86002911D01*
X180405885Y-86004555D01*
X180382049Y-86006047D01*
X180351266Y-86007397D01*
X180312617Y-86008611D01*
X180265182Y-86009697D01*
X180208043Y-86010661D01*
X180140279Y-86011511D01*
X180060971Y-86012253D01*
X179969199Y-86012897D01*
X179864044Y-86013447D01*
X179744587Y-86013913D01*
X179609908Y-86014300D01*
X179459088Y-86014616D01*
X179291206Y-86014869D01*
X179105345Y-86015066D01*
X178900583Y-86015213D01*
X178676002Y-86015318D01*
X178430682Y-86015389D01*
X178163704Y-86015432D01*
X178125321Y-86015437D01*
X177859922Y-86015480D01*
X177616050Y-86015525D01*
X177392783Y-86015548D01*
X177189196Y-86015524D01*
X177004367Y-86015430D01*
X176837373Y-86015243D01*
X176687290Y-86014939D01*
X176553196Y-86014494D01*
X176434166Y-86013885D01*
X176329279Y-86013089D01*
X176237610Y-86012080D01*
X176158237Y-86010837D01*
X176090237Y-86009335D01*
X176032686Y-86007551D01*
X175984662Y-86005461D01*
X175945240Y-86003042D01*
X175913499Y-86000270D01*
X175888514Y-85997121D01*
X175869364Y-85993572D01*
X175855123Y-85989598D01*
X175844871Y-85985178D01*
X175837682Y-85980286D01*
X175832635Y-85974900D01*
X175828805Y-85968996D01*
X175825271Y-85962549D01*
X175821108Y-85955537D01*
X175820025Y-85953687D01*
X175817813Y-85948180D01*
X175815786Y-85939868D01*
X175813938Y-85927809D01*
X175812261Y-85911063D01*
X175810745Y-85888687D01*
X175809383Y-85859740D01*
X175808167Y-85823280D01*
X175807089Y-85778367D01*
X175806140Y-85724057D01*
X175805312Y-85659410D01*
X175804597Y-85583484D01*
X175803987Y-85495338D01*
X175803942Y-85486493D01*
X176095378Y-85486493D01*
X176099260Y-85487765D01*
X176122520Y-85489791D01*
X176164874Y-85491626D01*
X176224132Y-85493227D01*
X176298107Y-85494549D01*
X176384610Y-85495548D01*
X176481452Y-85496180D01*
X176586445Y-85496400D01*
X177284651Y-85496400D01*
X178439090Y-85496400D01*
X178438456Y-85420200D01*
X178439574Y-85378160D01*
X178445304Y-85342334D01*
X178457890Y-85304772D01*
X178479568Y-85256577D01*
X178482789Y-85249897D01*
X178508188Y-85200359D01*
X178534996Y-85152369D01*
X178557917Y-85115466D01*
X178562485Y-85108834D01*
X178584516Y-85077593D01*
X178616693Y-85032654D01*
X178657457Y-84976147D01*
X178705245Y-84910204D01*
X178758498Y-84836957D01*
X178815655Y-84758536D01*
X178875155Y-84677072D01*
X178935437Y-84594698D01*
X178994940Y-84513544D01*
X179052105Y-84435742D01*
X179105370Y-84363423D01*
X179153174Y-84298718D01*
X179193957Y-84243759D01*
X179226158Y-84200676D01*
X179248216Y-84171602D01*
X179258571Y-84158667D01*
X179263044Y-84154351D01*
X179267236Y-84152312D01*
X179270643Y-84154926D01*
X179273325Y-84163986D01*
X179275341Y-84181285D01*
X179276748Y-84208614D01*
X179277605Y-84247765D01*
X179277970Y-84300533D01*
X179277903Y-84368707D01*
X179277460Y-84454082D01*
X179276702Y-84558449D01*
X179275685Y-84683600D01*
X179275308Y-84728300D01*
X179274169Y-84849395D01*
X179272972Y-84950688D01*
X179271636Y-85034262D01*
X179270077Y-85102204D01*
X179268215Y-85156599D01*
X179265966Y-85199532D01*
X179263248Y-85233089D01*
X179259979Y-85259355D01*
X179256078Y-85280416D01*
X179251461Y-85298357D01*
X179243192Y-85324770D01*
X179219583Y-85386772D01*
X179193685Y-85439573D01*
X179168535Y-85476645D01*
X179167339Y-85478075D01*
X179165168Y-85482424D01*
X179167328Y-85486026D01*
X179175644Y-85488951D01*
X179191940Y-85491269D01*
X179218041Y-85493051D01*
X179255771Y-85494367D01*
X179306956Y-85495286D01*
X179373420Y-85495878D01*
X179456987Y-85496215D01*
X179559483Y-85496365D01*
X179682732Y-85496400D01*
X180214296Y-85496400D01*
X180175523Y-85438783D01*
X180169432Y-85429893D01*
X180158976Y-85415069D01*
X180149579Y-85401422D01*
X180141183Y-85387765D01*
X180133733Y-85372911D01*
X180127173Y-85355670D01*
X180121446Y-85334855D01*
X180116495Y-85309280D01*
X180112266Y-85277755D01*
X180108701Y-85239093D01*
X180105744Y-85192107D01*
X180103340Y-85135608D01*
X180101431Y-85068409D01*
X180099962Y-84989322D01*
X180098876Y-84897160D01*
X180098118Y-84790734D01*
X180097630Y-84668857D01*
X180097358Y-84530341D01*
X180097243Y-84373999D01*
X180097231Y-84198642D01*
X180097265Y-84003082D01*
X180097289Y-83786133D01*
X180097280Y-83663513D01*
X180097243Y-83458447D01*
X180097227Y-83274116D01*
X180097288Y-83109334D01*
X180097484Y-82962916D01*
X180097870Y-82833674D01*
X180098505Y-82720422D01*
X180099444Y-82621975D01*
X180100745Y-82537144D01*
X180102464Y-82464744D01*
X180104659Y-82403589D01*
X180107385Y-82352492D01*
X180110701Y-82310267D01*
X180114662Y-82275727D01*
X180119325Y-82247686D01*
X180124747Y-82224958D01*
X180130986Y-82206356D01*
X180138097Y-82190693D01*
X180146138Y-82176784D01*
X180155166Y-82163441D01*
X180165236Y-82149479D01*
X180176407Y-82133711D01*
X180216197Y-82075867D01*
X179156314Y-82075867D01*
X179194311Y-82138966D01*
X179208993Y-82164005D01*
X179223531Y-82191586D01*
X179235627Y-82219700D01*
X179245532Y-82250551D01*
X179253494Y-82286344D01*
X179259761Y-82329283D01*
X179264582Y-82381574D01*
X179268206Y-82445419D01*
X179270881Y-82523025D01*
X179272857Y-82616594D01*
X179274382Y-82728333D01*
X179275704Y-82860445D01*
X179276613Y-82980434D01*
X179277020Y-83097063D01*
X179276767Y-83192531D01*
X179275857Y-83266556D01*
X179274293Y-83318855D01*
X179272079Y-83349149D01*
X179269220Y-83357156D01*
X179266161Y-83353858D01*
X179248006Y-83332408D01*
X179218275Y-83295889D01*
X179178639Y-83246442D01*
X179130771Y-83186207D01*
X179076343Y-83117327D01*
X179017027Y-83041943D01*
X178954495Y-82962196D01*
X178890421Y-82880228D01*
X178826475Y-82798180D01*
X178764331Y-82718194D01*
X178705661Y-82642411D01*
X178652137Y-82572973D01*
X178605430Y-82512021D01*
X178567214Y-82461696D01*
X178539161Y-82424140D01*
X178522943Y-82401495D01*
X178477635Y-82329212D01*
X178437661Y-82249463D01*
X178416130Y-82181188D01*
X178412827Y-82123844D01*
X178418116Y-82075867D01*
X177286356Y-82076117D01*
X177325867Y-82106722D01*
X177335248Y-82114089D01*
X177398183Y-82168438D01*
X177466997Y-82236259D01*
X177543596Y-82319516D01*
X177629888Y-82420178D01*
X177647052Y-82440847D01*
X177687833Y-82490409D01*
X177737588Y-82551326D01*
X177794955Y-82621898D01*
X177858569Y-82700424D01*
X177927069Y-82785204D01*
X177999090Y-82874537D01*
X178073270Y-82966722D01*
X178088517Y-82985702D01*
X178148246Y-83060060D01*
X178222653Y-83152848D01*
X178295131Y-83243388D01*
X178364314Y-83329978D01*
X178428841Y-83410918D01*
X178487347Y-83484506D01*
X178538470Y-83549044D01*
X178580847Y-83602829D01*
X178613115Y-83644162D01*
X178633910Y-83671342D01*
X178641869Y-83682668D01*
X178640111Y-83686771D01*
X178627230Y-83707334D01*
X178602885Y-83743561D01*
X178568247Y-83793824D01*
X178524486Y-83856492D01*
X178472775Y-83929936D01*
X178414284Y-84012527D01*
X178350184Y-84102636D01*
X178281646Y-84198631D01*
X178209843Y-84298885D01*
X178135944Y-84401768D01*
X178061121Y-84505650D01*
X177986545Y-84608901D01*
X177913387Y-84709892D01*
X177842819Y-84806994D01*
X177776011Y-84898577D01*
X177714135Y-84983011D01*
X177658361Y-85058667D01*
X177609862Y-85123916D01*
X177569807Y-85177128D01*
X177539369Y-85216673D01*
X177518944Y-85242026D01*
X177472899Y-85296295D01*
X177422612Y-85352775D01*
X177375815Y-85402669D01*
X177284651Y-85496400D01*
X176586445Y-85496400D01*
X176655356Y-85496349D01*
X176753607Y-85496091D01*
X176843030Y-85495637D01*
X176921333Y-85495010D01*
X176986223Y-85494235D01*
X177035411Y-85493335D01*
X177066604Y-85492334D01*
X177077511Y-85491257D01*
X177076322Y-85488037D01*
X177066176Y-85470452D01*
X177049040Y-85444158D01*
X177040540Y-85431691D01*
X177031329Y-85417622D01*
X177023233Y-85403351D01*
X177016185Y-85387479D01*
X177010117Y-85368609D01*
X177004961Y-85345341D01*
X177000651Y-85316278D01*
X176997119Y-85280021D01*
X176994297Y-85235170D01*
X176992118Y-85180328D01*
X176990514Y-85114097D01*
X176989419Y-85035077D01*
X176988765Y-84941871D01*
X176988484Y-84833079D01*
X176988509Y-84707303D01*
X176988772Y-84563145D01*
X176989206Y-84399207D01*
X176989745Y-84214089D01*
X176990279Y-84035232D01*
X176990805Y-83876374D01*
X176991350Y-83737316D01*
X176991945Y-83616665D01*
X176992619Y-83513028D01*
X176993403Y-83425011D01*
X176994326Y-83351223D01*
X176995419Y-83290269D01*
X176996712Y-83240757D01*
X176998235Y-83201293D01*
X177000019Y-83170484D01*
X177002092Y-83146938D01*
X177004486Y-83129260D01*
X177007230Y-83116059D01*
X177010356Y-83105940D01*
X177013892Y-83097511D01*
X177017791Y-83089375D01*
X177037438Y-83052544D01*
X177056225Y-83022391D01*
X177057272Y-83020908D01*
X177071602Y-82998659D01*
X177077511Y-82985702D01*
X177076504Y-82985249D01*
X177059305Y-82983803D01*
X177022656Y-82982480D01*
X176968962Y-82981316D01*
X176900630Y-82980347D01*
X176820064Y-82979611D01*
X176729670Y-82979142D01*
X176631853Y-82978978D01*
X176186195Y-82978978D01*
X176183120Y-84155845D01*
X176180045Y-85332711D01*
X176153407Y-85391622D01*
X176141485Y-85416183D01*
X176124246Y-85446434D01*
X176111074Y-85463560D01*
X176103076Y-85471591D01*
X176095378Y-85486493D01*
X175803942Y-85486493D01*
X175803474Y-85394029D01*
X175803050Y-85278617D01*
X175802706Y-85148160D01*
X175802434Y-85001716D01*
X175802227Y-84838344D01*
X175802076Y-84657101D01*
X175801972Y-84457048D01*
X175801908Y-84237241D01*
X175801876Y-83996739D01*
X175801867Y-83734602D01*
X175801867Y-81543031D01*
X175840249Y-81504649D01*
X175867355Y-81480911D01*
X175894253Y-81469111D01*
X175930560Y-81466267D01*
X175982489Y-81466267D01*
X175982489Y-81554206D01*
X175984427Y-81604102D01*
X176003199Y-81714523D01*
X176040217Y-81815987D01*
X176093369Y-81907152D01*
X176160546Y-81986673D01*
X176239638Y-82053205D01*
X176328534Y-82105406D01*
X176425125Y-82141930D01*
X176527300Y-82161434D01*
X176632950Y-82162573D01*
X176739964Y-82144005D01*
X176846232Y-82104384D01*
X176943219Y-82046516D01*
X177028293Y-81971684D01*
X177097015Y-81883615D01*
X177147918Y-81784616D01*
X177179535Y-81676993D01*
X177190400Y-81563054D01*
X177190400Y-81466267D01*
X178810753Y-81466267D01*
X179021897Y-81466280D01*
X179226020Y-81466330D01*
X179409686Y-81466430D01*
X179573991Y-81466592D01*
X179720029Y-81466829D01*
X179848894Y-81467153D01*
X179961683Y-81467575D01*
X180059488Y-81468109D01*
X180143404Y-81468767D01*
X180214527Y-81469561D01*
X180273950Y-81470504D01*
X180322768Y-81471608D01*
X180362077Y-81472884D01*
X180392969Y-81474347D01*
X180416541Y-81476007D01*
X180433886Y-81477878D01*
X180446099Y-81479972D01*
X180454275Y-81482300D01*
X180459508Y-81484876D01*
X180465504Y-81488445D01*
X180472279Y-81491978D01*
X180478478Y-81495488D01*
X180484126Y-81499918D01*
X180489247Y-81506208D01*
X180493869Y-81515301D01*
X180498015Y-81528139D01*
X180501713Y-81545662D01*
X180504987Y-81568813D01*
X180507863Y-81598534D01*
X180510367Y-81635765D01*
X180512524Y-81681449D01*
X180514360Y-81736527D01*
X180515900Y-81801941D01*
X180517170Y-81878633D01*
X180518195Y-81967544D01*
X180519001Y-82069617D01*
X180519034Y-82075867D01*
X180519614Y-82185792D01*
X180520059Y-82317011D01*
G37*
X180520059Y-82317011D02*
X180520362Y-82464216D01*
X180520548Y-82628349D01*
X180520642Y-82810352D01*
X180520671Y-83011165D01*
X180520661Y-83231732D01*
X180520636Y-83472992D01*
X180520622Y-83735889D01*
X180520622Y-83778040D01*
X180520646Y-84038668D01*
X180520685Y-84277796D01*
X180520708Y-84496360D01*
X180520687Y-84695295D01*
X180520593Y-84875535D01*
X180520395Y-85038015D01*
X180520063Y-85183670D01*
X180519569Y-85313434D01*
X180518883Y-85428243D01*
X180517976Y-85529030D01*
X180516817Y-85616730D01*
X180515378Y-85692279D01*
X180513629Y-85756611D01*
X180511540Y-85810661D01*
X180509083Y-85855363D01*
X180506227Y-85891652D01*
X180502943Y-85920463D01*
X180499202Y-85942731D01*
X180494974Y-85959390D01*
X180490229Y-85971375D01*
X180484939Y-85979621D01*
X180479073Y-85985062D01*
X180472602Y-85988634D01*
X180465497Y-85991270D01*
X180457728Y-85993906D01*
X180449266Y-85997477D01*
X180444908Y-85999145D01*
X180436395Y-86001111D01*
X180423694Y-86002911D01*
X180405885Y-86004555D01*
X180382049Y-86006047D01*
X180351266Y-86007397D01*
X180312617Y-86008611D01*
X180265182Y-86009697D01*
X180208043Y-86010661D01*
X180140279Y-86011511D01*
X180060971Y-86012253D01*
X179969199Y-86012897D01*
X179864044Y-86013447D01*
X179744587Y-86013913D01*
X179609908Y-86014300D01*
X179459088Y-86014616D01*
X179291206Y-86014869D01*
X179105345Y-86015066D01*
X178900583Y-86015213D01*
X178676002Y-86015318D01*
X178430682Y-86015389D01*
X178163704Y-86015432D01*
X178125321Y-86015437D01*
X177859922Y-86015480D01*
X177616050Y-86015525D01*
X177392783Y-86015548D01*
X177189196Y-86015524D01*
X177004367Y-86015430D01*
X176837373Y-86015243D01*
X176687290Y-86014939D01*
X176553196Y-86014494D01*
X176434166Y-86013885D01*
X176329279Y-86013089D01*
X176237610Y-86012080D01*
X176158237Y-86010837D01*
X176090237Y-86009335D01*
X176032686Y-86007551D01*
X175984662Y-86005461D01*
X175945240Y-86003042D01*
X175913499Y-86000270D01*
X175888514Y-85997121D01*
X175869364Y-85993572D01*
X175855123Y-85989598D01*
X175844871Y-85985178D01*
X175837682Y-85980286D01*
X175832635Y-85974900D01*
X175828805Y-85968996D01*
X175825271Y-85962549D01*
X175821108Y-85955537D01*
X175820025Y-85953687D01*
X175817813Y-85948180D01*
X175815786Y-85939868D01*
X175813938Y-85927809D01*
X175812261Y-85911063D01*
X175810745Y-85888687D01*
X175809383Y-85859740D01*
X175808167Y-85823280D01*
X175807089Y-85778367D01*
X175806140Y-85724057D01*
X175805312Y-85659410D01*
X175804597Y-85583484D01*
X175803987Y-85495338D01*
X175803942Y-85486493D01*
X176095378Y-85486493D01*
X176099260Y-85487765D01*
X176122520Y-85489791D01*
X176164874Y-85491626D01*
X176224132Y-85493227D01*
X176298107Y-85494549D01*
X176384610Y-85495548D01*
X176481452Y-85496180D01*
X176586445Y-85496400D01*
X177284651Y-85496400D01*
X178439090Y-85496400D01*
X178438456Y-85420200D01*
X178439574Y-85378160D01*
X178445304Y-85342334D01*
X178457890Y-85304772D01*
X178479568Y-85256577D01*
X178482789Y-85249897D01*
X178508188Y-85200359D01*
X178534996Y-85152369D01*
X178557917Y-85115466D01*
X178562485Y-85108834D01*
X178584516Y-85077593D01*
X178616693Y-85032654D01*
X178657457Y-84976147D01*
X178705245Y-84910204D01*
X178758498Y-84836957D01*
X178815655Y-84758536D01*
X178875155Y-84677072D01*
X178935437Y-84594698D01*
X178994940Y-84513544D01*
X179052105Y-84435742D01*
X179105370Y-84363423D01*
X179153174Y-84298718D01*
X179193957Y-84243759D01*
X179226158Y-84200676D01*
X179248216Y-84171602D01*
X179258571Y-84158667D01*
X179263044Y-84154351D01*
X179267236Y-84152312D01*
X179270643Y-84154926D01*
X179273325Y-84163986D01*
X179275341Y-84181285D01*
X179276748Y-84208614D01*
X179277605Y-84247765D01*
X179277970Y-84300533D01*
X179277903Y-84368707D01*
X179277460Y-84454082D01*
X179276702Y-84558449D01*
X179275685Y-84683600D01*
X179275308Y-84728300D01*
X179274169Y-84849395D01*
X179272972Y-84950688D01*
X179271636Y-85034262D01*
X179270077Y-85102204D01*
X179268215Y-85156599D01*
X179265966Y-85199532D01*
X179263248Y-85233089D01*
X179259979Y-85259355D01*
X179256078Y-85280416D01*
X179251461Y-85298357D01*
X179243192Y-85324770D01*
X179219583Y-85386772D01*
X179193685Y-85439573D01*
X179168535Y-85476645D01*
X179167339Y-85478075D01*
X179165168Y-85482424D01*
X179167328Y-85486026D01*
X179175644Y-85488951D01*
X179191940Y-85491269D01*
X179218041Y-85493051D01*
X179255771Y-85494367D01*
X179306956Y-85495286D01*
X179373420Y-85495878D01*
X179456987Y-85496215D01*
X179559483Y-85496365D01*
X179682732Y-85496400D01*
X180214296Y-85496400D01*
X180175523Y-85438783D01*
X180169432Y-85429893D01*
X180158976Y-85415069D01*
X180149579Y-85401422D01*
X180141183Y-85387765D01*
X180133733Y-85372911D01*
X180127173Y-85355670D01*
X180121446Y-85334855D01*
X180116495Y-85309280D01*
X180112266Y-85277755D01*
X180108701Y-85239093D01*
X180105744Y-85192107D01*
X180103340Y-85135608D01*
X180101431Y-85068409D01*
X180099962Y-84989322D01*
X180098876Y-84897160D01*
X180098118Y-84790734D01*
X180097630Y-84668857D01*
X180097358Y-84530341D01*
X180097243Y-84373999D01*
X180097231Y-84198642D01*
X180097265Y-84003082D01*
X180097289Y-83786133D01*
X180097280Y-83663513D01*
X180097243Y-83458447D01*
X180097227Y-83274116D01*
X180097288Y-83109334D01*
X180097484Y-82962916D01*
X180097870Y-82833674D01*
X180098505Y-82720422D01*
X180099444Y-82621975D01*
X180100745Y-82537144D01*
X180102464Y-82464744D01*
X180104659Y-82403589D01*
X180107385Y-82352492D01*
X180110701Y-82310267D01*
X180114662Y-82275727D01*
X180119325Y-82247686D01*
X180124747Y-82224958D01*
X180130986Y-82206356D01*
X180138097Y-82190693D01*
X180146138Y-82176784D01*
X180155166Y-82163441D01*
X180165236Y-82149479D01*
X180176407Y-82133711D01*
X180216197Y-82075867D01*
X179156314Y-82075867D01*
X179194311Y-82138966D01*
X179208993Y-82164005D01*
X179223531Y-82191586D01*
X179235627Y-82219700D01*
X179245532Y-82250551D01*
X179253494Y-82286344D01*
X179259761Y-82329283D01*
X179264582Y-82381574D01*
X179268206Y-82445419D01*
X179270881Y-82523025D01*
X179272857Y-82616594D01*
X179274382Y-82728333D01*
X179275704Y-82860445D01*
X179276613Y-82980434D01*
X179277020Y-83097063D01*
X179276767Y-83192531D01*
X179275857Y-83266556D01*
X179274293Y-83318855D01*
X179272079Y-83349149D01*
X179269220Y-83357156D01*
X179266161Y-83353858D01*
X179248006Y-83332408D01*
X179218275Y-83295889D01*
X179178639Y-83246442D01*
X179130771Y-83186207D01*
X179076343Y-83117327D01*
X179017027Y-83041943D01*
X178954495Y-82962196D01*
X178890421Y-82880228D01*
X178826475Y-82798180D01*
X178764331Y-82718194D01*
X178705661Y-82642411D01*
X178652137Y-82572973D01*
X178605430Y-82512021D01*
X178567214Y-82461696D01*
X178539161Y-82424140D01*
X178522943Y-82401495D01*
X178477635Y-82329212D01*
X178437661Y-82249463D01*
X178416130Y-82181188D01*
X178412827Y-82123844D01*
X178418116Y-82075867D01*
X177286356Y-82076117D01*
X177325867Y-82106722D01*
X177335248Y-82114089D01*
X177398183Y-82168438D01*
X177466997Y-82236259D01*
X177543596Y-82319516D01*
X177629888Y-82420178D01*
X177647052Y-82440847D01*
X177687833Y-82490409D01*
X177737588Y-82551326D01*
X177794955Y-82621898D01*
X177858569Y-82700424D01*
X177927069Y-82785204D01*
X177999090Y-82874537D01*
X178073270Y-82966722D01*
X178088517Y-82985702D01*
X178148246Y-83060060D01*
X178222653Y-83152848D01*
X178295131Y-83243388D01*
X178364314Y-83329978D01*
X178428841Y-83410918D01*
X178487347Y-83484506D01*
X178538470Y-83549044D01*
X178580847Y-83602829D01*
X178613115Y-83644162D01*
X178633910Y-83671342D01*
X178641869Y-83682668D01*
X178640111Y-83686771D01*
X178627230Y-83707334D01*
X178602885Y-83743561D01*
X178568247Y-83793824D01*
X178524486Y-83856492D01*
X178472775Y-83929936D01*
X178414284Y-84012527D01*
X178350184Y-84102636D01*
X178281646Y-84198631D01*
X178209843Y-84298885D01*
X178135944Y-84401768D01*
X178061121Y-84505650D01*
X177986545Y-84608901D01*
X177913387Y-84709892D01*
X177842819Y-84806994D01*
X177776011Y-84898577D01*
X177714135Y-84983011D01*
X177658361Y-85058667D01*
X177609862Y-85123916D01*
X177569807Y-85177128D01*
X177539369Y-85216673D01*
X177518944Y-85242026D01*
X177472899Y-85296295D01*
X177422612Y-85352775D01*
X177375815Y-85402669D01*
X177284651Y-85496400D01*
X176586445Y-85496400D01*
X176655356Y-85496349D01*
X176753607Y-85496091D01*
X176843030Y-85495637D01*
X176921333Y-85495010D01*
X176986223Y-85494235D01*
X177035411Y-85493335D01*
X177066604Y-85492334D01*
X177077511Y-85491257D01*
X177076322Y-85488037D01*
X177066176Y-85470452D01*
X177049040Y-85444158D01*
X177040540Y-85431691D01*
X177031329Y-85417622D01*
X177023233Y-85403351D01*
X177016185Y-85387479D01*
X177010117Y-85368609D01*
X177004961Y-85345341D01*
X177000651Y-85316278D01*
X176997119Y-85280021D01*
X176994297Y-85235170D01*
X176992118Y-85180328D01*
X176990514Y-85114097D01*
X176989419Y-85035077D01*
X176988765Y-84941871D01*
X176988484Y-84833079D01*
X176988509Y-84707303D01*
X176988772Y-84563145D01*
X176989206Y-84399207D01*
X176989745Y-84214089D01*
X176990279Y-84035232D01*
X176990805Y-83876374D01*
X176991350Y-83737316D01*
X176991945Y-83616665D01*
X176992619Y-83513028D01*
X176993403Y-83425011D01*
X176994326Y-83351223D01*
X176995419Y-83290269D01*
X176996712Y-83240757D01*
X176998235Y-83201293D01*
X177000019Y-83170484D01*
X177002092Y-83146938D01*
X177004486Y-83129260D01*
X177007230Y-83116059D01*
X177010356Y-83105940D01*
X177013892Y-83097511D01*
X177017791Y-83089375D01*
X177037438Y-83052544D01*
X177056225Y-83022391D01*
X177057272Y-83020908D01*
X177071602Y-82998659D01*
X177077511Y-82985702D01*
X177076504Y-82985249D01*
X177059305Y-82983803D01*
X177022656Y-82982480D01*
X176968962Y-82981316D01*
X176900630Y-82980347D01*
X176820064Y-82979611D01*
X176729670Y-82979142D01*
X176631853Y-82978978D01*
X176186195Y-82978978D01*
X176183120Y-84155845D01*
X176180045Y-85332711D01*
X176153407Y-85391622D01*
X176141485Y-85416183D01*
X176124246Y-85446434D01*
X176111074Y-85463560D01*
X176103076Y-85471591D01*
X176095378Y-85486493D01*
X175803942Y-85486493D01*
X175803474Y-85394029D01*
X175803050Y-85278617D01*
X175802706Y-85148160D01*
X175802434Y-85001716D01*
X175802227Y-84838344D01*
X175802076Y-84657101D01*
X175801972Y-84457048D01*
X175801908Y-84237241D01*
X175801876Y-83996739D01*
X175801867Y-83734602D01*
X175801867Y-81543031D01*
X175840249Y-81504649D01*
X175867355Y-81480911D01*
X175894253Y-81469111D01*
X175930560Y-81466267D01*
X175982489Y-81466267D01*
X175982489Y-81554206D01*
X175984427Y-81604102D01*
X176003199Y-81714523D01*
X176040217Y-81815987D01*
X176093369Y-81907152D01*
X176160546Y-81986673D01*
X176239638Y-82053205D01*
X176328534Y-82105406D01*
X176425125Y-82141930D01*
X176527300Y-82161434D01*
X176632950Y-82162573D01*
X176739964Y-82144005D01*
X176846232Y-82104384D01*
X176943219Y-82046516D01*
X177028293Y-81971684D01*
X177097015Y-81883615D01*
X177147918Y-81784616D01*
X177179535Y-81676993D01*
X177190400Y-81563054D01*
X177190400Y-81466267D01*
X178810753Y-81466267D01*
X179021897Y-81466280D01*
X179226020Y-81466330D01*
X179409686Y-81466430D01*
X179573991Y-81466592D01*
X179720029Y-81466829D01*
X179848894Y-81467153D01*
X179961683Y-81467575D01*
X180059488Y-81468109D01*
X180143404Y-81468767D01*
X180214527Y-81469561D01*
X180273950Y-81470504D01*
X180322768Y-81471608D01*
X180362077Y-81472884D01*
X180392969Y-81474347D01*
X180416541Y-81476007D01*
X180433886Y-81477878D01*
X180446099Y-81479972D01*
X180454275Y-81482300D01*
X180459508Y-81484876D01*
X180465504Y-81488445D01*
X180472279Y-81491978D01*
X180478478Y-81495488D01*
X180484126Y-81499918D01*
X180489247Y-81506208D01*
X180493869Y-81515301D01*
X180498015Y-81528139D01*
X180501713Y-81545662D01*
X180504987Y-81568813D01*
X180507863Y-81598534D01*
X180510367Y-81635765D01*
X180512524Y-81681449D01*
X180514360Y-81736527D01*
X180515900Y-81801941D01*
X180517170Y-81878633D01*
X180518195Y-81967544D01*
X180519001Y-82069617D01*
X180519034Y-82075867D01*
X180519614Y-82185792D01*
X180520059Y-82317011D01*
X173915571Y-82023071D02*
X173755430Y-82044245D01*
X173755430Y-82044245D02*
X173591490Y-82084385D01*
X173591490Y-82084385D02*
X173421687Y-82143889D01*
X173421687Y-82143889D02*
X173243957Y-82223154D01*
X173243957Y-82223154D02*
X173232690Y-82228699D01*
X173232690Y-82228699D02*
X173174995Y-82256725D01*
X173174995Y-82256725D02*
X173123448Y-82280802D01*
X173123448Y-82280802D02*
X173081809Y-82299249D01*
X173081809Y-82299249D02*
X173053838Y-82310386D01*
X173053838Y-82310386D02*
X173044267Y-82312933D01*
X173044267Y-82312933D02*
X173025050Y-82317941D01*
X173025050Y-82317941D02*
X173020439Y-82322147D01*
X173020439Y-82322147D02*
X173025542Y-82332580D01*
X173025542Y-82332580D02*
X173041582Y-82358868D01*
X173041582Y-82358868D02*
X173066712Y-82398257D01*
X173066712Y-82398257D02*
X173099086Y-82447991D01*
X173099086Y-82447991D02*
X173136857Y-82505315D01*
X173136857Y-82505315D02*
X173178178Y-82567476D01*
X173178178Y-82567476D02*
X173221202Y-82631718D01*
X173221202Y-82631718D02*
X173264083Y-82695285D01*
X173264083Y-82695285D02*
X173304974Y-82755425D01*
X173304974Y-82755425D02*
X173342029Y-82809380D01*
X173342029Y-82809380D02*
X173373400Y-82854397D01*
X173373400Y-82854397D02*
X173397241Y-82887721D01*
X173397241Y-82887721D02*
X173411706Y-82906597D01*
X173411706Y-82906597D02*
X173413691Y-82908787D01*
X173413691Y-82908787D02*
X173423809Y-82904138D01*
X173423809Y-82904138D02*
X173446150Y-82886962D01*
X173446150Y-82886962D02*
X173476720Y-82860440D01*
X173476720Y-82860440D02*
X173492464Y-82845964D01*
X173492464Y-82845964D02*
X173588953Y-82770682D01*
X173588953Y-82770682D02*
X173695664Y-82715241D01*
X173695664Y-82715241D02*
X173811168Y-82680141D01*
X173811168Y-82680141D02*
X173934038Y-82665880D01*
X173934038Y-82665880D02*
X174003439Y-82667051D01*
X174003439Y-82667051D02*
X174124577Y-82684212D01*
X174124577Y-82684212D02*
X174233795Y-82720094D01*
X174233795Y-82720094D02*
X174331418Y-82774959D01*
X174331418Y-82774959D02*
X174417772Y-82849070D01*
X174417772Y-82849070D02*
X174493185Y-82942688D01*
X174493185Y-82942688D02*
X174557982Y-83056076D01*
X174557982Y-83056076D02*
X174595399Y-83142667D01*
X174595399Y-83142667D02*
X174639252Y-83278366D01*
X174639252Y-83278366D02*
X174671572Y-83425850D01*
X174671572Y-83425850D02*
X174692443Y-83581314D01*
X174692443Y-83581314D02*
X174701949Y-83740956D01*
X174701949Y-83740956D02*
X174700173Y-83900973D01*
X174700173Y-83900973D02*
X174687197Y-84057561D01*
X174687197Y-84057561D02*
X174663106Y-84206918D01*
X174663106Y-84206918D02*
X174627982Y-84345240D01*
X174627982Y-84345240D02*
X174581908Y-84468724D01*
X174581908Y-84468724D02*
X174565627Y-84502978D01*
X174565627Y-84502978D02*
X174497380Y-84617064D01*
X174497380Y-84617064D02*
X174416921Y-84713557D01*
X174416921Y-84713557D02*
X174325430Y-84791670D01*
X174325430Y-84791670D02*
X174224089Y-84850617D01*
X174224089Y-84850617D02*
X174114080Y-84889612D01*
X174114080Y-84889612D02*
X173996585Y-84907868D01*
X173996585Y-84907868D02*
X173955117Y-84909211D01*
X173955117Y-84909211D02*
X173833559Y-84898290D01*
X173833559Y-84898290D02*
X173713122Y-84865474D01*
X173713122Y-84865474D02*
X173595334Y-84811439D01*
X173595334Y-84811439D02*
X173481723Y-84736865D01*
X173481723Y-84736865D02*
X173390315Y-84658539D01*
X173390315Y-84658539D02*
X173343785Y-84614008D01*
X173343785Y-84614008D02*
X173162517Y-84911271D01*
X173162517Y-84911271D02*
X173117420Y-84985433D01*
X173117420Y-84985433D02*
X173076181Y-85053646D01*
X173076181Y-85053646D02*
X173040265Y-85113459D01*
X173040265Y-85113459D02*
X173011134Y-85162420D01*
X173011134Y-85162420D02*
X172990250Y-85198079D01*
X172990250Y-85198079D02*
X172979076Y-85217984D01*
X172979076Y-85217984D02*
X172977625Y-85221079D01*
X172977625Y-85221079D02*
X172985854Y-85230718D01*
X172985854Y-85230718D02*
X173011433Y-85247999D01*
X173011433Y-85247999D02*
X173051127Y-85271283D01*
X173051127Y-85271283D02*
X173101703Y-85298934D01*
X173101703Y-85298934D02*
X173159926Y-85329315D01*
X173159926Y-85329315D02*
X173222563Y-85360790D01*
X173222563Y-85360790D02*
X173286379Y-85391722D01*
X173286379Y-85391722D02*
X173348140Y-85420473D01*
X173348140Y-85420473D02*
X173404612Y-85445408D01*
X173404612Y-85445408D02*
X173452562Y-85464889D01*
X173452562Y-85464889D02*
X173476014Y-85473318D01*
X173476014Y-85473318D02*
X173609779Y-85511133D01*
X173609779Y-85511133D02*
X173747673Y-85536136D01*
X173747673Y-85536136D02*
X173895378Y-85549140D01*
X173895378Y-85549140D02*
X174022167Y-85551468D01*
X174022167Y-85551468D02*
X174090122Y-85550373D01*
X174090122Y-85550373D02*
X174155723Y-85548275D01*
X174155723Y-85548275D02*
X174213153Y-85545434D01*
X174213153Y-85545434D02*
X174256597Y-85542106D01*
X174256597Y-85542106D02*
X174270702Y-85540422D01*
X174270702Y-85540422D02*
X174409716Y-85511587D01*
X174409716Y-85511587D02*
X174551243Y-85466468D01*
X174551243Y-85466468D02*
X174688725Y-85407750D01*
X174688725Y-85407750D02*
X174815606Y-85338120D01*
X174815606Y-85338120D02*
X174893111Y-85285441D01*
X174893111Y-85285441D02*
X175020519Y-85177239D01*
X175020519Y-85177239D02*
X175138822Y-85050671D01*
X175138822Y-85050671D02*
X175245828Y-84908866D01*
X175245828Y-84908866D02*
X175339348Y-84754951D01*
X175339348Y-84754951D02*
X175417190Y-84592053D01*
X175417190Y-84592053D02*
X175461044Y-84474756D01*
X175461044Y-84474756D02*
X175511292Y-84291128D01*
X175511292Y-84291128D02*
X175544791Y-84096581D01*
X175544791Y-84096581D02*
X175561551Y-83895325D01*
X175561551Y-83895325D02*
X175561584Y-83691568D01*
X175561584Y-83691568D02*
X175544899Y-83489521D01*
X175544899Y-83489521D02*
X175511507Y-83293392D01*
X175511507Y-83293392D02*
X175461420Y-83107391D01*
X175461420Y-83107391D02*
X175457603Y-83095803D01*
X175457603Y-83095803D02*
X175394719Y-82933750D01*
X175394719Y-82933750D02*
X175317972Y-82785832D01*
X175317972Y-82785832D02*
X175224758Y-82647865D01*
X175224758Y-82647865D02*
X175112473Y-82515661D01*
X175112473Y-82515661D02*
X175068608Y-82470399D01*
X175068608Y-82470399D02*
X174932466Y-82346457D01*
X174932466Y-82346457D02*
X174792509Y-82243915D01*
X174792509Y-82243915D02*
X174646589Y-82161656D01*
X174646589Y-82161656D02*
X174492558Y-82098564D01*
X174492558Y-82098564D02*
X174328268Y-82053523D01*
X174328268Y-82053523D02*
X174232711Y-82036033D01*
X174232711Y-82036033D02*
X174073977Y-82020466D01*
X174073977Y-82020466D02*
X173915571Y-82023071D01*
X173915571Y-82023071D02*
X173915571Y-82023071D01*
G36*
X174232711Y-82036033D02*
G01*
X174328268Y-82053523D01*
X174492558Y-82098564D01*
X174646589Y-82161656D01*
X174792509Y-82243915D01*
X174932466Y-82346457D01*
X175068608Y-82470399D01*
X175112473Y-82515661D01*
X175224758Y-82647865D01*
X175317972Y-82785832D01*
X175394719Y-82933750D01*
X175457603Y-83095803D01*
X175461420Y-83107391D01*
X175511507Y-83293392D01*
X175544899Y-83489521D01*
X175561584Y-83691568D01*
X175561551Y-83895325D01*
X175544791Y-84096581D01*
X175511292Y-84291128D01*
X175461044Y-84474756D01*
X175417190Y-84592053D01*
X175339348Y-84754951D01*
X175245828Y-84908866D01*
X175138822Y-85050671D01*
X175020519Y-85177239D01*
X174893111Y-85285441D01*
X174815606Y-85338120D01*
X174688725Y-85407750D01*
X174551243Y-85466468D01*
X174409716Y-85511587D01*
X174270702Y-85540422D01*
X174256597Y-85542106D01*
X174213153Y-85545434D01*
X174155723Y-85548275D01*
X174090122Y-85550373D01*
X174022167Y-85551468D01*
X173895378Y-85549140D01*
X173747673Y-85536136D01*
X173609779Y-85511133D01*
X173476014Y-85473318D01*
X173452562Y-85464889D01*
X173404612Y-85445408D01*
X173348140Y-85420473D01*
X173286379Y-85391722D01*
X173222563Y-85360790D01*
X173159926Y-85329315D01*
X173101703Y-85298934D01*
X173051127Y-85271283D01*
X173011433Y-85247999D01*
X172985854Y-85230718D01*
X172977625Y-85221079D01*
X172979076Y-85217984D01*
X172990250Y-85198079D01*
X173011134Y-85162420D01*
X173040265Y-85113459D01*
X173076181Y-85053646D01*
X173117420Y-84985433D01*
X173162517Y-84911271D01*
X173343785Y-84614008D01*
X173390315Y-84658539D01*
X173481723Y-84736865D01*
X173595334Y-84811439D01*
X173713122Y-84865474D01*
X173833559Y-84898290D01*
X173955117Y-84909211D01*
X173996585Y-84907868D01*
X174114080Y-84889612D01*
X174224089Y-84850617D01*
X174325430Y-84791670D01*
X174416921Y-84713557D01*
X174497380Y-84617064D01*
X174565627Y-84502978D01*
X174581908Y-84468724D01*
X174627982Y-84345240D01*
X174663106Y-84206918D01*
X174687197Y-84057561D01*
X174700173Y-83900973D01*
X174701949Y-83740956D01*
X174692443Y-83581314D01*
X174671572Y-83425850D01*
X174639252Y-83278366D01*
X174595399Y-83142667D01*
X174557982Y-83056076D01*
X174493185Y-82942688D01*
X174417772Y-82849070D01*
X174331418Y-82774959D01*
X174233795Y-82720094D01*
X174124577Y-82684212D01*
X174003439Y-82667051D01*
X173934038Y-82665880D01*
X173811168Y-82680141D01*
X173695664Y-82715241D01*
X173588953Y-82770682D01*
X173492464Y-82845964D01*
X173476720Y-82860440D01*
X173446150Y-82886962D01*
X173423809Y-82904138D01*
X173413691Y-82908787D01*
X173411706Y-82906597D01*
X173397241Y-82887721D01*
X173373400Y-82854397D01*
X173342029Y-82809380D01*
X173304974Y-82755425D01*
X173264083Y-82695285D01*
X173221202Y-82631718D01*
X173178178Y-82567476D01*
X173136857Y-82505315D01*
X173099086Y-82447991D01*
X173066712Y-82398257D01*
X173041582Y-82358868D01*
X173025542Y-82332580D01*
X173020439Y-82322147D01*
X173025050Y-82317941D01*
X173044267Y-82312933D01*
X173053838Y-82310386D01*
X173081809Y-82299249D01*
X173123448Y-82280802D01*
X173174995Y-82256725D01*
X173232690Y-82228699D01*
X173243957Y-82223154D01*
X173421687Y-82143889D01*
X173591490Y-82084385D01*
X173755430Y-82044245D01*
X173915571Y-82023071D01*
X174073977Y-82020466D01*
X174232711Y-82036033D01*
G37*
X174232711Y-82036033D02*
X174328268Y-82053523D01*
X174492558Y-82098564D01*
X174646589Y-82161656D01*
X174792509Y-82243915D01*
X174932466Y-82346457D01*
X175068608Y-82470399D01*
X175112473Y-82515661D01*
X175224758Y-82647865D01*
X175317972Y-82785832D01*
X175394719Y-82933750D01*
X175457603Y-83095803D01*
X175461420Y-83107391D01*
X175511507Y-83293392D01*
X175544899Y-83489521D01*
X175561584Y-83691568D01*
X175561551Y-83895325D01*
X175544791Y-84096581D01*
X175511292Y-84291128D01*
X175461044Y-84474756D01*
X175417190Y-84592053D01*
X175339348Y-84754951D01*
X175245828Y-84908866D01*
X175138822Y-85050671D01*
X175020519Y-85177239D01*
X174893111Y-85285441D01*
X174815606Y-85338120D01*
X174688725Y-85407750D01*
X174551243Y-85466468D01*
X174409716Y-85511587D01*
X174270702Y-85540422D01*
X174256597Y-85542106D01*
X174213153Y-85545434D01*
X174155723Y-85548275D01*
X174090122Y-85550373D01*
X174022167Y-85551468D01*
X173895378Y-85549140D01*
X173747673Y-85536136D01*
X173609779Y-85511133D01*
X173476014Y-85473318D01*
X173452562Y-85464889D01*
X173404612Y-85445408D01*
X173348140Y-85420473D01*
X173286379Y-85391722D01*
X173222563Y-85360790D01*
X173159926Y-85329315D01*
X173101703Y-85298934D01*
X173051127Y-85271283D01*
X173011433Y-85247999D01*
X172985854Y-85230718D01*
X172977625Y-85221079D01*
X172979076Y-85217984D01*
X172990250Y-85198079D01*
X173011134Y-85162420D01*
X173040265Y-85113459D01*
X173076181Y-85053646D01*
X173117420Y-84985433D01*
X173162517Y-84911271D01*
X173343785Y-84614008D01*
X173390315Y-84658539D01*
X173481723Y-84736865D01*
X173595334Y-84811439D01*
X173713122Y-84865474D01*
X173833559Y-84898290D01*
X173955117Y-84909211D01*
X173996585Y-84907868D01*
X174114080Y-84889612D01*
X174224089Y-84850617D01*
X174325430Y-84791670D01*
X174416921Y-84713557D01*
X174497380Y-84617064D01*
X174565627Y-84502978D01*
X174581908Y-84468724D01*
X174627982Y-84345240D01*
X174663106Y-84206918D01*
X174687197Y-84057561D01*
X174700173Y-83900973D01*
X174701949Y-83740956D01*
X174692443Y-83581314D01*
X174671572Y-83425850D01*
X174639252Y-83278366D01*
X174595399Y-83142667D01*
X174557982Y-83056076D01*
X174493185Y-82942688D01*
X174417772Y-82849070D01*
X174331418Y-82774959D01*
X174233795Y-82720094D01*
X174124577Y-82684212D01*
X174003439Y-82667051D01*
X173934038Y-82665880D01*
X173811168Y-82680141D01*
X173695664Y-82715241D01*
X173588953Y-82770682D01*
X173492464Y-82845964D01*
X173476720Y-82860440D01*
X173446150Y-82886962D01*
X173423809Y-82904138D01*
X173413691Y-82908787D01*
X173411706Y-82906597D01*
X173397241Y-82887721D01*
X173373400Y-82854397D01*
X173342029Y-82809380D01*
X173304974Y-82755425D01*
X173264083Y-82695285D01*
X173221202Y-82631718D01*
X173178178Y-82567476D01*
X173136857Y-82505315D01*
X173099086Y-82447991D01*
X173066712Y-82398257D01*
X173041582Y-82358868D01*
X173025542Y-82332580D01*
X173020439Y-82322147D01*
X173025050Y-82317941D01*
X173044267Y-82312933D01*
X173053838Y-82310386D01*
X173081809Y-82299249D01*
X173123448Y-82280802D01*
X173174995Y-82256725D01*
X173232690Y-82228699D01*
X173243957Y-82223154D01*
X173421687Y-82143889D01*
X173591490Y-82084385D01*
X173755430Y-82044245D01*
X173915571Y-82023071D01*
X174073977Y-82020466D01*
X174232711Y-82036033D01*
X171570426Y-82940552D02*
X171418508Y-82960567D01*
X171418508Y-82960567D02*
X171283244Y-82994202D01*
X171283244Y-82994202D02*
X171163761Y-83041725D01*
X171163761Y-83041725D02*
X171059185Y-83103405D01*
X171059185Y-83103405D02*
X170981576Y-83166965D01*
X170981576Y-83166965D02*
X170912735Y-83241099D01*
X170912735Y-83241099D02*
X170858994Y-83320871D01*
X170858994Y-83320871D02*
X170816090Y-83413091D01*
X170816090Y-83413091D02*
X170800616Y-83456161D01*
X170800616Y-83456161D02*
X170787756Y-83495142D01*
X170787756Y-83495142D02*
X170776554Y-83531289D01*
X170776554Y-83531289D02*
X170766880Y-83566434D01*
X170766880Y-83566434D02*
X170758604Y-83602410D01*
X170758604Y-83602410D02*
X170751597Y-83641050D01*
X170751597Y-83641050D02*
X170745728Y-83684185D01*
X170745728Y-83684185D02*
X170740869Y-83733649D01*
X170740869Y-83733649D02*
X170736890Y-83791273D01*
X170736890Y-83791273D02*
X170733660Y-83858891D01*
X170733660Y-83858891D02*
X170731051Y-83938334D01*
X170731051Y-83938334D02*
X170728933Y-84031436D01*
X170728933Y-84031436D02*
X170727176Y-84140027D01*
X170727176Y-84140027D02*
X170725651Y-84265942D01*
X170725651Y-84265942D02*
X170724228Y-84411012D01*
X170724228Y-84411012D02*
X170722975Y-84553778D01*
X170722975Y-84553778D02*
X170721649Y-84709968D01*
X170721649Y-84709968D02*
X170720444Y-84845239D01*
X170720444Y-84845239D02*
X170719234Y-84961246D01*
X170719234Y-84961246D02*
X170717894Y-85059645D01*
X170717894Y-85059645D02*
X170716300Y-85142093D01*
X170716300Y-85142093D02*
X170714325Y-85210246D01*
X170714325Y-85210246D02*
X170711844Y-85265760D01*
X170711844Y-85265760D02*
X170708731Y-85310292D01*
X170708731Y-85310292D02*
X170704862Y-85345498D01*
X170704862Y-85345498D02*
X170700111Y-85373034D01*
X170700111Y-85373034D02*
X170694352Y-85394556D01*
X170694352Y-85394556D02*
X170687461Y-85411722D01*
X170687461Y-85411722D02*
X170679311Y-85426186D01*
X170679311Y-85426186D02*
X170669777Y-85439606D01*
X170669777Y-85439606D02*
X170658734Y-85453638D01*
X170658734Y-85453638D02*
X170654434Y-85459071D01*
X170654434Y-85459071D02*
X170638614Y-85481910D01*
X170638614Y-85481910D02*
X170631578Y-85497463D01*
X170631578Y-85497463D02*
X170631556Y-85497922D01*
X170631556Y-85497922D02*
X170642433Y-85500121D01*
X170642433Y-85500121D02*
X170673418Y-85502147D01*
X170673418Y-85502147D02*
X170722043Y-85503942D01*
X170722043Y-85503942D02*
X170785837Y-85505451D01*
X170785837Y-85505451D02*
X170862331Y-85506616D01*
X170862331Y-85506616D02*
X170949056Y-85507380D01*
X170949056Y-85507380D02*
X171043543Y-85507686D01*
X171043543Y-85507686D02*
X171054450Y-85507689D01*
X171054450Y-85507689D02*
X171477343Y-85507689D01*
X171477343Y-85507689D02*
X171480605Y-85411622D01*
X171480605Y-85411622D02*
X171483867Y-85315556D01*
X171483867Y-85315556D02*
X171545956Y-85366543D01*
X171545956Y-85366543D02*
X171643286Y-85434057D01*
X171643286Y-85434057D02*
X171753187Y-85488749D01*
X171753187Y-85488749D02*
X171839651Y-85518978D01*
X171839651Y-85518978D02*
X171908722Y-85533666D01*
X171908722Y-85533666D02*
X171992075Y-85543659D01*
X171992075Y-85543659D02*
X172081841Y-85548646D01*
X172081841Y-85548646D02*
X172170155Y-85548313D01*
X172170155Y-85548313D02*
X172249149Y-85542351D01*
X172249149Y-85542351D02*
X172285378Y-85536638D01*
X172285378Y-85536638D02*
X172425397Y-85498776D01*
X172425397Y-85498776D02*
X172551822Y-85443932D01*
X172551822Y-85443932D02*
X172663740Y-85372924D01*
X172663740Y-85372924D02*
X172760238Y-85286568D01*
X172760238Y-85286568D02*
X172840400Y-85185679D01*
X172840400Y-85185679D02*
X172903313Y-85071076D01*
X172903313Y-85071076D02*
X172947688Y-84944984D01*
X172947688Y-84944984D02*
X172960022Y-84888401D01*
X172960022Y-84888401D02*
X172967632Y-84826202D01*
X172967632Y-84826202D02*
X172971261Y-84751363D01*
X172971261Y-84751363D02*
X172971755Y-84717467D01*
X172971755Y-84717467D02*
X172971690Y-84714282D01*
X172971690Y-84714282D02*
X172211752Y-84714282D01*
X172211752Y-84714282D02*
X172202459Y-84789333D01*
X172202459Y-84789333D02*
X172174272Y-84853160D01*
X172174272Y-84853160D02*
X172125803Y-84908798D01*
X172125803Y-84908798D02*
X172120746Y-84913211D01*
X172120746Y-84913211D02*
X172072452Y-84948037D01*
X172072452Y-84948037D02*
X172020743Y-84970620D01*
X172020743Y-84970620D02*
X171960011Y-84982540D01*
X171960011Y-84982540D02*
X171884648Y-84985383D01*
X171884648Y-84985383D02*
X171866541Y-84984978D01*
X171866541Y-84984978D02*
X171812722Y-84982325D01*
X171812722Y-84982325D02*
X171772692Y-84976909D01*
X171772692Y-84976909D02*
X171737676Y-84966745D01*
X171737676Y-84966745D02*
X171698897Y-84949850D01*
X171698897Y-84949850D02*
X171688255Y-84944672D01*
X171688255Y-84944672D02*
X171627604Y-84908844D01*
X171627604Y-84908844D02*
X171580785Y-84866212D01*
X171580785Y-84866212D02*
X171568048Y-84850973D01*
X171568048Y-84850973D02*
X171523378Y-84794462D01*
X171523378Y-84794462D02*
X171523378Y-84598586D01*
X171523378Y-84598586D02*
X171523914Y-84519939D01*
X171523914Y-84519939D02*
X171525604Y-84461988D01*
X171525604Y-84461988D02*
X171528572Y-84422875D01*
X171528572Y-84422875D02*
X171532943Y-84400741D01*
X171532943Y-84400741D02*
X171537028Y-84394274D01*
X171537028Y-84394274D02*
X171552953Y-84391111D01*
X171552953Y-84391111D02*
X171586736Y-84388488D01*
X171586736Y-84388488D02*
X171633660Y-84386655D01*
X171633660Y-84386655D02*
X171689007Y-84385857D01*
X171689007Y-84385857D02*
X171697894Y-84385842D01*
X171697894Y-84385842D02*
X171818670Y-84391096D01*
X171818670Y-84391096D02*
X171921340Y-84407263D01*
X171921340Y-84407263D02*
X172007894Y-84434961D01*
X172007894Y-84434961D02*
X172080319Y-84474808D01*
X172080319Y-84474808D02*
X172135249Y-84521758D01*
X172135249Y-84521758D02*
X172179796Y-84579645D01*
X172179796Y-84579645D02*
X172204520Y-84642693D01*
X172204520Y-84642693D02*
X172211752Y-84714282D01*
X172211752Y-84714282D02*
X172971690Y-84714282D01*
X172971690Y-84714282D02*
X172969822Y-84623712D01*
X172969822Y-84623712D02*
X172961478Y-84544812D01*
X172961478Y-84544812D02*
X172945232Y-84473590D01*
X172945232Y-84473590D02*
X172919595Y-84402864D01*
X172919595Y-84402864D02*
X172895599Y-84350493D01*
X172895599Y-84350493D02*
X172836980Y-84255196D01*
X172836980Y-84255196D02*
X172758883Y-84167170D01*
X172758883Y-84167170D02*
X172663685Y-84088017D01*
X172663685Y-84088017D02*
X172553762Y-84019340D01*
X172553762Y-84019340D02*
X172431490Y-83962741D01*
X172431490Y-83962741D02*
X172299245Y-83919821D01*
X172299245Y-83919821D02*
X172234578Y-83904882D01*
X172234578Y-83904882D02*
X172098396Y-83882777D01*
X172098396Y-83882777D02*
X171949951Y-83868194D01*
X171949951Y-83868194D02*
X171798495Y-83861813D01*
X171798495Y-83861813D02*
X171671936Y-83863445D01*
X171671936Y-83863445D02*
X171510050Y-83870224D01*
X171510050Y-83870224D02*
X171517470Y-83811245D01*
X171517470Y-83811245D02*
X171536762Y-83712092D01*
X171536762Y-83712092D02*
X171567896Y-83631372D01*
X171567896Y-83631372D02*
X171611731Y-83568466D01*
X171611731Y-83568466D02*
X171669129Y-83522756D01*
X171669129Y-83522756D02*
X171740952Y-83493622D01*
X171740952Y-83493622D02*
X171828059Y-83480447D01*
X171828059Y-83480447D02*
X171931314Y-83482611D01*
X171931314Y-83482611D02*
X171969289Y-83486612D01*
X171969289Y-83486612D02*
X172110480Y-83511780D01*
X172110480Y-83511780D02*
X172247293Y-83552814D01*
X172247293Y-83552814D02*
X172341822Y-83590815D01*
X172341822Y-83590815D02*
X172386982Y-83610190D01*
X172386982Y-83610190D02*
X172425415Y-83625760D01*
X172425415Y-83625760D02*
X172451766Y-83635405D01*
X172451766Y-83635405D02*
X172459454Y-83637452D01*
X172459454Y-83637452D02*
X172469198Y-83628374D01*
X172469198Y-83628374D02*
X172485917Y-83599405D01*
X172485917Y-83599405D02*
X172509768Y-83550217D01*
X172509768Y-83550217D02*
X172540907Y-83480484D01*
X172540907Y-83480484D02*
X172579493Y-83389879D01*
X172579493Y-83389879D02*
X172586090Y-83374089D01*
X172586090Y-83374089D02*
X172616147Y-83301772D01*
X172616147Y-83301772D02*
X172643126Y-83236425D01*
X172643126Y-83236425D02*
X172665864Y-83180906D01*
X172665864Y-83180906D02*
X172683194Y-83138072D01*
X172683194Y-83138072D02*
X172693952Y-83110781D01*
X172693952Y-83110781D02*
X172697059Y-83101942D01*
X172697059Y-83101942D02*
X172687060Y-83097187D01*
X172687060Y-83097187D02*
X172660783Y-83091910D01*
X172660783Y-83091910D02*
X172632511Y-83088231D01*
X172632511Y-83088231D02*
X172602354Y-83083474D01*
X172602354Y-83083474D02*
X172554567Y-83074028D01*
X172554567Y-83074028D02*
X172493388Y-83060820D01*
X172493388Y-83060820D02*
X172423054Y-83044776D01*
X172423054Y-83044776D02*
X172347806Y-83026820D01*
X172347806Y-83026820D02*
X172319245Y-83019797D01*
X172319245Y-83019797D02*
X172214184Y-82994209D01*
X172214184Y-82994209D02*
X172126520Y-82974147D01*
X172126520Y-82974147D02*
X172051932Y-82958969D01*
X172051932Y-82958969D02*
X171986097Y-82948035D01*
X171986097Y-82948035D02*
X171924693Y-82940704D01*
X171924693Y-82940704D02*
X171863398Y-82936335D01*
X171863398Y-82936335D02*
X171797890Y-82934287D01*
X171797890Y-82934287D02*
X171739872Y-82933889D01*
X171739872Y-82933889D02*
X171570426Y-82940552D01*
X171570426Y-82940552D02*
X171570426Y-82940552D01*
G36*
X172971261Y-84751363D02*
G01*
X172967632Y-84826202D01*
X172960022Y-84888401D01*
X172947688Y-84944984D01*
X172903313Y-85071076D01*
X172840400Y-85185679D01*
X172760238Y-85286568D01*
X172663740Y-85372924D01*
X172551822Y-85443932D01*
X172425397Y-85498776D01*
X172285378Y-85536638D01*
X172249149Y-85542351D01*
X172170155Y-85548313D01*
X172081841Y-85548646D01*
X171992075Y-85543659D01*
X171908722Y-85533666D01*
X171839651Y-85518978D01*
X171753187Y-85488749D01*
X171643286Y-85434057D01*
X171545956Y-85366543D01*
X171483867Y-85315556D01*
X171480605Y-85411622D01*
X171477343Y-85507689D01*
X171054450Y-85507689D01*
X171043543Y-85507686D01*
X170949056Y-85507380D01*
X170862331Y-85506616D01*
X170785837Y-85505451D01*
X170722043Y-85503942D01*
X170673418Y-85502147D01*
X170642433Y-85500121D01*
X170631556Y-85497922D01*
X170631578Y-85497463D01*
X170638614Y-85481910D01*
X170654434Y-85459071D01*
X170658734Y-85453638D01*
X170669777Y-85439606D01*
X170679311Y-85426186D01*
X170687461Y-85411722D01*
X170694352Y-85394556D01*
X170700111Y-85373034D01*
X170704862Y-85345498D01*
X170708731Y-85310292D01*
X170711844Y-85265760D01*
X170714325Y-85210246D01*
X170716300Y-85142093D01*
X170717894Y-85059645D01*
X170719234Y-84961246D01*
X170720444Y-84845239D01*
X170720896Y-84794462D01*
X171523378Y-84794462D01*
X171568048Y-84850973D01*
X171580785Y-84866212D01*
X171627604Y-84908844D01*
X171688255Y-84944672D01*
X171698897Y-84949850D01*
X171737676Y-84966745D01*
X171772692Y-84976909D01*
X171812722Y-84982325D01*
X171866541Y-84984978D01*
X171884648Y-84985383D01*
X171960011Y-84982540D01*
X172020743Y-84970620D01*
X172072452Y-84948037D01*
X172120746Y-84913211D01*
X172125803Y-84908798D01*
X172174272Y-84853160D01*
X172202459Y-84789333D01*
X172211752Y-84714282D01*
X172204520Y-84642693D01*
X172179796Y-84579645D01*
X172135249Y-84521758D01*
X172080319Y-84474808D01*
X172007894Y-84434961D01*
X171921340Y-84407263D01*
X171818670Y-84391096D01*
X171697894Y-84385842D01*
X171689007Y-84385857D01*
X171633660Y-84386655D01*
X171586736Y-84388488D01*
X171552953Y-84391111D01*
X171537028Y-84394274D01*
X171532943Y-84400741D01*
X171528572Y-84422875D01*
X171525604Y-84461988D01*
X171523914Y-84519939D01*
X171523378Y-84598586D01*
X171523378Y-84794462D01*
X170720896Y-84794462D01*
X170721649Y-84709968D01*
X170722975Y-84553778D01*
X170724228Y-84411012D01*
X170725651Y-84265942D01*
X170727176Y-84140027D01*
X170728933Y-84031436D01*
X170731051Y-83938334D01*
X170733660Y-83858891D01*
X170736890Y-83791273D01*
X170740869Y-83733649D01*
X170745728Y-83684185D01*
X170751597Y-83641050D01*
X170758604Y-83602410D01*
X170766880Y-83566434D01*
X170776554Y-83531289D01*
X170787756Y-83495142D01*
X170800616Y-83456161D01*
X170816090Y-83413091D01*
X170858994Y-83320871D01*
X170912735Y-83241099D01*
X170981576Y-83166965D01*
X171059185Y-83103405D01*
X171163761Y-83041725D01*
X171283244Y-82994202D01*
X171418508Y-82960567D01*
X171570426Y-82940552D01*
X171739872Y-82933889D01*
X171797890Y-82934287D01*
X171863398Y-82936335D01*
X171924693Y-82940704D01*
X171986097Y-82948035D01*
X172051932Y-82958969D01*
X172126520Y-82974147D01*
X172214184Y-82994209D01*
X172319245Y-83019797D01*
X172347806Y-83026820D01*
X172423054Y-83044776D01*
X172493388Y-83060820D01*
X172554567Y-83074028D01*
X172602354Y-83083474D01*
X172632511Y-83088231D01*
X172660783Y-83091910D01*
X172687060Y-83097187D01*
X172697059Y-83101942D01*
X172693952Y-83110781D01*
X172683194Y-83138072D01*
X172665864Y-83180906D01*
X172643126Y-83236425D01*
X172616147Y-83301772D01*
X172586090Y-83374089D01*
X172579493Y-83389879D01*
X172540907Y-83480484D01*
X172509768Y-83550217D01*
X172485917Y-83599405D01*
X172469198Y-83628374D01*
X172459454Y-83637452D01*
X172451766Y-83635405D01*
X172425415Y-83625760D01*
X172386982Y-83610190D01*
X172341822Y-83590815D01*
X172247293Y-83552814D01*
X172110480Y-83511780D01*
X171969289Y-83486612D01*
X171931314Y-83482611D01*
X171828059Y-83480447D01*
X171740952Y-83493622D01*
X171669129Y-83522756D01*
X171611731Y-83568466D01*
X171567896Y-83631372D01*
X171536762Y-83712092D01*
X171517470Y-83811245D01*
X171510050Y-83870224D01*
X171671936Y-83863445D01*
X171798495Y-83861813D01*
X171949951Y-83868194D01*
X172098396Y-83882777D01*
X172234578Y-83904882D01*
X172299245Y-83919821D01*
X172431490Y-83962741D01*
X172553762Y-84019340D01*
X172663685Y-84088017D01*
X172758883Y-84167170D01*
X172836980Y-84255196D01*
X172895599Y-84350493D01*
X172919595Y-84402864D01*
X172945232Y-84473590D01*
X172961478Y-84544812D01*
X172969822Y-84623712D01*
X172971690Y-84714282D01*
X172971755Y-84717467D01*
X172971261Y-84751363D01*
G37*
X172971261Y-84751363D02*
X172967632Y-84826202D01*
X172960022Y-84888401D01*
X172947688Y-84944984D01*
X172903313Y-85071076D01*
X172840400Y-85185679D01*
X172760238Y-85286568D01*
X172663740Y-85372924D01*
X172551822Y-85443932D01*
X172425397Y-85498776D01*
X172285378Y-85536638D01*
X172249149Y-85542351D01*
X172170155Y-85548313D01*
X172081841Y-85548646D01*
X171992075Y-85543659D01*
X171908722Y-85533666D01*
X171839651Y-85518978D01*
X171753187Y-85488749D01*
X171643286Y-85434057D01*
X171545956Y-85366543D01*
X171483867Y-85315556D01*
X171480605Y-85411622D01*
X171477343Y-85507689D01*
X171054450Y-85507689D01*
X171043543Y-85507686D01*
X170949056Y-85507380D01*
X170862331Y-85506616D01*
X170785837Y-85505451D01*
X170722043Y-85503942D01*
X170673418Y-85502147D01*
X170642433Y-85500121D01*
X170631556Y-85497922D01*
X170631578Y-85497463D01*
X170638614Y-85481910D01*
X170654434Y-85459071D01*
X170658734Y-85453638D01*
X170669777Y-85439606D01*
X170679311Y-85426186D01*
X170687461Y-85411722D01*
X170694352Y-85394556D01*
X170700111Y-85373034D01*
X170704862Y-85345498D01*
X170708731Y-85310292D01*
X170711844Y-85265760D01*
X170714325Y-85210246D01*
X170716300Y-85142093D01*
X170717894Y-85059645D01*
X170719234Y-84961246D01*
X170720444Y-84845239D01*
X170720896Y-84794462D01*
X171523378Y-84794462D01*
X171568048Y-84850973D01*
X171580785Y-84866212D01*
X171627604Y-84908844D01*
X171688255Y-84944672D01*
X171698897Y-84949850D01*
X171737676Y-84966745D01*
X171772692Y-84976909D01*
X171812722Y-84982325D01*
X171866541Y-84984978D01*
X171884648Y-84985383D01*
X171960011Y-84982540D01*
X172020743Y-84970620D01*
X172072452Y-84948037D01*
X172120746Y-84913211D01*
X172125803Y-84908798D01*
X172174272Y-84853160D01*
X172202459Y-84789333D01*
X172211752Y-84714282D01*
X172204520Y-84642693D01*
X172179796Y-84579645D01*
X172135249Y-84521758D01*
X172080319Y-84474808D01*
X172007894Y-84434961D01*
X171921340Y-84407263D01*
X171818670Y-84391096D01*
X171697894Y-84385842D01*
X171689007Y-84385857D01*
X171633660Y-84386655D01*
X171586736Y-84388488D01*
X171552953Y-84391111D01*
X171537028Y-84394274D01*
X171532943Y-84400741D01*
X171528572Y-84422875D01*
X171525604Y-84461988D01*
X171523914Y-84519939D01*
X171523378Y-84598586D01*
X171523378Y-84794462D01*
X170720896Y-84794462D01*
X170721649Y-84709968D01*
X170722975Y-84553778D01*
X170724228Y-84411012D01*
X170725651Y-84265942D01*
X170727176Y-84140027D01*
X170728933Y-84031436D01*
X170731051Y-83938334D01*
X170733660Y-83858891D01*
X170736890Y-83791273D01*
X170740869Y-83733649D01*
X170745728Y-83684185D01*
X170751597Y-83641050D01*
X170758604Y-83602410D01*
X170766880Y-83566434D01*
X170776554Y-83531289D01*
X170787756Y-83495142D01*
X170800616Y-83456161D01*
X170816090Y-83413091D01*
X170858994Y-83320871D01*
X170912735Y-83241099D01*
X170981576Y-83166965D01*
X171059185Y-83103405D01*
X171163761Y-83041725D01*
X171283244Y-82994202D01*
X171418508Y-82960567D01*
X171570426Y-82940552D01*
X171739872Y-82933889D01*
X171797890Y-82934287D01*
X171863398Y-82936335D01*
X171924693Y-82940704D01*
X171986097Y-82948035D01*
X172051932Y-82958969D01*
X172126520Y-82974147D01*
X172214184Y-82994209D01*
X172319245Y-83019797D01*
X172347806Y-83026820D01*
X172423054Y-83044776D01*
X172493388Y-83060820D01*
X172554567Y-83074028D01*
X172602354Y-83083474D01*
X172632511Y-83088231D01*
X172660783Y-83091910D01*
X172687060Y-83097187D01*
X172697059Y-83101942D01*
X172693952Y-83110781D01*
X172683194Y-83138072D01*
X172665864Y-83180906D01*
X172643126Y-83236425D01*
X172616147Y-83301772D01*
X172586090Y-83374089D01*
X172579493Y-83389879D01*
X172540907Y-83480484D01*
X172509768Y-83550217D01*
X172485917Y-83599405D01*
X172469198Y-83628374D01*
X172459454Y-83637452D01*
X172451766Y-83635405D01*
X172425415Y-83625760D01*
X172386982Y-83610190D01*
X172341822Y-83590815D01*
X172247293Y-83552814D01*
X172110480Y-83511780D01*
X171969289Y-83486612D01*
X171931314Y-83482611D01*
X171828059Y-83480447D01*
X171740952Y-83493622D01*
X171669129Y-83522756D01*
X171611731Y-83568466D01*
X171567896Y-83631372D01*
X171536762Y-83712092D01*
X171517470Y-83811245D01*
X171510050Y-83870224D01*
X171671936Y-83863445D01*
X171798495Y-83861813D01*
X171949951Y-83868194D01*
X172098396Y-83882777D01*
X172234578Y-83904882D01*
X172299245Y-83919821D01*
X172431490Y-83962741D01*
X172553762Y-84019340D01*
X172663685Y-84088017D01*
X172758883Y-84167170D01*
X172836980Y-84255196D01*
X172895599Y-84350493D01*
X172919595Y-84402864D01*
X172945232Y-84473590D01*
X172961478Y-84544812D01*
X172969822Y-84623712D01*
X172971690Y-84714282D01*
X172971755Y-84717467D01*
X172971261Y-84751363D01*
X168057493Y-83546245D02*
X168057474Y-83780662D01*
X168057474Y-83780662D02*
X168057448Y-83993603D01*
X168057448Y-83993603D02*
X168057375Y-84186168D01*
X168057375Y-84186168D02*
X168057218Y-84359459D01*
X168057218Y-84359459D02*
X168056936Y-84514576D01*
X168056936Y-84514576D02*
X168056491Y-84652620D01*
X168056491Y-84652620D02*
X168055844Y-84774692D01*
X168055844Y-84774692D02*
X168054955Y-84881894D01*
X168054955Y-84881894D02*
X168053787Y-84975326D01*
X168053787Y-84975326D02*
X168052299Y-85056090D01*
X168052299Y-85056090D02*
X168050454Y-85125286D01*
X168050454Y-85125286D02*
X168048211Y-85184015D01*
X168048211Y-85184015D02*
X168045531Y-85233379D01*
X168045531Y-85233379D02*
X168042377Y-85274478D01*
X168042377Y-85274478D02*
X168038708Y-85308413D01*
X168038708Y-85308413D02*
X168034487Y-85336286D01*
X168034487Y-85336286D02*
X168029673Y-85359198D01*
X168029673Y-85359198D02*
X168024227Y-85378249D01*
X168024227Y-85378249D02*
X168018112Y-85394540D01*
X168018112Y-85394540D02*
X168011288Y-85409173D01*
X168011288Y-85409173D02*
X168003715Y-85423249D01*
X168003715Y-85423249D02*
X167995355Y-85437868D01*
X167995355Y-85437868D02*
X167990161Y-85446974D01*
X167990161Y-85446974D02*
X167955896Y-85507689D01*
X167955896Y-85507689D02*
X168814045Y-85507689D01*
X168814045Y-85507689D02*
X168814045Y-85411733D01*
X168814045Y-85411733D02*
X168814776Y-85368370D01*
X168814776Y-85368370D02*
X168816728Y-85335205D01*
X168816728Y-85335205D02*
X168819537Y-85317424D01*
X168819537Y-85317424D02*
X168820779Y-85315778D01*
X168820779Y-85315778D02*
X168832201Y-85322662D01*
X168832201Y-85322662D02*
X168854916Y-85340505D01*
X168854916Y-85340505D02*
X168877615Y-85359879D01*
X168877615Y-85359879D02*
X168932200Y-85400614D01*
X168932200Y-85400614D02*
X169001679Y-85441617D01*
X169001679Y-85441617D02*
X169078730Y-85479123D01*
X169078730Y-85479123D02*
X169156035Y-85509364D01*
X169156035Y-85509364D02*
X169186887Y-85519012D01*
X169186887Y-85519012D02*
X169255384Y-85533578D01*
X169255384Y-85533578D02*
X169338236Y-85543539D01*
X169338236Y-85543539D02*
X169427629Y-85548583D01*
X169427629Y-85548583D02*
X169515752Y-85548396D01*
X169515752Y-85548396D02*
X169594793Y-85542666D01*
X169594793Y-85542666D02*
X169632489Y-85536858D01*
X169632489Y-85536858D02*
X169770586Y-85498797D01*
X169770586Y-85498797D02*
X169897887Y-85441073D01*
X169897887Y-85441073D02*
X170013708Y-85364211D01*
X170013708Y-85364211D02*
X170117363Y-85268739D01*
X170117363Y-85268739D02*
X170208167Y-85155179D01*
X170208167Y-85155179D02*
X170274969Y-85044381D01*
X170274969Y-85044381D02*
X170329836Y-84927625D01*
X170329836Y-84927625D02*
X170371837Y-84808276D01*
X170371837Y-84808276D02*
X170401833Y-84682283D01*
X170401833Y-84682283D02*
X170420689Y-84545594D01*
X170420689Y-84545594D02*
X170429268Y-84394158D01*
X170429268Y-84394158D02*
X170429994Y-84316711D01*
X170429994Y-84316711D02*
X170427900Y-84259934D01*
X170427900Y-84259934D02*
X169598783Y-84259934D01*
X169598783Y-84259934D02*
X169598576Y-84353002D01*
X169598576Y-84353002D02*
X169595663Y-84440692D01*
X169595663Y-84440692D02*
X169590000Y-84517772D01*
X169590000Y-84517772D02*
X169581545Y-84579009D01*
X169581545Y-84579009D02*
X169578962Y-84591350D01*
X169578962Y-84591350D02*
X169547160Y-84698633D01*
X169547160Y-84698633D02*
X169505502Y-84785658D01*
X169505502Y-84785658D02*
X169453637Y-84852642D01*
X169453637Y-84852642D02*
X169391219Y-84899805D01*
X169391219Y-84899805D02*
X169317900Y-84927365D01*
X169317900Y-84927365D02*
X169233331Y-84935541D01*
X169233331Y-84935541D02*
X169137165Y-84924551D01*
X169137165Y-84924551D02*
X169073689Y-84908829D01*
X169073689Y-84908829D02*
X169024546Y-84890639D01*
X169024546Y-84890639D02*
X168970417Y-84864791D01*
X168970417Y-84864791D02*
X168929756Y-84841089D01*
X168929756Y-84841089D02*
X168859200Y-84794721D01*
X168859200Y-84794721D02*
X168859200Y-83644530D01*
X168859200Y-83644530D02*
X168926608Y-83600962D01*
X168926608Y-83600962D02*
X169005133Y-83560040D01*
X169005133Y-83560040D02*
X169089319Y-83533389D01*
X169089319Y-83533389D02*
X169174443Y-83521465D01*
X169174443Y-83521465D02*
X169255784Y-83524722D01*
X169255784Y-83524722D02*
X169328620Y-83543615D01*
X169328620Y-83543615D02*
X169360574Y-83559184D01*
X169360574Y-83559184D02*
X169418499Y-83602181D01*
X169418499Y-83602181D02*
X169467456Y-83658953D01*
X169467456Y-83658953D02*
X169508610Y-83731575D01*
X169508610Y-83731575D02*
X169543126Y-83822121D01*
X169543126Y-83822121D02*
X169572167Y-83932666D01*
X169572167Y-83932666D02*
X169573448Y-83938533D01*
X169573448Y-83938533D02*
X169583619Y-84000788D01*
X169583619Y-84000788D02*
X169591261Y-84078594D01*
X169591261Y-84078594D02*
X169596330Y-84166720D01*
X169596330Y-84166720D02*
X169598783Y-84259934D01*
X169598783Y-84259934D02*
X170427900Y-84259934D01*
X170427900Y-84259934D02*
X170422143Y-84103895D01*
X170422143Y-84103895D02*
X170400198Y-83908059D01*
X170400198Y-83908059D02*
X170364214Y-83729332D01*
X170364214Y-83729332D02*
X170314241Y-83567845D01*
X170314241Y-83567845D02*
X170250332Y-83423726D01*
X170250332Y-83423726D02*
X170172538Y-83297106D01*
X170172538Y-83297106D02*
X170080911Y-83188115D01*
X170080911Y-83188115D02*
X169975503Y-83096883D01*
X169975503Y-83096883D02*
X169930338Y-83065932D01*
X169930338Y-83065932D02*
X169829389Y-83009785D01*
X169829389Y-83009785D02*
X169726099Y-82970174D01*
X169726099Y-82970174D02*
X169616011Y-82946014D01*
X169616011Y-82946014D02*
X169494670Y-82936219D01*
X169494670Y-82936219D02*
X169402164Y-82937265D01*
X169402164Y-82937265D02*
X169272510Y-82948231D01*
X169272510Y-82948231D02*
X169159916Y-82970046D01*
X169159916Y-82970046D02*
X169061125Y-83003714D01*
X169061125Y-83003714D02*
X168972879Y-83050236D01*
X168972879Y-83050236D02*
X168924014Y-83084448D01*
X168924014Y-83084448D02*
X168894647Y-83106362D01*
X168894647Y-83106362D02*
X168872957Y-83121333D01*
X168872957Y-83121333D02*
X168864747Y-83125733D01*
X168864747Y-83125733D02*
X168863132Y-83114904D01*
X168863132Y-83114904D02*
X168861841Y-83084251D01*
X168861841Y-83084251D02*
X168860862Y-83036526D01*
X168860862Y-83036526D02*
X168860183Y-82974479D01*
X168860183Y-82974479D02*
X168859790Y-82900862D01*
X168859790Y-82900862D02*
X168859670Y-82818427D01*
X168859670Y-82818427D02*
X168859812Y-82729925D01*
X168859812Y-82729925D02*
X168860203Y-82638107D01*
X168860203Y-82638107D02*
X168860829Y-82545724D01*
X168860829Y-82545724D02*
X168861680Y-82455528D01*
X168861680Y-82455528D02*
X168862740Y-82370271D01*
X168862740Y-82370271D02*
X168863999Y-82292703D01*
X168863999Y-82292703D02*
X168865444Y-82225576D01*
X168865444Y-82225576D02*
X168867062Y-82171641D01*
X168867062Y-82171641D02*
X168868839Y-82133650D01*
X168868839Y-82133650D02*
X168869331Y-82126667D01*
X168869331Y-82126667D02*
X168876908Y-82056251D01*
X168876908Y-82056251D02*
X168888469Y-82001102D01*
X168888469Y-82001102D02*
X168906208Y-81953981D01*
X168906208Y-81953981D02*
X168932318Y-81907647D01*
X168932318Y-81907647D02*
X168938585Y-81898067D01*
X168938585Y-81898067D02*
X168963017Y-81861378D01*
X168963017Y-81861378D02*
X168057689Y-81861378D01*
X168057689Y-81861378D02*
X168057493Y-83546245D01*
X168057493Y-83546245D02*
X168057493Y-83546245D01*
G36*
X170429268Y-84394158D02*
G01*
X170420689Y-84545594D01*
X170401833Y-84682283D01*
X170371837Y-84808276D01*
X170329836Y-84927625D01*
X170274969Y-85044381D01*
X170208167Y-85155179D01*
X170117363Y-85268739D01*
X170013708Y-85364211D01*
X169897887Y-85441073D01*
X169770586Y-85498797D01*
X169632489Y-85536858D01*
X169594793Y-85542666D01*
X169515752Y-85548396D01*
X169427629Y-85548583D01*
X169338236Y-85543539D01*
X169255384Y-85533578D01*
X169186887Y-85519012D01*
X169156035Y-85509364D01*
X169078730Y-85479123D01*
X169001679Y-85441617D01*
X168932200Y-85400614D01*
X168877615Y-85359879D01*
X168854916Y-85340505D01*
X168832201Y-85322662D01*
X168820779Y-85315778D01*
X168819537Y-85317424D01*
X168816728Y-85335205D01*
X168814776Y-85368370D01*
X168814045Y-85411733D01*
X168814045Y-85507689D01*
X167955896Y-85507689D01*
X167990161Y-85446974D01*
X167995355Y-85437868D01*
X168003715Y-85423249D01*
X168011288Y-85409173D01*
X168018112Y-85394540D01*
X168024227Y-85378249D01*
X168029673Y-85359198D01*
X168034487Y-85336286D01*
X168038708Y-85308413D01*
X168042377Y-85274478D01*
X168045531Y-85233379D01*
X168048211Y-85184015D01*
X168050454Y-85125286D01*
X168052299Y-85056090D01*
X168053787Y-84975326D01*
X168054955Y-84881894D01*
X168055678Y-84794721D01*
X168859200Y-84794721D01*
X168929756Y-84841089D01*
X168970417Y-84864791D01*
X169024546Y-84890639D01*
X169073689Y-84908829D01*
X169137165Y-84924551D01*
X169233331Y-84935541D01*
X169317900Y-84927365D01*
X169391219Y-84899805D01*
X169453637Y-84852642D01*
X169505502Y-84785658D01*
X169547160Y-84698633D01*
X169578962Y-84591350D01*
X169581545Y-84579009D01*
X169590000Y-84517772D01*
X169595663Y-84440692D01*
X169598576Y-84353002D01*
X169598783Y-84259934D01*
X169596330Y-84166720D01*
X169591261Y-84078594D01*
X169583619Y-84000788D01*
X169573448Y-83938533D01*
X169572167Y-83932666D01*
X169543126Y-83822121D01*
X169508610Y-83731575D01*
X169467456Y-83658953D01*
X169418499Y-83602181D01*
X169360574Y-83559184D01*
X169328620Y-83543615D01*
X169255784Y-83524722D01*
X169174443Y-83521465D01*
X169089319Y-83533389D01*
X169005133Y-83560040D01*
X168926608Y-83600962D01*
X168859200Y-83644530D01*
X168859200Y-84794721D01*
X168055678Y-84794721D01*
X168055844Y-84774692D01*
X168056491Y-84652620D01*
X168056936Y-84514576D01*
X168057218Y-84359459D01*
X168057375Y-84186168D01*
X168057448Y-83993603D01*
X168057474Y-83780662D01*
X168057493Y-83546245D01*
X168057689Y-81861378D01*
X168963017Y-81861378D01*
X168938585Y-81898067D01*
X168932318Y-81907647D01*
X168906208Y-81953981D01*
X168888469Y-82001102D01*
X168876908Y-82056251D01*
X168869331Y-82126667D01*
X168868839Y-82133650D01*
X168867062Y-82171641D01*
X168865444Y-82225576D01*
X168863999Y-82292703D01*
X168862740Y-82370271D01*
X168861680Y-82455528D01*
X168860829Y-82545724D01*
X168860203Y-82638107D01*
X168859812Y-82729925D01*
X168859670Y-82818427D01*
X168859790Y-82900862D01*
X168860183Y-82974479D01*
X168860862Y-83036526D01*
X168861841Y-83084251D01*
X168863132Y-83114904D01*
X168864747Y-83125733D01*
X168872957Y-83121333D01*
X168894647Y-83106362D01*
X168924014Y-83084448D01*
X168972879Y-83050236D01*
X169061125Y-83003714D01*
X169159916Y-82970046D01*
X169272510Y-82948231D01*
X169402164Y-82937265D01*
X169494670Y-82936219D01*
X169616011Y-82946014D01*
X169726099Y-82970174D01*
X169829389Y-83009785D01*
X169930338Y-83065932D01*
X169975503Y-83096883D01*
X170080911Y-83188115D01*
X170172538Y-83297106D01*
X170250332Y-83423726D01*
X170314241Y-83567845D01*
X170364214Y-83729332D01*
X170400198Y-83908059D01*
X170422143Y-84103895D01*
X170427900Y-84259934D01*
X170429994Y-84316711D01*
X170429268Y-84394158D01*
G37*
X170429268Y-84394158D02*
X170420689Y-84545594D01*
X170401833Y-84682283D01*
X170371837Y-84808276D01*
X170329836Y-84927625D01*
X170274969Y-85044381D01*
X170208167Y-85155179D01*
X170117363Y-85268739D01*
X170013708Y-85364211D01*
X169897887Y-85441073D01*
X169770586Y-85498797D01*
X169632489Y-85536858D01*
X169594793Y-85542666D01*
X169515752Y-85548396D01*
X169427629Y-85548583D01*
X169338236Y-85543539D01*
X169255384Y-85533578D01*
X169186887Y-85519012D01*
X169156035Y-85509364D01*
X169078730Y-85479123D01*
X169001679Y-85441617D01*
X168932200Y-85400614D01*
X168877615Y-85359879D01*
X168854916Y-85340505D01*
X168832201Y-85322662D01*
X168820779Y-85315778D01*
X168819537Y-85317424D01*
X168816728Y-85335205D01*
X168814776Y-85368370D01*
X168814045Y-85411733D01*
X168814045Y-85507689D01*
X167955896Y-85507689D01*
X167990161Y-85446974D01*
X167995355Y-85437868D01*
X168003715Y-85423249D01*
X168011288Y-85409173D01*
X168018112Y-85394540D01*
X168024227Y-85378249D01*
X168029673Y-85359198D01*
X168034487Y-85336286D01*
X168038708Y-85308413D01*
X168042377Y-85274478D01*
X168045531Y-85233379D01*
X168048211Y-85184015D01*
X168050454Y-85125286D01*
X168052299Y-85056090D01*
X168053787Y-84975326D01*
X168054955Y-84881894D01*
X168055678Y-84794721D01*
X168859200Y-84794721D01*
X168929756Y-84841089D01*
X168970417Y-84864791D01*
X169024546Y-84890639D01*
X169073689Y-84908829D01*
X169137165Y-84924551D01*
X169233331Y-84935541D01*
X169317900Y-84927365D01*
X169391219Y-84899805D01*
X169453637Y-84852642D01*
X169505502Y-84785658D01*
X169547160Y-84698633D01*
X169578962Y-84591350D01*
X169581545Y-84579009D01*
X169590000Y-84517772D01*
X169595663Y-84440692D01*
X169598576Y-84353002D01*
X169598783Y-84259934D01*
X169596330Y-84166720D01*
X169591261Y-84078594D01*
X169583619Y-84000788D01*
X169573448Y-83938533D01*
X169572167Y-83932666D01*
X169543126Y-83822121D01*
X169508610Y-83731575D01*
X169467456Y-83658953D01*
X169418499Y-83602181D01*
X169360574Y-83559184D01*
X169328620Y-83543615D01*
X169255784Y-83524722D01*
X169174443Y-83521465D01*
X169089319Y-83533389D01*
X169005133Y-83560040D01*
X168926608Y-83600962D01*
X168859200Y-83644530D01*
X168859200Y-84794721D01*
X168055678Y-84794721D01*
X168055844Y-84774692D01*
X168056491Y-84652620D01*
X168056936Y-84514576D01*
X168057218Y-84359459D01*
X168057375Y-84186168D01*
X168057448Y-83993603D01*
X168057474Y-83780662D01*
X168057493Y-83546245D01*
X168057689Y-81861378D01*
X168963017Y-81861378D01*
X168938585Y-81898067D01*
X168932318Y-81907647D01*
X168906208Y-81953981D01*
X168888469Y-82001102D01*
X168876908Y-82056251D01*
X168869331Y-82126667D01*
X168868839Y-82133650D01*
X168867062Y-82171641D01*
X168865444Y-82225576D01*
X168863999Y-82292703D01*
X168862740Y-82370271D01*
X168861680Y-82455528D01*
X168860829Y-82545724D01*
X168860203Y-82638107D01*
X168859812Y-82729925D01*
X168859670Y-82818427D01*
X168859790Y-82900862D01*
X168860183Y-82974479D01*
X168860862Y-83036526D01*
X168861841Y-83084251D01*
X168863132Y-83114904D01*
X168864747Y-83125733D01*
X168872957Y-83121333D01*
X168894647Y-83106362D01*
X168924014Y-83084448D01*
X168972879Y-83050236D01*
X169061125Y-83003714D01*
X169159916Y-82970046D01*
X169272510Y-82948231D01*
X169402164Y-82937265D01*
X169494670Y-82936219D01*
X169616011Y-82946014D01*
X169726099Y-82970174D01*
X169829389Y-83009785D01*
X169930338Y-83065932D01*
X169975503Y-83096883D01*
X170080911Y-83188115D01*
X170172538Y-83297106D01*
X170250332Y-83423726D01*
X170314241Y-83567845D01*
X170364214Y-83729332D01*
X170400198Y-83908059D01*
X170422143Y-84103895D01*
X170427900Y-84259934D01*
X170429994Y-84316711D01*
X170429268Y-84394158D01*
X176517043Y-81100571D02*
X176420768Y-81124809D01*
X176420768Y-81124809D02*
X176334184Y-81167641D01*
X176334184Y-81167641D02*
X176259373Y-81227419D01*
X176259373Y-81227419D02*
X176198418Y-81302494D01*
X176198418Y-81302494D02*
X176153399Y-81391220D01*
X176153399Y-81391220D02*
X176127136Y-81487530D01*
X176127136Y-81487530D02*
X176121286Y-81584795D01*
X176121286Y-81584795D02*
X176136140Y-81678654D01*
X176136140Y-81678654D02*
X176169840Y-81766511D01*
X176169840Y-81766511D02*
X176220528Y-81845770D01*
X176220528Y-81845770D02*
X176286345Y-81913836D01*
X176286345Y-81913836D02*
X176365434Y-81968112D01*
X176365434Y-81968112D02*
X176455934Y-82006002D01*
X176455934Y-82006002D02*
X176507200Y-82018426D01*
X176507200Y-82018426D02*
X176551698Y-82025947D01*
X176551698Y-82025947D02*
X176585999Y-82028919D01*
X176585999Y-82028919D02*
X176618960Y-82027094D01*
X176618960Y-82027094D02*
X176659434Y-82020225D01*
X176659434Y-82020225D02*
X176692531Y-82013250D01*
X176692531Y-82013250D02*
X176785947Y-81981741D01*
X176785947Y-81981741D02*
X176869619Y-81930617D01*
X176869619Y-81930617D02*
X176941665Y-81861429D01*
X176941665Y-81861429D02*
X177000200Y-81775728D01*
X177000200Y-81775728D02*
X177014148Y-81748489D01*
X177014148Y-81748489D02*
X177030586Y-81712122D01*
X177030586Y-81712122D02*
X177040894Y-81681582D01*
X177040894Y-81681582D02*
X177046460Y-81649450D01*
X177046460Y-81649450D02*
X177048669Y-81608307D01*
X177048669Y-81608307D02*
X177048948Y-81562222D01*
X177048948Y-81562222D02*
X177044861Y-81477865D01*
X177044861Y-81477865D02*
X177031446Y-81408586D01*
X177031446Y-81408586D02*
X177006256Y-81347961D01*
X177006256Y-81347961D02*
X176966846Y-81289567D01*
X176966846Y-81289567D02*
X176928298Y-81245302D01*
X176928298Y-81245302D02*
X176856406Y-81179484D01*
X176856406Y-81179484D02*
X176781313Y-81134053D01*
X176781313Y-81134053D02*
X176698562Y-81106850D01*
X176698562Y-81106850D02*
X176620928Y-81096576D01*
X176620928Y-81096576D02*
X176517043Y-81100571D01*
X176517043Y-81100571D02*
X176517043Y-81100571D01*
G36*
X176698562Y-81106850D02*
G01*
X176781313Y-81134053D01*
X176856406Y-81179484D01*
X176928298Y-81245302D01*
X176966846Y-81289567D01*
X177006256Y-81347961D01*
X177031446Y-81408586D01*
X177044861Y-81477865D01*
X177048948Y-81562222D01*
X177048669Y-81608307D01*
X177046460Y-81649450D01*
X177040894Y-81681582D01*
X177030586Y-81712122D01*
X177014148Y-81748489D01*
X177000200Y-81775728D01*
X176941665Y-81861429D01*
X176869619Y-81930617D01*
X176785947Y-81981741D01*
X176692531Y-82013250D01*
X176659434Y-82020225D01*
X176618960Y-82027094D01*
X176585999Y-82028919D01*
X176551698Y-82025947D01*
X176507200Y-82018426D01*
X176455934Y-82006002D01*
X176365434Y-81968112D01*
X176286345Y-81913836D01*
X176220528Y-81845770D01*
X176169840Y-81766511D01*
X176136140Y-81678654D01*
X176121286Y-81584795D01*
X176127136Y-81487530D01*
X176153399Y-81391220D01*
X176198418Y-81302494D01*
X176259373Y-81227419D01*
X176334184Y-81167641D01*
X176420768Y-81124809D01*
X176517043Y-81100571D01*
X176620928Y-81096576D01*
X176698562Y-81106850D01*
G37*
X176698562Y-81106850D02*
X176781313Y-81134053D01*
X176856406Y-81179484D01*
X176928298Y-81245302D01*
X176966846Y-81289567D01*
X177006256Y-81347961D01*
X177031446Y-81408586D01*
X177044861Y-81477865D01*
X177048948Y-81562222D01*
X177048669Y-81608307D01*
X177046460Y-81649450D01*
X177040894Y-81681582D01*
X177030586Y-81712122D01*
X177014148Y-81748489D01*
X177000200Y-81775728D01*
X176941665Y-81861429D01*
X176869619Y-81930617D01*
X176785947Y-81981741D01*
X176692531Y-82013250D01*
X176659434Y-82020225D01*
X176618960Y-82027094D01*
X176585999Y-82028919D01*
X176551698Y-82025947D01*
X176507200Y-82018426D01*
X176455934Y-82006002D01*
X176365434Y-81968112D01*
X176286345Y-81913836D01*
X176220528Y-81845770D01*
X176169840Y-81766511D01*
X176136140Y-81678654D01*
X176121286Y-81584795D01*
X176127136Y-81487530D01*
X176153399Y-81391220D01*
X176198418Y-81302494D01*
X176259373Y-81227419D01*
X176334184Y-81167641D01*
X176420768Y-81124809D01*
X176517043Y-81100571D01*
X176620928Y-81096576D01*
X176698562Y-81106850D01*
D12*
%TO.C,U7*%
X127402000Y-77042000D02*
X129152000Y-77042000D01*
X127402000Y-77994000D02*
X127402000Y-77042000D01*
X137968400Y-77042000D02*
X139718400Y-77042000D01*
X127402000Y-77994000D02*
X139802000Y-77994000D01*
X139700400Y-77994000D02*
X139718400Y-77042000D01*
%TO.C,C10*%
X152448457Y-83472990D02*
X152078990Y-83842457D01*
X151409010Y-82433543D02*
X151039543Y-82803010D01*
%TO.C,C9*%
X147229543Y-81787010D02*
X147599010Y-81417543D01*
X148268990Y-82826457D02*
X148638457Y-82456990D01*
%TO.C,Q1*%
X135107000Y-70529000D02*
X134457000Y-70529000D01*
X135107000Y-70529000D02*
X135757000Y-70529000D01*
X135107000Y-73649000D02*
X133432000Y-73649000D01*
X135107000Y-73649000D02*
X135757000Y-73649000D01*
%TO.C,C16*%
X159052457Y-76199010D02*
X158682990Y-75829543D01*
X158013010Y-77238457D02*
X157643543Y-76868990D01*
%TO.C,C1*%
X127841000Y-65792748D02*
X127841000Y-66315252D01*
X126371000Y-65792748D02*
X126371000Y-66315252D01*
%TO.C,C31*%
X177136748Y-76815000D02*
X177659252Y-76815000D01*
X177136748Y-78285000D02*
X177659252Y-78285000D01*
%TO.C,TP2*%
X139106000Y-61356000D02*
X139106000Y-62756000D01*
X140506000Y-62756000D02*
X140506000Y-61356000D01*
X139106000Y-62756000D02*
X140506000Y-62756000D01*
X140506000Y-61356000D02*
X139106000Y-61356000D01*
%TO.C,C6*%
X140052748Y-74783000D02*
X140575252Y-74783000D01*
X140052748Y-76253000D02*
X140575252Y-76253000D01*
%TO.C,U3*%
X163814000Y-88326000D02*
X163814000Y-87066000D01*
X160054000Y-81506000D02*
X163814000Y-81506000D01*
X163814000Y-81506000D02*
X163814000Y-82766000D01*
X157804000Y-88326000D02*
X163814000Y-88326000D01*
%TO.C,TP1*%
X143300000Y-81044000D02*
X143300000Y-79644000D01*
X143300000Y-79644000D02*
X141900000Y-79644000D01*
X141900000Y-79644000D02*
X141900000Y-81044000D01*
X141900000Y-81044000D02*
X143300000Y-81044000D01*
%TO.C,X1*%
X154544513Y-74796940D02*
X152211060Y-72463487D01*
X152211060Y-72463487D02*
X155039487Y-69635060D01*
%TO.C,U2*%
X135342000Y-67426000D02*
X135342000Y-61416000D01*
X128522000Y-61416000D02*
X129782000Y-61416000D01*
X128522000Y-65176000D02*
X128522000Y-61416000D01*
X135342000Y-61416000D02*
X134082000Y-61416000D01*
%TO.C,C32*%
X162165252Y-66401000D02*
X161642748Y-66401000D01*
X162165252Y-67871000D02*
X161642748Y-67871000D01*
%TO.C,R3*%
X127851258Y-71693500D02*
X127376742Y-71693500D01*
X127851258Y-72738500D02*
X127376742Y-72738500D01*
%TO.C,C33*%
X177136748Y-76253000D02*
X177659252Y-76253000D01*
X177136748Y-74783000D02*
X177659252Y-74783000D01*
%TO.C,Y1*%
X148314532Y-79703883D02*
X152380396Y-75638019D01*
X154925981Y-78183604D02*
X150860117Y-82249468D01*
X150860117Y-82249468D02*
X148314532Y-79703883D01*
%TO.C,R22*%
X177635258Y-79850500D02*
X177160742Y-79850500D01*
X177635258Y-78805500D02*
X177160742Y-78805500D01*
%TO.C,C27*%
X166229252Y-67544000D02*
X165706748Y-67544000D01*
X166229252Y-69014000D02*
X165706748Y-69014000D01*
%TO.C,TP3*%
X140506000Y-63642000D02*
X139106000Y-63642000D01*
X139106000Y-65042000D02*
X140506000Y-65042000D01*
X139106000Y-63642000D02*
X139106000Y-65042000D01*
X140506000Y-65042000D02*
X140506000Y-63642000D01*
%TO.C,TP6*%
X136820000Y-62756000D02*
X138220000Y-62756000D01*
X138220000Y-62756000D02*
X138220000Y-61356000D01*
X136820000Y-61356000D02*
X136820000Y-62756000D01*
X138220000Y-61356000D02*
X136820000Y-61356000D01*
%TO.C,C28*%
X162165252Y-64369000D02*
X161642748Y-64369000D01*
X162165252Y-65839000D02*
X161642748Y-65839000D01*
%TO.C,R29*%
X138964258Y-73754500D02*
X138489742Y-73754500D01*
X138964258Y-72709500D02*
X138489742Y-72709500D01*
%TO.C,C21*%
X153021252Y-63807000D02*
X152498748Y-63807000D01*
X153021252Y-62337000D02*
X152498748Y-62337000D01*
%TO.C,R6*%
X153977697Y-81135230D02*
X154313230Y-80799697D01*
X153238770Y-80396303D02*
X153574303Y-80060770D01*
%TO.C,L2*%
X157248555Y-74361404D02*
X156683404Y-74926555D01*
X156456596Y-73569445D02*
X155891445Y-74134596D01*
%TO.C,R19*%
X131788258Y-73627500D02*
X131313742Y-73627500D01*
X131788258Y-72582500D02*
X131313742Y-72582500D01*
%TO.C,C7*%
X136023000Y-66381252D02*
X136023000Y-65858748D01*
X137493000Y-66381252D02*
X137493000Y-65858748D01*
%TO.C,R4*%
X127851258Y-71214500D02*
X127376742Y-71214500D01*
X127851258Y-70169500D02*
X127376742Y-70169500D01*
%TO.C,C11*%
X155611543Y-78231010D02*
X155981010Y-77861543D01*
X156650990Y-79270457D02*
X157020457Y-78900990D01*
%TO.C,TP4*%
X141392000Y-62756000D02*
X142792000Y-62756000D01*
X142792000Y-62756000D02*
X142792000Y-61356000D01*
X142792000Y-61356000D02*
X141392000Y-61356000D01*
X141392000Y-61356000D02*
X141392000Y-62756000D01*
%TO.C,C17*%
X143897000Y-62571252D02*
X143897000Y-62048748D01*
X145367000Y-62571252D02*
X145367000Y-62048748D01*
%TD*%
M02*
