M48
; DRILL file {KiCad (6.0.0)} date Thu Mar 10 17:48:56 2022
; FORMAT={-:-/ absolute / inch / decimal}
; #@! TF.CreationDate,2022-03-10T17:48:56+08:00
; #@! TF.GenerationSoftware,Kicad,Pcbnew,(6.0.0)
; #@! TF.FileFunction,Plated,1,4,PTH
FMAT,2
INCH
; #@! TA.AperFunction,Plated,PTH,ViaDrill
T1C0.0157
; #@! TA.AperFunction,Plated,PTH,ComponentDrill
T2C0.0315
; #@! TA.AperFunction,Plated,PTH,ViaDrill
T3C0.1181
%
G90
G05
T1
X4.9142Y-2.8831
X4.9142Y-2.9331
X4.9242Y-3.0431
X4.9442Y-2.6331
X5.0042Y-2.6331
X5.09Y-3.22
X5.0942Y-2.7831
X5.0942Y-2.8331
X5.1036Y-2.6172
X5.1542Y-2.3631
X5.1742Y-3.1531
X5.1942Y-2.6131
X5.1972Y-2.3661
X5.2242Y-3.1131
X5.2342Y-2.3631
X5.2342Y-3.2431
X5.2792Y-3.1981
X5.3092Y-3.1481
X5.4842Y-2.9731
X5.4942Y-2.8831
X5.5442Y-3.2031
X5.5542Y-2.8431
X5.5642Y-2.9131
X5.5642Y-3.2831
X5.6142Y-3.1631
X5.6667Y-3.1257
X5.6842Y-2.6531
X5.6842Y-2.6981
X5.6842Y-2.7481
X5.6942Y-2.4131
X5.7242Y-2.8731
X5.7292Y-2.6531
X5.7342Y-2.9231
X5.7642Y-3.1581
X5.7642Y-3.4031
X5.7742Y-2.6731
X5.7742Y-2.8231
X5.7842Y-2.8831
X5.8142Y-3.1431
X5.8342Y-2.8431
X5.8442Y-2.5831
X5.9042Y-2.3931
X5.9042Y-2.4431
X5.9142Y-2.5831
X5.9227Y-3.1547
X5.9542Y-2.8031
X5.9742Y-2.5831
X5.9942Y-2.8181
X5.9942Y-3.1231
X6.0242Y-3.0531
X6.0342Y-2.7731
X6.0629Y-2.9719
X6.0692Y-2.7281
X6.0742Y-2.6531
X6.0942Y-2.8031
X6.1042Y-3.0131
X6.1242Y-2.6931
X6.1542Y-2.8281
X6.1542Y-3.3431
X6.1842Y-3.0731
X6.1942Y-2.4431
X6.2442Y-2.9257
X6.2542Y-2.4431
X6.2842Y-2.7031
X6.29Y-2.78
X6.3342Y-2.5631
X6.4742Y-2.4931
X6.4742Y-3.0802
X6.4842Y-3.3031
X6.4842Y-3.3731
X6.4942Y-2.6881
X6.5242Y-2.8731
X6.5729Y-3.1344
X6.5742Y-2.6881
X6.5942Y-3.2731
X6.64Y-3.19
X6.6542Y-2.7831
X6.7242Y-3.2837
X6.7492Y-2.7981
X6.7642Y-2.6731
X6.7842Y-2.4731
X6.8042Y-3.0381
X6.82Y-2.66
X6.82Y-3.32
X6.82Y-3.4
X6.82Y-3.47
X6.8342Y-3.2231
X6.9242Y-3.1731
X6.9442Y-2.9731
X6.9492Y-3.0531
X6.95Y-3.47
X6.9842Y-3.1981
X7.0192Y-3.1631
X7.0242Y-2.9731
X7.0242Y-3.0481
X7.04Y-3.45
X7.1042Y-3.2031
X7.11Y-3.4
X7.1642Y-3.0731
X7.2Y-3.31
X7.23Y-2.97
X7.25Y-3.03
X7.25Y-3.12
X7.25Y-3.22
T3
X4.7244Y-2.3819
X4.7244Y-3.4449
X7.2441Y-2.3819
X7.2441Y-3.4449
T2
G00X4.6953Y-2.7331
M15
G01X4.6599Y-2.7331
M16
G05
G00X4.6953Y-3.1131
M15
G01X4.6599Y-3.1131
M16
G05
G00X4.8243Y-2.7331
M15
G01X4.7889Y-2.7331
M16
G05
G00X4.8243Y-3.1131
M15
G01X4.7889Y-3.1131
M16
G05
T0
M30
