%TF.GenerationSoftware,KiCad,Pcbnew,(6.0.0)*%
%TF.CreationDate,2022-03-10T17:49:05+08:00*%
%TF.ProjectId,st_usbAudioV1_demo,73745f75-7362-4417-9564-696f56315f64,rev?*%
%TF.SameCoordinates,Original*%
%TF.FileFunction,Copper,L4,Bot*%
%TF.FilePolarity,Positive*%
%FSLAX46Y46*%
G04 Gerber Fmt 4.6, Leading zero omitted, Abs format (unit mm)*
G04 Created by KiCad (PCBNEW (6.0.0)) date 2022-03-10 17:49:05*
%MOMM*%
%LPD*%
G01*
G04 APERTURE LIST*
G04 Aperture macros list*
%AMRoundRect*
0 Rectangle with rounded corners*
0 $1 Rounding radius*
0 $2 $3 $4 $5 $6 $7 $8 $9 X,Y pos of 4 corners*
0 Add a 4 corners polygon primitive as box body*
4,1,4,$2,$3,$4,$5,$6,$7,$8,$9,$2,$3,0*
0 Add four circle primitives for the rounded corners*
1,1,$1+$1,$2,$3*
1,1,$1+$1,$4,$5*
1,1,$1+$1,$6,$7*
1,1,$1+$1,$8,$9*
0 Add four rect primitives between the rounded corners*
20,1,$1+$1,$2,$3,$4,$5,0*
20,1,$1+$1,$4,$5,$6,$7,0*
20,1,$1+$1,$6,$7,$8,$9,0*
20,1,$1+$1,$8,$9,$2,$3,0*%
%AMRotRect*
0 Rectangle, with rotation*
0 The origin of the aperture is its center*
0 $1 length*
0 $2 width*
0 $3 Rotation angle, in degrees counterclockwise*
0 Add horizontal line*
21,1,$1,$2,0,0,$3*%
G04 Aperture macros list end*
%TA.AperFunction,SMDPad,CuDef*%
%ADD10R,0.400000X4.000000*%
%TD*%
%TA.AperFunction,ComponentPad*%
%ADD11O,2.300000X1.400000*%
%TD*%
%TA.AperFunction,SMDPad,CuDef*%
%ADD12RoundRect,0.250000X-0.159099X0.512652X-0.512652X0.159099X0.159099X-0.512652X0.512652X-0.159099X0*%
%TD*%
%TA.AperFunction,SMDPad,CuDef*%
%ADD13RoundRect,0.250000X0.159099X-0.512652X0.512652X-0.159099X-0.159099X0.512652X-0.512652X0.159099X0*%
%TD*%
%TA.AperFunction,SMDPad,CuDef*%
%ADD14RoundRect,0.150000X-0.587500X-0.150000X0.587500X-0.150000X0.587500X0.150000X-0.587500X0.150000X0*%
%TD*%
%TA.AperFunction,SMDPad,CuDef*%
%ADD15RoundRect,0.250000X0.512652X0.159099X0.159099X0.512652X-0.512652X-0.159099X-0.159099X-0.512652X0*%
%TD*%
%TA.AperFunction,SMDPad,CuDef*%
%ADD16RoundRect,0.250000X-0.475000X0.250000X-0.475000X-0.250000X0.475000X-0.250000X0.475000X0.250000X0*%
%TD*%
%TA.AperFunction,SMDPad,CuDef*%
%ADD17RoundRect,0.250000X-0.250000X-0.475000X0.250000X-0.475000X0.250000X0.475000X-0.250000X0.475000X0*%
%TD*%
%TA.AperFunction,SMDPad,CuDef*%
%ADD18R,1.000000X1.000000*%
%TD*%
%TA.AperFunction,SMDPad,CuDef*%
%ADD19R,2.000000X1.500000*%
%TD*%
%TA.AperFunction,SMDPad,CuDef*%
%ADD20R,2.000000X3.800000*%
%TD*%
%TA.AperFunction,SMDPad,CuDef*%
%ADD21RotRect,1.400000X1.200000X45.000000*%
%TD*%
%TA.AperFunction,SMDPad,CuDef*%
%ADD22R,1.500000X2.000000*%
%TD*%
%TA.AperFunction,SMDPad,CuDef*%
%ADD23R,3.800000X2.000000*%
%TD*%
%TA.AperFunction,SMDPad,CuDef*%
%ADD24RoundRect,0.250000X0.250000X0.475000X-0.250000X0.475000X-0.250000X-0.475000X0.250000X-0.475000X0*%
%TD*%
%TA.AperFunction,SMDPad,CuDef*%
%ADD25RoundRect,0.200000X0.200000X0.275000X-0.200000X0.275000X-0.200000X-0.275000X0.200000X-0.275000X0*%
%TD*%
%TA.AperFunction,SMDPad,CuDef*%
%ADD26RotRect,2.000000X2.400000X45.000000*%
%TD*%
%TA.AperFunction,SMDPad,CuDef*%
%ADD27RoundRect,0.200000X0.053033X-0.335876X0.335876X-0.053033X-0.053033X0.335876X-0.335876X0.053033X0*%
%TD*%
%TA.AperFunction,SMDPad,CuDef*%
%ADD28RoundRect,0.218750X-0.114905X0.424264X-0.424264X0.114905X0.114905X-0.424264X0.424264X-0.114905X0*%
%TD*%
%TA.AperFunction,SMDPad,CuDef*%
%ADD29RoundRect,0.250000X0.475000X-0.250000X0.475000X0.250000X-0.475000X0.250000X-0.475000X-0.250000X0*%
%TD*%
%TA.AperFunction,ViaPad*%
%ADD30C,0.800000*%
%TD*%
%TA.AperFunction,ViaPad*%
%ADD31C,3.600000*%
%TD*%
%TA.AperFunction,Conductor*%
%ADD32C,0.150000*%
%TD*%
%TA.AperFunction,Conductor*%
%ADD33C,0.500000*%
%TD*%
%TA.AperFunction,Conductor*%
%ADD34C,0.250000*%
%TD*%
%TA.AperFunction,Conductor*%
%ADD35C,0.200000*%
%TD*%
%TA.AperFunction,Conductor*%
%ADD36C,0.300000*%
%TD*%
G04 APERTURE END LIST*
D10*
%TO.P,U7,1,TP0*%
%TO.N,unconnected-(U7-Pad1)*%
X137824800Y-76076800D03*
%TO.P,U7,2,TP1*%
%TO.N,unconnected-(U7-Pad2)*%
X137113600Y-76076800D03*
%TO.P,U7,3,SDA*%
%TO.N,/LCD_MOSI*%
X136402400Y-76076800D03*
%TO.P,U7,4,SCL*%
%TO.N,/LCD_CLK*%
X135691200Y-76076800D03*
%TO.P,U7,5,RS*%
%TO.N,/LCD_RS*%
X134980000Y-76076800D03*
%TO.P,U7,6,RESET*%
%TO.N,/LCD_RST*%
X134268800Y-76076800D03*
%TO.P,U7,7,CS*%
%TO.N,/LCD_CS*%
X133557600Y-76076800D03*
%TO.P,U7,8,GND*%
%TO.N,GND*%
X132846400Y-76076800D03*
%TO.P,U7,9,NC*%
%TO.N,unconnected-(U7-Pad9)*%
X132135200Y-76076800D03*
%TO.P,U7,10,VDD*%
%TO.N,+3V3*%
X131424000Y-76076800D03*
%TO.P,U7,11,LEDK*%
%TO.N,Net-(R19-Pad2)*%
X130712800Y-76076800D03*
%TO.P,U7,12,LEDA*%
%TO.N,+3V3*%
X130001600Y-76076800D03*
%TO.P,U7,13,GND*%
%TO.N,GND*%
X129290400Y-76076800D03*
%TD*%
D11*
%TO.P,U8,6,Shild*%
%TO.N,GND*%
X122088350Y-79074000D03*
X118811750Y-79074000D03*
X122088350Y-69422000D03*
X118811750Y-69422000D03*
%TD*%
D12*
%TO.P,C10,1*%
%TO.N,Net-(C10-Pad1)*%
X152415751Y-82466249D03*
%TO.P,C10,2*%
%TO.N,GND*%
X151072249Y-83809751D03*
%TD*%
D13*
%TO.P,C9,1*%
%TO.N,GND*%
X147262249Y-82793751D03*
%TO.P,C9,2*%
%TO.N,+3V3*%
X148605751Y-81450249D03*
%TD*%
D14*
%TO.P,Q1,1,B*%
%TO.N,Net-(Q1-Pad1)*%
X134169500Y-73039000D03*
%TO.P,Q1,2,E*%
%TO.N,GND*%
X134169500Y-71139000D03*
%TO.P,Q1,3,C*%
%TO.N,Net-(Q1-Pad3)*%
X136044500Y-72089000D03*
%TD*%
D15*
%TO.P,C16,1*%
%TO.N,GND*%
X159019751Y-77205751D03*
%TO.P,C16,2*%
%TO.N,Net-(C16-Pad2)*%
X157676249Y-75862249D03*
%TD*%
D16*
%TO.P,C1,1*%
%TO.N,GND*%
X127106000Y-65104000D03*
%TO.P,C1,2*%
%TO.N,+5V*%
X127106000Y-67004000D03*
%TD*%
D17*
%TO.P,C31,1*%
%TO.N,GNDA*%
X176448000Y-77550000D03*
%TO.P,C31,2*%
%TO.N,Net-(C31-Pad2)*%
X178348000Y-77550000D03*
%TD*%
D18*
%TO.P,TP2,1,1*%
%TO.N,/SWCLK*%
X139806000Y-62056000D03*
%TD*%
D17*
%TO.P,C6,1*%
%TO.N,GND*%
X139364000Y-75518000D03*
%TO.P,C6,2*%
%TO.N,+3V3*%
X141264000Y-75518000D03*
%TD*%
D19*
%TO.P,U3,1,GND*%
%TO.N,GND*%
X158754000Y-87216000D03*
%TO.P,U3,2,VO*%
%TO.N,Net-(C8-Pad1)*%
X158754000Y-84916000D03*
D20*
X165054000Y-84916000D03*
D19*
%TO.P,U3,3,VI*%
%TO.N,+5V*%
X158754000Y-82616000D03*
%TD*%
D18*
%TO.P,TP1,1,1*%
%TO.N,/BOOT0*%
X142600000Y-80344000D03*
%TD*%
D21*
%TO.P,X1,1,Tri-State*%
%TO.N,+3V3*%
X153413142Y-72392777D03*
%TO.P,X1,2,GND*%
%TO.N,GND*%
X154968777Y-70837142D03*
%TO.P,X1,3,OUT*%
%TO.N,Net-(U4-Pad11)*%
X156170858Y-72039223D03*
%TO.P,X1,4,VDD*%
%TO.N,Net-(C16-Pad2)*%
X154615223Y-73594858D03*
%TD*%
D22*
%TO.P,U2,1,GND*%
%TO.N,GND*%
X134232000Y-66476000D03*
D23*
%TO.P,U2,2,VO*%
%TO.N,+3V3*%
X131932000Y-60176000D03*
D22*
X131932000Y-66476000D03*
%TO.P,U2,3,VI*%
%TO.N,+5V*%
X129632000Y-66476000D03*
%TD*%
D24*
%TO.P,C32,1*%
%TO.N,GNDA*%
X162854000Y-67136000D03*
%TO.P,C32,2*%
%TO.N,+3.3VA*%
X160954000Y-67136000D03*
%TD*%
D25*
%TO.P,R3,1*%
%TO.N,/USB1_D+*%
X128439000Y-72216000D03*
%TO.P,R3,2*%
%TO.N,Net-(R3-Pad2)*%
X126789000Y-72216000D03*
%TD*%
D17*
%TO.P,C33,1*%
%TO.N,Net-(C33-Pad1)*%
X176448000Y-75518000D03*
%TO.P,C33,2*%
%TO.N,Net-(C33-Pad2)*%
X178348000Y-75518000D03*
%TD*%
D26*
%TO.P,Y1,1,1*%
%TO.N,Net-(C10-Pad1)*%
X150435852Y-80128148D03*
%TO.P,Y1,2,2*%
%TO.N,Net-(C11-Pad1)*%
X153052148Y-77511852D03*
%TD*%
D25*
%TO.P,R22,1*%
%TO.N,Net-(R22-Pad1)*%
X178223000Y-79328000D03*
%TO.P,R22,2*%
%TO.N,+3.3VA*%
X176573000Y-79328000D03*
%TD*%
D24*
%TO.P,C27,1*%
%TO.N,GNDA*%
X166918000Y-68279000D03*
%TO.P,C27,2*%
%TO.N,Net-(C27-Pad2)*%
X165018000Y-68279000D03*
%TD*%
D18*
%TO.P,TP3,1,1*%
%TO.N,/SWDIO*%
X139806000Y-64342000D03*
%TD*%
%TO.P,TP6,1,1*%
%TO.N,GND*%
X137520000Y-62056000D03*
%TD*%
D24*
%TO.P,C28,1*%
%TO.N,GNDA*%
X162854000Y-65104000D03*
%TO.P,C28,2*%
%TO.N,+3.3VA*%
X160954000Y-65104000D03*
%TD*%
D25*
%TO.P,R29,1*%
%TO.N,+3V3*%
X139552000Y-73232000D03*
%TO.P,R29,2*%
%TO.N,Net-(Q1-Pad1)*%
X137902000Y-73232000D03*
%TD*%
D24*
%TO.P,C21,1*%
%TO.N,GND*%
X153710000Y-63072000D03*
%TO.P,C21,2*%
%TO.N,Net-(C21-Pad2)*%
X151810000Y-63072000D03*
%TD*%
D27*
%TO.P,R6,1*%
%TO.N,Net-(C10-Pad1)*%
X153192637Y-81181363D03*
%TO.P,R6,2*%
%TO.N,Net-(C11-Pad1)*%
X154359363Y-80014637D03*
%TD*%
D28*
%TO.P,L2,1,1*%
%TO.N,+3V3*%
X157321301Y-73496699D03*
%TO.P,L2,2,2*%
%TO.N,Net-(C16-Pad2)*%
X155818699Y-74999301D03*
%TD*%
D25*
%TO.P,R19,1*%
%TO.N,Net-(Q1-Pad3)*%
X132376000Y-73105000D03*
%TO.P,R19,2*%
%TO.N,Net-(R19-Pad2)*%
X130726000Y-73105000D03*
%TD*%
D29*
%TO.P,C7,1*%
%TO.N,GND*%
X136758000Y-67070000D03*
%TO.P,C7,2*%
%TO.N,+3V3*%
X136758000Y-65170000D03*
%TD*%
D25*
%TO.P,R4,1*%
%TO.N,/USB1_D-*%
X128439000Y-70692000D03*
%TO.P,R4,2*%
%TO.N,Net-(R4-Pad2)*%
X126789000Y-70692000D03*
%TD*%
D13*
%TO.P,C11,1*%
%TO.N,Net-(C11-Pad1)*%
X155644249Y-79237751D03*
%TO.P,C11,2*%
%TO.N,GND*%
X156987751Y-77894249D03*
%TD*%
D18*
%TO.P,TP4,1,1*%
%TO.N,/TX1*%
X142092000Y-62056000D03*
%TD*%
D29*
%TO.P,C17,1*%
%TO.N,GND*%
X144632000Y-63260000D03*
%TO.P,C17,2*%
%TO.N,/USR*%
X144632000Y-61360000D03*
%TD*%
D30*
%TO.N,GNDA*%
X173228000Y-84328000D03*
X180594000Y-86360000D03*
X183642000Y-75438000D03*
X184150000Y-76962000D03*
X184150000Y-79248000D03*
X184150000Y-81788000D03*
X182880000Y-84074000D03*
X178816000Y-87630000D03*
X176530000Y-88138000D03*
X173228000Y-88138000D03*
X173228000Y-86360000D03*
X168656000Y-81026000D03*
%TO.N,GND*%
X129286000Y-81788000D03*
%TO.N,+5V*%
X127106000Y-66882000D03*
X129632000Y-66476000D03*
X173228000Y-67564000D03*
X156316000Y-84916000D03*
X125582000Y-66882000D03*
%TO.N,GND*%
X152252000Y-79328000D03*
D31*
X120000000Y-87500000D03*
D30*
X146918000Y-73232000D03*
X146664000Y-71708000D03*
X145394000Y-72978000D03*
X140822000Y-81360000D03*
D31*
X120000000Y-60500000D03*
D30*
X157332000Y-62056000D03*
X157078000Y-78058000D03*
X151744000Y-65612000D03*
X158856000Y-62056000D03*
X148188000Y-72216000D03*
X150220000Y-65612000D03*
X139298000Y-75518000D03*
X159766000Y-70612000D03*
X132694000Y-79074000D03*
X154792000Y-71200000D03*
X159618000Y-68660000D03*
X145648000Y-74248000D03*
%TO.N,/BOOT0*%
X142600000Y-80344000D03*
%TO.N,/NRST*%
X146410000Y-86440000D03*
X155046000Y-76534000D03*
%TO.N,+3V3*%
X132008000Y-60100000D03*
X148442000Y-65612000D03*
X153997000Y-75485000D03*
X125074000Y-77296000D03*
X158602000Y-74314000D03*
X141330000Y-83392000D03*
X132948000Y-60024000D03*
X131932000Y-66374000D03*
X149966000Y-60786000D03*
X131424000Y-80090000D03*
X139552000Y-73232000D03*
X130916000Y-60024000D03*
X147680000Y-79836000D03*
%TO.N,Net-(C10-Pad1)*%
X150435852Y-80128148D03*
%TO.N,Net-(C11-Pad1)*%
X153014000Y-77550000D03*
%TO.N,+3.3VA*%
X167492000Y-83138000D03*
X160888000Y-65104000D03*
X166951000Y-79615000D03*
X172826000Y-77169000D03*
X164444000Y-78236000D03*
%TO.N,/USR*%
X144632000Y-61294000D03*
%TO.N,Net-(C21-Pad2)*%
X149966000Y-62056000D03*
D31*
%TO.N,GNDA*%
X184000000Y-60500000D03*
D30*
X166984000Y-68279000D03*
X176509000Y-77550000D03*
D31*
X184000000Y-87500000D03*
D30*
X171810000Y-67898000D03*
X181970000Y-78058000D03*
X175874000Y-80598000D03*
X169016000Y-70692000D03*
X165714000Y-72978000D03*
X180446000Y-81360000D03*
X172318000Y-62818000D03*
X164444000Y-63326000D03*
%TO.N,Net-(C24-Pad2)*%
X173588000Y-81868000D03*
X171429000Y-71073000D03*
%TO.N,Net-(C27-Pad2)*%
X164952000Y-68279000D03*
%TO.N,Net-(C31-Pad2)*%
X178414000Y-77423000D03*
%TO.N,Net-(C33-Pad1)*%
X176382000Y-75518000D03*
%TO.N,/SWDIO*%
X141076000Y-72216000D03*
%TO.N,/SWCLK*%
X141330000Y-73994000D03*
%TO.N,/TX1*%
X144378000Y-67390000D03*
%TO.N,/LCD_CS*%
X132948000Y-82376000D03*
%TO.N,/LCD_CLK*%
X152252000Y-71581000D03*
%TO.N,/LCD_MOSI*%
X151236000Y-71200000D03*
%TO.N,/LCD_RS*%
X134853000Y-79963000D03*
%TO.N,/LCD_RST*%
X134091000Y-81233000D03*
%TO.N,Net-(C33-Pad2)*%
X178414000Y-75518000D03*
%TO.N,/USB1_D+*%
X129392000Y-71962000D03*
%TO.N,/USB1_D-*%
X129392000Y-70692000D03*
%TO.N,/SCL*%
X146410000Y-80217000D03*
X143933000Y-79392000D03*
%TO.N,/UVP*%
X170794000Y-83407200D03*
X177398000Y-81233000D03*
%TO.N,Net-(R22-Pad1)*%
X178287000Y-80344000D03*
%TO.N,/SDIN*%
X153268000Y-70438000D03*
X144378000Y-69803000D03*
%TO.N,/SDOUT*%
X144378000Y-68533000D03*
X154157000Y-69295000D03*
%TO.N,/BCLK*%
X155554000Y-68406000D03*
X145521000Y-67390000D03*
%TO.N,/LRCK*%
X154284000Y-67390000D03*
X146664000Y-67898000D03*
%TO.N,Net-(C8-Pad1)*%
X164698000Y-85678000D03*
X164698000Y-83900000D03*
%TO.N,Net-(R3-Pad2)*%
X124820000Y-74502000D03*
%TO.N,Net-(R4-Pad2)*%
X124820000Y-73232000D03*
%TO.N,Net-(U4-Pad11)*%
X156316000Y-71835000D03*
%TD*%
D32*
%TO.N,/TX1*%
X142092000Y-63580000D02*
X142092000Y-62056000D01*
X142600000Y-64088000D02*
X142092000Y-63580000D01*
X142600000Y-67162000D02*
X142600000Y-64088000D01*
X142828000Y-67390000D02*
X142600000Y-67162000D01*
X144378000Y-67390000D02*
X142828000Y-67390000D01*
D33*
%TO.N,+5V*%
X156316000Y-83646000D02*
X157346000Y-82616000D01*
D34*
X126984000Y-66882000D02*
X127106000Y-67004000D01*
X127512000Y-66476000D02*
X129632000Y-66476000D01*
X127106000Y-66882000D02*
X127512000Y-66476000D01*
D33*
X156316000Y-84916000D02*
X156316000Y-83646000D01*
X157346000Y-82616000D02*
X158754000Y-82616000D01*
D34*
X125582000Y-66882000D02*
X126984000Y-66882000D01*
%TO.N,GND*%
X132694000Y-79074000D02*
X132846400Y-78921600D01*
X132846400Y-78921600D02*
X132846400Y-76076800D01*
D35*
%TO.N,/NRST*%
X155046000Y-77296000D02*
X157078000Y-79328000D01*
X155046000Y-76534000D02*
X155046000Y-77296000D01*
X157078000Y-79836000D02*
X150474000Y-86440000D01*
X157078000Y-79328000D02*
X157078000Y-79836000D01*
X150474000Y-86440000D02*
X146410000Y-86440000D01*
D34*
%TO.N,+3V3*%
X129849200Y-78820000D02*
X130001600Y-78667600D01*
D35*
X141264000Y-74944000D02*
X141264000Y-75518000D01*
D34*
X136316000Y-65170000D02*
X135234000Y-64088000D01*
D35*
X131424000Y-80090000D02*
X131424000Y-76076800D01*
X153997000Y-75485000D02*
X152918167Y-74406167D01*
D34*
X136758000Y-65170000D02*
X136758000Y-64850000D01*
D33*
X131932000Y-66374000D02*
X131932000Y-64088000D01*
D36*
X131932000Y-60176000D02*
X132008000Y-60100000D01*
D35*
X152918167Y-72887752D02*
X153413142Y-72392777D01*
D34*
X125836000Y-77296000D02*
X127360000Y-78820000D01*
X158138602Y-74314000D02*
X157321301Y-73496699D01*
X130001600Y-76076800D02*
X130001600Y-78667600D01*
X158602000Y-74314000D02*
X158138602Y-74314000D01*
X135234000Y-64088000D02*
X131932000Y-64088000D01*
D36*
X132008000Y-60100000D02*
X132338000Y-59770000D01*
D34*
X129646000Y-78820000D02*
X130154000Y-78820000D01*
X130154000Y-78820000D02*
X131424000Y-80090000D01*
X148605751Y-81450249D02*
X148950000Y-81794498D01*
D35*
X139552000Y-73232000D02*
X141264000Y-74944000D01*
X152918167Y-74406167D02*
X152918167Y-72887752D01*
D34*
X147680000Y-80524498D02*
X148605751Y-81450249D01*
X147680000Y-79836000D02*
X147680000Y-80524498D01*
X136758000Y-65170000D02*
X136316000Y-65170000D01*
D33*
X131932000Y-64088000D02*
X131932000Y-60176000D01*
D34*
X125074000Y-77296000D02*
X125836000Y-77296000D01*
X127360000Y-78820000D02*
X129849200Y-78820000D01*
%TO.N,Net-(C10-Pad1)*%
X152139422Y-80128148D02*
X150435852Y-80128148D01*
X152415751Y-82466249D02*
X152415751Y-81958249D01*
X153192637Y-81181363D02*
X152139422Y-80128148D01*
X152415751Y-81958249D02*
X153192637Y-81181363D01*
%TO.N,Net-(C11-Pad1)*%
X155644249Y-79237751D02*
X155136249Y-79237751D01*
X155136249Y-79237751D02*
X154359363Y-80014637D01*
X153014000Y-78669274D02*
X153014000Y-77550000D01*
X154359363Y-80014637D02*
X153014000Y-78669274D01*
X153014000Y-77550000D02*
X153052148Y-77511852D01*
%TO.N,+3.3VA*%
X172826000Y-77169000D02*
X174350000Y-77169000D01*
X160888000Y-65104000D02*
X160888000Y-67070000D01*
X160888000Y-67070000D02*
X160954000Y-67136000D01*
X174858000Y-78693000D02*
X175493000Y-79328000D01*
X176509000Y-79392000D02*
X176573000Y-79328000D01*
X175493000Y-79328000D02*
X176573000Y-79328000D01*
X174858000Y-77677000D02*
X174858000Y-78693000D01*
X174350000Y-77169000D02*
X174858000Y-77677000D01*
%TO.N,Net-(C16-Pad2)*%
X157676249Y-75862249D02*
X156681647Y-75862249D01*
X155818699Y-74999301D02*
X155818699Y-74798334D01*
X156681647Y-75862249D02*
X155818699Y-74999301D01*
X155818699Y-74798334D02*
X154615223Y-73594858D01*
%TO.N,Net-(C21-Pad2)*%
X149966000Y-62056000D02*
X150794000Y-62056000D01*
X150794000Y-62056000D02*
X151810000Y-63072000D01*
D33*
%TO.N,GNDA*%
X162854000Y-65104000D02*
X164190000Y-65104000D01*
X163936000Y-67136000D02*
X164190000Y-66882000D01*
X162854000Y-67136000D02*
X163936000Y-67136000D01*
D34*
%TO.N,Net-(C24-Pad2)*%
X169778000Y-72724000D02*
X171429000Y-71073000D01*
X170286000Y-81868000D02*
X169778000Y-81360000D01*
X173588000Y-81868000D02*
X170286000Y-81868000D01*
X169778000Y-81360000D02*
X169778000Y-72724000D01*
D35*
%TO.N,/SWDIO*%
X141076000Y-65612000D02*
X139806000Y-64342000D01*
X141076000Y-72216000D02*
X141076000Y-65612000D01*
%TO.N,/SWCLK*%
X141330000Y-73994000D02*
X142092000Y-73232000D01*
X142092000Y-64342000D02*
X139806000Y-62056000D01*
X142092000Y-73232000D02*
X142092000Y-64342000D01*
D32*
%TO.N,/LCD_CS*%
X132948000Y-79836000D02*
X133557600Y-79226400D01*
X132948000Y-82376000D02*
X132948000Y-79836000D01*
X133557600Y-79226400D02*
X133557600Y-76076800D01*
D34*
%TO.N,/LCD_CLK*%
X135691200Y-79277200D02*
X135691200Y-76076800D01*
X147045000Y-76788000D02*
X143362000Y-76788000D01*
X139298000Y-80852000D02*
X137266000Y-80852000D01*
X143362000Y-76788000D02*
X139298000Y-80852000D01*
X152252000Y-71581000D02*
X147045000Y-76788000D01*
X137266000Y-80852000D02*
X135691200Y-79277200D01*
%TO.N,/LCD_MOSI*%
X146156000Y-76280000D02*
X142981000Y-76280000D01*
X137520000Y-80217000D02*
X136402400Y-79099400D01*
X139044000Y-80217000D02*
X137520000Y-80217000D01*
X151236000Y-71200000D02*
X146156000Y-76280000D01*
X142981000Y-76280000D02*
X139044000Y-80217000D01*
X136402400Y-79099400D02*
X136402400Y-76076800D01*
%TO.N,/LCD_RS*%
X134980000Y-79836000D02*
X134853000Y-79963000D01*
X134980000Y-76076800D02*
X134980000Y-79836000D01*
%TO.N,/LCD_RST*%
X133964000Y-79582000D02*
X133964000Y-81106000D01*
X134268800Y-79277200D02*
X133964000Y-79582000D01*
X133964000Y-81106000D02*
X134091000Y-81233000D01*
X134268800Y-76076800D02*
X134268800Y-79277200D01*
D35*
%TO.N,/USB1_D+*%
X129392000Y-71962000D02*
X128693000Y-71962000D01*
X128693000Y-71962000D02*
X128439000Y-72216000D01*
%TO.N,/USB1_D-*%
X129392000Y-70692000D02*
X128439000Y-70692000D01*
%TO.N,/SCL*%
X146410000Y-80217000D02*
X145585000Y-79392000D01*
X145585000Y-79392000D02*
X143933000Y-79392000D01*
D34*
%TO.N,/UVP*%
X177398000Y-81233000D02*
X177398000Y-83138000D01*
X177398000Y-83138000D02*
X177144000Y-83392000D01*
X170809200Y-83392000D02*
X170794000Y-83407200D01*
X177144000Y-83392000D02*
X170809200Y-83392000D01*
%TO.N,Net-(R19-Pad2)*%
X130726000Y-73105000D02*
X130712800Y-73118200D01*
X130712800Y-73118200D02*
X130712800Y-76076800D01*
%TO.N,Net-(R22-Pad1)*%
X178287000Y-80344000D02*
X178287000Y-79392000D01*
X178287000Y-79392000D02*
X178223000Y-79328000D01*
%TO.N,/SDIN*%
X153268000Y-70438000D02*
X152633000Y-69803000D01*
X152633000Y-69803000D02*
X144378000Y-69803000D01*
%TO.N,/SDOUT*%
X154098520Y-69353480D02*
X154157000Y-69295000D01*
X144378000Y-68533000D02*
X145198480Y-69353480D01*
X145198480Y-69353480D02*
X154098520Y-69353480D01*
%TO.N,/BCLK*%
X146145960Y-68903960D02*
X152770758Y-68903960D01*
X153268718Y-68406000D02*
X155554000Y-68406000D01*
X145521000Y-68279000D02*
X146145960Y-68903960D01*
X152770758Y-68903960D02*
X153268718Y-68406000D01*
X145521000Y-67390000D02*
X145521000Y-68279000D01*
%TO.N,/LRCK*%
X146664000Y-67898000D02*
X147220440Y-68454440D01*
X147220440Y-68454440D02*
X152584560Y-68454440D01*
X153649000Y-67390000D02*
X154284000Y-67390000D01*
X152584560Y-68454440D02*
X153649000Y-67390000D01*
D33*
%TO.N,Net-(C8-Pad1)*%
X158754000Y-84916000D02*
X165054000Y-84916000D01*
D34*
%TO.N,Net-(Q1-Pad3)*%
X132376000Y-72407000D02*
X132376000Y-73105000D01*
X132694000Y-72089000D02*
X132376000Y-72407000D01*
X136044500Y-72089000D02*
X132694000Y-72089000D01*
%TO.N,Net-(R3-Pad2)*%
X124820000Y-74502000D02*
X126789000Y-72533000D01*
X126789000Y-72533000D02*
X126789000Y-72216000D01*
%TO.N,Net-(R4-Pad2)*%
X124820000Y-73232000D02*
X125836000Y-72216000D01*
X125836000Y-72216000D02*
X125836000Y-70946000D01*
X126090000Y-70692000D02*
X126789000Y-70692000D01*
X125836000Y-70946000D02*
X126090000Y-70692000D01*
%TO.N,Net-(Q1-Pad1)*%
X137709000Y-73039000D02*
X137902000Y-73232000D01*
X137914200Y-73219800D02*
X137902000Y-73232000D01*
X134169500Y-73039000D02*
X137709000Y-73039000D01*
%TD*%
%TA.AperFunction,Conductor*%
%TO.N,GND*%
G36*
X170482121Y-58078002D02*
G01*
X170528614Y-58131658D01*
X170540000Y-58184000D01*
X170540000Y-62184000D01*
X170519998Y-62252121D01*
X170466342Y-62298614D01*
X170414000Y-62310000D01*
X163174000Y-62310000D01*
X163174000Y-63744500D01*
X163153998Y-63812621D01*
X163100342Y-63859114D01*
X163048000Y-63870500D01*
X162553600Y-63870500D01*
X162550354Y-63870837D01*
X162550350Y-63870837D01*
X162454692Y-63880762D01*
X162454688Y-63880763D01*
X162447834Y-63881474D01*
X162441298Y-63883655D01*
X162441296Y-63883655D01*
X162317224Y-63925049D01*
X162280054Y-63937450D01*
X162129652Y-64030522D01*
X162004695Y-64155697D01*
X162002094Y-64159916D01*
X161944970Y-64200417D01*
X161874047Y-64203649D01*
X161812635Y-64168024D01*
X161806078Y-64160470D01*
X161802478Y-64154652D01*
X161677303Y-64029695D01*
X161663762Y-64021348D01*
X161532968Y-63940725D01*
X161532966Y-63940724D01*
X161526738Y-63936885D01*
X161366254Y-63883655D01*
X161365389Y-63883368D01*
X161365387Y-63883368D01*
X161358861Y-63881203D01*
X161352025Y-63880503D01*
X161352022Y-63880502D01*
X161305708Y-63875757D01*
X161254400Y-63870500D01*
X160653600Y-63870500D01*
X160650354Y-63870837D01*
X160650350Y-63870837D01*
X160554692Y-63880762D01*
X160554688Y-63880763D01*
X160547834Y-63881474D01*
X160541298Y-63883655D01*
X160541296Y-63883655D01*
X160417224Y-63925049D01*
X160380054Y-63937450D01*
X160229652Y-64030522D01*
X160104695Y-64155697D01*
X160100855Y-64161927D01*
X160100854Y-64161928D01*
X160020287Y-64292632D01*
X160011885Y-64306262D01*
X159998641Y-64346192D01*
X159959386Y-64464544D01*
X159956203Y-64474139D01*
X159945500Y-64578600D01*
X159945500Y-65629400D01*
X159945837Y-65632646D01*
X159945837Y-65632650D01*
X159951773Y-65689856D01*
X159956474Y-65735166D01*
X159958655Y-65741702D01*
X159958655Y-65741704D01*
X159992701Y-65843750D01*
X160012450Y-65902946D01*
X160092974Y-66033071D01*
X160105522Y-66053348D01*
X160102788Y-66055040D01*
X160124049Y-66107538D01*
X160110893Y-66177305D01*
X160104362Y-66187492D01*
X160104695Y-66187697D01*
X160038147Y-66295658D01*
X160011885Y-66338262D01*
X160006345Y-66354966D01*
X159964610Y-66480794D01*
X159956203Y-66506139D01*
X159955503Y-66512975D01*
X159955502Y-66512978D01*
X159954659Y-66521206D01*
X159945500Y-66610600D01*
X159945500Y-67661400D01*
X159945837Y-67664646D01*
X159945837Y-67664650D01*
X159954918Y-67752166D01*
X159956474Y-67767166D01*
X159958655Y-67773702D01*
X159958655Y-67773704D01*
X159983487Y-67848134D01*
X160012450Y-67934946D01*
X160105522Y-68085348D01*
X160230697Y-68210305D01*
X160236927Y-68214145D01*
X160236928Y-68214146D01*
X160374090Y-68298694D01*
X160381262Y-68303115D01*
X160461005Y-68329564D01*
X160542611Y-68356632D01*
X160542613Y-68356632D01*
X160549139Y-68358797D01*
X160555975Y-68359497D01*
X160555978Y-68359498D01*
X160599031Y-68363909D01*
X160653600Y-68369500D01*
X161254400Y-68369500D01*
X161257646Y-68369163D01*
X161257650Y-68369163D01*
X161353308Y-68359238D01*
X161353312Y-68359237D01*
X161360166Y-68358526D01*
X161366702Y-68356345D01*
X161366704Y-68356345D01*
X161498806Y-68312272D01*
X161527946Y-68302550D01*
X161678348Y-68209478D01*
X161803305Y-68084303D01*
X161805906Y-68080084D01*
X161863030Y-68039583D01*
X161933953Y-68036351D01*
X161995365Y-68071976D01*
X162001922Y-68079530D01*
X162005522Y-68085348D01*
X162130697Y-68210305D01*
X162136927Y-68214145D01*
X162136928Y-68214146D01*
X162274090Y-68298694D01*
X162281262Y-68303115D01*
X162361005Y-68329564D01*
X162442611Y-68356632D01*
X162442613Y-68356632D01*
X162449139Y-68358797D01*
X162455975Y-68359497D01*
X162455978Y-68359498D01*
X162499031Y-68363909D01*
X162553600Y-68369500D01*
X163048000Y-68369500D01*
X163116121Y-68389502D01*
X163162614Y-68443158D01*
X163174000Y-68495500D01*
X163174000Y-84031500D01*
X163153998Y-84099621D01*
X163100342Y-84146114D01*
X163048000Y-84157500D01*
X160378493Y-84157500D01*
X160310372Y-84137498D01*
X160263879Y-84083842D01*
X160256457Y-84062237D01*
X160255745Y-84055684D01*
X160242639Y-84020722D01*
X160207767Y-83927703D01*
X160204615Y-83919295D01*
X160199229Y-83912108D01*
X160146360Y-83841565D01*
X160121512Y-83775058D01*
X160136565Y-83705676D01*
X160146360Y-83690435D01*
X160199229Y-83619892D01*
X160199230Y-83619890D01*
X160204615Y-83612705D01*
X160255745Y-83476316D01*
X160262500Y-83414134D01*
X160262500Y-81817866D01*
X160255745Y-81755684D01*
X160204615Y-81619295D01*
X160117261Y-81502739D01*
X160000705Y-81415385D01*
X159864316Y-81364255D01*
X159802134Y-81357500D01*
X157705866Y-81357500D01*
X157643684Y-81364255D01*
X157507295Y-81415385D01*
X157390739Y-81502739D01*
X157303385Y-81619295D01*
X157252255Y-81755684D01*
X157251402Y-81763537D01*
X157251401Y-81763541D01*
X157250850Y-81768617D01*
X157223609Y-81834180D01*
X157168580Y-81873449D01*
X157101673Y-81897735D01*
X157097545Y-81899152D01*
X157035064Y-81919393D01*
X157035062Y-81919394D01*
X157028101Y-81921649D01*
X157021846Y-81925445D01*
X157016372Y-81927951D01*
X157010942Y-81930670D01*
X157004063Y-81933167D01*
X156997943Y-81937180D01*
X156997942Y-81937180D01*
X156943024Y-81973186D01*
X156939320Y-81975523D01*
X156876893Y-82013405D01*
X156868516Y-82020803D01*
X156868492Y-82020776D01*
X156865500Y-82023429D01*
X156862267Y-82026132D01*
X156856148Y-82030144D01*
X156829503Y-82058271D01*
X156802872Y-82086383D01*
X156800494Y-82088825D01*
X155827089Y-83062230D01*
X155812677Y-83074616D01*
X155801082Y-83083149D01*
X155801077Y-83083154D01*
X155795182Y-83087492D01*
X155790443Y-83093070D01*
X155790440Y-83093073D01*
X155760965Y-83127768D01*
X155754035Y-83135284D01*
X155748340Y-83140979D01*
X155746060Y-83143861D01*
X155730719Y-83163251D01*
X155727928Y-83166655D01*
X155685409Y-83216703D01*
X155680667Y-83222285D01*
X155677339Y-83228801D01*
X155673972Y-83233850D01*
X155670805Y-83238979D01*
X155666266Y-83244716D01*
X155635345Y-83310875D01*
X155633442Y-83314769D01*
X155600231Y-83379808D01*
X155598492Y-83386916D01*
X155596393Y-83392559D01*
X155594476Y-83398322D01*
X155591378Y-83404950D01*
X155589888Y-83412112D01*
X155589888Y-83412113D01*
X155576514Y-83476412D01*
X155575548Y-83480679D01*
X155558192Y-83551610D01*
X155557500Y-83562764D01*
X155557464Y-83562762D01*
X155557225Y-83566755D01*
X155556851Y-83570947D01*
X155555360Y-83578115D01*
X155556490Y-83619892D01*
X155557454Y-83655521D01*
X155557500Y-83658928D01*
X155557500Y-84379001D01*
X155540619Y-84442000D01*
X155481473Y-84544444D01*
X155422458Y-84726072D01*
X155402496Y-84916000D01*
X155422458Y-85105928D01*
X155481473Y-85287556D01*
X155576960Y-85452944D01*
X155704747Y-85594866D01*
X155775398Y-85646197D01*
X155841884Y-85694502D01*
X155859248Y-85707118D01*
X155865276Y-85709802D01*
X155865278Y-85709803D01*
X155997025Y-85768460D01*
X156033712Y-85784794D01*
X156107603Y-85800500D01*
X156214056Y-85823128D01*
X156214061Y-85823128D01*
X156220513Y-85824500D01*
X156411487Y-85824500D01*
X156417939Y-85823128D01*
X156417944Y-85823128D01*
X156524397Y-85800500D01*
X156598288Y-85784794D01*
X156634975Y-85768460D01*
X156766722Y-85709803D01*
X156766724Y-85709802D01*
X156772752Y-85707118D01*
X156790117Y-85694502D01*
X156856602Y-85646197D01*
X156927253Y-85594866D01*
X157025865Y-85485347D01*
X157086310Y-85448107D01*
X157157293Y-85449459D01*
X157216278Y-85488972D01*
X157244536Y-85554103D01*
X157245500Y-85569657D01*
X157245500Y-85714134D01*
X157252255Y-85776316D01*
X157303385Y-85912705D01*
X157308771Y-85919891D01*
X157361953Y-85990852D01*
X157386801Y-86057358D01*
X157371748Y-86126741D01*
X157361953Y-86141982D01*
X157309214Y-86212352D01*
X157300676Y-86227946D01*
X157255522Y-86348394D01*
X157251895Y-86363649D01*
X157246369Y-86414514D01*
X157246000Y-86421328D01*
X157246000Y-86943885D01*
X157250475Y-86959124D01*
X157251865Y-86960329D01*
X157259548Y-86962000D01*
X160243884Y-86962000D01*
X160259123Y-86957525D01*
X160260328Y-86956135D01*
X160261999Y-86948452D01*
X160261999Y-86421331D01*
X160261629Y-86414510D01*
X160256105Y-86363648D01*
X160252479Y-86348396D01*
X160207324Y-86227946D01*
X160198786Y-86212352D01*
X160146047Y-86141982D01*
X160121199Y-86075476D01*
X160136252Y-86006093D01*
X160146047Y-85990852D01*
X160199229Y-85919891D01*
X160204615Y-85912705D01*
X160210120Y-85898022D01*
X160252972Y-85783714D01*
X160252973Y-85783711D01*
X160255745Y-85776316D01*
X160256372Y-85770547D01*
X160291126Y-85709709D01*
X160354081Y-85676887D01*
X160378493Y-85674500D01*
X163048000Y-85674500D01*
X163116121Y-85694502D01*
X163162614Y-85748158D01*
X163174000Y-85800500D01*
X163174000Y-87964000D01*
X165588000Y-87964000D01*
X165656121Y-87984002D01*
X165702614Y-88037658D01*
X165714000Y-88090000D01*
X165714000Y-89551154D01*
X165693998Y-89619275D01*
X165640342Y-89665768D01*
X165588205Y-89677154D01*
X158873550Y-89688102D01*
X141594889Y-89716274D01*
X141526737Y-89696383D01*
X141480157Y-89642803D01*
X141476191Y-89633114D01*
X141469120Y-89613556D01*
X140889615Y-88010669D01*
X157246001Y-88010669D01*
X157246371Y-88017490D01*
X157251895Y-88068352D01*
X157255521Y-88083604D01*
X157300676Y-88204054D01*
X157309214Y-88219649D01*
X157385715Y-88321724D01*
X157398276Y-88334285D01*
X157500351Y-88410786D01*
X157515946Y-88419324D01*
X157636394Y-88464478D01*
X157651649Y-88468105D01*
X157702514Y-88473631D01*
X157709328Y-88474000D01*
X158481885Y-88474000D01*
X158497124Y-88469525D01*
X158498329Y-88468135D01*
X158500000Y-88460452D01*
X158500000Y-88455884D01*
X159008000Y-88455884D01*
X159012475Y-88471123D01*
X159013865Y-88472328D01*
X159021548Y-88473999D01*
X159798669Y-88473999D01*
X159805490Y-88473629D01*
X159856352Y-88468105D01*
X159871604Y-88464479D01*
X159992054Y-88419324D01*
X160007649Y-88410786D01*
X160109724Y-88334285D01*
X160122285Y-88321724D01*
X160198786Y-88219649D01*
X160207324Y-88204054D01*
X160252478Y-88083606D01*
X160256105Y-88068351D01*
X160261631Y-88017486D01*
X160262000Y-88010672D01*
X160262000Y-87488115D01*
X160257525Y-87472876D01*
X160256135Y-87471671D01*
X160248452Y-87470000D01*
X159026115Y-87470000D01*
X159010876Y-87474475D01*
X159009671Y-87475865D01*
X159008000Y-87483548D01*
X159008000Y-88455884D01*
X158500000Y-88455884D01*
X158500000Y-87488115D01*
X158495525Y-87472876D01*
X158494135Y-87471671D01*
X158486452Y-87470000D01*
X157264116Y-87470000D01*
X157248877Y-87474475D01*
X157247672Y-87475865D01*
X157246001Y-87483548D01*
X157246001Y-88010669D01*
X140889615Y-88010669D01*
X140461353Y-86826114D01*
X140458368Y-86816721D01*
X140447898Y-86778683D01*
X140445516Y-86770029D01*
X140440803Y-86762395D01*
X140440801Y-86762390D01*
X140417950Y-86725375D01*
X140413942Y-86718393D01*
X140393495Y-86679981D01*
X140393490Y-86679974D01*
X140389274Y-86672054D01*
X140383003Y-86665634D01*
X140378580Y-86659586D01*
X140373790Y-86653845D01*
X140369076Y-86646209D01*
X140330077Y-86611081D01*
X140324269Y-86605503D01*
X140314889Y-86595900D01*
X140287596Y-86567958D01*
X140279771Y-86563554D01*
X140273835Y-86558995D01*
X140267626Y-86554829D01*
X140260956Y-86548821D01*
X140252868Y-86544927D01*
X140252864Y-86544924D01*
X140213660Y-86526047D01*
X140206520Y-86522324D01*
X140168615Y-86500989D01*
X140168612Y-86500988D01*
X140160788Y-86496584D01*
X140152038Y-86494552D01*
X140145052Y-86491840D01*
X140137935Y-86489588D01*
X140129847Y-86485693D01*
X140078072Y-86477112D01*
X140070178Y-86475543D01*
X140027789Y-86465700D01*
X140027786Y-86465700D01*
X140019045Y-86463670D01*
X140010085Y-86464175D01*
X140010084Y-86464175D01*
X139966719Y-86466619D01*
X139958396Y-86466813D01*
X127219398Y-86342165D01*
X127214045Y-86341999D01*
X127162865Y-86339320D01*
X127162863Y-86339320D01*
X127153900Y-86338851D01*
X127145165Y-86340917D01*
X127145160Y-86340917D01*
X127113888Y-86348312D01*
X127101555Y-86350587D01*
X127060782Y-86356019D01*
X127047958Y-86361699D01*
X127025941Y-86369107D01*
X127012290Y-86372335D01*
X127004490Y-86376767D01*
X127004489Y-86376767D01*
X126976539Y-86392647D01*
X126965323Y-86398299D01*
X126935944Y-86411311D01*
X126935941Y-86411313D01*
X126927734Y-86414948D01*
X126920182Y-86421328D01*
X126917028Y-86423992D01*
X126897959Y-86437293D01*
X126885771Y-86444218D01*
X126879528Y-86450661D01*
X126857164Y-86473742D01*
X126847983Y-86482317D01*
X126823429Y-86503059D01*
X126823427Y-86503061D01*
X126816573Y-86508851D01*
X126811622Y-86516329D01*
X126811616Y-86516335D01*
X126808830Y-86520543D01*
X126794266Y-86538654D01*
X126790760Y-86542272D01*
X126790758Y-86542275D01*
X126784511Y-86548722D01*
X126765337Y-86585095D01*
X126758933Y-86595900D01*
X126741194Y-86622690D01*
X126741192Y-86622695D01*
X126736236Y-86630179D01*
X126726922Y-86660250D01*
X126717168Y-86691739D01*
X126715993Y-86695342D01*
X125715623Y-89609463D01*
X125674586Y-89667399D01*
X125608742Y-89693952D01*
X125597161Y-89694551D01*
X117631512Y-89739554D01*
X117563279Y-89719937D01*
X117516484Y-89666545D01*
X117504800Y-89613556D01*
X117504800Y-83392000D01*
X140416496Y-83392000D01*
X140417186Y-83398565D01*
X140434444Y-83562762D01*
X140436458Y-83581928D01*
X140495473Y-83763556D01*
X140498776Y-83769278D01*
X140498777Y-83769279D01*
X140516613Y-83800171D01*
X140590960Y-83928944D01*
X140595378Y-83933851D01*
X140595379Y-83933852D01*
X140673597Y-84020722D01*
X140718747Y-84070866D01*
X140873248Y-84183118D01*
X140879276Y-84185802D01*
X140879278Y-84185803D01*
X141041681Y-84258109D01*
X141047712Y-84260794D01*
X141141112Y-84280647D01*
X141228056Y-84299128D01*
X141228061Y-84299128D01*
X141234513Y-84300500D01*
X141425487Y-84300500D01*
X141431939Y-84299128D01*
X141431944Y-84299128D01*
X141518888Y-84280647D01*
X141612288Y-84260794D01*
X141618319Y-84258109D01*
X141780722Y-84185803D01*
X141780724Y-84185802D01*
X141786752Y-84183118D01*
X141941253Y-84070866D01*
X141986403Y-84020722D01*
X142064621Y-83933852D01*
X142064622Y-83933851D01*
X142069040Y-83928944D01*
X142143387Y-83800171D01*
X142161223Y-83769279D01*
X142161224Y-83769278D01*
X142164527Y-83763556D01*
X142189320Y-83687251D01*
X146734289Y-83687251D01*
X146734420Y-83689084D01*
X146738671Y-83695699D01*
X146918670Y-83875698D01*
X146923493Y-83880047D01*
X146998123Y-83940646D01*
X147009634Y-83948068D01*
X147155035Y-84020722D01*
X147168709Y-84025672D01*
X147326508Y-84062827D01*
X147340953Y-84064499D01*
X147503069Y-84064358D01*
X147517505Y-84062662D01*
X147675242Y-84025229D01*
X147688907Y-84020256D01*
X147834193Y-83947344D01*
X147845676Y-83939915D01*
X147919237Y-83880026D01*
X147923990Y-83875735D01*
X147941696Y-83858028D01*
X147949308Y-83844087D01*
X147949177Y-83842252D01*
X147944926Y-83835638D01*
X147679545Y-83570257D01*
X149801501Y-83570257D01*
X149801642Y-83732373D01*
X149803338Y-83746809D01*
X149840771Y-83904546D01*
X149845744Y-83918211D01*
X149918656Y-84063497D01*
X149926085Y-84074980D01*
X149985965Y-84148530D01*
X149990275Y-84153304D01*
X150167073Y-84330101D01*
X150181011Y-84337712D01*
X150182847Y-84337580D01*
X150189459Y-84333331D01*
X150700227Y-83822563D01*
X150707841Y-83808619D01*
X150707710Y-83806786D01*
X150703459Y-83800171D01*
X150033594Y-83130306D01*
X150019650Y-83122692D01*
X150017817Y-83122823D01*
X150011202Y-83127074D01*
X149990302Y-83147974D01*
X149985953Y-83152797D01*
X149925354Y-83227427D01*
X149917932Y-83238938D01*
X149845278Y-83384339D01*
X149840328Y-83398013D01*
X149803173Y-83555812D01*
X149801501Y-83570257D01*
X147679545Y-83570257D01*
X147275061Y-83165773D01*
X147261117Y-83158159D01*
X147259284Y-83158290D01*
X147252669Y-83162541D01*
X146741903Y-83673307D01*
X146734289Y-83687251D01*
X142189320Y-83687251D01*
X142223542Y-83581928D01*
X142225557Y-83562762D01*
X142242814Y-83398565D01*
X142243504Y-83392000D01*
X142235656Y-83317331D01*
X142224232Y-83208635D01*
X142224232Y-83208633D01*
X142223542Y-83202072D01*
X142164527Y-83020444D01*
X142069040Y-82855056D01*
X142026538Y-82807852D01*
X141945675Y-82718045D01*
X141945674Y-82718044D01*
X141941253Y-82713134D01*
X141786752Y-82600882D01*
X141780724Y-82598198D01*
X141780722Y-82598197D01*
X141682030Y-82554257D01*
X145991501Y-82554257D01*
X145991642Y-82716373D01*
X145993338Y-82730809D01*
X146030771Y-82888546D01*
X146035744Y-82902211D01*
X146108656Y-83047497D01*
X146116085Y-83058980D01*
X146175965Y-83132530D01*
X146180275Y-83137304D01*
X146357073Y-83314101D01*
X146371011Y-83321712D01*
X146372847Y-83321580D01*
X146379459Y-83317331D01*
X146890227Y-82806563D01*
X146897841Y-82792619D01*
X146897710Y-82790786D01*
X146893459Y-82784171D01*
X146223594Y-82114306D01*
X146209650Y-82106692D01*
X146207817Y-82106823D01*
X146201202Y-82111074D01*
X146180302Y-82131974D01*
X146175953Y-82136797D01*
X146115354Y-82211427D01*
X146107932Y-82222938D01*
X146035278Y-82368339D01*
X146030328Y-82382013D01*
X145993173Y-82539812D01*
X145991501Y-82554257D01*
X141682030Y-82554257D01*
X141618319Y-82525891D01*
X141618318Y-82525891D01*
X141612288Y-82523206D01*
X141510170Y-82501500D01*
X141431944Y-82484872D01*
X141431939Y-82484872D01*
X141425487Y-82483500D01*
X141234513Y-82483500D01*
X141228061Y-82484872D01*
X141228056Y-82484872D01*
X141149830Y-82501500D01*
X141047712Y-82523206D01*
X141041682Y-82525891D01*
X141041681Y-82525891D01*
X140879278Y-82598197D01*
X140879276Y-82598198D01*
X140873248Y-82600882D01*
X140718747Y-82713134D01*
X140714326Y-82718044D01*
X140714325Y-82718045D01*
X140633463Y-82807852D01*
X140590960Y-82855056D01*
X140495473Y-83020444D01*
X140436458Y-83202072D01*
X140435768Y-83208633D01*
X140435768Y-83208635D01*
X140424344Y-83317331D01*
X140416496Y-83392000D01*
X117504800Y-83392000D01*
X117504800Y-80190315D01*
X117524802Y-80122194D01*
X117578458Y-80075701D01*
X117648732Y-80065597D01*
X117697756Y-80083578D01*
X117806354Y-80151702D01*
X117816324Y-80156782D01*
X118005982Y-80233024D01*
X118016682Y-80236255D01*
X118217821Y-80277908D01*
X118226957Y-80279111D01*
X118275240Y-80281895D01*
X118278887Y-80282000D01*
X118539635Y-80282000D01*
X118554874Y-80277525D01*
X118556079Y-80276135D01*
X118557750Y-80268452D01*
X118557750Y-80263885D01*
X119065750Y-80263885D01*
X119070225Y-80279124D01*
X119071615Y-80280329D01*
X119079298Y-80282000D01*
X119313661Y-80282000D01*
X119319256Y-80281751D01*
X119470938Y-80268213D01*
X119481952Y-80266232D01*
X119679116Y-80212293D01*
X119689589Y-80208399D01*
X119874091Y-80120396D01*
X119883720Y-80114701D01*
X120049713Y-79995423D01*
X120058178Y-79988116D01*
X120200434Y-79841320D01*
X120207464Y-79832638D01*
X120321475Y-79662972D01*
X120326863Y-79653171D01*
X120336003Y-79632349D01*
X120381700Y-79578014D01*
X120449518Y-79557010D01*
X120517927Y-79576005D01*
X120563342Y-79625206D01*
X120611707Y-79718912D01*
X120617692Y-79728343D01*
X120742135Y-79890520D01*
X120749702Y-79898749D01*
X120900889Y-80036319D01*
X120909800Y-80043082D01*
X121082954Y-80151701D01*
X121092924Y-80156782D01*
X121282582Y-80233024D01*
X121293282Y-80236255D01*
X121494421Y-80277908D01*
X121503557Y-80279111D01*
X121551840Y-80281895D01*
X121555487Y-80282000D01*
X121816235Y-80282000D01*
X121831474Y-80277525D01*
X121832679Y-80276135D01*
X121834350Y-80268452D01*
X121834350Y-80263885D01*
X122342350Y-80263885D01*
X122346825Y-80279124D01*
X122348215Y-80280329D01*
X122355898Y-80282000D01*
X122590261Y-80282000D01*
X122595856Y-80281751D01*
X122747538Y-80268213D01*
X122758552Y-80266232D01*
X122955716Y-80212293D01*
X122966189Y-80208399D01*
X123150691Y-80120396D01*
X123160320Y-80114701D01*
X123326313Y-79995423D01*
X123334778Y-79988116D01*
X123477034Y-79841320D01*
X123484064Y-79832638D01*
X123598075Y-79662972D01*
X123603467Y-79653163D01*
X123685625Y-79466001D01*
X123689191Y-79455406D01*
X123715550Y-79345615D01*
X123714845Y-79331530D01*
X123705966Y-79328000D01*
X122360465Y-79328000D01*
X122345226Y-79332475D01*
X122344021Y-79333865D01*
X122342350Y-79341548D01*
X122342350Y-80263885D01*
X121834350Y-80263885D01*
X121834350Y-79346115D01*
X121829875Y-79330876D01*
X121828485Y-79329671D01*
X121820802Y-79328000D01*
X120452533Y-79328000D01*
X120452533Y-79327383D01*
X120445413Y-79328239D01*
X120440265Y-79328000D01*
X119083865Y-79328000D01*
X119068626Y-79332475D01*
X119067421Y-79333865D01*
X119065750Y-79341548D01*
X119065750Y-80263885D01*
X118557750Y-80263885D01*
X118557750Y-78946000D01*
X118577752Y-78877879D01*
X118631408Y-78831386D01*
X118683750Y-78820000D01*
X120447567Y-78820000D01*
X120447567Y-78820617D01*
X120454687Y-78819761D01*
X120459835Y-78820000D01*
X123706052Y-78820000D01*
X123719583Y-78816027D01*
X123720654Y-78808579D01*
X123662972Y-78621085D01*
X123658751Y-78610740D01*
X123564993Y-78429088D01*
X123559008Y-78419657D01*
X123434565Y-78257480D01*
X123426998Y-78249251D01*
X123275811Y-78111681D01*
X123266900Y-78104918D01*
X123093746Y-77996299D01*
X123083776Y-77991218D01*
X122894118Y-77914976D01*
X122878045Y-77910123D01*
X122878793Y-77907646D01*
X122825778Y-77879365D01*
X122791147Y-77817388D01*
X122788000Y-77789405D01*
X122788000Y-74502000D01*
X123906496Y-74502000D01*
X123907186Y-74508565D01*
X123917789Y-74609443D01*
X123926458Y-74691928D01*
X123985473Y-74873556D01*
X123988776Y-74879278D01*
X123988777Y-74879279D01*
X124001193Y-74900784D01*
X124080960Y-75038944D01*
X124208747Y-75180866D01*
X124292098Y-75241424D01*
X124331611Y-75270132D01*
X124363248Y-75293118D01*
X124369276Y-75295802D01*
X124369278Y-75295803D01*
X124468520Y-75339988D01*
X124537712Y-75370794D01*
X124628069Y-75390000D01*
X124718056Y-75409128D01*
X124718061Y-75409128D01*
X124724513Y-75410500D01*
X124915487Y-75410500D01*
X124921939Y-75409128D01*
X124921944Y-75409128D01*
X125011931Y-75390000D01*
X125102288Y-75370794D01*
X125171480Y-75339988D01*
X125270722Y-75295803D01*
X125270724Y-75295802D01*
X125276752Y-75293118D01*
X125308390Y-75270132D01*
X125347902Y-75241424D01*
X125431253Y-75180866D01*
X125559040Y-75038944D01*
X125638807Y-74900784D01*
X125651223Y-74879279D01*
X125651224Y-74879278D01*
X125654527Y-74873556D01*
X125713542Y-74691928D01*
X125730907Y-74526706D01*
X125757920Y-74461050D01*
X125767122Y-74450782D01*
X126983440Y-73234464D01*
X127045752Y-73200438D01*
X127061007Y-73198087D01*
X127088035Y-73195604D01*
X127119062Y-73192753D01*
X127125447Y-73190752D01*
X127275450Y-73143744D01*
X127275452Y-73143743D01*
X127282699Y-73141472D01*
X127429381Y-73052639D01*
X127524905Y-72957115D01*
X127587217Y-72923089D01*
X127658032Y-72928154D01*
X127703095Y-72957115D01*
X127798619Y-73052639D01*
X127945301Y-73141472D01*
X127952548Y-73143743D01*
X127952550Y-73143744D01*
X128018836Y-73164517D01*
X128108938Y-73192753D01*
X128182365Y-73199500D01*
X128185263Y-73199500D01*
X128439665Y-73199499D01*
X128695634Y-73199499D01*
X128698492Y-73199236D01*
X128698501Y-73199236D01*
X128734004Y-73195974D01*
X128769062Y-73192753D01*
X128775447Y-73190752D01*
X128925450Y-73143744D01*
X128925452Y-73143743D01*
X128932699Y-73141472D01*
X129079381Y-73052639D01*
X129200639Y-72931381D01*
X129204573Y-72924885D01*
X129209264Y-72918903D01*
X129211902Y-72920971D01*
X129253313Y-72883232D01*
X129308508Y-72870500D01*
X129487487Y-72870500D01*
X129493939Y-72869128D01*
X129493944Y-72869128D01*
X129665303Y-72832704D01*
X129736094Y-72838106D01*
X129792726Y-72880923D01*
X129817220Y-72947561D01*
X129817500Y-72955951D01*
X129817501Y-73198087D01*
X129817501Y-73436634D01*
X129817764Y-73439501D01*
X129817897Y-73442396D01*
X129816176Y-73442475D01*
X129804206Y-73505624D01*
X129755371Y-73557157D01*
X129705644Y-73573495D01*
X129699134Y-73574202D01*
X129699132Y-73574202D01*
X129691284Y-73575055D01*
X129683890Y-73577827D01*
X129676202Y-73579655D01*
X129675510Y-73576747D01*
X129618685Y-73580895D01*
X129615718Y-73580025D01*
X129615689Y-73580148D01*
X129592757Y-73574695D01*
X129541886Y-73569169D01*
X129535072Y-73568800D01*
X129508515Y-73568800D01*
X129493276Y-73573275D01*
X129492071Y-73574665D01*
X129490400Y-73582348D01*
X129490400Y-73611494D01*
X129470398Y-73679615D01*
X129450769Y-73700706D01*
X129451870Y-73701807D01*
X129445519Y-73708158D01*
X129438339Y-73713539D01*
X129432958Y-73720719D01*
X129432955Y-73720722D01*
X129390736Y-73777056D01*
X129350985Y-73830095D01*
X129347833Y-73838503D01*
X129334382Y-73874383D01*
X129291740Y-73931147D01*
X129225179Y-73955847D01*
X129155830Y-73940639D01*
X129105712Y-73890353D01*
X129090400Y-73830153D01*
X129090400Y-73586916D01*
X129085925Y-73571677D01*
X129084535Y-73570472D01*
X129076852Y-73568801D01*
X129045731Y-73568801D01*
X129038910Y-73569171D01*
X128988048Y-73574695D01*
X128972796Y-73578321D01*
X128852346Y-73623476D01*
X128836751Y-73632014D01*
X128734676Y-73708515D01*
X128722115Y-73721076D01*
X128645614Y-73823151D01*
X128637076Y-73838746D01*
X128591922Y-73959194D01*
X128588295Y-73974449D01*
X128582769Y-74025314D01*
X128582400Y-74032128D01*
X128582400Y-75858685D01*
X128586875Y-75873924D01*
X128588265Y-75875129D01*
X128595948Y-75876800D01*
X129072285Y-75876800D01*
X129110450Y-75865594D01*
X129131600Y-75852001D01*
X129202596Y-75852000D01*
X129262323Y-75890383D01*
X129291817Y-75954963D01*
X129293100Y-75972897D01*
X129293100Y-76150800D01*
X129273098Y-76218921D01*
X129219442Y-76265414D01*
X129167100Y-76276800D01*
X128600516Y-76276800D01*
X128585277Y-76281275D01*
X128584072Y-76282665D01*
X128582401Y-76290348D01*
X128582401Y-78060500D01*
X128562399Y-78128621D01*
X128508743Y-78175114D01*
X128456401Y-78186500D01*
X127674595Y-78186500D01*
X127606474Y-78166498D01*
X127585500Y-78149595D01*
X126339652Y-76903747D01*
X126332112Y-76895461D01*
X126328000Y-76888982D01*
X126278348Y-76842356D01*
X126275507Y-76839602D01*
X126255770Y-76819865D01*
X126252573Y-76817385D01*
X126243551Y-76809680D01*
X126217100Y-76784841D01*
X126211321Y-76779414D01*
X126204375Y-76775595D01*
X126204372Y-76775593D01*
X126193566Y-76769652D01*
X126177047Y-76758801D01*
X126167634Y-76751500D01*
X126161041Y-76746386D01*
X126153772Y-76743241D01*
X126153768Y-76743238D01*
X126120463Y-76728826D01*
X126109813Y-76723609D01*
X126071060Y-76702305D01*
X126057873Y-76698919D01*
X126051438Y-76697267D01*
X126032734Y-76690863D01*
X126021420Y-76685967D01*
X126021419Y-76685967D01*
X126014145Y-76682819D01*
X126006322Y-76681580D01*
X126006312Y-76681577D01*
X125970476Y-76675901D01*
X125958856Y-76673495D01*
X125923711Y-76664472D01*
X125923710Y-76664472D01*
X125916030Y-76662500D01*
X125895776Y-76662500D01*
X125876065Y-76660949D01*
X125863886Y-76659020D01*
X125856057Y-76657780D01*
X125848165Y-76658526D01*
X125812039Y-76661941D01*
X125800181Y-76662500D01*
X125782200Y-76662500D01*
X125714079Y-76642498D01*
X125694853Y-76626157D01*
X125694580Y-76626460D01*
X125689668Y-76622037D01*
X125685253Y-76617134D01*
X125579865Y-76540565D01*
X125536094Y-76508763D01*
X125536093Y-76508762D01*
X125530752Y-76504882D01*
X125524724Y-76502198D01*
X125524722Y-76502197D01*
X125362319Y-76429891D01*
X125362318Y-76429891D01*
X125356288Y-76427206D01*
X125261260Y-76407007D01*
X125175944Y-76388872D01*
X125175939Y-76388872D01*
X125169487Y-76387500D01*
X124978513Y-76387500D01*
X124972061Y-76388872D01*
X124972056Y-76388872D01*
X124886740Y-76407007D01*
X124791712Y-76427206D01*
X124785682Y-76429891D01*
X124785681Y-76429891D01*
X124623278Y-76502197D01*
X124623276Y-76502198D01*
X124617248Y-76504882D01*
X124611907Y-76508762D01*
X124611906Y-76508763D01*
X124577171Y-76534000D01*
X124462747Y-76617134D01*
X124458326Y-76622044D01*
X124458325Y-76622045D01*
X124342214Y-76751000D01*
X124334960Y-76759056D01*
X124239473Y-76924444D01*
X124180458Y-77106072D01*
X124179768Y-77112633D01*
X124179768Y-77112635D01*
X124165608Y-77247366D01*
X124160496Y-77296000D01*
X124161186Y-77302565D01*
X124172212Y-77407468D01*
X124180458Y-77485928D01*
X124239473Y-77667556D01*
X124242776Y-77673278D01*
X124242777Y-77673279D01*
X124270109Y-77720619D01*
X124334960Y-77832944D01*
X124339378Y-77837851D01*
X124339379Y-77837852D01*
X124402222Y-77907646D01*
X124462747Y-77974866D01*
X124522698Y-78018423D01*
X124606671Y-78079433D01*
X124617248Y-78087118D01*
X124623276Y-78089802D01*
X124623278Y-78089803D01*
X124785681Y-78162109D01*
X124791712Y-78164794D01*
X124859769Y-78179260D01*
X124972056Y-78203128D01*
X124972061Y-78203128D01*
X124978513Y-78204500D01*
X125169487Y-78204500D01*
X125175939Y-78203128D01*
X125175944Y-78203128D01*
X125288231Y-78179260D01*
X125356288Y-78164794D01*
X125362319Y-78162109D01*
X125524722Y-78089803D01*
X125524724Y-78089802D01*
X125530752Y-78087118D01*
X125536090Y-78083240D01*
X125536093Y-78083238D01*
X125559798Y-78066015D01*
X125626666Y-78042157D01*
X125695817Y-78058239D01*
X125722953Y-78078857D01*
X126856343Y-79212247D01*
X126863887Y-79220537D01*
X126868000Y-79227018D01*
X126873777Y-79232443D01*
X126917667Y-79273658D01*
X126920509Y-79276413D01*
X126940230Y-79296134D01*
X126943425Y-79298612D01*
X126952447Y-79306318D01*
X126984679Y-79336586D01*
X126991628Y-79340406D01*
X127002432Y-79346346D01*
X127018956Y-79357199D01*
X127034959Y-79369613D01*
X127075543Y-79387176D01*
X127086173Y-79392383D01*
X127124940Y-79413695D01*
X127132617Y-79415666D01*
X127132622Y-79415668D01*
X127144558Y-79418732D01*
X127163266Y-79425137D01*
X127181855Y-79433181D01*
X127189680Y-79434420D01*
X127189682Y-79434421D01*
X127225519Y-79440097D01*
X127237140Y-79442504D01*
X127272289Y-79451528D01*
X127279970Y-79453500D01*
X127300231Y-79453500D01*
X127319940Y-79455051D01*
X127339943Y-79458219D01*
X127347835Y-79457473D01*
X127353062Y-79456979D01*
X127383954Y-79454059D01*
X127395811Y-79453500D01*
X129770433Y-79453500D01*
X129781616Y-79454027D01*
X129789109Y-79455702D01*
X129797035Y-79455453D01*
X129797037Y-79455453D01*
X129836111Y-79454225D01*
X129904827Y-79472078D01*
X129929164Y-79491068D01*
X130476878Y-80038782D01*
X130510904Y-80101094D01*
X130513092Y-80114701D01*
X130517215Y-80153929D01*
X130529019Y-80266232D01*
X130530458Y-80279928D01*
X130589473Y-80461556D01*
X130592776Y-80467278D01*
X130592777Y-80467279D01*
X130595455Y-80471917D01*
X130684960Y-80626944D01*
X130689378Y-80631851D01*
X130689379Y-80631852D01*
X130779049Y-80731441D01*
X130812747Y-80768866D01*
X130967248Y-80881118D01*
X130973276Y-80883802D01*
X130973278Y-80883803D01*
X131135681Y-80956109D01*
X131141712Y-80958794D01*
X131235113Y-80978647D01*
X131322056Y-80997128D01*
X131322061Y-80997128D01*
X131328513Y-80998500D01*
X131519487Y-80998500D01*
X131525939Y-80997128D01*
X131525944Y-80997128D01*
X131612887Y-80978647D01*
X131706288Y-80958794D01*
X131712319Y-80956109D01*
X131874722Y-80883803D01*
X131874724Y-80883802D01*
X131880752Y-80881118D01*
X132035253Y-80768866D01*
X132144865Y-80647129D01*
X132205310Y-80609891D01*
X132276294Y-80611243D01*
X132335278Y-80650757D01*
X132363536Y-80715887D01*
X132364500Y-80731441D01*
X132364500Y-81617945D01*
X132344498Y-81686066D01*
X132332136Y-81702255D01*
X132228040Y-81817866D01*
X132208960Y-81839056D01*
X132113473Y-82004444D01*
X132054458Y-82186072D01*
X132053768Y-82192633D01*
X132053768Y-82192635D01*
X132035741Y-82364159D01*
X132034496Y-82376000D01*
X132035186Y-82382565D01*
X132049824Y-82521834D01*
X132054458Y-82565928D01*
X132113473Y-82747556D01*
X132116776Y-82753278D01*
X132116777Y-82753279D01*
X132120320Y-82759415D01*
X132208960Y-82912944D01*
X132336747Y-83054866D01*
X132375675Y-83083149D01*
X132464899Y-83147974D01*
X132491248Y-83167118D01*
X132497276Y-83169802D01*
X132497278Y-83169803D01*
X132641131Y-83233850D01*
X132665712Y-83244794D01*
X132759112Y-83264647D01*
X132846056Y-83283128D01*
X132846061Y-83283128D01*
X132852513Y-83284500D01*
X133043487Y-83284500D01*
X133049939Y-83283128D01*
X133049944Y-83283128D01*
X133136888Y-83264647D01*
X133230288Y-83244794D01*
X133254869Y-83233850D01*
X133398722Y-83169803D01*
X133398724Y-83169802D01*
X133404752Y-83167118D01*
X133431102Y-83147974D01*
X133520325Y-83083149D01*
X133559253Y-83054866D01*
X133687040Y-82912944D01*
X133775680Y-82759415D01*
X133779223Y-82753279D01*
X133779224Y-82753278D01*
X133782527Y-82747556D01*
X133841542Y-82565928D01*
X133846177Y-82521834D01*
X133860814Y-82382565D01*
X133861504Y-82376000D01*
X133851275Y-82278680D01*
X133864047Y-82208844D01*
X133912549Y-82156997D01*
X133981381Y-82139602D01*
X133989223Y-82140163D01*
X133995513Y-82141500D01*
X134186487Y-82141500D01*
X134192939Y-82140128D01*
X134192944Y-82140128D01*
X134303749Y-82116575D01*
X134373288Y-82101794D01*
X134423312Y-82079522D01*
X134541722Y-82026803D01*
X134541724Y-82026802D01*
X134547752Y-82024118D01*
X134566181Y-82010729D01*
X134671100Y-81934500D01*
X134702253Y-81911866D01*
X134714311Y-81898474D01*
X134825621Y-81774852D01*
X134825622Y-81774851D01*
X134830040Y-81769944D01*
X134912163Y-81627703D01*
X134922223Y-81610279D01*
X134922224Y-81610278D01*
X134925527Y-81604556D01*
X134984542Y-81422928D01*
X134989798Y-81372925D01*
X135003814Y-81239565D01*
X135004504Y-81233000D01*
X135001008Y-81199735D01*
X134985233Y-81049642D01*
X134985232Y-81049638D01*
X134984542Y-81043072D01*
X134973310Y-81008504D01*
X134971282Y-80937538D01*
X135007944Y-80876740D01*
X135066945Y-80846322D01*
X135128824Y-80833169D01*
X135128833Y-80833166D01*
X135135288Y-80831794D01*
X135267906Y-80772749D01*
X135303722Y-80756803D01*
X135303724Y-80756802D01*
X135309752Y-80754118D01*
X135464253Y-80641866D01*
X135491826Y-80611243D01*
X135587621Y-80504852D01*
X135587622Y-80504851D01*
X135592040Y-80499944D01*
X135665864Y-80372077D01*
X135717246Y-80323084D01*
X135786960Y-80309648D01*
X135852871Y-80336034D01*
X135864078Y-80345982D01*
X136762343Y-81244247D01*
X136769887Y-81252537D01*
X136774000Y-81259018D01*
X136779777Y-81264443D01*
X136823667Y-81305658D01*
X136826509Y-81308413D01*
X136846231Y-81328135D01*
X136849355Y-81330558D01*
X136849359Y-81330562D01*
X136849424Y-81330612D01*
X136858445Y-81338317D01*
X136890679Y-81368586D01*
X136897627Y-81372405D01*
X136897629Y-81372407D01*
X136908432Y-81378346D01*
X136924959Y-81389202D01*
X136934698Y-81396757D01*
X136934700Y-81396758D01*
X136940960Y-81401614D01*
X136981540Y-81419174D01*
X136992188Y-81424391D01*
X137016976Y-81438018D01*
X137030940Y-81445695D01*
X137038616Y-81447666D01*
X137038619Y-81447667D01*
X137050562Y-81450733D01*
X137069266Y-81457137D01*
X137078152Y-81460982D01*
X137087855Y-81465181D01*
X137095678Y-81466420D01*
X137095688Y-81466423D01*
X137131524Y-81472099D01*
X137143144Y-81474505D01*
X137174959Y-81482673D01*
X137185970Y-81485500D01*
X137206224Y-81485500D01*
X137225934Y-81487051D01*
X137245943Y-81490220D01*
X137253835Y-81489474D01*
X137272580Y-81487702D01*
X137289962Y-81486059D01*
X137301819Y-81485500D01*
X139219233Y-81485500D01*
X139230416Y-81486027D01*
X139237909Y-81487702D01*
X139245835Y-81487453D01*
X139245836Y-81487453D01*
X139305986Y-81485562D01*
X139309945Y-81485500D01*
X139337856Y-81485500D01*
X139341791Y-81485003D01*
X139341856Y-81484995D01*
X139353693Y-81484062D01*
X139385951Y-81483048D01*
X139389970Y-81482922D01*
X139397889Y-81482673D01*
X139417343Y-81477021D01*
X139436700Y-81473013D01*
X139448930Y-81471468D01*
X139448931Y-81471468D01*
X139456797Y-81470474D01*
X139464168Y-81467555D01*
X139464170Y-81467555D01*
X139497912Y-81454196D01*
X139509142Y-81450351D01*
X139543983Y-81440229D01*
X139543984Y-81440229D01*
X139551593Y-81438018D01*
X139558412Y-81433985D01*
X139558417Y-81433983D01*
X139569028Y-81427707D01*
X139586776Y-81419012D01*
X139605617Y-81411552D01*
X139641387Y-81385564D01*
X139651307Y-81379048D01*
X139682535Y-81360580D01*
X139682538Y-81360578D01*
X139689362Y-81356542D01*
X139703683Y-81342221D01*
X139718717Y-81329380D01*
X139721280Y-81327518D01*
X139735107Y-81317472D01*
X139763298Y-81283395D01*
X139771288Y-81274616D01*
X141380116Y-79665789D01*
X141442428Y-79631763D01*
X141513244Y-79636828D01*
X141570079Y-79679375D01*
X141594890Y-79745895D01*
X141594474Y-79768489D01*
X141591500Y-79795866D01*
X141591500Y-80892134D01*
X141598255Y-80954316D01*
X141649385Y-81090705D01*
X141736739Y-81207261D01*
X141853295Y-81294615D01*
X141989684Y-81345745D01*
X142051866Y-81352500D01*
X143148134Y-81352500D01*
X143210316Y-81345745D01*
X143346705Y-81294615D01*
X143463261Y-81207261D01*
X143550615Y-81090705D01*
X143601745Y-80954316D01*
X143608500Y-80892134D01*
X143608500Y-80407419D01*
X143628502Y-80339298D01*
X143682158Y-80292805D01*
X143752432Y-80282701D01*
X143760692Y-80284171D01*
X143778465Y-80287949D01*
X143831056Y-80299128D01*
X143831061Y-80299128D01*
X143837513Y-80300500D01*
X144028487Y-80300500D01*
X144034939Y-80299128D01*
X144034944Y-80299128D01*
X144125270Y-80279928D01*
X144215288Y-80260794D01*
X144221319Y-80258109D01*
X144383722Y-80185803D01*
X144383724Y-80185802D01*
X144389752Y-80183118D01*
X144413136Y-80166129D01*
X144522671Y-80086546D01*
X144544253Y-80070866D01*
X144548998Y-80065597D01*
X144570074Y-80042189D01*
X144630520Y-80004950D01*
X144663710Y-80000500D01*
X145280761Y-80000500D01*
X145348882Y-80020502D01*
X145369856Y-80037405D01*
X145460281Y-80127830D01*
X145494307Y-80190142D01*
X145496841Y-80213716D01*
X145496496Y-80217000D01*
X145497186Y-80223565D01*
X145511104Y-80355984D01*
X145516458Y-80406928D01*
X145575473Y-80588556D01*
X145670960Y-80753944D01*
X145675378Y-80758851D01*
X145675379Y-80758852D01*
X145684396Y-80768866D01*
X145798747Y-80895866D01*
X145879196Y-80954316D01*
X145938122Y-80997128D01*
X145953248Y-81008118D01*
X145959276Y-81010802D01*
X145959278Y-81010803D01*
X146121681Y-81083109D01*
X146127712Y-81085794D01*
X146221113Y-81105647D01*
X146308056Y-81124128D01*
X146308061Y-81124128D01*
X146314513Y-81125500D01*
X146505487Y-81125500D01*
X146511939Y-81124128D01*
X146511944Y-81124128D01*
X146598887Y-81105647D01*
X146692288Y-81085794D01*
X146698319Y-81083109D01*
X146860722Y-81010803D01*
X146860724Y-81010802D01*
X146866752Y-81008118D01*
X146881879Y-80997128D01*
X146970959Y-80932407D01*
X147011981Y-80902603D01*
X147078847Y-80878745D01*
X147147999Y-80894825D01*
X147174003Y-80917315D01*
X147175458Y-80915860D01*
X147189779Y-80930181D01*
X147202619Y-80945214D01*
X147214528Y-80961605D01*
X147220634Y-80966656D01*
X147248605Y-80989796D01*
X147257384Y-80997786D01*
X147309342Y-81049744D01*
X147343368Y-81112056D01*
X147342892Y-81167720D01*
X147334496Y-81203377D01*
X147334502Y-81210693D01*
X147334502Y-81210696D01*
X147334537Y-81250495D01*
X147334650Y-81380247D01*
X147335881Y-81385433D01*
X147324099Y-81454615D01*
X147276234Y-81507050D01*
X147207618Y-81525283D01*
X147196397Y-81524490D01*
X147183547Y-81523003D01*
X147021429Y-81523144D01*
X147006993Y-81524840D01*
X146849256Y-81562273D01*
X146835591Y-81567246D01*
X146690305Y-81640158D01*
X146678822Y-81647587D01*
X146605261Y-81707476D01*
X146600508Y-81711767D01*
X146582802Y-81729474D01*
X146575190Y-81743415D01*
X146575321Y-81745250D01*
X146579572Y-81751864D01*
X148300904Y-83473196D01*
X148314848Y-83480810D01*
X148316681Y-83480679D01*
X148323296Y-83476428D01*
X148344196Y-83455528D01*
X148348545Y-83450705D01*
X148409144Y-83376075D01*
X148416566Y-83364564D01*
X148489220Y-83219163D01*
X148494170Y-83205489D01*
X148531325Y-83047690D01*
X148532997Y-83033245D01*
X148532856Y-82871130D01*
X148531529Y-82859832D01*
X148543446Y-82789842D01*
X148591310Y-82737407D01*
X148659925Y-82719172D01*
X148670280Y-82719904D01*
X148677077Y-82721504D01*
X148684393Y-82721498D01*
X148684396Y-82721498D01*
X148765703Y-82721427D01*
X148853947Y-82721350D01*
X148939993Y-82700931D01*
X149018918Y-82682201D01*
X149018919Y-82682201D01*
X149026039Y-82680511D01*
X149154420Y-82616082D01*
X149177970Y-82604263D01*
X149184119Y-82601177D01*
X149206144Y-82583246D01*
X149263058Y-82536911D01*
X149263064Y-82536905D01*
X149265552Y-82534880D01*
X149690382Y-82110050D01*
X149692440Y-82107516D01*
X149753064Y-82032856D01*
X149753066Y-82032852D01*
X149757410Y-82027503D01*
X149760489Y-82021342D01*
X149760491Y-82021338D01*
X149821882Y-81898474D01*
X149827337Y-81887557D01*
X149875677Y-81835561D01*
X149944456Y-81817954D01*
X150011835Y-81840326D01*
X150029144Y-81854782D01*
X150251745Y-82077383D01*
X150278767Y-82099109D01*
X150293448Y-82110912D01*
X150300491Y-82116575D01*
X150307682Y-82119844D01*
X150307681Y-82119844D01*
X150424918Y-82173149D01*
X150424919Y-82173149D01*
X150433087Y-82176863D01*
X150441970Y-82178135D01*
X150441973Y-82178136D01*
X150568384Y-82196239D01*
X150577273Y-82197512D01*
X150586162Y-82196239D01*
X150712573Y-82178136D01*
X150712576Y-82178135D01*
X150721459Y-82176863D01*
X150729627Y-82173149D01*
X150729628Y-82173149D01*
X150846865Y-82119844D01*
X150846864Y-82119844D01*
X150854055Y-82116575D01*
X150861099Y-82110912D01*
X150875779Y-82099109D01*
X150902801Y-82077383D01*
X150949378Y-82030806D01*
X151011690Y-81996780D01*
X151082505Y-82001845D01*
X151139341Y-82044392D01*
X151164152Y-82110912D01*
X151161119Y-82148780D01*
X151146368Y-82211427D01*
X151144496Y-82219377D01*
X151144502Y-82226693D01*
X151144502Y-82226696D01*
X151144537Y-82266495D01*
X151144650Y-82396247D01*
X151145881Y-82401433D01*
X151134099Y-82470615D01*
X151086234Y-82523050D01*
X151017618Y-82541283D01*
X151006397Y-82540490D01*
X150993547Y-82539003D01*
X150831429Y-82539144D01*
X150816993Y-82540840D01*
X150659256Y-82578273D01*
X150645591Y-82583246D01*
X150500305Y-82656158D01*
X150488822Y-82663587D01*
X150415261Y-82723476D01*
X150410508Y-82727767D01*
X150392802Y-82745474D01*
X150385190Y-82759415D01*
X150385321Y-82761250D01*
X150389572Y-82767864D01*
X151342364Y-83720656D01*
X151376390Y-83782968D01*
X151371325Y-83853783D01*
X151342364Y-83898846D01*
X150551903Y-84689307D01*
X150544289Y-84703251D01*
X150544420Y-84705084D01*
X150548671Y-84711699D01*
X150728670Y-84891698D01*
X150733493Y-84896047D01*
X150808123Y-84956646D01*
X150819634Y-84964068D01*
X150843082Y-84975784D01*
X150895079Y-85024125D01*
X150912687Y-85092903D01*
X150890315Y-85160283D01*
X150875859Y-85177592D01*
X150258856Y-85794595D01*
X150196544Y-85828621D01*
X150169761Y-85831500D01*
X147140710Y-85831500D01*
X147072589Y-85811498D01*
X147047074Y-85789811D01*
X147025668Y-85766037D01*
X147025666Y-85766036D01*
X147021253Y-85761134D01*
X146929542Y-85694502D01*
X146872094Y-85652763D01*
X146872093Y-85652762D01*
X146866752Y-85648882D01*
X146860724Y-85646198D01*
X146860722Y-85646197D01*
X146698319Y-85573891D01*
X146698318Y-85573891D01*
X146692288Y-85571206D01*
X146598888Y-85551353D01*
X146511944Y-85532872D01*
X146511939Y-85532872D01*
X146505487Y-85531500D01*
X146314513Y-85531500D01*
X146308061Y-85532872D01*
X146308056Y-85532872D01*
X146221112Y-85551353D01*
X146127712Y-85571206D01*
X146121682Y-85573891D01*
X146121681Y-85573891D01*
X145959278Y-85646197D01*
X145959276Y-85646198D01*
X145953248Y-85648882D01*
X145947907Y-85652762D01*
X145947906Y-85652763D01*
X145897843Y-85689136D01*
X145798747Y-85761134D01*
X145794326Y-85766044D01*
X145794325Y-85766045D01*
X145737982Y-85828621D01*
X145670960Y-85903056D01*
X145620271Y-85990852D01*
X145581874Y-86057358D01*
X145575473Y-86068444D01*
X145516458Y-86250072D01*
X145496496Y-86440000D01*
X145497186Y-86446565D01*
X145512882Y-86595900D01*
X145516458Y-86629928D01*
X145575473Y-86811556D01*
X145578776Y-86817278D01*
X145578777Y-86817279D01*
X145605829Y-86864134D01*
X145670960Y-86976944D01*
X145798747Y-87118866D01*
X145953248Y-87231118D01*
X145959276Y-87233802D01*
X145959278Y-87233803D01*
X146121681Y-87306109D01*
X146127712Y-87308794D01*
X146201603Y-87324500D01*
X146308056Y-87347128D01*
X146308061Y-87347128D01*
X146314513Y-87348500D01*
X146505487Y-87348500D01*
X146511939Y-87347128D01*
X146511944Y-87347128D01*
X146618397Y-87324500D01*
X146692288Y-87308794D01*
X146698319Y-87306109D01*
X146860722Y-87233803D01*
X146860724Y-87233802D01*
X146866752Y-87231118D01*
X147021253Y-87118866D01*
X147047074Y-87090189D01*
X147107520Y-87052950D01*
X147140710Y-87048500D01*
X150425864Y-87048500D01*
X150442307Y-87049578D01*
X150474000Y-87053750D01*
X150482189Y-87052672D01*
X150513874Y-87048501D01*
X150513884Y-87048500D01*
X150513885Y-87048500D01*
X150613457Y-87035391D01*
X150624664Y-87033916D01*
X150624666Y-87033915D01*
X150632851Y-87032838D01*
X150780876Y-86971524D01*
X150800932Y-86956135D01*
X150876072Y-86898477D01*
X150876075Y-86898474D01*
X150901434Y-86879015D01*
X150907987Y-86873987D01*
X150915548Y-86864134D01*
X150927452Y-86848621D01*
X150938319Y-86836230D01*
X157474234Y-80300315D01*
X157486625Y-80289448D01*
X157505437Y-80275013D01*
X157511987Y-80269987D01*
X157536474Y-80238075D01*
X157536477Y-80238072D01*
X157601042Y-80153929D01*
X157609524Y-80142875D01*
X157670838Y-79994850D01*
X157686500Y-79875885D01*
X157686500Y-79875878D01*
X157691750Y-79836000D01*
X157687578Y-79804307D01*
X157686500Y-79787864D01*
X157686500Y-79376136D01*
X157687578Y-79359690D01*
X157689271Y-79346834D01*
X157691750Y-79328000D01*
X157686500Y-79288120D01*
X157686500Y-79288115D01*
X157679171Y-79232443D01*
X157671916Y-79177336D01*
X157671915Y-79177334D01*
X157670838Y-79169150D01*
X157666895Y-79159630D01*
X157640300Y-79095424D01*
X157632711Y-79024834D01*
X157658954Y-78974666D01*
X157658516Y-78974427D01*
X157674810Y-78944585D01*
X157674679Y-78942750D01*
X157670428Y-78936136D01*
X155949096Y-77214804D01*
X155935152Y-77207190D01*
X155933347Y-77207319D01*
X155863973Y-77192228D01*
X155813770Y-77142027D01*
X155798678Y-77072653D01*
X155815238Y-77018640D01*
X155877223Y-76911279D01*
X155877224Y-76911278D01*
X155880527Y-76905556D01*
X155939542Y-76723928D01*
X155942604Y-76694801D01*
X155958814Y-76540565D01*
X155959504Y-76534000D01*
X155939542Y-76344072D01*
X155938646Y-76341313D01*
X155943941Y-76271893D01*
X155986757Y-76215259D01*
X156053394Y-76190764D01*
X156122695Y-76206184D01*
X156150882Y-76227389D01*
X156177995Y-76254502D01*
X156185535Y-76262788D01*
X156189647Y-76269267D01*
X156195424Y-76274692D01*
X156239298Y-76315892D01*
X156242140Y-76318647D01*
X156261877Y-76338384D01*
X156265074Y-76340864D01*
X156274094Y-76348567D01*
X156306326Y-76378835D01*
X156313272Y-76382654D01*
X156313275Y-76382656D01*
X156324081Y-76388597D01*
X156340600Y-76399448D01*
X156356606Y-76411863D01*
X156363875Y-76415008D01*
X156363879Y-76415011D01*
X156397184Y-76429423D01*
X156407834Y-76434640D01*
X156446587Y-76455944D01*
X156454262Y-76457915D01*
X156454263Y-76457915D01*
X156466209Y-76460982D01*
X156484907Y-76467383D01*
X156492495Y-76470667D01*
X156547070Y-76516075D01*
X156568433Y-76583782D01*
X156549799Y-76652289D01*
X156498974Y-76698919D01*
X156415807Y-76740656D01*
X156404324Y-76748085D01*
X156330763Y-76807974D01*
X156326010Y-76812265D01*
X156308304Y-76829972D01*
X156300692Y-76843913D01*
X156300823Y-76845748D01*
X156305074Y-76852362D01*
X158026406Y-78573694D01*
X158040350Y-78581308D01*
X158042183Y-78581177D01*
X158048798Y-78576926D01*
X158069698Y-78556026D01*
X158074047Y-78551203D01*
X158134646Y-78476573D01*
X158142068Y-78465062D01*
X158197070Y-78354987D01*
X158245411Y-78302991D01*
X158314190Y-78285384D01*
X158381569Y-78307757D01*
X158389207Y-78313492D01*
X158437427Y-78352646D01*
X158448938Y-78360068D01*
X158594339Y-78432722D01*
X158608013Y-78437672D01*
X158765812Y-78474827D01*
X158780257Y-78476499D01*
X158942373Y-78476358D01*
X158956809Y-78474662D01*
X159114546Y-78437229D01*
X159128211Y-78432256D01*
X159273497Y-78359344D01*
X159284980Y-78351915D01*
X159358530Y-78292035D01*
X159363304Y-78287725D01*
X159540101Y-78110927D01*
X159547712Y-78096989D01*
X159547580Y-78095153D01*
X159543331Y-78088541D01*
X158749636Y-77294846D01*
X158715610Y-77232534D01*
X158717445Y-77206883D01*
X159384159Y-77206883D01*
X159384290Y-77208716D01*
X159388541Y-77215331D01*
X159899307Y-77726097D01*
X159913251Y-77733711D01*
X159915084Y-77733580D01*
X159921699Y-77729329D01*
X160101698Y-77549330D01*
X160106047Y-77544507D01*
X160166646Y-77469877D01*
X160174068Y-77458366D01*
X160246722Y-77312965D01*
X160251672Y-77299291D01*
X160288827Y-77141492D01*
X160290499Y-77127047D01*
X160290358Y-76964931D01*
X160288662Y-76950495D01*
X160251229Y-76792758D01*
X160246256Y-76779093D01*
X160173344Y-76633807D01*
X160165915Y-76622324D01*
X160106026Y-76548763D01*
X160101735Y-76544010D01*
X160084028Y-76526304D01*
X160070087Y-76518692D01*
X160068252Y-76518823D01*
X160061638Y-76523074D01*
X159391773Y-77192939D01*
X159384159Y-77206883D01*
X158717445Y-77206883D01*
X158720675Y-77161719D01*
X158749636Y-77116656D01*
X159699196Y-76167096D01*
X159706810Y-76153152D01*
X159706679Y-76151319D01*
X159702428Y-76144704D01*
X159681528Y-76123804D01*
X159676705Y-76119455D01*
X159602075Y-76058856D01*
X159590564Y-76051434D01*
X159445163Y-75978780D01*
X159431489Y-75973830D01*
X159273690Y-75936675D01*
X159259245Y-75935003D01*
X159097130Y-75935144D01*
X159085832Y-75936471D01*
X159015842Y-75924554D01*
X158963407Y-75876690D01*
X158945172Y-75808075D01*
X158945904Y-75797720D01*
X158947504Y-75790923D01*
X158947496Y-75781069D01*
X158947407Y-75679988D01*
X158947350Y-75614053D01*
X158906511Y-75441961D01*
X158855334Y-75339985D01*
X158842656Y-75270132D01*
X158869757Y-75204512D01*
X158916699Y-75168364D01*
X159052722Y-75107803D01*
X159052724Y-75107802D01*
X159058752Y-75105118D01*
X159213253Y-74992866D01*
X159308725Y-74886834D01*
X159336621Y-74855852D01*
X159336622Y-74855851D01*
X159341040Y-74850944D01*
X159399314Y-74750010D01*
X159433223Y-74691279D01*
X159433224Y-74691278D01*
X159436527Y-74685556D01*
X159495542Y-74503928D01*
X159496428Y-74495504D01*
X159514814Y-74320565D01*
X159515504Y-74314000D01*
X159501143Y-74177365D01*
X159496232Y-74130635D01*
X159496232Y-74130633D01*
X159495542Y-74124072D01*
X159436527Y-73942444D01*
X159421924Y-73917150D01*
X159390007Y-73861869D01*
X159341040Y-73777056D01*
X159328588Y-73763226D01*
X159217675Y-73640045D01*
X159217674Y-73640044D01*
X159213253Y-73635134D01*
X159058752Y-73522882D01*
X159052724Y-73520198D01*
X159052722Y-73520197D01*
X158890319Y-73447891D01*
X158890318Y-73447891D01*
X158884288Y-73445206D01*
X158790887Y-73425353D01*
X158703944Y-73406872D01*
X158703939Y-73406872D01*
X158697487Y-73405500D01*
X158533596Y-73405500D01*
X158465475Y-73385498D01*
X158420982Y-73336016D01*
X158360631Y-73215759D01*
X158360628Y-73215755D01*
X158357544Y-73209609D01*
X158302072Y-73141472D01*
X158296007Y-73134022D01*
X158296003Y-73134018D01*
X158293977Y-73131529D01*
X157686471Y-72524023D01*
X157645661Y-72490885D01*
X157612676Y-72464101D01*
X157612672Y-72464099D01*
X157607323Y-72459755D01*
X157601162Y-72456677D01*
X157601155Y-72456672D01*
X157563888Y-72438052D01*
X157511891Y-72389712D01*
X157494283Y-72320933D01*
X157514896Y-72258851D01*
X157513798Y-72258175D01*
X157517939Y-72251450D01*
X157522889Y-72245294D01*
X157577942Y-72124211D01*
X157579461Y-72120871D01*
X157583177Y-72112698D01*
X157586538Y-72089232D01*
X157600697Y-71990356D01*
X157603825Y-71968512D01*
X157590429Y-71874968D01*
X157584450Y-71833214D01*
X157584450Y-71833213D01*
X157583177Y-71824326D01*
X157522889Y-71691730D01*
X157517942Y-71685577D01*
X157517940Y-71685574D01*
X157485836Y-71645646D01*
X157483696Y-71642984D01*
X156567097Y-70726385D01*
X156547887Y-70710940D01*
X156524507Y-70692141D01*
X156524504Y-70692139D01*
X156518351Y-70687192D01*
X156510003Y-70683396D01*
X156454483Y-70658153D01*
X156424856Y-70644682D01*
X156371125Y-70598279D01*
X156362308Y-70582132D01*
X156323655Y-70497118D01*
X156315430Y-70483761D01*
X156283369Y-70443885D01*
X156278811Y-70438806D01*
X156015379Y-70175374D01*
X156001435Y-70167760D01*
X155999602Y-70167891D01*
X155992987Y-70172142D01*
X155057872Y-71107257D01*
X154995560Y-71141283D01*
X154924745Y-71136218D01*
X154879682Y-71107257D01*
X154698662Y-70926237D01*
X154664636Y-70863925D01*
X154669701Y-70793110D01*
X154698662Y-70748047D01*
X155630545Y-69816164D01*
X155638159Y-69802220D01*
X155638028Y-69800387D01*
X155633777Y-69793773D01*
X155369600Y-69529596D01*
X155335575Y-69467283D01*
X155340639Y-69396468D01*
X155383186Y-69339632D01*
X155449706Y-69314821D01*
X155458695Y-69314500D01*
X155649487Y-69314500D01*
X155655939Y-69313128D01*
X155655944Y-69313128D01*
X155742888Y-69294647D01*
X155836288Y-69274794D01*
X155855914Y-69266056D01*
X156004722Y-69199803D01*
X156004724Y-69199802D01*
X156010752Y-69197118D01*
X156165253Y-69084866D01*
X156171484Y-69077946D01*
X156288621Y-68947852D01*
X156288622Y-68947851D01*
X156293040Y-68942944D01*
X156388527Y-68777556D01*
X156447542Y-68595928D01*
X156467504Y-68406000D01*
X156456875Y-68304868D01*
X156448232Y-68222635D01*
X156448232Y-68222633D01*
X156447542Y-68216072D01*
X156388527Y-68034444D01*
X156293040Y-67869056D01*
X156266213Y-67839261D01*
X156169675Y-67732045D01*
X156169674Y-67732044D01*
X156165253Y-67727134D01*
X156010752Y-67614882D01*
X156004724Y-67612198D01*
X156004722Y-67612197D01*
X155842319Y-67539891D01*
X155842318Y-67539891D01*
X155836288Y-67537206D01*
X155742888Y-67517353D01*
X155655944Y-67498872D01*
X155655939Y-67498872D01*
X155649487Y-67497500D01*
X155458513Y-67497500D01*
X155452053Y-67498873D01*
X155452054Y-67498873D01*
X155349010Y-67520775D01*
X155278220Y-67515373D01*
X155221587Y-67472556D01*
X155197094Y-67405918D01*
X155196814Y-67397528D01*
X155196814Y-67396565D01*
X155197504Y-67390000D01*
X155191038Y-67328475D01*
X155178232Y-67206635D01*
X155178232Y-67206633D01*
X155177542Y-67200072D01*
X155118527Y-67018444D01*
X155023040Y-66853056D01*
X155006882Y-66835110D01*
X154899675Y-66716045D01*
X154899672Y-66716042D01*
X154895253Y-66711134D01*
X154761308Y-66613817D01*
X154746094Y-66602763D01*
X154746093Y-66602762D01*
X154740752Y-66598882D01*
X154734724Y-66596198D01*
X154734722Y-66596197D01*
X154572319Y-66523891D01*
X154572318Y-66523891D01*
X154566288Y-66521206D01*
X154464692Y-66499611D01*
X154385944Y-66482872D01*
X154385939Y-66482872D01*
X154379487Y-66481500D01*
X154188513Y-66481500D01*
X154182061Y-66482872D01*
X154182056Y-66482872D01*
X154103308Y-66499611D01*
X154001712Y-66521206D01*
X153995682Y-66523891D01*
X153995681Y-66523891D01*
X153833278Y-66596197D01*
X153833276Y-66596198D01*
X153827248Y-66598882D01*
X153821907Y-66602762D01*
X153821906Y-66602763D01*
X153707624Y-66685794D01*
X153672747Y-66711134D01*
X153668331Y-66716038D01*
X153668327Y-66716042D01*
X153667646Y-66716798D01*
X153667143Y-66717108D01*
X153663420Y-66720460D01*
X153662807Y-66719779D01*
X153607198Y-66754034D01*
X153577973Y-66758420D01*
X153564642Y-66758839D01*
X153549110Y-66759327D01*
X153531744Y-66764372D01*
X153529658Y-66764978D01*
X153510306Y-66768986D01*
X153498068Y-66770532D01*
X153498066Y-66770533D01*
X153490203Y-66771526D01*
X153449086Y-66787806D01*
X153437885Y-66791641D01*
X153395406Y-66803982D01*
X153388587Y-66808015D01*
X153388582Y-66808017D01*
X153377971Y-66814293D01*
X153360221Y-66822990D01*
X153341383Y-66830448D01*
X153334967Y-66835109D01*
X153334966Y-66835110D01*
X153305625Y-66856428D01*
X153295701Y-66862947D01*
X153264460Y-66881422D01*
X153264455Y-66881426D01*
X153257637Y-66885458D01*
X153243313Y-66899782D01*
X153228281Y-66912621D01*
X153211893Y-66924528D01*
X153197439Y-66942000D01*
X153183712Y-66958593D01*
X153175722Y-66967373D01*
X152359060Y-67784035D01*
X152296748Y-67818061D01*
X152269965Y-67820940D01*
X147682856Y-67820940D01*
X147614735Y-67800938D01*
X147568242Y-67747282D01*
X147561045Y-67720794D01*
X147559606Y-67721100D01*
X147558232Y-67714635D01*
X147557542Y-67708072D01*
X147552068Y-67691223D01*
X147500569Y-67532729D01*
X147498527Y-67526444D01*
X147403040Y-67361056D01*
X147385986Y-67342115D01*
X147279675Y-67224045D01*
X147279674Y-67224044D01*
X147275253Y-67219134D01*
X147120752Y-67106882D01*
X147114724Y-67104198D01*
X147114722Y-67104197D01*
X146952319Y-67031891D01*
X146952318Y-67031891D01*
X146946288Y-67029206D01*
X146849119Y-67008552D01*
X146765944Y-66990872D01*
X146765939Y-66990872D01*
X146759487Y-66989500D01*
X146568513Y-66989500D01*
X146562061Y-66990872D01*
X146562056Y-66990872D01*
X146478881Y-67008552D01*
X146459268Y-67012721D01*
X146453467Y-67013954D01*
X146382676Y-67008552D01*
X146326044Y-66965735D01*
X146318151Y-66953707D01*
X146311392Y-66942000D01*
X146260040Y-66853056D01*
X146243882Y-66835110D01*
X146136675Y-66716045D01*
X146136672Y-66716042D01*
X146132253Y-66711134D01*
X145998308Y-66613817D01*
X145983094Y-66602763D01*
X145983093Y-66602762D01*
X145977752Y-66598882D01*
X145971724Y-66596198D01*
X145971722Y-66596197D01*
X145809319Y-66523891D01*
X145809318Y-66523891D01*
X145803288Y-66521206D01*
X145701692Y-66499611D01*
X145622944Y-66482872D01*
X145622939Y-66482872D01*
X145616487Y-66481500D01*
X145425513Y-66481500D01*
X145419061Y-66482872D01*
X145419056Y-66482872D01*
X145340308Y-66499611D01*
X145238712Y-66521206D01*
X145232682Y-66523891D01*
X145232681Y-66523891D01*
X145070278Y-66596197D01*
X145070276Y-66596198D01*
X145064248Y-66598882D01*
X145058907Y-66602762D01*
X145058906Y-66602763D01*
X145023561Y-66628443D01*
X144956694Y-66652301D01*
X144887542Y-66636221D01*
X144875439Y-66628443D01*
X144840094Y-66602763D01*
X144840093Y-66602762D01*
X144834752Y-66598882D01*
X144828724Y-66596198D01*
X144828722Y-66596197D01*
X144666319Y-66523891D01*
X144666318Y-66523891D01*
X144660288Y-66521206D01*
X144558692Y-66499611D01*
X144479944Y-66482872D01*
X144479939Y-66482872D01*
X144473487Y-66481500D01*
X144282513Y-66481500D01*
X144276061Y-66482872D01*
X144276056Y-66482872D01*
X144197308Y-66499611D01*
X144095712Y-66521206D01*
X144089682Y-66523891D01*
X144089681Y-66523891D01*
X143927278Y-66596197D01*
X143927276Y-66596198D01*
X143921248Y-66598882D01*
X143915907Y-66602762D01*
X143915906Y-66602763D01*
X143900692Y-66613817D01*
X143766747Y-66711134D01*
X143724171Y-66758420D01*
X143718417Y-66764810D01*
X143657971Y-66802050D01*
X143624781Y-66806500D01*
X143309500Y-66806500D01*
X143241379Y-66786498D01*
X143194886Y-66732842D01*
X143183500Y-66680500D01*
X143183500Y-65612000D01*
X147528496Y-65612000D01*
X147548458Y-65801928D01*
X147607473Y-65983556D01*
X147702960Y-66148944D01*
X147707378Y-66153851D01*
X147707379Y-66153852D01*
X147804942Y-66262207D01*
X147830747Y-66290866D01*
X147985248Y-66403118D01*
X147991276Y-66405802D01*
X147991278Y-66405803D01*
X148153681Y-66478109D01*
X148159712Y-66480794D01*
X148248239Y-66499611D01*
X148340056Y-66519128D01*
X148340061Y-66519128D01*
X148346513Y-66520500D01*
X148537487Y-66520500D01*
X148543939Y-66519128D01*
X148543944Y-66519128D01*
X148635761Y-66499611D01*
X148724288Y-66480794D01*
X148730319Y-66478109D01*
X148892722Y-66405803D01*
X148892724Y-66405802D01*
X148898752Y-66403118D01*
X149053253Y-66290866D01*
X149079058Y-66262207D01*
X149176621Y-66153852D01*
X149176622Y-66153851D01*
X149181040Y-66148944D01*
X149276527Y-65983556D01*
X149335542Y-65801928D01*
X149355504Y-65612000D01*
X149345477Y-65516600D01*
X149336232Y-65428635D01*
X149336232Y-65428633D01*
X149335542Y-65422072D01*
X149276527Y-65240444D01*
X149181040Y-65075056D01*
X149169917Y-65062702D01*
X149057675Y-64938045D01*
X149057674Y-64938044D01*
X149053253Y-64933134D01*
X148938829Y-64850000D01*
X148904094Y-64824763D01*
X148904093Y-64824762D01*
X148898752Y-64820882D01*
X148892724Y-64818198D01*
X148892722Y-64818197D01*
X148730319Y-64745891D01*
X148730318Y-64745891D01*
X148724288Y-64743206D01*
X148622170Y-64721500D01*
X148543944Y-64704872D01*
X148543939Y-64704872D01*
X148537487Y-64703500D01*
X148346513Y-64703500D01*
X148340061Y-64704872D01*
X148340056Y-64704872D01*
X148261830Y-64721500D01*
X148159712Y-64743206D01*
X148153682Y-64745891D01*
X148153681Y-64745891D01*
X147991278Y-64818197D01*
X147991276Y-64818198D01*
X147985248Y-64820882D01*
X147979907Y-64824762D01*
X147979906Y-64824763D01*
X147945171Y-64850000D01*
X147830747Y-64933134D01*
X147826326Y-64938044D01*
X147826325Y-64938045D01*
X147714084Y-65062702D01*
X147702960Y-65075056D01*
X147607473Y-65240444D01*
X147548458Y-65422072D01*
X147547768Y-65428633D01*
X147547768Y-65428635D01*
X147538523Y-65516600D01*
X147528496Y-65612000D01*
X143183500Y-65612000D01*
X143183500Y-64134501D01*
X143184578Y-64118053D01*
X143185030Y-64114625D01*
X143188535Y-64088000D01*
X143182760Y-64044136D01*
X143168481Y-63935676D01*
X143118961Y-63816125D01*
X143117510Y-63812621D01*
X143112846Y-63801360D01*
X143112844Y-63801357D01*
X143109686Y-63793732D01*
X143039639Y-63702445D01*
X143039637Y-63702443D01*
X143016157Y-63671843D01*
X142992102Y-63653385D01*
X142979718Y-63642524D01*
X142894289Y-63557095D01*
X143399001Y-63557095D01*
X143399338Y-63563614D01*
X143409257Y-63659206D01*
X143412149Y-63672600D01*
X143463588Y-63826784D01*
X143469761Y-63839962D01*
X143555063Y-63977807D01*
X143564099Y-63989208D01*
X143678829Y-64103739D01*
X143690240Y-64112751D01*
X143828243Y-64197816D01*
X143841424Y-64203963D01*
X143995710Y-64255138D01*
X144009086Y-64258005D01*
X144103438Y-64267672D01*
X144109854Y-64268000D01*
X144359885Y-64268000D01*
X144375124Y-64263525D01*
X144376329Y-64262135D01*
X144378000Y-64254452D01*
X144378000Y-64249884D01*
X144886000Y-64249884D01*
X144890475Y-64265123D01*
X144891865Y-64266328D01*
X144899548Y-64267999D01*
X145154095Y-64267999D01*
X145160614Y-64267662D01*
X145256206Y-64257743D01*
X145269600Y-64254851D01*
X145423784Y-64203412D01*
X145436962Y-64197239D01*
X145574807Y-64111937D01*
X145586208Y-64102901D01*
X145700739Y-63988171D01*
X145709751Y-63976760D01*
X145794816Y-63838757D01*
X145800963Y-63825576D01*
X145852138Y-63671290D01*
X145855005Y-63657914D01*
X145864672Y-63563562D01*
X145865000Y-63557146D01*
X145865000Y-63532115D01*
X145860525Y-63516876D01*
X145859135Y-63515671D01*
X145851452Y-63514000D01*
X144904115Y-63514000D01*
X144888876Y-63518475D01*
X144887671Y-63519865D01*
X144886000Y-63527548D01*
X144886000Y-64249884D01*
X144378000Y-64249884D01*
X144378000Y-63532115D01*
X144373525Y-63516876D01*
X144372135Y-63515671D01*
X144364452Y-63514000D01*
X143417116Y-63514000D01*
X143401877Y-63518475D01*
X143400672Y-63519865D01*
X143399001Y-63527548D01*
X143399001Y-63557095D01*
X142894289Y-63557095D01*
X142851194Y-63514000D01*
X142712405Y-63375212D01*
X142678380Y-63312899D01*
X142675500Y-63286116D01*
X142675500Y-63155126D01*
X142695502Y-63087005D01*
X142749158Y-63040512D01*
X142757270Y-63037144D01*
X142830297Y-63009767D01*
X142838705Y-63006615D01*
X142955261Y-62919261D01*
X143042615Y-62802705D01*
X143093745Y-62666316D01*
X143100500Y-62604134D01*
X143100500Y-61660400D01*
X143398500Y-61660400D01*
X143398837Y-61663646D01*
X143398837Y-61663650D01*
X143401001Y-61684500D01*
X143409474Y-61766166D01*
X143411655Y-61772702D01*
X143411655Y-61772704D01*
X143438160Y-61852149D01*
X143465450Y-61933946D01*
X143558522Y-62084348D01*
X143683697Y-62209305D01*
X143688235Y-62212102D01*
X143728824Y-62269353D01*
X143732054Y-62340276D01*
X143696428Y-62401687D01*
X143687932Y-62409062D01*
X143677793Y-62417098D01*
X143563261Y-62531829D01*
X143554249Y-62543240D01*
X143469184Y-62681243D01*
X143463037Y-62694424D01*
X143411862Y-62848710D01*
X143408995Y-62862086D01*
X143399328Y-62956438D01*
X143399000Y-62962855D01*
X143399000Y-62987885D01*
X143403475Y-63003124D01*
X143404865Y-63004329D01*
X143412548Y-63006000D01*
X145846884Y-63006000D01*
X145862123Y-63001525D01*
X145863328Y-63000135D01*
X145864999Y-62992452D01*
X145864999Y-62962905D01*
X145864662Y-62956386D01*
X145854743Y-62860794D01*
X145851851Y-62847400D01*
X145800412Y-62693216D01*
X145794239Y-62680038D01*
X145708937Y-62542193D01*
X145699901Y-62530792D01*
X145585172Y-62416262D01*
X145576238Y-62409206D01*
X145535177Y-62351288D01*
X145531947Y-62280365D01*
X145567574Y-62218954D01*
X145575407Y-62212154D01*
X145581348Y-62208478D01*
X145706305Y-62083303D01*
X145723135Y-62056000D01*
X149052496Y-62056000D01*
X149053186Y-62062565D01*
X149064694Y-62172053D01*
X149072458Y-62245928D01*
X149131473Y-62427556D01*
X149226960Y-62592944D01*
X149231378Y-62597851D01*
X149231379Y-62597852D01*
X149299588Y-62673606D01*
X149354747Y-62734866D01*
X149509248Y-62847118D01*
X149515276Y-62849802D01*
X149515278Y-62849803D01*
X149677681Y-62922109D01*
X149683712Y-62924794D01*
X149777113Y-62944647D01*
X149864056Y-62963128D01*
X149864061Y-62963128D01*
X149870513Y-62964500D01*
X150061487Y-62964500D01*
X150067939Y-62963128D01*
X150067944Y-62963128D01*
X150154887Y-62944647D01*
X150248288Y-62924794D01*
X150254319Y-62922109D01*
X150416722Y-62849803D01*
X150416724Y-62849802D01*
X150422752Y-62847118D01*
X150490023Y-62798243D01*
X150556889Y-62774385D01*
X150626041Y-62790465D01*
X150653178Y-62811083D01*
X150764595Y-62922499D01*
X150798620Y-62984811D01*
X150801500Y-63011595D01*
X150801500Y-63597400D01*
X150801837Y-63600646D01*
X150801837Y-63600650D01*
X150811618Y-63694914D01*
X150812474Y-63703166D01*
X150868450Y-63870946D01*
X150961522Y-64021348D01*
X151086697Y-64146305D01*
X151092927Y-64150145D01*
X151092928Y-64150146D01*
X151230288Y-64234816D01*
X151237262Y-64239115D01*
X151283502Y-64254452D01*
X151398611Y-64292632D01*
X151398613Y-64292632D01*
X151405139Y-64294797D01*
X151411975Y-64295497D01*
X151411978Y-64295498D01*
X151455031Y-64299909D01*
X151509600Y-64305500D01*
X152110400Y-64305500D01*
X152113646Y-64305163D01*
X152113650Y-64305163D01*
X152209308Y-64295238D01*
X152209312Y-64295237D01*
X152216166Y-64294526D01*
X152222702Y-64292345D01*
X152222704Y-64292345D01*
X152354806Y-64248272D01*
X152383946Y-64238550D01*
X152534348Y-64145478D01*
X152553551Y-64126242D01*
X152599900Y-64079812D01*
X152659305Y-64020303D01*
X152662102Y-64015765D01*
X152719353Y-63975176D01*
X152790276Y-63971946D01*
X152851687Y-64007572D01*
X152859062Y-64016068D01*
X152867098Y-64026207D01*
X152981829Y-64140739D01*
X152993240Y-64149751D01*
X153131243Y-64234816D01*
X153144424Y-64240963D01*
X153298710Y-64292138D01*
X153312086Y-64295005D01*
X153406438Y-64304672D01*
X153412854Y-64305000D01*
X153437885Y-64305000D01*
X153453124Y-64300525D01*
X153454329Y-64299135D01*
X153456000Y-64291452D01*
X153456000Y-64286884D01*
X153964000Y-64286884D01*
X153968475Y-64302123D01*
X153969865Y-64303328D01*
X153977548Y-64304999D01*
X154007095Y-64304999D01*
X154013614Y-64304662D01*
X154109206Y-64294743D01*
X154122600Y-64291851D01*
X154276784Y-64240412D01*
X154289962Y-64234239D01*
X154427807Y-64148937D01*
X154439208Y-64139901D01*
X154553739Y-64025171D01*
X154562751Y-64013760D01*
X154647816Y-63875757D01*
X154653963Y-63862576D01*
X154705138Y-63708290D01*
X154708005Y-63694914D01*
X154717672Y-63600562D01*
X154718000Y-63594146D01*
X154718000Y-63344115D01*
X154713525Y-63328876D01*
X154712135Y-63327671D01*
X154704452Y-63326000D01*
X153982115Y-63326000D01*
X153966876Y-63330475D01*
X153965671Y-63331865D01*
X153964000Y-63339548D01*
X153964000Y-64286884D01*
X153456000Y-64286884D01*
X153456000Y-62799885D01*
X153964000Y-62799885D01*
X153968475Y-62815124D01*
X153969865Y-62816329D01*
X153977548Y-62818000D01*
X154699884Y-62818000D01*
X154715123Y-62813525D01*
X154716328Y-62812135D01*
X154717999Y-62804452D01*
X154717999Y-62549905D01*
X154717662Y-62543386D01*
X154707743Y-62447794D01*
X154704851Y-62434400D01*
X154653412Y-62280216D01*
X154647239Y-62267038D01*
X154561937Y-62129193D01*
X154552901Y-62117792D01*
X154438171Y-62003261D01*
X154426760Y-61994249D01*
X154288757Y-61909184D01*
X154275576Y-61903037D01*
X154121290Y-61851862D01*
X154107914Y-61848995D01*
X154013562Y-61839328D01*
X154007145Y-61839000D01*
X153982115Y-61839000D01*
X153966876Y-61843475D01*
X153965671Y-61844865D01*
X153964000Y-61852548D01*
X153964000Y-62799885D01*
X153456000Y-62799885D01*
X153456000Y-61857116D01*
X153451525Y-61841877D01*
X153450135Y-61840672D01*
X153442452Y-61839001D01*
X153412905Y-61839001D01*
X153406386Y-61839338D01*
X153310794Y-61849257D01*
X153297400Y-61852149D01*
X153143216Y-61903588D01*
X153130038Y-61909761D01*
X152992193Y-61995063D01*
X152980792Y-62004099D01*
X152866262Y-62118828D01*
X152859206Y-62127762D01*
X152801288Y-62168823D01*
X152730365Y-62172053D01*
X152668954Y-62136426D01*
X152662154Y-62128593D01*
X152658478Y-62122652D01*
X152533303Y-61997695D01*
X152527072Y-61993854D01*
X152388968Y-61908725D01*
X152388966Y-61908724D01*
X152382738Y-61904885D01*
X152265720Y-61866072D01*
X152221389Y-61851368D01*
X152221387Y-61851368D01*
X152214861Y-61849203D01*
X152208025Y-61848503D01*
X152208022Y-61848502D01*
X152164969Y-61844091D01*
X152110400Y-61838500D01*
X151524595Y-61838500D01*
X151456474Y-61818498D01*
X151435500Y-61801595D01*
X151297652Y-61663747D01*
X151290112Y-61655461D01*
X151286000Y-61648982D01*
X151236348Y-61602356D01*
X151233507Y-61599602D01*
X151213770Y-61579865D01*
X151210573Y-61577385D01*
X151201551Y-61569680D01*
X151175100Y-61544841D01*
X151169321Y-61539414D01*
X151162375Y-61535595D01*
X151162372Y-61535593D01*
X151151566Y-61529652D01*
X151135047Y-61518801D01*
X151134583Y-61518441D01*
X151119041Y-61506386D01*
X151111772Y-61503241D01*
X151111768Y-61503238D01*
X151078463Y-61488826D01*
X151067813Y-61483609D01*
X151029060Y-61462305D01*
X151009437Y-61457267D01*
X150990734Y-61450863D01*
X150979420Y-61445967D01*
X150979419Y-61445967D01*
X150972145Y-61442819D01*
X150964322Y-61441580D01*
X150964312Y-61441577D01*
X150928476Y-61435901D01*
X150916856Y-61433495D01*
X150881711Y-61424472D01*
X150881710Y-61424472D01*
X150874030Y-61422500D01*
X150865800Y-61422500D01*
X150865573Y-61422433D01*
X150858240Y-61421507D01*
X150858389Y-61420324D01*
X150797679Y-61402498D01*
X150751186Y-61348842D01*
X150741082Y-61278568D01*
X150756681Y-61233500D01*
X150797223Y-61163279D01*
X150797224Y-61163278D01*
X150800527Y-61157556D01*
X150859542Y-60975928D01*
X150861144Y-60960692D01*
X150878814Y-60792565D01*
X150879504Y-60786000D01*
X150863702Y-60635652D01*
X150860232Y-60602635D01*
X150860232Y-60602633D01*
X150859542Y-60596072D01*
X150800527Y-60414444D01*
X150705040Y-60249056D01*
X150577253Y-60107134D01*
X150422752Y-59994882D01*
X150416724Y-59992198D01*
X150416722Y-59992197D01*
X150254319Y-59919891D01*
X150254318Y-59919891D01*
X150248288Y-59917206D01*
X150154887Y-59897353D01*
X150067944Y-59878872D01*
X150067939Y-59878872D01*
X150061487Y-59877500D01*
X149870513Y-59877500D01*
X149864061Y-59878872D01*
X149864056Y-59878872D01*
X149777113Y-59897353D01*
X149683712Y-59917206D01*
X149677682Y-59919891D01*
X149677681Y-59919891D01*
X149515278Y-59992197D01*
X149515276Y-59992198D01*
X149509248Y-59994882D01*
X149354747Y-60107134D01*
X149226960Y-60249056D01*
X149131473Y-60414444D01*
X149072458Y-60596072D01*
X149071768Y-60602633D01*
X149071768Y-60602635D01*
X149068298Y-60635652D01*
X149052496Y-60786000D01*
X149053186Y-60792565D01*
X149070857Y-60960692D01*
X149072458Y-60975928D01*
X149131473Y-61157556D01*
X149226960Y-61322944D01*
X149239338Y-61336691D01*
X149270054Y-61400697D01*
X149261290Y-61471150D01*
X149239339Y-61505307D01*
X149226960Y-61519056D01*
X149212188Y-61544642D01*
X149135341Y-61677745D01*
X149131473Y-61684444D01*
X149072458Y-61866072D01*
X149071768Y-61872633D01*
X149071768Y-61872635D01*
X149058039Y-62003261D01*
X149052496Y-62056000D01*
X145723135Y-62056000D01*
X145761199Y-61994249D01*
X145795275Y-61938968D01*
X145795276Y-61938966D01*
X145799115Y-61932738D01*
X145854797Y-61764861D01*
X145857101Y-61742379D01*
X145861864Y-61695886D01*
X145865500Y-61660400D01*
X145865500Y-61059600D01*
X145865163Y-61056350D01*
X145855238Y-60960692D01*
X145855237Y-60960688D01*
X145854526Y-60953834D01*
X145798550Y-60786054D01*
X145705478Y-60635652D01*
X145580303Y-60510695D01*
X145574072Y-60506854D01*
X145435968Y-60421725D01*
X145435966Y-60421724D01*
X145429738Y-60417885D01*
X145269254Y-60364655D01*
X145268389Y-60364368D01*
X145268387Y-60364368D01*
X145261861Y-60362203D01*
X145255025Y-60361503D01*
X145255022Y-60361502D01*
X145211969Y-60357091D01*
X145157400Y-60351500D01*
X144106600Y-60351500D01*
X144103354Y-60351837D01*
X144103350Y-60351837D01*
X144007692Y-60361762D01*
X144007688Y-60361763D01*
X144000834Y-60362474D01*
X143994298Y-60364655D01*
X143994296Y-60364655D01*
X143862215Y-60408721D01*
X143833054Y-60418450D01*
X143682652Y-60511522D01*
X143557695Y-60636697D01*
X143553855Y-60642927D01*
X143553854Y-60642928D01*
X143469710Y-60779435D01*
X143464885Y-60787262D01*
X143409203Y-60955139D01*
X143398500Y-61059600D01*
X143398500Y-61660400D01*
X143100500Y-61660400D01*
X143100500Y-61507866D01*
X143093745Y-61445684D01*
X143042615Y-61309295D01*
X142955261Y-61192739D01*
X142838705Y-61105385D01*
X142702316Y-61054255D01*
X142640134Y-61047500D01*
X141543866Y-61047500D01*
X141481684Y-61054255D01*
X141345295Y-61105385D01*
X141228739Y-61192739D01*
X141141385Y-61309295D01*
X141090255Y-61445684D01*
X141083500Y-61507866D01*
X141083500Y-62168761D01*
X141063498Y-62236882D01*
X141009842Y-62283375D01*
X140939568Y-62293479D01*
X140874988Y-62263985D01*
X140868405Y-62257856D01*
X140851405Y-62240856D01*
X140817379Y-62178544D01*
X140814500Y-62151761D01*
X140814500Y-61507866D01*
X140807745Y-61445684D01*
X140756615Y-61309295D01*
X140669261Y-61192739D01*
X140552705Y-61105385D01*
X140416316Y-61054255D01*
X140354134Y-61047500D01*
X139257866Y-61047500D01*
X139195684Y-61054255D01*
X139059295Y-61105385D01*
X138942739Y-61192739D01*
X138855385Y-61309295D01*
X138804255Y-61445684D01*
X138797500Y-61507866D01*
X138797500Y-62604134D01*
X138804255Y-62666316D01*
X138855385Y-62802705D01*
X138942739Y-62919261D01*
X139059295Y-63006615D01*
X139195684Y-63057745D01*
X139257866Y-63064500D01*
X139901761Y-63064500D01*
X139969882Y-63084502D01*
X139990856Y-63101405D01*
X140007856Y-63118405D01*
X140041882Y-63180717D01*
X140036817Y-63251532D01*
X139994270Y-63308368D01*
X139927750Y-63333179D01*
X139918761Y-63333500D01*
X139257866Y-63333500D01*
X139195684Y-63340255D01*
X139059295Y-63391385D01*
X138942739Y-63478739D01*
X138855385Y-63595295D01*
X138804255Y-63731684D01*
X138797500Y-63793866D01*
X138797500Y-64890134D01*
X138804255Y-64952316D01*
X138855385Y-65088705D01*
X138942739Y-65205261D01*
X139059295Y-65292615D01*
X139195684Y-65343745D01*
X139257866Y-65350500D01*
X139901761Y-65350500D01*
X139969882Y-65370502D01*
X139990856Y-65387405D01*
X140430595Y-65827144D01*
X140464621Y-65889456D01*
X140467500Y-65916239D01*
X140467500Y-71485710D01*
X140447498Y-71553831D01*
X140435136Y-71570020D01*
X140369439Y-71642984D01*
X140336960Y-71679056D01*
X140333659Y-71684774D01*
X140247957Y-71833214D01*
X140241473Y-71844444D01*
X140182458Y-72026072D01*
X140181768Y-72032633D01*
X140181768Y-72032635D01*
X140165651Y-72185978D01*
X140138638Y-72251635D01*
X140080416Y-72292264D01*
X140002662Y-72293041D01*
X139882062Y-72255247D01*
X139808635Y-72248500D01*
X139805737Y-72248500D01*
X139551335Y-72248501D01*
X139295366Y-72248501D01*
X139292508Y-72248764D01*
X139292499Y-72248764D01*
X139261253Y-72251635D01*
X139221938Y-72255247D01*
X139215560Y-72257246D01*
X139215559Y-72257246D01*
X139065550Y-72304256D01*
X139065548Y-72304257D01*
X139058301Y-72306528D01*
X138911619Y-72395361D01*
X138816095Y-72490885D01*
X138753783Y-72524911D01*
X138682968Y-72519846D01*
X138637905Y-72490885D01*
X138542381Y-72395361D01*
X138395699Y-72306528D01*
X138388452Y-72304257D01*
X138388450Y-72304256D01*
X138291063Y-72273737D01*
X138232062Y-72255247D01*
X138158635Y-72248500D01*
X138155737Y-72248500D01*
X137901335Y-72248501D01*
X137645366Y-72248501D01*
X137642508Y-72248764D01*
X137642499Y-72248764D01*
X137611253Y-72251635D01*
X137571938Y-72255247D01*
X137454178Y-72292151D01*
X137383195Y-72293436D01*
X137322784Y-72256139D01*
X137292127Y-72192102D01*
X137290500Y-72171917D01*
X137290500Y-71872498D01*
X137290307Y-71870042D01*
X137288067Y-71841579D01*
X137288066Y-71841574D01*
X137287562Y-71835169D01*
X137241145Y-71675399D01*
X137178824Y-71570020D01*
X137160491Y-71539020D01*
X137160489Y-71539017D01*
X137156453Y-71532193D01*
X137038807Y-71414547D01*
X137031983Y-71410511D01*
X137031980Y-71410509D01*
X136902427Y-71333892D01*
X136902428Y-71333892D01*
X136895601Y-71329855D01*
X136887990Y-71327644D01*
X136887988Y-71327643D01*
X136835769Y-71312472D01*
X136735831Y-71283438D01*
X136729426Y-71282934D01*
X136729421Y-71282933D01*
X136700958Y-71280693D01*
X136700950Y-71280693D01*
X136698502Y-71280500D01*
X135390498Y-71280500D01*
X135388050Y-71280693D01*
X135388042Y-71280693D01*
X135359579Y-71282933D01*
X135359574Y-71282934D01*
X135353169Y-71283438D01*
X135253231Y-71312472D01*
X135201012Y-71327643D01*
X135201010Y-71327644D01*
X135193399Y-71329855D01*
X135186572Y-71333892D01*
X135186573Y-71333892D01*
X135116297Y-71375453D01*
X135052158Y-71393000D01*
X132945122Y-71393000D01*
X132929883Y-71397475D01*
X132917285Y-71412013D01*
X132857559Y-71450396D01*
X132822061Y-71455500D01*
X132772767Y-71455500D01*
X132761584Y-71454973D01*
X132754091Y-71453298D01*
X132746165Y-71453547D01*
X132746164Y-71453547D01*
X132686001Y-71455438D01*
X132682043Y-71455500D01*
X132654144Y-71455500D01*
X132650154Y-71456004D01*
X132638320Y-71456936D01*
X132594111Y-71458326D01*
X132586497Y-71460538D01*
X132586492Y-71460539D01*
X132574659Y-71463977D01*
X132555296Y-71467988D01*
X132535203Y-71470526D01*
X132527836Y-71473443D01*
X132527831Y-71473444D01*
X132494092Y-71486802D01*
X132482865Y-71490646D01*
X132440407Y-71502982D01*
X132433581Y-71507019D01*
X132422972Y-71513293D01*
X132405224Y-71521988D01*
X132386383Y-71529448D01*
X132379967Y-71534110D01*
X132379966Y-71534110D01*
X132350613Y-71555436D01*
X132340692Y-71561952D01*
X132302638Y-71584458D01*
X132297031Y-71590064D01*
X132288315Y-71598780D01*
X132273282Y-71611620D01*
X132256893Y-71623528D01*
X132251841Y-71629635D01*
X132228712Y-71657593D01*
X132220722Y-71666374D01*
X131983742Y-71903353D01*
X131975463Y-71910887D01*
X131968982Y-71915000D01*
X131943821Y-71941794D01*
X131922356Y-71964652D01*
X131919601Y-71967494D01*
X131899865Y-71987230D01*
X131897385Y-71990427D01*
X131889682Y-71999447D01*
X131859414Y-72031679D01*
X131855595Y-72038625D01*
X131855593Y-72038628D01*
X131849652Y-72049434D01*
X131838801Y-72065953D01*
X131826386Y-72081959D01*
X131823241Y-72089228D01*
X131823238Y-72089232D01*
X131808826Y-72122537D01*
X131803609Y-72133187D01*
X131782305Y-72171940D01*
X131780334Y-72179615D01*
X131780334Y-72179616D01*
X131777267Y-72191562D01*
X131770867Y-72210256D01*
X131762861Y-72228758D01*
X131733740Y-72266482D01*
X131735619Y-72268361D01*
X131640095Y-72363885D01*
X131577783Y-72397911D01*
X131506968Y-72392846D01*
X131461905Y-72363885D01*
X131366381Y-72268361D01*
X131219699Y-72179528D01*
X131212452Y-72177257D01*
X131212450Y-72177256D01*
X131131628Y-72151928D01*
X131056062Y-72128247D01*
X130982635Y-72121500D01*
X130979737Y-72121500D01*
X130725335Y-72121501D01*
X130469366Y-72121501D01*
X130456086Y-72122721D01*
X130439863Y-72124211D01*
X130370198Y-72110524D01*
X130318992Y-72061346D01*
X130303027Y-71985569D01*
X130304814Y-71968565D01*
X130305504Y-71962000D01*
X130293149Y-71844444D01*
X130286232Y-71778635D01*
X130286232Y-71778633D01*
X130285542Y-71772072D01*
X130226527Y-71590444D01*
X130205389Y-71553831D01*
X130150105Y-71458077D01*
X130131040Y-71425056D01*
X130118662Y-71411309D01*
X130087946Y-71347303D01*
X130096710Y-71276850D01*
X130118661Y-71242693D01*
X130131040Y-71228944D01*
X130211880Y-71088926D01*
X130223223Y-71069279D01*
X130223224Y-71069278D01*
X130226527Y-71063556D01*
X130285542Y-70881928D01*
X130287048Y-70867605D01*
X132932061Y-70867605D01*
X132932101Y-70881706D01*
X132939370Y-70885000D01*
X133897385Y-70885000D01*
X133912624Y-70880525D01*
X133913829Y-70879135D01*
X133915500Y-70871452D01*
X133915500Y-70866885D01*
X134423500Y-70866885D01*
X134427975Y-70882124D01*
X134429365Y-70883329D01*
X134437048Y-70885000D01*
X135393878Y-70885000D01*
X135407409Y-70881027D01*
X135408544Y-70873129D01*
X135367893Y-70733210D01*
X135361648Y-70718779D01*
X135285089Y-70589322D01*
X135275449Y-70576896D01*
X135169104Y-70470551D01*
X135156678Y-70460911D01*
X135027221Y-70384352D01*
X135012790Y-70378107D01*
X134866935Y-70335731D01*
X134854333Y-70333430D01*
X134825916Y-70331193D01*
X134820986Y-70331000D01*
X134441615Y-70331000D01*
X134426376Y-70335475D01*
X134425171Y-70336865D01*
X134423500Y-70344548D01*
X134423500Y-70866885D01*
X133915500Y-70866885D01*
X133915500Y-70349116D01*
X133911025Y-70333877D01*
X133909635Y-70332672D01*
X133901952Y-70331001D01*
X133518017Y-70331001D01*
X133513080Y-70331195D01*
X133484664Y-70333430D01*
X133472069Y-70335730D01*
X133326210Y-70378107D01*
X133311779Y-70384352D01*
X133182322Y-70460911D01*
X133169896Y-70470551D01*
X133063551Y-70576896D01*
X133053911Y-70589322D01*
X132977352Y-70718779D01*
X132971107Y-70733210D01*
X132932061Y-70867605D01*
X130287048Y-70867605D01*
X130304814Y-70698565D01*
X130305504Y-70692000D01*
X130304222Y-70679805D01*
X130286232Y-70508635D01*
X130286232Y-70508633D01*
X130285542Y-70502072D01*
X130226527Y-70320444D01*
X130131040Y-70155056D01*
X130114881Y-70137109D01*
X130007675Y-70018045D01*
X130007674Y-70018044D01*
X130003253Y-70013134D01*
X129848752Y-69900882D01*
X129842724Y-69898198D01*
X129842722Y-69898197D01*
X129680319Y-69825891D01*
X129680318Y-69825891D01*
X129674288Y-69823206D01*
X129566934Y-69800387D01*
X129493944Y-69784872D01*
X129493939Y-69784872D01*
X129487487Y-69783500D01*
X129296513Y-69783500D01*
X129290061Y-69784872D01*
X129290056Y-69784872D01*
X129116171Y-69821833D01*
X129109712Y-69823206D01*
X129108929Y-69823555D01*
X129040091Y-69825520D01*
X129006854Y-69811437D01*
X128982082Y-69796435D01*
X128932699Y-69766528D01*
X128925452Y-69764257D01*
X128925450Y-69764256D01*
X128859164Y-69743483D01*
X128769062Y-69715247D01*
X128695635Y-69708500D01*
X128692737Y-69708500D01*
X128438335Y-69708501D01*
X128182366Y-69708501D01*
X128179508Y-69708764D01*
X128179499Y-69708764D01*
X128143996Y-69712026D01*
X128108938Y-69715247D01*
X128102560Y-69717246D01*
X128102559Y-69717246D01*
X127952550Y-69764256D01*
X127952548Y-69764257D01*
X127945301Y-69766528D01*
X127798619Y-69855361D01*
X127703095Y-69950885D01*
X127640783Y-69984911D01*
X127569968Y-69979846D01*
X127524905Y-69950885D01*
X127429381Y-69855361D01*
X127282699Y-69766528D01*
X127275452Y-69764257D01*
X127275450Y-69764256D01*
X127209164Y-69743483D01*
X127119062Y-69715247D01*
X127045635Y-69708500D01*
X127042737Y-69708500D01*
X126788335Y-69708501D01*
X126532366Y-69708501D01*
X126529508Y-69708764D01*
X126529499Y-69708764D01*
X126493996Y-69712026D01*
X126458938Y-69715247D01*
X126452560Y-69717246D01*
X126452559Y-69717246D01*
X126302550Y-69764256D01*
X126302548Y-69764257D01*
X126295301Y-69766528D01*
X126148619Y-69855361D01*
X126027361Y-69976619D01*
X126023426Y-69983117D01*
X126023421Y-69983123D01*
X126001473Y-70019365D01*
X125949076Y-70067272D01*
X125932585Y-70073351D01*
X125931203Y-70073526D01*
X125923833Y-70076444D01*
X125923829Y-70076445D01*
X125890097Y-70089800D01*
X125878869Y-70093645D01*
X125836407Y-70105982D01*
X125829585Y-70110016D01*
X125829579Y-70110019D01*
X125818968Y-70116294D01*
X125801218Y-70124990D01*
X125789756Y-70129528D01*
X125789751Y-70129531D01*
X125782383Y-70132448D01*
X125775968Y-70137109D01*
X125746625Y-70158427D01*
X125736707Y-70164943D01*
X125731080Y-70168271D01*
X125698637Y-70187458D01*
X125684313Y-70201782D01*
X125669281Y-70214621D01*
X125652893Y-70226528D01*
X125624712Y-70260593D01*
X125616722Y-70269373D01*
X125443747Y-70442348D01*
X125435461Y-70449888D01*
X125428982Y-70454000D01*
X125423557Y-70459777D01*
X125382357Y-70503651D01*
X125379602Y-70506493D01*
X125359865Y-70526230D01*
X125357385Y-70529427D01*
X125349682Y-70538447D01*
X125319414Y-70570679D01*
X125315595Y-70577625D01*
X125315593Y-70577628D01*
X125309652Y-70588434D01*
X125298801Y-70604953D01*
X125286386Y-70620959D01*
X125283241Y-70628228D01*
X125283238Y-70628232D01*
X125268826Y-70661537D01*
X125263609Y-70672187D01*
X125242305Y-70710940D01*
X125240334Y-70718615D01*
X125240334Y-70718616D01*
X125237267Y-70730562D01*
X125230863Y-70749266D01*
X125222819Y-70767855D01*
X125221580Y-70775678D01*
X125221577Y-70775688D01*
X125215901Y-70811524D01*
X125213495Y-70823144D01*
X125204472Y-70858289D01*
X125202500Y-70865970D01*
X125202500Y-70886224D01*
X125200949Y-70905934D01*
X125197780Y-70925943D01*
X125198526Y-70933835D01*
X125201941Y-70969961D01*
X125202500Y-70981819D01*
X125202500Y-71901405D01*
X125182498Y-71969526D01*
X125165595Y-71990501D01*
X124869499Y-72286596D01*
X124807187Y-72320621D01*
X124780404Y-72323500D01*
X124724513Y-72323500D01*
X124718061Y-72324872D01*
X124718056Y-72324872D01*
X124633568Y-72342831D01*
X124537712Y-72363206D01*
X124531682Y-72365891D01*
X124531681Y-72365891D01*
X124369278Y-72438197D01*
X124369276Y-72438198D01*
X124363248Y-72440882D01*
X124357907Y-72444762D01*
X124357906Y-72444763D01*
X124331290Y-72464101D01*
X124208747Y-72553134D01*
X124204326Y-72558044D01*
X124204325Y-72558045D01*
X124160747Y-72606444D01*
X124080960Y-72695056D01*
X123985473Y-72860444D01*
X123926458Y-73042072D01*
X123925768Y-73048633D01*
X123925768Y-73048635D01*
X123917720Y-73125206D01*
X123906496Y-73232000D01*
X123907186Y-73238565D01*
X123924876Y-73406872D01*
X123926458Y-73421928D01*
X123985473Y-73603556D01*
X123988776Y-73609278D01*
X123988777Y-73609279D01*
X124003091Y-73634071D01*
X124080960Y-73768944D01*
X124093338Y-73782691D01*
X124124054Y-73846697D01*
X124115290Y-73917150D01*
X124093339Y-73951307D01*
X124080960Y-73965056D01*
X123985473Y-74130444D01*
X123926458Y-74312072D01*
X123925768Y-74318633D01*
X123925768Y-74318635D01*
X123915708Y-74414356D01*
X123906496Y-74502000D01*
X122788000Y-74502000D01*
X122788000Y-70702335D01*
X122808002Y-70634214D01*
X122861658Y-70587721D01*
X122880752Y-70580801D01*
X122955716Y-70560293D01*
X122966189Y-70556399D01*
X123150691Y-70468396D01*
X123160320Y-70462701D01*
X123326313Y-70343423D01*
X123334778Y-70336116D01*
X123477034Y-70189320D01*
X123484064Y-70180638D01*
X123598075Y-70010972D01*
X123603467Y-70001163D01*
X123685625Y-69814001D01*
X123689191Y-69803406D01*
X123715550Y-69693615D01*
X123714845Y-69679530D01*
X123705966Y-69676000D01*
X120452533Y-69676000D01*
X120452533Y-69675383D01*
X120445413Y-69676239D01*
X120440265Y-69676000D01*
X118683750Y-69676000D01*
X118615629Y-69655998D01*
X118569136Y-69602342D01*
X118557750Y-69550000D01*
X118557750Y-69149885D01*
X119065750Y-69149885D01*
X119070225Y-69165124D01*
X119071615Y-69166329D01*
X119079298Y-69168000D01*
X120447567Y-69168000D01*
X120447567Y-69168617D01*
X120454687Y-69167761D01*
X120459835Y-69168000D01*
X121816235Y-69168000D01*
X121831474Y-69163525D01*
X121832679Y-69162135D01*
X121834350Y-69154452D01*
X121834350Y-69149885D01*
X122342350Y-69149885D01*
X122346825Y-69165124D01*
X122348215Y-69166329D01*
X122355898Y-69168000D01*
X123706052Y-69168000D01*
X123719583Y-69164027D01*
X123720654Y-69156579D01*
X123662972Y-68969085D01*
X123658751Y-68958740D01*
X123564993Y-68777088D01*
X123559008Y-68767657D01*
X123434565Y-68605480D01*
X123426998Y-68597251D01*
X123275811Y-68459681D01*
X123266900Y-68452918D01*
X123093746Y-68344299D01*
X123083776Y-68339218D01*
X122894118Y-68262976D01*
X122883418Y-68259745D01*
X122682279Y-68218092D01*
X122673143Y-68216889D01*
X122624860Y-68214105D01*
X122621213Y-68214000D01*
X122360465Y-68214000D01*
X122345226Y-68218475D01*
X122344021Y-68219865D01*
X122342350Y-68227548D01*
X122342350Y-69149885D01*
X121834350Y-69149885D01*
X121834350Y-68232115D01*
X121829875Y-68216876D01*
X121828485Y-68215671D01*
X121820802Y-68214000D01*
X121586439Y-68214000D01*
X121580844Y-68214249D01*
X121429162Y-68227787D01*
X121418148Y-68229768D01*
X121220984Y-68283707D01*
X121210511Y-68287601D01*
X121026009Y-68375604D01*
X121016380Y-68381299D01*
X120850387Y-68500577D01*
X120841922Y-68507884D01*
X120699666Y-68654680D01*
X120692636Y-68663362D01*
X120578625Y-68833028D01*
X120573237Y-68842829D01*
X120564097Y-68863651D01*
X120518400Y-68917986D01*
X120450582Y-68938990D01*
X120382173Y-68919995D01*
X120336758Y-68870794D01*
X120288393Y-68777088D01*
X120282408Y-68767657D01*
X120157965Y-68605480D01*
X120150398Y-68597251D01*
X119999211Y-68459681D01*
X119990300Y-68452918D01*
X119817146Y-68344299D01*
X119807176Y-68339218D01*
X119617518Y-68262976D01*
X119606818Y-68259745D01*
X119405679Y-68218092D01*
X119396543Y-68216889D01*
X119348260Y-68214105D01*
X119344613Y-68214000D01*
X119083865Y-68214000D01*
X119068626Y-68218475D01*
X119067421Y-68219865D01*
X119065750Y-68227548D01*
X119065750Y-69149885D01*
X118557750Y-69149885D01*
X118557750Y-68232115D01*
X118553275Y-68216876D01*
X118551885Y-68215671D01*
X118544202Y-68214000D01*
X118309839Y-68214000D01*
X118304244Y-68214249D01*
X118152562Y-68227787D01*
X118141548Y-68229768D01*
X117944384Y-68283707D01*
X117933911Y-68287601D01*
X117749409Y-68375604D01*
X117739780Y-68381299D01*
X117653526Y-68443279D01*
X117586535Y-68466787D01*
X117517468Y-68450345D01*
X117468255Y-68399173D01*
X117454000Y-68340957D01*
X117454000Y-66882000D01*
X124668496Y-66882000D01*
X124669186Y-66888565D01*
X124683824Y-67027834D01*
X124688458Y-67071928D01*
X124747473Y-67253556D01*
X124842960Y-67418944D01*
X124847378Y-67423851D01*
X124847379Y-67423852D01*
X124913692Y-67497500D01*
X124970747Y-67560866D01*
X124992593Y-67576738D01*
X125116869Y-67667030D01*
X125125248Y-67673118D01*
X125131276Y-67675802D01*
X125131278Y-67675803D01*
X125291824Y-67747282D01*
X125299712Y-67750794D01*
X125376736Y-67767166D01*
X125480056Y-67789128D01*
X125480061Y-67789128D01*
X125486513Y-67790500D01*
X125677487Y-67790500D01*
X125683939Y-67789128D01*
X125683944Y-67789128D01*
X125787264Y-67767166D01*
X125864288Y-67750794D01*
X125870315Y-67748111D01*
X125870323Y-67748108D01*
X125917146Y-67727261D01*
X125987513Y-67717827D01*
X126051810Y-67747934D01*
X126057412Y-67753195D01*
X126136078Y-67831724D01*
X126157697Y-67853305D01*
X126163927Y-67857145D01*
X126163928Y-67857146D01*
X126301090Y-67941694D01*
X126308262Y-67946115D01*
X126367864Y-67965884D01*
X126469611Y-67999632D01*
X126469613Y-67999632D01*
X126476139Y-68001797D01*
X126482975Y-68002497D01*
X126482978Y-68002498D01*
X126526031Y-68006909D01*
X126580600Y-68012500D01*
X127631400Y-68012500D01*
X127634646Y-68012163D01*
X127634650Y-68012163D01*
X127730308Y-68002238D01*
X127730312Y-68002237D01*
X127737166Y-68001526D01*
X127743702Y-67999345D01*
X127743704Y-67999345D01*
X127875806Y-67955272D01*
X127904946Y-67945550D01*
X128055348Y-67852478D01*
X128180305Y-67727303D01*
X128202545Y-67691223D01*
X128255317Y-67643730D01*
X128325389Y-67632306D01*
X128390513Y-67660580D01*
X128423291Y-67706771D01*
X128423923Y-67706425D01*
X128426888Y-67711840D01*
X128427784Y-67713103D01*
X128428229Y-67714290D01*
X128428233Y-67714298D01*
X128431385Y-67722705D01*
X128518739Y-67839261D01*
X128635295Y-67926615D01*
X128771684Y-67977745D01*
X128833866Y-67984500D01*
X130430134Y-67984500D01*
X130492316Y-67977745D01*
X130628705Y-67926615D01*
X130636483Y-67920786D01*
X130706435Y-67868360D01*
X130772942Y-67843512D01*
X130842324Y-67858565D01*
X130857565Y-67868360D01*
X130927517Y-67920786D01*
X130935295Y-67926615D01*
X131071684Y-67977745D01*
X131133866Y-67984500D01*
X132730134Y-67984500D01*
X132792316Y-67977745D01*
X132928705Y-67926615D01*
X133006852Y-67868047D01*
X133073358Y-67843199D01*
X133142741Y-67858252D01*
X133157982Y-67868047D01*
X133228352Y-67920786D01*
X133243946Y-67929324D01*
X133364394Y-67974478D01*
X133379649Y-67978105D01*
X133430514Y-67983631D01*
X133437328Y-67984000D01*
X133959885Y-67984000D01*
X133975124Y-67979525D01*
X133976329Y-67978135D01*
X133978000Y-67970452D01*
X133978000Y-66348000D01*
X133998002Y-66279879D01*
X134051658Y-66233386D01*
X134104000Y-66222000D01*
X134360000Y-66222000D01*
X134428121Y-66242002D01*
X134474614Y-66295658D01*
X134486000Y-66348000D01*
X134486000Y-67965884D01*
X134490475Y-67981123D01*
X134491865Y-67982328D01*
X134499548Y-67983999D01*
X135026669Y-67983999D01*
X135033490Y-67983629D01*
X135084352Y-67978105D01*
X135099604Y-67974479D01*
X135220054Y-67929324D01*
X135235649Y-67920786D01*
X135337724Y-67844285D01*
X135350285Y-67831724D01*
X135432172Y-67722462D01*
X135433869Y-67723734D01*
X135475661Y-67682039D01*
X135545053Y-67667030D01*
X135611544Y-67691919D01*
X135643060Y-67726395D01*
X135681063Y-67787807D01*
X135690099Y-67799208D01*
X135804829Y-67913739D01*
X135816240Y-67922751D01*
X135954243Y-68007816D01*
X135967424Y-68013963D01*
X136121710Y-68065138D01*
X136135086Y-68068005D01*
X136229438Y-68077672D01*
X136235854Y-68078000D01*
X136485885Y-68078000D01*
X136501124Y-68073525D01*
X136502329Y-68072135D01*
X136504000Y-68064452D01*
X136504000Y-68059884D01*
X137012000Y-68059884D01*
X137016475Y-68075123D01*
X137017865Y-68076328D01*
X137025548Y-68077999D01*
X137280095Y-68077999D01*
X137286614Y-68077662D01*
X137382206Y-68067743D01*
X137395600Y-68064851D01*
X137549784Y-68013412D01*
X137562962Y-68007239D01*
X137700807Y-67921937D01*
X137712208Y-67912901D01*
X137826739Y-67798171D01*
X137835751Y-67786760D01*
X137920816Y-67648757D01*
X137926963Y-67635576D01*
X137978138Y-67481290D01*
X137981005Y-67467914D01*
X137990672Y-67373562D01*
X137991000Y-67367146D01*
X137991000Y-67342115D01*
X137986525Y-67326876D01*
X137985135Y-67325671D01*
X137977452Y-67324000D01*
X137030115Y-67324000D01*
X137014876Y-67328475D01*
X137013671Y-67329865D01*
X137012000Y-67337548D01*
X137012000Y-68059884D01*
X136504000Y-68059884D01*
X136504000Y-66942000D01*
X136524002Y-66873879D01*
X136577658Y-66827386D01*
X136630000Y-66816000D01*
X137972884Y-66816000D01*
X137988123Y-66811525D01*
X137989328Y-66810135D01*
X137990999Y-66802452D01*
X137990999Y-66772905D01*
X137990662Y-66766386D01*
X137980743Y-66670794D01*
X137977851Y-66657400D01*
X137926412Y-66503216D01*
X137920239Y-66490038D01*
X137834937Y-66352193D01*
X137825901Y-66340792D01*
X137711172Y-66226262D01*
X137702238Y-66219206D01*
X137661177Y-66161288D01*
X137657947Y-66090365D01*
X137693574Y-66028954D01*
X137701407Y-66022154D01*
X137707348Y-66018478D01*
X137832305Y-65893303D01*
X137836146Y-65887072D01*
X137921275Y-65748968D01*
X137921276Y-65748966D01*
X137925115Y-65742738D01*
X137980797Y-65574861D01*
X137991500Y-65470400D01*
X137991500Y-64869600D01*
X137991068Y-64865432D01*
X137981238Y-64770692D01*
X137981237Y-64770688D01*
X137980526Y-64763834D01*
X137973076Y-64741502D01*
X137926868Y-64603002D01*
X137924550Y-64596054D01*
X137831478Y-64445652D01*
X137706303Y-64320695D01*
X137694159Y-64313209D01*
X137561968Y-64231725D01*
X137561966Y-64231724D01*
X137555738Y-64227885D01*
X137455971Y-64194794D01*
X137394389Y-64174368D01*
X137394387Y-64174368D01*
X137387861Y-64172203D01*
X137381025Y-64171503D01*
X137381022Y-64171502D01*
X137334747Y-64166761D01*
X137283400Y-64161500D01*
X136255595Y-64161500D01*
X136187474Y-64141498D01*
X136166500Y-64124595D01*
X135737652Y-63695747D01*
X135730112Y-63687461D01*
X135726000Y-63680982D01*
X135676348Y-63634356D01*
X135673507Y-63631602D01*
X135653770Y-63611865D01*
X135650573Y-63609385D01*
X135641551Y-63601680D01*
X135640454Y-63600650D01*
X135609321Y-63571414D01*
X135602375Y-63567595D01*
X135602372Y-63567593D01*
X135591566Y-63561652D01*
X135575047Y-63550801D01*
X135574583Y-63550441D01*
X135559041Y-63538386D01*
X135551772Y-63535241D01*
X135551768Y-63535238D01*
X135518463Y-63520826D01*
X135507813Y-63515609D01*
X135469060Y-63494305D01*
X135449437Y-63489267D01*
X135430734Y-63482863D01*
X135419420Y-63477967D01*
X135419419Y-63477967D01*
X135412145Y-63474819D01*
X135404322Y-63473580D01*
X135404312Y-63473577D01*
X135368476Y-63467901D01*
X135356856Y-63465495D01*
X135321711Y-63456472D01*
X135321710Y-63456472D01*
X135314030Y-63454500D01*
X135293776Y-63454500D01*
X135274065Y-63452949D01*
X135261886Y-63451020D01*
X135254057Y-63449780D01*
X135246165Y-63450526D01*
X135210039Y-63453941D01*
X135198181Y-63454500D01*
X132816500Y-63454500D01*
X132748379Y-63434498D01*
X132701886Y-63380842D01*
X132690500Y-63328500D01*
X132690500Y-62600669D01*
X136512001Y-62600669D01*
X136512371Y-62607490D01*
X136517895Y-62658352D01*
X136521521Y-62673604D01*
X136566676Y-62794054D01*
X136575214Y-62809649D01*
X136651715Y-62911724D01*
X136664276Y-62924285D01*
X136766351Y-63000786D01*
X136781946Y-63009324D01*
X136902394Y-63054478D01*
X136917649Y-63058105D01*
X136968514Y-63063631D01*
X136975328Y-63064000D01*
X137247885Y-63064000D01*
X137263124Y-63059525D01*
X137264329Y-63058135D01*
X137266000Y-63050452D01*
X137266000Y-63045884D01*
X137774000Y-63045884D01*
X137778475Y-63061123D01*
X137779865Y-63062328D01*
X137787548Y-63063999D01*
X138064669Y-63063999D01*
X138071490Y-63063629D01*
X138122352Y-63058105D01*
X138137604Y-63054479D01*
X138258054Y-63009324D01*
X138273649Y-63000786D01*
X138375724Y-62924285D01*
X138388285Y-62911724D01*
X138464786Y-62809649D01*
X138473324Y-62794054D01*
X138518478Y-62673606D01*
X138522105Y-62658351D01*
X138527631Y-62607486D01*
X138528000Y-62600672D01*
X138528000Y-62328115D01*
X138523525Y-62312876D01*
X138522135Y-62311671D01*
X138514452Y-62310000D01*
X137792115Y-62310000D01*
X137776876Y-62314475D01*
X137775671Y-62315865D01*
X137774000Y-62323548D01*
X137774000Y-63045884D01*
X137266000Y-63045884D01*
X137266000Y-62328115D01*
X137261525Y-62312876D01*
X137260135Y-62311671D01*
X137252452Y-62310000D01*
X136530116Y-62310000D01*
X136514877Y-62314475D01*
X136513672Y-62315865D01*
X136512001Y-62323548D01*
X136512001Y-62600669D01*
X132690500Y-62600669D01*
X132690500Y-61810500D01*
X132698315Y-61783885D01*
X136512000Y-61783885D01*
X136516475Y-61799124D01*
X136517865Y-61800329D01*
X136525548Y-61802000D01*
X137247885Y-61802000D01*
X137263124Y-61797525D01*
X137264329Y-61796135D01*
X137266000Y-61788452D01*
X137266000Y-61783885D01*
X137774000Y-61783885D01*
X137778475Y-61799124D01*
X137779865Y-61800329D01*
X137787548Y-61802000D01*
X138509884Y-61802000D01*
X138525123Y-61797525D01*
X138526328Y-61796135D01*
X138527999Y-61788452D01*
X138527999Y-61511331D01*
X138527629Y-61504510D01*
X138522105Y-61453648D01*
X138518479Y-61438396D01*
X138473324Y-61317946D01*
X138464786Y-61302351D01*
X138388285Y-61200276D01*
X138375724Y-61187715D01*
X138273649Y-61111214D01*
X138258054Y-61102676D01*
X138137606Y-61057522D01*
X138122351Y-61053895D01*
X138071486Y-61048369D01*
X138064672Y-61048000D01*
X137792115Y-61048000D01*
X137776876Y-61052475D01*
X137775671Y-61053865D01*
X137774000Y-61061548D01*
X137774000Y-61783885D01*
X137266000Y-61783885D01*
X137266000Y-61066116D01*
X137261525Y-61050877D01*
X137260135Y-61049672D01*
X137252452Y-61048001D01*
X136975331Y-61048001D01*
X136968510Y-61048371D01*
X136917648Y-61053895D01*
X136902396Y-61057521D01*
X136781946Y-61102676D01*
X136766351Y-61111214D01*
X136664276Y-61187715D01*
X136651715Y-61200276D01*
X136575214Y-61302351D01*
X136566676Y-61317946D01*
X136521522Y-61438394D01*
X136517895Y-61453649D01*
X136512369Y-61504514D01*
X136512000Y-61511328D01*
X136512000Y-61783885D01*
X132698315Y-61783885D01*
X132710502Y-61742379D01*
X132764158Y-61695886D01*
X132816500Y-61684500D01*
X133880134Y-61684500D01*
X133942316Y-61677745D01*
X134078705Y-61626615D01*
X134195261Y-61539261D01*
X134282615Y-61422705D01*
X134333745Y-61286316D01*
X134340500Y-61224134D01*
X134340500Y-59127866D01*
X134333745Y-59065684D01*
X134282615Y-58929295D01*
X134195261Y-58812739D01*
X134078705Y-58725385D01*
X133942316Y-58674255D01*
X133880134Y-58667500D01*
X129983866Y-58667500D01*
X129921684Y-58674255D01*
X129785295Y-58725385D01*
X129668739Y-58812739D01*
X129581385Y-58929295D01*
X129530255Y-59065684D01*
X129523500Y-59127866D01*
X129523500Y-61224134D01*
X129530255Y-61286316D01*
X129581385Y-61422705D01*
X129668739Y-61539261D01*
X129785295Y-61626615D01*
X129921684Y-61677745D01*
X129983866Y-61684500D01*
X131047500Y-61684500D01*
X131115621Y-61704502D01*
X131162114Y-61758158D01*
X131173500Y-61810500D01*
X131173500Y-64851507D01*
X131153498Y-64919628D01*
X131099842Y-64966121D01*
X131078237Y-64973543D01*
X131071684Y-64974255D01*
X131064289Y-64977027D01*
X131064286Y-64977028D01*
X130949978Y-65019880D01*
X130935295Y-65025385D01*
X130928110Y-65030770D01*
X130928108Y-65030771D01*
X130857565Y-65083640D01*
X130791058Y-65108488D01*
X130721676Y-65093435D01*
X130706435Y-65083640D01*
X130635892Y-65030771D01*
X130635890Y-65030770D01*
X130628705Y-65025385D01*
X130492316Y-64974255D01*
X130430134Y-64967500D01*
X128833866Y-64967500D01*
X128771684Y-64974255D01*
X128635295Y-65025385D01*
X128594442Y-65056003D01*
X128540564Y-65096382D01*
X128474058Y-65121230D01*
X128404675Y-65106177D01*
X128354445Y-65056003D01*
X128338999Y-64995556D01*
X128338999Y-64806905D01*
X128338662Y-64800386D01*
X128328743Y-64704794D01*
X128325851Y-64691400D01*
X128274412Y-64537216D01*
X128268239Y-64524038D01*
X128182937Y-64386193D01*
X128173901Y-64374792D01*
X128059171Y-64260261D01*
X128047760Y-64251249D01*
X127909757Y-64166184D01*
X127896576Y-64160037D01*
X127742290Y-64108862D01*
X127728914Y-64105995D01*
X127634562Y-64096328D01*
X127628145Y-64096000D01*
X127378115Y-64096000D01*
X127362876Y-64100475D01*
X127361671Y-64101865D01*
X127360000Y-64109548D01*
X127360000Y-65232000D01*
X127339998Y-65300121D01*
X127286342Y-65346614D01*
X127234000Y-65358000D01*
X125891116Y-65358000D01*
X125875877Y-65362475D01*
X125874672Y-65363865D01*
X125873001Y-65371548D01*
X125873001Y-65401095D01*
X125873338Y-65407614D01*
X125883257Y-65503206D01*
X125886149Y-65516600D01*
X125937588Y-65670784D01*
X125943761Y-65683962D01*
X126029064Y-65821808D01*
X126034706Y-65828927D01*
X126061344Y-65894737D01*
X126048173Y-65964501D01*
X125999376Y-66016070D01*
X125930445Y-66033071D01*
X125884714Y-66022299D01*
X125870327Y-66015894D01*
X125870321Y-66015892D01*
X125864288Y-66013206D01*
X125751721Y-65989279D01*
X125683944Y-65974872D01*
X125683939Y-65974872D01*
X125677487Y-65973500D01*
X125486513Y-65973500D01*
X125480061Y-65974872D01*
X125480056Y-65974872D01*
X125412279Y-65989279D01*
X125299712Y-66013206D01*
X125293682Y-66015891D01*
X125293681Y-66015891D01*
X125131278Y-66088197D01*
X125131276Y-66088198D01*
X125125248Y-66090882D01*
X124970747Y-66203134D01*
X124966326Y-66208044D01*
X124966325Y-66208045D01*
X124888257Y-66294749D01*
X124842960Y-66345056D01*
X124747473Y-66510444D01*
X124688458Y-66692072D01*
X124687768Y-66698633D01*
X124687768Y-66698635D01*
X124674698Y-66822994D01*
X124668496Y-66882000D01*
X117454000Y-66882000D01*
X117454000Y-64831885D01*
X125873000Y-64831885D01*
X125877475Y-64847124D01*
X125878865Y-64848329D01*
X125886548Y-64850000D01*
X126833885Y-64850000D01*
X126849124Y-64845525D01*
X126850329Y-64844135D01*
X126852000Y-64836452D01*
X126852000Y-64114116D01*
X126847525Y-64098877D01*
X126846135Y-64097672D01*
X126838452Y-64096001D01*
X126583905Y-64096001D01*
X126577386Y-64096338D01*
X126481794Y-64106257D01*
X126468400Y-64109149D01*
X126314216Y-64160588D01*
X126301038Y-64166761D01*
X126163193Y-64252063D01*
X126151792Y-64261099D01*
X126037261Y-64375829D01*
X126028249Y-64387240D01*
X125943184Y-64525243D01*
X125937037Y-64538424D01*
X125885862Y-64692710D01*
X125882995Y-64706086D01*
X125873328Y-64800438D01*
X125873000Y-64806855D01*
X125873000Y-64831885D01*
X117454000Y-64831885D01*
X117454000Y-58184000D01*
X117474002Y-58115879D01*
X117527658Y-58069386D01*
X117580000Y-58058000D01*
X170414000Y-58058000D01*
X170482121Y-58078002D01*
G37*
%TD.AperFunction*%
%TA.AperFunction,Conductor*%
G36*
X152064128Y-72768942D02*
G01*
X152109191Y-72797903D01*
X152272762Y-72961474D01*
X152306788Y-73023786D01*
X152309667Y-73050569D01*
X152309667Y-74358031D01*
X152308589Y-74374474D01*
X152304417Y-74406167D01*
X152309667Y-74446047D01*
X152309667Y-74446052D01*
X152319446Y-74520329D01*
X152325329Y-74565018D01*
X152386643Y-74713043D01*
X152391670Y-74719594D01*
X152391671Y-74719596D01*
X152459687Y-74808236D01*
X152459693Y-74808242D01*
X152484180Y-74840154D01*
X152490735Y-74845184D01*
X152509546Y-74859619D01*
X152521937Y-74870486D01*
X152892875Y-75241424D01*
X152926901Y-75303736D01*
X152921836Y-75374551D01*
X152879289Y-75431387D01*
X152821642Y-75455246D01*
X152775427Y-75461864D01*
X152775424Y-75461865D01*
X152766541Y-75463137D01*
X152758373Y-75466851D01*
X152758372Y-75466851D01*
X152737069Y-75476537D01*
X152633945Y-75523425D01*
X152585199Y-75562617D01*
X151102913Y-77044903D01*
X151063721Y-77093649D01*
X151060452Y-77100839D01*
X151018900Y-77192228D01*
X151003433Y-77226245D01*
X151002161Y-77235128D01*
X151002160Y-77235131D01*
X150985643Y-77350469D01*
X150982784Y-77370431D01*
X150984057Y-77379320D01*
X151000224Y-77492206D01*
X151003433Y-77514617D01*
X151063721Y-77647213D01*
X151102913Y-77695959D01*
X152868041Y-79461087D01*
X152892484Y-79480739D01*
X152905331Y-79491068D01*
X152916787Y-79500279D01*
X152923978Y-79503548D01*
X152923977Y-79503548D01*
X152955252Y-79517768D01*
X152992196Y-79543374D01*
X153278047Y-79829225D01*
X153312073Y-79891537D01*
X153314952Y-79918320D01*
X153314952Y-80010952D01*
X153294950Y-80079073D01*
X153241294Y-80125566D01*
X153188952Y-80136952D01*
X153096321Y-80136952D01*
X153028200Y-80116950D01*
X153007226Y-80100047D01*
X152643074Y-79735895D01*
X152635534Y-79727609D01*
X152631422Y-79721130D01*
X152581770Y-79674504D01*
X152578929Y-79671750D01*
X152559192Y-79652013D01*
X152555995Y-79649533D01*
X152546973Y-79641828D01*
X152520522Y-79616989D01*
X152514743Y-79611562D01*
X152507797Y-79607743D01*
X152507794Y-79607741D01*
X152496988Y-79601800D01*
X152480469Y-79590949D01*
X152470865Y-79583500D01*
X152464463Y-79578534D01*
X152457194Y-79575389D01*
X152457190Y-79575386D01*
X152423885Y-79560974D01*
X152413235Y-79555757D01*
X152374482Y-79534453D01*
X152354859Y-79529415D01*
X152336156Y-79523011D01*
X152324842Y-79518115D01*
X152324841Y-79518115D01*
X152317567Y-79514967D01*
X152309744Y-79513728D01*
X152309734Y-79513725D01*
X152273898Y-79508049D01*
X152262278Y-79505643D01*
X152227133Y-79496620D01*
X152227132Y-79496620D01*
X152219452Y-79494648D01*
X152199198Y-79494648D01*
X152179487Y-79493097D01*
X152167308Y-79491168D01*
X152159479Y-79489928D01*
X152151587Y-79490674D01*
X152115461Y-79494089D01*
X152103603Y-79494648D01*
X151987884Y-79494648D01*
X151919763Y-79474646D01*
X151898789Y-79457743D01*
X150619959Y-78178913D01*
X150571213Y-78139721D01*
X150526949Y-78119595D01*
X150446786Y-78083147D01*
X150446785Y-78083147D01*
X150438617Y-78079433D01*
X150429734Y-78078161D01*
X150429731Y-78078160D01*
X150303320Y-78060057D01*
X150294431Y-78058784D01*
X150285542Y-78060057D01*
X150159131Y-78078160D01*
X150159128Y-78078161D01*
X150150245Y-78079433D01*
X150142077Y-78083147D01*
X150142076Y-78083147D01*
X150061913Y-78119595D01*
X150017649Y-78139721D01*
X149968903Y-78178913D01*
X148692440Y-79455376D01*
X148630128Y-79489402D01*
X148559313Y-79484337D01*
X148502477Y-79441790D01*
X148494226Y-79429281D01*
X148422342Y-79304774D01*
X148422339Y-79304769D01*
X148419040Y-79299056D01*
X148399745Y-79277626D01*
X148295675Y-79162045D01*
X148295674Y-79162044D01*
X148291253Y-79157134D01*
X148136752Y-79044882D01*
X148130724Y-79042198D01*
X148130722Y-79042197D01*
X147968319Y-78969891D01*
X147968318Y-78969891D01*
X147962288Y-78967206D01*
X147855865Y-78944585D01*
X147781944Y-78928872D01*
X147781939Y-78928872D01*
X147775487Y-78927500D01*
X147584513Y-78927500D01*
X147578061Y-78928872D01*
X147578056Y-78928872D01*
X147504135Y-78944585D01*
X147397712Y-78967206D01*
X147391682Y-78969891D01*
X147391681Y-78969891D01*
X147229278Y-79042197D01*
X147229276Y-79042198D01*
X147223248Y-79044882D01*
X147068747Y-79157134D01*
X147064326Y-79162044D01*
X147064325Y-79162045D01*
X146960256Y-79277626D01*
X146940960Y-79299056D01*
X146924261Y-79327980D01*
X146872878Y-79376973D01*
X146803164Y-79390408D01*
X146763894Y-79380086D01*
X146698323Y-79350892D01*
X146698315Y-79350889D01*
X146692288Y-79348206D01*
X146587564Y-79325946D01*
X146511944Y-79309872D01*
X146511939Y-79309872D01*
X146505487Y-79308500D01*
X146414239Y-79308500D01*
X146346118Y-79288498D01*
X146325144Y-79271595D01*
X146049315Y-78995766D01*
X146038448Y-78983375D01*
X146024013Y-78964563D01*
X146018987Y-78958013D01*
X145987075Y-78933526D01*
X145987072Y-78933523D01*
X145909369Y-78873899D01*
X145898429Y-78865504D01*
X145898427Y-78865503D01*
X145891876Y-78860476D01*
X145743851Y-78799162D01*
X145735664Y-78798084D01*
X145735663Y-78798084D01*
X145723448Y-78796476D01*
X145624893Y-78783501D01*
X145624891Y-78783501D01*
X145624885Y-78783500D01*
X145624883Y-78783500D01*
X145624874Y-78783499D01*
X145593189Y-78779328D01*
X145585000Y-78778250D01*
X145553307Y-78782422D01*
X145536864Y-78783500D01*
X144663710Y-78783500D01*
X144595589Y-78763498D01*
X144570074Y-78741811D01*
X144548668Y-78718037D01*
X144548666Y-78718036D01*
X144544253Y-78713134D01*
X144417559Y-78621085D01*
X144395094Y-78604763D01*
X144395093Y-78604762D01*
X144389752Y-78600882D01*
X144383724Y-78598198D01*
X144383722Y-78598197D01*
X144221319Y-78525891D01*
X144221318Y-78525891D01*
X144215288Y-78523206D01*
X144121888Y-78503353D01*
X144034944Y-78484872D01*
X144034939Y-78484872D01*
X144028487Y-78483500D01*
X143837513Y-78483500D01*
X143831061Y-78484872D01*
X143831056Y-78484872D01*
X143744112Y-78503353D01*
X143650712Y-78523206D01*
X143644682Y-78525891D01*
X143644681Y-78525891D01*
X143482278Y-78598197D01*
X143482276Y-78598198D01*
X143476248Y-78600882D01*
X143470907Y-78604762D01*
X143470906Y-78604763D01*
X143448441Y-78621085D01*
X143321747Y-78713134D01*
X143317326Y-78718044D01*
X143317325Y-78718045D01*
X143215273Y-78831386D01*
X143193960Y-78855056D01*
X143098473Y-79020444D01*
X143091405Y-79042197D01*
X143052634Y-79161522D01*
X143039458Y-79202072D01*
X143038768Y-79208637D01*
X143037293Y-79222670D01*
X143010280Y-79288327D01*
X142952058Y-79328957D01*
X142911983Y-79335500D01*
X142051866Y-79335500D01*
X142024492Y-79338474D01*
X141954610Y-79325946D01*
X141902594Y-79277626D01*
X141884959Y-79208855D01*
X141907305Y-79141466D01*
X141921789Y-79124116D01*
X143587500Y-77458405D01*
X143649812Y-77424379D01*
X143676595Y-77421500D01*
X146966233Y-77421500D01*
X146977416Y-77422027D01*
X146984909Y-77423702D01*
X146992835Y-77423453D01*
X146992836Y-77423453D01*
X147052986Y-77421562D01*
X147056945Y-77421500D01*
X147084856Y-77421500D01*
X147088791Y-77421003D01*
X147088856Y-77420995D01*
X147100693Y-77420062D01*
X147132951Y-77419048D01*
X147136970Y-77418922D01*
X147144889Y-77418673D01*
X147164343Y-77413021D01*
X147183700Y-77409013D01*
X147195930Y-77407468D01*
X147195931Y-77407468D01*
X147203797Y-77406474D01*
X147211168Y-77403555D01*
X147211170Y-77403555D01*
X147244912Y-77390196D01*
X147256142Y-77386351D01*
X147290983Y-77376229D01*
X147290984Y-77376229D01*
X147298593Y-77374018D01*
X147305412Y-77369985D01*
X147305417Y-77369983D01*
X147316028Y-77363707D01*
X147333776Y-77355012D01*
X147352617Y-77347552D01*
X147388387Y-77321564D01*
X147398307Y-77315048D01*
X147429535Y-77296580D01*
X147429538Y-77296578D01*
X147436362Y-77292542D01*
X147450683Y-77278221D01*
X147465717Y-77265380D01*
X147475694Y-77258131D01*
X147482107Y-77253472D01*
X147510298Y-77219395D01*
X147518288Y-77210616D01*
X149768119Y-74960785D01*
X151931003Y-72797902D01*
X151993313Y-72763877D01*
X152064128Y-72768942D01*
G37*
%TD.AperFunction*%
%TA.AperFunction,Conductor*%
G36*
X132935545Y-78363717D02*
G01*
X132947237Y-78377213D01*
X132948937Y-78379482D01*
X132973775Y-78445992D01*
X132974100Y-78455032D01*
X132974100Y-78932515D01*
X132954098Y-79000636D01*
X132937196Y-79021610D01*
X132568286Y-79390521D01*
X132555893Y-79401389D01*
X132531843Y-79419843D01*
X132526817Y-79426393D01*
X132526813Y-79426397D01*
X132448559Y-79528381D01*
X132448558Y-79528383D01*
X132438314Y-79541733D01*
X132435155Y-79549361D01*
X132435152Y-79549365D01*
X132418366Y-79589889D01*
X132373818Y-79645170D01*
X132306454Y-79667590D01*
X132237663Y-79650031D01*
X132192840Y-79604671D01*
X132163040Y-79553056D01*
X132158621Y-79548148D01*
X132064864Y-79444020D01*
X132034146Y-79380013D01*
X132032500Y-79359710D01*
X132032500Y-78711300D01*
X132052502Y-78643179D01*
X132106158Y-78596686D01*
X132158500Y-78585300D01*
X132383334Y-78585300D01*
X132387937Y-78584800D01*
X132437666Y-78579398D01*
X132437668Y-78579398D01*
X132445516Y-78578545D01*
X132452910Y-78575773D01*
X132460598Y-78573945D01*
X132461290Y-78576853D01*
X132518115Y-78572705D01*
X132521082Y-78573575D01*
X132521111Y-78573452D01*
X132544043Y-78578905D01*
X132594914Y-78584431D01*
X132601728Y-78584800D01*
X132628285Y-78584800D01*
X132643524Y-78580325D01*
X132644729Y-78578935D01*
X132646400Y-78571252D01*
X132646400Y-78542106D01*
X132666402Y-78473985D01*
X132686031Y-78452894D01*
X132684930Y-78451793D01*
X132691281Y-78445442D01*
X132698461Y-78440061D01*
X132703842Y-78432881D01*
X132703845Y-78432878D01*
X132733033Y-78393931D01*
X132745575Y-78377198D01*
X132802433Y-78334683D01*
X132873251Y-78329657D01*
X132935545Y-78363717D01*
G37*
%TD.AperFunction*%
%TA.AperFunction,Conductor*%
G36*
X139560121Y-75284002D02*
G01*
X139606614Y-75337658D01*
X139618000Y-75390000D01*
X139618000Y-76732884D01*
X139622475Y-76748123D01*
X139623865Y-76749328D01*
X139631548Y-76750999D01*
X139661095Y-76750999D01*
X139667614Y-76750662D01*
X139763206Y-76740743D01*
X139776600Y-76737851D01*
X139930784Y-76686412D01*
X139943962Y-76680239D01*
X140081807Y-76594937D01*
X140093208Y-76585901D01*
X140207738Y-76471172D01*
X140214794Y-76462238D01*
X140272712Y-76421177D01*
X140343635Y-76417947D01*
X140405046Y-76453574D01*
X140411846Y-76461407D01*
X140415522Y-76467348D01*
X140540697Y-76592305D01*
X140546927Y-76596145D01*
X140546928Y-76596146D01*
X140684288Y-76680816D01*
X140691262Y-76685115D01*
X140771005Y-76711564D01*
X140852611Y-76738632D01*
X140852613Y-76738632D01*
X140859139Y-76740797D01*
X140865975Y-76741497D01*
X140865978Y-76741498D01*
X140908017Y-76745805D01*
X140963600Y-76751500D01*
X141309406Y-76751500D01*
X141377527Y-76771502D01*
X141424020Y-76825158D01*
X141434124Y-76895432D01*
X141404630Y-76960012D01*
X141398502Y-76966594D01*
X140107615Y-78257480D01*
X138818500Y-79546595D01*
X138756188Y-79580621D01*
X138729405Y-79583500D01*
X137834595Y-79583500D01*
X137766474Y-79563498D01*
X137745499Y-79546595D01*
X137072804Y-78873899D01*
X137038779Y-78811587D01*
X137035900Y-78784804D01*
X137035900Y-78711300D01*
X137055902Y-78643179D01*
X137109558Y-78596686D01*
X137161900Y-78585300D01*
X137361734Y-78585300D01*
X137366337Y-78584800D01*
X137416066Y-78579398D01*
X137416068Y-78579398D01*
X137423916Y-78578545D01*
X137431310Y-78575773D01*
X137438998Y-78573945D01*
X137439739Y-78577061D01*
X137495829Y-78572978D01*
X137499384Y-78574022D01*
X137499402Y-78573945D01*
X137507090Y-78575773D01*
X137514484Y-78578545D01*
X137522332Y-78579398D01*
X137522334Y-78579398D01*
X137572063Y-78584800D01*
X137576666Y-78585300D01*
X138072934Y-78585300D01*
X138135116Y-78578545D01*
X138271505Y-78527415D01*
X138388061Y-78440061D01*
X138475415Y-78323505D01*
X138526545Y-78187116D01*
X138533300Y-78124934D01*
X138533300Y-76751199D01*
X138553302Y-76683078D01*
X138606958Y-76636585D01*
X138677232Y-76626481D01*
X138725416Y-76643939D01*
X138785243Y-76680816D01*
X138798424Y-76686963D01*
X138952710Y-76738138D01*
X138966086Y-76741005D01*
X139060438Y-76750672D01*
X139066854Y-76751000D01*
X139091885Y-76751000D01*
X139107124Y-76746525D01*
X139108329Y-76745135D01*
X139110000Y-76737452D01*
X139110000Y-75390000D01*
X139130002Y-75321879D01*
X139183658Y-75275386D01*
X139236000Y-75264000D01*
X139492000Y-75264000D01*
X139560121Y-75284002D01*
G37*
%TD.AperFunction*%
%TA.AperFunction,Conductor*%
G36*
X143502005Y-67993502D02*
G01*
X143548498Y-68047158D01*
X143558602Y-68117432D01*
X143548990Y-68150750D01*
X143546775Y-68155725D01*
X143543473Y-68161444D01*
X143484458Y-68343072D01*
X143483768Y-68349633D01*
X143483768Y-68349635D01*
X143478534Y-68399435D01*
X143464496Y-68533000D01*
X143484458Y-68722928D01*
X143543473Y-68904556D01*
X143546776Y-68910278D01*
X143546777Y-68910279D01*
X143565636Y-68942944D01*
X143638960Y-69069944D01*
X143651338Y-69083691D01*
X143682054Y-69147697D01*
X143673290Y-69218150D01*
X143651339Y-69252307D01*
X143638960Y-69266056D01*
X143543473Y-69431444D01*
X143484458Y-69613072D01*
X143483768Y-69619633D01*
X143483768Y-69619635D01*
X143466401Y-69784872D01*
X143464496Y-69803000D01*
X143465186Y-69809565D01*
X143482455Y-69973866D01*
X143484458Y-69992928D01*
X143543473Y-70174556D01*
X143546776Y-70180278D01*
X143546777Y-70180279D01*
X143566606Y-70214624D01*
X143638960Y-70339944D01*
X143643378Y-70344851D01*
X143643379Y-70344852D01*
X143756559Y-70470551D01*
X143766747Y-70481866D01*
X143820795Y-70521134D01*
X143913425Y-70588434D01*
X143921248Y-70594118D01*
X143927276Y-70596802D01*
X143927278Y-70596803D01*
X144088929Y-70668774D01*
X144095712Y-70671794D01*
X144189112Y-70691647D01*
X144276056Y-70710128D01*
X144276061Y-70710128D01*
X144282513Y-70711500D01*
X144473487Y-70711500D01*
X144479939Y-70710128D01*
X144479944Y-70710128D01*
X144566888Y-70691647D01*
X144660288Y-70671794D01*
X144667071Y-70668774D01*
X144828722Y-70596803D01*
X144828724Y-70596802D01*
X144834752Y-70594118D01*
X144842576Y-70588434D01*
X144970083Y-70495794D01*
X144989253Y-70481866D01*
X144993668Y-70476963D01*
X144998580Y-70472540D01*
X144999705Y-70473789D01*
X145053014Y-70440949D01*
X145086200Y-70436500D01*
X150417952Y-70436500D01*
X150486073Y-70456502D01*
X150532566Y-70510158D01*
X150542670Y-70580432D01*
X150511589Y-70646809D01*
X150496960Y-70663056D01*
X150451943Y-70741027D01*
X150407856Y-70817389D01*
X150401473Y-70828444D01*
X150342458Y-71010072D01*
X150329777Y-71130730D01*
X150325093Y-71175293D01*
X150298080Y-71240950D01*
X150288878Y-71251218D01*
X145930500Y-75609595D01*
X145868188Y-75643621D01*
X145841405Y-75646500D01*
X143059767Y-75646500D01*
X143048584Y-75645973D01*
X143041091Y-75644298D01*
X143033165Y-75644547D01*
X143033164Y-75644547D01*
X142973001Y-75646438D01*
X142969043Y-75646500D01*
X142941144Y-75646500D01*
X142937154Y-75647004D01*
X142925320Y-75647936D01*
X142881111Y-75649326D01*
X142873497Y-75651538D01*
X142873492Y-75651539D01*
X142861659Y-75654977D01*
X142842296Y-75658988D01*
X142822203Y-75661526D01*
X142814836Y-75664443D01*
X142814831Y-75664444D01*
X142781092Y-75677802D01*
X142769865Y-75681646D01*
X142727407Y-75693982D01*
X142720581Y-75698019D01*
X142709972Y-75704293D01*
X142692224Y-75712988D01*
X142673383Y-75720448D01*
X142666967Y-75725110D01*
X142666966Y-75725110D01*
X142637613Y-75746436D01*
X142627693Y-75752952D01*
X142596465Y-75771420D01*
X142596462Y-75771422D01*
X142589638Y-75775458D01*
X142575317Y-75789779D01*
X142560284Y-75802619D01*
X142543893Y-75814528D01*
X142538842Y-75820634D01*
X142515702Y-75848605D01*
X142507712Y-75857384D01*
X142487595Y-75877501D01*
X142425283Y-75911527D01*
X142354468Y-75906462D01*
X142297632Y-75863915D01*
X142272821Y-75797395D01*
X142272500Y-75788406D01*
X142272500Y-74992600D01*
X142269199Y-74960785D01*
X142262238Y-74893692D01*
X142262237Y-74893688D01*
X142261526Y-74886834D01*
X142259006Y-74879279D01*
X142207868Y-74726002D01*
X142205550Y-74719054D01*
X142118386Y-74578199D01*
X142099548Y-74509747D01*
X142116411Y-74448896D01*
X142161223Y-74371279D01*
X142161224Y-74371278D01*
X142164527Y-74365556D01*
X142223542Y-74183928D01*
X142229220Y-74129910D01*
X142242814Y-74000565D01*
X142243504Y-73994000D01*
X142243316Y-73992214D01*
X142262816Y-73925804D01*
X142279719Y-73904830D01*
X142488234Y-73696315D01*
X142500625Y-73685448D01*
X142519437Y-73671013D01*
X142525987Y-73665987D01*
X142550474Y-73634075D01*
X142550478Y-73634071D01*
X142623524Y-73538876D01*
X142684838Y-73390851D01*
X142687413Y-73371292D01*
X142700500Y-73271885D01*
X142700500Y-73271880D01*
X142705750Y-73232000D01*
X142701578Y-73200307D01*
X142700500Y-73183862D01*
X142700500Y-68103457D01*
X142720502Y-68035336D01*
X142774158Y-67988843D01*
X142823978Y-67978006D01*
X142828000Y-67978535D01*
X142858058Y-67974578D01*
X142874503Y-67973500D01*
X143433884Y-67973500D01*
X143502005Y-67993502D01*
G37*
%TD.AperFunction*%
%TD*%
%TA.AperFunction,Conductor*%
%TO.N,GNDA*%
G36*
X186633147Y-58078002D02*
G01*
X186679640Y-58131658D01*
X186691026Y-58184193D01*
X186666225Y-74355306D01*
X186646379Y-87295418D01*
X186642971Y-89517224D01*
X186622864Y-89585314D01*
X186569137Y-89631725D01*
X186517177Y-89643031D01*
X170360287Y-89669374D01*
X166348205Y-89675915D01*
X166280052Y-89656024D01*
X166233472Y-89602444D01*
X166222000Y-89549915D01*
X166222000Y-87456000D01*
X166216680Y-87456000D01*
X166207913Y-87426141D01*
X166207913Y-87355144D01*
X166246296Y-87295418D01*
X166284581Y-87272660D01*
X166287766Y-87271466D01*
X166292298Y-87269767D01*
X166292300Y-87269766D01*
X166300705Y-87266615D01*
X166417261Y-87179261D01*
X166504615Y-87062705D01*
X166555745Y-86926316D01*
X166562500Y-86864134D01*
X166562500Y-83791657D01*
X166582502Y-83723536D01*
X166636158Y-83677043D01*
X166706432Y-83666939D01*
X166771012Y-83696433D01*
X166782134Y-83707345D01*
X166880747Y-83816866D01*
X167035248Y-83929118D01*
X167041276Y-83931802D01*
X167041278Y-83931803D01*
X167172780Y-83990351D01*
X167209712Y-84006794D01*
X167295378Y-84025003D01*
X167390056Y-84045128D01*
X167390061Y-84045128D01*
X167396513Y-84046500D01*
X167587487Y-84046500D01*
X167593939Y-84045128D01*
X167593944Y-84045128D01*
X167688622Y-84025003D01*
X167774288Y-84006794D01*
X167811220Y-83990351D01*
X167942722Y-83931803D01*
X167942724Y-83931802D01*
X167948752Y-83929118D01*
X168103253Y-83816866D01*
X168137567Y-83778756D01*
X168226621Y-83679852D01*
X168226622Y-83679851D01*
X168231040Y-83674944D01*
X168326527Y-83509556D01*
X168385542Y-83327928D01*
X168386781Y-83316145D01*
X168404814Y-83144565D01*
X168405504Y-83138000D01*
X168394145Y-83029921D01*
X168386232Y-82954635D01*
X168386232Y-82954633D01*
X168385542Y-82948072D01*
X168326527Y-82766444D01*
X168319328Y-82753974D01*
X168258858Y-82649238D01*
X168231040Y-82601056D01*
X168220821Y-82589706D01*
X168107675Y-82464045D01*
X168107674Y-82464044D01*
X168103253Y-82459134D01*
X167948752Y-82346882D01*
X167942724Y-82344198D01*
X167942722Y-82344197D01*
X167780319Y-82271891D01*
X167780318Y-82271891D01*
X167774288Y-82269206D01*
X167661721Y-82245279D01*
X167593944Y-82230872D01*
X167593939Y-82230872D01*
X167587487Y-82229500D01*
X167396513Y-82229500D01*
X167390061Y-82230872D01*
X167390056Y-82230872D01*
X167322279Y-82245279D01*
X167209712Y-82269206D01*
X167203682Y-82271891D01*
X167203681Y-82271891D01*
X167041278Y-82344197D01*
X167041276Y-82344198D01*
X167035248Y-82346882D01*
X166880747Y-82459134D01*
X166876326Y-82464044D01*
X166876325Y-82464045D01*
X166763180Y-82589706D01*
X166752960Y-82601056D01*
X166725142Y-82649238D01*
X166685482Y-82717931D01*
X166634099Y-82766924D01*
X166564386Y-82780360D01*
X166498475Y-82753974D01*
X166475537Y-82730496D01*
X166422643Y-82659920D01*
X166422642Y-82659919D01*
X166417261Y-82652739D01*
X166300705Y-82565385D01*
X166164316Y-82514255D01*
X166102134Y-82507500D01*
X164062000Y-82507500D01*
X163993879Y-82487498D01*
X163947386Y-82433842D01*
X163936000Y-82381500D01*
X163936000Y-79615000D01*
X166037496Y-79615000D01*
X166057458Y-79804928D01*
X166116473Y-79986556D01*
X166211960Y-80151944D01*
X166216378Y-80156851D01*
X166216379Y-80156852D01*
X166299833Y-80249537D01*
X166339747Y-80293866D01*
X166494248Y-80406118D01*
X166500276Y-80408802D01*
X166500278Y-80408803D01*
X166605005Y-80455430D01*
X166668712Y-80483794D01*
X166762113Y-80503647D01*
X166849056Y-80522128D01*
X166849061Y-80522128D01*
X166855513Y-80523500D01*
X167046487Y-80523500D01*
X167052939Y-80522128D01*
X167052944Y-80522128D01*
X167139887Y-80503647D01*
X167233288Y-80483794D01*
X167296995Y-80455430D01*
X167401722Y-80408803D01*
X167401724Y-80408802D01*
X167407752Y-80406118D01*
X167562253Y-80293866D01*
X167602167Y-80249537D01*
X167685621Y-80156852D01*
X167685622Y-80156851D01*
X167690040Y-80151944D01*
X167785527Y-79986556D01*
X167844542Y-79804928D01*
X167864504Y-79615000D01*
X167844542Y-79425072D01*
X167785527Y-79243444D01*
X167690040Y-79078056D01*
X167562253Y-78936134D01*
X167407752Y-78823882D01*
X167401724Y-78821198D01*
X167401722Y-78821197D01*
X167239319Y-78748891D01*
X167239318Y-78748891D01*
X167233288Y-78746206D01*
X167139888Y-78726353D01*
X167052944Y-78707872D01*
X167052939Y-78707872D01*
X167046487Y-78706500D01*
X166855513Y-78706500D01*
X166849061Y-78707872D01*
X166849056Y-78707872D01*
X166762112Y-78726353D01*
X166668712Y-78746206D01*
X166662682Y-78748891D01*
X166662681Y-78748891D01*
X166500278Y-78821197D01*
X166500276Y-78821198D01*
X166494248Y-78823882D01*
X166339747Y-78936134D01*
X166211960Y-79078056D01*
X166116473Y-79243444D01*
X166057458Y-79425072D01*
X166037496Y-79615000D01*
X163936000Y-79615000D01*
X163936000Y-79198324D01*
X163956002Y-79130203D01*
X164009658Y-79083710D01*
X164079932Y-79073606D01*
X164113249Y-79083217D01*
X164161712Y-79104794D01*
X164250629Y-79123694D01*
X164342056Y-79143128D01*
X164342061Y-79143128D01*
X164348513Y-79144500D01*
X164539487Y-79144500D01*
X164545939Y-79143128D01*
X164545944Y-79143128D01*
X164637371Y-79123694D01*
X164726288Y-79104794D01*
X164759577Y-79089973D01*
X164894722Y-79029803D01*
X164894724Y-79029802D01*
X164900752Y-79027118D01*
X165055253Y-78914866D01*
X165070051Y-78898431D01*
X165178621Y-78777852D01*
X165178622Y-78777851D01*
X165183040Y-78772944D01*
X165259313Y-78640836D01*
X165275223Y-78613279D01*
X165275224Y-78613278D01*
X165278527Y-78607556D01*
X165337542Y-78425928D01*
X165340002Y-78402528D01*
X165356814Y-78242565D01*
X165357504Y-78236000D01*
X165340701Y-78076128D01*
X165338232Y-78052635D01*
X165338232Y-78052633D01*
X165337542Y-78046072D01*
X165278527Y-77864444D01*
X165264293Y-77839789D01*
X165210685Y-77746938D01*
X165183040Y-77699056D01*
X165073240Y-77577110D01*
X165059675Y-77562045D01*
X165059674Y-77562044D01*
X165055253Y-77557134D01*
X164956157Y-77485136D01*
X164906094Y-77448763D01*
X164906093Y-77448762D01*
X164900752Y-77444882D01*
X164894724Y-77442198D01*
X164894722Y-77442197D01*
X164732319Y-77369891D01*
X164732318Y-77369891D01*
X164726288Y-77367206D01*
X164632887Y-77347353D01*
X164545944Y-77328872D01*
X164545939Y-77328872D01*
X164539487Y-77327500D01*
X164348513Y-77327500D01*
X164342061Y-77328872D01*
X164342056Y-77328872D01*
X164255113Y-77347353D01*
X164161712Y-77367206D01*
X164155682Y-77369891D01*
X164155681Y-77369891D01*
X164113249Y-77388783D01*
X164042882Y-77398217D01*
X163978585Y-77368110D01*
X163940771Y-77308022D01*
X163936000Y-77273676D01*
X163936000Y-72703943D01*
X169139780Y-72703943D01*
X169140526Y-72711835D01*
X169143941Y-72747961D01*
X169144500Y-72759819D01*
X169144500Y-81281233D01*
X169143973Y-81292416D01*
X169142298Y-81299909D01*
X169142547Y-81307835D01*
X169142547Y-81307836D01*
X169144438Y-81367986D01*
X169144500Y-81371945D01*
X169144500Y-81399856D01*
X169144997Y-81403790D01*
X169144997Y-81403791D01*
X169145005Y-81403856D01*
X169145938Y-81415693D01*
X169147327Y-81459889D01*
X169152978Y-81479339D01*
X169156987Y-81498700D01*
X169159526Y-81518797D01*
X169162445Y-81526168D01*
X169162445Y-81526170D01*
X169175804Y-81559912D01*
X169179649Y-81571142D01*
X169189771Y-81605983D01*
X169191982Y-81613593D01*
X169196015Y-81620412D01*
X169196017Y-81620417D01*
X169202293Y-81631028D01*
X169210988Y-81648776D01*
X169218448Y-81667617D01*
X169223110Y-81674033D01*
X169223110Y-81674034D01*
X169244436Y-81703387D01*
X169250952Y-81713307D01*
X169273458Y-81751362D01*
X169287779Y-81765683D01*
X169300619Y-81780716D01*
X169312528Y-81797107D01*
X169318634Y-81802158D01*
X169346605Y-81825298D01*
X169355384Y-81833288D01*
X169782343Y-82260247D01*
X169789887Y-82268537D01*
X169794000Y-82275018D01*
X169799777Y-82280443D01*
X169843667Y-82321658D01*
X169846509Y-82324413D01*
X169866230Y-82344134D01*
X169869425Y-82346612D01*
X169878447Y-82354318D01*
X169910679Y-82384586D01*
X169917628Y-82388406D01*
X169928432Y-82394346D01*
X169944956Y-82405199D01*
X169960959Y-82417613D01*
X170001543Y-82435176D01*
X170012173Y-82440383D01*
X170050940Y-82461695D01*
X170058617Y-82463666D01*
X170058622Y-82463668D01*
X170070558Y-82466732D01*
X170089266Y-82473137D01*
X170107855Y-82481181D01*
X170115682Y-82482421D01*
X170115683Y-82482421D01*
X170131354Y-82484903D01*
X170148189Y-82487569D01*
X170212341Y-82517981D01*
X170249868Y-82578249D01*
X170248855Y-82649238D01*
X170209623Y-82708410D01*
X170202540Y-82713953D01*
X170188093Y-82724449D01*
X170188088Y-82724454D01*
X170182747Y-82728334D01*
X170178326Y-82733244D01*
X170178325Y-82733245D01*
X170135903Y-82780360D01*
X170054960Y-82870256D01*
X169959473Y-83035644D01*
X169900458Y-83217272D01*
X169899768Y-83223833D01*
X169899768Y-83223835D01*
X169889302Y-83323419D01*
X169880496Y-83407200D01*
X169881186Y-83413765D01*
X169887024Y-83469306D01*
X169900458Y-83597128D01*
X169959473Y-83778756D01*
X170054960Y-83944144D01*
X170059378Y-83949051D01*
X170059379Y-83949052D01*
X170129972Y-84027453D01*
X170182747Y-84086066D01*
X170337248Y-84198318D01*
X170343276Y-84201002D01*
X170343278Y-84201003D01*
X170505681Y-84273309D01*
X170511712Y-84275994D01*
X170605112Y-84295847D01*
X170692056Y-84314328D01*
X170692061Y-84314328D01*
X170698513Y-84315700D01*
X170889487Y-84315700D01*
X170895939Y-84314328D01*
X170895944Y-84314328D01*
X170982888Y-84295847D01*
X171076288Y-84275994D01*
X171082319Y-84273309D01*
X171244722Y-84201003D01*
X171244724Y-84201002D01*
X171250752Y-84198318D01*
X171405253Y-84086066D01*
X171422250Y-84067189D01*
X171482696Y-84029950D01*
X171515886Y-84025500D01*
X177065233Y-84025500D01*
X177076416Y-84026027D01*
X177083909Y-84027702D01*
X177091835Y-84027453D01*
X177091836Y-84027453D01*
X177151986Y-84025562D01*
X177155945Y-84025500D01*
X177183856Y-84025500D01*
X177187791Y-84025003D01*
X177187856Y-84024995D01*
X177199693Y-84024062D01*
X177231951Y-84023048D01*
X177235970Y-84022922D01*
X177243889Y-84022673D01*
X177263343Y-84017021D01*
X177282700Y-84013013D01*
X177294930Y-84011468D01*
X177294931Y-84011468D01*
X177302797Y-84010474D01*
X177310168Y-84007555D01*
X177310170Y-84007555D01*
X177343912Y-83994196D01*
X177355142Y-83990351D01*
X177389983Y-83980229D01*
X177389984Y-83980229D01*
X177397593Y-83978018D01*
X177404412Y-83973985D01*
X177404417Y-83973983D01*
X177415028Y-83967707D01*
X177432776Y-83959012D01*
X177451617Y-83951552D01*
X177461814Y-83944144D01*
X177487387Y-83925564D01*
X177497307Y-83919048D01*
X177528535Y-83900580D01*
X177528538Y-83900578D01*
X177535362Y-83896542D01*
X177549683Y-83882221D01*
X177564717Y-83869380D01*
X177574694Y-83862131D01*
X177581107Y-83857472D01*
X177609298Y-83823395D01*
X177617288Y-83814616D01*
X177790247Y-83641657D01*
X177798537Y-83634113D01*
X177805018Y-83630000D01*
X177851659Y-83580332D01*
X177854413Y-83577491D01*
X177874134Y-83557770D01*
X177876612Y-83554575D01*
X177884318Y-83545553D01*
X177909158Y-83519101D01*
X177914586Y-83513321D01*
X177924346Y-83495568D01*
X177935199Y-83479045D01*
X177942753Y-83469306D01*
X177947613Y-83463041D01*
X177965176Y-83422457D01*
X177970383Y-83411827D01*
X177991695Y-83373060D01*
X177993666Y-83365383D01*
X177993668Y-83365378D01*
X177996732Y-83353442D01*
X178003138Y-83334730D01*
X178008033Y-83323419D01*
X178011181Y-83316145D01*
X178012421Y-83308317D01*
X178012423Y-83308310D01*
X178018099Y-83272476D01*
X178020505Y-83260856D01*
X178029528Y-83225711D01*
X178029528Y-83225710D01*
X178031500Y-83218030D01*
X178031500Y-83197776D01*
X178033051Y-83178065D01*
X178034980Y-83165886D01*
X178036220Y-83158057D01*
X178032059Y-83114038D01*
X178031500Y-83102181D01*
X178031500Y-81935524D01*
X178051502Y-81867403D01*
X178063858Y-81851221D01*
X178137040Y-81769944D01*
X178223370Y-81620417D01*
X178229223Y-81610279D01*
X178229224Y-81610278D01*
X178232527Y-81604556D01*
X178291542Y-81422928D01*
X178298217Y-81359422D01*
X178325228Y-81293766D01*
X178383449Y-81253135D01*
X178397325Y-81249346D01*
X178569288Y-81212794D01*
X178603426Y-81197595D01*
X178737722Y-81137803D01*
X178737724Y-81137802D01*
X178743752Y-81135118D01*
X178898253Y-81022866D01*
X179026040Y-80880944D01*
X179121527Y-80715556D01*
X179180542Y-80533928D01*
X179186094Y-80481109D01*
X179199814Y-80350565D01*
X179200504Y-80344000D01*
X179199190Y-80331501D01*
X179181232Y-80160635D01*
X179181232Y-80160633D01*
X179180542Y-80154072D01*
X179121527Y-79972444D01*
X179102647Y-79939744D01*
X179085910Y-79870750D01*
X179091533Y-79839065D01*
X179101704Y-79806612D01*
X179124753Y-79733062D01*
X179131500Y-79659635D01*
X179131499Y-78996366D01*
X179131213Y-78993246D01*
X179126926Y-78946593D01*
X179124753Y-78922938D01*
X179079286Y-78777852D01*
X179075744Y-78766550D01*
X179075743Y-78766548D01*
X179073472Y-78759301D01*
X179069537Y-78752804D01*
X179066411Y-78745880D01*
X179069295Y-78744578D01*
X179054805Y-78689851D01*
X179076624Y-78622290D01*
X179091587Y-78604206D01*
X179192134Y-78503484D01*
X179192138Y-78503479D01*
X179197305Y-78498303D01*
X179290115Y-78347738D01*
X179345797Y-78179861D01*
X179356500Y-78075400D01*
X179356500Y-77024600D01*
X179351125Y-76972794D01*
X179346238Y-76925692D01*
X179346237Y-76925688D01*
X179345526Y-76918834D01*
X179289550Y-76751054D01*
X179196478Y-76600652D01*
X179199212Y-76598960D01*
X179177951Y-76546462D01*
X179191107Y-76476695D01*
X179197638Y-76466508D01*
X179197305Y-76466303D01*
X179286275Y-76321968D01*
X179286276Y-76321966D01*
X179290115Y-76315738D01*
X179345797Y-76147861D01*
X179356500Y-76043400D01*
X179356500Y-74992600D01*
X179345526Y-74886834D01*
X179289550Y-74719054D01*
X179196478Y-74568652D01*
X179071303Y-74443695D01*
X179065072Y-74439854D01*
X178926968Y-74354725D01*
X178926966Y-74354724D01*
X178920738Y-74350885D01*
X178760254Y-74297655D01*
X178759389Y-74297368D01*
X178759387Y-74297368D01*
X178752861Y-74295203D01*
X178746025Y-74294503D01*
X178746022Y-74294502D01*
X178702969Y-74290091D01*
X178648400Y-74284500D01*
X178047600Y-74284500D01*
X178044354Y-74284837D01*
X178044350Y-74284837D01*
X177948692Y-74294762D01*
X177948688Y-74294763D01*
X177941834Y-74295474D01*
X177935298Y-74297655D01*
X177935296Y-74297655D01*
X177803194Y-74341728D01*
X177774054Y-74351450D01*
X177623652Y-74444522D01*
X177498695Y-74569697D01*
X177496094Y-74573916D01*
X177438970Y-74614417D01*
X177368047Y-74617649D01*
X177306635Y-74582024D01*
X177300078Y-74574470D01*
X177296478Y-74568652D01*
X177171303Y-74443695D01*
X177165072Y-74439854D01*
X177026968Y-74354725D01*
X177026966Y-74354724D01*
X177020738Y-74350885D01*
X176860254Y-74297655D01*
X176859389Y-74297368D01*
X176859387Y-74297368D01*
X176852861Y-74295203D01*
X176846025Y-74294503D01*
X176846022Y-74294502D01*
X176802969Y-74290091D01*
X176748400Y-74284500D01*
X176147600Y-74284500D01*
X176144354Y-74284837D01*
X176144350Y-74284837D01*
X176048692Y-74294762D01*
X176048688Y-74294763D01*
X176041834Y-74295474D01*
X176035298Y-74297655D01*
X176035296Y-74297655D01*
X175903194Y-74341728D01*
X175874054Y-74351450D01*
X175723652Y-74444522D01*
X175598695Y-74569697D01*
X175505885Y-74720262D01*
X175450203Y-74888139D01*
X175439500Y-74992600D01*
X175439500Y-76043400D01*
X175450474Y-76149166D01*
X175506450Y-76316946D01*
X175598875Y-76466303D01*
X175599522Y-76467348D01*
X175596927Y-76468954D01*
X175618380Y-76522036D01*
X175605172Y-76591794D01*
X175598751Y-76601800D01*
X175599090Y-76602009D01*
X175510184Y-76746243D01*
X175504037Y-76759424D01*
X175452862Y-76913710D01*
X175449995Y-76927086D01*
X175440328Y-77021438D01*
X175440000Y-77027855D01*
X175440000Y-77058905D01*
X175419998Y-77127026D01*
X175366342Y-77173519D01*
X175296068Y-77183623D01*
X175231488Y-77154129D01*
X175224905Y-77148000D01*
X174853652Y-76776747D01*
X174846112Y-76768461D01*
X174842000Y-76761982D01*
X174792348Y-76715356D01*
X174789507Y-76712602D01*
X174769770Y-76692865D01*
X174766573Y-76690385D01*
X174757551Y-76682680D01*
X174731100Y-76657841D01*
X174725321Y-76652414D01*
X174718375Y-76648595D01*
X174718372Y-76648593D01*
X174707566Y-76642652D01*
X174691047Y-76631801D01*
X174685048Y-76627148D01*
X174675041Y-76619386D01*
X174667772Y-76616241D01*
X174667768Y-76616238D01*
X174634463Y-76601826D01*
X174623813Y-76596609D01*
X174585060Y-76575305D01*
X174565437Y-76570267D01*
X174546734Y-76563863D01*
X174535420Y-76558967D01*
X174535419Y-76558967D01*
X174528145Y-76555819D01*
X174520322Y-76554580D01*
X174520312Y-76554577D01*
X174484476Y-76548901D01*
X174472856Y-76546495D01*
X174437711Y-76537472D01*
X174437710Y-76537472D01*
X174430030Y-76535500D01*
X174409776Y-76535500D01*
X174390065Y-76533949D01*
X174377886Y-76532020D01*
X174370057Y-76530780D01*
X174362165Y-76531526D01*
X174326039Y-76534941D01*
X174314181Y-76535500D01*
X173534200Y-76535500D01*
X173466079Y-76515498D01*
X173446853Y-76499157D01*
X173446580Y-76499460D01*
X173441668Y-76495037D01*
X173437253Y-76490134D01*
X173282752Y-76377882D01*
X173276724Y-76375198D01*
X173276722Y-76375197D01*
X173114319Y-76302891D01*
X173114318Y-76302891D01*
X173108288Y-76300206D01*
X173014888Y-76280353D01*
X172927944Y-76261872D01*
X172927939Y-76261872D01*
X172921487Y-76260500D01*
X172730513Y-76260500D01*
X172724061Y-76261872D01*
X172724056Y-76261872D01*
X172637112Y-76280353D01*
X172543712Y-76300206D01*
X172537682Y-76302891D01*
X172537681Y-76302891D01*
X172375278Y-76375197D01*
X172375276Y-76375198D01*
X172369248Y-76377882D01*
X172214747Y-76490134D01*
X172210326Y-76495044D01*
X172210325Y-76495045D01*
X172101203Y-76616238D01*
X172086960Y-76632056D01*
X171991473Y-76797444D01*
X171932458Y-76979072D01*
X171931768Y-76985633D01*
X171931768Y-76985635D01*
X171924067Y-77058905D01*
X171912496Y-77169000D01*
X171913186Y-77175565D01*
X171927108Y-77308022D01*
X171932458Y-77358928D01*
X171991473Y-77540556D01*
X171994776Y-77546278D01*
X171994777Y-77546279D01*
X172028686Y-77605010D01*
X172086960Y-77705944D01*
X172214747Y-77847866D01*
X172369248Y-77960118D01*
X172375276Y-77962802D01*
X172375278Y-77962803D01*
X172537681Y-78035109D01*
X172543712Y-78037794D01*
X172637113Y-78057647D01*
X172724056Y-78076128D01*
X172724061Y-78076128D01*
X172730513Y-78077500D01*
X172921487Y-78077500D01*
X172927939Y-78076128D01*
X172927944Y-78076128D01*
X173014887Y-78057647D01*
X173108288Y-78037794D01*
X173114319Y-78035109D01*
X173276722Y-77962803D01*
X173276724Y-77962802D01*
X173282752Y-77960118D01*
X173362058Y-77902499D01*
X173422312Y-77858721D01*
X173437253Y-77847866D01*
X173441668Y-77842963D01*
X173446580Y-77838540D01*
X173447705Y-77839789D01*
X173501014Y-77806949D01*
X173534200Y-77802500D01*
X174035406Y-77802500D01*
X174103527Y-77822502D01*
X174124501Y-77839405D01*
X174187595Y-77902499D01*
X174221621Y-77964811D01*
X174224500Y-77991594D01*
X174224500Y-78614233D01*
X174223973Y-78625416D01*
X174222298Y-78632909D01*
X174222547Y-78640835D01*
X174222547Y-78640836D01*
X174224438Y-78700986D01*
X174224500Y-78704945D01*
X174224500Y-78732856D01*
X174224997Y-78736790D01*
X174224997Y-78736791D01*
X174225005Y-78736856D01*
X174225938Y-78748693D01*
X174227327Y-78792889D01*
X174232978Y-78812339D01*
X174236987Y-78831700D01*
X174239526Y-78851797D01*
X174242445Y-78859168D01*
X174242445Y-78859170D01*
X174255804Y-78892912D01*
X174259649Y-78904142D01*
X174263893Y-78918749D01*
X174271982Y-78946593D01*
X174276015Y-78953412D01*
X174276017Y-78953417D01*
X174282293Y-78964028D01*
X174290988Y-78981776D01*
X174298448Y-79000617D01*
X174303110Y-79007033D01*
X174303110Y-79007034D01*
X174324436Y-79036387D01*
X174330952Y-79046307D01*
X174347097Y-79073606D01*
X174353458Y-79084362D01*
X174367779Y-79098683D01*
X174380619Y-79113716D01*
X174392528Y-79130107D01*
X174398634Y-79135158D01*
X174426605Y-79158298D01*
X174435384Y-79166288D01*
X174989343Y-79720247D01*
X174996887Y-79728537D01*
X175001000Y-79735018D01*
X175006777Y-79740443D01*
X175050667Y-79781658D01*
X175053509Y-79784413D01*
X175073231Y-79804135D01*
X175076355Y-79806558D01*
X175076359Y-79806562D01*
X175076424Y-79806612D01*
X175085445Y-79814317D01*
X175117679Y-79844586D01*
X175124627Y-79848405D01*
X175124629Y-79848407D01*
X175135432Y-79854346D01*
X175151959Y-79865202D01*
X175161698Y-79872757D01*
X175161700Y-79872758D01*
X175167960Y-79877614D01*
X175208540Y-79895174D01*
X175219188Y-79900391D01*
X175257940Y-79921695D01*
X175265616Y-79923666D01*
X175265619Y-79923667D01*
X175277562Y-79926733D01*
X175296267Y-79933137D01*
X175314855Y-79941181D01*
X175322678Y-79942420D01*
X175322688Y-79942423D01*
X175358524Y-79948099D01*
X175370144Y-79950505D01*
X175405289Y-79959528D01*
X175412970Y-79961500D01*
X175433224Y-79961500D01*
X175452934Y-79963051D01*
X175472943Y-79966220D01*
X175480835Y-79965474D01*
X175516961Y-79962059D01*
X175528819Y-79961500D01*
X175690775Y-79961500D01*
X175758896Y-79981502D01*
X175798551Y-80022229D01*
X175811361Y-80043381D01*
X175932619Y-80164639D01*
X176079301Y-80253472D01*
X176086548Y-80255743D01*
X176086550Y-80255744D01*
X176152836Y-80276517D01*
X176242938Y-80304753D01*
X176316365Y-80311500D01*
X176331297Y-80311500D01*
X176732918Y-80311499D01*
X176801037Y-80331501D01*
X176847531Y-80385156D01*
X176857635Y-80455430D01*
X176828142Y-80520011D01*
X176806979Y-80539434D01*
X176792093Y-80550249D01*
X176792088Y-80550254D01*
X176786747Y-80554134D01*
X176658960Y-80696056D01*
X176563473Y-80861444D01*
X176504458Y-81043072D01*
X176503768Y-81049633D01*
X176503768Y-81049635D01*
X176486441Y-81214498D01*
X176484496Y-81233000D01*
X176485186Y-81239565D01*
X176502447Y-81403791D01*
X176504458Y-81422928D01*
X176563473Y-81604556D01*
X176566776Y-81610278D01*
X176566777Y-81610279D01*
X176572630Y-81620417D01*
X176658960Y-81769944D01*
X176732137Y-81851215D01*
X176762853Y-81915221D01*
X176764500Y-81935524D01*
X176764500Y-82632500D01*
X176744498Y-82700621D01*
X176690842Y-82747114D01*
X176638500Y-82758500D01*
X174291419Y-82758500D01*
X174223298Y-82738498D01*
X174176805Y-82684842D01*
X174166701Y-82614568D01*
X174196195Y-82549988D01*
X174199255Y-82546868D01*
X174199253Y-82546866D01*
X174322621Y-82409852D01*
X174322622Y-82409851D01*
X174327040Y-82404944D01*
X174405409Y-82269206D01*
X174419223Y-82245279D01*
X174419224Y-82245278D01*
X174422527Y-82239556D01*
X174481542Y-82057928D01*
X174501504Y-81868000D01*
X174489245Y-81751362D01*
X174482232Y-81684635D01*
X174482232Y-81684633D01*
X174481542Y-81678072D01*
X174422527Y-81496444D01*
X174412652Y-81479339D01*
X174349500Y-81369958D01*
X174327040Y-81331056D01*
X174199253Y-81189134D01*
X174044752Y-81076882D01*
X174038724Y-81074198D01*
X174038722Y-81074197D01*
X173876319Y-81001891D01*
X173876318Y-81001891D01*
X173870288Y-80999206D01*
X173776888Y-80979353D01*
X173689944Y-80960872D01*
X173689939Y-80960872D01*
X173683487Y-80959500D01*
X173492513Y-80959500D01*
X173486061Y-80960872D01*
X173486056Y-80960872D01*
X173399113Y-80979353D01*
X173305712Y-80999206D01*
X173299682Y-81001891D01*
X173299681Y-81001891D01*
X173137278Y-81074197D01*
X173137276Y-81074198D01*
X173131248Y-81076882D01*
X172976747Y-81189134D01*
X172972332Y-81194037D01*
X172967420Y-81198460D01*
X172966295Y-81197211D01*
X172912986Y-81230051D01*
X172879800Y-81234500D01*
X170600595Y-81234500D01*
X170532474Y-81214498D01*
X170511500Y-81197595D01*
X170448405Y-81134500D01*
X170414379Y-81072188D01*
X170411500Y-81045405D01*
X170411500Y-73038594D01*
X170431502Y-72970473D01*
X170448405Y-72949499D01*
X171379499Y-72018405D01*
X171441811Y-71984379D01*
X171468594Y-71981500D01*
X171524487Y-71981500D01*
X171530939Y-71980128D01*
X171530944Y-71980128D01*
X171617887Y-71961647D01*
X171711288Y-71941794D01*
X171717319Y-71939109D01*
X171879722Y-71866803D01*
X171879724Y-71866802D01*
X171885752Y-71864118D01*
X172040253Y-71751866D01*
X172168040Y-71609944D01*
X172263527Y-71444556D01*
X172322542Y-71262928D01*
X172342504Y-71073000D01*
X172322542Y-70883072D01*
X172263527Y-70701444D01*
X172168040Y-70536056D01*
X172040253Y-70394134D01*
X171885752Y-70281882D01*
X171879724Y-70279198D01*
X171879722Y-70279197D01*
X171717319Y-70206891D01*
X171717318Y-70206891D01*
X171711288Y-70204206D01*
X171617888Y-70184353D01*
X171530944Y-70165872D01*
X171530939Y-70165872D01*
X171524487Y-70164500D01*
X171333513Y-70164500D01*
X171327061Y-70165872D01*
X171327056Y-70165872D01*
X171240112Y-70184353D01*
X171146712Y-70204206D01*
X171140682Y-70206891D01*
X171140681Y-70206891D01*
X170978278Y-70279197D01*
X170978276Y-70279198D01*
X170972248Y-70281882D01*
X170817747Y-70394134D01*
X170689960Y-70536056D01*
X170594473Y-70701444D01*
X170535458Y-70883072D01*
X170534768Y-70889633D01*
X170534768Y-70889635D01*
X170518093Y-71048293D01*
X170491080Y-71113950D01*
X170481878Y-71124218D01*
X169385747Y-72220348D01*
X169377461Y-72227888D01*
X169370982Y-72232000D01*
X169365557Y-72237777D01*
X169324357Y-72281651D01*
X169321602Y-72284493D01*
X169301865Y-72304230D01*
X169299385Y-72307427D01*
X169291682Y-72316447D01*
X169261414Y-72348679D01*
X169257595Y-72355625D01*
X169257593Y-72355628D01*
X169251652Y-72366434D01*
X169240801Y-72382953D01*
X169228386Y-72398959D01*
X169225241Y-72406228D01*
X169225238Y-72406232D01*
X169210826Y-72439537D01*
X169205609Y-72450187D01*
X169184305Y-72488940D01*
X169182334Y-72496615D01*
X169182334Y-72496616D01*
X169179267Y-72508562D01*
X169172863Y-72527266D01*
X169164819Y-72545855D01*
X169163580Y-72553678D01*
X169163577Y-72553688D01*
X169157901Y-72589524D01*
X169155495Y-72601144D01*
X169144500Y-72643970D01*
X169144500Y-72664224D01*
X169142949Y-72683934D01*
X169139780Y-72703943D01*
X163936000Y-72703943D01*
X163936000Y-69294040D01*
X163956002Y-69225919D01*
X164009658Y-69179426D01*
X164079932Y-69169322D01*
X164144512Y-69198816D01*
X164160141Y-69217168D01*
X164161125Y-69216388D01*
X164165668Y-69222120D01*
X164169522Y-69228348D01*
X164294697Y-69353305D01*
X164300927Y-69357145D01*
X164300928Y-69357146D01*
X164438288Y-69441816D01*
X164445262Y-69446115D01*
X164525005Y-69472564D01*
X164606611Y-69499632D01*
X164606613Y-69499632D01*
X164613139Y-69501797D01*
X164619975Y-69502497D01*
X164619978Y-69502498D01*
X164663031Y-69506909D01*
X164717600Y-69512500D01*
X165318400Y-69512500D01*
X165321646Y-69512163D01*
X165321650Y-69512163D01*
X165417308Y-69502238D01*
X165417312Y-69502237D01*
X165424166Y-69501526D01*
X165430702Y-69499345D01*
X165430704Y-69499345D01*
X165562806Y-69455272D01*
X165591946Y-69445550D01*
X165742348Y-69352478D01*
X165867305Y-69227303D01*
X165870102Y-69222765D01*
X165927353Y-69182176D01*
X165998276Y-69178946D01*
X166059687Y-69214572D01*
X166067062Y-69223068D01*
X166075098Y-69233207D01*
X166189829Y-69347739D01*
X166201240Y-69356751D01*
X166339243Y-69441816D01*
X166352424Y-69447963D01*
X166506710Y-69499138D01*
X166520086Y-69502005D01*
X166614438Y-69511672D01*
X166620854Y-69512000D01*
X166645885Y-69512000D01*
X166661124Y-69507525D01*
X166662329Y-69506135D01*
X166664000Y-69498452D01*
X166664000Y-69493884D01*
X167172000Y-69493884D01*
X167176475Y-69509123D01*
X167177865Y-69510328D01*
X167185548Y-69511999D01*
X167215095Y-69511999D01*
X167221614Y-69511662D01*
X167317206Y-69501743D01*
X167330600Y-69498851D01*
X167484784Y-69447412D01*
X167497962Y-69441239D01*
X167635807Y-69355937D01*
X167647208Y-69346901D01*
X167761739Y-69232171D01*
X167770751Y-69220760D01*
X167855816Y-69082757D01*
X167861963Y-69069576D01*
X167913138Y-68915290D01*
X167916005Y-68901914D01*
X167925672Y-68807562D01*
X167926000Y-68801146D01*
X167926000Y-68660000D01*
X176655950Y-68660000D01*
X176675713Y-68885890D01*
X176677137Y-68891203D01*
X176677137Y-68891205D01*
X176680007Y-68901914D01*
X176734401Y-69104917D01*
X176736723Y-69109898D01*
X176736724Y-69109899D01*
X176827905Y-69305438D01*
X176827908Y-69305443D01*
X176830231Y-69310425D01*
X176833387Y-69314932D01*
X176833388Y-69314934D01*
X176926470Y-69447868D01*
X176960291Y-69496170D01*
X177120630Y-69656509D01*
X177125138Y-69659666D01*
X177125141Y-69659668D01*
X177301866Y-69783412D01*
X177306375Y-69786569D01*
X177311357Y-69788892D01*
X177311362Y-69788895D01*
X177506901Y-69880076D01*
X177511883Y-69882399D01*
X177517191Y-69883821D01*
X177517193Y-69883822D01*
X177725595Y-69939663D01*
X177725597Y-69939663D01*
X177730910Y-69941087D01*
X177829691Y-69949729D01*
X177897498Y-69955662D01*
X177897505Y-69955662D01*
X177900222Y-69955900D01*
X178013378Y-69955900D01*
X178016095Y-69955662D01*
X178016102Y-69955662D01*
X178083909Y-69949729D01*
X178182690Y-69941087D01*
X178188003Y-69939663D01*
X178188005Y-69939663D01*
X178396407Y-69883822D01*
X178396409Y-69883821D01*
X178401717Y-69882399D01*
X178406699Y-69880076D01*
X178602238Y-69788895D01*
X178602243Y-69788892D01*
X178607225Y-69786569D01*
X178611734Y-69783412D01*
X178788459Y-69659668D01*
X178788462Y-69659666D01*
X178792970Y-69656509D01*
X178953309Y-69496170D01*
X178987131Y-69447868D01*
X179080212Y-69314934D01*
X179080213Y-69314932D01*
X179083369Y-69310425D01*
X179085692Y-69305443D01*
X179085695Y-69305438D01*
X179176876Y-69109899D01*
X179176877Y-69109898D01*
X179179199Y-69104917D01*
X179233594Y-68901914D01*
X179236463Y-68891205D01*
X179236463Y-68891203D01*
X179237887Y-68885890D01*
X179257650Y-68660000D01*
X182650350Y-68660000D01*
X182670113Y-68885890D01*
X182671537Y-68891203D01*
X182671537Y-68891205D01*
X182674407Y-68901914D01*
X182728801Y-69104917D01*
X182731123Y-69109898D01*
X182731124Y-69109899D01*
X182822305Y-69305438D01*
X182822308Y-69305443D01*
X182824631Y-69310425D01*
X182827787Y-69314932D01*
X182827788Y-69314934D01*
X182920870Y-69447868D01*
X182954691Y-69496170D01*
X183115030Y-69656509D01*
X183119538Y-69659666D01*
X183119541Y-69659668D01*
X183296266Y-69783412D01*
X183300775Y-69786569D01*
X183305757Y-69788892D01*
X183305762Y-69788895D01*
X183501301Y-69880076D01*
X183506283Y-69882399D01*
X183511591Y-69883821D01*
X183511593Y-69883822D01*
X183719995Y-69939663D01*
X183719997Y-69939663D01*
X183725310Y-69941087D01*
X183824091Y-69949729D01*
X183891898Y-69955662D01*
X183891905Y-69955662D01*
X183894622Y-69955900D01*
X184007778Y-69955900D01*
X184010495Y-69955662D01*
X184010502Y-69955662D01*
X184078309Y-69949729D01*
X184177090Y-69941087D01*
X184182403Y-69939663D01*
X184182405Y-69939663D01*
X184390807Y-69883822D01*
X184390809Y-69883821D01*
X184396117Y-69882399D01*
X184401099Y-69880076D01*
X184596638Y-69788895D01*
X184596643Y-69788892D01*
X184601625Y-69786569D01*
X184606134Y-69783412D01*
X184782859Y-69659668D01*
X184782862Y-69659666D01*
X184787370Y-69656509D01*
X184947709Y-69496170D01*
X184981531Y-69447868D01*
X185074612Y-69314934D01*
X185074613Y-69314932D01*
X185077769Y-69310425D01*
X185080092Y-69305443D01*
X185080095Y-69305438D01*
X185171276Y-69109899D01*
X185171277Y-69109898D01*
X185173599Y-69104917D01*
X185227994Y-68901914D01*
X185230863Y-68891205D01*
X185230863Y-68891203D01*
X185232287Y-68885890D01*
X185252050Y-68660000D01*
X185232287Y-68434110D01*
X185182084Y-68246749D01*
X185175022Y-68220393D01*
X185175021Y-68220391D01*
X185173599Y-68215083D01*
X185083621Y-68022124D01*
X185080095Y-68014562D01*
X185080092Y-68014557D01*
X185077769Y-68009575D01*
X185029948Y-67941279D01*
X184950868Y-67828341D01*
X184950866Y-67828338D01*
X184947709Y-67823830D01*
X184787370Y-67663491D01*
X184782862Y-67660334D01*
X184782859Y-67660332D01*
X184606134Y-67536588D01*
X184606132Y-67536587D01*
X184601625Y-67533431D01*
X184596643Y-67531108D01*
X184596638Y-67531105D01*
X184401099Y-67439924D01*
X184401098Y-67439923D01*
X184396117Y-67437601D01*
X184390809Y-67436179D01*
X184390807Y-67436178D01*
X184182405Y-67380337D01*
X184182403Y-67380337D01*
X184177090Y-67378913D01*
X184078309Y-67370271D01*
X184010502Y-67364338D01*
X184010495Y-67364338D01*
X184007778Y-67364100D01*
X183894622Y-67364100D01*
X183891905Y-67364338D01*
X183891898Y-67364338D01*
X183824091Y-67370271D01*
X183725310Y-67378913D01*
X183719997Y-67380337D01*
X183719995Y-67380337D01*
X183511593Y-67436178D01*
X183511591Y-67436179D01*
X183506283Y-67437601D01*
X183501302Y-67439923D01*
X183501301Y-67439924D01*
X183305762Y-67531105D01*
X183305757Y-67531108D01*
X183300775Y-67533431D01*
X183296268Y-67536587D01*
X183296266Y-67536588D01*
X183119541Y-67660332D01*
X183119538Y-67660334D01*
X183115030Y-67663491D01*
X182954691Y-67823830D01*
X182951534Y-67828338D01*
X182951532Y-67828341D01*
X182872452Y-67941279D01*
X182824631Y-68009575D01*
X182822308Y-68014557D01*
X182822305Y-68014562D01*
X182818779Y-68022124D01*
X182728801Y-68215083D01*
X182727379Y-68220391D01*
X182727378Y-68220393D01*
X182720316Y-68246749D01*
X182670113Y-68434110D01*
X182650350Y-68660000D01*
X179257650Y-68660000D01*
X179237887Y-68434110D01*
X179187684Y-68246749D01*
X179180622Y-68220393D01*
X179180621Y-68220391D01*
X179179199Y-68215083D01*
X179089221Y-68022124D01*
X179085695Y-68014562D01*
X179085692Y-68014557D01*
X179083369Y-68009575D01*
X179035548Y-67941279D01*
X178956468Y-67828341D01*
X178956466Y-67828338D01*
X178953309Y-67823830D01*
X178792970Y-67663491D01*
X178788462Y-67660334D01*
X178788459Y-67660332D01*
X178611734Y-67536588D01*
X178611732Y-67536587D01*
X178607225Y-67533431D01*
X178602243Y-67531108D01*
X178602238Y-67531105D01*
X178406699Y-67439924D01*
X178406698Y-67439923D01*
X178401717Y-67437601D01*
X178396409Y-67436179D01*
X178396407Y-67436178D01*
X178188005Y-67380337D01*
X178188003Y-67380337D01*
X178182690Y-67378913D01*
X178083909Y-67370271D01*
X178016102Y-67364338D01*
X178016095Y-67364338D01*
X178013378Y-67364100D01*
X177900222Y-67364100D01*
X177897505Y-67364338D01*
X177897498Y-67364338D01*
X177829691Y-67370271D01*
X177730910Y-67378913D01*
X177725597Y-67380337D01*
X177725595Y-67380337D01*
X177517193Y-67436178D01*
X177517191Y-67436179D01*
X177511883Y-67437601D01*
X177506902Y-67439923D01*
X177506901Y-67439924D01*
X177311362Y-67531105D01*
X177311357Y-67531108D01*
X177306375Y-67533431D01*
X177301868Y-67536587D01*
X177301866Y-67536588D01*
X177125141Y-67660332D01*
X177125138Y-67660334D01*
X177120630Y-67663491D01*
X176960291Y-67823830D01*
X176957134Y-67828338D01*
X176957132Y-67828341D01*
X176878052Y-67941279D01*
X176830231Y-68009575D01*
X176827908Y-68014557D01*
X176827905Y-68014562D01*
X176824379Y-68022124D01*
X176734401Y-68215083D01*
X176732979Y-68220391D01*
X176732978Y-68220393D01*
X176725916Y-68246749D01*
X176675713Y-68434110D01*
X176655950Y-68660000D01*
X167926000Y-68660000D01*
X167926000Y-68551115D01*
X167921525Y-68535876D01*
X167920135Y-68534671D01*
X167912452Y-68533000D01*
X167190115Y-68533000D01*
X167174876Y-68537475D01*
X167173671Y-68538865D01*
X167172000Y-68546548D01*
X167172000Y-69493884D01*
X166664000Y-69493884D01*
X166664000Y-68006885D01*
X167172000Y-68006885D01*
X167176475Y-68022124D01*
X167177865Y-68023329D01*
X167185548Y-68025000D01*
X167907884Y-68025000D01*
X167923123Y-68020525D01*
X167924328Y-68019135D01*
X167925999Y-68011452D01*
X167925999Y-67756905D01*
X167925662Y-67750386D01*
X167915743Y-67654794D01*
X167912851Y-67641400D01*
X167887029Y-67564000D01*
X172314496Y-67564000D01*
X172334458Y-67753928D01*
X172393473Y-67935556D01*
X172488960Y-68100944D01*
X172616747Y-68242866D01*
X172771248Y-68355118D01*
X172777276Y-68357802D01*
X172777278Y-68357803D01*
X172936730Y-68428795D01*
X172945712Y-68432794D01*
X173039112Y-68452647D01*
X173126056Y-68471128D01*
X173126061Y-68471128D01*
X173132513Y-68472500D01*
X173323487Y-68472500D01*
X173329939Y-68471128D01*
X173329944Y-68471128D01*
X173416888Y-68452647D01*
X173510288Y-68432794D01*
X173519270Y-68428795D01*
X173678722Y-68357803D01*
X173678724Y-68357802D01*
X173684752Y-68355118D01*
X173839253Y-68242866D01*
X173967040Y-68100944D01*
X174062527Y-67935556D01*
X174121542Y-67753928D01*
X174141504Y-67564000D01*
X174121542Y-67374072D01*
X174062527Y-67192444D01*
X173967040Y-67027056D01*
X173839253Y-66885134D01*
X173684752Y-66772882D01*
X173678724Y-66770198D01*
X173678722Y-66770197D01*
X173516319Y-66697891D01*
X173516318Y-66697891D01*
X173510288Y-66695206D01*
X173416887Y-66675353D01*
X173329944Y-66656872D01*
X173329939Y-66656872D01*
X173323487Y-66655500D01*
X173132513Y-66655500D01*
X173126061Y-66656872D01*
X173126056Y-66656872D01*
X173039113Y-66675353D01*
X172945712Y-66695206D01*
X172939682Y-66697891D01*
X172939681Y-66697891D01*
X172777278Y-66770197D01*
X172777276Y-66770198D01*
X172771248Y-66772882D01*
X172616747Y-66885134D01*
X172488960Y-67027056D01*
X172393473Y-67192444D01*
X172334458Y-67374072D01*
X172314496Y-67564000D01*
X167887029Y-67564000D01*
X167861412Y-67487216D01*
X167855239Y-67474038D01*
X167769937Y-67336193D01*
X167760901Y-67324792D01*
X167646171Y-67210261D01*
X167634760Y-67201249D01*
X167496757Y-67116184D01*
X167483576Y-67110037D01*
X167329290Y-67058862D01*
X167315914Y-67055995D01*
X167221562Y-67046328D01*
X167215145Y-67046000D01*
X167190115Y-67046000D01*
X167174876Y-67050475D01*
X167173671Y-67051865D01*
X167172000Y-67059548D01*
X167172000Y-68006885D01*
X166664000Y-68006885D01*
X166664000Y-67064116D01*
X166659525Y-67048877D01*
X166658135Y-67047672D01*
X166650452Y-67046001D01*
X166620905Y-67046001D01*
X166614386Y-67046338D01*
X166518794Y-67056257D01*
X166505400Y-67059149D01*
X166351216Y-67110588D01*
X166338038Y-67116761D01*
X166200193Y-67202063D01*
X166188792Y-67211099D01*
X166074262Y-67325828D01*
X166067206Y-67334762D01*
X166009288Y-67375823D01*
X165938365Y-67379053D01*
X165876954Y-67343426D01*
X165870154Y-67335593D01*
X165866478Y-67329652D01*
X165741303Y-67204695D01*
X165735072Y-67200854D01*
X165596968Y-67115725D01*
X165596966Y-67115724D01*
X165590738Y-67111885D01*
X165510995Y-67085436D01*
X165429389Y-67058368D01*
X165429387Y-67058368D01*
X165422861Y-67056203D01*
X165416025Y-67055503D01*
X165416022Y-67055502D01*
X165372969Y-67051091D01*
X165318400Y-67045500D01*
X164717600Y-67045500D01*
X164714354Y-67045837D01*
X164714350Y-67045837D01*
X164618692Y-67055762D01*
X164618688Y-67055763D01*
X164611834Y-67056474D01*
X164605298Y-67058655D01*
X164605296Y-67058655D01*
X164588928Y-67064116D01*
X164444054Y-67112450D01*
X164293652Y-67205522D01*
X164168695Y-67330697D01*
X164164853Y-67336930D01*
X164160882Y-67341958D01*
X164102966Y-67383021D01*
X164032043Y-67386253D01*
X163970631Y-67350628D01*
X163938228Y-67287457D01*
X163936000Y-67263866D01*
X163936000Y-62944000D01*
X163956002Y-62875879D01*
X164009658Y-62829386D01*
X164062000Y-62818000D01*
X171302000Y-62818000D01*
X171302000Y-58184000D01*
X171322002Y-58115879D01*
X171375658Y-58069386D01*
X171428000Y-58058000D01*
X186565026Y-58058000D01*
X186633147Y-58078002D01*
G37*
%TD.AperFunction*%
%TD*%
M02*
