%TF.GenerationSoftware,KiCad,Pcbnew,(5.1.9)-1*%
%TF.CreationDate,2021-04-11T16:36:30+08:00*%
%TF.ProjectId,st_usbAudioV1_demo,73745f75-7362-4417-9564-696f56315f64,rev?*%
%TF.SameCoordinates,Original*%
%TF.FileFunction,Copper,L2,Bot*%
%TF.FilePolarity,Positive*%
%FSLAX46Y46*%
G04 Gerber Fmt 4.6, Leading zero omitted, Abs format (unit mm)*
G04 Created by KiCad (PCBNEW (5.1.9)-1) date 2021-04-11 16:36:30*
%MOMM*%
%LPD*%
G01*
G04 APERTURE LIST*
%TA.AperFunction,ComponentPad*%
%ADD10O,1.700000X1.700000*%
%TD*%
%TA.AperFunction,ComponentPad*%
%ADD11R,1.700000X1.700000*%
%TD*%
%TA.AperFunction,ComponentPad*%
%ADD12R,1.000000X1.000000*%
%TD*%
%TA.AperFunction,SMDPad,CuDef*%
%ADD13R,2.400000X2.000000*%
%TD*%
%TA.AperFunction,ComponentPad*%
%ADD14O,2.100000X1.050000*%
%TD*%
%TA.AperFunction,ComponentPad*%
%ADD15O,1.600000X0.800000*%
%TD*%
%TA.AperFunction,SMDPad,CuDef*%
%ADD16R,1.000000X0.900000*%
%TD*%
%TA.AperFunction,SMDPad,CuDef*%
%ADD17R,1.500000X2.000000*%
%TD*%
%TA.AperFunction,SMDPad,CuDef*%
%ADD18R,3.800000X2.000000*%
%TD*%
%TA.AperFunction,ComponentPad*%
%ADD19R,1.222000X1.222000*%
%TD*%
%TA.AperFunction,ComponentPad*%
%ADD20C,1.222000*%
%TD*%
%TA.AperFunction,ComponentPad*%
%ADD21C,1.258000*%
%TD*%
%TA.AperFunction,SMDPad,CuDef*%
%ADD22R,0.400000X0.800000*%
%TD*%
%TA.AperFunction,SMDPad,CuDef*%
%ADD23R,0.300000X0.800000*%
%TD*%
%TA.AperFunction,ViaPad*%
%ADD24C,0.800000*%
%TD*%
%TA.AperFunction,ViaPad*%
%ADD25C,3.600000*%
%TD*%
%TA.AperFunction,Conductor*%
%ADD26C,0.400000*%
%TD*%
%TA.AperFunction,Conductor*%
%ADD27C,0.250000*%
%TD*%
%TA.AperFunction,Conductor*%
%ADD28C,0.200000*%
%TD*%
%TA.AperFunction,Conductor*%
%ADD29C,0.300000*%
%TD*%
%TA.AperFunction,Conductor*%
%ADD30C,0.254000*%
%TD*%
%TA.AperFunction,Conductor*%
%ADD31C,0.100000*%
%TD*%
G04 APERTURE END LIST*
D10*
%TO.P,J1,3*%
%TO.N,GND*%
X151640000Y-61000000D03*
%TO.P,J1,2*%
%TO.N,/SWDIO*%
X149100000Y-61000000D03*
D11*
%TO.P,J1,1*%
%TO.N,/SWCLK*%
X146560000Y-61000000D03*
%TD*%
D12*
%TO.P,RST,1*%
%TO.N,/NRST*%
X124150000Y-86250000D03*
%TD*%
D13*
%TO.P,Y1,2*%
%TO.N,Net-(C11-Pad1)*%
X139200000Y-77700000D03*
%TO.P,Y1,1*%
%TO.N,Net-(C10-Pad1)*%
X139200000Y-74000000D03*
%TD*%
%TO.P,L2,2*%
%TO.N,Net-(C16-Pad2)*%
%TA.AperFunction,SMDPad,CuDef*%
G36*
G01*
X164518750Y-63687500D02*
X165281250Y-63687500D01*
G75*
G02*
X165500000Y-63906250I0J-218750D01*
G01*
X165500000Y-64343750D01*
G75*
G02*
X165281250Y-64562500I-218750J0D01*
G01*
X164518750Y-64562500D01*
G75*
G02*
X164300000Y-64343750I0J218750D01*
G01*
X164300000Y-63906250D01*
G75*
G02*
X164518750Y-63687500I218750J0D01*
G01*
G37*
%TD.AperFunction*%
%TO.P,L2,1*%
%TO.N,+3V3*%
%TA.AperFunction,SMDPad,CuDef*%
G36*
G01*
X164518750Y-61562500D02*
X165281250Y-61562500D01*
G75*
G02*
X165500000Y-61781250I0J-218750D01*
G01*
X165500000Y-62218750D01*
G75*
G02*
X165281250Y-62437500I-218750J0D01*
G01*
X164518750Y-62437500D01*
G75*
G02*
X164300000Y-62218750I0J218750D01*
G01*
X164300000Y-61781250D01*
G75*
G02*
X164518750Y-61562500I218750J0D01*
G01*
G37*
%TD.AperFunction*%
%TD*%
D14*
%TO.P,USB1,P3*%
%TO.N,GND*%
X119432000Y-69300000D03*
%TO.P,USB1,P6*%
X119432000Y-77500000D03*
D15*
%TO.P,USB1,P2*%
X122512000Y-75825000D03*
%TO.P,USB1,P1*%
X122512000Y-70975000D03*
%TD*%
D16*
%TO.P,X1,4*%
%TO.N,Net-(C16-Pad2)*%
X166825000Y-63575000D03*
%TO.P,X1,3*%
%TO.N,Net-(R8-Pad2)*%
X168975000Y-63575000D03*
%TO.P,X1,2*%
%TO.N,GND*%
X168975000Y-62025000D03*
%TO.P,X1,1*%
%TO.N,+3V3*%
X166825000Y-62025000D03*
%TD*%
D17*
%TO.P,U2,1*%
%TO.N,GND*%
X132025000Y-68500000D03*
%TO.P,U2,3*%
%TO.N,+5V*%
X127425000Y-68500000D03*
%TO.P,U2,2*%
%TO.N,+3V3*%
X129725000Y-68500000D03*
D18*
X129725000Y-62200000D03*
%TD*%
D19*
%TO.P,RV1,1*%
%TO.N,/SPK+*%
X152910000Y-76300000D03*
D20*
%TO.P,RV1,2*%
%TO.N,Net-(C19-Pad2)*%
X155450000Y-73760000D03*
%TO.P,RV1,3*%
%TO.N,GND*%
X157990000Y-76300000D03*
%TD*%
%TO.P,R19,2*%
%TO.N,Net-(J4-Pad1)*%
%TA.AperFunction,SMDPad,CuDef*%
G36*
G01*
X129225000Y-71825000D02*
X129775000Y-71825000D01*
G75*
G02*
X129975000Y-72025000I0J-200000D01*
G01*
X129975000Y-72425000D01*
G75*
G02*
X129775000Y-72625000I-200000J0D01*
G01*
X129225000Y-72625000D01*
G75*
G02*
X129025000Y-72425000I0J200000D01*
G01*
X129025000Y-72025000D01*
G75*
G02*
X129225000Y-71825000I200000J0D01*
G01*
G37*
%TD.AperFunction*%
%TO.P,R19,1*%
%TO.N,+3V3*%
%TA.AperFunction,SMDPad,CuDef*%
G36*
G01*
X129225000Y-70175000D02*
X129775000Y-70175000D01*
G75*
G02*
X129975000Y-70375000I0J-200000D01*
G01*
X129975000Y-70775000D01*
G75*
G02*
X129775000Y-70975000I-200000J0D01*
G01*
X129225000Y-70975000D01*
G75*
G02*
X129025000Y-70775000I0J200000D01*
G01*
X129025000Y-70375000D01*
G75*
G02*
X129225000Y-70175000I200000J0D01*
G01*
G37*
%TD.AperFunction*%
%TD*%
%TO.P,R18,2*%
%TO.N,Net-(R18-Pad2)*%
%TA.AperFunction,SMDPad,CuDef*%
G36*
G01*
X149000000Y-81225000D02*
X149000000Y-80675000D01*
G75*
G02*
X149200000Y-80475000I200000J0D01*
G01*
X149600000Y-80475000D01*
G75*
G02*
X149800000Y-80675000I0J-200000D01*
G01*
X149800000Y-81225000D01*
G75*
G02*
X149600000Y-81425000I-200000J0D01*
G01*
X149200000Y-81425000D01*
G75*
G02*
X149000000Y-81225000I0J200000D01*
G01*
G37*
%TD.AperFunction*%
%TO.P,R18,1*%
%TO.N,Net-(C22-Pad2)*%
%TA.AperFunction,SMDPad,CuDef*%
G36*
G01*
X147350000Y-81225000D02*
X147350000Y-80675000D01*
G75*
G02*
X147550000Y-80475000I200000J0D01*
G01*
X147950000Y-80475000D01*
G75*
G02*
X148150000Y-80675000I0J-200000D01*
G01*
X148150000Y-81225000D01*
G75*
G02*
X147950000Y-81425000I-200000J0D01*
G01*
X147550000Y-81425000D01*
G75*
G02*
X147350000Y-81225000I0J200000D01*
G01*
G37*
%TD.AperFunction*%
%TD*%
%TO.P,R17,2*%
%TO.N,Net-(C19-Pad1)*%
%TA.AperFunction,SMDPad,CuDef*%
G36*
G01*
X151375000Y-79675000D02*
X150825000Y-79675000D01*
G75*
G02*
X150625000Y-79475000I0J200000D01*
G01*
X150625000Y-79075000D01*
G75*
G02*
X150825000Y-78875000I200000J0D01*
G01*
X151375000Y-78875000D01*
G75*
G02*
X151575000Y-79075000I0J-200000D01*
G01*
X151575000Y-79475000D01*
G75*
G02*
X151375000Y-79675000I-200000J0D01*
G01*
G37*
%TD.AperFunction*%
%TO.P,R17,1*%
%TO.N,GND*%
%TA.AperFunction,SMDPad,CuDef*%
G36*
G01*
X151375000Y-81325000D02*
X150825000Y-81325000D01*
G75*
G02*
X150625000Y-81125000I0J200000D01*
G01*
X150625000Y-80725000D01*
G75*
G02*
X150825000Y-80525000I200000J0D01*
G01*
X151375000Y-80525000D01*
G75*
G02*
X151575000Y-80725000I0J-200000D01*
G01*
X151575000Y-81125000D01*
G75*
G02*
X151375000Y-81325000I-200000J0D01*
G01*
G37*
%TD.AperFunction*%
%TD*%
%TO.P,R16,2*%
%TO.N,Net-(C23-Pad2)*%
%TA.AperFunction,SMDPad,CuDef*%
G36*
G01*
X181925000Y-76475000D02*
X181925000Y-75925000D01*
G75*
G02*
X182125000Y-75725000I200000J0D01*
G01*
X182525000Y-75725000D01*
G75*
G02*
X182725000Y-75925000I0J-200000D01*
G01*
X182725000Y-76475000D01*
G75*
G02*
X182525000Y-76675000I-200000J0D01*
G01*
X182125000Y-76675000D01*
G75*
G02*
X181925000Y-76475000I0J200000D01*
G01*
G37*
%TD.AperFunction*%
%TO.P,R16,1*%
%TO.N,/MICBIAS*%
%TA.AperFunction,SMDPad,CuDef*%
G36*
G01*
X180275000Y-76475000D02*
X180275000Y-75925000D01*
G75*
G02*
X180475000Y-75725000I200000J0D01*
G01*
X180875000Y-75725000D01*
G75*
G02*
X181075000Y-75925000I0J-200000D01*
G01*
X181075000Y-76475000D01*
G75*
G02*
X180875000Y-76675000I-200000J0D01*
G01*
X180475000Y-76675000D01*
G75*
G02*
X180275000Y-76475000I0J200000D01*
G01*
G37*
%TD.AperFunction*%
%TD*%
%TO.P,R15,2*%
%TO.N,GNDA*%
%TA.AperFunction,SMDPad,CuDef*%
G36*
G01*
X185125000Y-76475000D02*
X185125000Y-75925000D01*
G75*
G02*
X185325000Y-75725000I200000J0D01*
G01*
X185725000Y-75725000D01*
G75*
G02*
X185925000Y-75925000I0J-200000D01*
G01*
X185925000Y-76475000D01*
G75*
G02*
X185725000Y-76675000I-200000J0D01*
G01*
X185325000Y-76675000D01*
G75*
G02*
X185125000Y-76475000I0J200000D01*
G01*
G37*
%TD.AperFunction*%
%TO.P,R15,1*%
%TO.N,Net-(C23-Pad2)*%
%TA.AperFunction,SMDPad,CuDef*%
G36*
G01*
X183475000Y-76475000D02*
X183475000Y-75925000D01*
G75*
G02*
X183675000Y-75725000I200000J0D01*
G01*
X184075000Y-75725000D01*
G75*
G02*
X184275000Y-75925000I0J-200000D01*
G01*
X184275000Y-76475000D01*
G75*
G02*
X184075000Y-76675000I-200000J0D01*
G01*
X183675000Y-76675000D01*
G75*
G02*
X183475000Y-76475000I0J200000D01*
G01*
G37*
%TD.AperFunction*%
%TD*%
%TO.P,R14,2*%
%TO.N,/SCL*%
%TA.AperFunction,SMDPad,CuDef*%
G36*
G01*
X135950000Y-61425000D02*
X135950000Y-61975000D01*
G75*
G02*
X135750000Y-62175000I-200000J0D01*
G01*
X135350000Y-62175000D01*
G75*
G02*
X135150000Y-61975000I0J200000D01*
G01*
X135150000Y-61425000D01*
G75*
G02*
X135350000Y-61225000I200000J0D01*
G01*
X135750000Y-61225000D01*
G75*
G02*
X135950000Y-61425000I0J-200000D01*
G01*
G37*
%TD.AperFunction*%
%TO.P,R14,1*%
%TO.N,+3V3*%
%TA.AperFunction,SMDPad,CuDef*%
G36*
G01*
X137600000Y-61425000D02*
X137600000Y-61975000D01*
G75*
G02*
X137400000Y-62175000I-200000J0D01*
G01*
X137000000Y-62175000D01*
G75*
G02*
X136800000Y-61975000I0J200000D01*
G01*
X136800000Y-61425000D01*
G75*
G02*
X137000000Y-61225000I200000J0D01*
G01*
X137400000Y-61225000D01*
G75*
G02*
X137600000Y-61425000I0J-200000D01*
G01*
G37*
%TD.AperFunction*%
%TD*%
%TO.P,R13,2*%
%TO.N,/SDA*%
%TA.AperFunction,SMDPad,CuDef*%
G36*
G01*
X139925000Y-61975000D02*
X139925000Y-61425000D01*
G75*
G02*
X140125000Y-61225000I200000J0D01*
G01*
X140525000Y-61225000D01*
G75*
G02*
X140725000Y-61425000I0J-200000D01*
G01*
X140725000Y-61975000D01*
G75*
G02*
X140525000Y-62175000I-200000J0D01*
G01*
X140125000Y-62175000D01*
G75*
G02*
X139925000Y-61975000I0J200000D01*
G01*
G37*
%TD.AperFunction*%
%TO.P,R13,1*%
%TO.N,+3V3*%
%TA.AperFunction,SMDPad,CuDef*%
G36*
G01*
X138275000Y-61975000D02*
X138275000Y-61425000D01*
G75*
G02*
X138475000Y-61225000I200000J0D01*
G01*
X138875000Y-61225000D01*
G75*
G02*
X139075000Y-61425000I0J-200000D01*
G01*
X139075000Y-61975000D01*
G75*
G02*
X138875000Y-62175000I-200000J0D01*
G01*
X138475000Y-62175000D01*
G75*
G02*
X138275000Y-61975000I0J200000D01*
G01*
G37*
%TD.AperFunction*%
%TD*%
%TO.P,R11,2*%
%TO.N,+3V3*%
%TA.AperFunction,SMDPad,CuDef*%
G36*
G01*
X150425000Y-75975000D02*
X149875000Y-75975000D01*
G75*
G02*
X149675000Y-75775000I0J200000D01*
G01*
X149675000Y-75375000D01*
G75*
G02*
X149875000Y-75175000I200000J0D01*
G01*
X150425000Y-75175000D01*
G75*
G02*
X150625000Y-75375000I0J-200000D01*
G01*
X150625000Y-75775000D01*
G75*
G02*
X150425000Y-75975000I-200000J0D01*
G01*
G37*
%TD.AperFunction*%
%TO.P,R11,1*%
%TO.N,Net-(C19-Pad1)*%
%TA.AperFunction,SMDPad,CuDef*%
G36*
G01*
X150425000Y-77625000D02*
X149875000Y-77625000D01*
G75*
G02*
X149675000Y-77425000I0J200000D01*
G01*
X149675000Y-77025000D01*
G75*
G02*
X149875000Y-76825000I200000J0D01*
G01*
X150425000Y-76825000D01*
G75*
G02*
X150625000Y-77025000I0J-200000D01*
G01*
X150625000Y-77425000D01*
G75*
G02*
X150425000Y-77625000I-200000J0D01*
G01*
G37*
%TD.AperFunction*%
%TD*%
%TO.P,R10,2*%
%TO.N,/USR*%
%TA.AperFunction,SMDPad,CuDef*%
G36*
G01*
X145900000Y-85275000D02*
X145900000Y-85825000D01*
G75*
G02*
X145700000Y-86025000I-200000J0D01*
G01*
X145300000Y-86025000D01*
G75*
G02*
X145100000Y-85825000I0J200000D01*
G01*
X145100000Y-85275000D01*
G75*
G02*
X145300000Y-85075000I200000J0D01*
G01*
X145700000Y-85075000D01*
G75*
G02*
X145900000Y-85275000I0J-200000D01*
G01*
G37*
%TD.AperFunction*%
%TO.P,R10,1*%
%TO.N,+3V3*%
%TA.AperFunction,SMDPad,CuDef*%
G36*
G01*
X147550000Y-85275000D02*
X147550000Y-85825000D01*
G75*
G02*
X147350000Y-86025000I-200000J0D01*
G01*
X146950000Y-86025000D01*
G75*
G02*
X146750000Y-85825000I0J200000D01*
G01*
X146750000Y-85275000D01*
G75*
G02*
X146950000Y-85075000I200000J0D01*
G01*
X147350000Y-85075000D01*
G75*
G02*
X147550000Y-85275000I0J-200000D01*
G01*
G37*
%TD.AperFunction*%
%TD*%
%TO.P,R7,2*%
%TO.N,GND*%
%TA.AperFunction,SMDPad,CuDef*%
G36*
G01*
X165325000Y-83125000D02*
X165325000Y-83675000D01*
G75*
G02*
X165125000Y-83875000I-200000J0D01*
G01*
X164725000Y-83875000D01*
G75*
G02*
X164525000Y-83675000I0J200000D01*
G01*
X164525000Y-83125000D01*
G75*
G02*
X164725000Y-82925000I200000J0D01*
G01*
X165125000Y-82925000D01*
G75*
G02*
X165325000Y-83125000I0J-200000D01*
G01*
G37*
%TD.AperFunction*%
%TO.P,R7,1*%
%TO.N,GNDA*%
%TA.AperFunction,SMDPad,CuDef*%
G36*
G01*
X166975000Y-83125000D02*
X166975000Y-83675000D01*
G75*
G02*
X166775000Y-83875000I-200000J0D01*
G01*
X166375000Y-83875000D01*
G75*
G02*
X166175000Y-83675000I0J200000D01*
G01*
X166175000Y-83125000D01*
G75*
G02*
X166375000Y-82925000I200000J0D01*
G01*
X166775000Y-82925000D01*
G75*
G02*
X166975000Y-83125000I0J-200000D01*
G01*
G37*
%TD.AperFunction*%
%TD*%
%TO.P,R6,2*%
%TO.N,Net-(C11-Pad1)*%
%TA.AperFunction,SMDPad,CuDef*%
G36*
G01*
X141925000Y-76600000D02*
X142475000Y-76600000D01*
G75*
G02*
X142675000Y-76800000I0J-200000D01*
G01*
X142675000Y-77200000D01*
G75*
G02*
X142475000Y-77400000I-200000J0D01*
G01*
X141925000Y-77400000D01*
G75*
G02*
X141725000Y-77200000I0J200000D01*
G01*
X141725000Y-76800000D01*
G75*
G02*
X141925000Y-76600000I200000J0D01*
G01*
G37*
%TD.AperFunction*%
%TO.P,R6,1*%
%TO.N,Net-(C10-Pad1)*%
%TA.AperFunction,SMDPad,CuDef*%
G36*
G01*
X141925000Y-74950000D02*
X142475000Y-74950000D01*
G75*
G02*
X142675000Y-75150000I0J-200000D01*
G01*
X142675000Y-75550000D01*
G75*
G02*
X142475000Y-75750000I-200000J0D01*
G01*
X141925000Y-75750000D01*
G75*
G02*
X141725000Y-75550000I0J200000D01*
G01*
X141725000Y-75150000D01*
G75*
G02*
X141925000Y-74950000I200000J0D01*
G01*
G37*
%TD.AperFunction*%
%TD*%
%TO.P,R4,2*%
%TO.N,/d_P*%
%TA.AperFunction,SMDPad,CuDef*%
G36*
G01*
X136675000Y-63075000D02*
X136675000Y-63625000D01*
G75*
G02*
X136475000Y-63825000I-200000J0D01*
G01*
X136075000Y-63825000D01*
G75*
G02*
X135875000Y-63625000I0J200000D01*
G01*
X135875000Y-63075000D01*
G75*
G02*
X136075000Y-62875000I200000J0D01*
G01*
X136475000Y-62875000D01*
G75*
G02*
X136675000Y-63075000I0J-200000D01*
G01*
G37*
%TD.AperFunction*%
%TO.P,R4,1*%
%TO.N,/USB1_D+*%
%TA.AperFunction,SMDPad,CuDef*%
G36*
G01*
X138325000Y-63075000D02*
X138325000Y-63625000D01*
G75*
G02*
X138125000Y-63825000I-200000J0D01*
G01*
X137725000Y-63825000D01*
G75*
G02*
X137525000Y-63625000I0J200000D01*
G01*
X137525000Y-63075000D01*
G75*
G02*
X137725000Y-62875000I200000J0D01*
G01*
X138125000Y-62875000D01*
G75*
G02*
X138325000Y-63075000I0J-200000D01*
G01*
G37*
%TD.AperFunction*%
%TD*%
%TO.P,R3,2*%
%TO.N,/d_N*%
%TA.AperFunction,SMDPad,CuDef*%
G36*
G01*
X136675000Y-64625000D02*
X136675000Y-65175000D01*
G75*
G02*
X136475000Y-65375000I-200000J0D01*
G01*
X136075000Y-65375000D01*
G75*
G02*
X135875000Y-65175000I0J200000D01*
G01*
X135875000Y-64625000D01*
G75*
G02*
X136075000Y-64425000I200000J0D01*
G01*
X136475000Y-64425000D01*
G75*
G02*
X136675000Y-64625000I0J-200000D01*
G01*
G37*
%TD.AperFunction*%
%TO.P,R3,1*%
%TO.N,/USB1_D-*%
%TA.AperFunction,SMDPad,CuDef*%
G36*
G01*
X138325000Y-64625000D02*
X138325000Y-65175000D01*
G75*
G02*
X138125000Y-65375000I-200000J0D01*
G01*
X137725000Y-65375000D01*
G75*
G02*
X137525000Y-65175000I0J200000D01*
G01*
X137525000Y-64625000D01*
G75*
G02*
X137725000Y-64425000I200000J0D01*
G01*
X138125000Y-64425000D01*
G75*
G02*
X138325000Y-64625000I0J-200000D01*
G01*
G37*
%TD.AperFunction*%
%TD*%
%TO.P,R2,2*%
%TO.N,/NRST*%
%TA.AperFunction,SMDPad,CuDef*%
G36*
G01*
X124375000Y-82025000D02*
X124375000Y-82575000D01*
G75*
G02*
X124175000Y-82775000I-200000J0D01*
G01*
X123775000Y-82775000D01*
G75*
G02*
X123575000Y-82575000I0J200000D01*
G01*
X123575000Y-82025000D01*
G75*
G02*
X123775000Y-81825000I200000J0D01*
G01*
X124175000Y-81825000D01*
G75*
G02*
X124375000Y-82025000I0J-200000D01*
G01*
G37*
%TD.AperFunction*%
%TO.P,R2,1*%
%TO.N,+3V3*%
%TA.AperFunction,SMDPad,CuDef*%
G36*
G01*
X126025000Y-82025000D02*
X126025000Y-82575000D01*
G75*
G02*
X125825000Y-82775000I-200000J0D01*
G01*
X125425000Y-82775000D01*
G75*
G02*
X125225000Y-82575000I0J200000D01*
G01*
X125225000Y-82025000D01*
G75*
G02*
X125425000Y-81825000I200000J0D01*
G01*
X125825000Y-81825000D01*
G75*
G02*
X126025000Y-82025000I0J-200000D01*
G01*
G37*
%TD.AperFunction*%
%TD*%
D21*
%TO.P,MK1,OUT*%
%TO.N,Net-(C23-Pad2)*%
X182550000Y-78025000D03*
%TO.P,MK1,GND*%
%TO.N,GNDA*%
X182550000Y-79925000D03*
%TD*%
D22*
%TO.P,J4,S2*%
%TO.N,GND*%
X136300000Y-75825000D03*
%TO.P,J4,S1*%
X130800000Y-75825000D03*
D23*
%TO.P,J4,8*%
%TO.N,/LCD_CS*%
X135300000Y-73325000D03*
%TO.P,J4,7*%
%TO.N,+3V3*%
X134800000Y-73325000D03*
%TO.P,J4,6*%
%TO.N,/LCD_CLK*%
X134300000Y-73325000D03*
%TO.P,J4,5*%
%TO.N,/LCD_MOSI*%
X133800000Y-73325000D03*
%TO.P,J4,4*%
%TO.N,/LCD_RS*%
X133300000Y-73325000D03*
%TO.P,J4,3*%
%TO.N,/LCD_RST*%
X132800000Y-73325000D03*
%TO.P,J4,2*%
%TO.N,GND*%
X132300000Y-73325000D03*
%TO.P,J4,1*%
%TO.N,Net-(J4-Pad1)*%
X131800000Y-73325000D03*
%TD*%
D10*
%TO.P,J3,3*%
%TO.N,GND*%
X157078000Y-61060000D03*
%TO.P,J3,2*%
%TO.N,/RX1*%
X159618000Y-61060000D03*
D11*
%TO.P,J3,1*%
%TO.N,/TX1*%
X162158000Y-61060000D03*
%TD*%
%TO.P,C33,2*%
%TO.N,/MICBIAS*%
%TA.AperFunction,SMDPad,CuDef*%
G36*
G01*
X180575000Y-78300000D02*
X179625000Y-78300000D01*
G75*
G02*
X179375000Y-78050000I0J250000D01*
G01*
X179375000Y-77550000D01*
G75*
G02*
X179625000Y-77300000I250000J0D01*
G01*
X180575000Y-77300000D01*
G75*
G02*
X180825000Y-77550000I0J-250000D01*
G01*
X180825000Y-78050000D01*
G75*
G02*
X180575000Y-78300000I-250000J0D01*
G01*
G37*
%TD.AperFunction*%
%TO.P,C33,1*%
%TO.N,GNDA*%
%TA.AperFunction,SMDPad,CuDef*%
G36*
G01*
X180575000Y-80200000D02*
X179625000Y-80200000D01*
G75*
G02*
X179375000Y-79950000I0J250000D01*
G01*
X179375000Y-79450000D01*
G75*
G02*
X179625000Y-79200000I250000J0D01*
G01*
X180575000Y-79200000D01*
G75*
G02*
X180825000Y-79450000I0J-250000D01*
G01*
X180825000Y-79950000D01*
G75*
G02*
X180575000Y-80200000I-250000J0D01*
G01*
G37*
%TD.AperFunction*%
%TD*%
%TO.P,C32,2*%
%TO.N,+3.3VA*%
%TA.AperFunction,SMDPad,CuDef*%
G36*
G01*
X166925000Y-73500000D02*
X167875000Y-73500000D01*
G75*
G02*
X168125000Y-73750000I0J-250000D01*
G01*
X168125000Y-74250000D01*
G75*
G02*
X167875000Y-74500000I-250000J0D01*
G01*
X166925000Y-74500000D01*
G75*
G02*
X166675000Y-74250000I0J250000D01*
G01*
X166675000Y-73750000D01*
G75*
G02*
X166925000Y-73500000I250000J0D01*
G01*
G37*
%TD.AperFunction*%
%TO.P,C32,1*%
%TO.N,GND*%
%TA.AperFunction,SMDPad,CuDef*%
G36*
G01*
X166925000Y-71600000D02*
X167875000Y-71600000D01*
G75*
G02*
X168125000Y-71850000I0J-250000D01*
G01*
X168125000Y-72350000D01*
G75*
G02*
X167875000Y-72600000I-250000J0D01*
G01*
X166925000Y-72600000D01*
G75*
G02*
X166675000Y-72350000I0J250000D01*
G01*
X166675000Y-71850000D01*
G75*
G02*
X166925000Y-71600000I250000J0D01*
G01*
G37*
%TD.AperFunction*%
%TD*%
%TO.P,C30,2*%
%TO.N,Net-(C23-Pad2)*%
%TA.AperFunction,SMDPad,CuDef*%
G36*
G01*
X185675000Y-78400000D02*
X184725000Y-78400000D01*
G75*
G02*
X184475000Y-78150000I0J250000D01*
G01*
X184475000Y-77650000D01*
G75*
G02*
X184725000Y-77400000I250000J0D01*
G01*
X185675000Y-77400000D01*
G75*
G02*
X185925000Y-77650000I0J-250000D01*
G01*
X185925000Y-78150000D01*
G75*
G02*
X185675000Y-78400000I-250000J0D01*
G01*
G37*
%TD.AperFunction*%
%TO.P,C30,1*%
%TO.N,GNDA*%
%TA.AperFunction,SMDPad,CuDef*%
G36*
G01*
X185675000Y-80300000D02*
X184725000Y-80300000D01*
G75*
G02*
X184475000Y-80050000I0J250000D01*
G01*
X184475000Y-79550000D01*
G75*
G02*
X184725000Y-79300000I250000J0D01*
G01*
X185675000Y-79300000D01*
G75*
G02*
X185925000Y-79550000I0J-250000D01*
G01*
X185925000Y-80050000D01*
G75*
G02*
X185675000Y-80300000I-250000J0D01*
G01*
G37*
%TD.AperFunction*%
%TD*%
%TO.P,C28,2*%
%TO.N,+3.3VA*%
%TA.AperFunction,SMDPad,CuDef*%
G36*
G01*
X164875000Y-73550000D02*
X165825000Y-73550000D01*
G75*
G02*
X166075000Y-73800000I0J-250000D01*
G01*
X166075000Y-74300000D01*
G75*
G02*
X165825000Y-74550000I-250000J0D01*
G01*
X164875000Y-74550000D01*
G75*
G02*
X164625000Y-74300000I0J250000D01*
G01*
X164625000Y-73800000D01*
G75*
G02*
X164875000Y-73550000I250000J0D01*
G01*
G37*
%TD.AperFunction*%
%TO.P,C28,1*%
%TO.N,GND*%
%TA.AperFunction,SMDPad,CuDef*%
G36*
G01*
X164875000Y-71650000D02*
X165825000Y-71650000D01*
G75*
G02*
X166075000Y-71900000I0J-250000D01*
G01*
X166075000Y-72400000D01*
G75*
G02*
X165825000Y-72650000I-250000J0D01*
G01*
X164875000Y-72650000D01*
G75*
G02*
X164625000Y-72400000I0J250000D01*
G01*
X164625000Y-71900000D01*
G75*
G02*
X164875000Y-71650000I250000J0D01*
G01*
G37*
%TD.AperFunction*%
%TD*%
%TO.P,C22,2*%
%TO.N,Net-(C22-Pad2)*%
%TA.AperFunction,SMDPad,CuDef*%
G36*
G01*
X145800000Y-81675000D02*
X145800000Y-80725000D01*
G75*
G02*
X146050000Y-80475000I250000J0D01*
G01*
X146550000Y-80475000D01*
G75*
G02*
X146800000Y-80725000I0J-250000D01*
G01*
X146800000Y-81675000D01*
G75*
G02*
X146550000Y-81925000I-250000J0D01*
G01*
X146050000Y-81925000D01*
G75*
G02*
X145800000Y-81675000I0J250000D01*
G01*
G37*
%TD.AperFunction*%
%TO.P,C22,1*%
%TO.N,Net-(C22-Pad1)*%
%TA.AperFunction,SMDPad,CuDef*%
G36*
G01*
X143900000Y-81675000D02*
X143900000Y-80725000D01*
G75*
G02*
X144150000Y-80475000I250000J0D01*
G01*
X144650000Y-80475000D01*
G75*
G02*
X144900000Y-80725000I0J-250000D01*
G01*
X144900000Y-81675000D01*
G75*
G02*
X144650000Y-81925000I-250000J0D01*
G01*
X144150000Y-81925000D01*
G75*
G02*
X143900000Y-81675000I0J250000D01*
G01*
G37*
%TD.AperFunction*%
%TD*%
%TO.P,C21,2*%
%TO.N,Net-(C21-Pad2)*%
%TA.AperFunction,SMDPad,CuDef*%
G36*
G01*
X144900000Y-78725000D02*
X144900000Y-79675000D01*
G75*
G02*
X144650000Y-79925000I-250000J0D01*
G01*
X144150000Y-79925000D01*
G75*
G02*
X143900000Y-79675000I0J250000D01*
G01*
X143900000Y-78725000D01*
G75*
G02*
X144150000Y-78475000I250000J0D01*
G01*
X144650000Y-78475000D01*
G75*
G02*
X144900000Y-78725000I0J-250000D01*
G01*
G37*
%TD.AperFunction*%
%TO.P,C21,1*%
%TO.N,GND*%
%TA.AperFunction,SMDPad,CuDef*%
G36*
G01*
X146800000Y-78725000D02*
X146800000Y-79675000D01*
G75*
G02*
X146550000Y-79925000I-250000J0D01*
G01*
X146050000Y-79925000D01*
G75*
G02*
X145800000Y-79675000I0J250000D01*
G01*
X145800000Y-78725000D01*
G75*
G02*
X146050000Y-78475000I250000J0D01*
G01*
X146550000Y-78475000D01*
G75*
G02*
X146800000Y-78725000I0J-250000D01*
G01*
G37*
%TD.AperFunction*%
%TD*%
%TO.P,C20,2*%
%TO.N,+3V3*%
%TA.AperFunction,SMDPad,CuDef*%
G36*
G01*
X165175000Y-66350000D02*
X164225000Y-66350000D01*
G75*
G02*
X163975000Y-66100000I0J250000D01*
G01*
X163975000Y-65600000D01*
G75*
G02*
X164225000Y-65350000I250000J0D01*
G01*
X165175000Y-65350000D01*
G75*
G02*
X165425000Y-65600000I0J-250000D01*
G01*
X165425000Y-66100000D01*
G75*
G02*
X165175000Y-66350000I-250000J0D01*
G01*
G37*
%TD.AperFunction*%
%TO.P,C20,1*%
%TO.N,GND*%
%TA.AperFunction,SMDPad,CuDef*%
G36*
G01*
X165175000Y-68250000D02*
X164225000Y-68250000D01*
G75*
G02*
X163975000Y-68000000I0J250000D01*
G01*
X163975000Y-67500000D01*
G75*
G02*
X164225000Y-67250000I250000J0D01*
G01*
X165175000Y-67250000D01*
G75*
G02*
X165425000Y-67500000I0J-250000D01*
G01*
X165425000Y-68000000D01*
G75*
G02*
X165175000Y-68250000I-250000J0D01*
G01*
G37*
%TD.AperFunction*%
%TD*%
%TO.P,C19,2*%
%TO.N,Net-(C19-Pad2)*%
%TA.AperFunction,SMDPad,CuDef*%
G36*
G01*
X152375000Y-79800000D02*
X153325000Y-79800000D01*
G75*
G02*
X153575000Y-80050000I0J-250000D01*
G01*
X153575000Y-80550000D01*
G75*
G02*
X153325000Y-80800000I-250000J0D01*
G01*
X152375000Y-80800000D01*
G75*
G02*
X152125000Y-80550000I0J250000D01*
G01*
X152125000Y-80050000D01*
G75*
G02*
X152375000Y-79800000I250000J0D01*
G01*
G37*
%TD.AperFunction*%
%TO.P,C19,1*%
%TO.N,Net-(C19-Pad1)*%
%TA.AperFunction,SMDPad,CuDef*%
G36*
G01*
X152375000Y-77900000D02*
X153325000Y-77900000D01*
G75*
G02*
X153575000Y-78150000I0J-250000D01*
G01*
X153575000Y-78650000D01*
G75*
G02*
X153325000Y-78900000I-250000J0D01*
G01*
X152375000Y-78900000D01*
G75*
G02*
X152125000Y-78650000I0J250000D01*
G01*
X152125000Y-78150000D01*
G75*
G02*
X152375000Y-77900000I250000J0D01*
G01*
G37*
%TD.AperFunction*%
%TD*%
%TO.P,C17,2*%
%TO.N,/USR*%
%TA.AperFunction,SMDPad,CuDef*%
G36*
G01*
X145900000Y-83125000D02*
X145900000Y-84075000D01*
G75*
G02*
X145650000Y-84325000I-250000J0D01*
G01*
X145150000Y-84325000D01*
G75*
G02*
X144900000Y-84075000I0J250000D01*
G01*
X144900000Y-83125000D01*
G75*
G02*
X145150000Y-82875000I250000J0D01*
G01*
X145650000Y-82875000D01*
G75*
G02*
X145900000Y-83125000I0J-250000D01*
G01*
G37*
%TD.AperFunction*%
%TO.P,C17,1*%
%TO.N,GND*%
%TA.AperFunction,SMDPad,CuDef*%
G36*
G01*
X147800000Y-83125000D02*
X147800000Y-84075000D01*
G75*
G02*
X147550000Y-84325000I-250000J0D01*
G01*
X147050000Y-84325000D01*
G75*
G02*
X146800000Y-84075000I0J250000D01*
G01*
X146800000Y-83125000D01*
G75*
G02*
X147050000Y-82875000I250000J0D01*
G01*
X147550000Y-82875000D01*
G75*
G02*
X147800000Y-83125000I0J-250000D01*
G01*
G37*
%TD.AperFunction*%
%TD*%
%TO.P,C16,2*%
%TO.N,Net-(C16-Pad2)*%
%TA.AperFunction,SMDPad,CuDef*%
G36*
G01*
X167250000Y-64925000D02*
X167250000Y-65875000D01*
G75*
G02*
X167000000Y-66125000I-250000J0D01*
G01*
X166500000Y-66125000D01*
G75*
G02*
X166250000Y-65875000I0J250000D01*
G01*
X166250000Y-64925000D01*
G75*
G02*
X166500000Y-64675000I250000J0D01*
G01*
X167000000Y-64675000D01*
G75*
G02*
X167250000Y-64925000I0J-250000D01*
G01*
G37*
%TD.AperFunction*%
%TO.P,C16,1*%
%TO.N,GND*%
%TA.AperFunction,SMDPad,CuDef*%
G36*
G01*
X169150000Y-64925000D02*
X169150000Y-65875000D01*
G75*
G02*
X168900000Y-66125000I-250000J0D01*
G01*
X168400000Y-66125000D01*
G75*
G02*
X168150000Y-65875000I0J250000D01*
G01*
X168150000Y-64925000D01*
G75*
G02*
X168400000Y-64675000I250000J0D01*
G01*
X168900000Y-64675000D01*
G75*
G02*
X169150000Y-64925000I0J-250000D01*
G01*
G37*
%TD.AperFunction*%
%TD*%
%TO.P,C15,2*%
%TO.N,GND*%
%TA.AperFunction,SMDPad,CuDef*%
G36*
G01*
X142950000Y-71075000D02*
X142950000Y-70125000D01*
G75*
G02*
X143200000Y-69875000I250000J0D01*
G01*
X143700000Y-69875000D01*
G75*
G02*
X143950000Y-70125000I0J-250000D01*
G01*
X143950000Y-71075000D01*
G75*
G02*
X143700000Y-71325000I-250000J0D01*
G01*
X143200000Y-71325000D01*
G75*
G02*
X142950000Y-71075000I0J250000D01*
G01*
G37*
%TD.AperFunction*%
%TO.P,C15,1*%
%TO.N,+3V3*%
%TA.AperFunction,SMDPad,CuDef*%
G36*
G01*
X141050000Y-71075000D02*
X141050000Y-70125000D01*
G75*
G02*
X141300000Y-69875000I250000J0D01*
G01*
X141800000Y-69875000D01*
G75*
G02*
X142050000Y-70125000I0J-250000D01*
G01*
X142050000Y-71075000D01*
G75*
G02*
X141800000Y-71325000I-250000J0D01*
G01*
X141300000Y-71325000D01*
G75*
G02*
X141050000Y-71075000I0J250000D01*
G01*
G37*
%TD.AperFunction*%
%TD*%
%TO.P,C13,2*%
%TO.N,+3.3VA*%
%TA.AperFunction,SMDPad,CuDef*%
G36*
G01*
X159675000Y-78900000D02*
X160625000Y-78900000D01*
G75*
G02*
X160875000Y-79150000I0J-250000D01*
G01*
X160875000Y-79650000D01*
G75*
G02*
X160625000Y-79900000I-250000J0D01*
G01*
X159675000Y-79900000D01*
G75*
G02*
X159425000Y-79650000I0J250000D01*
G01*
X159425000Y-79150000D01*
G75*
G02*
X159675000Y-78900000I250000J0D01*
G01*
G37*
%TD.AperFunction*%
%TO.P,C13,1*%
%TO.N,GND*%
%TA.AperFunction,SMDPad,CuDef*%
G36*
G01*
X159675000Y-77000000D02*
X160625000Y-77000000D01*
G75*
G02*
X160875000Y-77250000I0J-250000D01*
G01*
X160875000Y-77750000D01*
G75*
G02*
X160625000Y-78000000I-250000J0D01*
G01*
X159675000Y-78000000D01*
G75*
G02*
X159425000Y-77750000I0J250000D01*
G01*
X159425000Y-77250000D01*
G75*
G02*
X159675000Y-77000000I250000J0D01*
G01*
G37*
%TD.AperFunction*%
%TD*%
%TO.P,C12,2*%
%TO.N,+3.3VA*%
%TA.AperFunction,SMDPad,CuDef*%
G36*
G01*
X164500000Y-78200000D02*
X164500000Y-77250000D01*
G75*
G02*
X164750000Y-77000000I250000J0D01*
G01*
X165250000Y-77000000D01*
G75*
G02*
X165500000Y-77250000I0J-250000D01*
G01*
X165500000Y-78200000D01*
G75*
G02*
X165250000Y-78450000I-250000J0D01*
G01*
X164750000Y-78450000D01*
G75*
G02*
X164500000Y-78200000I0J250000D01*
G01*
G37*
%TD.AperFunction*%
%TO.P,C12,1*%
%TO.N,GND*%
%TA.AperFunction,SMDPad,CuDef*%
G36*
G01*
X162600000Y-78200000D02*
X162600000Y-77250000D01*
G75*
G02*
X162850000Y-77000000I250000J0D01*
G01*
X163350000Y-77000000D01*
G75*
G02*
X163600000Y-77250000I0J-250000D01*
G01*
X163600000Y-78200000D01*
G75*
G02*
X163350000Y-78450000I-250000J0D01*
G01*
X162850000Y-78450000D01*
G75*
G02*
X162600000Y-78200000I0J250000D01*
G01*
G37*
%TD.AperFunction*%
%TD*%
%TO.P,C11,2*%
%TO.N,GND*%
%TA.AperFunction,SMDPad,CuDef*%
G36*
G01*
X138550000Y-79675000D02*
X138550000Y-80625000D01*
G75*
G02*
X138300000Y-80875000I-250000J0D01*
G01*
X137800000Y-80875000D01*
G75*
G02*
X137550000Y-80625000I0J250000D01*
G01*
X137550000Y-79675000D01*
G75*
G02*
X137800000Y-79425000I250000J0D01*
G01*
X138300000Y-79425000D01*
G75*
G02*
X138550000Y-79675000I0J-250000D01*
G01*
G37*
%TD.AperFunction*%
%TO.P,C11,1*%
%TO.N,Net-(C11-Pad1)*%
%TA.AperFunction,SMDPad,CuDef*%
G36*
G01*
X140450000Y-79675000D02*
X140450000Y-80625000D01*
G75*
G02*
X140200000Y-80875000I-250000J0D01*
G01*
X139700000Y-80875000D01*
G75*
G02*
X139450000Y-80625000I0J250000D01*
G01*
X139450000Y-79675000D01*
G75*
G02*
X139700000Y-79425000I250000J0D01*
G01*
X140200000Y-79425000D01*
G75*
G02*
X140450000Y-79675000I0J-250000D01*
G01*
G37*
%TD.AperFunction*%
%TD*%
%TO.P,C10,2*%
%TO.N,GND*%
%TA.AperFunction,SMDPad,CuDef*%
G36*
G01*
X138550000Y-71225000D02*
X138550000Y-72175000D01*
G75*
G02*
X138300000Y-72425000I-250000J0D01*
G01*
X137800000Y-72425000D01*
G75*
G02*
X137550000Y-72175000I0J250000D01*
G01*
X137550000Y-71225000D01*
G75*
G02*
X137800000Y-70975000I250000J0D01*
G01*
X138300000Y-70975000D01*
G75*
G02*
X138550000Y-71225000I0J-250000D01*
G01*
G37*
%TD.AperFunction*%
%TO.P,C10,1*%
%TO.N,Net-(C10-Pad1)*%
%TA.AperFunction,SMDPad,CuDef*%
G36*
G01*
X140450000Y-71225000D02*
X140450000Y-72175000D01*
G75*
G02*
X140200000Y-72425000I-250000J0D01*
G01*
X139700000Y-72425000D01*
G75*
G02*
X139450000Y-72175000I0J250000D01*
G01*
X139450000Y-71225000D01*
G75*
G02*
X139700000Y-70975000I250000J0D01*
G01*
X140200000Y-70975000D01*
G75*
G02*
X140450000Y-71225000I0J-250000D01*
G01*
G37*
%TD.AperFunction*%
%TD*%
%TO.P,C9,2*%
%TO.N,+3V3*%
%TA.AperFunction,SMDPad,CuDef*%
G36*
G01*
X140750000Y-66875000D02*
X140750000Y-65925000D01*
G75*
G02*
X141000000Y-65675000I250000J0D01*
G01*
X141500000Y-65675000D01*
G75*
G02*
X141750000Y-65925000I0J-250000D01*
G01*
X141750000Y-66875000D01*
G75*
G02*
X141500000Y-67125000I-250000J0D01*
G01*
X141000000Y-67125000D01*
G75*
G02*
X140750000Y-66875000I0J250000D01*
G01*
G37*
%TD.AperFunction*%
%TO.P,C9,1*%
%TO.N,GND*%
%TA.AperFunction,SMDPad,CuDef*%
G36*
G01*
X138850000Y-66875000D02*
X138850000Y-65925000D01*
G75*
G02*
X139100000Y-65675000I250000J0D01*
G01*
X139600000Y-65675000D01*
G75*
G02*
X139850000Y-65925000I0J-250000D01*
G01*
X139850000Y-66875000D01*
G75*
G02*
X139600000Y-67125000I-250000J0D01*
G01*
X139100000Y-67125000D01*
G75*
G02*
X138850000Y-66875000I0J250000D01*
G01*
G37*
%TD.AperFunction*%
%TD*%
%TO.P,C7,2*%
%TO.N,+3V3*%
%TA.AperFunction,SMDPad,CuDef*%
G36*
G01*
X134947000Y-67468000D02*
X133997000Y-67468000D01*
G75*
G02*
X133747000Y-67218000I0J250000D01*
G01*
X133747000Y-66718000D01*
G75*
G02*
X133997000Y-66468000I250000J0D01*
G01*
X134947000Y-66468000D01*
G75*
G02*
X135197000Y-66718000I0J-250000D01*
G01*
X135197000Y-67218000D01*
G75*
G02*
X134947000Y-67468000I-250000J0D01*
G01*
G37*
%TD.AperFunction*%
%TO.P,C7,1*%
%TO.N,GND*%
%TA.AperFunction,SMDPad,CuDef*%
G36*
G01*
X134947000Y-69368000D02*
X133997000Y-69368000D01*
G75*
G02*
X133747000Y-69118000I0J250000D01*
G01*
X133747000Y-68618000D01*
G75*
G02*
X133997000Y-68368000I250000J0D01*
G01*
X134947000Y-68368000D01*
G75*
G02*
X135197000Y-68618000I0J-250000D01*
G01*
X135197000Y-69118000D01*
G75*
G02*
X134947000Y-69368000I-250000J0D01*
G01*
G37*
%TD.AperFunction*%
%TD*%
%TO.P,C5,2*%
%TO.N,+3V3*%
%TA.AperFunction,SMDPad,CuDef*%
G36*
G01*
X149925000Y-73600000D02*
X150875000Y-73600000D01*
G75*
G02*
X151125000Y-73850000I0J-250000D01*
G01*
X151125000Y-74350000D01*
G75*
G02*
X150875000Y-74600000I-250000J0D01*
G01*
X149925000Y-74600000D01*
G75*
G02*
X149675000Y-74350000I0J250000D01*
G01*
X149675000Y-73850000D01*
G75*
G02*
X149925000Y-73600000I250000J0D01*
G01*
G37*
%TD.AperFunction*%
%TO.P,C5,1*%
%TO.N,GND*%
%TA.AperFunction,SMDPad,CuDef*%
G36*
G01*
X149925000Y-71700000D02*
X150875000Y-71700000D01*
G75*
G02*
X151125000Y-71950000I0J-250000D01*
G01*
X151125000Y-72450000D01*
G75*
G02*
X150875000Y-72700000I-250000J0D01*
G01*
X149925000Y-72700000D01*
G75*
G02*
X149675000Y-72450000I0J250000D01*
G01*
X149675000Y-71950000D01*
G75*
G02*
X149925000Y-71700000I250000J0D01*
G01*
G37*
%TD.AperFunction*%
%TD*%
%TO.P,C4,2*%
%TO.N,/NRST*%
%TA.AperFunction,SMDPad,CuDef*%
G36*
G01*
X124600000Y-83625000D02*
X124600000Y-84575000D01*
G75*
G02*
X124350000Y-84825000I-250000J0D01*
G01*
X123850000Y-84825000D01*
G75*
G02*
X123600000Y-84575000I0J250000D01*
G01*
X123600000Y-83625000D01*
G75*
G02*
X123850000Y-83375000I250000J0D01*
G01*
X124350000Y-83375000D01*
G75*
G02*
X124600000Y-83625000I0J-250000D01*
G01*
G37*
%TD.AperFunction*%
%TO.P,C4,1*%
%TO.N,GND*%
%TA.AperFunction,SMDPad,CuDef*%
G36*
G01*
X126500000Y-83625000D02*
X126500000Y-84575000D01*
G75*
G02*
X126250000Y-84825000I-250000J0D01*
G01*
X125750000Y-84825000D01*
G75*
G02*
X125500000Y-84575000I0J250000D01*
G01*
X125500000Y-83625000D01*
G75*
G02*
X125750000Y-83375000I250000J0D01*
G01*
X126250000Y-83375000D01*
G75*
G02*
X126500000Y-83625000I0J-250000D01*
G01*
G37*
%TD.AperFunction*%
%TD*%
%TO.P,C2,2*%
%TO.N,+5V*%
%TA.AperFunction,SMDPad,CuDef*%
G36*
G01*
X157575000Y-82100000D02*
X156625000Y-82100000D01*
G75*
G02*
X156375000Y-81850000I0J250000D01*
G01*
X156375000Y-81350000D01*
G75*
G02*
X156625000Y-81100000I250000J0D01*
G01*
X157575000Y-81100000D01*
G75*
G02*
X157825000Y-81350000I0J-250000D01*
G01*
X157825000Y-81850000D01*
G75*
G02*
X157575000Y-82100000I-250000J0D01*
G01*
G37*
%TD.AperFunction*%
%TO.P,C2,1*%
%TO.N,GND*%
%TA.AperFunction,SMDPad,CuDef*%
G36*
G01*
X157575000Y-84000000D02*
X156625000Y-84000000D01*
G75*
G02*
X156375000Y-83750000I0J250000D01*
G01*
X156375000Y-83250000D01*
G75*
G02*
X156625000Y-83000000I250000J0D01*
G01*
X157575000Y-83000000D01*
G75*
G02*
X157825000Y-83250000I0J-250000D01*
G01*
X157825000Y-83750000D01*
G75*
G02*
X157575000Y-84000000I-250000J0D01*
G01*
G37*
%TD.AperFunction*%
%TD*%
%TO.P,C1,2*%
%TO.N,+5V*%
%TA.AperFunction,SMDPad,CuDef*%
G36*
G01*
X124599000Y-68368000D02*
X125549000Y-68368000D01*
G75*
G02*
X125799000Y-68618000I0J-250000D01*
G01*
X125799000Y-69118000D01*
G75*
G02*
X125549000Y-69368000I-250000J0D01*
G01*
X124599000Y-69368000D01*
G75*
G02*
X124349000Y-69118000I0J250000D01*
G01*
X124349000Y-68618000D01*
G75*
G02*
X124599000Y-68368000I250000J0D01*
G01*
G37*
%TD.AperFunction*%
%TO.P,C1,1*%
%TO.N,GND*%
%TA.AperFunction,SMDPad,CuDef*%
G36*
G01*
X124599000Y-66468000D02*
X125549000Y-66468000D01*
G75*
G02*
X125799000Y-66718000I0J-250000D01*
G01*
X125799000Y-67218000D01*
G75*
G02*
X125549000Y-67468000I-250000J0D01*
G01*
X124599000Y-67468000D01*
G75*
G02*
X124349000Y-67218000I0J250000D01*
G01*
X124349000Y-66718000D01*
G75*
G02*
X124599000Y-66468000I250000J0D01*
G01*
G37*
%TD.AperFunction*%
%TD*%
D24*
%TO.N,+5V*%
X157100000Y-81600000D03*
X124900000Y-74700000D03*
X128050000Y-76800000D03*
X130300000Y-81900000D03*
X157100000Y-86450000D03*
%TO.N,GND*%
X162200000Y-65900000D03*
D25*
X120575000Y-62100000D03*
X120475000Y-85675000D03*
D24*
X162850000Y-86450000D03*
X149100000Y-79450000D03*
X145750000Y-71300000D03*
X146250000Y-67550000D03*
X148600000Y-75150000D03*
X119250000Y-74300000D03*
X119250000Y-72450000D03*
X138050000Y-71750000D03*
X165325000Y-71550000D03*
X166700000Y-71250000D03*
X164125000Y-71200000D03*
X147550000Y-71100000D03*
X144300000Y-67525000D03*
X142550000Y-65350000D03*
X139500000Y-65350000D03*
X136000000Y-71450000D03*
X154500000Y-88800000D03*
X142450000Y-88750000D03*
X159550000Y-71400000D03*
X159750000Y-67050000D03*
X161850000Y-59000000D03*
X163800000Y-59000000D03*
X169200000Y-59100000D03*
X162650000Y-83400000D03*
%TO.N,+3V3*%
X150400000Y-74100000D03*
X164450000Y-65850000D03*
X141500000Y-70600000D03*
X141250000Y-66400000D03*
X125625000Y-80175000D03*
X151275000Y-66275000D03*
X140500000Y-83350000D03*
X147150000Y-85550000D03*
X159550000Y-64350000D03*
X134472000Y-66968000D03*
%TO.N,Net-(C10-Pad1)*%
X139900000Y-68100000D03*
%TO.N,Net-(C11-Pad1)*%
X139000000Y-69150000D03*
%TO.N,+3.3VA*%
X165100000Y-77700000D03*
X167398101Y-74100000D03*
%TO.N,/USR*%
X145500000Y-85600000D03*
X146800000Y-76600000D03*
%TO.N,Net-(C19-Pad1)*%
X149950000Y-78150000D03*
%TO.N,Net-(C21-Pad2)*%
X144300000Y-79500000D03*
%TO.N,Net-(C22-Pad1)*%
X144350000Y-80800000D03*
%TO.N,Net-(C23-Pad2)*%
X175650000Y-63400000D03*
%TO.N,/LIP*%
X173700000Y-63400000D03*
X172900000Y-73000000D03*
%TO.N,/RIP*%
X173750000Y-61400000D03*
X173650000Y-68800000D03*
D25*
%TO.N,GNDA*%
X183575000Y-62175000D03*
X183575000Y-85775000D03*
D24*
X180800000Y-65000000D03*
X180800000Y-67900000D03*
X180800000Y-70400000D03*
X182800000Y-73150000D03*
X184850000Y-73200000D03*
X184850000Y-81750000D03*
X182750000Y-81750000D03*
X180200000Y-81750000D03*
X167250000Y-87050000D03*
X170950000Y-87050000D03*
X177250000Y-87050000D03*
X167500000Y-76800000D03*
X167500000Y-79150000D03*
X172500000Y-79850000D03*
X172500000Y-75150000D03*
%TO.N,/MICBIAS*%
X169050000Y-73250000D03*
%TO.N,/LCD_CS*%
X135300000Y-74750000D03*
%TO.N,/LCD_CLK*%
X134900000Y-76850000D03*
%TO.N,/LCD_MOSI*%
X134700000Y-78000000D03*
%TO.N,/LCD_RS*%
X133000000Y-75800000D03*
%TO.N,/LCD_RST*%
X132800000Y-71850000D03*
%TO.N,/USB1_D+*%
X153200000Y-68050000D03*
%TO.N,/USB1_D-*%
X153200000Y-69150000D03*
%TO.N,Net-(R8-Pad2)*%
X169050000Y-63600000D03*
%TO.N,/MCLK*%
X144400000Y-74950000D03*
X162200000Y-63650000D03*
%TO.N,/SDA*%
X141850000Y-62450000D03*
X157300000Y-65300000D03*
%TO.N,/SCL*%
X142750000Y-61400000D03*
X158250000Y-64250000D03*
%TO.N,Net-(R18-Pad2)*%
X149400000Y-80750000D03*
%TO.N,/SDIN*%
X169500000Y-67000000D03*
X155700000Y-68050000D03*
%TO.N,/SDOUT*%
X171300000Y-67600000D03*
X156550000Y-68900000D03*
%TO.N,/BCLK*%
X171000000Y-68900000D03*
X157450000Y-69900000D03*
%TO.N,/LRCK*%
X171050000Y-69900000D03*
X158050000Y-71250000D03*
%TO.N,/AMP_OUT*%
X145000000Y-76950000D03*
X141200000Y-72300000D03*
%TO.N,/d_N*%
X135150000Y-64950000D03*
%TO.N,/d_P*%
X135150000Y-63400000D03*
%TD*%
D26*
%TO.N,+5V*%
X127057000Y-68868000D02*
X127425000Y-68500000D01*
X125074000Y-68868000D02*
X127057000Y-68868000D01*
X124900000Y-69042000D02*
X125074000Y-68868000D01*
X124900000Y-74700000D02*
X124900000Y-69042000D01*
X157100000Y-86450000D02*
X159300000Y-84250000D01*
X159300000Y-84250000D02*
X159300000Y-82550000D01*
X158350000Y-81600000D02*
X157100000Y-81600000D01*
X159300000Y-82550000D02*
X158350000Y-81600000D01*
X129500000Y-81900000D02*
X130300000Y-81900000D01*
X128050000Y-80450000D02*
X129500000Y-81900000D01*
X128050000Y-76800000D02*
X128050000Y-80450000D01*
D27*
%TO.N,GND*%
X163250000Y-58500000D02*
X162500000Y-58500000D01*
D26*
X134472000Y-68868000D02*
X134983000Y-68868000D01*
D27*
X132300000Y-73325000D02*
X132300000Y-73400000D01*
X132300000Y-73400000D02*
X132300000Y-74350000D01*
X164700000Y-67750000D02*
X164650000Y-67750000D01*
D26*
X164925000Y-83400000D02*
X162650000Y-83400000D01*
D27*
%TO.N,/NRST*%
X124100000Y-82425000D02*
X123975000Y-82300000D01*
X124100000Y-84100000D02*
X124100000Y-82425000D01*
X124100000Y-86200000D02*
X124150000Y-86250000D01*
X124100000Y-84100000D02*
X124100000Y-86200000D01*
D28*
%TO.N,+3V3*%
X141250000Y-66400000D02*
X141250000Y-66400000D01*
D27*
X141250000Y-70350000D02*
X141500000Y-70600000D01*
X141250000Y-66400000D02*
X141250000Y-70350000D01*
D26*
X129725000Y-68500000D02*
X129725000Y-67875000D01*
X130632000Y-66968000D02*
X134472000Y-66968000D01*
X129725000Y-67875000D02*
X130632000Y-66968000D01*
D27*
X129500000Y-68725000D02*
X129725000Y-68500000D01*
D26*
X129500000Y-70575000D02*
X129500000Y-68725000D01*
D27*
X132685002Y-70575000D02*
X129500000Y-70575000D01*
X134800000Y-72689998D02*
X132685002Y-70575000D01*
X134800000Y-73325000D02*
X134800000Y-72689998D01*
X166800000Y-62000000D02*
X166825000Y-62025000D01*
X164900000Y-62000000D02*
X166800000Y-62000000D01*
X137100000Y-61800000D02*
X137200000Y-61700000D01*
X137100000Y-65292478D02*
X137100000Y-61800000D01*
X135424478Y-66968000D02*
X137100000Y-65292478D01*
X134472000Y-66968000D02*
X135424478Y-66968000D01*
X137200000Y-61700000D02*
X138675000Y-61700000D01*
X125625000Y-80175000D02*
X125625000Y-82300000D01*
X150150000Y-74350000D02*
X150400000Y-74100000D01*
X150150000Y-75575000D02*
X150150000Y-74350000D01*
X151300000Y-66300000D02*
X151275000Y-66275000D01*
X158100000Y-66300000D02*
X151300000Y-66300000D01*
X153600000Y-63500000D02*
X159200000Y-63500000D01*
X159200000Y-63500000D02*
X159550000Y-63850000D01*
X152450000Y-62350000D02*
X153600000Y-63500000D01*
X145350000Y-62350000D02*
X152450000Y-62350000D01*
X159550000Y-64850000D02*
X158100000Y-66300000D01*
X143249990Y-60249990D02*
X145350000Y-62350000D01*
X133300010Y-60249990D02*
X143249990Y-60249990D01*
X159550000Y-63850000D02*
X159550000Y-64850000D01*
X131350000Y-62200000D02*
X133300010Y-60249990D01*
X129725000Y-62200000D02*
X131350000Y-62200000D01*
D26*
X129500000Y-70575000D02*
X126500000Y-73575000D01*
X126500000Y-73575000D02*
X126500000Y-79300000D01*
D27*
X126500000Y-80150000D02*
X126475000Y-80175000D01*
D26*
X126500000Y-79300000D02*
X126500000Y-80150000D01*
X125650000Y-80150000D02*
X125625000Y-80175000D01*
X126500000Y-80150000D02*
X125650000Y-80150000D01*
D27*
X140550000Y-83400000D02*
X140500000Y-83350000D01*
X140550000Y-84950000D02*
X140550000Y-83400000D01*
D26*
X147150000Y-85550000D02*
X147150000Y-85550000D01*
D27*
X159550000Y-63850000D02*
X159550000Y-63850000D01*
X164900000Y-62000000D02*
X164050000Y-62000000D01*
X164050000Y-62000000D02*
X163250000Y-62800000D01*
X161100000Y-62800000D02*
X159550000Y-64350000D01*
X163250000Y-62800000D02*
X161100000Y-62800000D01*
D26*
X134472000Y-66968000D02*
X134472000Y-66968000D01*
X129725000Y-68500000D02*
X129725000Y-62200000D01*
X138450000Y-82850000D02*
X140550000Y-84950000D01*
X129150000Y-82850000D02*
X138450000Y-82850000D01*
X126475000Y-80175000D02*
X129150000Y-82850000D01*
X147150000Y-87050000D02*
X147150000Y-85550000D01*
X146550000Y-87650000D02*
X147150000Y-87050000D01*
X143250000Y-87650000D02*
X146550000Y-87650000D01*
X140550000Y-84950000D02*
X143250000Y-87650000D01*
D27*
%TO.N,Net-(C10-Pad1)*%
X140850000Y-74000000D02*
X142200000Y-75350000D01*
X139200000Y-74000000D02*
X139250000Y-74000000D01*
X139200000Y-72450000D02*
X139950000Y-71700000D01*
X139200000Y-74000000D02*
X139200000Y-72450000D01*
X139250000Y-74000000D02*
X140850000Y-74000000D01*
X139950000Y-68150000D02*
X139900000Y-68100000D01*
X139950000Y-71700000D02*
X139950000Y-68150000D01*
%TO.N,Net-(C11-Pad1)*%
X139200000Y-79400000D02*
X139950000Y-80150000D01*
X139200000Y-77700000D02*
X139200000Y-77800000D01*
X141500000Y-77700000D02*
X142200000Y-77000000D01*
X139200000Y-77700000D02*
X141500000Y-77700000D01*
X139200000Y-77800000D02*
X139200000Y-79400000D01*
X139200000Y-77500000D02*
X137150000Y-75450000D01*
D28*
X139200000Y-77700000D02*
X139200000Y-77500000D01*
D27*
X137950000Y-69150000D02*
X139000000Y-69150000D01*
X136850000Y-70250000D02*
X137950000Y-69150000D01*
X136850000Y-72550000D02*
X136850000Y-70250000D01*
X137150000Y-72850000D02*
X136850000Y-72550000D01*
X137150000Y-75450000D02*
X137150000Y-72850000D01*
D29*
%TO.N,+3.3VA*%
X167350000Y-74050000D02*
X167400000Y-74000000D01*
X165350000Y-74050000D02*
X167350000Y-74050000D01*
D27*
X165250000Y-77725000D02*
X165250000Y-78900000D01*
X164750000Y-79400000D02*
X160150000Y-79400000D01*
X165250000Y-78900000D02*
X164750000Y-79400000D01*
D29*
X165275000Y-74125000D02*
X165350000Y-74050000D01*
X165275000Y-77775000D02*
X165275000Y-74125000D01*
X165300000Y-77800000D02*
X165275000Y-77775000D01*
D27*
%TO.N,Net-(C16-Pad2)*%
X165450000Y-63575000D02*
X164900000Y-64125000D01*
X166825000Y-63575000D02*
X165450000Y-63575000D01*
X166750000Y-63650000D02*
X166825000Y-63575000D01*
X166750000Y-65400000D02*
X166750000Y-63650000D01*
%TO.N,/USR*%
X145500000Y-83700000D02*
X145400000Y-83600000D01*
X145500000Y-85550000D02*
X145500000Y-83700000D01*
X145400000Y-78100000D02*
X145400000Y-83600000D01*
X146800000Y-76700000D02*
X145400000Y-78100000D01*
X146800000Y-76600000D02*
X146800000Y-76700000D01*
%TO.N,Net-(C19-Pad2)*%
X153000000Y-80300000D02*
X152850000Y-80300000D01*
X155450000Y-77850000D02*
X153000000Y-80300000D01*
X155450000Y-73760000D02*
X155450000Y-77850000D01*
%TO.N,Net-(C19-Pad1)*%
X150150000Y-77950000D02*
X149950000Y-78150000D01*
X150150000Y-77225000D02*
X150150000Y-77950000D01*
X150100000Y-78300000D02*
X149950000Y-78150000D01*
X151975000Y-79275000D02*
X152850000Y-78400000D01*
X151100000Y-79275000D02*
X151975000Y-79275000D01*
X149950000Y-78150000D02*
X151000000Y-78150000D01*
X151100000Y-78250000D02*
X151100000Y-79275000D01*
X151000000Y-78150000D02*
X151100000Y-78250000D01*
%TO.N,Net-(C22-Pad2)*%
X147500000Y-81200000D02*
X147750000Y-80950000D01*
X146300000Y-81200000D02*
X147500000Y-81200000D01*
%TO.N,Net-(C23-Pad2)*%
X182325000Y-77800000D02*
X182550000Y-78025000D01*
X182325000Y-76200000D02*
X182325000Y-77800000D01*
X182325000Y-76200000D02*
X183875000Y-76200000D01*
X182675000Y-77900000D02*
X182550000Y-78025000D01*
X185200000Y-77900000D02*
X182675000Y-77900000D01*
X181275000Y-75150000D02*
X182325000Y-76200000D01*
X179700000Y-75150000D02*
X181275000Y-75150000D01*
X177700000Y-73150000D02*
X179700000Y-75150000D01*
X176300000Y-73150000D02*
X177700000Y-73150000D01*
X175475000Y-72325000D02*
X176300000Y-73150000D01*
X175475000Y-69175000D02*
X175475000Y-72325000D01*
X176125010Y-68524990D02*
X175475000Y-69175000D01*
X176125010Y-64475010D02*
X176125010Y-68524990D01*
X175650000Y-64000000D02*
X176125010Y-64475010D01*
X175650000Y-63400000D02*
X175650000Y-64000000D01*
%TO.N,/LIP*%
X172900000Y-70975000D02*
X172900000Y-73000000D01*
X175675000Y-68200000D02*
X172900000Y-70975000D01*
X175675000Y-65375000D02*
X175675000Y-68200000D01*
X173700000Y-63400000D02*
X175675000Y-65375000D01*
%TO.N,/RIP*%
X172150000Y-67300000D02*
X173650000Y-68800000D01*
X172150000Y-61850000D02*
X172150000Y-67300000D01*
X172600000Y-61400000D02*
X172150000Y-61850000D01*
X173750000Y-61400000D02*
X172600000Y-61400000D01*
%TO.N,/MICBIAS*%
X180675000Y-77225000D02*
X180100000Y-77800000D01*
X180675000Y-76200000D02*
X180675000Y-77225000D01*
X169050000Y-73250000D02*
X170250000Y-73250000D01*
X170725001Y-73725001D02*
X177275001Y-73725001D01*
X170250000Y-73250000D02*
X170725001Y-73725001D01*
X179750000Y-76200000D02*
X180675000Y-76200000D01*
X177275001Y-73725001D02*
X179750000Y-76200000D01*
%TO.N,/LCD_CS*%
X135300000Y-73325000D02*
X135300000Y-74750000D01*
%TO.N,/LCD_CLK*%
X134300000Y-73325000D02*
X134300000Y-76250000D01*
X134300000Y-76250000D02*
X134900000Y-76850000D01*
X134900000Y-76850000D02*
X134900000Y-76850000D01*
%TO.N,/LCD_MOSI*%
X133800000Y-73325000D02*
X133800000Y-77100000D01*
X133800000Y-77100000D02*
X134700000Y-78000000D01*
X134700000Y-78000000D02*
X134700000Y-78000000D01*
%TO.N,/LCD_RS*%
X133300000Y-75500000D02*
X133000000Y-75800000D01*
X133300000Y-73325000D02*
X133300000Y-75500000D01*
%TO.N,/LCD_RST*%
X132800000Y-73325000D02*
X132800000Y-71850000D01*
%TO.N,Net-(J4-Pad1)*%
X130600000Y-73325000D02*
X129500000Y-72225000D01*
X131800000Y-73325000D02*
X130600000Y-73325000D01*
D28*
%TO.N,/USB1_D+*%
X153025000Y-68225000D02*
X153200000Y-68050000D01*
X152875000Y-68375000D02*
X150343200Y-68375000D01*
X153200000Y-68050000D02*
X152875000Y-68375000D01*
X138475000Y-63900000D02*
X137925000Y-63350000D01*
X145868200Y-63900000D02*
X138475000Y-63900000D01*
X150343200Y-68375000D02*
X145868200Y-63900000D01*
%TO.N,/USB1_D-*%
X153200000Y-69150000D02*
X152875000Y-68825000D01*
X152875000Y-68825000D02*
X150156800Y-68825000D01*
X138475000Y-64350000D02*
X137925000Y-64900000D01*
X145681800Y-64350000D02*
X138475000Y-64350000D01*
X150156800Y-68825000D02*
X145681800Y-64350000D01*
D27*
%TO.N,/MCLK*%
X162200000Y-63650000D02*
X162225000Y-63625000D01*
X144400000Y-74950000D02*
X144500000Y-74950000D01*
X144400000Y-71400000D02*
X144400000Y-74950000D01*
X154200000Y-70100000D02*
X145700000Y-70100000D01*
X154525000Y-69775000D02*
X154200000Y-70100000D01*
X154525000Y-67825000D02*
X154525000Y-69775000D01*
X155300000Y-67050000D02*
X154525000Y-67825000D01*
X145700000Y-70100000D02*
X144400000Y-71400000D01*
X158300000Y-67050000D02*
X155300000Y-67050000D01*
X161700000Y-63650000D02*
X158300000Y-67050000D01*
X162200000Y-63650000D02*
X161700000Y-63650000D01*
%TO.N,/SDA*%
X141100000Y-61700000D02*
X141850000Y-62450000D01*
X140325000Y-61700000D02*
X141100000Y-61700000D01*
X142800000Y-63400000D02*
X141850000Y-62450000D01*
X142800000Y-63400000D02*
X146350000Y-63400000D01*
X148250000Y-65300000D02*
X157300000Y-65300000D01*
X146350000Y-63400000D02*
X148250000Y-65300000D01*
%TO.N,/SCL*%
X144250000Y-62900000D02*
X142750000Y-61400000D01*
X144250000Y-62900000D02*
X146800000Y-62900000D01*
X146800000Y-62900000D02*
X148650000Y-64750000D01*
X148650000Y-64750000D02*
X155750000Y-64750000D01*
X156250000Y-64250000D02*
X158250000Y-64250000D01*
X155750000Y-64750000D02*
X156250000Y-64250000D01*
X142050000Y-60700000D02*
X142750000Y-61400000D01*
X136550000Y-60700000D02*
X142050000Y-60700000D01*
X135550000Y-61700000D02*
X136550000Y-60700000D01*
%TO.N,/SDIN*%
X169500000Y-67500000D02*
X169500000Y-67000000D01*
X169500000Y-67850000D02*
X169500000Y-67500000D01*
X168550000Y-68800000D02*
X169500000Y-67850000D01*
X162200000Y-68800000D02*
X168550000Y-68800000D01*
X161450000Y-68050000D02*
X162200000Y-68800000D01*
X155700000Y-68050000D02*
X161450000Y-68050000D01*
%TO.N,/SDOUT*%
X171300000Y-67600000D02*
X170550000Y-67600000D01*
X168899990Y-69250010D02*
X161900010Y-69250010D01*
X170550000Y-67600000D02*
X168899990Y-69250010D01*
X161550000Y-68900000D02*
X156550000Y-68900000D01*
X161900010Y-69250010D02*
X161550000Y-68900000D01*
%TO.N,/BCLK*%
X171000000Y-68900000D02*
X169950000Y-68900000D01*
X169149980Y-69700020D02*
X161650020Y-69700020D01*
X169950000Y-68900000D02*
X169149980Y-69700020D01*
X161450040Y-69900000D02*
X157450000Y-69900000D01*
X161650020Y-69700020D02*
X161450040Y-69900000D01*
%TO.N,/LRCK*%
X171050000Y-69900000D02*
X169650000Y-69900000D01*
X161686450Y-70300000D02*
X161586450Y-70400000D01*
X169250000Y-70300000D02*
X161686450Y-70300000D01*
X169650000Y-69900000D02*
X169250000Y-70300000D01*
X158900000Y-70400000D02*
X158050000Y-71250000D01*
X161586450Y-70400000D02*
X158900000Y-70400000D01*
%TO.N,/AMP_OUT*%
X141200000Y-72300000D02*
X141200000Y-72300000D01*
X143850000Y-76950000D02*
X145000000Y-76950000D01*
X143250000Y-76350000D02*
X143850000Y-76950000D01*
X143250000Y-74350000D02*
X143250000Y-76350000D01*
X141200000Y-72300000D02*
X143250000Y-74350000D01*
%TO.N,/d_N*%
X136225000Y-64950000D02*
X136275000Y-64900000D01*
X135150000Y-64950000D02*
X136225000Y-64950000D01*
%TO.N,/d_P*%
X136225000Y-63400000D02*
X136275000Y-63350000D01*
X135150000Y-63400000D02*
X136225000Y-63400000D01*
%TD*%
D30*
%TO.N,GND*%
X171073344Y-66373000D02*
X170325836Y-66373000D01*
X170303937Y-66340226D01*
X170159774Y-66196063D01*
X169990256Y-66082795D01*
X169801898Y-66004774D01*
X169787211Y-66001853D01*
X169785000Y-65685750D01*
X169626250Y-65527000D01*
X168777000Y-65527000D01*
X168777000Y-65547000D01*
X168523000Y-65547000D01*
X168523000Y-65527000D01*
X168503000Y-65527000D01*
X168503000Y-65273000D01*
X168523000Y-65273000D01*
X168523000Y-65253000D01*
X168777000Y-65253000D01*
X168777000Y-65273000D01*
X169626250Y-65273000D01*
X169785000Y-65114250D01*
X169788072Y-64675000D01*
X169778966Y-64582545D01*
X169829494Y-64555537D01*
X169926185Y-64476185D01*
X170005537Y-64379494D01*
X170064502Y-64269180D01*
X170100812Y-64149482D01*
X170113072Y-64025000D01*
X170113072Y-63125000D01*
X170100812Y-63000518D01*
X170064502Y-62880820D01*
X170021302Y-62800000D01*
X170064502Y-62719180D01*
X170100812Y-62599482D01*
X170113072Y-62475000D01*
X170110000Y-62310750D01*
X169951250Y-62152000D01*
X169102000Y-62152000D01*
X169102000Y-62172000D01*
X168848000Y-62172000D01*
X168848000Y-62152000D01*
X168828000Y-62152000D01*
X168828000Y-61898000D01*
X168848000Y-61898000D01*
X168848000Y-61098750D01*
X169102000Y-61098750D01*
X169102000Y-61898000D01*
X169951250Y-61898000D01*
X170110000Y-61739250D01*
X170113072Y-61575000D01*
X170100812Y-61450518D01*
X170064502Y-61330820D01*
X170005537Y-61220506D01*
X169926185Y-61123815D01*
X169829494Y-61044463D01*
X169719180Y-60985498D01*
X169599482Y-60949188D01*
X169475000Y-60936928D01*
X169260750Y-60940000D01*
X169102000Y-61098750D01*
X168848000Y-61098750D01*
X168689250Y-60940000D01*
X168475000Y-60936928D01*
X168350518Y-60949188D01*
X168230820Y-60985498D01*
X168120506Y-61044463D01*
X168023815Y-61123815D01*
X167944463Y-61220506D01*
X167900000Y-61303689D01*
X167855537Y-61220506D01*
X167776185Y-61123815D01*
X167679494Y-61044463D01*
X167569180Y-60985498D01*
X167449482Y-60949188D01*
X167325000Y-60936928D01*
X166325000Y-60936928D01*
X166200518Y-60949188D01*
X166080820Y-60985498D01*
X165970506Y-61044463D01*
X165873815Y-61123815D01*
X165853878Y-61148108D01*
X165757275Y-61068829D01*
X165609142Y-60989650D01*
X165448408Y-60940892D01*
X165281250Y-60924428D01*
X164518750Y-60924428D01*
X164351592Y-60940892D01*
X164190858Y-60989650D01*
X164042725Y-61068829D01*
X163912885Y-61175385D01*
X163834199Y-61271265D01*
X163757753Y-61294454D01*
X163646072Y-61354150D01*
X163646072Y-60210000D01*
X163633812Y-60085518D01*
X163597502Y-59965820D01*
X163538537Y-59855506D01*
X163459185Y-59758815D01*
X163362494Y-59679463D01*
X163308388Y-59650542D01*
X163305085Y-58435000D01*
X171094915Y-58435000D01*
X171073344Y-66373000D01*
%TA.AperFunction,Conductor*%
D31*
G36*
X171073344Y-66373000D02*
G01*
X170325836Y-66373000D01*
X170303937Y-66340226D01*
X170159774Y-66196063D01*
X169990256Y-66082795D01*
X169801898Y-66004774D01*
X169787211Y-66001853D01*
X169785000Y-65685750D01*
X169626250Y-65527000D01*
X168777000Y-65527000D01*
X168777000Y-65547000D01*
X168523000Y-65547000D01*
X168523000Y-65527000D01*
X168503000Y-65527000D01*
X168503000Y-65273000D01*
X168523000Y-65273000D01*
X168523000Y-65253000D01*
X168777000Y-65253000D01*
X168777000Y-65273000D01*
X169626250Y-65273000D01*
X169785000Y-65114250D01*
X169788072Y-64675000D01*
X169778966Y-64582545D01*
X169829494Y-64555537D01*
X169926185Y-64476185D01*
X170005537Y-64379494D01*
X170064502Y-64269180D01*
X170100812Y-64149482D01*
X170113072Y-64025000D01*
X170113072Y-63125000D01*
X170100812Y-63000518D01*
X170064502Y-62880820D01*
X170021302Y-62800000D01*
X170064502Y-62719180D01*
X170100812Y-62599482D01*
X170113072Y-62475000D01*
X170110000Y-62310750D01*
X169951250Y-62152000D01*
X169102000Y-62152000D01*
X169102000Y-62172000D01*
X168848000Y-62172000D01*
X168848000Y-62152000D01*
X168828000Y-62152000D01*
X168828000Y-61898000D01*
X168848000Y-61898000D01*
X168848000Y-61098750D01*
X169102000Y-61098750D01*
X169102000Y-61898000D01*
X169951250Y-61898000D01*
X170110000Y-61739250D01*
X170113072Y-61575000D01*
X170100812Y-61450518D01*
X170064502Y-61330820D01*
X170005537Y-61220506D01*
X169926185Y-61123815D01*
X169829494Y-61044463D01*
X169719180Y-60985498D01*
X169599482Y-60949188D01*
X169475000Y-60936928D01*
X169260750Y-60940000D01*
X169102000Y-61098750D01*
X168848000Y-61098750D01*
X168689250Y-60940000D01*
X168475000Y-60936928D01*
X168350518Y-60949188D01*
X168230820Y-60985498D01*
X168120506Y-61044463D01*
X168023815Y-61123815D01*
X167944463Y-61220506D01*
X167900000Y-61303689D01*
X167855537Y-61220506D01*
X167776185Y-61123815D01*
X167679494Y-61044463D01*
X167569180Y-60985498D01*
X167449482Y-60949188D01*
X167325000Y-60936928D01*
X166325000Y-60936928D01*
X166200518Y-60949188D01*
X166080820Y-60985498D01*
X165970506Y-61044463D01*
X165873815Y-61123815D01*
X165853878Y-61148108D01*
X165757275Y-61068829D01*
X165609142Y-60989650D01*
X165448408Y-60940892D01*
X165281250Y-60924428D01*
X164518750Y-60924428D01*
X164351592Y-60940892D01*
X164190858Y-60989650D01*
X164042725Y-61068829D01*
X163912885Y-61175385D01*
X163834199Y-61271265D01*
X163757753Y-61294454D01*
X163646072Y-61354150D01*
X163646072Y-60210000D01*
X163633812Y-60085518D01*
X163597502Y-59965820D01*
X163538537Y-59855506D01*
X163459185Y-59758815D01*
X163362494Y-59679463D01*
X163308388Y-59650542D01*
X163305085Y-58435000D01*
X171094915Y-58435000D01*
X171073344Y-66373000D01*
G37*
%TD.AperFunction*%
%TD*%
D30*
%TO.N,GNDA*%
X170161197Y-74235998D02*
X170185000Y-74265002D01*
X170300725Y-74359975D01*
X170432754Y-74430547D01*
X170576015Y-74474004D01*
X170687668Y-74485001D01*
X170687678Y-74485001D01*
X170725001Y-74488677D01*
X170762324Y-74485001D01*
X176960200Y-74485001D01*
X179186201Y-76711003D01*
X179209999Y-76740001D01*
X179231912Y-76757984D01*
X179131614Y-76811595D01*
X178997038Y-76922038D01*
X178886595Y-77056614D01*
X178804528Y-77210150D01*
X178753992Y-77376746D01*
X178736928Y-77550000D01*
X178736928Y-78050000D01*
X178753992Y-78223254D01*
X178804528Y-78389850D01*
X178886595Y-78543386D01*
X178997038Y-78677962D01*
X179131614Y-78788405D01*
X179285150Y-78870472D01*
X179451746Y-78921008D01*
X179625000Y-78938072D01*
X180575000Y-78938072D01*
X180748254Y-78921008D01*
X180914850Y-78870472D01*
X181068386Y-78788405D01*
X181202962Y-78677962D01*
X181313405Y-78543386D01*
X181360265Y-78455717D01*
X181429858Y-78623729D01*
X181568187Y-78830753D01*
X181744247Y-79006813D01*
X181951271Y-79145142D01*
X182181305Y-79240425D01*
X182425507Y-79289000D01*
X182674493Y-79289000D01*
X182918695Y-79240425D01*
X183148729Y-79145142D01*
X183355753Y-79006813D01*
X183531813Y-78830753D01*
X183645906Y-78660000D01*
X184000230Y-78660000D01*
X184097038Y-78777962D01*
X184231614Y-78888405D01*
X184385150Y-78970472D01*
X184551746Y-79021008D01*
X184725000Y-79038072D01*
X185675000Y-79038072D01*
X185848254Y-79021008D01*
X186014850Y-78970472D01*
X186168386Y-78888405D01*
X186282415Y-78794824D01*
X186266355Y-89266440D01*
X166227000Y-89299113D01*
X166227000Y-76650000D01*
X166224560Y-76625224D01*
X166217333Y-76601399D01*
X166205597Y-76579443D01*
X166189803Y-76560197D01*
X166170557Y-76544403D01*
X166148601Y-76532667D01*
X166124776Y-76525440D01*
X166104819Y-76523091D01*
X166060000Y-76521389D01*
X166060000Y-75152278D01*
X166164850Y-75120472D01*
X166318386Y-75038405D01*
X166405463Y-74966943D01*
X166431614Y-74988405D01*
X166585150Y-75070472D01*
X166751746Y-75121008D01*
X166925000Y-75138072D01*
X167875000Y-75138072D01*
X168048254Y-75121008D01*
X168214850Y-75070472D01*
X168368386Y-74988405D01*
X168502962Y-74877962D01*
X168613405Y-74743386D01*
X168695472Y-74589850D01*
X168746008Y-74423254D01*
X168763072Y-74250000D01*
X168763072Y-74248204D01*
X168948061Y-74285000D01*
X169151939Y-74285000D01*
X169351898Y-74245226D01*
X169540256Y-74167205D01*
X169709774Y-74053937D01*
X169753711Y-74010000D01*
X169935199Y-74010000D01*
X170161197Y-74235998D01*
%TA.AperFunction,Conductor*%
D31*
G36*
X170161197Y-74235998D02*
G01*
X170185000Y-74265002D01*
X170300725Y-74359975D01*
X170432754Y-74430547D01*
X170576015Y-74474004D01*
X170687668Y-74485001D01*
X170687678Y-74485001D01*
X170725001Y-74488677D01*
X170762324Y-74485001D01*
X176960200Y-74485001D01*
X179186201Y-76711003D01*
X179209999Y-76740001D01*
X179231912Y-76757984D01*
X179131614Y-76811595D01*
X178997038Y-76922038D01*
X178886595Y-77056614D01*
X178804528Y-77210150D01*
X178753992Y-77376746D01*
X178736928Y-77550000D01*
X178736928Y-78050000D01*
X178753992Y-78223254D01*
X178804528Y-78389850D01*
X178886595Y-78543386D01*
X178997038Y-78677962D01*
X179131614Y-78788405D01*
X179285150Y-78870472D01*
X179451746Y-78921008D01*
X179625000Y-78938072D01*
X180575000Y-78938072D01*
X180748254Y-78921008D01*
X180914850Y-78870472D01*
X181068386Y-78788405D01*
X181202962Y-78677962D01*
X181313405Y-78543386D01*
X181360265Y-78455717D01*
X181429858Y-78623729D01*
X181568187Y-78830753D01*
X181744247Y-79006813D01*
X181951271Y-79145142D01*
X182181305Y-79240425D01*
X182425507Y-79289000D01*
X182674493Y-79289000D01*
X182918695Y-79240425D01*
X183148729Y-79145142D01*
X183355753Y-79006813D01*
X183531813Y-78830753D01*
X183645906Y-78660000D01*
X184000230Y-78660000D01*
X184097038Y-78777962D01*
X184231614Y-78888405D01*
X184385150Y-78970472D01*
X184551746Y-79021008D01*
X184725000Y-79038072D01*
X185675000Y-79038072D01*
X185848254Y-79021008D01*
X186014850Y-78970472D01*
X186168386Y-78888405D01*
X186282415Y-78794824D01*
X186266355Y-89266440D01*
X166227000Y-89299113D01*
X166227000Y-76650000D01*
X166224560Y-76625224D01*
X166217333Y-76601399D01*
X166205597Y-76579443D01*
X166189803Y-76560197D01*
X166170557Y-76544403D01*
X166148601Y-76532667D01*
X166124776Y-76525440D01*
X166104819Y-76523091D01*
X166060000Y-76521389D01*
X166060000Y-75152278D01*
X166164850Y-75120472D01*
X166318386Y-75038405D01*
X166405463Y-74966943D01*
X166431614Y-74988405D01*
X166585150Y-75070472D01*
X166751746Y-75121008D01*
X166925000Y-75138072D01*
X167875000Y-75138072D01*
X168048254Y-75121008D01*
X168214850Y-75070472D01*
X168368386Y-74988405D01*
X168502962Y-74877962D01*
X168613405Y-74743386D01*
X168695472Y-74589850D01*
X168746008Y-74423254D01*
X168763072Y-74250000D01*
X168763072Y-74248204D01*
X168948061Y-74285000D01*
X169151939Y-74285000D01*
X169351898Y-74245226D01*
X169540256Y-74167205D01*
X169709774Y-74053937D01*
X169753711Y-74010000D01*
X169935199Y-74010000D01*
X170161197Y-74235998D01*
G37*
%TD.AperFunction*%
D30*
X186285157Y-77007426D02*
X186168386Y-76911595D01*
X186014850Y-76829528D01*
X185848254Y-76778992D01*
X185675000Y-76761928D01*
X184859527Y-76761928D01*
X184896969Y-76638500D01*
X184913072Y-76475000D01*
X184913072Y-75925000D01*
X184896969Y-75761500D01*
X184849278Y-75604284D01*
X184771831Y-75459392D01*
X184667606Y-75332394D01*
X184540608Y-75228169D01*
X184395716Y-75150722D01*
X184238500Y-75103031D01*
X184075000Y-75086928D01*
X183675000Y-75086928D01*
X183511500Y-75103031D01*
X183354284Y-75150722D01*
X183209392Y-75228169D01*
X183100000Y-75317945D01*
X182990608Y-75228169D01*
X182845716Y-75150722D01*
X182688500Y-75103031D01*
X182525000Y-75086928D01*
X182286729Y-75086928D01*
X181838804Y-74639002D01*
X181815001Y-74609999D01*
X181699276Y-74515026D01*
X181567247Y-74444454D01*
X181423986Y-74400997D01*
X181312333Y-74390000D01*
X181312322Y-74390000D01*
X181275000Y-74386324D01*
X181237678Y-74390000D01*
X180014802Y-74390000D01*
X178263804Y-72639003D01*
X178240001Y-72609999D01*
X178124276Y-72515026D01*
X177992247Y-72444454D01*
X177848986Y-72400997D01*
X177737333Y-72390000D01*
X177737322Y-72390000D01*
X177700000Y-72386324D01*
X177662678Y-72390000D01*
X176614802Y-72390000D01*
X176235000Y-72010199D01*
X176235000Y-70679671D01*
X176379348Y-70739461D01*
X176608288Y-70785000D01*
X176841712Y-70785000D01*
X177070652Y-70739461D01*
X177286308Y-70650134D01*
X177480394Y-70520450D01*
X177645450Y-70355394D01*
X177775134Y-70161308D01*
X177864461Y-69945652D01*
X177910000Y-69716712D01*
X177910000Y-69483288D01*
X177890109Y-69383288D01*
X182540000Y-69383288D01*
X182540000Y-69616712D01*
X182585539Y-69845652D01*
X182674866Y-70061308D01*
X182804550Y-70255394D01*
X182969606Y-70420450D01*
X183163692Y-70550134D01*
X183379348Y-70639461D01*
X183608288Y-70685000D01*
X183841712Y-70685000D01*
X184070652Y-70639461D01*
X184286308Y-70550134D01*
X184480394Y-70420450D01*
X184645450Y-70255394D01*
X184775134Y-70061308D01*
X184864461Y-69845652D01*
X184910000Y-69616712D01*
X184910000Y-69383288D01*
X184864461Y-69154348D01*
X184775134Y-68938692D01*
X184645450Y-68744606D01*
X184480394Y-68579550D01*
X184286308Y-68449866D01*
X184070652Y-68360539D01*
X183841712Y-68315000D01*
X183608288Y-68315000D01*
X183379348Y-68360539D01*
X183163692Y-68449866D01*
X182969606Y-68579550D01*
X182804550Y-68744606D01*
X182674866Y-68938692D01*
X182585539Y-69154348D01*
X182540000Y-69383288D01*
X177890109Y-69383288D01*
X177864461Y-69254348D01*
X177775134Y-69038692D01*
X177645450Y-68844606D01*
X177480394Y-68679550D01*
X177286308Y-68549866D01*
X177070652Y-68460539D01*
X176885010Y-68423613D01*
X176885010Y-64512343D01*
X176888687Y-64475010D01*
X176874013Y-64326024D01*
X176830556Y-64182763D01*
X176759984Y-64050734D01*
X176748654Y-64036928D01*
X176665011Y-63935009D01*
X176636008Y-63911207D01*
X176581221Y-63856420D01*
X176645226Y-63701898D01*
X176685000Y-63501939D01*
X176685000Y-63298061D01*
X176645226Y-63098102D01*
X176567205Y-62909744D01*
X176453937Y-62740226D01*
X176309774Y-62596063D01*
X176140256Y-62482795D01*
X175951898Y-62404774D01*
X175751939Y-62365000D01*
X175548061Y-62365000D01*
X175348102Y-62404774D01*
X175159744Y-62482795D01*
X174990226Y-62596063D01*
X174846063Y-62740226D01*
X174732795Y-62909744D01*
X174675000Y-63049272D01*
X174617205Y-62909744D01*
X174503937Y-62740226D01*
X174359774Y-62596063D01*
X174190256Y-62482795D01*
X174002546Y-62405043D01*
X174051898Y-62395226D01*
X174240256Y-62317205D01*
X174409774Y-62203937D01*
X174553937Y-62059774D01*
X174667205Y-61890256D01*
X174745226Y-61701898D01*
X174785000Y-61501939D01*
X174785000Y-61298061D01*
X174745226Y-61098102D01*
X174667205Y-60909744D01*
X174553937Y-60740226D01*
X174409774Y-60596063D01*
X174240256Y-60482795D01*
X174051898Y-60404774D01*
X173851939Y-60365000D01*
X173648061Y-60365000D01*
X173448102Y-60404774D01*
X173259744Y-60482795D01*
X173090226Y-60596063D01*
X173046289Y-60640000D01*
X172637322Y-60640000D01*
X172599999Y-60636324D01*
X172562676Y-60640000D01*
X172562667Y-60640000D01*
X172482429Y-60647903D01*
X172462015Y-58435000D01*
X186313642Y-58435000D01*
X186285157Y-77007426D01*
%TA.AperFunction,Conductor*%
D31*
G36*
X186285157Y-77007426D02*
G01*
X186168386Y-76911595D01*
X186014850Y-76829528D01*
X185848254Y-76778992D01*
X185675000Y-76761928D01*
X184859527Y-76761928D01*
X184896969Y-76638500D01*
X184913072Y-76475000D01*
X184913072Y-75925000D01*
X184896969Y-75761500D01*
X184849278Y-75604284D01*
X184771831Y-75459392D01*
X184667606Y-75332394D01*
X184540608Y-75228169D01*
X184395716Y-75150722D01*
X184238500Y-75103031D01*
X184075000Y-75086928D01*
X183675000Y-75086928D01*
X183511500Y-75103031D01*
X183354284Y-75150722D01*
X183209392Y-75228169D01*
X183100000Y-75317945D01*
X182990608Y-75228169D01*
X182845716Y-75150722D01*
X182688500Y-75103031D01*
X182525000Y-75086928D01*
X182286729Y-75086928D01*
X181838804Y-74639002D01*
X181815001Y-74609999D01*
X181699276Y-74515026D01*
X181567247Y-74444454D01*
X181423986Y-74400997D01*
X181312333Y-74390000D01*
X181312322Y-74390000D01*
X181275000Y-74386324D01*
X181237678Y-74390000D01*
X180014802Y-74390000D01*
X178263804Y-72639003D01*
X178240001Y-72609999D01*
X178124276Y-72515026D01*
X177992247Y-72444454D01*
X177848986Y-72400997D01*
X177737333Y-72390000D01*
X177737322Y-72390000D01*
X177700000Y-72386324D01*
X177662678Y-72390000D01*
X176614802Y-72390000D01*
X176235000Y-72010199D01*
X176235000Y-70679671D01*
X176379348Y-70739461D01*
X176608288Y-70785000D01*
X176841712Y-70785000D01*
X177070652Y-70739461D01*
X177286308Y-70650134D01*
X177480394Y-70520450D01*
X177645450Y-70355394D01*
X177775134Y-70161308D01*
X177864461Y-69945652D01*
X177910000Y-69716712D01*
X177910000Y-69483288D01*
X177890109Y-69383288D01*
X182540000Y-69383288D01*
X182540000Y-69616712D01*
X182585539Y-69845652D01*
X182674866Y-70061308D01*
X182804550Y-70255394D01*
X182969606Y-70420450D01*
X183163692Y-70550134D01*
X183379348Y-70639461D01*
X183608288Y-70685000D01*
X183841712Y-70685000D01*
X184070652Y-70639461D01*
X184286308Y-70550134D01*
X184480394Y-70420450D01*
X184645450Y-70255394D01*
X184775134Y-70061308D01*
X184864461Y-69845652D01*
X184910000Y-69616712D01*
X184910000Y-69383288D01*
X184864461Y-69154348D01*
X184775134Y-68938692D01*
X184645450Y-68744606D01*
X184480394Y-68579550D01*
X184286308Y-68449866D01*
X184070652Y-68360539D01*
X183841712Y-68315000D01*
X183608288Y-68315000D01*
X183379348Y-68360539D01*
X183163692Y-68449866D01*
X182969606Y-68579550D01*
X182804550Y-68744606D01*
X182674866Y-68938692D01*
X182585539Y-69154348D01*
X182540000Y-69383288D01*
X177890109Y-69383288D01*
X177864461Y-69254348D01*
X177775134Y-69038692D01*
X177645450Y-68844606D01*
X177480394Y-68679550D01*
X177286308Y-68549866D01*
X177070652Y-68460539D01*
X176885010Y-68423613D01*
X176885010Y-64512343D01*
X176888687Y-64475010D01*
X176874013Y-64326024D01*
X176830556Y-64182763D01*
X176759984Y-64050734D01*
X176748654Y-64036928D01*
X176665011Y-63935009D01*
X176636008Y-63911207D01*
X176581221Y-63856420D01*
X176645226Y-63701898D01*
X176685000Y-63501939D01*
X176685000Y-63298061D01*
X176645226Y-63098102D01*
X176567205Y-62909744D01*
X176453937Y-62740226D01*
X176309774Y-62596063D01*
X176140256Y-62482795D01*
X175951898Y-62404774D01*
X175751939Y-62365000D01*
X175548061Y-62365000D01*
X175348102Y-62404774D01*
X175159744Y-62482795D01*
X174990226Y-62596063D01*
X174846063Y-62740226D01*
X174732795Y-62909744D01*
X174675000Y-63049272D01*
X174617205Y-62909744D01*
X174503937Y-62740226D01*
X174359774Y-62596063D01*
X174190256Y-62482795D01*
X174002546Y-62405043D01*
X174051898Y-62395226D01*
X174240256Y-62317205D01*
X174409774Y-62203937D01*
X174553937Y-62059774D01*
X174667205Y-61890256D01*
X174745226Y-61701898D01*
X174785000Y-61501939D01*
X174785000Y-61298061D01*
X174745226Y-61098102D01*
X174667205Y-60909744D01*
X174553937Y-60740226D01*
X174409774Y-60596063D01*
X174240256Y-60482795D01*
X174051898Y-60404774D01*
X173851939Y-60365000D01*
X173648061Y-60365000D01*
X173448102Y-60404774D01*
X173259744Y-60482795D01*
X173090226Y-60596063D01*
X173046289Y-60640000D01*
X172637322Y-60640000D01*
X172599999Y-60636324D01*
X172562676Y-60640000D01*
X172562667Y-60640000D01*
X172482429Y-60647903D01*
X172462015Y-58435000D01*
X186313642Y-58435000D01*
X186285157Y-77007426D01*
G37*
%TD.AperFunction*%
%TD*%
D30*
%TO.N,GND*%
X162392260Y-59571928D02*
X161308000Y-59571928D01*
X161183518Y-59584188D01*
X161063820Y-59620498D01*
X160953506Y-59679463D01*
X160856815Y-59758815D01*
X160777463Y-59855506D01*
X160718498Y-59965820D01*
X160696487Y-60038380D01*
X160564632Y-59906525D01*
X160321411Y-59744010D01*
X160051158Y-59632068D01*
X159764260Y-59575000D01*
X159471740Y-59575000D01*
X159184842Y-59632068D01*
X158914589Y-59744010D01*
X158671368Y-59906525D01*
X158464525Y-60113368D01*
X158302010Y-60356589D01*
X158190068Y-60626842D01*
X158133000Y-60913740D01*
X158133000Y-61206260D01*
X158190068Y-61493158D01*
X158302010Y-61763411D01*
X158464525Y-62006632D01*
X158671368Y-62213475D01*
X158914589Y-62375990D01*
X159184842Y-62487932D01*
X159471740Y-62545000D01*
X159764260Y-62545000D01*
X160051158Y-62487932D01*
X160321411Y-62375990D01*
X160564632Y-62213475D01*
X160696487Y-62081620D01*
X160715361Y-62143839D01*
X160675723Y-62165026D01*
X160592083Y-62233668D01*
X160559999Y-62259999D01*
X160536201Y-62288997D01*
X159800000Y-63025199D01*
X159763804Y-62989003D01*
X159740001Y-62959999D01*
X159624276Y-62865026D01*
X159492247Y-62794454D01*
X159348986Y-62750997D01*
X159237333Y-62740000D01*
X159237322Y-62740000D01*
X159200000Y-62736324D01*
X159162678Y-62740000D01*
X153914802Y-62740000D01*
X153013804Y-61839003D01*
X152990001Y-61809999D01*
X152874276Y-61715026D01*
X152742247Y-61644454D01*
X152598986Y-61600997D01*
X152487333Y-61590000D01*
X152487322Y-61590000D01*
X152450000Y-61586324D01*
X152412678Y-61590000D01*
X150462966Y-61590000D01*
X150527932Y-61433158D01*
X150585000Y-61146260D01*
X150585000Y-60853740D01*
X150527932Y-60566842D01*
X150415990Y-60296589D01*
X150253475Y-60053368D01*
X150046632Y-59846525D01*
X149803411Y-59684010D01*
X149533158Y-59572068D01*
X149246260Y-59515000D01*
X148953740Y-59515000D01*
X148666842Y-59572068D01*
X148396589Y-59684010D01*
X148153368Y-59846525D01*
X148021513Y-59978380D01*
X147999502Y-59905820D01*
X147940537Y-59795506D01*
X147861185Y-59698815D01*
X147764494Y-59619463D01*
X147654180Y-59560498D01*
X147534482Y-59524188D01*
X147410000Y-59511928D01*
X145710000Y-59511928D01*
X145585518Y-59524188D01*
X145465820Y-59560498D01*
X145355506Y-59619463D01*
X145258815Y-59698815D01*
X145179463Y-59795506D01*
X145120498Y-59905820D01*
X145084188Y-60025518D01*
X145071928Y-60150000D01*
X145071928Y-60997126D01*
X143813794Y-59738993D01*
X143789991Y-59709989D01*
X143674266Y-59615016D01*
X143542237Y-59544444D01*
X143398976Y-59500987D01*
X143287323Y-59489990D01*
X143287312Y-59489990D01*
X143249990Y-59486314D01*
X143212668Y-59489990D01*
X133337343Y-59489990D01*
X133300010Y-59486313D01*
X133262677Y-59489990D01*
X133151024Y-59500987D01*
X133007763Y-59544444D01*
X132875734Y-59615016D01*
X132760009Y-59709989D01*
X132736211Y-59738987D01*
X131865743Y-60609455D01*
X131749482Y-60574188D01*
X131625000Y-60561928D01*
X127825000Y-60561928D01*
X127700518Y-60574188D01*
X127580820Y-60610498D01*
X127470506Y-60669463D01*
X127373815Y-60748815D01*
X127294463Y-60845506D01*
X127235498Y-60955820D01*
X127199188Y-61075518D01*
X127186928Y-61200000D01*
X127186928Y-63200000D01*
X127199188Y-63324482D01*
X127235498Y-63444180D01*
X127294463Y-63554494D01*
X127373815Y-63651185D01*
X127470506Y-63730537D01*
X127580820Y-63789502D01*
X127700518Y-63825812D01*
X127825000Y-63838072D01*
X128890001Y-63838072D01*
X128890000Y-66870299D01*
X128850518Y-66874188D01*
X128730820Y-66910498D01*
X128620506Y-66969463D01*
X128575000Y-67006809D01*
X128529494Y-66969463D01*
X128419180Y-66910498D01*
X128299482Y-66874188D01*
X128175000Y-66861928D01*
X126675000Y-66861928D01*
X126550518Y-66874188D01*
X126430820Y-66910498D01*
X126320506Y-66969463D01*
X126223815Y-67048815D01*
X126144463Y-67145506D01*
X126085498Y-67255820D01*
X126049188Y-67375518D01*
X126036928Y-67500000D01*
X126036928Y-67876678D01*
X125888850Y-67797528D01*
X125722254Y-67746992D01*
X125549000Y-67729928D01*
X124599000Y-67729928D01*
X124425746Y-67746992D01*
X124259150Y-67797528D01*
X124105614Y-67879595D01*
X123971038Y-67990038D01*
X123860595Y-68124614D01*
X123778528Y-68278150D01*
X123727992Y-68444746D01*
X123710928Y-68618000D01*
X123710928Y-69118000D01*
X123727992Y-69291254D01*
X123778528Y-69457850D01*
X123860595Y-69611386D01*
X123971038Y-69745962D01*
X124065001Y-69823075D01*
X124065000Y-74086715D01*
X123982795Y-74209744D01*
X123904774Y-74398102D01*
X123865000Y-74598061D01*
X123865000Y-74801939D01*
X123904774Y-75001898D01*
X123982795Y-75190256D01*
X124096063Y-75359774D01*
X124240226Y-75503937D01*
X124409744Y-75617205D01*
X124598102Y-75695226D01*
X124798061Y-75735000D01*
X125001939Y-75735000D01*
X125201898Y-75695226D01*
X125390256Y-75617205D01*
X125559774Y-75503937D01*
X125665000Y-75398711D01*
X125665001Y-79140000D01*
X125523061Y-79140000D01*
X125323102Y-79179774D01*
X125134744Y-79257795D01*
X124965226Y-79371063D01*
X124821063Y-79515226D01*
X124707795Y-79684744D01*
X124629774Y-79873102D01*
X124590000Y-80073061D01*
X124590000Y-80276939D01*
X124629774Y-80476898D01*
X124707795Y-80665256D01*
X124821063Y-80834774D01*
X124865000Y-80878711D01*
X124865001Y-81405634D01*
X124832394Y-81432394D01*
X124800000Y-81471866D01*
X124767606Y-81432394D01*
X124640608Y-81328169D01*
X124495716Y-81250722D01*
X124338500Y-81203031D01*
X124175000Y-81186928D01*
X123775000Y-81186928D01*
X123611500Y-81203031D01*
X123454284Y-81250722D01*
X123309392Y-81328169D01*
X123182394Y-81432394D01*
X123078169Y-81559392D01*
X123000722Y-81704284D01*
X122953031Y-81861500D01*
X122936928Y-82025000D01*
X122936928Y-82575000D01*
X122953031Y-82738500D01*
X123000722Y-82895716D01*
X123078169Y-83040608D01*
X123132225Y-83106476D01*
X123111595Y-83131614D01*
X123029528Y-83285150D01*
X122978992Y-83451746D01*
X122961928Y-83625000D01*
X122961928Y-84575000D01*
X122978992Y-84748254D01*
X123029528Y-84914850D01*
X123111595Y-85068386D01*
X123222038Y-85202962D01*
X123268825Y-85241359D01*
X123198815Y-85298815D01*
X123119463Y-85395506D01*
X123060498Y-85505820D01*
X123024188Y-85625518D01*
X123011928Y-85750000D01*
X123011928Y-86750000D01*
X123024188Y-86874482D01*
X123060498Y-86994180D01*
X123119463Y-87104494D01*
X123198815Y-87201185D01*
X123295506Y-87280537D01*
X123405820Y-87339502D01*
X123525518Y-87375812D01*
X123650000Y-87388072D01*
X124650000Y-87388072D01*
X124774482Y-87375812D01*
X124894180Y-87339502D01*
X125004494Y-87280537D01*
X125101185Y-87201185D01*
X125180537Y-87104494D01*
X125239502Y-86994180D01*
X125275812Y-86874482D01*
X125288072Y-86750000D01*
X125288072Y-85750000D01*
X125275812Y-85625518D01*
X125239502Y-85505820D01*
X125180537Y-85395506D01*
X125101185Y-85298815D01*
X125004494Y-85219463D01*
X124976251Y-85204366D01*
X124977962Y-85202962D01*
X125088405Y-85068386D01*
X125170472Y-84914850D01*
X125221008Y-84748254D01*
X125238072Y-84575000D01*
X125238072Y-83625000D01*
X125221008Y-83451746D01*
X125198604Y-83377890D01*
X125261500Y-83396969D01*
X125425000Y-83413072D01*
X125825000Y-83413072D01*
X125988500Y-83396969D01*
X126145716Y-83349278D01*
X126290608Y-83271831D01*
X126417606Y-83167606D01*
X126521831Y-83040608D01*
X126599278Y-82895716D01*
X126646969Y-82738500D01*
X126663072Y-82575000D01*
X126663072Y-82025000D01*
X126646969Y-81861500D01*
X126599278Y-81704284D01*
X126521831Y-81559392D01*
X126417606Y-81432394D01*
X126385000Y-81405635D01*
X126385000Y-81265867D01*
X128530559Y-83411427D01*
X128556709Y-83443291D01*
X128683854Y-83547636D01*
X128828913Y-83625172D01*
X128986311Y-83672918D01*
X129108981Y-83685000D01*
X129108991Y-83685000D01*
X129149999Y-83689039D01*
X129191007Y-83685000D01*
X138104133Y-83685000D01*
X139988570Y-85569438D01*
X139988575Y-85569442D01*
X142630563Y-88211432D01*
X142656709Y-88243291D01*
X142783854Y-88347636D01*
X142928913Y-88425172D01*
X143086311Y-88472918D01*
X143208981Y-88485000D01*
X143208982Y-88485000D01*
X143250000Y-88489040D01*
X143291018Y-88485000D01*
X146508982Y-88485000D01*
X146550000Y-88489040D01*
X146591018Y-88485000D01*
X146591019Y-88485000D01*
X146713689Y-88472918D01*
X146871087Y-88425172D01*
X147016146Y-88347636D01*
X147143291Y-88243291D01*
X147169445Y-88211422D01*
X147711427Y-87669441D01*
X147743291Y-87643291D01*
X147847636Y-87516146D01*
X147925172Y-87371087D01*
X147972918Y-87213689D01*
X147985000Y-87091019D01*
X147985000Y-87091018D01*
X147989040Y-87050001D01*
X147985000Y-87008982D01*
X147985000Y-86365949D01*
X148046831Y-86290608D01*
X148124278Y-86145716D01*
X148171969Y-85988500D01*
X148188072Y-85825000D01*
X148188072Y-85275000D01*
X148171969Y-85111500D01*
X148124278Y-84954284D01*
X148046831Y-84809392D01*
X147942606Y-84682394D01*
X147815608Y-84578169D01*
X147670716Y-84500722D01*
X147513500Y-84453031D01*
X147350000Y-84436928D01*
X146950000Y-84436928D01*
X146786500Y-84453031D01*
X146629284Y-84500722D01*
X146484392Y-84578169D01*
X146357394Y-84682394D01*
X146325000Y-84721866D01*
X146293724Y-84683756D01*
X146388405Y-84568386D01*
X146470472Y-84414850D01*
X146521008Y-84248254D01*
X146538072Y-84075000D01*
X146538072Y-83125000D01*
X146521008Y-82951746D01*
X146470472Y-82785150D01*
X146388405Y-82631614D01*
X146332154Y-82563072D01*
X146550000Y-82563072D01*
X146723254Y-82546008D01*
X146889850Y-82495472D01*
X147043386Y-82413405D01*
X147177962Y-82302962D01*
X147288405Y-82168386D01*
X147357936Y-82038304D01*
X147386500Y-82046969D01*
X147550000Y-82063072D01*
X147950000Y-82063072D01*
X148113500Y-82046969D01*
X148270716Y-81999278D01*
X148415608Y-81921831D01*
X148542606Y-81817606D01*
X148575000Y-81778134D01*
X148607394Y-81817606D01*
X148734392Y-81921831D01*
X148879284Y-81999278D01*
X149036500Y-82046969D01*
X149200000Y-82063072D01*
X149600000Y-82063072D01*
X149763500Y-82046969D01*
X149920716Y-81999278D01*
X150065608Y-81921831D01*
X150192606Y-81817606D01*
X150296831Y-81690608D01*
X150374278Y-81545716D01*
X150421969Y-81388500D01*
X150438072Y-81225000D01*
X150438072Y-80675000D01*
X150421969Y-80511500D01*
X150374278Y-80354284D01*
X150296831Y-80209392D01*
X150225421Y-80122378D01*
X150203937Y-80090226D01*
X150059774Y-79946063D01*
X149890256Y-79832795D01*
X149701898Y-79754774D01*
X149501939Y-79715000D01*
X149298061Y-79715000D01*
X149098102Y-79754774D01*
X148909744Y-79832795D01*
X148740226Y-79946063D01*
X148596063Y-80090226D01*
X148574957Y-80121814D01*
X148542606Y-80082394D01*
X148415608Y-79978169D01*
X148270716Y-79900722D01*
X148113500Y-79853031D01*
X147950000Y-79836928D01*
X147550000Y-79836928D01*
X147386500Y-79853031D01*
X147229284Y-79900722D01*
X147084392Y-79978169D01*
X147058756Y-79999208D01*
X147043386Y-79986595D01*
X146889850Y-79904528D01*
X146723254Y-79853992D01*
X146550000Y-79836928D01*
X146160000Y-79836928D01*
X146160000Y-78414801D01*
X146526740Y-78048061D01*
X148915000Y-78048061D01*
X148915000Y-78251939D01*
X148954774Y-78451898D01*
X149032795Y-78640256D01*
X149146063Y-78809774D01*
X149290226Y-78953937D01*
X149459744Y-79067205D01*
X149648102Y-79145226D01*
X149848061Y-79185000D01*
X149986928Y-79185000D01*
X149986928Y-79475000D01*
X150003031Y-79638500D01*
X150050722Y-79795716D01*
X150128169Y-79940608D01*
X150232394Y-80067606D01*
X150359392Y-80171831D01*
X150504284Y-80249278D01*
X150661500Y-80296969D01*
X150825000Y-80313072D01*
X151375000Y-80313072D01*
X151486928Y-80302048D01*
X151486928Y-80550000D01*
X151503992Y-80723254D01*
X151554528Y-80889850D01*
X151636595Y-81043386D01*
X151747038Y-81177962D01*
X151881614Y-81288405D01*
X152035150Y-81370472D01*
X152201746Y-81421008D01*
X152375000Y-81438072D01*
X153325000Y-81438072D01*
X153498254Y-81421008D01*
X153664850Y-81370472D01*
X153703150Y-81350000D01*
X155736928Y-81350000D01*
X155736928Y-81850000D01*
X155753992Y-82023254D01*
X155804528Y-82189850D01*
X155886595Y-82343386D01*
X155997038Y-82477962D01*
X156131614Y-82588405D01*
X156285150Y-82670472D01*
X156451746Y-82721008D01*
X156625000Y-82738072D01*
X157575000Y-82738072D01*
X157748254Y-82721008D01*
X157914850Y-82670472D01*
X158068386Y-82588405D01*
X158117352Y-82548220D01*
X158465001Y-82895869D01*
X158465000Y-83904131D01*
X156943225Y-85425907D01*
X156798102Y-85454774D01*
X156609744Y-85532795D01*
X156440226Y-85646063D01*
X156296063Y-85790226D01*
X156182795Y-85959744D01*
X156104774Y-86148102D01*
X156065000Y-86348061D01*
X156065000Y-86551939D01*
X156104774Y-86751898D01*
X156182795Y-86940256D01*
X156296063Y-87109774D01*
X156440226Y-87253937D01*
X156609744Y-87367205D01*
X156798102Y-87445226D01*
X156998061Y-87485000D01*
X157201939Y-87485000D01*
X157401898Y-87445226D01*
X157590256Y-87367205D01*
X157759774Y-87253937D01*
X157903937Y-87109774D01*
X158017205Y-86940256D01*
X158095226Y-86751898D01*
X158124093Y-86606775D01*
X159861433Y-84869436D01*
X159893291Y-84843291D01*
X159921112Y-84809392D01*
X159997636Y-84716146D01*
X160075172Y-84571087D01*
X160122918Y-84413689D01*
X160139040Y-84250000D01*
X160135000Y-84208982D01*
X160135000Y-82591018D01*
X160139040Y-82550000D01*
X160122918Y-82386311D01*
X160075172Y-82228913D01*
X159997636Y-82083854D01*
X159919439Y-81988570D01*
X159919437Y-81988568D01*
X159893291Y-81956709D01*
X159861432Y-81930563D01*
X158969445Y-81038578D01*
X158943291Y-81006709D01*
X158816146Y-80902364D01*
X158671087Y-80824828D01*
X158513689Y-80777082D01*
X158391019Y-80765000D01*
X158391018Y-80765000D01*
X158350000Y-80760960D01*
X158308982Y-80765000D01*
X158238220Y-80765000D01*
X158202962Y-80722038D01*
X158068386Y-80611595D01*
X157914850Y-80529528D01*
X157748254Y-80478992D01*
X157575000Y-80461928D01*
X156625000Y-80461928D01*
X156451746Y-80478992D01*
X156285150Y-80529528D01*
X156131614Y-80611595D01*
X155997038Y-80722038D01*
X155886595Y-80856614D01*
X155804528Y-81010150D01*
X155753992Y-81176746D01*
X155736928Y-81350000D01*
X153703150Y-81350000D01*
X153818386Y-81288405D01*
X153952962Y-81177962D01*
X154063405Y-81043386D01*
X154145472Y-80889850D01*
X154196008Y-80723254D01*
X154213072Y-80550000D01*
X154213072Y-80161729D01*
X155961003Y-78413799D01*
X155990001Y-78390001D01*
X156084974Y-78274276D01*
X156155546Y-78142247D01*
X156199003Y-77998986D01*
X156210000Y-77887333D01*
X156210000Y-77887324D01*
X156213676Y-77850001D01*
X156210000Y-77812678D01*
X156210000Y-74750736D01*
X156244279Y-74727832D01*
X156417832Y-74554279D01*
X156554191Y-74350202D01*
X156648117Y-74123445D01*
X156696000Y-73882720D01*
X156696000Y-73637280D01*
X156648117Y-73396555D01*
X156554191Y-73169798D01*
X156417832Y-72965721D01*
X156244279Y-72792168D01*
X156040202Y-72655809D01*
X155813445Y-72561883D01*
X155572720Y-72514000D01*
X155327280Y-72514000D01*
X155086555Y-72561883D01*
X154859798Y-72655809D01*
X154655721Y-72792168D01*
X154482168Y-72965721D01*
X154345809Y-73169798D01*
X154251883Y-73396555D01*
X154204000Y-73637280D01*
X154204000Y-73882720D01*
X154251883Y-74123445D01*
X154345809Y-74350202D01*
X154482168Y-74554279D01*
X154655721Y-74727832D01*
X154690000Y-74750737D01*
X154690001Y-77535197D01*
X154200710Y-78024488D01*
X154196008Y-77976746D01*
X154145472Y-77810150D01*
X154063405Y-77656614D01*
X153952962Y-77522038D01*
X153863005Y-77448213D01*
X153875494Y-77441537D01*
X153972185Y-77362185D01*
X154051537Y-77265494D01*
X154110502Y-77155180D01*
X154146812Y-77035482D01*
X154159072Y-76911000D01*
X154159072Y-75689000D01*
X154146812Y-75564518D01*
X154110502Y-75444820D01*
X154051537Y-75334506D01*
X153972185Y-75237815D01*
X153875494Y-75158463D01*
X153765180Y-75099498D01*
X153645482Y-75063188D01*
X153521000Y-75050928D01*
X152299000Y-75050928D01*
X152174518Y-75063188D01*
X152054820Y-75099498D01*
X151944506Y-75158463D01*
X151847815Y-75237815D01*
X151768463Y-75334506D01*
X151709498Y-75444820D01*
X151673188Y-75564518D01*
X151660928Y-75689000D01*
X151660928Y-76911000D01*
X151673188Y-77035482D01*
X151709498Y-77155180D01*
X151768463Y-77265494D01*
X151847815Y-77362185D01*
X151897606Y-77403047D01*
X151881614Y-77411595D01*
X151747038Y-77522038D01*
X151636595Y-77656614D01*
X151617799Y-77691779D01*
X151610998Y-77686197D01*
X151563804Y-77639003D01*
X151540001Y-77609999D01*
X151424276Y-77515026D01*
X151292247Y-77444454D01*
X151262058Y-77435296D01*
X151263072Y-77425000D01*
X151263072Y-77025000D01*
X151246969Y-76861500D01*
X151199278Y-76704284D01*
X151121831Y-76559392D01*
X151017606Y-76432394D01*
X150978134Y-76400000D01*
X151017606Y-76367606D01*
X151121831Y-76240608D01*
X151199278Y-76095716D01*
X151246969Y-75938500D01*
X151263072Y-75775000D01*
X151263072Y-75375000D01*
X151246969Y-75211500D01*
X151231778Y-75161424D01*
X151368386Y-75088405D01*
X151502962Y-74977962D01*
X151613405Y-74843386D01*
X151695472Y-74689850D01*
X151746008Y-74523254D01*
X151763072Y-74350000D01*
X151763072Y-73850000D01*
X151746008Y-73676746D01*
X151695472Y-73510150D01*
X151613405Y-73356614D01*
X151502962Y-73222038D01*
X151368386Y-73111595D01*
X151214850Y-73029528D01*
X151048254Y-72978992D01*
X150875000Y-72961928D01*
X149925000Y-72961928D01*
X149751746Y-72978992D01*
X149585150Y-73029528D01*
X149431614Y-73111595D01*
X149297038Y-73222038D01*
X149186595Y-73356614D01*
X149104528Y-73510150D01*
X149053992Y-73676746D01*
X149036928Y-73850000D01*
X149036928Y-74350000D01*
X149053992Y-74523254D01*
X149104528Y-74689850D01*
X149186595Y-74843386D01*
X149209467Y-74871256D01*
X149178169Y-74909392D01*
X149100722Y-75054284D01*
X149053031Y-75211500D01*
X149036928Y-75375000D01*
X149036928Y-75775000D01*
X149053031Y-75938500D01*
X149100722Y-76095716D01*
X149178169Y-76240608D01*
X149282394Y-76367606D01*
X149321866Y-76400000D01*
X149282394Y-76432394D01*
X149178169Y-76559392D01*
X149100722Y-76704284D01*
X149053031Y-76861500D01*
X149036928Y-77025000D01*
X149036928Y-77425000D01*
X149053031Y-77588500D01*
X149061576Y-77616670D01*
X149032795Y-77659744D01*
X148954774Y-77848102D01*
X148915000Y-78048061D01*
X146526740Y-78048061D01*
X146949203Y-77625599D01*
X147101898Y-77595226D01*
X147290256Y-77517205D01*
X147459774Y-77403937D01*
X147603937Y-77259774D01*
X147717205Y-77090256D01*
X147795226Y-76901898D01*
X147835000Y-76701939D01*
X147835000Y-76498061D01*
X147795226Y-76298102D01*
X147717205Y-76109744D01*
X147603937Y-75940226D01*
X147459774Y-75796063D01*
X147290256Y-75682795D01*
X147101898Y-75604774D01*
X146901939Y-75565000D01*
X146698061Y-75565000D01*
X146498102Y-75604774D01*
X146309744Y-75682795D01*
X146140226Y-75796063D01*
X145996063Y-75940226D01*
X145882795Y-76109744D01*
X145806468Y-76294013D01*
X145803937Y-76290226D01*
X145659774Y-76146063D01*
X145490256Y-76032795D01*
X145301898Y-75954774D01*
X145101939Y-75915000D01*
X144898061Y-75915000D01*
X144698102Y-75954774D01*
X144509744Y-76032795D01*
X144340226Y-76146063D01*
X144296289Y-76190000D01*
X144164802Y-76190000D01*
X144010000Y-76035199D01*
X144010000Y-75908733D01*
X144098102Y-75945226D01*
X144298061Y-75985000D01*
X144501939Y-75985000D01*
X144701898Y-75945226D01*
X144890256Y-75867205D01*
X145059774Y-75753937D01*
X145203937Y-75609774D01*
X145317205Y-75440256D01*
X145395226Y-75251898D01*
X145435000Y-75051939D01*
X145435000Y-74848061D01*
X145395226Y-74648102D01*
X145317205Y-74459744D01*
X145203937Y-74290226D01*
X145160000Y-74246289D01*
X145160000Y-71714801D01*
X146014802Y-70860000D01*
X154162678Y-70860000D01*
X154200000Y-70863676D01*
X154237322Y-70860000D01*
X154237333Y-70860000D01*
X154348986Y-70849003D01*
X154492247Y-70805546D01*
X154624276Y-70734974D01*
X154740001Y-70640001D01*
X154763803Y-70610998D01*
X155036002Y-70338800D01*
X155065001Y-70315001D01*
X155159974Y-70199276D01*
X155230546Y-70067247D01*
X155274003Y-69923986D01*
X155285000Y-69812333D01*
X155285000Y-69812324D01*
X155288676Y-69775001D01*
X155285000Y-69737678D01*
X155285000Y-68998377D01*
X155398102Y-69045226D01*
X155528781Y-69071219D01*
X155554774Y-69201898D01*
X155632795Y-69390256D01*
X155746063Y-69559774D01*
X155890226Y-69703937D01*
X156059744Y-69817205D01*
X156248102Y-69895226D01*
X156415000Y-69928424D01*
X156415000Y-70001939D01*
X156454774Y-70201898D01*
X156532795Y-70390256D01*
X156646063Y-70559774D01*
X156790226Y-70703937D01*
X156959744Y-70817205D01*
X157087136Y-70869973D01*
X157054774Y-70948102D01*
X157015000Y-71148061D01*
X157015000Y-71351939D01*
X157054774Y-71551898D01*
X157132795Y-71740256D01*
X157246063Y-71909774D01*
X157390226Y-72053937D01*
X157559744Y-72167205D01*
X157748102Y-72245226D01*
X157948061Y-72285000D01*
X158151939Y-72285000D01*
X158351898Y-72245226D01*
X158540256Y-72167205D01*
X158709774Y-72053937D01*
X158853937Y-71909774D01*
X158967205Y-71740256D01*
X159045226Y-71551898D01*
X159085000Y-71351939D01*
X159085000Y-71289802D01*
X159214802Y-71160000D01*
X161549128Y-71160000D01*
X161586450Y-71163676D01*
X161623772Y-71160000D01*
X161623783Y-71160000D01*
X161735436Y-71149003D01*
X161878697Y-71105546D01*
X161963906Y-71060000D01*
X169212678Y-71060000D01*
X169250000Y-71063676D01*
X169287322Y-71060000D01*
X169287333Y-71060000D01*
X169398986Y-71049003D01*
X169471249Y-71027083D01*
X165335636Y-72911928D01*
X164875000Y-72911928D01*
X164701746Y-72928992D01*
X164535150Y-72979528D01*
X164381614Y-73061595D01*
X164247038Y-73172038D01*
X164136595Y-73306614D01*
X164054528Y-73460150D01*
X164041977Y-73501526D01*
X163009831Y-73971936D01*
X162988297Y-73984432D01*
X162969616Y-74000889D01*
X162954503Y-74020674D01*
X162943541Y-74043027D01*
X162937151Y-74067089D01*
X162935517Y-74089600D01*
X163010787Y-78640000D01*
X161349770Y-78640000D01*
X161252962Y-78522038D01*
X161118386Y-78411595D01*
X160964850Y-78329528D01*
X160798254Y-78278992D01*
X160625000Y-78261928D01*
X159675000Y-78261928D01*
X159501746Y-78278992D01*
X159335150Y-78329528D01*
X159181614Y-78411595D01*
X159047038Y-78522038D01*
X158936595Y-78656614D01*
X158854528Y-78810150D01*
X158803992Y-78976746D01*
X158786928Y-79150000D01*
X158786928Y-79650000D01*
X158803992Y-79823254D01*
X158854528Y-79989850D01*
X158936595Y-80143386D01*
X159047038Y-80277962D01*
X159181614Y-80388405D01*
X159335150Y-80470472D01*
X159501746Y-80521008D01*
X159675000Y-80538072D01*
X160625000Y-80538072D01*
X160798254Y-80521008D01*
X160964850Y-80470472D01*
X161118386Y-80388405D01*
X161252962Y-80277962D01*
X161349770Y-80160000D01*
X163035930Y-80160000D01*
X163187185Y-89304070D01*
X141770735Y-89338988D01*
X140816633Y-86699982D01*
X140799879Y-86642742D01*
X140766914Y-86579590D01*
X140736247Y-86515300D01*
X140726643Y-86502439D01*
X140719210Y-86488200D01*
X140674546Y-86432679D01*
X140631936Y-86375621D01*
X140620005Y-86364879D01*
X140609939Y-86352366D01*
X140555314Y-86306634D01*
X140502380Y-86258975D01*
X140488583Y-86250767D01*
X140476270Y-86240459D01*
X140413778Y-86206266D01*
X140352557Y-86169847D01*
X140337418Y-86164487D01*
X140323335Y-86156781D01*
X140255381Y-86135439D01*
X140188225Y-86111660D01*
X140172336Y-86109357D01*
X140157015Y-86104545D01*
X140086174Y-86096867D01*
X140015698Y-86086651D01*
X139956153Y-86089773D01*
X127220284Y-85965156D01*
X127144882Y-85962429D01*
X127090223Y-85971261D01*
X127035053Y-85976150D01*
X127004358Y-85985134D01*
X126972783Y-85990236D01*
X126920884Y-86009567D01*
X126867742Y-86025121D01*
X126839391Y-86039920D01*
X126809418Y-86051084D01*
X126762289Y-86080167D01*
X126713200Y-86105791D01*
X126688283Y-86125835D01*
X126661062Y-86142633D01*
X126620508Y-86180356D01*
X126577366Y-86215061D01*
X126556838Y-86239581D01*
X126533417Y-86261367D01*
X126501001Y-86306276D01*
X126465459Y-86348731D01*
X126450111Y-86376781D01*
X126431388Y-86402721D01*
X126408351Y-86453105D01*
X126381781Y-86501665D01*
X126359179Y-86573629D01*
X125416890Y-89318563D01*
X118085000Y-89359986D01*
X118085000Y-58435000D01*
X162395164Y-58435000D01*
X162392260Y-59571928D01*
%TA.AperFunction,Conductor*%
D31*
G36*
X162392260Y-59571928D02*
G01*
X161308000Y-59571928D01*
X161183518Y-59584188D01*
X161063820Y-59620498D01*
X160953506Y-59679463D01*
X160856815Y-59758815D01*
X160777463Y-59855506D01*
X160718498Y-59965820D01*
X160696487Y-60038380D01*
X160564632Y-59906525D01*
X160321411Y-59744010D01*
X160051158Y-59632068D01*
X159764260Y-59575000D01*
X159471740Y-59575000D01*
X159184842Y-59632068D01*
X158914589Y-59744010D01*
X158671368Y-59906525D01*
X158464525Y-60113368D01*
X158302010Y-60356589D01*
X158190068Y-60626842D01*
X158133000Y-60913740D01*
X158133000Y-61206260D01*
X158190068Y-61493158D01*
X158302010Y-61763411D01*
X158464525Y-62006632D01*
X158671368Y-62213475D01*
X158914589Y-62375990D01*
X159184842Y-62487932D01*
X159471740Y-62545000D01*
X159764260Y-62545000D01*
X160051158Y-62487932D01*
X160321411Y-62375990D01*
X160564632Y-62213475D01*
X160696487Y-62081620D01*
X160715361Y-62143839D01*
X160675723Y-62165026D01*
X160592083Y-62233668D01*
X160559999Y-62259999D01*
X160536201Y-62288997D01*
X159800000Y-63025199D01*
X159763804Y-62989003D01*
X159740001Y-62959999D01*
X159624276Y-62865026D01*
X159492247Y-62794454D01*
X159348986Y-62750997D01*
X159237333Y-62740000D01*
X159237322Y-62740000D01*
X159200000Y-62736324D01*
X159162678Y-62740000D01*
X153914802Y-62740000D01*
X153013804Y-61839003D01*
X152990001Y-61809999D01*
X152874276Y-61715026D01*
X152742247Y-61644454D01*
X152598986Y-61600997D01*
X152487333Y-61590000D01*
X152487322Y-61590000D01*
X152450000Y-61586324D01*
X152412678Y-61590000D01*
X150462966Y-61590000D01*
X150527932Y-61433158D01*
X150585000Y-61146260D01*
X150585000Y-60853740D01*
X150527932Y-60566842D01*
X150415990Y-60296589D01*
X150253475Y-60053368D01*
X150046632Y-59846525D01*
X149803411Y-59684010D01*
X149533158Y-59572068D01*
X149246260Y-59515000D01*
X148953740Y-59515000D01*
X148666842Y-59572068D01*
X148396589Y-59684010D01*
X148153368Y-59846525D01*
X148021513Y-59978380D01*
X147999502Y-59905820D01*
X147940537Y-59795506D01*
X147861185Y-59698815D01*
X147764494Y-59619463D01*
X147654180Y-59560498D01*
X147534482Y-59524188D01*
X147410000Y-59511928D01*
X145710000Y-59511928D01*
X145585518Y-59524188D01*
X145465820Y-59560498D01*
X145355506Y-59619463D01*
X145258815Y-59698815D01*
X145179463Y-59795506D01*
X145120498Y-59905820D01*
X145084188Y-60025518D01*
X145071928Y-60150000D01*
X145071928Y-60997126D01*
X143813794Y-59738993D01*
X143789991Y-59709989D01*
X143674266Y-59615016D01*
X143542237Y-59544444D01*
X143398976Y-59500987D01*
X143287323Y-59489990D01*
X143287312Y-59489990D01*
X143249990Y-59486314D01*
X143212668Y-59489990D01*
X133337343Y-59489990D01*
X133300010Y-59486313D01*
X133262677Y-59489990D01*
X133151024Y-59500987D01*
X133007763Y-59544444D01*
X132875734Y-59615016D01*
X132760009Y-59709989D01*
X132736211Y-59738987D01*
X131865743Y-60609455D01*
X131749482Y-60574188D01*
X131625000Y-60561928D01*
X127825000Y-60561928D01*
X127700518Y-60574188D01*
X127580820Y-60610498D01*
X127470506Y-60669463D01*
X127373815Y-60748815D01*
X127294463Y-60845506D01*
X127235498Y-60955820D01*
X127199188Y-61075518D01*
X127186928Y-61200000D01*
X127186928Y-63200000D01*
X127199188Y-63324482D01*
X127235498Y-63444180D01*
X127294463Y-63554494D01*
X127373815Y-63651185D01*
X127470506Y-63730537D01*
X127580820Y-63789502D01*
X127700518Y-63825812D01*
X127825000Y-63838072D01*
X128890001Y-63838072D01*
X128890000Y-66870299D01*
X128850518Y-66874188D01*
X128730820Y-66910498D01*
X128620506Y-66969463D01*
X128575000Y-67006809D01*
X128529494Y-66969463D01*
X128419180Y-66910498D01*
X128299482Y-66874188D01*
X128175000Y-66861928D01*
X126675000Y-66861928D01*
X126550518Y-66874188D01*
X126430820Y-66910498D01*
X126320506Y-66969463D01*
X126223815Y-67048815D01*
X126144463Y-67145506D01*
X126085498Y-67255820D01*
X126049188Y-67375518D01*
X126036928Y-67500000D01*
X126036928Y-67876678D01*
X125888850Y-67797528D01*
X125722254Y-67746992D01*
X125549000Y-67729928D01*
X124599000Y-67729928D01*
X124425746Y-67746992D01*
X124259150Y-67797528D01*
X124105614Y-67879595D01*
X123971038Y-67990038D01*
X123860595Y-68124614D01*
X123778528Y-68278150D01*
X123727992Y-68444746D01*
X123710928Y-68618000D01*
X123710928Y-69118000D01*
X123727992Y-69291254D01*
X123778528Y-69457850D01*
X123860595Y-69611386D01*
X123971038Y-69745962D01*
X124065001Y-69823075D01*
X124065000Y-74086715D01*
X123982795Y-74209744D01*
X123904774Y-74398102D01*
X123865000Y-74598061D01*
X123865000Y-74801939D01*
X123904774Y-75001898D01*
X123982795Y-75190256D01*
X124096063Y-75359774D01*
X124240226Y-75503937D01*
X124409744Y-75617205D01*
X124598102Y-75695226D01*
X124798061Y-75735000D01*
X125001939Y-75735000D01*
X125201898Y-75695226D01*
X125390256Y-75617205D01*
X125559774Y-75503937D01*
X125665000Y-75398711D01*
X125665001Y-79140000D01*
X125523061Y-79140000D01*
X125323102Y-79179774D01*
X125134744Y-79257795D01*
X124965226Y-79371063D01*
X124821063Y-79515226D01*
X124707795Y-79684744D01*
X124629774Y-79873102D01*
X124590000Y-80073061D01*
X124590000Y-80276939D01*
X124629774Y-80476898D01*
X124707795Y-80665256D01*
X124821063Y-80834774D01*
X124865000Y-80878711D01*
X124865001Y-81405634D01*
X124832394Y-81432394D01*
X124800000Y-81471866D01*
X124767606Y-81432394D01*
X124640608Y-81328169D01*
X124495716Y-81250722D01*
X124338500Y-81203031D01*
X124175000Y-81186928D01*
X123775000Y-81186928D01*
X123611500Y-81203031D01*
X123454284Y-81250722D01*
X123309392Y-81328169D01*
X123182394Y-81432394D01*
X123078169Y-81559392D01*
X123000722Y-81704284D01*
X122953031Y-81861500D01*
X122936928Y-82025000D01*
X122936928Y-82575000D01*
X122953031Y-82738500D01*
X123000722Y-82895716D01*
X123078169Y-83040608D01*
X123132225Y-83106476D01*
X123111595Y-83131614D01*
X123029528Y-83285150D01*
X122978992Y-83451746D01*
X122961928Y-83625000D01*
X122961928Y-84575000D01*
X122978992Y-84748254D01*
X123029528Y-84914850D01*
X123111595Y-85068386D01*
X123222038Y-85202962D01*
X123268825Y-85241359D01*
X123198815Y-85298815D01*
X123119463Y-85395506D01*
X123060498Y-85505820D01*
X123024188Y-85625518D01*
X123011928Y-85750000D01*
X123011928Y-86750000D01*
X123024188Y-86874482D01*
X123060498Y-86994180D01*
X123119463Y-87104494D01*
X123198815Y-87201185D01*
X123295506Y-87280537D01*
X123405820Y-87339502D01*
X123525518Y-87375812D01*
X123650000Y-87388072D01*
X124650000Y-87388072D01*
X124774482Y-87375812D01*
X124894180Y-87339502D01*
X125004494Y-87280537D01*
X125101185Y-87201185D01*
X125180537Y-87104494D01*
X125239502Y-86994180D01*
X125275812Y-86874482D01*
X125288072Y-86750000D01*
X125288072Y-85750000D01*
X125275812Y-85625518D01*
X125239502Y-85505820D01*
X125180537Y-85395506D01*
X125101185Y-85298815D01*
X125004494Y-85219463D01*
X124976251Y-85204366D01*
X124977962Y-85202962D01*
X125088405Y-85068386D01*
X125170472Y-84914850D01*
X125221008Y-84748254D01*
X125238072Y-84575000D01*
X125238072Y-83625000D01*
X125221008Y-83451746D01*
X125198604Y-83377890D01*
X125261500Y-83396969D01*
X125425000Y-83413072D01*
X125825000Y-83413072D01*
X125988500Y-83396969D01*
X126145716Y-83349278D01*
X126290608Y-83271831D01*
X126417606Y-83167606D01*
X126521831Y-83040608D01*
X126599278Y-82895716D01*
X126646969Y-82738500D01*
X126663072Y-82575000D01*
X126663072Y-82025000D01*
X126646969Y-81861500D01*
X126599278Y-81704284D01*
X126521831Y-81559392D01*
X126417606Y-81432394D01*
X126385000Y-81405635D01*
X126385000Y-81265867D01*
X128530559Y-83411427D01*
X128556709Y-83443291D01*
X128683854Y-83547636D01*
X128828913Y-83625172D01*
X128986311Y-83672918D01*
X129108981Y-83685000D01*
X129108991Y-83685000D01*
X129149999Y-83689039D01*
X129191007Y-83685000D01*
X138104133Y-83685000D01*
X139988570Y-85569438D01*
X139988575Y-85569442D01*
X142630563Y-88211432D01*
X142656709Y-88243291D01*
X142783854Y-88347636D01*
X142928913Y-88425172D01*
X143086311Y-88472918D01*
X143208981Y-88485000D01*
X143208982Y-88485000D01*
X143250000Y-88489040D01*
X143291018Y-88485000D01*
X146508982Y-88485000D01*
X146550000Y-88489040D01*
X146591018Y-88485000D01*
X146591019Y-88485000D01*
X146713689Y-88472918D01*
X146871087Y-88425172D01*
X147016146Y-88347636D01*
X147143291Y-88243291D01*
X147169445Y-88211422D01*
X147711427Y-87669441D01*
X147743291Y-87643291D01*
X147847636Y-87516146D01*
X147925172Y-87371087D01*
X147972918Y-87213689D01*
X147985000Y-87091019D01*
X147985000Y-87091018D01*
X147989040Y-87050001D01*
X147985000Y-87008982D01*
X147985000Y-86365949D01*
X148046831Y-86290608D01*
X148124278Y-86145716D01*
X148171969Y-85988500D01*
X148188072Y-85825000D01*
X148188072Y-85275000D01*
X148171969Y-85111500D01*
X148124278Y-84954284D01*
X148046831Y-84809392D01*
X147942606Y-84682394D01*
X147815608Y-84578169D01*
X147670716Y-84500722D01*
X147513500Y-84453031D01*
X147350000Y-84436928D01*
X146950000Y-84436928D01*
X146786500Y-84453031D01*
X146629284Y-84500722D01*
X146484392Y-84578169D01*
X146357394Y-84682394D01*
X146325000Y-84721866D01*
X146293724Y-84683756D01*
X146388405Y-84568386D01*
X146470472Y-84414850D01*
X146521008Y-84248254D01*
X146538072Y-84075000D01*
X146538072Y-83125000D01*
X146521008Y-82951746D01*
X146470472Y-82785150D01*
X146388405Y-82631614D01*
X146332154Y-82563072D01*
X146550000Y-82563072D01*
X146723254Y-82546008D01*
X146889850Y-82495472D01*
X147043386Y-82413405D01*
X147177962Y-82302962D01*
X147288405Y-82168386D01*
X147357936Y-82038304D01*
X147386500Y-82046969D01*
X147550000Y-82063072D01*
X147950000Y-82063072D01*
X148113500Y-82046969D01*
X148270716Y-81999278D01*
X148415608Y-81921831D01*
X148542606Y-81817606D01*
X148575000Y-81778134D01*
X148607394Y-81817606D01*
X148734392Y-81921831D01*
X148879284Y-81999278D01*
X149036500Y-82046969D01*
X149200000Y-82063072D01*
X149600000Y-82063072D01*
X149763500Y-82046969D01*
X149920716Y-81999278D01*
X150065608Y-81921831D01*
X150192606Y-81817606D01*
X150296831Y-81690608D01*
X150374278Y-81545716D01*
X150421969Y-81388500D01*
X150438072Y-81225000D01*
X150438072Y-80675000D01*
X150421969Y-80511500D01*
X150374278Y-80354284D01*
X150296831Y-80209392D01*
X150225421Y-80122378D01*
X150203937Y-80090226D01*
X150059774Y-79946063D01*
X149890256Y-79832795D01*
X149701898Y-79754774D01*
X149501939Y-79715000D01*
X149298061Y-79715000D01*
X149098102Y-79754774D01*
X148909744Y-79832795D01*
X148740226Y-79946063D01*
X148596063Y-80090226D01*
X148574957Y-80121814D01*
X148542606Y-80082394D01*
X148415608Y-79978169D01*
X148270716Y-79900722D01*
X148113500Y-79853031D01*
X147950000Y-79836928D01*
X147550000Y-79836928D01*
X147386500Y-79853031D01*
X147229284Y-79900722D01*
X147084392Y-79978169D01*
X147058756Y-79999208D01*
X147043386Y-79986595D01*
X146889850Y-79904528D01*
X146723254Y-79853992D01*
X146550000Y-79836928D01*
X146160000Y-79836928D01*
X146160000Y-78414801D01*
X146526740Y-78048061D01*
X148915000Y-78048061D01*
X148915000Y-78251939D01*
X148954774Y-78451898D01*
X149032795Y-78640256D01*
X149146063Y-78809774D01*
X149290226Y-78953937D01*
X149459744Y-79067205D01*
X149648102Y-79145226D01*
X149848061Y-79185000D01*
X149986928Y-79185000D01*
X149986928Y-79475000D01*
X150003031Y-79638500D01*
X150050722Y-79795716D01*
X150128169Y-79940608D01*
X150232394Y-80067606D01*
X150359392Y-80171831D01*
X150504284Y-80249278D01*
X150661500Y-80296969D01*
X150825000Y-80313072D01*
X151375000Y-80313072D01*
X151486928Y-80302048D01*
X151486928Y-80550000D01*
X151503992Y-80723254D01*
X151554528Y-80889850D01*
X151636595Y-81043386D01*
X151747038Y-81177962D01*
X151881614Y-81288405D01*
X152035150Y-81370472D01*
X152201746Y-81421008D01*
X152375000Y-81438072D01*
X153325000Y-81438072D01*
X153498254Y-81421008D01*
X153664850Y-81370472D01*
X153703150Y-81350000D01*
X155736928Y-81350000D01*
X155736928Y-81850000D01*
X155753992Y-82023254D01*
X155804528Y-82189850D01*
X155886595Y-82343386D01*
X155997038Y-82477962D01*
X156131614Y-82588405D01*
X156285150Y-82670472D01*
X156451746Y-82721008D01*
X156625000Y-82738072D01*
X157575000Y-82738072D01*
X157748254Y-82721008D01*
X157914850Y-82670472D01*
X158068386Y-82588405D01*
X158117352Y-82548220D01*
X158465001Y-82895869D01*
X158465000Y-83904131D01*
X156943225Y-85425907D01*
X156798102Y-85454774D01*
X156609744Y-85532795D01*
X156440226Y-85646063D01*
X156296063Y-85790226D01*
X156182795Y-85959744D01*
X156104774Y-86148102D01*
X156065000Y-86348061D01*
X156065000Y-86551939D01*
X156104774Y-86751898D01*
X156182795Y-86940256D01*
X156296063Y-87109774D01*
X156440226Y-87253937D01*
X156609744Y-87367205D01*
X156798102Y-87445226D01*
X156998061Y-87485000D01*
X157201939Y-87485000D01*
X157401898Y-87445226D01*
X157590256Y-87367205D01*
X157759774Y-87253937D01*
X157903937Y-87109774D01*
X158017205Y-86940256D01*
X158095226Y-86751898D01*
X158124093Y-86606775D01*
X159861433Y-84869436D01*
X159893291Y-84843291D01*
X159921112Y-84809392D01*
X159997636Y-84716146D01*
X160075172Y-84571087D01*
X160122918Y-84413689D01*
X160139040Y-84250000D01*
X160135000Y-84208982D01*
X160135000Y-82591018D01*
X160139040Y-82550000D01*
X160122918Y-82386311D01*
X160075172Y-82228913D01*
X159997636Y-82083854D01*
X159919439Y-81988570D01*
X159919437Y-81988568D01*
X159893291Y-81956709D01*
X159861432Y-81930563D01*
X158969445Y-81038578D01*
X158943291Y-81006709D01*
X158816146Y-80902364D01*
X158671087Y-80824828D01*
X158513689Y-80777082D01*
X158391019Y-80765000D01*
X158391018Y-80765000D01*
X158350000Y-80760960D01*
X158308982Y-80765000D01*
X158238220Y-80765000D01*
X158202962Y-80722038D01*
X158068386Y-80611595D01*
X157914850Y-80529528D01*
X157748254Y-80478992D01*
X157575000Y-80461928D01*
X156625000Y-80461928D01*
X156451746Y-80478992D01*
X156285150Y-80529528D01*
X156131614Y-80611595D01*
X155997038Y-80722038D01*
X155886595Y-80856614D01*
X155804528Y-81010150D01*
X155753992Y-81176746D01*
X155736928Y-81350000D01*
X153703150Y-81350000D01*
X153818386Y-81288405D01*
X153952962Y-81177962D01*
X154063405Y-81043386D01*
X154145472Y-80889850D01*
X154196008Y-80723254D01*
X154213072Y-80550000D01*
X154213072Y-80161729D01*
X155961003Y-78413799D01*
X155990001Y-78390001D01*
X156084974Y-78274276D01*
X156155546Y-78142247D01*
X156199003Y-77998986D01*
X156210000Y-77887333D01*
X156210000Y-77887324D01*
X156213676Y-77850001D01*
X156210000Y-77812678D01*
X156210000Y-74750736D01*
X156244279Y-74727832D01*
X156417832Y-74554279D01*
X156554191Y-74350202D01*
X156648117Y-74123445D01*
X156696000Y-73882720D01*
X156696000Y-73637280D01*
X156648117Y-73396555D01*
X156554191Y-73169798D01*
X156417832Y-72965721D01*
X156244279Y-72792168D01*
X156040202Y-72655809D01*
X155813445Y-72561883D01*
X155572720Y-72514000D01*
X155327280Y-72514000D01*
X155086555Y-72561883D01*
X154859798Y-72655809D01*
X154655721Y-72792168D01*
X154482168Y-72965721D01*
X154345809Y-73169798D01*
X154251883Y-73396555D01*
X154204000Y-73637280D01*
X154204000Y-73882720D01*
X154251883Y-74123445D01*
X154345809Y-74350202D01*
X154482168Y-74554279D01*
X154655721Y-74727832D01*
X154690000Y-74750737D01*
X154690001Y-77535197D01*
X154200710Y-78024488D01*
X154196008Y-77976746D01*
X154145472Y-77810150D01*
X154063405Y-77656614D01*
X153952962Y-77522038D01*
X153863005Y-77448213D01*
X153875494Y-77441537D01*
X153972185Y-77362185D01*
X154051537Y-77265494D01*
X154110502Y-77155180D01*
X154146812Y-77035482D01*
X154159072Y-76911000D01*
X154159072Y-75689000D01*
X154146812Y-75564518D01*
X154110502Y-75444820D01*
X154051537Y-75334506D01*
X153972185Y-75237815D01*
X153875494Y-75158463D01*
X153765180Y-75099498D01*
X153645482Y-75063188D01*
X153521000Y-75050928D01*
X152299000Y-75050928D01*
X152174518Y-75063188D01*
X152054820Y-75099498D01*
X151944506Y-75158463D01*
X151847815Y-75237815D01*
X151768463Y-75334506D01*
X151709498Y-75444820D01*
X151673188Y-75564518D01*
X151660928Y-75689000D01*
X151660928Y-76911000D01*
X151673188Y-77035482D01*
X151709498Y-77155180D01*
X151768463Y-77265494D01*
X151847815Y-77362185D01*
X151897606Y-77403047D01*
X151881614Y-77411595D01*
X151747038Y-77522038D01*
X151636595Y-77656614D01*
X151617799Y-77691779D01*
X151610998Y-77686197D01*
X151563804Y-77639003D01*
X151540001Y-77609999D01*
X151424276Y-77515026D01*
X151292247Y-77444454D01*
X151262058Y-77435296D01*
X151263072Y-77425000D01*
X151263072Y-77025000D01*
X151246969Y-76861500D01*
X151199278Y-76704284D01*
X151121831Y-76559392D01*
X151017606Y-76432394D01*
X150978134Y-76400000D01*
X151017606Y-76367606D01*
X151121831Y-76240608D01*
X151199278Y-76095716D01*
X151246969Y-75938500D01*
X151263072Y-75775000D01*
X151263072Y-75375000D01*
X151246969Y-75211500D01*
X151231778Y-75161424D01*
X151368386Y-75088405D01*
X151502962Y-74977962D01*
X151613405Y-74843386D01*
X151695472Y-74689850D01*
X151746008Y-74523254D01*
X151763072Y-74350000D01*
X151763072Y-73850000D01*
X151746008Y-73676746D01*
X151695472Y-73510150D01*
X151613405Y-73356614D01*
X151502962Y-73222038D01*
X151368386Y-73111595D01*
X151214850Y-73029528D01*
X151048254Y-72978992D01*
X150875000Y-72961928D01*
X149925000Y-72961928D01*
X149751746Y-72978992D01*
X149585150Y-73029528D01*
X149431614Y-73111595D01*
X149297038Y-73222038D01*
X149186595Y-73356614D01*
X149104528Y-73510150D01*
X149053992Y-73676746D01*
X149036928Y-73850000D01*
X149036928Y-74350000D01*
X149053992Y-74523254D01*
X149104528Y-74689850D01*
X149186595Y-74843386D01*
X149209467Y-74871256D01*
X149178169Y-74909392D01*
X149100722Y-75054284D01*
X149053031Y-75211500D01*
X149036928Y-75375000D01*
X149036928Y-75775000D01*
X149053031Y-75938500D01*
X149100722Y-76095716D01*
X149178169Y-76240608D01*
X149282394Y-76367606D01*
X149321866Y-76400000D01*
X149282394Y-76432394D01*
X149178169Y-76559392D01*
X149100722Y-76704284D01*
X149053031Y-76861500D01*
X149036928Y-77025000D01*
X149036928Y-77425000D01*
X149053031Y-77588500D01*
X149061576Y-77616670D01*
X149032795Y-77659744D01*
X148954774Y-77848102D01*
X148915000Y-78048061D01*
X146526740Y-78048061D01*
X146949203Y-77625599D01*
X147101898Y-77595226D01*
X147290256Y-77517205D01*
X147459774Y-77403937D01*
X147603937Y-77259774D01*
X147717205Y-77090256D01*
X147795226Y-76901898D01*
X147835000Y-76701939D01*
X147835000Y-76498061D01*
X147795226Y-76298102D01*
X147717205Y-76109744D01*
X147603937Y-75940226D01*
X147459774Y-75796063D01*
X147290256Y-75682795D01*
X147101898Y-75604774D01*
X146901939Y-75565000D01*
X146698061Y-75565000D01*
X146498102Y-75604774D01*
X146309744Y-75682795D01*
X146140226Y-75796063D01*
X145996063Y-75940226D01*
X145882795Y-76109744D01*
X145806468Y-76294013D01*
X145803937Y-76290226D01*
X145659774Y-76146063D01*
X145490256Y-76032795D01*
X145301898Y-75954774D01*
X145101939Y-75915000D01*
X144898061Y-75915000D01*
X144698102Y-75954774D01*
X144509744Y-76032795D01*
X144340226Y-76146063D01*
X144296289Y-76190000D01*
X144164802Y-76190000D01*
X144010000Y-76035199D01*
X144010000Y-75908733D01*
X144098102Y-75945226D01*
X144298061Y-75985000D01*
X144501939Y-75985000D01*
X144701898Y-75945226D01*
X144890256Y-75867205D01*
X145059774Y-75753937D01*
X145203937Y-75609774D01*
X145317205Y-75440256D01*
X145395226Y-75251898D01*
X145435000Y-75051939D01*
X145435000Y-74848061D01*
X145395226Y-74648102D01*
X145317205Y-74459744D01*
X145203937Y-74290226D01*
X145160000Y-74246289D01*
X145160000Y-71714801D01*
X146014802Y-70860000D01*
X154162678Y-70860000D01*
X154200000Y-70863676D01*
X154237322Y-70860000D01*
X154237333Y-70860000D01*
X154348986Y-70849003D01*
X154492247Y-70805546D01*
X154624276Y-70734974D01*
X154740001Y-70640001D01*
X154763803Y-70610998D01*
X155036002Y-70338800D01*
X155065001Y-70315001D01*
X155159974Y-70199276D01*
X155230546Y-70067247D01*
X155274003Y-69923986D01*
X155285000Y-69812333D01*
X155285000Y-69812324D01*
X155288676Y-69775001D01*
X155285000Y-69737678D01*
X155285000Y-68998377D01*
X155398102Y-69045226D01*
X155528781Y-69071219D01*
X155554774Y-69201898D01*
X155632795Y-69390256D01*
X155746063Y-69559774D01*
X155890226Y-69703937D01*
X156059744Y-69817205D01*
X156248102Y-69895226D01*
X156415000Y-69928424D01*
X156415000Y-70001939D01*
X156454774Y-70201898D01*
X156532795Y-70390256D01*
X156646063Y-70559774D01*
X156790226Y-70703937D01*
X156959744Y-70817205D01*
X157087136Y-70869973D01*
X157054774Y-70948102D01*
X157015000Y-71148061D01*
X157015000Y-71351939D01*
X157054774Y-71551898D01*
X157132795Y-71740256D01*
X157246063Y-71909774D01*
X157390226Y-72053937D01*
X157559744Y-72167205D01*
X157748102Y-72245226D01*
X157948061Y-72285000D01*
X158151939Y-72285000D01*
X158351898Y-72245226D01*
X158540256Y-72167205D01*
X158709774Y-72053937D01*
X158853937Y-71909774D01*
X158967205Y-71740256D01*
X159045226Y-71551898D01*
X159085000Y-71351939D01*
X159085000Y-71289802D01*
X159214802Y-71160000D01*
X161549128Y-71160000D01*
X161586450Y-71163676D01*
X161623772Y-71160000D01*
X161623783Y-71160000D01*
X161735436Y-71149003D01*
X161878697Y-71105546D01*
X161963906Y-71060000D01*
X169212678Y-71060000D01*
X169250000Y-71063676D01*
X169287322Y-71060000D01*
X169287333Y-71060000D01*
X169398986Y-71049003D01*
X169471249Y-71027083D01*
X165335636Y-72911928D01*
X164875000Y-72911928D01*
X164701746Y-72928992D01*
X164535150Y-72979528D01*
X164381614Y-73061595D01*
X164247038Y-73172038D01*
X164136595Y-73306614D01*
X164054528Y-73460150D01*
X164041977Y-73501526D01*
X163009831Y-73971936D01*
X162988297Y-73984432D01*
X162969616Y-74000889D01*
X162954503Y-74020674D01*
X162943541Y-74043027D01*
X162937151Y-74067089D01*
X162935517Y-74089600D01*
X163010787Y-78640000D01*
X161349770Y-78640000D01*
X161252962Y-78522038D01*
X161118386Y-78411595D01*
X160964850Y-78329528D01*
X160798254Y-78278992D01*
X160625000Y-78261928D01*
X159675000Y-78261928D01*
X159501746Y-78278992D01*
X159335150Y-78329528D01*
X159181614Y-78411595D01*
X159047038Y-78522038D01*
X158936595Y-78656614D01*
X158854528Y-78810150D01*
X158803992Y-78976746D01*
X158786928Y-79150000D01*
X158786928Y-79650000D01*
X158803992Y-79823254D01*
X158854528Y-79989850D01*
X158936595Y-80143386D01*
X159047038Y-80277962D01*
X159181614Y-80388405D01*
X159335150Y-80470472D01*
X159501746Y-80521008D01*
X159675000Y-80538072D01*
X160625000Y-80538072D01*
X160798254Y-80521008D01*
X160964850Y-80470472D01*
X161118386Y-80388405D01*
X161252962Y-80277962D01*
X161349770Y-80160000D01*
X163035930Y-80160000D01*
X163187185Y-89304070D01*
X141770735Y-89338988D01*
X140816633Y-86699982D01*
X140799879Y-86642742D01*
X140766914Y-86579590D01*
X140736247Y-86515300D01*
X140726643Y-86502439D01*
X140719210Y-86488200D01*
X140674546Y-86432679D01*
X140631936Y-86375621D01*
X140620005Y-86364879D01*
X140609939Y-86352366D01*
X140555314Y-86306634D01*
X140502380Y-86258975D01*
X140488583Y-86250767D01*
X140476270Y-86240459D01*
X140413778Y-86206266D01*
X140352557Y-86169847D01*
X140337418Y-86164487D01*
X140323335Y-86156781D01*
X140255381Y-86135439D01*
X140188225Y-86111660D01*
X140172336Y-86109357D01*
X140157015Y-86104545D01*
X140086174Y-86096867D01*
X140015698Y-86086651D01*
X139956153Y-86089773D01*
X127220284Y-85965156D01*
X127144882Y-85962429D01*
X127090223Y-85971261D01*
X127035053Y-85976150D01*
X127004358Y-85985134D01*
X126972783Y-85990236D01*
X126920884Y-86009567D01*
X126867742Y-86025121D01*
X126839391Y-86039920D01*
X126809418Y-86051084D01*
X126762289Y-86080167D01*
X126713200Y-86105791D01*
X126688283Y-86125835D01*
X126661062Y-86142633D01*
X126620508Y-86180356D01*
X126577366Y-86215061D01*
X126556838Y-86239581D01*
X126533417Y-86261367D01*
X126501001Y-86306276D01*
X126465459Y-86348731D01*
X126450111Y-86376781D01*
X126431388Y-86402721D01*
X126408351Y-86453105D01*
X126381781Y-86501665D01*
X126359179Y-86573629D01*
X125416890Y-89318563D01*
X118085000Y-89359986D01*
X118085000Y-58435000D01*
X162395164Y-58435000D01*
X162392260Y-59571928D01*
G37*
%TD.AperFunction*%
D30*
X140660150Y-65104528D02*
X140506614Y-65186595D01*
X140372038Y-65297038D01*
X140261595Y-65431614D01*
X140179528Y-65585150D01*
X140128992Y-65751746D01*
X140111928Y-65925000D01*
X140111928Y-66875000D01*
X140128992Y-67048254D01*
X140142556Y-67092970D01*
X140001939Y-67065000D01*
X139798061Y-67065000D01*
X139598102Y-67104774D01*
X139409744Y-67182795D01*
X139240226Y-67296063D01*
X139096063Y-67440226D01*
X138982795Y-67609744D01*
X138904774Y-67798102D01*
X138865000Y-67998061D01*
X138865000Y-68121576D01*
X138698102Y-68154774D01*
X138509744Y-68232795D01*
X138340226Y-68346063D01*
X138296289Y-68390000D01*
X137987323Y-68390000D01*
X137950000Y-68386324D01*
X137912677Y-68390000D01*
X137912667Y-68390000D01*
X137801014Y-68400997D01*
X137665032Y-68442246D01*
X137657753Y-68444454D01*
X137525723Y-68515026D01*
X137451409Y-68576015D01*
X137409999Y-68609999D01*
X137386201Y-68638997D01*
X136338998Y-69686201D01*
X136310000Y-69709999D01*
X136286202Y-69738997D01*
X136286201Y-69738998D01*
X136215026Y-69825724D01*
X136144454Y-69957754D01*
X136116780Y-70048986D01*
X136100998Y-70101014D01*
X136096102Y-70150724D01*
X136086324Y-70250000D01*
X136090001Y-70287332D01*
X136090000Y-72512677D01*
X136086324Y-72550000D01*
X136090000Y-72587322D01*
X136090000Y-72587332D01*
X136100997Y-72698985D01*
X136135885Y-72813997D01*
X136144454Y-72842246D01*
X136215026Y-72974276D01*
X136252104Y-73019455D01*
X136309999Y-73090001D01*
X136339003Y-73113804D01*
X136390001Y-73164802D01*
X136390000Y-75412677D01*
X136386324Y-75450000D01*
X136390000Y-75487322D01*
X136390000Y-75487332D01*
X136400997Y-75598985D01*
X136435734Y-75713500D01*
X136444454Y-75742246D01*
X136515026Y-75874276D01*
X136527931Y-75890000D01*
X136609999Y-75990001D01*
X136639003Y-76013804D01*
X137361928Y-76736729D01*
X137361928Y-78700000D01*
X137374188Y-78824482D01*
X137410498Y-78944180D01*
X137469463Y-79054494D01*
X137548815Y-79151185D01*
X137645506Y-79230537D01*
X137755820Y-79289502D01*
X137875518Y-79325812D01*
X138000000Y-79338072D01*
X138440001Y-79338072D01*
X138440001Y-79362668D01*
X138436324Y-79400000D01*
X138440001Y-79437333D01*
X138440703Y-79444455D01*
X138450998Y-79548985D01*
X138494454Y-79692246D01*
X138565026Y-79824276D01*
X138630888Y-79904528D01*
X138660000Y-79940001D01*
X138688998Y-79963799D01*
X138811928Y-80086729D01*
X138811928Y-80625000D01*
X138828992Y-80798254D01*
X138879528Y-80964850D01*
X138961595Y-81118386D01*
X139072038Y-81252962D01*
X139206614Y-81363405D01*
X139360150Y-81445472D01*
X139526746Y-81496008D01*
X139700000Y-81513072D01*
X140200000Y-81513072D01*
X140373254Y-81496008D01*
X140539850Y-81445472D01*
X140693386Y-81363405D01*
X140827962Y-81252962D01*
X140938405Y-81118386D01*
X141020472Y-80964850D01*
X141071008Y-80798254D01*
X141088072Y-80625000D01*
X141088072Y-79675000D01*
X141071008Y-79501746D01*
X141020472Y-79335150D01*
X140938405Y-79181614D01*
X140882309Y-79113260D01*
X140930537Y-79054494D01*
X140989502Y-78944180D01*
X141025812Y-78824482D01*
X141038072Y-78700000D01*
X141038072Y-78460000D01*
X141462678Y-78460000D01*
X141500000Y-78463676D01*
X141537322Y-78460000D01*
X141537333Y-78460000D01*
X141648986Y-78449003D01*
X141792247Y-78405546D01*
X141924276Y-78334974D01*
X142040001Y-78240001D01*
X142063803Y-78210998D01*
X142236730Y-78038072D01*
X142475000Y-78038072D01*
X142638500Y-78021969D01*
X142795716Y-77974278D01*
X142940608Y-77896831D01*
X143067606Y-77792606D01*
X143171831Y-77665608D01*
X143249278Y-77520716D01*
X143271770Y-77446571D01*
X143286200Y-77461002D01*
X143309999Y-77490001D01*
X143338997Y-77513799D01*
X143425723Y-77584974D01*
X143526794Y-77638998D01*
X143557753Y-77655546D01*
X143701014Y-77699003D01*
X143812667Y-77710000D01*
X143812676Y-77710000D01*
X143849999Y-77713676D01*
X143887322Y-77710000D01*
X144296289Y-77710000D01*
X144340226Y-77753937D01*
X144464431Y-77836928D01*
X144150000Y-77836928D01*
X143976746Y-77853992D01*
X143810150Y-77904528D01*
X143656614Y-77986595D01*
X143522038Y-78097038D01*
X143411595Y-78231614D01*
X143329528Y-78385150D01*
X143278992Y-78551746D01*
X143261928Y-78725000D01*
X143261928Y-79675000D01*
X143278992Y-79848254D01*
X143329528Y-80014850D01*
X143411595Y-80168386D01*
X143437540Y-80200000D01*
X143411595Y-80231614D01*
X143329528Y-80385150D01*
X143278992Y-80551746D01*
X143261928Y-80725000D01*
X143261928Y-81675000D01*
X143278992Y-81848254D01*
X143329528Y-82014850D01*
X143411595Y-82168386D01*
X143522038Y-82302962D01*
X143656614Y-82413405D01*
X143810150Y-82495472D01*
X143976746Y-82546008D01*
X144150000Y-82563072D01*
X144467846Y-82563072D01*
X144411595Y-82631614D01*
X144329528Y-82785150D01*
X144278992Y-82951746D01*
X144261928Y-83125000D01*
X144261928Y-84075000D01*
X144278992Y-84248254D01*
X144329528Y-84414850D01*
X144411595Y-84568386D01*
X144522038Y-84702962D01*
X144622710Y-84785581D01*
X144603169Y-84809392D01*
X144525722Y-84954284D01*
X144478031Y-85111500D01*
X144461928Y-85275000D01*
X144461928Y-85825000D01*
X144478031Y-85988500D01*
X144525722Y-86145716D01*
X144603169Y-86290608D01*
X144707394Y-86417606D01*
X144834392Y-86521831D01*
X144979284Y-86599278D01*
X145136500Y-86646969D01*
X145300000Y-86663072D01*
X145700000Y-86663072D01*
X145863500Y-86646969D01*
X146020716Y-86599278D01*
X146165608Y-86521831D01*
X146292606Y-86417606D01*
X146315000Y-86390318D01*
X146315000Y-86704132D01*
X146204133Y-86815000D01*
X143595869Y-86815000D01*
X141310000Y-84529133D01*
X141310000Y-84000700D01*
X141417205Y-83840256D01*
X141495226Y-83651898D01*
X141535000Y-83451939D01*
X141535000Y-83248061D01*
X141495226Y-83048102D01*
X141417205Y-82859744D01*
X141303937Y-82690226D01*
X141159774Y-82546063D01*
X140990256Y-82432795D01*
X140801898Y-82354774D01*
X140601939Y-82315000D01*
X140398061Y-82315000D01*
X140198102Y-82354774D01*
X140009744Y-82432795D01*
X139840226Y-82546063D01*
X139696063Y-82690226D01*
X139605953Y-82825086D01*
X139069446Y-82288579D01*
X139043291Y-82256709D01*
X138916146Y-82152364D01*
X138771087Y-82074828D01*
X138613689Y-82027082D01*
X138491019Y-82015000D01*
X138491018Y-82015000D01*
X138450000Y-82010960D01*
X138408982Y-82015000D01*
X131332402Y-82015000D01*
X131335000Y-82001939D01*
X131335000Y-81798061D01*
X131295226Y-81598102D01*
X131217205Y-81409744D01*
X131103937Y-81240226D01*
X130959774Y-81096063D01*
X130790256Y-80982795D01*
X130601898Y-80904774D01*
X130401939Y-80865000D01*
X130198061Y-80865000D01*
X129998102Y-80904774D01*
X129809744Y-80982795D01*
X129782121Y-81001252D01*
X128885000Y-80104133D01*
X128885000Y-77413285D01*
X128967205Y-77290256D01*
X129045226Y-77101898D01*
X129085000Y-76901939D01*
X129085000Y-76698061D01*
X129045226Y-76498102D01*
X128967205Y-76309744D01*
X128853937Y-76140226D01*
X128709774Y-75996063D01*
X128540256Y-75882795D01*
X128351898Y-75804774D01*
X128151939Y-75765000D01*
X127948061Y-75765000D01*
X127748102Y-75804774D01*
X127559744Y-75882795D01*
X127390226Y-75996063D01*
X127335000Y-76051289D01*
X127335000Y-73920867D01*
X128471423Y-72784445D01*
X128528169Y-72890608D01*
X128632394Y-73017606D01*
X128759392Y-73121831D01*
X128904284Y-73199278D01*
X129061500Y-73246969D01*
X129225000Y-73263072D01*
X129463271Y-73263072D01*
X130036201Y-73836003D01*
X130059999Y-73865001D01*
X130088997Y-73888799D01*
X130175723Y-73959974D01*
X130307753Y-74030546D01*
X130451014Y-74074003D01*
X130562667Y-74085000D01*
X130562677Y-74085000D01*
X130600000Y-74088676D01*
X130637323Y-74085000D01*
X131123982Y-74085000D01*
X131198815Y-74176185D01*
X131295506Y-74255537D01*
X131405820Y-74314502D01*
X131525518Y-74350812D01*
X131650000Y-74363072D01*
X131950000Y-74363072D01*
X132074482Y-74350812D01*
X132194180Y-74314502D01*
X132300000Y-74257939D01*
X132405820Y-74314502D01*
X132525518Y-74350812D01*
X132540000Y-74352238D01*
X132540001Y-74870262D01*
X132509744Y-74882795D01*
X132340226Y-74996063D01*
X132196063Y-75140226D01*
X132082795Y-75309744D01*
X132004774Y-75498102D01*
X131965000Y-75698061D01*
X131965000Y-75901939D01*
X132004774Y-76101898D01*
X132082795Y-76290256D01*
X132196063Y-76459774D01*
X132340226Y-76603937D01*
X132509744Y-76717205D01*
X132698102Y-76795226D01*
X132898061Y-76835000D01*
X133040001Y-76835000D01*
X133040001Y-77062668D01*
X133036324Y-77100000D01*
X133040001Y-77137333D01*
X133050998Y-77248986D01*
X133054339Y-77259999D01*
X133094454Y-77392246D01*
X133165026Y-77524276D01*
X133226353Y-77599002D01*
X133260000Y-77640001D01*
X133288998Y-77663799D01*
X133665000Y-78039801D01*
X133665000Y-78101939D01*
X133704774Y-78301898D01*
X133782795Y-78490256D01*
X133896063Y-78659774D01*
X134040226Y-78803937D01*
X134209744Y-78917205D01*
X134398102Y-78995226D01*
X134598061Y-79035000D01*
X134801939Y-79035000D01*
X135001898Y-78995226D01*
X135190256Y-78917205D01*
X135359774Y-78803937D01*
X135503937Y-78659774D01*
X135617205Y-78490256D01*
X135695226Y-78301898D01*
X135735000Y-78101939D01*
X135735000Y-77898061D01*
X135695226Y-77698102D01*
X135642617Y-77571094D01*
X135703937Y-77509774D01*
X135817205Y-77340256D01*
X135895226Y-77151898D01*
X135935000Y-76951939D01*
X135935000Y-76748061D01*
X135895226Y-76548102D01*
X135817205Y-76359744D01*
X135703937Y-76190226D01*
X135559774Y-76046063D01*
X135390256Y-75932795D01*
X135201898Y-75854774D01*
X135060000Y-75826549D01*
X135060000Y-75757538D01*
X135198061Y-75785000D01*
X135401939Y-75785000D01*
X135601898Y-75745226D01*
X135790256Y-75667205D01*
X135959774Y-75553937D01*
X136103937Y-75409774D01*
X136217205Y-75240256D01*
X136295226Y-75051898D01*
X136335000Y-74851939D01*
X136335000Y-74648061D01*
X136295226Y-74448102D01*
X136217205Y-74259744D01*
X136103937Y-74090226D01*
X136060000Y-74046289D01*
X136060000Y-73901607D01*
X136075812Y-73849482D01*
X136088072Y-73725000D01*
X136088072Y-72925000D01*
X136075812Y-72800518D01*
X136039502Y-72680820D01*
X135980537Y-72570506D01*
X135901185Y-72473815D01*
X135804494Y-72394463D01*
X135694180Y-72335498D01*
X135574482Y-72299188D01*
X135450000Y-72286928D01*
X135446309Y-72286928D01*
X135434974Y-72265722D01*
X135340001Y-72149997D01*
X135311003Y-72126199D01*
X133248806Y-70064003D01*
X133225003Y-70034999D01*
X133109278Y-69940026D01*
X132977249Y-69869454D01*
X132833988Y-69825997D01*
X132722335Y-69815000D01*
X132722324Y-69815000D01*
X132685002Y-69811324D01*
X132647680Y-69815000D01*
X131026647Y-69815000D01*
X131064502Y-69744180D01*
X131100812Y-69624482D01*
X131113072Y-69500000D01*
X131113072Y-67803000D01*
X133333780Y-67803000D01*
X133369038Y-67845962D01*
X133503614Y-67956405D01*
X133657150Y-68038472D01*
X133823746Y-68089008D01*
X133997000Y-68106072D01*
X134947000Y-68106072D01*
X135120254Y-68089008D01*
X135286850Y-68038472D01*
X135440386Y-67956405D01*
X135574962Y-67845962D01*
X135685405Y-67711386D01*
X135703484Y-67677563D01*
X135716725Y-67673546D01*
X135848754Y-67602974D01*
X135964479Y-67508001D01*
X135988282Y-67478997D01*
X137491535Y-65975745D01*
X137561500Y-65996969D01*
X137725000Y-66013072D01*
X138125000Y-66013072D01*
X138288500Y-65996969D01*
X138445716Y-65949278D01*
X138590608Y-65871831D01*
X138717606Y-65767606D01*
X138821831Y-65640608D01*
X138899278Y-65495716D01*
X138946969Y-65338500D01*
X138963072Y-65175000D01*
X138963072Y-65085000D01*
X140724526Y-65085000D01*
X140660150Y-65104528D01*
%TA.AperFunction,Conductor*%
D31*
G36*
X140660150Y-65104528D02*
G01*
X140506614Y-65186595D01*
X140372038Y-65297038D01*
X140261595Y-65431614D01*
X140179528Y-65585150D01*
X140128992Y-65751746D01*
X140111928Y-65925000D01*
X140111928Y-66875000D01*
X140128992Y-67048254D01*
X140142556Y-67092970D01*
X140001939Y-67065000D01*
X139798061Y-67065000D01*
X139598102Y-67104774D01*
X139409744Y-67182795D01*
X139240226Y-67296063D01*
X139096063Y-67440226D01*
X138982795Y-67609744D01*
X138904774Y-67798102D01*
X138865000Y-67998061D01*
X138865000Y-68121576D01*
X138698102Y-68154774D01*
X138509744Y-68232795D01*
X138340226Y-68346063D01*
X138296289Y-68390000D01*
X137987323Y-68390000D01*
X137950000Y-68386324D01*
X137912677Y-68390000D01*
X137912667Y-68390000D01*
X137801014Y-68400997D01*
X137665032Y-68442246D01*
X137657753Y-68444454D01*
X137525723Y-68515026D01*
X137451409Y-68576015D01*
X137409999Y-68609999D01*
X137386201Y-68638997D01*
X136338998Y-69686201D01*
X136310000Y-69709999D01*
X136286202Y-69738997D01*
X136286201Y-69738998D01*
X136215026Y-69825724D01*
X136144454Y-69957754D01*
X136116780Y-70048986D01*
X136100998Y-70101014D01*
X136096102Y-70150724D01*
X136086324Y-70250000D01*
X136090001Y-70287332D01*
X136090000Y-72512677D01*
X136086324Y-72550000D01*
X136090000Y-72587322D01*
X136090000Y-72587332D01*
X136100997Y-72698985D01*
X136135885Y-72813997D01*
X136144454Y-72842246D01*
X136215026Y-72974276D01*
X136252104Y-73019455D01*
X136309999Y-73090001D01*
X136339003Y-73113804D01*
X136390001Y-73164802D01*
X136390000Y-75412677D01*
X136386324Y-75450000D01*
X136390000Y-75487322D01*
X136390000Y-75487332D01*
X136400997Y-75598985D01*
X136435734Y-75713500D01*
X136444454Y-75742246D01*
X136515026Y-75874276D01*
X136527931Y-75890000D01*
X136609999Y-75990001D01*
X136639003Y-76013804D01*
X137361928Y-76736729D01*
X137361928Y-78700000D01*
X137374188Y-78824482D01*
X137410498Y-78944180D01*
X137469463Y-79054494D01*
X137548815Y-79151185D01*
X137645506Y-79230537D01*
X137755820Y-79289502D01*
X137875518Y-79325812D01*
X138000000Y-79338072D01*
X138440001Y-79338072D01*
X138440001Y-79362668D01*
X138436324Y-79400000D01*
X138440001Y-79437333D01*
X138440703Y-79444455D01*
X138450998Y-79548985D01*
X138494454Y-79692246D01*
X138565026Y-79824276D01*
X138630888Y-79904528D01*
X138660000Y-79940001D01*
X138688998Y-79963799D01*
X138811928Y-80086729D01*
X138811928Y-80625000D01*
X138828992Y-80798254D01*
X138879528Y-80964850D01*
X138961595Y-81118386D01*
X139072038Y-81252962D01*
X139206614Y-81363405D01*
X139360150Y-81445472D01*
X139526746Y-81496008D01*
X139700000Y-81513072D01*
X140200000Y-81513072D01*
X140373254Y-81496008D01*
X140539850Y-81445472D01*
X140693386Y-81363405D01*
X140827962Y-81252962D01*
X140938405Y-81118386D01*
X141020472Y-80964850D01*
X141071008Y-80798254D01*
X141088072Y-80625000D01*
X141088072Y-79675000D01*
X141071008Y-79501746D01*
X141020472Y-79335150D01*
X140938405Y-79181614D01*
X140882309Y-79113260D01*
X140930537Y-79054494D01*
X140989502Y-78944180D01*
X141025812Y-78824482D01*
X141038072Y-78700000D01*
X141038072Y-78460000D01*
X141462678Y-78460000D01*
X141500000Y-78463676D01*
X141537322Y-78460000D01*
X141537333Y-78460000D01*
X141648986Y-78449003D01*
X141792247Y-78405546D01*
X141924276Y-78334974D01*
X142040001Y-78240001D01*
X142063803Y-78210998D01*
X142236730Y-78038072D01*
X142475000Y-78038072D01*
X142638500Y-78021969D01*
X142795716Y-77974278D01*
X142940608Y-77896831D01*
X143067606Y-77792606D01*
X143171831Y-77665608D01*
X143249278Y-77520716D01*
X143271770Y-77446571D01*
X143286200Y-77461002D01*
X143309999Y-77490001D01*
X143338997Y-77513799D01*
X143425723Y-77584974D01*
X143526794Y-77638998D01*
X143557753Y-77655546D01*
X143701014Y-77699003D01*
X143812667Y-77710000D01*
X143812676Y-77710000D01*
X143849999Y-77713676D01*
X143887322Y-77710000D01*
X144296289Y-77710000D01*
X144340226Y-77753937D01*
X144464431Y-77836928D01*
X144150000Y-77836928D01*
X143976746Y-77853992D01*
X143810150Y-77904528D01*
X143656614Y-77986595D01*
X143522038Y-78097038D01*
X143411595Y-78231614D01*
X143329528Y-78385150D01*
X143278992Y-78551746D01*
X143261928Y-78725000D01*
X143261928Y-79675000D01*
X143278992Y-79848254D01*
X143329528Y-80014850D01*
X143411595Y-80168386D01*
X143437540Y-80200000D01*
X143411595Y-80231614D01*
X143329528Y-80385150D01*
X143278992Y-80551746D01*
X143261928Y-80725000D01*
X143261928Y-81675000D01*
X143278992Y-81848254D01*
X143329528Y-82014850D01*
X143411595Y-82168386D01*
X143522038Y-82302962D01*
X143656614Y-82413405D01*
X143810150Y-82495472D01*
X143976746Y-82546008D01*
X144150000Y-82563072D01*
X144467846Y-82563072D01*
X144411595Y-82631614D01*
X144329528Y-82785150D01*
X144278992Y-82951746D01*
X144261928Y-83125000D01*
X144261928Y-84075000D01*
X144278992Y-84248254D01*
X144329528Y-84414850D01*
X144411595Y-84568386D01*
X144522038Y-84702962D01*
X144622710Y-84785581D01*
X144603169Y-84809392D01*
X144525722Y-84954284D01*
X144478031Y-85111500D01*
X144461928Y-85275000D01*
X144461928Y-85825000D01*
X144478031Y-85988500D01*
X144525722Y-86145716D01*
X144603169Y-86290608D01*
X144707394Y-86417606D01*
X144834392Y-86521831D01*
X144979284Y-86599278D01*
X145136500Y-86646969D01*
X145300000Y-86663072D01*
X145700000Y-86663072D01*
X145863500Y-86646969D01*
X146020716Y-86599278D01*
X146165608Y-86521831D01*
X146292606Y-86417606D01*
X146315000Y-86390318D01*
X146315000Y-86704132D01*
X146204133Y-86815000D01*
X143595869Y-86815000D01*
X141310000Y-84529133D01*
X141310000Y-84000700D01*
X141417205Y-83840256D01*
X141495226Y-83651898D01*
X141535000Y-83451939D01*
X141535000Y-83248061D01*
X141495226Y-83048102D01*
X141417205Y-82859744D01*
X141303937Y-82690226D01*
X141159774Y-82546063D01*
X140990256Y-82432795D01*
X140801898Y-82354774D01*
X140601939Y-82315000D01*
X140398061Y-82315000D01*
X140198102Y-82354774D01*
X140009744Y-82432795D01*
X139840226Y-82546063D01*
X139696063Y-82690226D01*
X139605953Y-82825086D01*
X139069446Y-82288579D01*
X139043291Y-82256709D01*
X138916146Y-82152364D01*
X138771087Y-82074828D01*
X138613689Y-82027082D01*
X138491019Y-82015000D01*
X138491018Y-82015000D01*
X138450000Y-82010960D01*
X138408982Y-82015000D01*
X131332402Y-82015000D01*
X131335000Y-82001939D01*
X131335000Y-81798061D01*
X131295226Y-81598102D01*
X131217205Y-81409744D01*
X131103937Y-81240226D01*
X130959774Y-81096063D01*
X130790256Y-80982795D01*
X130601898Y-80904774D01*
X130401939Y-80865000D01*
X130198061Y-80865000D01*
X129998102Y-80904774D01*
X129809744Y-80982795D01*
X129782121Y-81001252D01*
X128885000Y-80104133D01*
X128885000Y-77413285D01*
X128967205Y-77290256D01*
X129045226Y-77101898D01*
X129085000Y-76901939D01*
X129085000Y-76698061D01*
X129045226Y-76498102D01*
X128967205Y-76309744D01*
X128853937Y-76140226D01*
X128709774Y-75996063D01*
X128540256Y-75882795D01*
X128351898Y-75804774D01*
X128151939Y-75765000D01*
X127948061Y-75765000D01*
X127748102Y-75804774D01*
X127559744Y-75882795D01*
X127390226Y-75996063D01*
X127335000Y-76051289D01*
X127335000Y-73920867D01*
X128471423Y-72784445D01*
X128528169Y-72890608D01*
X128632394Y-73017606D01*
X128759392Y-73121831D01*
X128904284Y-73199278D01*
X129061500Y-73246969D01*
X129225000Y-73263072D01*
X129463271Y-73263072D01*
X130036201Y-73836003D01*
X130059999Y-73865001D01*
X130088997Y-73888799D01*
X130175723Y-73959974D01*
X130307753Y-74030546D01*
X130451014Y-74074003D01*
X130562667Y-74085000D01*
X130562677Y-74085000D01*
X130600000Y-74088676D01*
X130637323Y-74085000D01*
X131123982Y-74085000D01*
X131198815Y-74176185D01*
X131295506Y-74255537D01*
X131405820Y-74314502D01*
X131525518Y-74350812D01*
X131650000Y-74363072D01*
X131950000Y-74363072D01*
X132074482Y-74350812D01*
X132194180Y-74314502D01*
X132300000Y-74257939D01*
X132405820Y-74314502D01*
X132525518Y-74350812D01*
X132540000Y-74352238D01*
X132540001Y-74870262D01*
X132509744Y-74882795D01*
X132340226Y-74996063D01*
X132196063Y-75140226D01*
X132082795Y-75309744D01*
X132004774Y-75498102D01*
X131965000Y-75698061D01*
X131965000Y-75901939D01*
X132004774Y-76101898D01*
X132082795Y-76290256D01*
X132196063Y-76459774D01*
X132340226Y-76603937D01*
X132509744Y-76717205D01*
X132698102Y-76795226D01*
X132898061Y-76835000D01*
X133040001Y-76835000D01*
X133040001Y-77062668D01*
X133036324Y-77100000D01*
X133040001Y-77137333D01*
X133050998Y-77248986D01*
X133054339Y-77259999D01*
X133094454Y-77392246D01*
X133165026Y-77524276D01*
X133226353Y-77599002D01*
X133260000Y-77640001D01*
X133288998Y-77663799D01*
X133665000Y-78039801D01*
X133665000Y-78101939D01*
X133704774Y-78301898D01*
X133782795Y-78490256D01*
X133896063Y-78659774D01*
X134040226Y-78803937D01*
X134209744Y-78917205D01*
X134398102Y-78995226D01*
X134598061Y-79035000D01*
X134801939Y-79035000D01*
X135001898Y-78995226D01*
X135190256Y-78917205D01*
X135359774Y-78803937D01*
X135503937Y-78659774D01*
X135617205Y-78490256D01*
X135695226Y-78301898D01*
X135735000Y-78101939D01*
X135735000Y-77898061D01*
X135695226Y-77698102D01*
X135642617Y-77571094D01*
X135703937Y-77509774D01*
X135817205Y-77340256D01*
X135895226Y-77151898D01*
X135935000Y-76951939D01*
X135935000Y-76748061D01*
X135895226Y-76548102D01*
X135817205Y-76359744D01*
X135703937Y-76190226D01*
X135559774Y-76046063D01*
X135390256Y-75932795D01*
X135201898Y-75854774D01*
X135060000Y-75826549D01*
X135060000Y-75757538D01*
X135198061Y-75785000D01*
X135401939Y-75785000D01*
X135601898Y-75745226D01*
X135790256Y-75667205D01*
X135959774Y-75553937D01*
X136103937Y-75409774D01*
X136217205Y-75240256D01*
X136295226Y-75051898D01*
X136335000Y-74851939D01*
X136335000Y-74648061D01*
X136295226Y-74448102D01*
X136217205Y-74259744D01*
X136103937Y-74090226D01*
X136060000Y-74046289D01*
X136060000Y-73901607D01*
X136075812Y-73849482D01*
X136088072Y-73725000D01*
X136088072Y-72925000D01*
X136075812Y-72800518D01*
X136039502Y-72680820D01*
X135980537Y-72570506D01*
X135901185Y-72473815D01*
X135804494Y-72394463D01*
X135694180Y-72335498D01*
X135574482Y-72299188D01*
X135450000Y-72286928D01*
X135446309Y-72286928D01*
X135434974Y-72265722D01*
X135340001Y-72149997D01*
X135311003Y-72126199D01*
X133248806Y-70064003D01*
X133225003Y-70034999D01*
X133109278Y-69940026D01*
X132977249Y-69869454D01*
X132833988Y-69825997D01*
X132722335Y-69815000D01*
X132722324Y-69815000D01*
X132685002Y-69811324D01*
X132647680Y-69815000D01*
X131026647Y-69815000D01*
X131064502Y-69744180D01*
X131100812Y-69624482D01*
X131113072Y-69500000D01*
X131113072Y-67803000D01*
X133333780Y-67803000D01*
X133369038Y-67845962D01*
X133503614Y-67956405D01*
X133657150Y-68038472D01*
X133823746Y-68089008D01*
X133997000Y-68106072D01*
X134947000Y-68106072D01*
X135120254Y-68089008D01*
X135286850Y-68038472D01*
X135440386Y-67956405D01*
X135574962Y-67845962D01*
X135685405Y-67711386D01*
X135703484Y-67677563D01*
X135716725Y-67673546D01*
X135848754Y-67602974D01*
X135964479Y-67508001D01*
X135988282Y-67478997D01*
X137491535Y-65975745D01*
X137561500Y-65996969D01*
X137725000Y-66013072D01*
X138125000Y-66013072D01*
X138288500Y-65996969D01*
X138445716Y-65949278D01*
X138590608Y-65871831D01*
X138717606Y-65767606D01*
X138821831Y-65640608D01*
X138899278Y-65495716D01*
X138946969Y-65338500D01*
X138963072Y-65175000D01*
X138963072Y-65085000D01*
X140724526Y-65085000D01*
X140660150Y-65104528D01*
G37*
%TD.AperFunction*%
D30*
X149611546Y-69319193D02*
X149628622Y-69340000D01*
X145737325Y-69340000D01*
X145700000Y-69336324D01*
X145662675Y-69340000D01*
X145662667Y-69340000D01*
X145551014Y-69350997D01*
X145407753Y-69394454D01*
X145275724Y-69465026D01*
X145159999Y-69559999D01*
X145136201Y-69588997D01*
X143889003Y-70836196D01*
X143859999Y-70859999D01*
X143804871Y-70927174D01*
X143765026Y-70975724D01*
X143699132Y-71099003D01*
X143694454Y-71107754D01*
X143650997Y-71251015D01*
X143640000Y-71362668D01*
X143640000Y-71362678D01*
X143636324Y-71400000D01*
X143640000Y-71437323D01*
X143640001Y-73665199D01*
X142235000Y-72260199D01*
X142235000Y-72198061D01*
X142195226Y-71998102D01*
X142150383Y-71889842D01*
X142293386Y-71813405D01*
X142427962Y-71702962D01*
X142538405Y-71568386D01*
X142620472Y-71414850D01*
X142671008Y-71248254D01*
X142688072Y-71075000D01*
X142688072Y-70125000D01*
X142671008Y-69951746D01*
X142620472Y-69785150D01*
X142538405Y-69631614D01*
X142427962Y-69497038D01*
X142293386Y-69386595D01*
X142139850Y-69304528D01*
X142010000Y-69265139D01*
X142010000Y-67599770D01*
X142127962Y-67502962D01*
X142238405Y-67368386D01*
X142320472Y-67214850D01*
X142371008Y-67048254D01*
X142388072Y-66875000D01*
X142388072Y-65925000D01*
X142371008Y-65751746D01*
X142320472Y-65585150D01*
X142238405Y-65431614D01*
X142127962Y-65297038D01*
X141993386Y-65186595D01*
X141839850Y-65104528D01*
X141775474Y-65085000D01*
X145377354Y-65085000D01*
X149611546Y-69319193D01*
%TA.AperFunction,Conductor*%
D31*
G36*
X149611546Y-69319193D02*
G01*
X149628622Y-69340000D01*
X145737325Y-69340000D01*
X145700000Y-69336324D01*
X145662675Y-69340000D01*
X145662667Y-69340000D01*
X145551014Y-69350997D01*
X145407753Y-69394454D01*
X145275724Y-69465026D01*
X145159999Y-69559999D01*
X145136201Y-69588997D01*
X143889003Y-70836196D01*
X143859999Y-70859999D01*
X143804871Y-70927174D01*
X143765026Y-70975724D01*
X143699132Y-71099003D01*
X143694454Y-71107754D01*
X143650997Y-71251015D01*
X143640000Y-71362668D01*
X143640000Y-71362678D01*
X143636324Y-71400000D01*
X143640000Y-71437323D01*
X143640001Y-73665199D01*
X142235000Y-72260199D01*
X142235000Y-72198061D01*
X142195226Y-71998102D01*
X142150383Y-71889842D01*
X142293386Y-71813405D01*
X142427962Y-71702962D01*
X142538405Y-71568386D01*
X142620472Y-71414850D01*
X142671008Y-71248254D01*
X142688072Y-71075000D01*
X142688072Y-70125000D01*
X142671008Y-69951746D01*
X142620472Y-69785150D01*
X142538405Y-69631614D01*
X142427962Y-69497038D01*
X142293386Y-69386595D01*
X142139850Y-69304528D01*
X142010000Y-69265139D01*
X142010000Y-67599770D01*
X142127962Y-67502962D01*
X142238405Y-67368386D01*
X142320472Y-67214850D01*
X142371008Y-67048254D01*
X142388072Y-66875000D01*
X142388072Y-65925000D01*
X142371008Y-65751746D01*
X142320472Y-65585150D01*
X142238405Y-65431614D01*
X142127962Y-65297038D01*
X141993386Y-65186595D01*
X141839850Y-65104528D01*
X141775474Y-65085000D01*
X145377354Y-65085000D01*
X149611546Y-69319193D01*
G37*
%TD.AperFunction*%
D30*
X138340226Y-69953937D02*
X138509744Y-70067205D01*
X138698102Y-70145226D01*
X138898061Y-70185000D01*
X139101939Y-70185000D01*
X139190000Y-70167484D01*
X139190000Y-70500229D01*
X139072038Y-70597038D01*
X138961595Y-70731614D01*
X138879528Y-70885150D01*
X138828992Y-71051746D01*
X138811928Y-71225000D01*
X138811928Y-71763271D01*
X138688998Y-71886201D01*
X138660000Y-71909999D01*
X138636202Y-71938997D01*
X138636201Y-71938998D01*
X138565026Y-72025724D01*
X138494454Y-72157754D01*
X138450998Y-72301015D01*
X138444998Y-72361928D01*
X138000000Y-72361928D01*
X137875518Y-72374188D01*
X137769158Y-72406452D01*
X137690001Y-72309999D01*
X137660997Y-72286196D01*
X137610000Y-72235199D01*
X137610000Y-70564801D01*
X138264802Y-69910000D01*
X138296289Y-69910000D01*
X138340226Y-69953937D01*
%TA.AperFunction,Conductor*%
D31*
G36*
X138340226Y-69953937D02*
G01*
X138509744Y-70067205D01*
X138698102Y-70145226D01*
X138898061Y-70185000D01*
X139101939Y-70185000D01*
X139190000Y-70167484D01*
X139190000Y-70500229D01*
X139072038Y-70597038D01*
X138961595Y-70731614D01*
X138879528Y-70885150D01*
X138828992Y-71051746D01*
X138811928Y-71225000D01*
X138811928Y-71763271D01*
X138688998Y-71886201D01*
X138660000Y-71909999D01*
X138636202Y-71938997D01*
X138636201Y-71938998D01*
X138565026Y-72025724D01*
X138494454Y-72157754D01*
X138450998Y-72301015D01*
X138444998Y-72361928D01*
X138000000Y-72361928D01*
X137875518Y-72374188D01*
X137769158Y-72406452D01*
X137690001Y-72309999D01*
X137660997Y-72286196D01*
X137610000Y-72235199D01*
X137610000Y-70564801D01*
X138264802Y-69910000D01*
X138296289Y-69910000D01*
X138340226Y-69953937D01*
G37*
%TD.AperFunction*%
D30*
X161898102Y-64645226D02*
X162098061Y-64685000D01*
X162301939Y-64685000D01*
X162379239Y-64669624D01*
X162373000Y-67112176D01*
X162375377Y-67136958D01*
X162382544Y-67160801D01*
X162394223Y-67182787D01*
X162409968Y-67202073D01*
X162429173Y-67217916D01*
X162451100Y-67229708D01*
X162474905Y-67236996D01*
X162497240Y-67239470D01*
X168533268Y-67370688D01*
X168582795Y-67490256D01*
X168663764Y-67611435D01*
X168235199Y-68040000D01*
X162514802Y-68040000D01*
X162013803Y-67539002D01*
X161990001Y-67509999D01*
X161874276Y-67415026D01*
X161742247Y-67344454D01*
X161598986Y-67300997D01*
X161487333Y-67290000D01*
X161487322Y-67290000D01*
X161450000Y-67286324D01*
X161412678Y-67290000D01*
X159134801Y-67290000D01*
X161814292Y-64610510D01*
X161898102Y-64645226D01*
%TA.AperFunction,Conductor*%
D31*
G36*
X161898102Y-64645226D02*
G01*
X162098061Y-64685000D01*
X162301939Y-64685000D01*
X162379239Y-64669624D01*
X162373000Y-67112176D01*
X162375377Y-67136958D01*
X162382544Y-67160801D01*
X162394223Y-67182787D01*
X162409968Y-67202073D01*
X162429173Y-67217916D01*
X162451100Y-67229708D01*
X162474905Y-67236996D01*
X162497240Y-67239470D01*
X168533268Y-67370688D01*
X168582795Y-67490256D01*
X168663764Y-67611435D01*
X168235199Y-68040000D01*
X162514802Y-68040000D01*
X162013803Y-67539002D01*
X161990001Y-67509999D01*
X161874276Y-67415026D01*
X161742247Y-67344454D01*
X161598986Y-67300997D01*
X161487333Y-67290000D01*
X161487322Y-67290000D01*
X161450000Y-67286324D01*
X161412678Y-67290000D01*
X159134801Y-67290000D01*
X161814292Y-64610510D01*
X161898102Y-64645226D01*
G37*
%TD.AperFunction*%
%TD*%
M02*
