%TF.GenerationSoftware,KiCad,Pcbnew,(5.1.9)-1*%
%TF.CreationDate,2021-04-11T16:36:30+08:00*%
%TF.ProjectId,st_usbAudioV1_demo,73745f75-7362-4417-9564-696f56315f64,rev?*%
%TF.SameCoordinates,Original*%
%TF.FileFunction,Legend,Top*%
%TF.FilePolarity,Positive*%
%FSLAX46Y46*%
G04 Gerber Fmt 4.6, Leading zero omitted, Abs format (unit mm)*
G04 Created by KiCad (PCBNEW (5.1.9)-1) date 2021-04-11 16:36:30*
%MOMM*%
%LPD*%
G01*
G04 APERTURE LIST*
%ADD10C,0.150000*%
%ADD11C,0.120000*%
%ADD12C,0.152400*%
%ADD13C,0.200000*%
%ADD14C,0.127000*%
%ADD15C,0.400000*%
%ADD16C,0.015000*%
G04 APERTURE END LIST*
D10*
X155566666Y-66491666D02*
X156042857Y-66491666D01*
X155471428Y-66777380D02*
X155804761Y-65777380D01*
X156138095Y-66777380D01*
X156900000Y-66110714D02*
X156900000Y-66777380D01*
X156471428Y-66110714D02*
X156471428Y-66634523D01*
X156519047Y-66729761D01*
X156614285Y-66777380D01*
X156757142Y-66777380D01*
X156852380Y-66729761D01*
X156900000Y-66682142D01*
X157804761Y-66777380D02*
X157804761Y-65777380D01*
X157804761Y-66729761D02*
X157709523Y-66777380D01*
X157519047Y-66777380D01*
X157423809Y-66729761D01*
X157376190Y-66682142D01*
X157328571Y-66586904D01*
X157328571Y-66301190D01*
X157376190Y-66205952D01*
X157423809Y-66158333D01*
X157519047Y-66110714D01*
X157709523Y-66110714D01*
X157804761Y-66158333D01*
X158280952Y-66777380D02*
X158280952Y-66110714D01*
X158280952Y-65777380D02*
X158233333Y-65825000D01*
X158280952Y-65872619D01*
X158328571Y-65825000D01*
X158280952Y-65777380D01*
X158280952Y-65872619D01*
X158900000Y-66777380D02*
X158804761Y-66729761D01*
X158757142Y-66682142D01*
X158709523Y-66586904D01*
X158709523Y-66301190D01*
X158757142Y-66205952D01*
X158804761Y-66158333D01*
X158900000Y-66110714D01*
X159042857Y-66110714D01*
X159138095Y-66158333D01*
X159185714Y-66205952D01*
X159233333Y-66301190D01*
X159233333Y-66586904D01*
X159185714Y-66682142D01*
X159138095Y-66729761D01*
X159042857Y-66777380D01*
X158900000Y-66777380D01*
X155876190Y-67427380D02*
X156209523Y-68427380D01*
X156542857Y-67427380D01*
X157400000Y-68427380D02*
X156828571Y-68427380D01*
X157114285Y-68427380D02*
X157114285Y-67427380D01*
X157019047Y-67570238D01*
X156923809Y-67665476D01*
X156828571Y-67713095D01*
X157828571Y-68332142D02*
X157876190Y-68379761D01*
X157828571Y-68427380D01*
X157780952Y-68379761D01*
X157828571Y-68332142D01*
X157828571Y-68427380D01*
X158495238Y-67427380D02*
X158590476Y-67427380D01*
X158685714Y-67475000D01*
X158733333Y-67522619D01*
X158780952Y-67617857D01*
X158828571Y-67808333D01*
X158828571Y-68046428D01*
X158780952Y-68236904D01*
X158733333Y-68332142D01*
X158685714Y-68379761D01*
X158590476Y-68427380D01*
X158495238Y-68427380D01*
X158400000Y-68379761D01*
X158352380Y-68332142D01*
X158304761Y-68236904D01*
X158257142Y-68046428D01*
X158257142Y-67808333D01*
X158304761Y-67617857D01*
X158352380Y-67522619D01*
X158400000Y-67475000D01*
X158495238Y-67427380D01*
X145138095Y-88002380D02*
X145138095Y-88811904D01*
X145185714Y-88907142D01*
X145233333Y-88954761D01*
X145328571Y-89002380D01*
X145519047Y-89002380D01*
X145614285Y-88954761D01*
X145661904Y-88907142D01*
X145709523Y-88811904D01*
X145709523Y-88002380D01*
X146138095Y-88954761D02*
X146280952Y-89002380D01*
X146519047Y-89002380D01*
X146614285Y-88954761D01*
X146661904Y-88907142D01*
X146709523Y-88811904D01*
X146709523Y-88716666D01*
X146661904Y-88621428D01*
X146614285Y-88573809D01*
X146519047Y-88526190D01*
X146328571Y-88478571D01*
X146233333Y-88430952D01*
X146185714Y-88383333D01*
X146138095Y-88288095D01*
X146138095Y-88192857D01*
X146185714Y-88097619D01*
X146233333Y-88050000D01*
X146328571Y-88002380D01*
X146566666Y-88002380D01*
X146709523Y-88050000D01*
X147709523Y-89002380D02*
X147376190Y-88526190D01*
X147138095Y-89002380D02*
X147138095Y-88002380D01*
X147519047Y-88002380D01*
X147614285Y-88050000D01*
X147661904Y-88097619D01*
X147709523Y-88192857D01*
X147709523Y-88335714D01*
X147661904Y-88430952D01*
X147614285Y-88478571D01*
X147519047Y-88526190D01*
X147138095Y-88526190D01*
X161338095Y-62752380D02*
X161909523Y-62752380D01*
X161623809Y-63752380D02*
X161623809Y-62752380D01*
X162147619Y-62752380D02*
X162814285Y-63752380D01*
X162814285Y-62752380D02*
X162147619Y-63752380D01*
X159433333Y-63702380D02*
X159100000Y-63226190D01*
X158861904Y-63702380D02*
X158861904Y-62702380D01*
X159242857Y-62702380D01*
X159338095Y-62750000D01*
X159385714Y-62797619D01*
X159433333Y-62892857D01*
X159433333Y-63035714D01*
X159385714Y-63130952D01*
X159338095Y-63178571D01*
X159242857Y-63226190D01*
X158861904Y-63226190D01*
X159766666Y-62702380D02*
X160433333Y-63702380D01*
X160433333Y-62702380D02*
X159766666Y-63702380D01*
X155838095Y-62750000D02*
X155742857Y-62702380D01*
X155600000Y-62702380D01*
X155457142Y-62750000D01*
X155361904Y-62845238D01*
X155314285Y-62940476D01*
X155266666Y-63130952D01*
X155266666Y-63273809D01*
X155314285Y-63464285D01*
X155361904Y-63559523D01*
X155457142Y-63654761D01*
X155600000Y-63702380D01*
X155695238Y-63702380D01*
X155838095Y-63654761D01*
X155885714Y-63607142D01*
X155885714Y-63273809D01*
X155695238Y-63273809D01*
X156314285Y-63702380D02*
X156314285Y-62702380D01*
X156885714Y-63702380D01*
X156885714Y-62702380D01*
X157361904Y-63702380D02*
X157361904Y-62702380D01*
X157600000Y-62702380D01*
X157742857Y-62750000D01*
X157838095Y-62845238D01*
X157885714Y-62940476D01*
X157933333Y-63130952D01*
X157933333Y-63273809D01*
X157885714Y-63464285D01*
X157838095Y-63559523D01*
X157742857Y-63654761D01*
X157600000Y-63702380D01*
X157361904Y-63702380D01*
X151388095Y-62600000D02*
X151292857Y-62552380D01*
X151150000Y-62552380D01*
X151007142Y-62600000D01*
X150911904Y-62695238D01*
X150864285Y-62790476D01*
X150816666Y-62980952D01*
X150816666Y-63123809D01*
X150864285Y-63314285D01*
X150911904Y-63409523D01*
X151007142Y-63504761D01*
X151150000Y-63552380D01*
X151245238Y-63552380D01*
X151388095Y-63504761D01*
X151435714Y-63457142D01*
X151435714Y-63123809D01*
X151245238Y-63123809D01*
X151864285Y-63552380D02*
X151864285Y-62552380D01*
X152435714Y-63552380D01*
X152435714Y-62552380D01*
X152911904Y-63552380D02*
X152911904Y-62552380D01*
X153150000Y-62552380D01*
X153292857Y-62600000D01*
X153388095Y-62695238D01*
X153435714Y-62790476D01*
X153483333Y-62980952D01*
X153483333Y-63123809D01*
X153435714Y-63314285D01*
X153388095Y-63409523D01*
X153292857Y-63504761D01*
X153150000Y-63552380D01*
X152911904Y-63552380D01*
X148076190Y-63552380D02*
X148076190Y-62552380D01*
X148314285Y-62552380D01*
X148457142Y-62600000D01*
X148552380Y-62695238D01*
X148600000Y-62790476D01*
X148647619Y-62980952D01*
X148647619Y-63123809D01*
X148600000Y-63314285D01*
X148552380Y-63409523D01*
X148457142Y-63504761D01*
X148314285Y-63552380D01*
X148076190Y-63552380D01*
X149076190Y-63552380D02*
X149076190Y-62552380D01*
X149742857Y-62552380D02*
X149933333Y-62552380D01*
X150028571Y-62600000D01*
X150123809Y-62695238D01*
X150171428Y-62885714D01*
X150171428Y-63219047D01*
X150123809Y-63409523D01*
X150028571Y-63504761D01*
X149933333Y-63552380D01*
X149742857Y-63552380D01*
X149647619Y-63504761D01*
X149552380Y-63409523D01*
X149504761Y-63219047D01*
X149504761Y-62885714D01*
X149552380Y-62695238D01*
X149647619Y-62600000D01*
X149742857Y-62552380D01*
X145379761Y-63457142D02*
X145332142Y-63504761D01*
X145189285Y-63552380D01*
X145094047Y-63552380D01*
X144951190Y-63504761D01*
X144855952Y-63409523D01*
X144808333Y-63314285D01*
X144760714Y-63123809D01*
X144760714Y-62980952D01*
X144808333Y-62790476D01*
X144855952Y-62695238D01*
X144951190Y-62600000D01*
X145094047Y-62552380D01*
X145189285Y-62552380D01*
X145332142Y-62600000D01*
X145379761Y-62647619D01*
X146284523Y-63552380D02*
X145808333Y-63552380D01*
X145808333Y-62552380D01*
X146617857Y-63552380D02*
X146617857Y-62552380D01*
X147189285Y-63552380D02*
X146760714Y-62980952D01*
X147189285Y-62552380D02*
X146617857Y-63123809D01*
X141200000Y-58925000D02*
X141175000Y-89050000D01*
X126175000Y-88950000D02*
X126350000Y-59000000D01*
D11*
%TO.C,J1*%
X147830000Y-62330000D02*
X147830000Y-59670000D01*
X147830000Y-62330000D02*
X152970000Y-62330000D01*
X152970000Y-62330000D02*
X152970000Y-59670000D01*
X147830000Y-59670000D02*
X152970000Y-59670000D01*
X145230000Y-59670000D02*
X146560000Y-59670000D01*
X145230000Y-61000000D02*
X145230000Y-59670000D01*
%TO.C,RST*%
X123450000Y-85550000D02*
X124850000Y-85550000D01*
X124850000Y-85550000D02*
X124850000Y-86950000D01*
X124850000Y-86950000D02*
X123450000Y-86950000D01*
X123450000Y-86950000D02*
X123450000Y-85550000D01*
%TO.C,BT0*%
X123650000Y-62100000D02*
X125050000Y-62100000D01*
X125050000Y-62100000D02*
X125050000Y-63500000D01*
X125050000Y-63500000D02*
X123650000Y-63500000D01*
X123650000Y-63500000D02*
X123650000Y-62100000D01*
%TO.C,L1*%
X162100000Y-76440000D02*
X165300000Y-76440000D01*
X165300000Y-79160000D02*
X162100000Y-79160000D01*
D12*
%TO.C,C8*%
X165298221Y-87423500D02*
X166074900Y-87423500D01*
X162101779Y-79676500D02*
X161325100Y-79676500D01*
X166074900Y-79676500D02*
X165298221Y-79676500D01*
X166074900Y-87423500D02*
X166074900Y-79676500D01*
X161325100Y-87423500D02*
X162101779Y-87423500D01*
X161325100Y-79676500D02*
X161325100Y-87423500D01*
D11*
X161414000Y-82254600D02*
X165960600Y-82280000D01*
D13*
%TO.C,USB1*%
X123904200Y-74640000D02*
G75*
G03*
X123904200Y-74640000I-100000J0D01*
G01*
D14*
X119932000Y-78440000D02*
X118932000Y-78440000D01*
X119932000Y-68360000D02*
X118932000Y-68360000D01*
X123496000Y-77554000D02*
X122682000Y-77554000D01*
X123496000Y-76650000D02*
X123496000Y-77554000D01*
X123496000Y-69246000D02*
X123496000Y-70150000D01*
X122682000Y-69246000D02*
X123496000Y-69246000D01*
D13*
%TO.C,SW3*%
X142200000Y-82700000D02*
G75*
G03*
X142200000Y-82700000I-100000J0D01*
G01*
D14*
X149200000Y-81880000D02*
X144300000Y-81880000D01*
X149200000Y-87320000D02*
X144300000Y-87320000D01*
D11*
%TO.C,U5*%
X147000000Y-76280000D02*
X145050000Y-76280000D01*
X147000000Y-76280000D02*
X148950000Y-76280000D01*
X147000000Y-81400000D02*
X145050000Y-81400000D01*
X147000000Y-81400000D02*
X150450000Y-81400000D01*
D12*
%TO.C,U4*%
X165959501Y-73355899D02*
X166340501Y-73355899D01*
X165959501Y-73609899D02*
X165959501Y-73355899D01*
X166340501Y-73609899D02*
X165959501Y-73609899D01*
X166340501Y-73355899D02*
X166340501Y-73609899D01*
X162344101Y-70240501D02*
X162090101Y-70240501D01*
X162344101Y-69859500D02*
X162344101Y-70240501D01*
X162090101Y-69859500D02*
X162344101Y-69859500D01*
X162090101Y-70240501D02*
X162090101Y-69859500D01*
X166459500Y-67244101D02*
X166840500Y-67244101D01*
X166459500Y-66990101D02*
X166459500Y-67244101D01*
X166840500Y-66990101D02*
X166459500Y-66990101D01*
X166840500Y-67244101D02*
X166840500Y-66990101D01*
X167610139Y-72928900D02*
X168028900Y-72928900D01*
X162771100Y-72510139D02*
X162771100Y-72928900D01*
X163189861Y-67671100D02*
X162771100Y-67671100D01*
X168028900Y-68089861D02*
X168028900Y-67671100D01*
X168028900Y-72928900D02*
X168028900Y-72510139D01*
X162771100Y-72928900D02*
X163189861Y-72928900D01*
X162771100Y-67671100D02*
X162771100Y-68089861D01*
X168028900Y-67671100D02*
X167610139Y-67671100D01*
D11*
%TO.C,U3*%
X154415000Y-80440000D02*
X154415000Y-81700000D01*
X154415000Y-87260000D02*
X154415000Y-86000000D01*
X158175000Y-80440000D02*
X154415000Y-80440000D01*
X160425000Y-87260000D02*
X154415000Y-87260000D01*
%TO.C,U1*%
X149229000Y-65770000D02*
X149704000Y-65770000D01*
X149704000Y-65770000D02*
X149704000Y-66245000D01*
X142959000Y-72990000D02*
X142484000Y-72990000D01*
X142484000Y-72990000D02*
X142484000Y-72515000D01*
X149229000Y-72990000D02*
X149704000Y-72990000D01*
X149704000Y-72990000D02*
X149704000Y-72515000D01*
X142959000Y-65770000D02*
X142484000Y-65770000D01*
D13*
%TO.C,RV1*%
X151486000Y-76300000D02*
G75*
G03*
X151486000Y-76300000I-100000J0D01*
G01*
D14*
X158750000Y-79830000D02*
X152150000Y-79830000D01*
X158750000Y-77535000D02*
X158750000Y-79820000D01*
X158750000Y-72830000D02*
X158750000Y-74995000D01*
X152150000Y-72830000D02*
X158750000Y-72830000D01*
X152150000Y-74995000D02*
X152150000Y-72830000D01*
X152150000Y-79820000D02*
X152150000Y-77535000D01*
D11*
%TO.C,R12*%
X161622500Y-69862742D02*
X161622500Y-70337258D01*
X160577500Y-69862742D02*
X160577500Y-70337258D01*
%TO.C,R9*%
X165412258Y-64122500D02*
X164937742Y-64122500D01*
X165412258Y-63077500D02*
X164937742Y-63077500D01*
%TO.C,R8*%
X167962742Y-63077500D02*
X168437258Y-63077500D01*
X167962742Y-64122500D02*
X168437258Y-64122500D01*
%TO.C,R5*%
X122662742Y-79627500D02*
X123137258Y-79627500D01*
X122662742Y-80672500D02*
X123137258Y-80672500D01*
%TO.C,R1*%
X125622500Y-65537742D02*
X125622500Y-66012258D01*
X124577500Y-65537742D02*
X124577500Y-66012258D01*
D14*
%TO.C,MK1*%
X186550000Y-78975000D02*
G75*
G03*
X186550000Y-78975000I-3000000J0D01*
G01*
%TO.C,J6*%
X186025000Y-66500000D02*
X186025000Y-66700000D01*
X175075000Y-66500000D02*
X186025000Y-66500000D01*
X172225000Y-66500000D02*
X172275000Y-66500000D01*
X172225000Y-72500000D02*
X172225000Y-66500000D01*
X173925000Y-72500000D02*
X172225000Y-72500000D01*
X177825000Y-72500000D02*
X176625000Y-72500000D01*
X180825000Y-72500000D02*
X180575000Y-72500000D01*
X186025000Y-72500000D02*
X183575000Y-72500000D01*
X186025000Y-66700000D02*
X186025000Y-72500000D01*
X187225000Y-66700000D02*
X186025000Y-66700000D01*
X187225000Y-72300000D02*
X187225000Y-66700000D01*
X186025000Y-72300000D02*
X187225000Y-72300000D01*
D15*
X171525000Y-65950000D02*
G75*
G03*
X171525000Y-65950000I-200000J0D01*
G01*
D11*
%TO.C,J3*%
X155748000Y-59730000D02*
X155748000Y-62390000D01*
X160888000Y-59730000D02*
X155748000Y-59730000D01*
X160888000Y-62390000D02*
X155748000Y-62390000D01*
X160888000Y-59730000D02*
X160888000Y-62390000D01*
X162158000Y-59730000D02*
X163488000Y-59730000D01*
X163488000Y-59730000D02*
X163488000Y-61060000D01*
%TO.C,D1*%
X122112500Y-82960000D02*
X124797500Y-82960000D01*
X124797500Y-82960000D02*
X124797500Y-81040000D01*
X124797500Y-81040000D02*
X122112500Y-81040000D01*
%TO.C,C31*%
X176060000Y-86360000D02*
X176060000Y-84660000D01*
X176060000Y-80840000D02*
X176060000Y-82540000D01*
X171604437Y-80840000D02*
X176060000Y-80840000D01*
X171604437Y-86360000D02*
X176060000Y-86360000D01*
X170540000Y-85295563D02*
X170540000Y-84660000D01*
X170540000Y-81904437D02*
X170540000Y-82540000D01*
X170540000Y-81904437D02*
X171604437Y-80840000D01*
X170540000Y-85295563D02*
X171604437Y-86360000D01*
%TO.C,C29*%
X176010000Y-80335000D02*
X176010000Y-78635000D01*
X176010000Y-74815000D02*
X176010000Y-76515000D01*
X171554437Y-74815000D02*
X176010000Y-74815000D01*
X171554437Y-80335000D02*
X176010000Y-80335000D01*
X170490000Y-79270563D02*
X170490000Y-78635000D01*
X170490000Y-75879437D02*
X170490000Y-76515000D01*
X170490000Y-75879437D02*
X171554437Y-74815000D01*
X170490000Y-79270563D02*
X171554437Y-80335000D01*
%TO.C,C27*%
X163936252Y-75985000D02*
X163413748Y-75985000D01*
X163936252Y-74515000D02*
X163413748Y-74515000D01*
%TO.C,C26*%
X178138748Y-60665000D02*
X178661252Y-60665000D01*
X178138748Y-62135000D02*
X178661252Y-62135000D01*
%TO.C,C25*%
X178138748Y-62665000D02*
X178661252Y-62665000D01*
X178138748Y-64135000D02*
X178661252Y-64135000D01*
%TO.C,C24*%
X174438748Y-60665000D02*
X174961252Y-60665000D01*
X174438748Y-62135000D02*
X174961252Y-62135000D01*
%TO.C,C23*%
X174438748Y-62665000D02*
X174961252Y-62665000D01*
X174438748Y-64135000D02*
X174961252Y-64135000D01*
%TO.C,C18*%
X163088748Y-65215000D02*
X163611252Y-65215000D01*
X163088748Y-66685000D02*
X163611252Y-66685000D01*
%TO.C,C14*%
X147438748Y-74415000D02*
X147961252Y-74415000D01*
X147438748Y-75885000D02*
X147961252Y-75885000D01*
%TO.C,C6*%
X152035000Y-65038748D02*
X152035000Y-65561252D01*
X150565000Y-65038748D02*
X150565000Y-65561252D01*
%TO.C,C3*%
X122565000Y-66261252D02*
X122565000Y-65738748D01*
X124035000Y-66261252D02*
X124035000Y-65738748D01*
%TO.C,J1*%
D10*
X143242380Y-61333333D02*
X143956666Y-61333333D01*
X144099523Y-61380952D01*
X144194761Y-61476190D01*
X144242380Y-61619047D01*
X144242380Y-61714285D01*
X144242380Y-60333333D02*
X144242380Y-60904761D01*
X144242380Y-60619047D02*
X143242380Y-60619047D01*
X143385238Y-60714285D01*
X143480476Y-60809523D01*
X143528095Y-60904761D01*
%TO.C,RST*%
X123802380Y-88652380D02*
X123469047Y-88176190D01*
X123230952Y-88652380D02*
X123230952Y-87652380D01*
X123611904Y-87652380D01*
X123707142Y-87700000D01*
X123754761Y-87747619D01*
X123802380Y-87842857D01*
X123802380Y-87985714D01*
X123754761Y-88080952D01*
X123707142Y-88128571D01*
X123611904Y-88176190D01*
X123230952Y-88176190D01*
X124183333Y-88604761D02*
X124326190Y-88652380D01*
X124564285Y-88652380D01*
X124659523Y-88604761D01*
X124707142Y-88557142D01*
X124754761Y-88461904D01*
X124754761Y-88366666D01*
X124707142Y-88271428D01*
X124659523Y-88223809D01*
X124564285Y-88176190D01*
X124373809Y-88128571D01*
X124278571Y-88080952D01*
X124230952Y-88033333D01*
X124183333Y-87938095D01*
X124183333Y-87842857D01*
X124230952Y-87747619D01*
X124278571Y-87700000D01*
X124373809Y-87652380D01*
X124611904Y-87652380D01*
X124754761Y-87700000D01*
X125040476Y-87652380D02*
X125611904Y-87652380D01*
X125326190Y-88652380D02*
X125326190Y-87652380D01*
%TO.C,BT0*%
X123714285Y-61178571D02*
X123857142Y-61226190D01*
X123904761Y-61273809D01*
X123952380Y-61369047D01*
X123952380Y-61511904D01*
X123904761Y-61607142D01*
X123857142Y-61654761D01*
X123761904Y-61702380D01*
X123380952Y-61702380D01*
X123380952Y-60702380D01*
X123714285Y-60702380D01*
X123809523Y-60750000D01*
X123857142Y-60797619D01*
X123904761Y-60892857D01*
X123904761Y-60988095D01*
X123857142Y-61083333D01*
X123809523Y-61130952D01*
X123714285Y-61178571D01*
X123380952Y-61178571D01*
X124238095Y-60702380D02*
X124809523Y-60702380D01*
X124523809Y-61702380D02*
X124523809Y-60702380D01*
X125333333Y-60702380D02*
X125428571Y-60702380D01*
X125523809Y-60750000D01*
X125571428Y-60797619D01*
X125619047Y-60892857D01*
X125666666Y-61083333D01*
X125666666Y-61321428D01*
X125619047Y-61511904D01*
X125571428Y-61607142D01*
X125523809Y-61654761D01*
X125428571Y-61702380D01*
X125333333Y-61702380D01*
X125238095Y-61654761D01*
X125190476Y-61607142D01*
X125142857Y-61511904D01*
X125095238Y-61321428D01*
X125095238Y-61083333D01*
X125142857Y-60892857D01*
X125190476Y-60797619D01*
X125238095Y-60750000D01*
X125333333Y-60702380D01*
%TO.C,L1*%
X160233333Y-78352380D02*
X159757142Y-78352380D01*
X159757142Y-77352380D01*
X161090476Y-78352380D02*
X160519047Y-78352380D01*
X160804761Y-78352380D02*
X160804761Y-77352380D01*
X160709523Y-77495238D01*
X160614285Y-77590476D01*
X160519047Y-77638095D01*
%TO.C,C8*%
X167257142Y-84416666D02*
X167304761Y-84464285D01*
X167352380Y-84607142D01*
X167352380Y-84702380D01*
X167304761Y-84845238D01*
X167209523Y-84940476D01*
X167114285Y-84988095D01*
X166923809Y-85035714D01*
X166780952Y-85035714D01*
X166590476Y-84988095D01*
X166495238Y-84940476D01*
X166400000Y-84845238D01*
X166352380Y-84702380D01*
X166352380Y-84607142D01*
X166400000Y-84464285D01*
X166447619Y-84416666D01*
X166780952Y-83845238D02*
X166733333Y-83940476D01*
X166685714Y-83988095D01*
X166590476Y-84035714D01*
X166542857Y-84035714D01*
X166447619Y-83988095D01*
X166400000Y-83940476D01*
X166352380Y-83845238D01*
X166352380Y-83654761D01*
X166400000Y-83559523D01*
X166447619Y-83511904D01*
X166542857Y-83464285D01*
X166590476Y-83464285D01*
X166685714Y-83511904D01*
X166733333Y-83559523D01*
X166780952Y-83654761D01*
X166780952Y-83845238D01*
X166828571Y-83940476D01*
X166876190Y-83988095D01*
X166971428Y-84035714D01*
X167161904Y-84035714D01*
X167257142Y-83988095D01*
X167304761Y-83940476D01*
X167352380Y-83845238D01*
X167352380Y-83654761D01*
X167304761Y-83559523D01*
X167257142Y-83511904D01*
X167161904Y-83464285D01*
X166971428Y-83464285D01*
X166876190Y-83511904D01*
X166828571Y-83559523D01*
X166780952Y-83654761D01*
%TO.C,USB1*%
X124452380Y-75238095D02*
X125261904Y-75238095D01*
X125357142Y-75190476D01*
X125404761Y-75142857D01*
X125452380Y-75047619D01*
X125452380Y-74857142D01*
X125404761Y-74761904D01*
X125357142Y-74714285D01*
X125261904Y-74666666D01*
X124452380Y-74666666D01*
X125404761Y-74238095D02*
X125452380Y-74095238D01*
X125452380Y-73857142D01*
X125404761Y-73761904D01*
X125357142Y-73714285D01*
X125261904Y-73666666D01*
X125166666Y-73666666D01*
X125071428Y-73714285D01*
X125023809Y-73761904D01*
X124976190Y-73857142D01*
X124928571Y-74047619D01*
X124880952Y-74142857D01*
X124833333Y-74190476D01*
X124738095Y-74238095D01*
X124642857Y-74238095D01*
X124547619Y-74190476D01*
X124500000Y-74142857D01*
X124452380Y-74047619D01*
X124452380Y-73809523D01*
X124500000Y-73666666D01*
X124928571Y-72904761D02*
X124976190Y-72761904D01*
X125023809Y-72714285D01*
X125119047Y-72666666D01*
X125261904Y-72666666D01*
X125357142Y-72714285D01*
X125404761Y-72761904D01*
X125452380Y-72857142D01*
X125452380Y-73238095D01*
X124452380Y-73238095D01*
X124452380Y-72904761D01*
X124500000Y-72809523D01*
X124547619Y-72761904D01*
X124642857Y-72714285D01*
X124738095Y-72714285D01*
X124833333Y-72761904D01*
X124880952Y-72809523D01*
X124928571Y-72904761D01*
X124928571Y-73238095D01*
X125452380Y-71714285D02*
X125452380Y-72285714D01*
X125452380Y-72000000D02*
X124452380Y-72000000D01*
X124595238Y-72095238D01*
X124690476Y-72190476D01*
X124738095Y-72285714D01*
%TO.C,SW3*%
D16*
X145528666Y-81452647D02*
X145620095Y-81483123D01*
X145772476Y-81483123D01*
X145833428Y-81452647D01*
X145863904Y-81422171D01*
X145894380Y-81361219D01*
X145894380Y-81300266D01*
X145863904Y-81239314D01*
X145833428Y-81208838D01*
X145772476Y-81178361D01*
X145650571Y-81147885D01*
X145589619Y-81117409D01*
X145559142Y-81086933D01*
X145528666Y-81025980D01*
X145528666Y-80965028D01*
X145559142Y-80904076D01*
X145589619Y-80873600D01*
X145650571Y-80843123D01*
X145802952Y-80843123D01*
X145894380Y-80873600D01*
X146107714Y-80843123D02*
X146260095Y-81483123D01*
X146382000Y-81025980D01*
X146503904Y-81483123D01*
X146656285Y-80843123D01*
X146839142Y-80843123D02*
X147235333Y-80843123D01*
X147022000Y-81086933D01*
X147113428Y-81086933D01*
X147174380Y-81117409D01*
X147204857Y-81147885D01*
X147235333Y-81208838D01*
X147235333Y-81361219D01*
X147204857Y-81422171D01*
X147174380Y-81452647D01*
X147113428Y-81483123D01*
X146930571Y-81483123D01*
X146869619Y-81452647D01*
X146839142Y-81422171D01*
%TO.C,U5*%
D10*
X151138095Y-80352380D02*
X151138095Y-81161904D01*
X151185714Y-81257142D01*
X151233333Y-81304761D01*
X151328571Y-81352380D01*
X151519047Y-81352380D01*
X151614285Y-81304761D01*
X151661904Y-81257142D01*
X151709523Y-81161904D01*
X151709523Y-80352380D01*
X152661904Y-80352380D02*
X152185714Y-80352380D01*
X152138095Y-80828571D01*
X152185714Y-80780952D01*
X152280952Y-80733333D01*
X152519047Y-80733333D01*
X152614285Y-80780952D01*
X152661904Y-80828571D01*
X152709523Y-80923809D01*
X152709523Y-81161904D01*
X152661904Y-81257142D01*
X152614285Y-81304761D01*
X152519047Y-81352380D01*
X152280952Y-81352380D01*
X152185714Y-81304761D01*
X152138095Y-81257142D01*
%TO.C,U4*%
X168838095Y-70552380D02*
X168838095Y-71361904D01*
X168885714Y-71457142D01*
X168933333Y-71504761D01*
X169028571Y-71552380D01*
X169219047Y-71552380D01*
X169314285Y-71504761D01*
X169361904Y-71457142D01*
X169409523Y-71361904D01*
X169409523Y-70552380D01*
X170314285Y-70885714D02*
X170314285Y-71552380D01*
X170076190Y-70504761D02*
X169838095Y-71219047D01*
X170457142Y-71219047D01*
X168071428Y-74402380D02*
X168071428Y-73735714D01*
X168071428Y-73830952D02*
X168119047Y-73783333D01*
X168214285Y-73735714D01*
X168357142Y-73735714D01*
X168452380Y-73783333D01*
X168500000Y-73878571D01*
X168500000Y-74402380D01*
X168500000Y-73878571D02*
X168547619Y-73783333D01*
X168642857Y-73735714D01*
X168785714Y-73735714D01*
X168880952Y-73783333D01*
X168928571Y-73878571D01*
X168928571Y-74402380D01*
X168836900Y-71752380D02*
X168836900Y-71990476D01*
X168598804Y-71895238D02*
X168836900Y-71990476D01*
X169074995Y-71895238D01*
X168694042Y-72180952D02*
X168836900Y-71990476D01*
X168979757Y-72180952D01*
X168836900Y-71752380D02*
X168836900Y-71990476D01*
X168598804Y-71895238D02*
X168836900Y-71990476D01*
X169074995Y-71895238D01*
X168694042Y-72180952D02*
X168836900Y-71990476D01*
X168979757Y-72180952D01*
%TO.C,U3*%
X155563095Y-87802380D02*
X155563095Y-88611904D01*
X155610714Y-88707142D01*
X155658333Y-88754761D01*
X155753571Y-88802380D01*
X155944047Y-88802380D01*
X156039285Y-88754761D01*
X156086904Y-88707142D01*
X156134523Y-88611904D01*
X156134523Y-87802380D01*
X156515476Y-87802380D02*
X157134523Y-87802380D01*
X156801190Y-88183333D01*
X156944047Y-88183333D01*
X157039285Y-88230952D01*
X157086904Y-88278571D01*
X157134523Y-88373809D01*
X157134523Y-88611904D01*
X157086904Y-88707142D01*
X157039285Y-88754761D01*
X156944047Y-88802380D01*
X156658333Y-88802380D01*
X156563095Y-88754761D01*
X156515476Y-88707142D01*
%TO.C,U1*%
X145332095Y-64012380D02*
X145332095Y-64821904D01*
X145379714Y-64917142D01*
X145427333Y-64964761D01*
X145522571Y-65012380D01*
X145713047Y-65012380D01*
X145808285Y-64964761D01*
X145855904Y-64917142D01*
X145903523Y-64821904D01*
X145903523Y-64012380D01*
X146903523Y-65012380D02*
X146332095Y-65012380D01*
X146617809Y-65012380D02*
X146617809Y-64012380D01*
X146522571Y-64155238D01*
X146427333Y-64250476D01*
X146332095Y-64298095D01*
%TO.C,RV1*%
D16*
X154853121Y-77103627D02*
X154518869Y-76626124D01*
X154280118Y-77103627D02*
X154280118Y-76100871D01*
X154662120Y-76100871D01*
X154757620Y-76148622D01*
X154805371Y-76196372D01*
X154853121Y-76291872D01*
X154853121Y-76435123D01*
X154805371Y-76530624D01*
X154757620Y-76578374D01*
X154662120Y-76626124D01*
X154280118Y-76626124D01*
X155139623Y-76100871D02*
X155473875Y-77103627D01*
X155808127Y-76100871D01*
X156667632Y-77103627D02*
X156094628Y-77103627D01*
X156381130Y-77103627D02*
X156381130Y-76100871D01*
X156285630Y-76244122D01*
X156190129Y-76339623D01*
X156094628Y-76387373D01*
%TO.C,R12*%
D10*
X161552380Y-73542857D02*
X161076190Y-73876190D01*
X161552380Y-74114285D02*
X160552380Y-74114285D01*
X160552380Y-73733333D01*
X160600000Y-73638095D01*
X160647619Y-73590476D01*
X160742857Y-73542857D01*
X160885714Y-73542857D01*
X160980952Y-73590476D01*
X161028571Y-73638095D01*
X161076190Y-73733333D01*
X161076190Y-74114285D01*
X161552380Y-72590476D02*
X161552380Y-73161904D01*
X161552380Y-72876190D02*
X160552380Y-72876190D01*
X160695238Y-72971428D01*
X160790476Y-73066666D01*
X160838095Y-73161904D01*
X160647619Y-72209523D02*
X160600000Y-72161904D01*
X160552380Y-72066666D01*
X160552380Y-71828571D01*
X160600000Y-71733333D01*
X160647619Y-71685714D01*
X160742857Y-71638095D01*
X160838095Y-71638095D01*
X160980952Y-71685714D01*
X161552380Y-72257142D01*
X161552380Y-71638095D01*
%TO.C,R9*%
X164933333Y-62552380D02*
X164600000Y-62076190D01*
X164361904Y-62552380D02*
X164361904Y-61552380D01*
X164742857Y-61552380D01*
X164838095Y-61600000D01*
X164885714Y-61647619D01*
X164933333Y-61742857D01*
X164933333Y-61885714D01*
X164885714Y-61980952D01*
X164838095Y-62028571D01*
X164742857Y-62076190D01*
X164361904Y-62076190D01*
X165409523Y-62552380D02*
X165600000Y-62552380D01*
X165695238Y-62504761D01*
X165742857Y-62457142D01*
X165838095Y-62314285D01*
X165885714Y-62123809D01*
X165885714Y-61742857D01*
X165838095Y-61647619D01*
X165790476Y-61600000D01*
X165695238Y-61552380D01*
X165504761Y-61552380D01*
X165409523Y-61600000D01*
X165361904Y-61647619D01*
X165314285Y-61742857D01*
X165314285Y-61980952D01*
X165361904Y-62076190D01*
X165409523Y-62123809D01*
X165504761Y-62171428D01*
X165695238Y-62171428D01*
X165790476Y-62123809D01*
X165838095Y-62076190D01*
X165885714Y-61980952D01*
%TO.C,R8*%
X167933333Y-62502380D02*
X167600000Y-62026190D01*
X167361904Y-62502380D02*
X167361904Y-61502380D01*
X167742857Y-61502380D01*
X167838095Y-61550000D01*
X167885714Y-61597619D01*
X167933333Y-61692857D01*
X167933333Y-61835714D01*
X167885714Y-61930952D01*
X167838095Y-61978571D01*
X167742857Y-62026190D01*
X167361904Y-62026190D01*
X168504761Y-61930952D02*
X168409523Y-61883333D01*
X168361904Y-61835714D01*
X168314285Y-61740476D01*
X168314285Y-61692857D01*
X168361904Y-61597619D01*
X168409523Y-61550000D01*
X168504761Y-61502380D01*
X168695238Y-61502380D01*
X168790476Y-61550000D01*
X168838095Y-61597619D01*
X168885714Y-61692857D01*
X168885714Y-61740476D01*
X168838095Y-61835714D01*
X168790476Y-61883333D01*
X168695238Y-61930952D01*
X168504761Y-61930952D01*
X168409523Y-61978571D01*
X168361904Y-62026190D01*
X168314285Y-62121428D01*
X168314285Y-62311904D01*
X168361904Y-62407142D01*
X168409523Y-62454761D01*
X168504761Y-62502380D01*
X168695238Y-62502380D01*
X168790476Y-62454761D01*
X168838095Y-62407142D01*
X168885714Y-62311904D01*
X168885714Y-62121428D01*
X168838095Y-62026190D01*
X168790476Y-61978571D01*
X168695238Y-61930952D01*
%TO.C,R5*%
X122733333Y-79172380D02*
X122400000Y-78696190D01*
X122161904Y-79172380D02*
X122161904Y-78172380D01*
X122542857Y-78172380D01*
X122638095Y-78220000D01*
X122685714Y-78267619D01*
X122733333Y-78362857D01*
X122733333Y-78505714D01*
X122685714Y-78600952D01*
X122638095Y-78648571D01*
X122542857Y-78696190D01*
X122161904Y-78696190D01*
X123638095Y-78172380D02*
X123161904Y-78172380D01*
X123114285Y-78648571D01*
X123161904Y-78600952D01*
X123257142Y-78553333D01*
X123495238Y-78553333D01*
X123590476Y-78600952D01*
X123638095Y-78648571D01*
X123685714Y-78743809D01*
X123685714Y-78981904D01*
X123638095Y-79077142D01*
X123590476Y-79124761D01*
X123495238Y-79172380D01*
X123257142Y-79172380D01*
X123161904Y-79124761D01*
X123114285Y-79077142D01*
%TO.C,R1*%
X125552380Y-68266666D02*
X125076190Y-68600000D01*
X125552380Y-68838095D02*
X124552380Y-68838095D01*
X124552380Y-68457142D01*
X124600000Y-68361904D01*
X124647619Y-68314285D01*
X124742857Y-68266666D01*
X124885714Y-68266666D01*
X124980952Y-68314285D01*
X125028571Y-68361904D01*
X125076190Y-68457142D01*
X125076190Y-68838095D01*
X125552380Y-67314285D02*
X125552380Y-67885714D01*
X125552380Y-67600000D02*
X124552380Y-67600000D01*
X124695238Y-67695238D01*
X124790476Y-67790476D01*
X124838095Y-67885714D01*
%TO.C,MK1*%
X179790476Y-83502380D02*
X179790476Y-82502380D01*
X180123809Y-83216666D01*
X180457142Y-82502380D01*
X180457142Y-83502380D01*
X180933333Y-83502380D02*
X180933333Y-82502380D01*
X181504761Y-83502380D02*
X181076190Y-82930952D01*
X181504761Y-82502380D02*
X180933333Y-83073809D01*
X182457142Y-83502380D02*
X181885714Y-83502380D01*
X182171428Y-83502380D02*
X182171428Y-82502380D01*
X182076190Y-82645238D01*
X181980952Y-82740476D01*
X181885714Y-82788095D01*
%TO.C,J6*%
X178616666Y-68652380D02*
X178616666Y-69366666D01*
X178569047Y-69509523D01*
X178473809Y-69604761D01*
X178330952Y-69652380D01*
X178235714Y-69652380D01*
X179521428Y-68652380D02*
X179330952Y-68652380D01*
X179235714Y-68700000D01*
X179188095Y-68747619D01*
X179092857Y-68890476D01*
X179045238Y-69080952D01*
X179045238Y-69461904D01*
X179092857Y-69557142D01*
X179140476Y-69604761D01*
X179235714Y-69652380D01*
X179426190Y-69652380D01*
X179521428Y-69604761D01*
X179569047Y-69557142D01*
X179616666Y-69461904D01*
X179616666Y-69223809D01*
X179569047Y-69128571D01*
X179521428Y-69080952D01*
X179426190Y-69033333D01*
X179235714Y-69033333D01*
X179140476Y-69080952D01*
X179092857Y-69128571D01*
X179045238Y-69223809D01*
%TO.C,J3*%
X164252380Y-60633333D02*
X164966666Y-60633333D01*
X165109523Y-60680952D01*
X165204761Y-60776190D01*
X165252380Y-60919047D01*
X165252380Y-61014285D01*
X164252380Y-60252380D02*
X164252380Y-59633333D01*
X164633333Y-59966666D01*
X164633333Y-59823809D01*
X164680952Y-59728571D01*
X164728571Y-59680952D01*
X164823809Y-59633333D01*
X165061904Y-59633333D01*
X165157142Y-59680952D01*
X165204761Y-59728571D01*
X165252380Y-59823809D01*
X165252380Y-60109523D01*
X165204761Y-60204761D01*
X165157142Y-60252380D01*
%TO.C,D1*%
X126177380Y-82463095D02*
X125177380Y-82463095D01*
X125177380Y-82225000D01*
X125225000Y-82082142D01*
X125320238Y-81986904D01*
X125415476Y-81939285D01*
X125605952Y-81891666D01*
X125748809Y-81891666D01*
X125939285Y-81939285D01*
X126034523Y-81986904D01*
X126129761Y-82082142D01*
X126177380Y-82225000D01*
X126177380Y-82463095D01*
X126177380Y-80939285D02*
X126177380Y-81510714D01*
X126177380Y-81225000D02*
X125177380Y-81225000D01*
X125320238Y-81320238D01*
X125415476Y-81415476D01*
X125463095Y-81510714D01*
%TO.C,C31*%
X172832142Y-87707142D02*
X172784523Y-87754761D01*
X172641666Y-87802380D01*
X172546428Y-87802380D01*
X172403571Y-87754761D01*
X172308333Y-87659523D01*
X172260714Y-87564285D01*
X172213095Y-87373809D01*
X172213095Y-87230952D01*
X172260714Y-87040476D01*
X172308333Y-86945238D01*
X172403571Y-86850000D01*
X172546428Y-86802380D01*
X172641666Y-86802380D01*
X172784523Y-86850000D01*
X172832142Y-86897619D01*
X173165476Y-86802380D02*
X173784523Y-86802380D01*
X173451190Y-87183333D01*
X173594047Y-87183333D01*
X173689285Y-87230952D01*
X173736904Y-87278571D01*
X173784523Y-87373809D01*
X173784523Y-87611904D01*
X173736904Y-87707142D01*
X173689285Y-87754761D01*
X173594047Y-87802380D01*
X173308333Y-87802380D01*
X173213095Y-87754761D01*
X173165476Y-87707142D01*
X174736904Y-87802380D02*
X174165476Y-87802380D01*
X174451190Y-87802380D02*
X174451190Y-86802380D01*
X174355952Y-86945238D01*
X174260714Y-87040476D01*
X174165476Y-87088095D01*
%TO.C,C29*%
X176882142Y-75857142D02*
X176834523Y-75904761D01*
X176691666Y-75952380D01*
X176596428Y-75952380D01*
X176453571Y-75904761D01*
X176358333Y-75809523D01*
X176310714Y-75714285D01*
X176263095Y-75523809D01*
X176263095Y-75380952D01*
X176310714Y-75190476D01*
X176358333Y-75095238D01*
X176453571Y-75000000D01*
X176596428Y-74952380D01*
X176691666Y-74952380D01*
X176834523Y-75000000D01*
X176882142Y-75047619D01*
X177263095Y-75047619D02*
X177310714Y-75000000D01*
X177405952Y-74952380D01*
X177644047Y-74952380D01*
X177739285Y-75000000D01*
X177786904Y-75047619D01*
X177834523Y-75142857D01*
X177834523Y-75238095D01*
X177786904Y-75380952D01*
X177215476Y-75952380D01*
X177834523Y-75952380D01*
X178310714Y-75952380D02*
X178501190Y-75952380D01*
X178596428Y-75904761D01*
X178644047Y-75857142D01*
X178739285Y-75714285D01*
X178786904Y-75523809D01*
X178786904Y-75142857D01*
X178739285Y-75047619D01*
X178691666Y-75000000D01*
X178596428Y-74952380D01*
X178405952Y-74952380D01*
X178310714Y-75000000D01*
X178263095Y-75047619D01*
X178215476Y-75142857D01*
X178215476Y-75380952D01*
X178263095Y-75476190D01*
X178310714Y-75523809D01*
X178405952Y-75571428D01*
X178596428Y-75571428D01*
X178691666Y-75523809D01*
X178739285Y-75476190D01*
X178786904Y-75380952D01*
%TO.C,C27*%
X159907142Y-75707142D02*
X159859523Y-75754761D01*
X159716666Y-75802380D01*
X159621428Y-75802380D01*
X159478571Y-75754761D01*
X159383333Y-75659523D01*
X159335714Y-75564285D01*
X159288095Y-75373809D01*
X159288095Y-75230952D01*
X159335714Y-75040476D01*
X159383333Y-74945238D01*
X159478571Y-74850000D01*
X159621428Y-74802380D01*
X159716666Y-74802380D01*
X159859523Y-74850000D01*
X159907142Y-74897619D01*
X160288095Y-74897619D02*
X160335714Y-74850000D01*
X160430952Y-74802380D01*
X160669047Y-74802380D01*
X160764285Y-74850000D01*
X160811904Y-74897619D01*
X160859523Y-74992857D01*
X160859523Y-75088095D01*
X160811904Y-75230952D01*
X160240476Y-75802380D01*
X160859523Y-75802380D01*
X161192857Y-74802380D02*
X161859523Y-74802380D01*
X161430952Y-75802380D01*
%TO.C,C26*%
X181257142Y-61542857D02*
X181304761Y-61590476D01*
X181352380Y-61733333D01*
X181352380Y-61828571D01*
X181304761Y-61971428D01*
X181209523Y-62066666D01*
X181114285Y-62114285D01*
X180923809Y-62161904D01*
X180780952Y-62161904D01*
X180590476Y-62114285D01*
X180495238Y-62066666D01*
X180400000Y-61971428D01*
X180352380Y-61828571D01*
X180352380Y-61733333D01*
X180400000Y-61590476D01*
X180447619Y-61542857D01*
X180447619Y-61161904D02*
X180400000Y-61114285D01*
X180352380Y-61019047D01*
X180352380Y-60780952D01*
X180400000Y-60685714D01*
X180447619Y-60638095D01*
X180542857Y-60590476D01*
X180638095Y-60590476D01*
X180780952Y-60638095D01*
X181352380Y-61209523D01*
X181352380Y-60590476D01*
X180352380Y-59733333D02*
X180352380Y-59923809D01*
X180400000Y-60019047D01*
X180447619Y-60066666D01*
X180590476Y-60161904D01*
X180780952Y-60209523D01*
X181161904Y-60209523D01*
X181257142Y-60161904D01*
X181304761Y-60114285D01*
X181352380Y-60019047D01*
X181352380Y-59828571D01*
X181304761Y-59733333D01*
X181257142Y-59685714D01*
X181161904Y-59638095D01*
X180923809Y-59638095D01*
X180828571Y-59685714D01*
X180780952Y-59733333D01*
X180733333Y-59828571D01*
X180733333Y-60019047D01*
X180780952Y-60114285D01*
X180828571Y-60161904D01*
X180923809Y-60209523D01*
%TO.C,C25*%
X181357142Y-64242857D02*
X181404761Y-64290476D01*
X181452380Y-64433333D01*
X181452380Y-64528571D01*
X181404761Y-64671428D01*
X181309523Y-64766666D01*
X181214285Y-64814285D01*
X181023809Y-64861904D01*
X180880952Y-64861904D01*
X180690476Y-64814285D01*
X180595238Y-64766666D01*
X180500000Y-64671428D01*
X180452380Y-64528571D01*
X180452380Y-64433333D01*
X180500000Y-64290476D01*
X180547619Y-64242857D01*
X180547619Y-63861904D02*
X180500000Y-63814285D01*
X180452380Y-63719047D01*
X180452380Y-63480952D01*
X180500000Y-63385714D01*
X180547619Y-63338095D01*
X180642857Y-63290476D01*
X180738095Y-63290476D01*
X180880952Y-63338095D01*
X181452380Y-63909523D01*
X181452380Y-63290476D01*
X180452380Y-62385714D02*
X180452380Y-62861904D01*
X180928571Y-62909523D01*
X180880952Y-62861904D01*
X180833333Y-62766666D01*
X180833333Y-62528571D01*
X180880952Y-62433333D01*
X180928571Y-62385714D01*
X181023809Y-62338095D01*
X181261904Y-62338095D01*
X181357142Y-62385714D01*
X181404761Y-62433333D01*
X181452380Y-62528571D01*
X181452380Y-62766666D01*
X181404761Y-62861904D01*
X181357142Y-62909523D01*
%TO.C,C24*%
X171057142Y-61757142D02*
X171009523Y-61804761D01*
X170866666Y-61852380D01*
X170771428Y-61852380D01*
X170628571Y-61804761D01*
X170533333Y-61709523D01*
X170485714Y-61614285D01*
X170438095Y-61423809D01*
X170438095Y-61280952D01*
X170485714Y-61090476D01*
X170533333Y-60995238D01*
X170628571Y-60900000D01*
X170771428Y-60852380D01*
X170866666Y-60852380D01*
X171009523Y-60900000D01*
X171057142Y-60947619D01*
X171438095Y-60947619D02*
X171485714Y-60900000D01*
X171580952Y-60852380D01*
X171819047Y-60852380D01*
X171914285Y-60900000D01*
X171961904Y-60947619D01*
X172009523Y-61042857D01*
X172009523Y-61138095D01*
X171961904Y-61280952D01*
X171390476Y-61852380D01*
X172009523Y-61852380D01*
X172866666Y-61185714D02*
X172866666Y-61852380D01*
X172628571Y-60804761D02*
X172390476Y-61519047D01*
X173009523Y-61519047D01*
%TO.C,C23*%
X170857142Y-63157142D02*
X170809523Y-63204761D01*
X170666666Y-63252380D01*
X170571428Y-63252380D01*
X170428571Y-63204761D01*
X170333333Y-63109523D01*
X170285714Y-63014285D01*
X170238095Y-62823809D01*
X170238095Y-62680952D01*
X170285714Y-62490476D01*
X170333333Y-62395238D01*
X170428571Y-62300000D01*
X170571428Y-62252380D01*
X170666666Y-62252380D01*
X170809523Y-62300000D01*
X170857142Y-62347619D01*
X171238095Y-62347619D02*
X171285714Y-62300000D01*
X171380952Y-62252380D01*
X171619047Y-62252380D01*
X171714285Y-62300000D01*
X171761904Y-62347619D01*
X171809523Y-62442857D01*
X171809523Y-62538095D01*
X171761904Y-62680952D01*
X171190476Y-63252380D01*
X171809523Y-63252380D01*
X172142857Y-62252380D02*
X172761904Y-62252380D01*
X172428571Y-62633333D01*
X172571428Y-62633333D01*
X172666666Y-62680952D01*
X172714285Y-62728571D01*
X172761904Y-62823809D01*
X172761904Y-63061904D01*
X172714285Y-63157142D01*
X172666666Y-63204761D01*
X172571428Y-63252380D01*
X172285714Y-63252380D01*
X172190476Y-63204761D01*
X172142857Y-63157142D01*
%TO.C,C18*%
X166007142Y-66407142D02*
X165959523Y-66454761D01*
X165816666Y-66502380D01*
X165721428Y-66502380D01*
X165578571Y-66454761D01*
X165483333Y-66359523D01*
X165435714Y-66264285D01*
X165388095Y-66073809D01*
X165388095Y-65930952D01*
X165435714Y-65740476D01*
X165483333Y-65645238D01*
X165578571Y-65550000D01*
X165721428Y-65502380D01*
X165816666Y-65502380D01*
X165959523Y-65550000D01*
X166007142Y-65597619D01*
X166959523Y-66502380D02*
X166388095Y-66502380D01*
X166673809Y-66502380D02*
X166673809Y-65502380D01*
X166578571Y-65645238D01*
X166483333Y-65740476D01*
X166388095Y-65788095D01*
X167530952Y-65930952D02*
X167435714Y-65883333D01*
X167388095Y-65835714D01*
X167340476Y-65740476D01*
X167340476Y-65692857D01*
X167388095Y-65597619D01*
X167435714Y-65550000D01*
X167530952Y-65502380D01*
X167721428Y-65502380D01*
X167816666Y-65550000D01*
X167864285Y-65597619D01*
X167911904Y-65692857D01*
X167911904Y-65740476D01*
X167864285Y-65835714D01*
X167816666Y-65883333D01*
X167721428Y-65930952D01*
X167530952Y-65930952D01*
X167435714Y-65978571D01*
X167388095Y-66026190D01*
X167340476Y-66121428D01*
X167340476Y-66311904D01*
X167388095Y-66407142D01*
X167435714Y-66454761D01*
X167530952Y-66502380D01*
X167721428Y-66502380D01*
X167816666Y-66454761D01*
X167864285Y-66407142D01*
X167911904Y-66311904D01*
X167911904Y-66121428D01*
X167864285Y-66026190D01*
X167816666Y-65978571D01*
X167721428Y-65930952D01*
%TO.C,C14*%
X143861142Y-74877142D02*
X143813523Y-74924761D01*
X143670666Y-74972380D01*
X143575428Y-74972380D01*
X143432571Y-74924761D01*
X143337333Y-74829523D01*
X143289714Y-74734285D01*
X143242095Y-74543809D01*
X143242095Y-74400952D01*
X143289714Y-74210476D01*
X143337333Y-74115238D01*
X143432571Y-74020000D01*
X143575428Y-73972380D01*
X143670666Y-73972380D01*
X143813523Y-74020000D01*
X143861142Y-74067619D01*
X144813523Y-74972380D02*
X144242095Y-74972380D01*
X144527809Y-74972380D02*
X144527809Y-73972380D01*
X144432571Y-74115238D01*
X144337333Y-74210476D01*
X144242095Y-74258095D01*
X145670666Y-74305714D02*
X145670666Y-74972380D01*
X145432571Y-73924761D02*
X145194476Y-74639047D01*
X145813523Y-74639047D01*
%TO.C,C6*%
X153337142Y-65466666D02*
X153384761Y-65514285D01*
X153432380Y-65657142D01*
X153432380Y-65752380D01*
X153384761Y-65895238D01*
X153289523Y-65990476D01*
X153194285Y-66038095D01*
X153003809Y-66085714D01*
X152860952Y-66085714D01*
X152670476Y-66038095D01*
X152575238Y-65990476D01*
X152480000Y-65895238D01*
X152432380Y-65752380D01*
X152432380Y-65657142D01*
X152480000Y-65514285D01*
X152527619Y-65466666D01*
X152432380Y-64609523D02*
X152432380Y-64800000D01*
X152480000Y-64895238D01*
X152527619Y-64942857D01*
X152670476Y-65038095D01*
X152860952Y-65085714D01*
X153241904Y-65085714D01*
X153337142Y-65038095D01*
X153384761Y-64990476D01*
X153432380Y-64895238D01*
X153432380Y-64704761D01*
X153384761Y-64609523D01*
X153337142Y-64561904D01*
X153241904Y-64514285D01*
X153003809Y-64514285D01*
X152908571Y-64561904D01*
X152860952Y-64609523D01*
X152813333Y-64704761D01*
X152813333Y-64895238D01*
X152860952Y-64990476D01*
X152908571Y-65038095D01*
X153003809Y-65085714D01*
%TO.C,C3*%
X121857142Y-66366666D02*
X121904761Y-66414285D01*
X121952380Y-66557142D01*
X121952380Y-66652380D01*
X121904761Y-66795238D01*
X121809523Y-66890476D01*
X121714285Y-66938095D01*
X121523809Y-66985714D01*
X121380952Y-66985714D01*
X121190476Y-66938095D01*
X121095238Y-66890476D01*
X121000000Y-66795238D01*
X120952380Y-66652380D01*
X120952380Y-66557142D01*
X121000000Y-66414285D01*
X121047619Y-66366666D01*
X120952380Y-66033333D02*
X120952380Y-65414285D01*
X121333333Y-65747619D01*
X121333333Y-65604761D01*
X121380952Y-65509523D01*
X121428571Y-65461904D01*
X121523809Y-65414285D01*
X121761904Y-65414285D01*
X121857142Y-65461904D01*
X121904761Y-65509523D01*
X121952380Y-65604761D01*
X121952380Y-65890476D01*
X121904761Y-65985714D01*
X121857142Y-66033333D01*
%TD*%
M02*
