%TF.GenerationSoftware,KiCad,Pcbnew,(5.1.9)-1*%
%TF.CreationDate,2021-04-11T16:36:30+08:00*%
%TF.ProjectId,st_usbAudioV1_demo,73745f75-7362-4417-9564-696f56315f64,rev?*%
%TF.SameCoordinates,Original*%
%TF.FileFunction,Legend,Bot*%
%TF.FilePolarity,Positive*%
%FSLAX46Y46*%
G04 Gerber Fmt 4.6, Leading zero omitted, Abs format (unit mm)*
G04 Created by KiCad (PCBNEW (5.1.9)-1) date 2021-04-11 16:36:30*
%MOMM*%
%LPD*%
G01*
G04 APERTURE LIST*
%ADD10C,0.120000*%
%ADD11C,0.200000*%
%ADD12C,0.127000*%
%ADD13C,0.150000*%
%ADD14C,0.015000*%
G04 APERTURE END LIST*
D10*
%TO.C,Y1*%
X141000000Y-72800000D02*
X141000000Y-78550000D01*
X137400000Y-72800000D02*
X141000000Y-72800000D01*
X137400000Y-78550000D02*
X137400000Y-72800000D01*
%TO.C,L2*%
X165460000Y-62662878D02*
X165460000Y-63462122D01*
X164340000Y-62662878D02*
X164340000Y-63462122D01*
%TO.C,X1*%
X166265000Y-61315000D02*
X166065000Y-61315000D01*
X166065000Y-61315000D02*
X166065000Y-64100000D01*
X169735000Y-64100000D02*
X169735000Y-61500000D01*
%TO.C,U2*%
X126315000Y-63440000D02*
X127575000Y-63440000D01*
X133135000Y-63440000D02*
X131875000Y-63440000D01*
X126315000Y-67200000D02*
X126315000Y-63440000D01*
X133135000Y-69450000D02*
X133135000Y-63440000D01*
%TO.C,R19*%
X128977500Y-71162742D02*
X128977500Y-71637258D01*
X130022500Y-71162742D02*
X130022500Y-71637258D01*
%TO.C,R18*%
X148337742Y-81472500D02*
X148812258Y-81472500D01*
X148337742Y-80427500D02*
X148812258Y-80427500D01*
%TO.C,R17*%
X151622500Y-80337258D02*
X151622500Y-79862742D01*
X150577500Y-80337258D02*
X150577500Y-79862742D01*
%TO.C,R16*%
X181262742Y-76722500D02*
X181737258Y-76722500D01*
X181262742Y-75677500D02*
X181737258Y-75677500D01*
%TO.C,R15*%
X184462742Y-76722500D02*
X184937258Y-76722500D01*
X184462742Y-75677500D02*
X184937258Y-75677500D01*
%TO.C,R14*%
X136612258Y-61177500D02*
X136137742Y-61177500D01*
X136612258Y-62222500D02*
X136137742Y-62222500D01*
%TO.C,R13*%
X139262742Y-62222500D02*
X139737258Y-62222500D01*
X139262742Y-61177500D02*
X139737258Y-61177500D01*
%TO.C,R11*%
X150672500Y-76637258D02*
X150672500Y-76162742D01*
X149627500Y-76637258D02*
X149627500Y-76162742D01*
%TO.C,R10*%
X146562258Y-85027500D02*
X146087742Y-85027500D01*
X146562258Y-86072500D02*
X146087742Y-86072500D01*
%TO.C,R7*%
X165987258Y-82877500D02*
X165512742Y-82877500D01*
X165987258Y-83922500D02*
X165512742Y-83922500D01*
%TO.C,R6*%
X141677500Y-75937742D02*
X141677500Y-76412258D01*
X142722500Y-75937742D02*
X142722500Y-76412258D01*
%TO.C,R4*%
X137337258Y-62827500D02*
X136862742Y-62827500D01*
X137337258Y-63872500D02*
X136862742Y-63872500D01*
%TO.C,R3*%
X137337258Y-64377500D02*
X136862742Y-64377500D01*
X137337258Y-65422500D02*
X136862742Y-65422500D01*
%TO.C,R2*%
X125037258Y-81777500D02*
X124562742Y-81777500D01*
X125037258Y-82822500D02*
X124562742Y-82822500D01*
D11*
%TO.C,J4*%
X131925000Y-72200000D02*
G75*
G03*
X131925000Y-72200000I-100000J0D01*
G01*
D12*
X135950000Y-76425000D02*
X131150000Y-76425000D01*
X130550000Y-73275000D02*
X130550000Y-75175000D01*
X131400000Y-73275000D02*
X130550000Y-73275000D01*
X136550000Y-73275000D02*
X136550000Y-75175000D01*
X135700000Y-73275000D02*
X136550000Y-73275000D01*
D10*
%TO.C,C33*%
X180835000Y-79011252D02*
X180835000Y-78488748D01*
X179365000Y-79011252D02*
X179365000Y-78488748D01*
%TO.C,C32*%
X166665000Y-72788748D02*
X166665000Y-73311252D01*
X168135000Y-72788748D02*
X168135000Y-73311252D01*
%TO.C,C30*%
X185935000Y-79111252D02*
X185935000Y-78588748D01*
X184465000Y-79111252D02*
X184465000Y-78588748D01*
%TO.C,C28*%
X164615000Y-72838748D02*
X164615000Y-73361252D01*
X166085000Y-72838748D02*
X166085000Y-73361252D01*
%TO.C,C22*%
X145088748Y-81935000D02*
X145611252Y-81935000D01*
X145088748Y-80465000D02*
X145611252Y-80465000D01*
%TO.C,C21*%
X145611252Y-78465000D02*
X145088748Y-78465000D01*
X145611252Y-79935000D02*
X145088748Y-79935000D01*
%TO.C,C20*%
X165435000Y-67061252D02*
X165435000Y-66538748D01*
X163965000Y-67061252D02*
X163965000Y-66538748D01*
%TO.C,C19*%
X152115000Y-79088748D02*
X152115000Y-79611252D01*
X153585000Y-79088748D02*
X153585000Y-79611252D01*
%TO.C,C17*%
X146611252Y-82865000D02*
X146088748Y-82865000D01*
X146611252Y-84335000D02*
X146088748Y-84335000D01*
%TO.C,C16*%
X167961252Y-64665000D02*
X167438748Y-64665000D01*
X167961252Y-66135000D02*
X167438748Y-66135000D01*
%TO.C,C15*%
X142238748Y-71335000D02*
X142761252Y-71335000D01*
X142238748Y-69865000D02*
X142761252Y-69865000D01*
%TO.C,C13*%
X159415000Y-78188748D02*
X159415000Y-78711252D01*
X160885000Y-78188748D02*
X160885000Y-78711252D01*
%TO.C,C12*%
X163788748Y-78460000D02*
X164311252Y-78460000D01*
X163788748Y-76990000D02*
X164311252Y-76990000D01*
%TO.C,C11*%
X139261252Y-79415000D02*
X138738748Y-79415000D01*
X139261252Y-80885000D02*
X138738748Y-80885000D01*
%TO.C,C10*%
X139261252Y-70965000D02*
X138738748Y-70965000D01*
X139261252Y-72435000D02*
X138738748Y-72435000D01*
%TO.C,C9*%
X140038748Y-67135000D02*
X140561252Y-67135000D01*
X140038748Y-65665000D02*
X140561252Y-65665000D01*
%TO.C,C7*%
X135207000Y-68179252D02*
X135207000Y-67656748D01*
X133737000Y-68179252D02*
X133737000Y-67656748D01*
%TO.C,C5*%
X149665000Y-72888748D02*
X149665000Y-73411252D01*
X151135000Y-72888748D02*
X151135000Y-73411252D01*
%TO.C,C4*%
X125311252Y-83365000D02*
X124788748Y-83365000D01*
X125311252Y-84835000D02*
X124788748Y-84835000D01*
%TO.C,C2*%
X157835000Y-82811252D02*
X157835000Y-82288748D01*
X156365000Y-82811252D02*
X156365000Y-82288748D01*
%TO.C,C1*%
X124339000Y-67656748D02*
X124339000Y-68179252D01*
X125809000Y-67656748D02*
X125809000Y-68179252D01*
%TO.C,Y1*%
D13*
X136626190Y-77651190D02*
X136626190Y-78127380D01*
X136959523Y-77127380D02*
X136626190Y-77651190D01*
X136292857Y-77127380D01*
X135435714Y-78127380D02*
X136007142Y-78127380D01*
X135721428Y-78127380D02*
X135721428Y-77127380D01*
X135816666Y-77270238D01*
X135911904Y-77365476D01*
X136007142Y-77413095D01*
%TO.C,L2*%
X163802380Y-62895833D02*
X163802380Y-62419642D01*
X162802380Y-62419642D01*
X162897619Y-63181547D02*
X162850000Y-63229166D01*
X162802380Y-63324404D01*
X162802380Y-63562500D01*
X162850000Y-63657738D01*
X162897619Y-63705357D01*
X162992857Y-63752976D01*
X163088095Y-63752976D01*
X163230952Y-63705357D01*
X163802380Y-63133928D01*
X163802380Y-63752976D01*
%TO.C,X1*%
X170152380Y-61990476D02*
X171152380Y-62657142D01*
X170152380Y-62657142D02*
X171152380Y-61990476D01*
X171152380Y-63561904D02*
X171152380Y-62990476D01*
X171152380Y-63276190D02*
X170152380Y-63276190D01*
X170295238Y-63180952D01*
X170390476Y-63085714D01*
X170438095Y-62990476D01*
%TO.C,U2*%
X130311904Y-65102380D02*
X130311904Y-65911904D01*
X130264285Y-66007142D01*
X130216666Y-66054761D01*
X130121428Y-66102380D01*
X129930952Y-66102380D01*
X129835714Y-66054761D01*
X129788095Y-66007142D01*
X129740476Y-65911904D01*
X129740476Y-65102380D01*
X129311904Y-65197619D02*
X129264285Y-65150000D01*
X129169047Y-65102380D01*
X128930952Y-65102380D01*
X128835714Y-65150000D01*
X128788095Y-65197619D01*
X128740476Y-65292857D01*
X128740476Y-65388095D01*
X128788095Y-65530952D01*
X129359523Y-66102380D01*
X128740476Y-66102380D01*
%TO.C,R19*%
X128522380Y-70757142D02*
X128046190Y-70423809D01*
X128522380Y-70185714D02*
X127522380Y-70185714D01*
X127522380Y-70566666D01*
X127570000Y-70661904D01*
X127617619Y-70709523D01*
X127712857Y-70757142D01*
X127855714Y-70757142D01*
X127950952Y-70709523D01*
X127998571Y-70661904D01*
X128046190Y-70566666D01*
X128046190Y-70185714D01*
X128522380Y-71709523D02*
X128522380Y-71138095D01*
X128522380Y-71423809D02*
X127522380Y-71423809D01*
X127665238Y-71328571D01*
X127760476Y-71233333D01*
X127808095Y-71138095D01*
X128522380Y-72185714D02*
X128522380Y-72376190D01*
X128474761Y-72471428D01*
X128427142Y-72519047D01*
X128284285Y-72614285D01*
X128093809Y-72661904D01*
X127712857Y-72661904D01*
X127617619Y-72614285D01*
X127570000Y-72566666D01*
X127522380Y-72471428D01*
X127522380Y-72280952D01*
X127570000Y-72185714D01*
X127617619Y-72138095D01*
X127712857Y-72090476D01*
X127950952Y-72090476D01*
X128046190Y-72138095D01*
X128093809Y-72185714D01*
X128141428Y-72280952D01*
X128141428Y-72471428D01*
X128093809Y-72566666D01*
X128046190Y-72614285D01*
X127950952Y-72661904D01*
%TO.C,R18*%
X149292857Y-79852380D02*
X149626190Y-79376190D01*
X149864285Y-79852380D02*
X149864285Y-78852380D01*
X149483333Y-78852380D01*
X149388095Y-78900000D01*
X149340476Y-78947619D01*
X149292857Y-79042857D01*
X149292857Y-79185714D01*
X149340476Y-79280952D01*
X149388095Y-79328571D01*
X149483333Y-79376190D01*
X149864285Y-79376190D01*
X148340476Y-79852380D02*
X148911904Y-79852380D01*
X148626190Y-79852380D02*
X148626190Y-78852380D01*
X148721428Y-78995238D01*
X148816666Y-79090476D01*
X148911904Y-79138095D01*
X147769047Y-79280952D02*
X147864285Y-79233333D01*
X147911904Y-79185714D01*
X147959523Y-79090476D01*
X147959523Y-79042857D01*
X147911904Y-78947619D01*
X147864285Y-78900000D01*
X147769047Y-78852380D01*
X147578571Y-78852380D01*
X147483333Y-78900000D01*
X147435714Y-78947619D01*
X147388095Y-79042857D01*
X147388095Y-79090476D01*
X147435714Y-79185714D01*
X147483333Y-79233333D01*
X147578571Y-79280952D01*
X147769047Y-79280952D01*
X147864285Y-79328571D01*
X147911904Y-79376190D01*
X147959523Y-79471428D01*
X147959523Y-79661904D01*
X147911904Y-79757142D01*
X147864285Y-79804761D01*
X147769047Y-79852380D01*
X147578571Y-79852380D01*
X147483333Y-79804761D01*
X147435714Y-79757142D01*
X147388095Y-79661904D01*
X147388095Y-79471428D01*
X147435714Y-79376190D01*
X147483333Y-79328571D01*
X147578571Y-79280952D01*
%TO.C,R17*%
X151752380Y-82307142D02*
X151276190Y-81973809D01*
X151752380Y-81735714D02*
X150752380Y-81735714D01*
X150752380Y-82116666D01*
X150800000Y-82211904D01*
X150847619Y-82259523D01*
X150942857Y-82307142D01*
X151085714Y-82307142D01*
X151180952Y-82259523D01*
X151228571Y-82211904D01*
X151276190Y-82116666D01*
X151276190Y-81735714D01*
X151752380Y-83259523D02*
X151752380Y-82688095D01*
X151752380Y-82973809D02*
X150752380Y-82973809D01*
X150895238Y-82878571D01*
X150990476Y-82783333D01*
X151038095Y-82688095D01*
X150752380Y-83592857D02*
X150752380Y-84259523D01*
X151752380Y-83830952D01*
%TO.C,R16*%
X182142857Y-75252380D02*
X182476190Y-74776190D01*
X182714285Y-75252380D02*
X182714285Y-74252380D01*
X182333333Y-74252380D01*
X182238095Y-74300000D01*
X182190476Y-74347619D01*
X182142857Y-74442857D01*
X182142857Y-74585714D01*
X182190476Y-74680952D01*
X182238095Y-74728571D01*
X182333333Y-74776190D01*
X182714285Y-74776190D01*
X181190476Y-75252380D02*
X181761904Y-75252380D01*
X181476190Y-75252380D02*
X181476190Y-74252380D01*
X181571428Y-74395238D01*
X181666666Y-74490476D01*
X181761904Y-74538095D01*
X180333333Y-74252380D02*
X180523809Y-74252380D01*
X180619047Y-74300000D01*
X180666666Y-74347619D01*
X180761904Y-74490476D01*
X180809523Y-74680952D01*
X180809523Y-75061904D01*
X180761904Y-75157142D01*
X180714285Y-75204761D01*
X180619047Y-75252380D01*
X180428571Y-75252380D01*
X180333333Y-75204761D01*
X180285714Y-75157142D01*
X180238095Y-75061904D01*
X180238095Y-74823809D01*
X180285714Y-74728571D01*
X180333333Y-74680952D01*
X180428571Y-74633333D01*
X180619047Y-74633333D01*
X180714285Y-74680952D01*
X180761904Y-74728571D01*
X180809523Y-74823809D01*
%TO.C,R15*%
X185342857Y-75252380D02*
X185676190Y-74776190D01*
X185914285Y-75252380D02*
X185914285Y-74252380D01*
X185533333Y-74252380D01*
X185438095Y-74300000D01*
X185390476Y-74347619D01*
X185342857Y-74442857D01*
X185342857Y-74585714D01*
X185390476Y-74680952D01*
X185438095Y-74728571D01*
X185533333Y-74776190D01*
X185914285Y-74776190D01*
X184390476Y-75252380D02*
X184961904Y-75252380D01*
X184676190Y-75252380D02*
X184676190Y-74252380D01*
X184771428Y-74395238D01*
X184866666Y-74490476D01*
X184961904Y-74538095D01*
X183485714Y-74252380D02*
X183961904Y-74252380D01*
X184009523Y-74728571D01*
X183961904Y-74680952D01*
X183866666Y-74633333D01*
X183628571Y-74633333D01*
X183533333Y-74680952D01*
X183485714Y-74728571D01*
X183438095Y-74823809D01*
X183438095Y-75061904D01*
X183485714Y-75157142D01*
X183533333Y-75204761D01*
X183628571Y-75252380D01*
X183866666Y-75252380D01*
X183961904Y-75204761D01*
X184009523Y-75157142D01*
%TO.C,R14*%
X137042857Y-60702380D02*
X137376190Y-60226190D01*
X137614285Y-60702380D02*
X137614285Y-59702380D01*
X137233333Y-59702380D01*
X137138095Y-59750000D01*
X137090476Y-59797619D01*
X137042857Y-59892857D01*
X137042857Y-60035714D01*
X137090476Y-60130952D01*
X137138095Y-60178571D01*
X137233333Y-60226190D01*
X137614285Y-60226190D01*
X136090476Y-60702380D02*
X136661904Y-60702380D01*
X136376190Y-60702380D02*
X136376190Y-59702380D01*
X136471428Y-59845238D01*
X136566666Y-59940476D01*
X136661904Y-59988095D01*
X135233333Y-60035714D02*
X135233333Y-60702380D01*
X135471428Y-59654761D02*
X135709523Y-60369047D01*
X135090476Y-60369047D01*
%TO.C,R13*%
X140342857Y-60702380D02*
X140676190Y-60226190D01*
X140914285Y-60702380D02*
X140914285Y-59702380D01*
X140533333Y-59702380D01*
X140438095Y-59750000D01*
X140390476Y-59797619D01*
X140342857Y-59892857D01*
X140342857Y-60035714D01*
X140390476Y-60130952D01*
X140438095Y-60178571D01*
X140533333Y-60226190D01*
X140914285Y-60226190D01*
X139390476Y-60702380D02*
X139961904Y-60702380D01*
X139676190Y-60702380D02*
X139676190Y-59702380D01*
X139771428Y-59845238D01*
X139866666Y-59940476D01*
X139961904Y-59988095D01*
X139057142Y-59702380D02*
X138438095Y-59702380D01*
X138771428Y-60083333D01*
X138628571Y-60083333D01*
X138533333Y-60130952D01*
X138485714Y-60178571D01*
X138438095Y-60273809D01*
X138438095Y-60511904D01*
X138485714Y-60607142D01*
X138533333Y-60654761D01*
X138628571Y-60702380D01*
X138914285Y-60702380D01*
X139009523Y-60654761D01*
X139057142Y-60607142D01*
%TO.C,R11*%
X152032380Y-75857142D02*
X151556190Y-75523809D01*
X152032380Y-75285714D02*
X151032380Y-75285714D01*
X151032380Y-75666666D01*
X151080000Y-75761904D01*
X151127619Y-75809523D01*
X151222857Y-75857142D01*
X151365714Y-75857142D01*
X151460952Y-75809523D01*
X151508571Y-75761904D01*
X151556190Y-75666666D01*
X151556190Y-75285714D01*
X152032380Y-76809523D02*
X152032380Y-76238095D01*
X152032380Y-76523809D02*
X151032380Y-76523809D01*
X151175238Y-76428571D01*
X151270476Y-76333333D01*
X151318095Y-76238095D01*
X152032380Y-77761904D02*
X152032380Y-77190476D01*
X152032380Y-77476190D02*
X151032380Y-77476190D01*
X151175238Y-77380952D01*
X151270476Y-77285714D01*
X151318095Y-77190476D01*
%TO.C,R10*%
X146967857Y-87652380D02*
X147301190Y-87176190D01*
X147539285Y-87652380D02*
X147539285Y-86652380D01*
X147158333Y-86652380D01*
X147063095Y-86700000D01*
X147015476Y-86747619D01*
X146967857Y-86842857D01*
X146967857Y-86985714D01*
X147015476Y-87080952D01*
X147063095Y-87128571D01*
X147158333Y-87176190D01*
X147539285Y-87176190D01*
X146015476Y-87652380D02*
X146586904Y-87652380D01*
X146301190Y-87652380D02*
X146301190Y-86652380D01*
X146396428Y-86795238D01*
X146491666Y-86890476D01*
X146586904Y-86938095D01*
X145396428Y-86652380D02*
X145301190Y-86652380D01*
X145205952Y-86700000D01*
X145158333Y-86747619D01*
X145110714Y-86842857D01*
X145063095Y-87033333D01*
X145063095Y-87271428D01*
X145110714Y-87461904D01*
X145158333Y-87557142D01*
X145205952Y-87604761D01*
X145301190Y-87652380D01*
X145396428Y-87652380D01*
X145491666Y-87604761D01*
X145539285Y-87557142D01*
X145586904Y-87461904D01*
X145634523Y-87271428D01*
X145634523Y-87033333D01*
X145586904Y-86842857D01*
X145539285Y-86747619D01*
X145491666Y-86700000D01*
X145396428Y-86652380D01*
%TO.C,R7*%
X165816666Y-85452380D02*
X166150000Y-84976190D01*
X166388095Y-85452380D02*
X166388095Y-84452380D01*
X166007142Y-84452380D01*
X165911904Y-84500000D01*
X165864285Y-84547619D01*
X165816666Y-84642857D01*
X165816666Y-84785714D01*
X165864285Y-84880952D01*
X165911904Y-84928571D01*
X166007142Y-84976190D01*
X166388095Y-84976190D01*
X165483333Y-84452380D02*
X164816666Y-84452380D01*
X165245238Y-85452380D01*
%TO.C,R6*%
X142316666Y-74377380D02*
X142650000Y-73901190D01*
X142888095Y-74377380D02*
X142888095Y-73377380D01*
X142507142Y-73377380D01*
X142411904Y-73425000D01*
X142364285Y-73472619D01*
X142316666Y-73567857D01*
X142316666Y-73710714D01*
X142364285Y-73805952D01*
X142411904Y-73853571D01*
X142507142Y-73901190D01*
X142888095Y-73901190D01*
X141459523Y-73377380D02*
X141650000Y-73377380D01*
X141745238Y-73425000D01*
X141792857Y-73472619D01*
X141888095Y-73615476D01*
X141935714Y-73805952D01*
X141935714Y-74186904D01*
X141888095Y-74282142D01*
X141840476Y-74329761D01*
X141745238Y-74377380D01*
X141554761Y-74377380D01*
X141459523Y-74329761D01*
X141411904Y-74282142D01*
X141364285Y-74186904D01*
X141364285Y-73948809D01*
X141411904Y-73853571D01*
X141459523Y-73805952D01*
X141554761Y-73758333D01*
X141745238Y-73758333D01*
X141840476Y-73805952D01*
X141888095Y-73853571D01*
X141935714Y-73948809D01*
%TO.C,R4*%
X139916666Y-63802380D02*
X140250000Y-63326190D01*
X140488095Y-63802380D02*
X140488095Y-62802380D01*
X140107142Y-62802380D01*
X140011904Y-62850000D01*
X139964285Y-62897619D01*
X139916666Y-62992857D01*
X139916666Y-63135714D01*
X139964285Y-63230952D01*
X140011904Y-63278571D01*
X140107142Y-63326190D01*
X140488095Y-63326190D01*
X139059523Y-63135714D02*
X139059523Y-63802380D01*
X139297619Y-62754761D02*
X139535714Y-63469047D01*
X138916666Y-63469047D01*
%TO.C,R3*%
X139841666Y-65277380D02*
X140175000Y-64801190D01*
X140413095Y-65277380D02*
X140413095Y-64277380D01*
X140032142Y-64277380D01*
X139936904Y-64325000D01*
X139889285Y-64372619D01*
X139841666Y-64467857D01*
X139841666Y-64610714D01*
X139889285Y-64705952D01*
X139936904Y-64753571D01*
X140032142Y-64801190D01*
X140413095Y-64801190D01*
X139508333Y-64277380D02*
X138889285Y-64277380D01*
X139222619Y-64658333D01*
X139079761Y-64658333D01*
X138984523Y-64705952D01*
X138936904Y-64753571D01*
X138889285Y-64848809D01*
X138889285Y-65086904D01*
X138936904Y-65182142D01*
X138984523Y-65229761D01*
X139079761Y-65277380D01*
X139365476Y-65277380D01*
X139460714Y-65229761D01*
X139508333Y-65182142D01*
%TO.C,R2*%
X122441666Y-82702380D02*
X122775000Y-82226190D01*
X123013095Y-82702380D02*
X123013095Y-81702380D01*
X122632142Y-81702380D01*
X122536904Y-81750000D01*
X122489285Y-81797619D01*
X122441666Y-81892857D01*
X122441666Y-82035714D01*
X122489285Y-82130952D01*
X122536904Y-82178571D01*
X122632142Y-82226190D01*
X123013095Y-82226190D01*
X122060714Y-81797619D02*
X122013095Y-81750000D01*
X121917857Y-81702380D01*
X121679761Y-81702380D01*
X121584523Y-81750000D01*
X121536904Y-81797619D01*
X121489285Y-81892857D01*
X121489285Y-81988095D01*
X121536904Y-82130952D01*
X122108333Y-82702380D01*
X121489285Y-82702380D01*
%TO.C,J4*%
D14*
X133908333Y-70667380D02*
X133908333Y-71381666D01*
X133955952Y-71524523D01*
X134051190Y-71619761D01*
X134194047Y-71667380D01*
X134289285Y-71667380D01*
X133003571Y-71000714D02*
X133003571Y-71667380D01*
X133241666Y-70619761D02*
X133479761Y-71334047D01*
X132860714Y-71334047D01*
%TO.C,C33*%
D13*
X180742857Y-81657142D02*
X180790476Y-81704761D01*
X180933333Y-81752380D01*
X181028571Y-81752380D01*
X181171428Y-81704761D01*
X181266666Y-81609523D01*
X181314285Y-81514285D01*
X181361904Y-81323809D01*
X181361904Y-81180952D01*
X181314285Y-80990476D01*
X181266666Y-80895238D01*
X181171428Y-80800000D01*
X181028571Y-80752380D01*
X180933333Y-80752380D01*
X180790476Y-80800000D01*
X180742857Y-80847619D01*
X180409523Y-80752380D02*
X179790476Y-80752380D01*
X180123809Y-81133333D01*
X179980952Y-81133333D01*
X179885714Y-81180952D01*
X179838095Y-81228571D01*
X179790476Y-81323809D01*
X179790476Y-81561904D01*
X179838095Y-81657142D01*
X179885714Y-81704761D01*
X179980952Y-81752380D01*
X180266666Y-81752380D01*
X180361904Y-81704761D01*
X180409523Y-81657142D01*
X179457142Y-80752380D02*
X178838095Y-80752380D01*
X179171428Y-81133333D01*
X179028571Y-81133333D01*
X178933333Y-81180952D01*
X178885714Y-81228571D01*
X178838095Y-81323809D01*
X178838095Y-81561904D01*
X178885714Y-81657142D01*
X178933333Y-81704761D01*
X179028571Y-81752380D01*
X179314285Y-81752380D01*
X179409523Y-81704761D01*
X179457142Y-81657142D01*
%TO.C,C32*%
X167882142Y-69257142D02*
X167929761Y-69209523D01*
X167977380Y-69066666D01*
X167977380Y-68971428D01*
X167929761Y-68828571D01*
X167834523Y-68733333D01*
X167739285Y-68685714D01*
X167548809Y-68638095D01*
X167405952Y-68638095D01*
X167215476Y-68685714D01*
X167120238Y-68733333D01*
X167025000Y-68828571D01*
X166977380Y-68971428D01*
X166977380Y-69066666D01*
X167025000Y-69209523D01*
X167072619Y-69257142D01*
X166977380Y-69590476D02*
X166977380Y-70209523D01*
X167358333Y-69876190D01*
X167358333Y-70019047D01*
X167405952Y-70114285D01*
X167453571Y-70161904D01*
X167548809Y-70209523D01*
X167786904Y-70209523D01*
X167882142Y-70161904D01*
X167929761Y-70114285D01*
X167977380Y-70019047D01*
X167977380Y-69733333D01*
X167929761Y-69638095D01*
X167882142Y-69590476D01*
X167072619Y-70590476D02*
X167025000Y-70638095D01*
X166977380Y-70733333D01*
X166977380Y-70971428D01*
X167025000Y-71066666D01*
X167072619Y-71114285D01*
X167167857Y-71161904D01*
X167263095Y-71161904D01*
X167405952Y-71114285D01*
X167977380Y-70542857D01*
X167977380Y-71161904D01*
%TO.C,C30*%
X185942857Y-81657142D02*
X185990476Y-81704761D01*
X186133333Y-81752380D01*
X186228571Y-81752380D01*
X186371428Y-81704761D01*
X186466666Y-81609523D01*
X186514285Y-81514285D01*
X186561904Y-81323809D01*
X186561904Y-81180952D01*
X186514285Y-80990476D01*
X186466666Y-80895238D01*
X186371428Y-80800000D01*
X186228571Y-80752380D01*
X186133333Y-80752380D01*
X185990476Y-80800000D01*
X185942857Y-80847619D01*
X185609523Y-80752380D02*
X184990476Y-80752380D01*
X185323809Y-81133333D01*
X185180952Y-81133333D01*
X185085714Y-81180952D01*
X185038095Y-81228571D01*
X184990476Y-81323809D01*
X184990476Y-81561904D01*
X185038095Y-81657142D01*
X185085714Y-81704761D01*
X185180952Y-81752380D01*
X185466666Y-81752380D01*
X185561904Y-81704761D01*
X185609523Y-81657142D01*
X184371428Y-80752380D02*
X184276190Y-80752380D01*
X184180952Y-80800000D01*
X184133333Y-80847619D01*
X184085714Y-80942857D01*
X184038095Y-81133333D01*
X184038095Y-81371428D01*
X184085714Y-81561904D01*
X184133333Y-81657142D01*
X184180952Y-81704761D01*
X184276190Y-81752380D01*
X184371428Y-81752380D01*
X184466666Y-81704761D01*
X184514285Y-81657142D01*
X184561904Y-81561904D01*
X184609523Y-81371428D01*
X184609523Y-81133333D01*
X184561904Y-80942857D01*
X184514285Y-80847619D01*
X184466666Y-80800000D01*
X184371428Y-80752380D01*
%TO.C,C28*%
X165807142Y-69182142D02*
X165854761Y-69134523D01*
X165902380Y-68991666D01*
X165902380Y-68896428D01*
X165854761Y-68753571D01*
X165759523Y-68658333D01*
X165664285Y-68610714D01*
X165473809Y-68563095D01*
X165330952Y-68563095D01*
X165140476Y-68610714D01*
X165045238Y-68658333D01*
X164950000Y-68753571D01*
X164902380Y-68896428D01*
X164902380Y-68991666D01*
X164950000Y-69134523D01*
X164997619Y-69182142D01*
X164997619Y-69563095D02*
X164950000Y-69610714D01*
X164902380Y-69705952D01*
X164902380Y-69944047D01*
X164950000Y-70039285D01*
X164997619Y-70086904D01*
X165092857Y-70134523D01*
X165188095Y-70134523D01*
X165330952Y-70086904D01*
X165902380Y-69515476D01*
X165902380Y-70134523D01*
X165330952Y-70705952D02*
X165283333Y-70610714D01*
X165235714Y-70563095D01*
X165140476Y-70515476D01*
X165092857Y-70515476D01*
X164997619Y-70563095D01*
X164950000Y-70610714D01*
X164902380Y-70705952D01*
X164902380Y-70896428D01*
X164950000Y-70991666D01*
X164997619Y-71039285D01*
X165092857Y-71086904D01*
X165140476Y-71086904D01*
X165235714Y-71039285D01*
X165283333Y-70991666D01*
X165330952Y-70896428D01*
X165330952Y-70705952D01*
X165378571Y-70610714D01*
X165426190Y-70563095D01*
X165521428Y-70515476D01*
X165711904Y-70515476D01*
X165807142Y-70563095D01*
X165854761Y-70610714D01*
X165902380Y-70705952D01*
X165902380Y-70896428D01*
X165854761Y-70991666D01*
X165807142Y-71039285D01*
X165711904Y-71086904D01*
X165521428Y-71086904D01*
X165426190Y-71039285D01*
X165378571Y-70991666D01*
X165330952Y-70896428D01*
%TO.C,C22*%
X143157142Y-81007142D02*
X143204761Y-80959523D01*
X143252380Y-80816666D01*
X143252380Y-80721428D01*
X143204761Y-80578571D01*
X143109523Y-80483333D01*
X143014285Y-80435714D01*
X142823809Y-80388095D01*
X142680952Y-80388095D01*
X142490476Y-80435714D01*
X142395238Y-80483333D01*
X142300000Y-80578571D01*
X142252380Y-80721428D01*
X142252380Y-80816666D01*
X142300000Y-80959523D01*
X142347619Y-81007142D01*
X142347619Y-81388095D02*
X142300000Y-81435714D01*
X142252380Y-81530952D01*
X142252380Y-81769047D01*
X142300000Y-81864285D01*
X142347619Y-81911904D01*
X142442857Y-81959523D01*
X142538095Y-81959523D01*
X142680952Y-81911904D01*
X143252380Y-81340476D01*
X143252380Y-81959523D01*
X142347619Y-82340476D02*
X142300000Y-82388095D01*
X142252380Y-82483333D01*
X142252380Y-82721428D01*
X142300000Y-82816666D01*
X142347619Y-82864285D01*
X142442857Y-82911904D01*
X142538095Y-82911904D01*
X142680952Y-82864285D01*
X143252380Y-82292857D01*
X143252380Y-82911904D01*
%TO.C,C21*%
X143007142Y-78207142D02*
X143054761Y-78159523D01*
X143102380Y-78016666D01*
X143102380Y-77921428D01*
X143054761Y-77778571D01*
X142959523Y-77683333D01*
X142864285Y-77635714D01*
X142673809Y-77588095D01*
X142530952Y-77588095D01*
X142340476Y-77635714D01*
X142245238Y-77683333D01*
X142150000Y-77778571D01*
X142102380Y-77921428D01*
X142102380Y-78016666D01*
X142150000Y-78159523D01*
X142197619Y-78207142D01*
X142197619Y-78588095D02*
X142150000Y-78635714D01*
X142102380Y-78730952D01*
X142102380Y-78969047D01*
X142150000Y-79064285D01*
X142197619Y-79111904D01*
X142292857Y-79159523D01*
X142388095Y-79159523D01*
X142530952Y-79111904D01*
X143102380Y-78540476D01*
X143102380Y-79159523D01*
X143102380Y-80111904D02*
X143102380Y-79540476D01*
X143102380Y-79826190D02*
X142102380Y-79826190D01*
X142245238Y-79730952D01*
X142340476Y-79635714D01*
X142388095Y-79540476D01*
%TO.C,C20*%
X163357142Y-65857142D02*
X163404761Y-65809523D01*
X163452380Y-65666666D01*
X163452380Y-65571428D01*
X163404761Y-65428571D01*
X163309523Y-65333333D01*
X163214285Y-65285714D01*
X163023809Y-65238095D01*
X162880952Y-65238095D01*
X162690476Y-65285714D01*
X162595238Y-65333333D01*
X162500000Y-65428571D01*
X162452380Y-65571428D01*
X162452380Y-65666666D01*
X162500000Y-65809523D01*
X162547619Y-65857142D01*
X162547619Y-66238095D02*
X162500000Y-66285714D01*
X162452380Y-66380952D01*
X162452380Y-66619047D01*
X162500000Y-66714285D01*
X162547619Y-66761904D01*
X162642857Y-66809523D01*
X162738095Y-66809523D01*
X162880952Y-66761904D01*
X163452380Y-66190476D01*
X163452380Y-66809523D01*
X162452380Y-67428571D02*
X162452380Y-67523809D01*
X162500000Y-67619047D01*
X162547619Y-67666666D01*
X162642857Y-67714285D01*
X162833333Y-67761904D01*
X163071428Y-67761904D01*
X163261904Y-67714285D01*
X163357142Y-67666666D01*
X163404761Y-67619047D01*
X163452380Y-67523809D01*
X163452380Y-67428571D01*
X163404761Y-67333333D01*
X163357142Y-67285714D01*
X163261904Y-67238095D01*
X163071428Y-67190476D01*
X162833333Y-67190476D01*
X162642857Y-67238095D01*
X162547619Y-67285714D01*
X162500000Y-67333333D01*
X162452380Y-67428571D01*
%TO.C,C19*%
X154857142Y-78657142D02*
X154904761Y-78609523D01*
X154952380Y-78466666D01*
X154952380Y-78371428D01*
X154904761Y-78228571D01*
X154809523Y-78133333D01*
X154714285Y-78085714D01*
X154523809Y-78038095D01*
X154380952Y-78038095D01*
X154190476Y-78085714D01*
X154095238Y-78133333D01*
X154000000Y-78228571D01*
X153952380Y-78371428D01*
X153952380Y-78466666D01*
X154000000Y-78609523D01*
X154047619Y-78657142D01*
X154952380Y-79609523D02*
X154952380Y-79038095D01*
X154952380Y-79323809D02*
X153952380Y-79323809D01*
X154095238Y-79228571D01*
X154190476Y-79133333D01*
X154238095Y-79038095D01*
X154952380Y-80085714D02*
X154952380Y-80276190D01*
X154904761Y-80371428D01*
X154857142Y-80419047D01*
X154714285Y-80514285D01*
X154523809Y-80561904D01*
X154142857Y-80561904D01*
X154047619Y-80514285D01*
X154000000Y-80466666D01*
X153952380Y-80371428D01*
X153952380Y-80180952D01*
X154000000Y-80085714D01*
X154047619Y-80038095D01*
X154142857Y-79990476D01*
X154380952Y-79990476D01*
X154476190Y-80038095D01*
X154523809Y-80085714D01*
X154571428Y-80180952D01*
X154571428Y-80371428D01*
X154523809Y-80466666D01*
X154476190Y-80514285D01*
X154380952Y-80561904D01*
%TO.C,C17*%
X149307142Y-83007142D02*
X149354761Y-82959523D01*
X149402380Y-82816666D01*
X149402380Y-82721428D01*
X149354761Y-82578571D01*
X149259523Y-82483333D01*
X149164285Y-82435714D01*
X148973809Y-82388095D01*
X148830952Y-82388095D01*
X148640476Y-82435714D01*
X148545238Y-82483333D01*
X148450000Y-82578571D01*
X148402380Y-82721428D01*
X148402380Y-82816666D01*
X148450000Y-82959523D01*
X148497619Y-83007142D01*
X149402380Y-83959523D02*
X149402380Y-83388095D01*
X149402380Y-83673809D02*
X148402380Y-83673809D01*
X148545238Y-83578571D01*
X148640476Y-83483333D01*
X148688095Y-83388095D01*
X148402380Y-84292857D02*
X148402380Y-84959523D01*
X149402380Y-84530952D01*
%TO.C,C16*%
X171442857Y-65957142D02*
X171490476Y-66004761D01*
X171633333Y-66052380D01*
X171728571Y-66052380D01*
X171871428Y-66004761D01*
X171966666Y-65909523D01*
X172014285Y-65814285D01*
X172061904Y-65623809D01*
X172061904Y-65480952D01*
X172014285Y-65290476D01*
X171966666Y-65195238D01*
X171871428Y-65100000D01*
X171728571Y-65052380D01*
X171633333Y-65052380D01*
X171490476Y-65100000D01*
X171442857Y-65147619D01*
X170490476Y-66052380D02*
X171061904Y-66052380D01*
X170776190Y-66052380D02*
X170776190Y-65052380D01*
X170871428Y-65195238D01*
X170966666Y-65290476D01*
X171061904Y-65338095D01*
X169633333Y-65052380D02*
X169823809Y-65052380D01*
X169919047Y-65100000D01*
X169966666Y-65147619D01*
X170061904Y-65290476D01*
X170109523Y-65480952D01*
X170109523Y-65861904D01*
X170061904Y-65957142D01*
X170014285Y-66004761D01*
X169919047Y-66052380D01*
X169728571Y-66052380D01*
X169633333Y-66004761D01*
X169585714Y-65957142D01*
X169538095Y-65861904D01*
X169538095Y-65623809D01*
X169585714Y-65528571D01*
X169633333Y-65480952D01*
X169728571Y-65433333D01*
X169919047Y-65433333D01*
X170014285Y-65480952D01*
X170061904Y-65528571D01*
X170109523Y-65623809D01*
%TO.C,C15*%
X141442857Y-69357142D02*
X141490476Y-69404761D01*
X141633333Y-69452380D01*
X141728571Y-69452380D01*
X141871428Y-69404761D01*
X141966666Y-69309523D01*
X142014285Y-69214285D01*
X142061904Y-69023809D01*
X142061904Y-68880952D01*
X142014285Y-68690476D01*
X141966666Y-68595238D01*
X141871428Y-68500000D01*
X141728571Y-68452380D01*
X141633333Y-68452380D01*
X141490476Y-68500000D01*
X141442857Y-68547619D01*
X140490476Y-69452380D02*
X141061904Y-69452380D01*
X140776190Y-69452380D02*
X140776190Y-68452380D01*
X140871428Y-68595238D01*
X140966666Y-68690476D01*
X141061904Y-68738095D01*
X139585714Y-68452380D02*
X140061904Y-68452380D01*
X140109523Y-68928571D01*
X140061904Y-68880952D01*
X139966666Y-68833333D01*
X139728571Y-68833333D01*
X139633333Y-68880952D01*
X139585714Y-68928571D01*
X139538095Y-69023809D01*
X139538095Y-69261904D01*
X139585714Y-69357142D01*
X139633333Y-69404761D01*
X139728571Y-69452380D01*
X139966666Y-69452380D01*
X140061904Y-69404761D01*
X140109523Y-69357142D01*
%TO.C,C13*%
X162207142Y-77707142D02*
X162254761Y-77659523D01*
X162302380Y-77516666D01*
X162302380Y-77421428D01*
X162254761Y-77278571D01*
X162159523Y-77183333D01*
X162064285Y-77135714D01*
X161873809Y-77088095D01*
X161730952Y-77088095D01*
X161540476Y-77135714D01*
X161445238Y-77183333D01*
X161350000Y-77278571D01*
X161302380Y-77421428D01*
X161302380Y-77516666D01*
X161350000Y-77659523D01*
X161397619Y-77707142D01*
X162302380Y-78659523D02*
X162302380Y-78088095D01*
X162302380Y-78373809D02*
X161302380Y-78373809D01*
X161445238Y-78278571D01*
X161540476Y-78183333D01*
X161588095Y-78088095D01*
X161302380Y-78992857D02*
X161302380Y-79611904D01*
X161683333Y-79278571D01*
X161683333Y-79421428D01*
X161730952Y-79516666D01*
X161778571Y-79564285D01*
X161873809Y-79611904D01*
X162111904Y-79611904D01*
X162207142Y-79564285D01*
X162254761Y-79516666D01*
X162302380Y-79421428D01*
X162302380Y-79135714D01*
X162254761Y-79040476D01*
X162207142Y-78992857D01*
%TO.C,C12*%
X163342857Y-76182142D02*
X163390476Y-76229761D01*
X163533333Y-76277380D01*
X163628571Y-76277380D01*
X163771428Y-76229761D01*
X163866666Y-76134523D01*
X163914285Y-76039285D01*
X163961904Y-75848809D01*
X163961904Y-75705952D01*
X163914285Y-75515476D01*
X163866666Y-75420238D01*
X163771428Y-75325000D01*
X163628571Y-75277380D01*
X163533333Y-75277380D01*
X163390476Y-75325000D01*
X163342857Y-75372619D01*
X162390476Y-76277380D02*
X162961904Y-76277380D01*
X162676190Y-76277380D02*
X162676190Y-75277380D01*
X162771428Y-75420238D01*
X162866666Y-75515476D01*
X162961904Y-75563095D01*
X162009523Y-75372619D02*
X161961904Y-75325000D01*
X161866666Y-75277380D01*
X161628571Y-75277380D01*
X161533333Y-75325000D01*
X161485714Y-75372619D01*
X161438095Y-75467857D01*
X161438095Y-75563095D01*
X161485714Y-75705952D01*
X162057142Y-76277380D01*
X161438095Y-76277380D01*
%TO.C,C11*%
X139542857Y-82532142D02*
X139590476Y-82579761D01*
X139733333Y-82627380D01*
X139828571Y-82627380D01*
X139971428Y-82579761D01*
X140066666Y-82484523D01*
X140114285Y-82389285D01*
X140161904Y-82198809D01*
X140161904Y-82055952D01*
X140114285Y-81865476D01*
X140066666Y-81770238D01*
X139971428Y-81675000D01*
X139828571Y-81627380D01*
X139733333Y-81627380D01*
X139590476Y-81675000D01*
X139542857Y-81722619D01*
X138590476Y-82627380D02*
X139161904Y-82627380D01*
X138876190Y-82627380D02*
X138876190Y-81627380D01*
X138971428Y-81770238D01*
X139066666Y-81865476D01*
X139161904Y-81913095D01*
X137638095Y-82627380D02*
X138209523Y-82627380D01*
X137923809Y-82627380D02*
X137923809Y-81627380D01*
X138019047Y-81770238D01*
X138114285Y-81865476D01*
X138209523Y-81913095D01*
%TO.C,C10*%
X142842857Y-72157142D02*
X142890476Y-72204761D01*
X143033333Y-72252380D01*
X143128571Y-72252380D01*
X143271428Y-72204761D01*
X143366666Y-72109523D01*
X143414285Y-72014285D01*
X143461904Y-71823809D01*
X143461904Y-71680952D01*
X143414285Y-71490476D01*
X143366666Y-71395238D01*
X143271428Y-71300000D01*
X143128571Y-71252380D01*
X143033333Y-71252380D01*
X142890476Y-71300000D01*
X142842857Y-71347619D01*
X141890476Y-72252380D02*
X142461904Y-72252380D01*
X142176190Y-72252380D02*
X142176190Y-71252380D01*
X142271428Y-71395238D01*
X142366666Y-71490476D01*
X142461904Y-71538095D01*
X141271428Y-71252380D02*
X141176190Y-71252380D01*
X141080952Y-71300000D01*
X141033333Y-71347619D01*
X140985714Y-71442857D01*
X140938095Y-71633333D01*
X140938095Y-71871428D01*
X140985714Y-72061904D01*
X141033333Y-72157142D01*
X141080952Y-72204761D01*
X141176190Y-72252380D01*
X141271428Y-72252380D01*
X141366666Y-72204761D01*
X141414285Y-72157142D01*
X141461904Y-72061904D01*
X141509523Y-71871428D01*
X141509523Y-71633333D01*
X141461904Y-71442857D01*
X141414285Y-71347619D01*
X141366666Y-71300000D01*
X141271428Y-71252380D01*
%TO.C,C9*%
X143066666Y-66957142D02*
X143114285Y-67004761D01*
X143257142Y-67052380D01*
X143352380Y-67052380D01*
X143495238Y-67004761D01*
X143590476Y-66909523D01*
X143638095Y-66814285D01*
X143685714Y-66623809D01*
X143685714Y-66480952D01*
X143638095Y-66290476D01*
X143590476Y-66195238D01*
X143495238Y-66100000D01*
X143352380Y-66052380D01*
X143257142Y-66052380D01*
X143114285Y-66100000D01*
X143066666Y-66147619D01*
X142590476Y-67052380D02*
X142400000Y-67052380D01*
X142304761Y-67004761D01*
X142257142Y-66957142D01*
X142161904Y-66814285D01*
X142114285Y-66623809D01*
X142114285Y-66242857D01*
X142161904Y-66147619D01*
X142209523Y-66100000D01*
X142304761Y-66052380D01*
X142495238Y-66052380D01*
X142590476Y-66100000D01*
X142638095Y-66147619D01*
X142685714Y-66242857D01*
X142685714Y-66480952D01*
X142638095Y-66576190D01*
X142590476Y-66623809D01*
X142495238Y-66671428D01*
X142304761Y-66671428D01*
X142209523Y-66623809D01*
X142161904Y-66576190D01*
X142114285Y-66480952D01*
%TO.C,C7*%
X134663666Y-70650142D02*
X134711285Y-70697761D01*
X134854142Y-70745380D01*
X134949380Y-70745380D01*
X135092238Y-70697761D01*
X135187476Y-70602523D01*
X135235095Y-70507285D01*
X135282714Y-70316809D01*
X135282714Y-70173952D01*
X135235095Y-69983476D01*
X135187476Y-69888238D01*
X135092238Y-69793000D01*
X134949380Y-69745380D01*
X134854142Y-69745380D01*
X134711285Y-69793000D01*
X134663666Y-69840619D01*
X134330333Y-69745380D02*
X133663666Y-69745380D01*
X134092238Y-70745380D01*
%TO.C,C5*%
X152457142Y-73033333D02*
X152504761Y-72985714D01*
X152552380Y-72842857D01*
X152552380Y-72747619D01*
X152504761Y-72604761D01*
X152409523Y-72509523D01*
X152314285Y-72461904D01*
X152123809Y-72414285D01*
X151980952Y-72414285D01*
X151790476Y-72461904D01*
X151695238Y-72509523D01*
X151600000Y-72604761D01*
X151552380Y-72747619D01*
X151552380Y-72842857D01*
X151600000Y-72985714D01*
X151647619Y-73033333D01*
X151552380Y-73938095D02*
X151552380Y-73461904D01*
X152028571Y-73414285D01*
X151980952Y-73461904D01*
X151933333Y-73557142D01*
X151933333Y-73795238D01*
X151980952Y-73890476D01*
X152028571Y-73938095D01*
X152123809Y-73985714D01*
X152361904Y-73985714D01*
X152457142Y-73938095D01*
X152504761Y-73890476D01*
X152552380Y-73795238D01*
X152552380Y-73557142D01*
X152504761Y-73461904D01*
X152457142Y-73414285D01*
%TO.C,C4*%
X122491666Y-84407142D02*
X122539285Y-84454761D01*
X122682142Y-84502380D01*
X122777380Y-84502380D01*
X122920238Y-84454761D01*
X123015476Y-84359523D01*
X123063095Y-84264285D01*
X123110714Y-84073809D01*
X123110714Y-83930952D01*
X123063095Y-83740476D01*
X123015476Y-83645238D01*
X122920238Y-83550000D01*
X122777380Y-83502380D01*
X122682142Y-83502380D01*
X122539285Y-83550000D01*
X122491666Y-83597619D01*
X121634523Y-83835714D02*
X121634523Y-84502380D01*
X121872619Y-83454761D02*
X122110714Y-84169047D01*
X121491666Y-84169047D01*
%TO.C,C2*%
X157066666Y-85432142D02*
X157114285Y-85479761D01*
X157257142Y-85527380D01*
X157352380Y-85527380D01*
X157495238Y-85479761D01*
X157590476Y-85384523D01*
X157638095Y-85289285D01*
X157685714Y-85098809D01*
X157685714Y-84955952D01*
X157638095Y-84765476D01*
X157590476Y-84670238D01*
X157495238Y-84575000D01*
X157352380Y-84527380D01*
X157257142Y-84527380D01*
X157114285Y-84575000D01*
X157066666Y-84622619D01*
X156685714Y-84622619D02*
X156638095Y-84575000D01*
X156542857Y-84527380D01*
X156304761Y-84527380D01*
X156209523Y-84575000D01*
X156161904Y-84622619D01*
X156114285Y-84717857D01*
X156114285Y-84813095D01*
X156161904Y-84955952D01*
X156733333Y-85527380D01*
X156114285Y-85527380D01*
%TO.C,C1*%
X125420666Y-65755142D02*
X125468285Y-65802761D01*
X125611142Y-65850380D01*
X125706380Y-65850380D01*
X125849238Y-65802761D01*
X125944476Y-65707523D01*
X125992095Y-65612285D01*
X126039714Y-65421809D01*
X126039714Y-65278952D01*
X125992095Y-65088476D01*
X125944476Y-64993238D01*
X125849238Y-64898000D01*
X125706380Y-64850380D01*
X125611142Y-64850380D01*
X125468285Y-64898000D01*
X125420666Y-64945619D01*
X124468285Y-65850380D02*
X125039714Y-65850380D01*
X124754000Y-65850380D02*
X124754000Y-64850380D01*
X124849238Y-64993238D01*
X124944476Y-65088476D01*
X125039714Y-65136095D01*
%TD*%
M02*
