%TF.GenerationSoftware,KiCad,Pcbnew,(5.1.9)-1*%
%TF.CreationDate,2021-04-11T16:36:30+08:00*%
%TF.ProjectId,st_usbAudioV1_demo,73745f75-7362-4417-9564-696f56315f64,rev?*%
%TF.SameCoordinates,Original*%
%TF.FileFunction,Soldermask,Bot*%
%TF.FilePolarity,Negative*%
%FSLAX46Y46*%
G04 Gerber Fmt 4.6, Leading zero omitted, Abs format (unit mm)*
G04 Created by KiCad (PCBNEW (5.1.9)-1) date 2021-04-11 16:36:30*
%MOMM*%
%LPD*%
G01*
G04 APERTURE LIST*
%ADD10O,1.700000X1.700000*%
%ADD11R,1.700000X1.700000*%
%ADD12R,1.000000X1.000000*%
%ADD13R,2.400000X2.000000*%
%ADD14O,2.100000X1.050000*%
%ADD15O,1.600000X0.800000*%
%ADD16R,1.000000X0.900000*%
%ADD17R,1.500000X2.000000*%
%ADD18R,3.800000X2.000000*%
%ADD19R,1.222000X1.222000*%
%ADD20C,1.222000*%
%ADD21C,1.258000*%
%ADD22C,1.100000*%
%ADD23R,0.400000X0.800000*%
%ADD24R,0.300000X0.800000*%
G04 APERTURE END LIST*
D10*
%TO.C,J1*%
X151640000Y-61000000D03*
X149100000Y-61000000D03*
D11*
X146560000Y-61000000D03*
%TD*%
D12*
%TO.C,RST*%
X124150000Y-86250000D03*
%TD*%
D13*
%TO.C,Y1*%
X139200000Y-77700000D03*
X139200000Y-74000000D03*
%TD*%
%TO.C,L2*%
G36*
G01*
X164518750Y-63687500D02*
X165281250Y-63687500D01*
G75*
G02*
X165500000Y-63906250I0J-218750D01*
G01*
X165500000Y-64343750D01*
G75*
G02*
X165281250Y-64562500I-218750J0D01*
G01*
X164518750Y-64562500D01*
G75*
G02*
X164300000Y-64343750I0J218750D01*
G01*
X164300000Y-63906250D01*
G75*
G02*
X164518750Y-63687500I218750J0D01*
G01*
G37*
G36*
G01*
X164518750Y-61562500D02*
X165281250Y-61562500D01*
G75*
G02*
X165500000Y-61781250I0J-218750D01*
G01*
X165500000Y-62218750D01*
G75*
G02*
X165281250Y-62437500I-218750J0D01*
G01*
X164518750Y-62437500D01*
G75*
G02*
X164300000Y-62218750I0J218750D01*
G01*
X164300000Y-61781250D01*
G75*
G02*
X164518750Y-61562500I218750J0D01*
G01*
G37*
%TD*%
D14*
%TO.C,USB1*%
X119432000Y-69300000D03*
X119432000Y-77500000D03*
D15*
X122512000Y-75825000D03*
X122512000Y-70975000D03*
%TD*%
D16*
%TO.C,X1*%
X166825000Y-63575000D03*
X168975000Y-63575000D03*
X168975000Y-62025000D03*
X166825000Y-62025000D03*
%TD*%
D17*
%TO.C,U2*%
X132025000Y-68500000D03*
X127425000Y-68500000D03*
X129725000Y-68500000D03*
D18*
X129725000Y-62200000D03*
%TD*%
D19*
%TO.C,RV1*%
X152910000Y-76300000D03*
D20*
X155450000Y-73760000D03*
X157990000Y-76300000D03*
%TD*%
%TO.C,R19*%
G36*
G01*
X129225000Y-71825000D02*
X129775000Y-71825000D01*
G75*
G02*
X129975000Y-72025000I0J-200000D01*
G01*
X129975000Y-72425000D01*
G75*
G02*
X129775000Y-72625000I-200000J0D01*
G01*
X129225000Y-72625000D01*
G75*
G02*
X129025000Y-72425000I0J200000D01*
G01*
X129025000Y-72025000D01*
G75*
G02*
X129225000Y-71825000I200000J0D01*
G01*
G37*
G36*
G01*
X129225000Y-70175000D02*
X129775000Y-70175000D01*
G75*
G02*
X129975000Y-70375000I0J-200000D01*
G01*
X129975000Y-70775000D01*
G75*
G02*
X129775000Y-70975000I-200000J0D01*
G01*
X129225000Y-70975000D01*
G75*
G02*
X129025000Y-70775000I0J200000D01*
G01*
X129025000Y-70375000D01*
G75*
G02*
X129225000Y-70175000I200000J0D01*
G01*
G37*
%TD*%
%TO.C,R18*%
G36*
G01*
X149000000Y-81225000D02*
X149000000Y-80675000D01*
G75*
G02*
X149200000Y-80475000I200000J0D01*
G01*
X149600000Y-80475000D01*
G75*
G02*
X149800000Y-80675000I0J-200000D01*
G01*
X149800000Y-81225000D01*
G75*
G02*
X149600000Y-81425000I-200000J0D01*
G01*
X149200000Y-81425000D01*
G75*
G02*
X149000000Y-81225000I0J200000D01*
G01*
G37*
G36*
G01*
X147350000Y-81225000D02*
X147350000Y-80675000D01*
G75*
G02*
X147550000Y-80475000I200000J0D01*
G01*
X147950000Y-80475000D01*
G75*
G02*
X148150000Y-80675000I0J-200000D01*
G01*
X148150000Y-81225000D01*
G75*
G02*
X147950000Y-81425000I-200000J0D01*
G01*
X147550000Y-81425000D01*
G75*
G02*
X147350000Y-81225000I0J200000D01*
G01*
G37*
%TD*%
%TO.C,R17*%
G36*
G01*
X151375000Y-79675000D02*
X150825000Y-79675000D01*
G75*
G02*
X150625000Y-79475000I0J200000D01*
G01*
X150625000Y-79075000D01*
G75*
G02*
X150825000Y-78875000I200000J0D01*
G01*
X151375000Y-78875000D01*
G75*
G02*
X151575000Y-79075000I0J-200000D01*
G01*
X151575000Y-79475000D01*
G75*
G02*
X151375000Y-79675000I-200000J0D01*
G01*
G37*
G36*
G01*
X151375000Y-81325000D02*
X150825000Y-81325000D01*
G75*
G02*
X150625000Y-81125000I0J200000D01*
G01*
X150625000Y-80725000D01*
G75*
G02*
X150825000Y-80525000I200000J0D01*
G01*
X151375000Y-80525000D01*
G75*
G02*
X151575000Y-80725000I0J-200000D01*
G01*
X151575000Y-81125000D01*
G75*
G02*
X151375000Y-81325000I-200000J0D01*
G01*
G37*
%TD*%
%TO.C,R16*%
G36*
G01*
X181925000Y-76475000D02*
X181925000Y-75925000D01*
G75*
G02*
X182125000Y-75725000I200000J0D01*
G01*
X182525000Y-75725000D01*
G75*
G02*
X182725000Y-75925000I0J-200000D01*
G01*
X182725000Y-76475000D01*
G75*
G02*
X182525000Y-76675000I-200000J0D01*
G01*
X182125000Y-76675000D01*
G75*
G02*
X181925000Y-76475000I0J200000D01*
G01*
G37*
G36*
G01*
X180275000Y-76475000D02*
X180275000Y-75925000D01*
G75*
G02*
X180475000Y-75725000I200000J0D01*
G01*
X180875000Y-75725000D01*
G75*
G02*
X181075000Y-75925000I0J-200000D01*
G01*
X181075000Y-76475000D01*
G75*
G02*
X180875000Y-76675000I-200000J0D01*
G01*
X180475000Y-76675000D01*
G75*
G02*
X180275000Y-76475000I0J200000D01*
G01*
G37*
%TD*%
%TO.C,R15*%
G36*
G01*
X185125000Y-76475000D02*
X185125000Y-75925000D01*
G75*
G02*
X185325000Y-75725000I200000J0D01*
G01*
X185725000Y-75725000D01*
G75*
G02*
X185925000Y-75925000I0J-200000D01*
G01*
X185925000Y-76475000D01*
G75*
G02*
X185725000Y-76675000I-200000J0D01*
G01*
X185325000Y-76675000D01*
G75*
G02*
X185125000Y-76475000I0J200000D01*
G01*
G37*
G36*
G01*
X183475000Y-76475000D02*
X183475000Y-75925000D01*
G75*
G02*
X183675000Y-75725000I200000J0D01*
G01*
X184075000Y-75725000D01*
G75*
G02*
X184275000Y-75925000I0J-200000D01*
G01*
X184275000Y-76475000D01*
G75*
G02*
X184075000Y-76675000I-200000J0D01*
G01*
X183675000Y-76675000D01*
G75*
G02*
X183475000Y-76475000I0J200000D01*
G01*
G37*
%TD*%
%TO.C,R14*%
G36*
G01*
X135950000Y-61425000D02*
X135950000Y-61975000D01*
G75*
G02*
X135750000Y-62175000I-200000J0D01*
G01*
X135350000Y-62175000D01*
G75*
G02*
X135150000Y-61975000I0J200000D01*
G01*
X135150000Y-61425000D01*
G75*
G02*
X135350000Y-61225000I200000J0D01*
G01*
X135750000Y-61225000D01*
G75*
G02*
X135950000Y-61425000I0J-200000D01*
G01*
G37*
G36*
G01*
X137600000Y-61425000D02*
X137600000Y-61975000D01*
G75*
G02*
X137400000Y-62175000I-200000J0D01*
G01*
X137000000Y-62175000D01*
G75*
G02*
X136800000Y-61975000I0J200000D01*
G01*
X136800000Y-61425000D01*
G75*
G02*
X137000000Y-61225000I200000J0D01*
G01*
X137400000Y-61225000D01*
G75*
G02*
X137600000Y-61425000I0J-200000D01*
G01*
G37*
%TD*%
%TO.C,R13*%
G36*
G01*
X139925000Y-61975000D02*
X139925000Y-61425000D01*
G75*
G02*
X140125000Y-61225000I200000J0D01*
G01*
X140525000Y-61225000D01*
G75*
G02*
X140725000Y-61425000I0J-200000D01*
G01*
X140725000Y-61975000D01*
G75*
G02*
X140525000Y-62175000I-200000J0D01*
G01*
X140125000Y-62175000D01*
G75*
G02*
X139925000Y-61975000I0J200000D01*
G01*
G37*
G36*
G01*
X138275000Y-61975000D02*
X138275000Y-61425000D01*
G75*
G02*
X138475000Y-61225000I200000J0D01*
G01*
X138875000Y-61225000D01*
G75*
G02*
X139075000Y-61425000I0J-200000D01*
G01*
X139075000Y-61975000D01*
G75*
G02*
X138875000Y-62175000I-200000J0D01*
G01*
X138475000Y-62175000D01*
G75*
G02*
X138275000Y-61975000I0J200000D01*
G01*
G37*
%TD*%
%TO.C,R11*%
G36*
G01*
X150425000Y-75975000D02*
X149875000Y-75975000D01*
G75*
G02*
X149675000Y-75775000I0J200000D01*
G01*
X149675000Y-75375000D01*
G75*
G02*
X149875000Y-75175000I200000J0D01*
G01*
X150425000Y-75175000D01*
G75*
G02*
X150625000Y-75375000I0J-200000D01*
G01*
X150625000Y-75775000D01*
G75*
G02*
X150425000Y-75975000I-200000J0D01*
G01*
G37*
G36*
G01*
X150425000Y-77625000D02*
X149875000Y-77625000D01*
G75*
G02*
X149675000Y-77425000I0J200000D01*
G01*
X149675000Y-77025000D01*
G75*
G02*
X149875000Y-76825000I200000J0D01*
G01*
X150425000Y-76825000D01*
G75*
G02*
X150625000Y-77025000I0J-200000D01*
G01*
X150625000Y-77425000D01*
G75*
G02*
X150425000Y-77625000I-200000J0D01*
G01*
G37*
%TD*%
%TO.C,R10*%
G36*
G01*
X145900000Y-85275000D02*
X145900000Y-85825000D01*
G75*
G02*
X145700000Y-86025000I-200000J0D01*
G01*
X145300000Y-86025000D01*
G75*
G02*
X145100000Y-85825000I0J200000D01*
G01*
X145100000Y-85275000D01*
G75*
G02*
X145300000Y-85075000I200000J0D01*
G01*
X145700000Y-85075000D01*
G75*
G02*
X145900000Y-85275000I0J-200000D01*
G01*
G37*
G36*
G01*
X147550000Y-85275000D02*
X147550000Y-85825000D01*
G75*
G02*
X147350000Y-86025000I-200000J0D01*
G01*
X146950000Y-86025000D01*
G75*
G02*
X146750000Y-85825000I0J200000D01*
G01*
X146750000Y-85275000D01*
G75*
G02*
X146950000Y-85075000I200000J0D01*
G01*
X147350000Y-85075000D01*
G75*
G02*
X147550000Y-85275000I0J-200000D01*
G01*
G37*
%TD*%
%TO.C,R7*%
G36*
G01*
X165325000Y-83125000D02*
X165325000Y-83675000D01*
G75*
G02*
X165125000Y-83875000I-200000J0D01*
G01*
X164725000Y-83875000D01*
G75*
G02*
X164525000Y-83675000I0J200000D01*
G01*
X164525000Y-83125000D01*
G75*
G02*
X164725000Y-82925000I200000J0D01*
G01*
X165125000Y-82925000D01*
G75*
G02*
X165325000Y-83125000I0J-200000D01*
G01*
G37*
G36*
G01*
X166975000Y-83125000D02*
X166975000Y-83675000D01*
G75*
G02*
X166775000Y-83875000I-200000J0D01*
G01*
X166375000Y-83875000D01*
G75*
G02*
X166175000Y-83675000I0J200000D01*
G01*
X166175000Y-83125000D01*
G75*
G02*
X166375000Y-82925000I200000J0D01*
G01*
X166775000Y-82925000D01*
G75*
G02*
X166975000Y-83125000I0J-200000D01*
G01*
G37*
%TD*%
%TO.C,R6*%
G36*
G01*
X141925000Y-76600000D02*
X142475000Y-76600000D01*
G75*
G02*
X142675000Y-76800000I0J-200000D01*
G01*
X142675000Y-77200000D01*
G75*
G02*
X142475000Y-77400000I-200000J0D01*
G01*
X141925000Y-77400000D01*
G75*
G02*
X141725000Y-77200000I0J200000D01*
G01*
X141725000Y-76800000D01*
G75*
G02*
X141925000Y-76600000I200000J0D01*
G01*
G37*
G36*
G01*
X141925000Y-74950000D02*
X142475000Y-74950000D01*
G75*
G02*
X142675000Y-75150000I0J-200000D01*
G01*
X142675000Y-75550000D01*
G75*
G02*
X142475000Y-75750000I-200000J0D01*
G01*
X141925000Y-75750000D01*
G75*
G02*
X141725000Y-75550000I0J200000D01*
G01*
X141725000Y-75150000D01*
G75*
G02*
X141925000Y-74950000I200000J0D01*
G01*
G37*
%TD*%
%TO.C,R4*%
G36*
G01*
X136675000Y-63075000D02*
X136675000Y-63625000D01*
G75*
G02*
X136475000Y-63825000I-200000J0D01*
G01*
X136075000Y-63825000D01*
G75*
G02*
X135875000Y-63625000I0J200000D01*
G01*
X135875000Y-63075000D01*
G75*
G02*
X136075000Y-62875000I200000J0D01*
G01*
X136475000Y-62875000D01*
G75*
G02*
X136675000Y-63075000I0J-200000D01*
G01*
G37*
G36*
G01*
X138325000Y-63075000D02*
X138325000Y-63625000D01*
G75*
G02*
X138125000Y-63825000I-200000J0D01*
G01*
X137725000Y-63825000D01*
G75*
G02*
X137525000Y-63625000I0J200000D01*
G01*
X137525000Y-63075000D01*
G75*
G02*
X137725000Y-62875000I200000J0D01*
G01*
X138125000Y-62875000D01*
G75*
G02*
X138325000Y-63075000I0J-200000D01*
G01*
G37*
%TD*%
%TO.C,R3*%
G36*
G01*
X136675000Y-64625000D02*
X136675000Y-65175000D01*
G75*
G02*
X136475000Y-65375000I-200000J0D01*
G01*
X136075000Y-65375000D01*
G75*
G02*
X135875000Y-65175000I0J200000D01*
G01*
X135875000Y-64625000D01*
G75*
G02*
X136075000Y-64425000I200000J0D01*
G01*
X136475000Y-64425000D01*
G75*
G02*
X136675000Y-64625000I0J-200000D01*
G01*
G37*
G36*
G01*
X138325000Y-64625000D02*
X138325000Y-65175000D01*
G75*
G02*
X138125000Y-65375000I-200000J0D01*
G01*
X137725000Y-65375000D01*
G75*
G02*
X137525000Y-65175000I0J200000D01*
G01*
X137525000Y-64625000D01*
G75*
G02*
X137725000Y-64425000I200000J0D01*
G01*
X138125000Y-64425000D01*
G75*
G02*
X138325000Y-64625000I0J-200000D01*
G01*
G37*
%TD*%
%TO.C,R2*%
G36*
G01*
X124375000Y-82025000D02*
X124375000Y-82575000D01*
G75*
G02*
X124175000Y-82775000I-200000J0D01*
G01*
X123775000Y-82775000D01*
G75*
G02*
X123575000Y-82575000I0J200000D01*
G01*
X123575000Y-82025000D01*
G75*
G02*
X123775000Y-81825000I200000J0D01*
G01*
X124175000Y-81825000D01*
G75*
G02*
X124375000Y-82025000I0J-200000D01*
G01*
G37*
G36*
G01*
X126025000Y-82025000D02*
X126025000Y-82575000D01*
G75*
G02*
X125825000Y-82775000I-200000J0D01*
G01*
X125425000Y-82775000D01*
G75*
G02*
X125225000Y-82575000I0J200000D01*
G01*
X125225000Y-82025000D01*
G75*
G02*
X125425000Y-81825000I200000J0D01*
G01*
X125825000Y-81825000D01*
G75*
G02*
X126025000Y-82025000I0J-200000D01*
G01*
G37*
%TD*%
D21*
%TO.C,MK1*%
X182550000Y-78025000D03*
X182550000Y-79925000D03*
%TD*%
D22*
%TO.C,J6*%
X176725000Y-69600000D03*
X183725000Y-69500000D03*
%TD*%
D23*
%TO.C,J4*%
X136300000Y-75825000D03*
X130800000Y-75825000D03*
D24*
X135300000Y-73325000D03*
X134800000Y-73325000D03*
X134300000Y-73325000D03*
X133800000Y-73325000D03*
X133300000Y-73325000D03*
X132800000Y-73325000D03*
X132300000Y-73325000D03*
X131800000Y-73325000D03*
%TD*%
D10*
%TO.C,J3*%
X157078000Y-61060000D03*
X159618000Y-61060000D03*
D11*
X162158000Y-61060000D03*
%TD*%
%TO.C,C33*%
G36*
G01*
X180575000Y-78300000D02*
X179625000Y-78300000D01*
G75*
G02*
X179375000Y-78050000I0J250000D01*
G01*
X179375000Y-77550000D01*
G75*
G02*
X179625000Y-77300000I250000J0D01*
G01*
X180575000Y-77300000D01*
G75*
G02*
X180825000Y-77550000I0J-250000D01*
G01*
X180825000Y-78050000D01*
G75*
G02*
X180575000Y-78300000I-250000J0D01*
G01*
G37*
G36*
G01*
X180575000Y-80200000D02*
X179625000Y-80200000D01*
G75*
G02*
X179375000Y-79950000I0J250000D01*
G01*
X179375000Y-79450000D01*
G75*
G02*
X179625000Y-79200000I250000J0D01*
G01*
X180575000Y-79200000D01*
G75*
G02*
X180825000Y-79450000I0J-250000D01*
G01*
X180825000Y-79950000D01*
G75*
G02*
X180575000Y-80200000I-250000J0D01*
G01*
G37*
%TD*%
%TO.C,C32*%
G36*
G01*
X166925000Y-73500000D02*
X167875000Y-73500000D01*
G75*
G02*
X168125000Y-73750000I0J-250000D01*
G01*
X168125000Y-74250000D01*
G75*
G02*
X167875000Y-74500000I-250000J0D01*
G01*
X166925000Y-74500000D01*
G75*
G02*
X166675000Y-74250000I0J250000D01*
G01*
X166675000Y-73750000D01*
G75*
G02*
X166925000Y-73500000I250000J0D01*
G01*
G37*
G36*
G01*
X166925000Y-71600000D02*
X167875000Y-71600000D01*
G75*
G02*
X168125000Y-71850000I0J-250000D01*
G01*
X168125000Y-72350000D01*
G75*
G02*
X167875000Y-72600000I-250000J0D01*
G01*
X166925000Y-72600000D01*
G75*
G02*
X166675000Y-72350000I0J250000D01*
G01*
X166675000Y-71850000D01*
G75*
G02*
X166925000Y-71600000I250000J0D01*
G01*
G37*
%TD*%
%TO.C,C30*%
G36*
G01*
X185675000Y-78400000D02*
X184725000Y-78400000D01*
G75*
G02*
X184475000Y-78150000I0J250000D01*
G01*
X184475000Y-77650000D01*
G75*
G02*
X184725000Y-77400000I250000J0D01*
G01*
X185675000Y-77400000D01*
G75*
G02*
X185925000Y-77650000I0J-250000D01*
G01*
X185925000Y-78150000D01*
G75*
G02*
X185675000Y-78400000I-250000J0D01*
G01*
G37*
G36*
G01*
X185675000Y-80300000D02*
X184725000Y-80300000D01*
G75*
G02*
X184475000Y-80050000I0J250000D01*
G01*
X184475000Y-79550000D01*
G75*
G02*
X184725000Y-79300000I250000J0D01*
G01*
X185675000Y-79300000D01*
G75*
G02*
X185925000Y-79550000I0J-250000D01*
G01*
X185925000Y-80050000D01*
G75*
G02*
X185675000Y-80300000I-250000J0D01*
G01*
G37*
%TD*%
%TO.C,C28*%
G36*
G01*
X164875000Y-73550000D02*
X165825000Y-73550000D01*
G75*
G02*
X166075000Y-73800000I0J-250000D01*
G01*
X166075000Y-74300000D01*
G75*
G02*
X165825000Y-74550000I-250000J0D01*
G01*
X164875000Y-74550000D01*
G75*
G02*
X164625000Y-74300000I0J250000D01*
G01*
X164625000Y-73800000D01*
G75*
G02*
X164875000Y-73550000I250000J0D01*
G01*
G37*
G36*
G01*
X164875000Y-71650000D02*
X165825000Y-71650000D01*
G75*
G02*
X166075000Y-71900000I0J-250000D01*
G01*
X166075000Y-72400000D01*
G75*
G02*
X165825000Y-72650000I-250000J0D01*
G01*
X164875000Y-72650000D01*
G75*
G02*
X164625000Y-72400000I0J250000D01*
G01*
X164625000Y-71900000D01*
G75*
G02*
X164875000Y-71650000I250000J0D01*
G01*
G37*
%TD*%
%TO.C,C22*%
G36*
G01*
X145800000Y-81675000D02*
X145800000Y-80725000D01*
G75*
G02*
X146050000Y-80475000I250000J0D01*
G01*
X146550000Y-80475000D01*
G75*
G02*
X146800000Y-80725000I0J-250000D01*
G01*
X146800000Y-81675000D01*
G75*
G02*
X146550000Y-81925000I-250000J0D01*
G01*
X146050000Y-81925000D01*
G75*
G02*
X145800000Y-81675000I0J250000D01*
G01*
G37*
G36*
G01*
X143900000Y-81675000D02*
X143900000Y-80725000D01*
G75*
G02*
X144150000Y-80475000I250000J0D01*
G01*
X144650000Y-80475000D01*
G75*
G02*
X144900000Y-80725000I0J-250000D01*
G01*
X144900000Y-81675000D01*
G75*
G02*
X144650000Y-81925000I-250000J0D01*
G01*
X144150000Y-81925000D01*
G75*
G02*
X143900000Y-81675000I0J250000D01*
G01*
G37*
%TD*%
%TO.C,C21*%
G36*
G01*
X144900000Y-78725000D02*
X144900000Y-79675000D01*
G75*
G02*
X144650000Y-79925000I-250000J0D01*
G01*
X144150000Y-79925000D01*
G75*
G02*
X143900000Y-79675000I0J250000D01*
G01*
X143900000Y-78725000D01*
G75*
G02*
X144150000Y-78475000I250000J0D01*
G01*
X144650000Y-78475000D01*
G75*
G02*
X144900000Y-78725000I0J-250000D01*
G01*
G37*
G36*
G01*
X146800000Y-78725000D02*
X146800000Y-79675000D01*
G75*
G02*
X146550000Y-79925000I-250000J0D01*
G01*
X146050000Y-79925000D01*
G75*
G02*
X145800000Y-79675000I0J250000D01*
G01*
X145800000Y-78725000D01*
G75*
G02*
X146050000Y-78475000I250000J0D01*
G01*
X146550000Y-78475000D01*
G75*
G02*
X146800000Y-78725000I0J-250000D01*
G01*
G37*
%TD*%
%TO.C,C20*%
G36*
G01*
X165175000Y-66350000D02*
X164225000Y-66350000D01*
G75*
G02*
X163975000Y-66100000I0J250000D01*
G01*
X163975000Y-65600000D01*
G75*
G02*
X164225000Y-65350000I250000J0D01*
G01*
X165175000Y-65350000D01*
G75*
G02*
X165425000Y-65600000I0J-250000D01*
G01*
X165425000Y-66100000D01*
G75*
G02*
X165175000Y-66350000I-250000J0D01*
G01*
G37*
G36*
G01*
X165175000Y-68250000D02*
X164225000Y-68250000D01*
G75*
G02*
X163975000Y-68000000I0J250000D01*
G01*
X163975000Y-67500000D01*
G75*
G02*
X164225000Y-67250000I250000J0D01*
G01*
X165175000Y-67250000D01*
G75*
G02*
X165425000Y-67500000I0J-250000D01*
G01*
X165425000Y-68000000D01*
G75*
G02*
X165175000Y-68250000I-250000J0D01*
G01*
G37*
%TD*%
%TO.C,C19*%
G36*
G01*
X152375000Y-79800000D02*
X153325000Y-79800000D01*
G75*
G02*
X153575000Y-80050000I0J-250000D01*
G01*
X153575000Y-80550000D01*
G75*
G02*
X153325000Y-80800000I-250000J0D01*
G01*
X152375000Y-80800000D01*
G75*
G02*
X152125000Y-80550000I0J250000D01*
G01*
X152125000Y-80050000D01*
G75*
G02*
X152375000Y-79800000I250000J0D01*
G01*
G37*
G36*
G01*
X152375000Y-77900000D02*
X153325000Y-77900000D01*
G75*
G02*
X153575000Y-78150000I0J-250000D01*
G01*
X153575000Y-78650000D01*
G75*
G02*
X153325000Y-78900000I-250000J0D01*
G01*
X152375000Y-78900000D01*
G75*
G02*
X152125000Y-78650000I0J250000D01*
G01*
X152125000Y-78150000D01*
G75*
G02*
X152375000Y-77900000I250000J0D01*
G01*
G37*
%TD*%
%TO.C,C17*%
G36*
G01*
X145900000Y-83125000D02*
X145900000Y-84075000D01*
G75*
G02*
X145650000Y-84325000I-250000J0D01*
G01*
X145150000Y-84325000D01*
G75*
G02*
X144900000Y-84075000I0J250000D01*
G01*
X144900000Y-83125000D01*
G75*
G02*
X145150000Y-82875000I250000J0D01*
G01*
X145650000Y-82875000D01*
G75*
G02*
X145900000Y-83125000I0J-250000D01*
G01*
G37*
G36*
G01*
X147800000Y-83125000D02*
X147800000Y-84075000D01*
G75*
G02*
X147550000Y-84325000I-250000J0D01*
G01*
X147050000Y-84325000D01*
G75*
G02*
X146800000Y-84075000I0J250000D01*
G01*
X146800000Y-83125000D01*
G75*
G02*
X147050000Y-82875000I250000J0D01*
G01*
X147550000Y-82875000D01*
G75*
G02*
X147800000Y-83125000I0J-250000D01*
G01*
G37*
%TD*%
%TO.C,C16*%
G36*
G01*
X167250000Y-64925000D02*
X167250000Y-65875000D01*
G75*
G02*
X167000000Y-66125000I-250000J0D01*
G01*
X166500000Y-66125000D01*
G75*
G02*
X166250000Y-65875000I0J250000D01*
G01*
X166250000Y-64925000D01*
G75*
G02*
X166500000Y-64675000I250000J0D01*
G01*
X167000000Y-64675000D01*
G75*
G02*
X167250000Y-64925000I0J-250000D01*
G01*
G37*
G36*
G01*
X169150000Y-64925000D02*
X169150000Y-65875000D01*
G75*
G02*
X168900000Y-66125000I-250000J0D01*
G01*
X168400000Y-66125000D01*
G75*
G02*
X168150000Y-65875000I0J250000D01*
G01*
X168150000Y-64925000D01*
G75*
G02*
X168400000Y-64675000I250000J0D01*
G01*
X168900000Y-64675000D01*
G75*
G02*
X169150000Y-64925000I0J-250000D01*
G01*
G37*
%TD*%
%TO.C,C15*%
G36*
G01*
X142950000Y-71075000D02*
X142950000Y-70125000D01*
G75*
G02*
X143200000Y-69875000I250000J0D01*
G01*
X143700000Y-69875000D01*
G75*
G02*
X143950000Y-70125000I0J-250000D01*
G01*
X143950000Y-71075000D01*
G75*
G02*
X143700000Y-71325000I-250000J0D01*
G01*
X143200000Y-71325000D01*
G75*
G02*
X142950000Y-71075000I0J250000D01*
G01*
G37*
G36*
G01*
X141050000Y-71075000D02*
X141050000Y-70125000D01*
G75*
G02*
X141300000Y-69875000I250000J0D01*
G01*
X141800000Y-69875000D01*
G75*
G02*
X142050000Y-70125000I0J-250000D01*
G01*
X142050000Y-71075000D01*
G75*
G02*
X141800000Y-71325000I-250000J0D01*
G01*
X141300000Y-71325000D01*
G75*
G02*
X141050000Y-71075000I0J250000D01*
G01*
G37*
%TD*%
%TO.C,C13*%
G36*
G01*
X159675000Y-78900000D02*
X160625000Y-78900000D01*
G75*
G02*
X160875000Y-79150000I0J-250000D01*
G01*
X160875000Y-79650000D01*
G75*
G02*
X160625000Y-79900000I-250000J0D01*
G01*
X159675000Y-79900000D01*
G75*
G02*
X159425000Y-79650000I0J250000D01*
G01*
X159425000Y-79150000D01*
G75*
G02*
X159675000Y-78900000I250000J0D01*
G01*
G37*
G36*
G01*
X159675000Y-77000000D02*
X160625000Y-77000000D01*
G75*
G02*
X160875000Y-77250000I0J-250000D01*
G01*
X160875000Y-77750000D01*
G75*
G02*
X160625000Y-78000000I-250000J0D01*
G01*
X159675000Y-78000000D01*
G75*
G02*
X159425000Y-77750000I0J250000D01*
G01*
X159425000Y-77250000D01*
G75*
G02*
X159675000Y-77000000I250000J0D01*
G01*
G37*
%TD*%
%TO.C,C12*%
G36*
G01*
X164500000Y-78200000D02*
X164500000Y-77250000D01*
G75*
G02*
X164750000Y-77000000I250000J0D01*
G01*
X165250000Y-77000000D01*
G75*
G02*
X165500000Y-77250000I0J-250000D01*
G01*
X165500000Y-78200000D01*
G75*
G02*
X165250000Y-78450000I-250000J0D01*
G01*
X164750000Y-78450000D01*
G75*
G02*
X164500000Y-78200000I0J250000D01*
G01*
G37*
G36*
G01*
X162600000Y-78200000D02*
X162600000Y-77250000D01*
G75*
G02*
X162850000Y-77000000I250000J0D01*
G01*
X163350000Y-77000000D01*
G75*
G02*
X163600000Y-77250000I0J-250000D01*
G01*
X163600000Y-78200000D01*
G75*
G02*
X163350000Y-78450000I-250000J0D01*
G01*
X162850000Y-78450000D01*
G75*
G02*
X162600000Y-78200000I0J250000D01*
G01*
G37*
%TD*%
%TO.C,C11*%
G36*
G01*
X138550000Y-79675000D02*
X138550000Y-80625000D01*
G75*
G02*
X138300000Y-80875000I-250000J0D01*
G01*
X137800000Y-80875000D01*
G75*
G02*
X137550000Y-80625000I0J250000D01*
G01*
X137550000Y-79675000D01*
G75*
G02*
X137800000Y-79425000I250000J0D01*
G01*
X138300000Y-79425000D01*
G75*
G02*
X138550000Y-79675000I0J-250000D01*
G01*
G37*
G36*
G01*
X140450000Y-79675000D02*
X140450000Y-80625000D01*
G75*
G02*
X140200000Y-80875000I-250000J0D01*
G01*
X139700000Y-80875000D01*
G75*
G02*
X139450000Y-80625000I0J250000D01*
G01*
X139450000Y-79675000D01*
G75*
G02*
X139700000Y-79425000I250000J0D01*
G01*
X140200000Y-79425000D01*
G75*
G02*
X140450000Y-79675000I0J-250000D01*
G01*
G37*
%TD*%
%TO.C,C10*%
G36*
G01*
X138550000Y-71225000D02*
X138550000Y-72175000D01*
G75*
G02*
X138300000Y-72425000I-250000J0D01*
G01*
X137800000Y-72425000D01*
G75*
G02*
X137550000Y-72175000I0J250000D01*
G01*
X137550000Y-71225000D01*
G75*
G02*
X137800000Y-70975000I250000J0D01*
G01*
X138300000Y-70975000D01*
G75*
G02*
X138550000Y-71225000I0J-250000D01*
G01*
G37*
G36*
G01*
X140450000Y-71225000D02*
X140450000Y-72175000D01*
G75*
G02*
X140200000Y-72425000I-250000J0D01*
G01*
X139700000Y-72425000D01*
G75*
G02*
X139450000Y-72175000I0J250000D01*
G01*
X139450000Y-71225000D01*
G75*
G02*
X139700000Y-70975000I250000J0D01*
G01*
X140200000Y-70975000D01*
G75*
G02*
X140450000Y-71225000I0J-250000D01*
G01*
G37*
%TD*%
%TO.C,C9*%
G36*
G01*
X140750000Y-66875000D02*
X140750000Y-65925000D01*
G75*
G02*
X141000000Y-65675000I250000J0D01*
G01*
X141500000Y-65675000D01*
G75*
G02*
X141750000Y-65925000I0J-250000D01*
G01*
X141750000Y-66875000D01*
G75*
G02*
X141500000Y-67125000I-250000J0D01*
G01*
X141000000Y-67125000D01*
G75*
G02*
X140750000Y-66875000I0J250000D01*
G01*
G37*
G36*
G01*
X138850000Y-66875000D02*
X138850000Y-65925000D01*
G75*
G02*
X139100000Y-65675000I250000J0D01*
G01*
X139600000Y-65675000D01*
G75*
G02*
X139850000Y-65925000I0J-250000D01*
G01*
X139850000Y-66875000D01*
G75*
G02*
X139600000Y-67125000I-250000J0D01*
G01*
X139100000Y-67125000D01*
G75*
G02*
X138850000Y-66875000I0J250000D01*
G01*
G37*
%TD*%
%TO.C,C7*%
G36*
G01*
X134947000Y-67468000D02*
X133997000Y-67468000D01*
G75*
G02*
X133747000Y-67218000I0J250000D01*
G01*
X133747000Y-66718000D01*
G75*
G02*
X133997000Y-66468000I250000J0D01*
G01*
X134947000Y-66468000D01*
G75*
G02*
X135197000Y-66718000I0J-250000D01*
G01*
X135197000Y-67218000D01*
G75*
G02*
X134947000Y-67468000I-250000J0D01*
G01*
G37*
G36*
G01*
X134947000Y-69368000D02*
X133997000Y-69368000D01*
G75*
G02*
X133747000Y-69118000I0J250000D01*
G01*
X133747000Y-68618000D01*
G75*
G02*
X133997000Y-68368000I250000J0D01*
G01*
X134947000Y-68368000D01*
G75*
G02*
X135197000Y-68618000I0J-250000D01*
G01*
X135197000Y-69118000D01*
G75*
G02*
X134947000Y-69368000I-250000J0D01*
G01*
G37*
%TD*%
%TO.C,C5*%
G36*
G01*
X149925000Y-73600000D02*
X150875000Y-73600000D01*
G75*
G02*
X151125000Y-73850000I0J-250000D01*
G01*
X151125000Y-74350000D01*
G75*
G02*
X150875000Y-74600000I-250000J0D01*
G01*
X149925000Y-74600000D01*
G75*
G02*
X149675000Y-74350000I0J250000D01*
G01*
X149675000Y-73850000D01*
G75*
G02*
X149925000Y-73600000I250000J0D01*
G01*
G37*
G36*
G01*
X149925000Y-71700000D02*
X150875000Y-71700000D01*
G75*
G02*
X151125000Y-71950000I0J-250000D01*
G01*
X151125000Y-72450000D01*
G75*
G02*
X150875000Y-72700000I-250000J0D01*
G01*
X149925000Y-72700000D01*
G75*
G02*
X149675000Y-72450000I0J250000D01*
G01*
X149675000Y-71950000D01*
G75*
G02*
X149925000Y-71700000I250000J0D01*
G01*
G37*
%TD*%
%TO.C,C4*%
G36*
G01*
X124600000Y-83625000D02*
X124600000Y-84575000D01*
G75*
G02*
X124350000Y-84825000I-250000J0D01*
G01*
X123850000Y-84825000D01*
G75*
G02*
X123600000Y-84575000I0J250000D01*
G01*
X123600000Y-83625000D01*
G75*
G02*
X123850000Y-83375000I250000J0D01*
G01*
X124350000Y-83375000D01*
G75*
G02*
X124600000Y-83625000I0J-250000D01*
G01*
G37*
G36*
G01*
X126500000Y-83625000D02*
X126500000Y-84575000D01*
G75*
G02*
X126250000Y-84825000I-250000J0D01*
G01*
X125750000Y-84825000D01*
G75*
G02*
X125500000Y-84575000I0J250000D01*
G01*
X125500000Y-83625000D01*
G75*
G02*
X125750000Y-83375000I250000J0D01*
G01*
X126250000Y-83375000D01*
G75*
G02*
X126500000Y-83625000I0J-250000D01*
G01*
G37*
%TD*%
%TO.C,C2*%
G36*
G01*
X157575000Y-82100000D02*
X156625000Y-82100000D01*
G75*
G02*
X156375000Y-81850000I0J250000D01*
G01*
X156375000Y-81350000D01*
G75*
G02*
X156625000Y-81100000I250000J0D01*
G01*
X157575000Y-81100000D01*
G75*
G02*
X157825000Y-81350000I0J-250000D01*
G01*
X157825000Y-81850000D01*
G75*
G02*
X157575000Y-82100000I-250000J0D01*
G01*
G37*
G36*
G01*
X157575000Y-84000000D02*
X156625000Y-84000000D01*
G75*
G02*
X156375000Y-83750000I0J250000D01*
G01*
X156375000Y-83250000D01*
G75*
G02*
X156625000Y-83000000I250000J0D01*
G01*
X157575000Y-83000000D01*
G75*
G02*
X157825000Y-83250000I0J-250000D01*
G01*
X157825000Y-83750000D01*
G75*
G02*
X157575000Y-84000000I-250000J0D01*
G01*
G37*
%TD*%
%TO.C,C1*%
G36*
G01*
X124599000Y-68368000D02*
X125549000Y-68368000D01*
G75*
G02*
X125799000Y-68618000I0J-250000D01*
G01*
X125799000Y-69118000D01*
G75*
G02*
X125549000Y-69368000I-250000J0D01*
G01*
X124599000Y-69368000D01*
G75*
G02*
X124349000Y-69118000I0J250000D01*
G01*
X124349000Y-68618000D01*
G75*
G02*
X124599000Y-68368000I250000J0D01*
G01*
G37*
G36*
G01*
X124599000Y-66468000D02*
X125549000Y-66468000D01*
G75*
G02*
X125799000Y-66718000I0J-250000D01*
G01*
X125799000Y-67218000D01*
G75*
G02*
X125549000Y-67468000I-250000J0D01*
G01*
X124599000Y-67468000D01*
G75*
G02*
X124349000Y-67218000I0J250000D01*
G01*
X124349000Y-66718000D01*
G75*
G02*
X124599000Y-66468000I250000J0D01*
G01*
G37*
%TD*%
M02*
