M48
; DRILL file {KiCad (5.1.9)-1} date 04/11/21 16:36:20
; FORMAT={-:-/ absolute / inch / decimal}
; #@! TF.CreationDate,2021-04-11T16:36:20+08:00
; #@! TF.GenerationSoftware,Kicad,Pcbnew,(5.1.9)-1
FMAT,2
INCH
T1C0.0157
T2C0.0197
T3C0.0256
T4C0.0276
T5C0.0281
T6C0.0295
T7C0.0394
T8C0.1181
T9C0.0433
%
G90
G05
T1
X4.6949Y-2.8524
X4.6949Y-2.9252
X4.9173Y-2.9409
X4.9459Y-3.1565
X5.0413Y-3.0236
X5.1299Y-3.2244
X5.2283Y-2.8287
X5.2362Y-2.9843
X5.2942Y-2.6365
X5.3031Y-3.0709
X5.311Y-3.0256
X5.3209Y-2.4961
X5.3209Y-2.5571
X5.3268Y-2.9429
X5.3543Y-2.813
X5.435Y-2.8248
X5.4724Y-2.7224
X5.4921Y-2.5728
X5.5079Y-2.6811
X5.5315Y-3.2815
X5.5591Y-2.8465
X5.561Y-2.6142
X5.5709Y-2.7795
X5.5846Y-2.4587
X5.6083Y-3.4941
X5.6122Y-2.5728
X5.6201Y-2.4173
X5.6811Y-2.6585
X5.6811Y-3.1299
X5.6831Y-3.1811
X5.685Y-2.9508
X5.7087Y-3.0295
X5.7283Y-3.3701
X5.7382Y-2.8071
X5.7579Y-2.6594
X5.7795Y-3.0157
X5.7933Y-3.3681
X5.8091Y-2.7992
X5.8504Y-2.9587
X5.8701Y-3.128
X5.8819Y-3.1791
X5.9035Y-3.0768
X5.9213Y-2.9173
X5.9557Y-2.6093
X6.0315Y-2.6791
X6.0315Y-2.7224
X6.0827Y-3.4961
X6.1299Y-2.6791
X6.1634Y-2.7126
X6.185Y-3.2126
X6.185Y-3.4035
X6.1929Y-2.5709
X6.1988Y-2.752
X6.2224Y-2.8051
X6.2303Y-2.5295
X6.2815Y-2.5335
X6.2815Y-2.811
X6.2894Y-2.6398
X6.372Y-2.3228
X6.3858Y-2.5059
X6.3858Y-2.5945
X6.4035Y-3.2835
X6.4114Y-3.4035
X6.4488Y-2.3228
X6.4616Y-2.8031
X6.4744Y-2.5925
X6.5Y-3.0591
X6.5089Y-2.8169
X6.563Y-2.8051
X6.5846Y-3.4272
X6.5905Y-2.9173
X6.5945Y-3.0236
X6.5945Y-3.1161
X6.6555Y-2.5039
X6.6555Y-2.8839
X6.6614Y-2.3268
X6.6732Y-2.6378
X6.7303Y-3.4272
X6.7323Y-2.7126
X6.7343Y-2.752
X6.7441Y-2.6614
X6.7913Y-2.9587
X6.7913Y-3.1437
X6.8071Y-2.874
X6.8366Y-2.7087
X6.8386Y-2.4961
X6.8406Y-2.4173
X6.9154Y-2.4961
X6.9783Y-3.4272
X7.0945Y-3.2185
X7.1181Y-2.5591
X7.1181Y-2.6732
X7.1181Y-2.7717
X7.1949Y-3.2185
X7.1969Y-2.8799
X7.2776Y-2.8819
X7.2776Y-3.2185
T2
X4.8878Y-3.3957
T5
X6.0201Y-3.0039
X6.1201Y-2.9039
X6.2201Y-3.0039
T6
X7.187Y-3.0719
X7.187Y-3.1467
T7
X5.7701Y-2.4016
X5.8701Y-2.4016
X5.9701Y-2.4016
X6.1842Y-2.4039
X6.2842Y-2.4039
X6.3842Y-2.4039
T8
X4.7431Y-3.373
X4.747Y-2.4449
X7.2274Y-2.4478
X7.2274Y-3.377
T9
X6.9577Y-2.7402
X7.2333Y-2.7362
T3
G00X4.8312Y-2.7943
M15
G01X4.8154Y-2.7943
M16
G05
G00X4.8312Y-2.9852
M15
G01X4.8154Y-2.9852
M16
G05
T4
G00X4.7146Y-2.7283
M15
G01X4.6894Y-2.7283
M16
G05
G00X4.7146Y-3.0512
M15
G01X4.6894Y-3.0512
M16
G05
T0
M30
